<?xml version="1.0" encoding="UTF-8"?>
<svg width="456px" height="152px" viewBox="0 0 456 152" version="1.1" xmlns="http://www.w3.org/2000/svg" xmlns:xlink="http://www.w3.org/1999/xlink">
    <title>best-practices</title>
    <g id="Doc_exemplos" stroke="none" stroke-width="1" fill="none" fill-rule="evenodd">
        <g id="doc-exemplos-cores-expandido" transform="translate(-901.000000, -389.000000)">
            <g id="best-practices" transform="translate(901.000000, 389.000000)">
                <rect id="base" fill="#FFFFFF" x="0" y="0" width="456" height="152"></rect>
                <g id="legenda" transform="translate(0.000000, 117.735228)">
                    <rect id="amostra" stroke="#D5D5D5" stroke-width="0.6" fill="#F1F1F1" x="0.3" y="2.24981135" width="9.01264822" height="8.97480315" rx="2.4"></rect>
                    <path d="M19.160025,14.3039063 L19.160025,11.2208984 C19.160025,10.8289714 19.1326813,10.4142578 19.0779938,9.97675781 L19.0779938,9.97675781 L19.160025,9.97675781 C19.4334625,10.3504557 19.7718414,10.6273112 20.1751617,10.8073242 C20.578482,10.9873372 21.0239573,11.0773438 21.5115875,11.0773438 C22.4868479,11.0773438 23.249055,10.7366862 23.7982086,10.0553711 C24.3473623,9.37405599 24.6219391,8.41816406 24.6219391,7.18769531 C24.6219391,5.96178385 24.3519195,5.0093099 23.8118805,4.33027344 C23.2718414,3.65123698 22.5050771,3.31171875 21.5115875,3.31171875 C21.0102854,3.31171875 20.5659495,3.40286458 20.1785797,3.58515625 C19.7912099,3.76744792 19.4516917,4.06367188 19.160025,4.47382813 L19.160025,4.47382813 L19.1053375,4.47382813 L18.9481109,3.4484375 L18.0252594,3.4484375 L18.0252594,14.3039063 L19.160025,14.3039063 Z M21.3748688,10.1271484 C20.6001292,10.1271484 20.0373037,9.90042318 19.6863922,9.44697266 C19.3354807,8.99352214 19.160025,8.24042969 19.160025,7.18769531 L19.160025,7.18769531 L19.160025,6.93476563 C19.1691396,6.00963542 19.3445953,5.33515625 19.6863922,4.91132813 C20.0281891,4.4875 20.5819,4.27558594 21.347525,4.27558594 C22.0128896,4.27558594 22.5290029,4.52509766 22.8958649,5.02412109 C23.2627268,5.52314453 23.4461578,6.23977865 23.4461578,7.17402344 C23.4461578,8.09459635 23.2627268,8.81692708 22.8958649,9.34101563 C22.5290029,9.86510417 22.0220042,10.1271484 21.3748688,10.1271484 Z M27.7391266,10.940625 L27.7391266,6.92109375 C27.7391266,6.18736979 27.9544586,5.57441406 28.3851227,5.08222656 C28.8157867,4.59003906 29.3341787,4.34394531 29.9402984,4.34394531 C30.1772776,4.34394531 30.4507151,4.378125 30.7606109,4.44648438 L30.7606109,4.44648438 L30.9178375,3.39375 C30.6535146,3.3390625 30.355012,3.31171875 30.0223297,3.31171875 C29.5529287,3.31171875 29.1222646,3.44388021 28.7303375,3.70820313 C28.3384104,3.97252604 28.0034495,4.3485026 27.7254547,4.83613281 L27.7254547,4.83613281 L27.6707672,4.83613281 L27.5408844,3.4484375 L26.6043609,3.4484375 L26.6043609,10.940625 L27.7391266,10.940625 Z M35.4842438,11.0773438 C35.9901031,11.0773438 36.4219065,11.0397461 36.7796539,10.9645508 C37.1374013,10.8893555 37.5167958,10.7651693 37.9178375,10.5919922 L37.9178375,10.5919922 L37.9178375,9.58027344 C37.1294261,9.91751302 36.3319,10.0861328 35.5252594,10.0861328 C34.7596344,10.0861328 34.1660471,9.85826823 33.7444977,9.40253906 C33.3229482,8.9468099 33.1007802,8.27916667 33.0779938,7.39960938 L33.0779938,7.39960938 L38.2391266,7.39960938 L38.2391266,6.68183594 C38.2391266,5.67011719 37.9656891,4.8555013 37.4188141,4.23798828 C36.8719391,3.62047526 36.1291005,3.31171875 35.1902984,3.31171875 C34.1876943,3.31171875 33.3890289,3.6671875 32.7943024,4.378125 C32.1995758,5.0890625 31.9022125,6.0483724 31.9022125,7.25605469 C31.9022125,8.4546224 32.2223623,9.39114583 32.8626617,10.065625 C33.5029612,10.7401042 34.3768219,11.0773438 35.4842438,11.0773438 Z M37.0223297,6.47675781 L33.1053375,6.47675781 C33.1691396,5.78404948 33.3799143,5.24173177 33.7376617,4.84980469 C34.0954091,4.4578776 34.5750641,4.26191406 35.1766266,4.26191406 C35.7690745,4.26191406 36.2248037,4.45218099 36.5438141,4.83271484 C36.8628245,5.2132487 37.0223297,5.76126302 37.0223297,6.47675781 L37.0223297,6.47675781 Z M42.8602203,11.0773438 C43.9038401,11.0773438 44.6876943,10.6968099 45.2117828,9.93574219 L45.2117828,9.93574219 L45.2733063,9.93574219 L45.4236969,10.940625 L46.3465484,10.940625 L46.3465484,0.30390625 L45.2117828,0.30390625 L45.2117828,3.35273438 L45.2391266,3.87910156 L45.2869781,4.41914063 L45.1981109,4.41914063 C44.6557932,3.68085938 43.8764964,3.31171875 42.8602203,3.31171875 C41.8849599,3.31171875 41.1238922,3.65351563 40.5770172,4.33710938 C40.0301422,5.02070313 39.7567047,5.98001302 39.7567047,7.21503906 C39.7567047,8.4500651 40.0290029,9.40253906 40.5735992,10.0724609 C41.1181956,10.7423828 41.8804026,11.0773438 42.8602203,11.0773438 Z M43.003775,10.1271484 C42.3247386,10.1271484 41.8097646,9.88333333 41.4588531,9.39570313 C41.1079417,8.90807292 40.9324859,8.18574219 40.9324859,7.22871094 C40.9324859,6.28535156 41.109081,5.55504557 41.4622711,5.03779297 C41.8154612,4.52054036 42.3247386,4.26191406 42.9901031,4.26191406 C43.7648427,4.26191406 44.3288076,4.48863932 44.6819977,4.94208984 C45.0351878,5.39554036 45.2117828,6.1531901 45.2117828,7.21503906 L45.2117828,7.21503906 L45.2117828,7.45429688 C45.2117828,8.39309896 45.0374664,9.07327474 44.6888336,9.49482422 C44.3402008,9.9163737 43.7785146,10.1271484 43.003775,10.1271484 Z M51.7469391,11.0773438 C52.8315745,11.0773438 53.6815094,10.7344076 54.2967438,10.0485352 C54.9119781,9.36266276 55.2195953,8.40904948 55.2195953,7.18769531 C55.2195953,5.99824219 54.9108388,5.05488281 54.2933258,4.35761719 C53.6758128,3.66035156 52.8429677,3.31171875 51.7947906,3.31171875 C50.7101552,3.31171875 49.862499,3.6523763 49.2518219,4.33369141 C48.6411448,5.01500651 48.3358063,5.96634115 48.3358063,7.18769531 C48.3358063,7.97610677 48.4770823,8.66425781 48.7596344,9.25214844 C49.0421865,9.84003906 49.4432281,10.2912109 49.9627594,10.6056641 C50.4822906,10.9201172 51.0770172,11.0773438 51.7469391,11.0773438 Z M51.7742828,10.1271484 C51.0314443,10.1271484 50.4686188,9.8764974 50.0858063,9.37519531 C49.7029938,8.87389323 49.5115875,8.14472656 49.5115875,7.18769531 C49.5115875,6.22154948 49.7007151,5.49466146 50.0789703,5.00703125 C50.4572255,4.51940104 51.0177724,4.27558594 51.7606109,4.27558594 C52.5125641,4.27558594 53.0810862,4.52281901 53.4661774,5.01728516 C53.8512685,5.5117513 54.0438141,6.23522135 54.0438141,7.18769531 C54.0438141,8.14928385 53.8512685,8.87958984 53.4661774,9.37861328 C53.0810862,9.87763672 52.5171214,10.1271484 51.7742828,10.1271484 Z M58.3436188,10.940625 L58.3436188,7.00996094 C58.3436188,6.03925781 58.5088206,5.34085286 58.8392242,4.91474609 C59.1696279,4.48863932 59.6902984,4.27558594 60.4012359,4.27558594 C60.9435537,4.27558594 61.3423167,4.42483724 61.597525,4.72333984 C61.8527333,5.02184245 61.9803375,5.46959635 61.9803375,6.06660156 L61.9803375,6.06660156 L61.9803375,10.940625 L63.1151031,10.940625 L63.1151031,6.75703125 C63.1151031,5.91393229 63.2837229,5.28958333 63.6209625,4.88398438 C63.9582021,4.47838542 64.480012,4.27558594 65.1863922,4.27558594 C65.7241526,4.27558594 66.120637,4.42483724 66.3758453,4.72333984 C66.6310537,5.02184245 66.7586578,5.46959635 66.7586578,6.06660156 L66.7586578,6.06660156 L66.7586578,10.940625 L67.8934234,10.940625 L67.8934234,6.05292969 C67.8934234,5.09589844 67.6826487,4.39977214 67.2610992,3.96455078 C66.8395498,3.52932943 66.2049469,3.31171875 65.3572906,3.31171875 C64.8149729,3.31171875 64.3319,3.42565104 63.9080719,3.65351563 C63.4842438,3.88138021 63.1606761,4.19127604 62.9373688,4.58320313 L62.9373688,4.58320313 L62.8826813,4.58320313 C62.5226552,3.73554688 61.7570302,3.31171875 60.5858063,3.31171875 C60.1027333,3.31171875 59.6663727,3.41425781 59.2767242,3.61933594 C58.8870758,3.82441406 58.5851552,4.10924479 58.3709625,4.47382813 L58.3709625,4.47382813 L58.316275,4.47382813 L58.1317047,3.4484375 L57.2088531,3.4484375 L57.2088531,10.940625 L58.3436188,10.940625 Z M70.8055328,2.17695313 C70.9878245,2.17695313 71.1450511,2.11429036 71.2772125,1.98896484 C71.409374,1.86363932 71.4754547,1.6733724 71.4754547,1.41816406 C71.4754547,1.16295573 71.409374,0.973828125 71.2772125,0.85078125 C71.1450511,0.727734375 70.9878245,0.666210938 70.8055328,0.666210938 C70.6141266,0.666210938 70.4546214,0.726595052 70.3270172,0.847363281 C70.199413,0.96813151 70.1356109,1.15839844 70.1356109,1.41816406 C70.1356109,1.6733724 70.199413,1.86363932 70.3270172,1.98896484 C70.4546214,2.11429036 70.6141266,2.17695313 70.8055328,2.17695313 Z M71.3660797,10.940625 L71.3660797,3.4484375 L70.2313141,3.4484375 L70.2313141,10.940625 L71.3660797,10.940625 Z M74.9070953,10.940625 L74.9070953,7.00996094 C74.9070953,6.03470052 75.089387,5.33515625 75.4539703,4.91132813 C75.8185537,4.4875 76.3927724,4.27558594 77.1766266,4.27558594 C77.7690745,4.27558594 78.2042958,4.42597656 78.4822906,4.72675781 C78.7602854,5.02753906 78.8992828,5.48326823 78.8992828,6.09394531 L78.8992828,6.09394531 L78.8992828,10.940625 L80.0340484,10.940625 L80.0340484,6.05292969 C80.0340484,5.09589844 79.8061839,4.39977214 79.3504547,3.96455078 C78.8947255,3.52932943 78.2156891,3.31171875 77.3133453,3.31171875 C76.7983714,3.31171875 76.331249,3.41311849 75.9119781,3.61591797 C75.4927073,3.81871745 75.1668609,4.1046875 74.9344391,4.47382813 L74.9344391,4.47382813 L74.8797516,4.47382813 L74.6951813,3.4484375 L73.7723297,3.4484375 L73.7723297,10.940625 L74.9070953,10.940625 Z M84.1834625,11.0773438 C84.7394521,11.0773438 85.2031565,10.9941732 85.5745758,10.827832 C85.9459951,10.6614909 86.3185537,10.3436198 86.6922516,9.87421875 L86.6922516,9.87421875 L86.7469391,9.87421875 L86.972525,10.940625 L87.8133453,10.940625 L87.8133453,5.82734375 C87.8133453,4.95234375 87.5980133,4.31660156 87.1673492,3.92011719 C86.7366852,3.52363281 86.0747386,3.32539063 85.1815094,3.32539063 C84.7394521,3.32539063 84.2985341,3.38235677 83.8587555,3.49628906 C83.4189768,3.61022135 83.0145172,3.76744792 82.6453766,3.96796875 L82.6453766,3.96796875 L82.9940094,4.83613281 C83.7824208,4.45332031 84.4888011,4.26191406 85.11315,4.26191406 C85.6691396,4.26191406 86.0735992,4.40205078 86.3265289,4.68232422 C86.5794586,4.96259766 86.7059234,5.39667969 86.7059234,5.98457031 L86.7059234,5.98457031 L86.7059234,6.44941406 L85.4344391,6.49042969 C83.0145172,6.56334635 81.8045563,7.3563151 81.8045563,8.86933594 C81.8045563,9.57571615 82.015331,10.1203125 82.4368805,10.503125 C82.85843,10.8859375 83.440624,11.0773438 84.1834625,11.0773438 Z M84.4090484,10.1408203 C83.9624339,10.1408203 83.6149404,10.033724 83.366568,9.81953125 C83.1181956,9.60533854 82.9940094,9.29316406 82.9940094,8.88300781 C82.9940094,8.35891927 83.1933909,7.9726888 83.5921539,7.72431641 C83.9909169,7.47594401 84.6414703,7.33580729 85.5438141,7.30390625 L85.5438141,7.30390625 L86.6785797,7.25605469 L86.6785797,7.9328125 C86.6785797,8.63007813 86.4769195,9.17239583 86.0735992,9.55976563 C85.6702789,9.94713542 85.1154287,10.1408203 84.4090484,10.1408203 Z M91.2860016,10.940625 L91.2860016,7.00996094 C91.2860016,6.03470052 91.4682932,5.33515625 91.8328766,4.91132813 C92.1974599,4.4875 92.7716787,4.27558594 93.5555328,4.27558594 C94.1479807,4.27558594 94.5832021,4.42597656 94.8611969,4.72675781 C95.1391917,5.02753906 95.2781891,5.48326823 95.2781891,6.09394531 L95.2781891,6.09394531 L95.2781891,10.940625 L96.4129547,10.940625 L96.4129547,6.05292969 C96.4129547,5.09589844 96.1850901,4.39977214 95.7293609,3.96455078 C95.2736318,3.52932943 94.5945953,3.31171875 93.6922516,3.31171875 C93.1772776,3.31171875 92.7101552,3.41311849 92.2908844,3.61591797 C91.8716136,3.81871745 91.5457672,4.1046875 91.3133453,4.47382813 L91.3133453,4.47382813 L91.2586578,4.47382813 L91.0740875,3.4484375 L90.1512359,3.4484375 L90.1512359,10.940625 L91.2860016,10.940625 Z M100.999869,11.0773438 C101.191275,11.0773438 101.406607,11.0579753 101.645865,11.0192383 C101.885123,10.9805013 102.066275,10.9315104 102.189322,10.8722656 L102.189322,10.8722656 L102.189322,10.0041016 C102.079947,10.0360026 101.931835,10.0667643 101.744986,10.0963867 C101.558137,10.1260091 101.364452,10.1408203 101.163931,10.1408203 C100.790233,10.1408203 100.496288,10.0200521 100.282095,9.77851563 C100.067903,9.53697917 99.9608063,9.190625 99.9608063,8.73945313 L99.9608063,8.73945313 L99.9608063,4.33027344 L102.134634,4.33027344 L102.134634,3.4484375 L99.9608063,3.4484375 L99.9608063,1.71210938 L99.3045563,1.71210938 L98.8260406,3.31171875 L97.7527984,3.78339844 L97.7527984,4.33027344 L98.8260406,4.33027344 L98.8260406,8.78730469 C98.8260406,10.3139974 99.55065,11.0773438 100.999869,11.0773438 Z M106.851431,11.0773438 C107.357291,11.0773438 107.789094,11.0397461 108.146841,10.9645508 C108.504589,10.8893555 108.883983,10.7651693 109.285025,10.5919922 L109.285025,10.5919922 L109.285025,9.58027344 C108.496614,9.91751302 107.699088,10.0861328 106.892447,10.0861328 C106.126822,10.0861328 105.533235,9.85826823 105.111685,9.40253906 C104.690136,8.9468099 104.467968,8.27916667 104.445181,7.39960938 L104.445181,7.39960938 L109.606314,7.39960938 L109.606314,6.68183594 C109.606314,5.67011719 109.332877,4.8555013 108.786002,4.23798828 C108.239127,3.62047526 107.496288,3.31171875 106.557486,3.31171875 C105.554882,3.31171875 104.756216,3.6671875 104.16149,4.378125 C103.566763,5.0890625 103.2694,6.0483724 103.2694,7.25605469 C103.2694,8.4546224 103.58955,9.39114583 104.229849,10.065625 C104.870149,10.7401042 105.744009,11.0773438 106.851431,11.0773438 Z M108.389517,6.47675781 L104.472525,6.47675781 C104.536327,5.78404948 104.747102,5.24173177 105.104849,4.84980469 C105.462597,4.4578776 105.942252,4.26191406 106.543814,4.26191406 C107.136262,4.26191406 107.591991,4.45218099 107.911002,4.83271484 C108.230012,5.2132487 108.389517,5.76126302 108.389517,6.47675781 L108.389517,6.47675781 Z" id="predominante" fill="#000000" fill-rule="nonzero"></path>
                    <path d="M164.608333,11.0773438 C165.369401,11.0773438 166.000585,10.9474609 166.501888,10.6876953 L166.501888,10.6876953 L166.501888,9.6828125 C165.845638,9.95169271 165.205338,10.0861328 164.580989,10.0861328 C163.851822,10.0861328 163.301529,9.84003906 162.93011,9.34785156 C162.558691,8.85566406 162.372981,8.14928385 162.372981,7.22871094 C162.372981,5.28730469 163.134049,4.31660156 164.656184,4.31660156 C164.884049,4.31660156 165.146093,4.34964193 165.442317,4.41572266 C165.738541,4.48180339 166.011979,4.56497396 166.26263,4.66523438 L166.26263,4.66523438 L166.611263,3.70136719 C166.406184,3.59654948 166.123632,3.50540365 165.763606,3.42792969 C165.40358,3.35045573 165.043554,3.31171875 164.683528,3.31171875 C163.566992,3.31171875 162.706803,3.65351563 162.102962,4.33710938 C161.499121,5.02070313 161.1972,5.9891276 161.1972,7.24238281 C161.1972,8.46373698 161.494563,9.40823568 162.08929,10.0758789 C162.684016,10.7435221 163.523697,11.0773438 164.608333,11.0773438 Z M171.273372,11.0773438 C172.358007,11.0773438 173.207942,10.7344076 173.823177,10.0485352 C174.438411,9.36266276 174.746028,8.40904948 174.746028,7.18769531 C174.746028,5.99824219 174.437272,5.05488281 173.819759,4.35761719 C173.202246,3.66035156 172.369401,3.31171875 171.321223,3.31171875 C170.236588,3.31171875 169.388932,3.6523763 168.778255,4.33369141 C168.167578,5.01500651 167.862239,5.96634115 167.862239,7.18769531 C167.862239,7.97610677 168.003515,8.66425781 168.286067,9.25214844 C168.568619,9.84003906 168.969661,10.2912109 169.489192,10.6056641 C170.008723,10.9201172 170.60345,11.0773438 171.273372,11.0773438 Z M171.300716,10.1271484 C170.557877,10.1271484 169.995052,9.8764974 169.612239,9.37519531 C169.229427,8.87389323 169.03802,8.14472656 169.03802,7.18769531 C169.03802,6.22154948 169.227148,5.49466146 169.605403,5.00703125 C169.983658,4.51940104 170.544205,4.27558594 171.287044,4.27558594 C172.038997,4.27558594 172.607519,4.52281901 172.99261,5.01728516 C173.377701,5.5117513 173.570247,6.23522135 173.570247,7.18769531 C173.570247,8.14928385 173.377701,8.87958984 172.99261,9.37861328 C172.607519,9.87763672 172.043554,10.1271484 171.300716,10.1271484 Z M177.870052,10.940625 L177.870052,6.92109375 C177.870052,6.18736979 178.085384,5.57441406 178.516048,5.08222656 C178.946712,4.59003906 179.465104,4.34394531 180.071223,4.34394531 C180.308203,4.34394531 180.58164,4.378125 180.891536,4.44648438 L180.891536,4.44648438 L181.048763,3.39375 C180.78444,3.3390625 180.485937,3.31171875 180.153255,3.31171875 C179.683854,3.31171875 179.25319,3.44388021 178.861263,3.70820313 C178.469335,3.97252604 178.134374,4.3485026 177.85638,4.83613281 L177.85638,4.83613281 L177.801692,4.83613281 L177.671809,3.4484375 L176.735286,3.4484375 L176.735286,10.940625 L177.870052,10.940625 Z M188.773372,11.0773438 C189.816992,11.0773438 190.600846,10.6968099 191.124934,9.93574219 L191.124934,9.93574219 L191.186458,9.93574219 L191.336848,10.940625 L192.2597,10.940625 L192.2597,0.30390625 L191.124934,0.30390625 L191.124934,3.35273438 L191.152278,3.87910156 L191.20013,4.41914063 L191.111263,4.41914063 C190.568945,3.68085938 189.789648,3.31171875 188.773372,3.31171875 C187.798111,3.31171875 187.037044,3.65351563 186.490169,4.33710938 C185.943294,5.02070313 185.669856,5.98001302 185.669856,7.21503906 C185.669856,8.4500651 185.942154,9.40253906 186.486751,10.0724609 C187.031347,10.7423828 187.793554,11.0773438 188.773372,11.0773438 Z M188.916927,10.1271484 C188.23789,10.1271484 187.722916,9.88333333 187.372005,9.39570313 C187.021093,8.90807292 186.845638,8.18574219 186.845638,7.22871094 C186.845638,6.28535156 187.022233,5.55504557 187.375423,5.03779297 C187.728613,4.52054036 188.23789,4.26191406 188.903255,4.26191406 C189.677994,4.26191406 190.241959,4.48863932 190.595149,4.94208984 C190.948339,5.39554036 191.124934,6.1531901 191.124934,7.21503906 L191.124934,7.21503906 L191.124934,7.45429688 C191.124934,8.39309896 190.950618,9.07327474 190.601985,9.49482422 C190.253352,9.9163737 189.691666,10.1271484 188.916927,10.1271484 Z M197.830989,11.0773438 C198.336848,11.0773438 198.768652,11.0397461 199.126399,10.9645508 C199.484147,10.8893555 199.863541,10.7651693 200.264583,10.5919922 L200.264583,10.5919922 L200.264583,9.58027344 C199.476171,9.91751302 198.678645,10.0861328 197.872005,10.0861328 C197.10638,10.0861328 196.512792,9.85826823 196.091243,9.40253906 C195.669693,8.9468099 195.447526,8.27916667 195.424739,7.39960938 L195.424739,7.39960938 L200.585872,7.39960938 L200.585872,6.68183594 C200.585872,5.67011719 200.312434,4.8555013 199.765559,4.23798828 C199.218684,3.62047526 198.475846,3.31171875 197.537044,3.31171875 C196.53444,3.31171875 195.735774,3.6671875 195.141048,4.378125 C194.546321,5.0890625 194.248958,6.0483724 194.248958,7.25605469 C194.248958,8.4546224 194.569108,9.39114583 195.209407,10.065625 C195.849707,10.7401042 196.723567,11.0773438 197.830989,11.0773438 Z M199.369075,6.47675781 L195.452083,6.47675781 C195.515885,5.78404948 195.72666,5.24173177 196.084407,4.84980469 C196.442154,4.4578776 196.921809,4.26191406 197.523372,4.26191406 C198.11582,4.26191406 198.571549,4.45218099 198.890559,4.83271484 C199.20957,5.2132487 199.369075,5.76126302 199.369075,6.47675781 L199.369075,6.47675781 Z M207.97552,11.0773438 C208.53151,11.0773438 208.995214,10.9941732 209.366634,10.827832 C209.738053,10.6614909 210.110611,10.3436198 210.484309,9.87421875 L210.484309,9.87421875 L210.538997,9.87421875 L210.764583,10.940625 L211.605403,10.940625 L211.605403,5.82734375 C211.605403,4.95234375 211.390071,4.31660156 210.959407,3.92011719 C210.528743,3.52363281 209.866796,3.32539063 208.973567,3.32539063 C208.53151,3.32539063 208.090592,3.38235677 207.650813,3.49628906 C207.211035,3.61022135 206.806575,3.76744792 206.437434,3.96796875 L206.437434,3.96796875 L206.786067,4.83613281 C207.574479,4.45332031 208.280859,4.26191406 208.905208,4.26191406 C209.461197,4.26191406 209.865657,4.40205078 210.118587,4.68232422 C210.371516,4.96259766 210.497981,5.39667969 210.497981,5.98457031 L210.497981,5.98457031 L210.497981,6.44941406 L209.226497,6.49042969 C206.806575,6.56334635 205.596614,7.3563151 205.596614,8.86933594 C205.596614,9.57571615 205.807389,10.1203125 206.228938,10.503125 C206.650488,10.8859375 207.232682,11.0773438 207.97552,11.0773438 Z M208.201106,10.1408203 C207.754492,10.1408203 207.406998,10.033724 207.158626,9.81953125 C206.910253,9.60533854 206.786067,9.29316406 206.786067,8.88300781 C206.786067,8.35891927 206.985449,7.9726888 207.384212,7.72431641 C207.782975,7.47594401 208.433528,7.33580729 209.335872,7.30390625 L209.335872,7.30390625 L210.470638,7.25605469 L210.470638,7.9328125 C210.470638,8.63007813 210.268977,9.17239583 209.865657,9.55976563 C209.462337,9.94713542 208.907486,10.1408203 208.201106,10.1408203 Z M215.078059,14.3039063 L215.078059,11.2208984 C215.078059,10.8289714 215.050716,10.4142578 214.996028,9.97675781 L214.996028,9.97675781 L215.078059,9.97675781 C215.351497,10.3504557 215.689876,10.6273112 216.093196,10.8073242 C216.496516,10.9873372 216.941992,11.0773438 217.429622,11.0773438 C218.404882,11.0773438 219.167089,10.7366862 219.716243,10.0553711 C220.265397,9.37405599 220.539973,8.41816406 220.539973,7.18769531 C220.539973,5.96178385 220.269954,5.0093099 219.729915,4.33027344 C219.189876,3.65123698 218.423111,3.31171875 217.429622,3.31171875 C216.92832,3.31171875 216.483984,3.40286458 216.096614,3.58515625 C215.709244,3.76744792 215.369726,4.06367188 215.078059,4.47382813 L215.078059,4.47382813 L215.023372,4.47382813 L214.866145,3.4484375 L213.943294,3.4484375 L213.943294,14.3039063 L215.078059,14.3039063 Z M217.292903,10.1271484 C216.518164,10.1271484 215.955338,9.90042318 215.604427,9.44697266 C215.253515,8.99352214 215.078059,8.24042969 215.078059,7.18769531 L215.078059,7.18769531 L215.078059,6.93476563 C215.087174,6.00963542 215.26263,5.33515625 215.604427,4.91132813 C215.946223,4.4875 216.499934,4.27558594 217.265559,4.27558594 C217.930924,4.27558594 218.447037,4.52509766 218.813899,5.02412109 C219.180761,5.52314453 219.364192,6.23977865 219.364192,7.17402344 C219.364192,8.09459635 219.180761,8.81692708 218.813899,9.34101563 C218.447037,9.86510417 217.940039,10.1271484 217.292903,10.1271484 Z M225.516536,11.0773438 C226.601171,11.0773438 227.451106,10.7344076 228.066341,10.0485352 C228.681575,9.36266276 228.989192,8.40904948 228.989192,7.18769531 C228.989192,5.99824219 228.680436,5.05488281 228.062923,4.35761719 C227.44541,3.66035156 226.612565,3.31171875 225.564388,3.31171875 C224.479752,3.31171875 223.632096,3.6523763 223.021419,4.33369141 C222.410742,5.01500651 222.105403,5.96634115 222.105403,7.18769531 C222.105403,7.97610677 222.246679,8.66425781 222.529231,9.25214844 C222.811783,9.84003906 223.212825,10.2912109 223.732356,10.6056641 C224.251888,10.9201172 224.846614,11.0773438 225.516536,11.0773438 Z M225.54388,10.1271484 C224.801041,10.1271484 224.238216,9.8764974 223.855403,9.37519531 C223.472591,8.87389323 223.281184,8.14472656 223.281184,7.18769531 C223.281184,6.22154948 223.470312,5.49466146 223.848567,5.00703125 C224.226822,4.51940104 224.787369,4.27558594 225.530208,4.27558594 C226.282161,4.27558594 226.850683,4.52281901 227.235774,5.01728516 C227.620865,5.5117513 227.813411,6.23522135 227.813411,7.18769531 C227.813411,8.14928385 227.620865,8.87958984 227.235774,9.37861328 C226.850683,9.87763672 226.286718,10.1271484 225.54388,10.1271484 Z M231.552669,2.17695313 C231.73496,2.17695313 231.892187,2.11429036 232.024348,1.98896484 C232.15651,1.86363932 232.222591,1.6733724 232.222591,1.41816406 C232.222591,1.16295573 232.15651,0.973828125 232.024348,0.85078125 C231.892187,0.727734375 231.73496,0.666210938 231.552669,0.666210938 C231.361263,0.666210938 231.201757,0.726595052 231.074153,0.847363281 C230.946549,0.96813151 230.882747,1.15839844 230.882747,1.41816406 C230.882747,1.6733724 230.946549,1.86363932 231.074153,1.98896484 C231.201757,2.11429036 231.361263,2.17695313 231.552669,2.17695313 Z M232.113216,10.940625 L232.113216,3.4484375 L230.97845,3.4484375 L230.97845,10.940625 L232.113216,10.940625 Z M237.513606,11.0773438 C238.598242,11.0773438 239.448177,10.7344076 240.063411,10.0485352 C240.678645,9.36266276 240.986263,8.40904948 240.986263,7.18769531 C240.986263,5.99824219 240.677506,5.05488281 240.059993,4.35761719 C239.44248,3.66035156 238.609635,3.31171875 237.561458,3.31171875 C236.476822,3.31171875 235.629166,3.6523763 235.018489,4.33369141 C234.407812,5.01500651 234.102473,5.96634115 234.102473,7.18769531 C234.102473,7.97610677 234.243749,8.66425781 234.526302,9.25214844 C234.808854,9.84003906 235.209895,10.2912109 235.729427,10.6056641 C236.248958,10.9201172 236.843684,11.0773438 237.513606,11.0773438 Z M237.54095,10.1271484 C236.798111,10.1271484 236.235286,9.8764974 235.852473,9.37519531 C235.469661,8.87389323 235.278255,8.14472656 235.278255,7.18769531 C235.278255,6.22154948 235.467382,5.49466146 235.845638,5.00703125 C236.223893,4.51940104 236.78444,4.27558594 237.527278,4.27558594 C238.279231,4.27558594 238.847753,4.52281901 239.232845,5.01728516 C239.617936,5.5117513 239.810481,6.23522135 239.810481,7.18769531 C239.810481,8.14928385 239.617936,8.87958984 239.232845,9.37861328 C238.847753,9.87763672 238.283789,10.1271484 237.54095,10.1271484 Z" id="cordeapoio" fill="#000000" fill-rule="nonzero"></path>
                    <path d="M299.90612,11.08125 C300.688933,11.08125 301.338152,10.9476562 301.853777,10.6804687 L301.853777,10.6804687 L301.853777,9.646875 C301.178777,9.9234375 300.520183,10.0617187 299.877995,10.0617187 C299.127995,10.0617187 298.56198,9.80859375 298.179948,9.30234375 C297.797917,8.79609375 297.606902,8.06953125 297.606902,7.12265625 C297.606902,5.12578125 298.389714,4.12734375 299.955339,4.12734375 C300.189714,4.12734375 300.459245,4.16132812 300.763933,4.22929687 C301.06862,4.29726562 301.34987,4.3828125 301.607683,4.4859375 L301.607683,4.4859375 L301.966277,3.49453125 C301.755339,3.38671875 301.464714,3.29296875 301.094402,3.21328125 C300.724089,3.13359375 300.353777,3.09375 299.983464,3.09375 C298.835027,3.09375 297.950261,3.4453125 297.329167,4.1484375 C296.708073,4.8515625 296.397527,5.84765625 296.397527,7.13671875 C296.397527,8.39296875 296.703386,9.36445312 297.315105,10.0511719 C297.926823,10.7378906 298.790495,11.08125 299.90612,11.08125 Z M306.761589,11.08125 C307.877214,11.08125 308.751433,10.7285156 309.384245,10.0230469 C310.017058,9.31757812 310.333464,8.33671875 310.333464,7.08046875 C310.333464,5.85703125 310.015886,4.88671875 309.38073,4.16953125 C308.745573,3.45234375 307.888933,3.09375 306.810808,3.09375 C305.695183,3.09375 304.823308,3.44414063 304.195183,4.14492187 C303.567058,4.84570312 303.252995,5.82421875 303.252995,7.08046875 C303.252995,7.89140625 303.398308,8.59921875 303.688933,9.20390625 C303.979558,9.80859375 304.392058,10.2726562 304.926433,10.5960937 C305.460808,10.9195312 306.072527,11.08125 306.761589,11.08125 Z M306.789714,10.1039062 C306.025652,10.1039062 305.446745,9.84609375 305.052995,9.33046875 C304.659245,8.81484375 304.46237,8.06484375 304.46237,7.08046875 C304.46237,6.08671875 304.656902,5.3390625 305.045964,4.8375 C305.435027,4.3359375 306.011589,4.08515625 306.775652,4.08515625 C307.549089,4.08515625 308.133855,4.33945312 308.529948,4.84804687 C308.926042,5.35664062 309.124089,6.10078125 309.124089,7.08046875 C309.124089,8.06953125 308.926042,8.82070312 308.529948,9.33398437 C308.133855,9.84726562 307.553777,10.1039062 306.789714,10.1039062 Z M313.546745,10.940625 L313.546745,6.80625 C313.546745,6.0515625 313.76823,5.42109375 314.211198,4.91484375 C314.654167,4.40859375 315.18737,4.15546875 315.810808,4.15546875 C316.054558,4.15546875 316.335808,4.190625 316.654558,4.2609375 L316.654558,4.2609375 L316.816277,3.178125 C316.544402,3.121875 316.23737,3.09375 315.895183,3.09375 C315.41237,3.09375 314.969402,3.2296875 314.566277,3.5015625 C314.163152,3.7734375 313.81862,4.16015625 313.532683,4.66171875 L313.532683,4.66171875 L313.476433,4.66171875 L313.342839,3.234375 L312.379558,3.234375 L312.379558,10.940625 L313.546745,10.940625 Z M324.761589,11.08125 C325.835027,11.08125 326.641277,10.6898437 327.180339,9.90703125 L327.180339,9.90703125 L327.24362,9.90703125 L327.398308,10.940625 L328.347527,10.940625 L328.347527,0 L327.180339,0 L327.180339,3.1359375 L327.208464,3.67734375 L327.257683,4.2328125 L327.166277,4.2328125 C326.608464,3.4734375 325.806902,3.09375 324.761589,3.09375 C323.758464,3.09375 322.975652,3.4453125 322.413152,4.1484375 C321.850652,4.8515625 321.569402,5.83828125 321.569402,7.10859375 C321.569402,8.37890625 321.84948,9.35859375 322.409636,10.0476562 C322.969792,10.7367187 323.753777,11.08125 324.761589,11.08125 Z M324.909245,10.1039062 C324.210808,10.1039062 323.68112,9.853125 323.320183,9.3515625 C322.959245,8.85 322.778777,8.10703125 322.778777,7.12265625 C322.778777,6.15234375 322.960417,5.40117187 323.323698,4.86914062 C323.68698,4.33710937 324.210808,4.07109375 324.895183,4.07109375 C325.692058,4.07109375 326.272136,4.30429687 326.635417,4.77070312 C326.998698,5.23710938 327.180339,6.01640625 327.180339,7.10859375 L327.180339,7.10859375 L327.180339,7.3546875 C327.180339,8.3203125 327.001042,9.01992187 326.642448,9.45351562 C326.283855,9.88710937 325.70612,10.1039062 324.909245,10.1039062 Z M334.077995,11.08125 C334.598308,11.08125 335.042448,11.0425781 335.410417,10.9652344 C335.778386,10.8878906 336.16862,10.7601562 336.58112,10.5820312 L336.58112,10.5820312 L336.58112,9.54140625 C335.770183,9.88828125 334.94987,10.0617187 334.120183,10.0617187 C333.332683,10.0617187 332.722136,9.82734375 332.288542,9.35859375 C331.854948,8.88984375 331.626433,8.203125 331.602995,7.2984375 L331.602995,7.2984375 L336.911589,7.2984375 L336.911589,6.56015625 C336.911589,5.51953125 336.630339,4.68164062 336.067839,4.04648438 C335.505339,3.41132813 334.741277,3.09375 333.775652,3.09375 C332.744402,3.09375 331.922917,3.459375 331.311198,4.190625 C330.69948,4.921875 330.39362,5.90859375 330.39362,7.15078125 C330.39362,8.38359375 330.722917,9.346875 331.381511,10.040625 C332.040105,10.734375 332.938933,11.08125 334.077995,11.08125 Z M335.660027,6.34921875 L331.63112,6.34921875 C331.696745,5.63671875 331.913542,5.07890625 332.281511,4.67578125 C332.64948,4.27265625 333.142839,4.07109375 333.761589,4.07109375 C334.370964,4.07109375 334.839714,4.26679687 335.167839,4.65820312 C335.495964,5.04960937 335.660027,5.61328125 335.660027,6.34921875 L335.660027,6.34921875 Z M345.294206,11.0773437 C346.337826,11.0773437 347.12168,10.6968099 347.645769,9.93574219 L347.645769,9.93574219 L347.707292,9.93574219 L347.857683,10.940625 L348.780534,10.940625 L348.780534,0.30390625 L347.645769,0.30390625 L347.645769,3.35273437 L347.673112,3.87910156 L347.720964,4.41914062 L347.632097,4.41914062 C347.089779,3.68085937 346.310482,3.31171875 345.294206,3.31171875 C344.318946,3.31171875 343.557878,3.65351562 343.011003,4.33710937 C342.464128,5.02070312 342.190691,5.98001302 342.190691,7.21503906 C342.190691,8.4500651 342.462989,9.40253906 343.007585,10.0724609 C343.552182,10.7423828 344.314389,11.0773437 345.294206,11.0773437 Z M345.437761,10.1271484 C344.758724,10.1271484 344.243751,9.88333333 343.892839,9.39570312 C343.541928,8.90807292 343.366472,8.18574219 343.366472,7.22871094 C343.366472,6.28535156 343.543067,5.55504557 343.896257,5.03779297 C344.249447,4.52054036 344.758724,4.26191406 345.424089,4.26191406 C346.198829,4.26191406 346.762793,4.48863932 347.115984,4.94208984 C347.469174,5.39554036 347.645769,6.1531901 347.645769,7.21503906 L347.645769,7.21503906 L347.645769,7.45429687 C347.645769,8.39309896 347.471452,9.07327474 347.12282,9.49482422 C346.774187,9.9163737 346.212501,10.1271484 345.437761,10.1271484 Z M354.351823,11.0773437 C354.857683,11.0773437 355.289486,11.0397461 355.647234,10.9645508 C356.004981,10.8893555 356.384376,10.7651693 356.785417,10.5919922 L356.785417,10.5919922 L356.785417,9.58027344 C355.997006,9.91751302 355.19948,10.0861328 354.392839,10.0861328 C353.627214,10.0861328 353.033627,9.85826823 352.612077,9.40253906 C352.190528,8.9468099 351.96836,8.27916667 351.945573,7.39960937 L351.945573,7.39960937 L357.106706,7.39960937 L357.106706,6.68183594 C357.106706,5.67011719 356.833269,4.8555013 356.286394,4.23798828 C355.739519,3.62047526 354.99668,3.31171875 354.057878,3.31171875 C353.055274,3.31171875 352.256609,3.6671875 351.661882,4.378125 C351.067155,5.0890625 350.769792,6.0483724 350.769792,7.25605469 C350.769792,8.4546224 351.089942,9.39114583 351.730241,10.065625 C352.370541,10.7401042 353.244402,11.0773437 354.351823,11.0773437 Z M355.889909,6.47675781 L351.972917,6.47675781 C352.036719,5.78404948 352.247494,5.24173177 352.605241,4.84980469 C352.962989,4.4578776 353.442644,4.26191406 354.044206,4.26191406 C354.636654,4.26191406 355.092383,4.45218099 355.411394,4.83271484 C355.730404,5.2132487 355.889909,5.76126302 355.889909,6.47675781 L355.889909,6.47675781 Z M360.907487,11.0773437 C361.84629,11.0773437 362.575456,10.8882161 363.094987,10.5099609 C363.614519,10.1317057 363.874284,9.59394531 363.874284,8.89667969 C363.874284,8.3999349 363.718197,7.9875 363.406023,7.659375 C363.093848,7.33125 362.493425,7.00540365 361.604753,6.68183594 C360.957618,6.44029948 360.520118,6.25572917 360.292253,6.128125 C360.064389,6.00052083 359.899187,5.86608073 359.796648,5.72480469 C359.694109,5.58352865 359.642839,5.41263021 359.642839,5.21210937 C359.642839,4.91588542 359.779558,4.68346354 360.052995,4.51484375 C360.326433,4.34622396 360.732032,4.26191406 361.269792,4.26191406 C361.880469,4.26191406 362.561784,4.41686198 363.313737,4.72675781 L363.313737,4.72675781 L363.717058,3.80390625 C362.946876,3.47578125 362.158464,3.31171875 361.351823,3.31171875 C360.485938,3.31171875 359.804623,3.4883138 359.307878,3.84150391 C358.811133,4.19469401 358.562761,4.6766276 358.562761,5.28730469 C358.562761,5.62910156 358.634538,5.92304687 358.778093,6.16914062 C358.921648,6.41523437 359.140398,6.6351237 359.434343,6.82880859 C359.728288,7.02249349 360.223894,7.24921875 360.921159,7.50898437 C361.654883,7.79153646 362.14821,8.03649089 362.40114,8.24384766 C362.65407,8.45120443 362.780534,8.70071615 362.780534,8.99238281 C362.780534,9.3797526 362.621029,9.6680013 362.302019,9.85712891 C361.983008,10.0462565 361.527279,10.1408203 360.934831,10.1408203 C360.552019,10.1408203 360.154395,10.0884115 359.74196,9.98359375 C359.329525,9.87877604 358.943295,9.73522135 358.583269,9.55292969 L358.583269,9.55292969 L358.583269,10.6056641 C359.139258,10.9201172 359.913998,11.0773437 360.907487,11.0773437 Z M367.975847,11.0773437 C368.167253,11.0773437 368.382585,11.0579753 368.621843,11.0192383 C368.861101,10.9805013 369.042253,10.9315104 369.1653,10.8722656 L369.1653,10.8722656 L369.1653,10.0041016 C369.055925,10.0360026 368.907813,10.0667643 368.720964,10.0963867 C368.534115,10.1260091 368.34043,10.1408203 368.139909,10.1408203 C367.766211,10.1408203 367.472266,10.0200521 367.258073,9.77851562 C367.043881,9.53697917 366.936784,9.190625 366.936784,8.73945312 L366.936784,8.73945312 L366.936784,4.33027344 L369.110612,4.33027344 L369.110612,3.4484375 L366.936784,3.4484375 L366.936784,1.71210937 L366.280534,1.71210937 L365.802019,3.31171875 L364.728777,3.78339844 L364.728777,4.33027344 L365.802019,4.33027344 L365.802019,8.78730469 C365.802019,10.3139974 366.526628,11.0773437 367.975847,11.0773437 Z M372.48073,11.0773437 C373.036719,11.0773437 373.500424,10.9941732 373.871843,10.827832 C374.243262,10.6614909 374.615821,10.3436198 374.989519,9.87421875 L374.989519,9.87421875 L375.044206,9.87421875 L375.269792,10.940625 L376.110612,10.940625 L376.110612,5.82734375 C376.110612,4.95234375 375.89528,4.31660156 375.464616,3.92011719 C375.033952,3.52363281 374.372006,3.32539062 373.478777,3.32539062 C373.036719,3.32539062 372.595801,3.38235677 372.156023,3.49628906 C371.716244,3.61022135 371.311784,3.76744792 370.942644,3.96796875 L370.942644,3.96796875 L371.291277,4.83613281 C372.079688,4.45332031 372.786068,4.26191406 373.410417,4.26191406 C373.966407,4.26191406 374.370866,4.40205078 374.623796,4.68232422 C374.876726,4.96259766 375.003191,5.39667969 375.003191,5.98457031 L375.003191,5.98457031 L375.003191,6.44941406 L373.731706,6.49042969 C371.311784,6.56334635 370.101823,7.3563151 370.101823,8.86933594 C370.101823,9.57571615 370.312598,10.1203125 370.734148,10.503125 C371.155697,10.8859375 371.737891,11.0773437 372.48073,11.0773437 Z M372.706316,10.1408203 C372.259701,10.1408203 371.912208,10.033724 371.663835,9.81953125 C371.415463,9.60533854 371.291277,9.29316406 371.291277,8.88300781 C371.291277,8.35891927 371.490658,7.9726888 371.889421,7.72431641 C372.288184,7.47594401 372.938737,7.33580729 373.841081,7.30390625 L373.841081,7.30390625 L374.975847,7.25605469 L374.975847,7.9328125 C374.975847,8.63007812 374.774187,9.17239583 374.370866,9.55976562 C373.967546,9.94713542 373.412696,10.1408203 372.706316,10.1408203 Z M384.621355,14.3039062 L384.621355,3.4484375 L383.725847,3.4484375 L383.561784,4.47382812 L383.500261,4.47382812 C382.948829,3.69908854 382.160417,3.31171875 381.135027,3.31171875 C380.159766,3.31171875 379.398698,3.65579427 378.851823,4.34394531 C378.304948,5.03209635 378.031511,5.9891276 378.031511,7.21503906 C378.031511,8.43183594 378.30267,9.3797526 378.844987,10.0587891 C379.387305,10.7378255 380.141537,11.0773437 381.107683,11.0773437 C382.160417,11.0773437 382.948829,10.6968099 383.472917,9.93574219 L383.472917,9.93574219 L383.561784,9.93574219 C383.511654,10.2547526 383.486589,10.6421224 383.486589,11.0978516 L383.486589,11.0978516 L383.486589,14.3039062 L384.621355,14.3039062 Z M381.278581,10.1271484 C380.594987,10.1271484 380.078874,9.87991536 379.730241,9.38544922 C379.381609,8.89098307 379.207292,8.17207031 379.207292,7.22871094 C379.207292,6.28535156 379.383887,5.55504557 379.737077,5.03779297 C380.090267,4.52054036 380.599545,4.26191406 381.264909,4.26191406 C382.035092,4.26191406 382.597917,4.49205729 382.953386,4.95234375 C383.308855,5.41263021 383.486589,6.16686198 383.486589,7.21503906 L383.486589,7.21503906 L383.486589,7.46796875 C383.463803,8.42955729 383.279232,9.11315104 382.932878,9.51875 C382.586524,9.92434896 382.035092,10.1271484 381.278581,10.1271484 Z M389.673112,11.0773437 C390.201758,11.0773437 390.672299,10.979362 391.084734,10.7833984 C391.497168,10.5874349 391.819597,10.3048828 392.052019,9.93574219 L392.052019,9.93574219 L392.113542,9.93574219 L392.277605,10.940625 L393.214128,10.940625 L393.214128,3.4484375 L392.079362,3.4484375 L392.079362,7.3859375 C392.079362,8.35664062 391.89821,9.0561849 391.535905,9.48457031 C391.173601,9.91295573 390.600521,10.1271484 389.816667,10.1271484 C389.224219,10.1271484 388.788998,9.97675781 388.511003,9.67597656 C388.233008,9.37519531 388.094011,8.91946615 388.094011,8.30878906 L388.094011,8.30878906 L388.094011,3.4484375 L386.945573,3.4484375 L386.945573,8.34980469 C386.945573,9.30227865 387.172299,9.99498698 387.625749,10.4279297 C388.0792,10.8608724 388.761654,11.0773437 389.673112,11.0773437 Z M398.785417,11.0773437 C399.291277,11.0773437 399.72308,11.0397461 400.080827,10.9645508 C400.438575,10.8893555 400.817969,10.7651693 401.219011,10.5919922 L401.219011,10.5919922 L401.219011,9.58027344 C400.430599,9.91751302 399.633073,10.0861328 398.826433,10.0861328 C398.060808,10.0861328 397.467221,9.85826823 397.045671,9.40253906 C396.624122,8.9468099 396.401954,8.27916667 396.379167,7.39960937 L396.379167,7.39960937 L401.5403,7.39960937 L401.5403,6.68183594 C401.5403,5.67011719 401.266862,4.8555013 400.719987,4.23798828 C400.173112,3.62047526 399.430274,3.31171875 398.491472,3.31171875 C397.488868,3.31171875 396.690202,3.6671875 396.095476,4.378125 C395.500749,5.0890625 395.203386,6.0483724 395.203386,7.25605469 C395.203386,8.4546224 395.523536,9.39114583 396.163835,10.065625 C396.804135,10.7401042 397.677995,11.0773437 398.785417,11.0773437 Z M400.323503,6.47675781 L396.406511,6.47675781 C396.470313,5.78404948 396.681088,5.24173177 397.038835,4.84980469 C397.396583,4.4578776 397.876237,4.26191406 398.4778,4.26191406 C399.070248,4.26191406 399.525977,4.45218099 399.844987,4.83271484 C400.163998,5.2132487 400.323503,5.76126302 400.323503,6.47675781 L400.323503,6.47675781 Z" id="cordedestaque" fill="#000000" fill-rule="nonzero"></path>
                    <rect id="amostra" stroke="#D5D5D5" stroke-width="0.6" fill="#585884" x="144.3" y="2.56477198" width="9.01264822" height="8.97480315" rx="2.4"></rect>
                    <rect id="amostra" stroke="#D5D5D5" stroke-width="0.6" fill="#74CCAF" x="279.477866" y="2.56477198" width="9.01264822" height="8.97480315" rx="2.4"></rect>
                </g>
                <rect id="60" fill="#F1F1F1" x="0" y="0" width="456" height="94.5511811" rx="4.8"></rect>
                <path d="M403.130435,0 L451.2,0 C453.850967,-4.86974701e-16 456,2.1490332 456,4.8 L456,89.7511811 C456,92.4021479 453.850967,94.5511811 451.2,94.5511811 L403.130435,94.5511811 L403.130435,94.5511811 L403.130435,0 Z" id="10" fill="#74CCAF"></path>
                <path d="M273.960474,0 L405.539921,0 C408.190888,4.01203719e-16 410.339921,2.1490332 410.339921,4.8 L410.339921,89.7511811 C410.339921,92.4021479 408.190888,94.5511811 405.539921,94.5511811 L273.960474,94.5511811 L273.960474,94.5511811 L273.960474,0 Z" id="30" fill="#45455F"></path>
                <path d="M423.497845,56.2664042 L423.497845,45.9867167 L421.711907,45.9867167 L418.400188,48.6234354 L419.447845,49.9312479 L420.629095,48.9820292 C420.76972,48.8695292 421.020501,48.6328104 421.381438,48.2718729 L421.381438,48.2718729 L421.346282,49.3406229 L421.325188,50.3179667 L421.325188,56.2664042 L423.497845,56.2664042 Z M429.875188,56.4070292 C431.098626,56.4070292 432.004485,55.9757792 432.592766,55.1132792 C433.181048,54.2507792 433.475188,52.9218729 433.475188,51.1265604 C433.475188,49.3921854 433.171673,48.0749979 432.564641,47.1749979 C431.95761,46.2749979 431.061126,45.8249979 429.875188,45.8249979 C428.656438,45.8249979 427.754095,46.2550761 427.168157,47.1152323 C426.58222,47.9753886 426.289251,49.3124979 426.289251,51.1265604 C426.289251,52.8656229 426.590423,54.1804667 427.192766,55.0710917 C427.79511,55.9617167 428.689251,56.4070292 429.875188,56.4070292 Z M429.875188,54.6562479 C429.359563,54.6562479 428.992766,54.3832011 428.774798,53.8371073 C428.556829,53.2910136 428.447845,52.3874979 428.447845,51.1265604 C428.447845,49.8656229 428.558001,48.9597636 428.778313,48.4089823 C428.998626,47.8582011 429.364251,47.5828104 429.875188,47.5828104 C430.376751,47.5828104 430.741204,47.8582011 430.968548,48.4089823 C431.195891,48.9597636 431.309563,49.8656229 431.309563,51.1265604 C431.309563,52.3734354 431.197063,53.2734354 430.972063,53.8265604 C430.747063,54.3796854 430.381438,54.6562479 429.875188,54.6562479 Z M436.85722,52.2937479 C437.66347,52.2937479 438.275188,52.0230448 438.692376,51.4816386 C439.109563,50.9402323 439.318157,50.1304667 439.318157,49.0523417 C439.318157,48.0210917 439.106048,47.2277323 438.681829,46.6722636 C438.25761,46.1167948 437.649407,45.8390604 436.85722,45.8390604 C435.240032,45.8390604 434.431438,46.9101542 434.431438,49.0523417 C434.431438,50.1023417 434.642376,50.9050761 435.064251,51.4605448 C435.486126,52.0160136 436.083782,52.2937479 436.85722,52.2937479 Z M438.453313,56.2664042 L444.155657,45.9867167 L442.468157,45.9867167 L436.765813,56.2664042 L438.453313,56.2664042 Z M436.871282,50.8382792 C436.636907,50.8382792 436.466985,50.6917948 436.361516,50.3988261 C436.256048,50.1058573 436.203313,49.6617167 436.203313,49.0664042 C436.203313,48.4710917 436.256048,48.0292948 436.361516,47.7410136 C436.466985,47.4527323 436.636907,47.3085917 436.871282,47.3085917 C437.321282,47.3085917 437.546282,47.8945292 437.546282,49.0664042 C437.546282,50.2476542 437.321282,50.8382792 436.871282,50.8382792 Z M444.05722,56.3929667 C444.86347,56.3929667 445.475188,56.1222636 445.892376,55.5808573 C446.309563,55.0394511 446.518157,54.2320292 446.518157,53.1585917 C446.518157,52.1273417 446.306048,51.3339823 445.881829,50.7785136 C445.45761,50.2230448 444.849407,49.9453104 444.05722,49.9453104 C442.440032,49.9453104 441.631438,51.0164042 441.631438,53.1585917 C441.631438,54.2039042 441.842376,55.0042948 442.264251,55.5597636 C442.686126,56.1152323 443.283782,56.3929667 444.05722,56.3929667 Z M444.071282,54.9445292 C443.836907,54.9445292 443.666985,54.7980448 443.561516,54.5050761 C443.456048,54.2121073 443.403313,53.7679667 443.403313,53.1726542 C443.403313,52.5773417 443.456048,52.1355448 443.561516,51.8472636 C443.666985,51.5589823 443.836907,51.4148417 444.071282,51.4148417 C444.521282,51.4148417 444.746282,52.0007792 444.746282,53.1726542 C444.746282,54.3539042 444.521282,54.9445292 444.071282,54.9445292 Z" id="10%" fill="#000000" fill-rule="nonzero"></path>
                <path d="M329.144083,56.4070292 C330.475333,56.4070292 331.499552,56.1316386 332.21674,55.5808573 C332.933927,55.0300761 333.292521,54.2601542 333.292521,53.2710917 C333.292521,52.5914042 333.07924,52.0511698 332.652677,51.6503886 C332.226115,51.2496073 331.59799,50.9976542 330.768302,50.8945292 L330.768302,50.8945292 L330.768302,50.8523417 C331.471427,50.6835917 332.017521,50.3742167 332.406583,49.9242167 C332.795646,49.4742167 332.990177,48.9281229 332.990177,48.2859354 C332.990177,47.5171854 332.681974,46.9171854 332.065568,46.4859354 C331.449162,46.0546854 330.608927,45.8390604 329.544865,45.8390604 C328.246427,45.8390604 327.128458,46.1765604 326.190958,46.8515604 L326.190958,46.8515604 L327.196427,48.3492167 C327.62299,48.0726542 328.01088,47.8781229 328.360099,47.7656229 C328.709318,47.6531229 329.052677,47.5968729 329.390177,47.5968729 C330.365177,47.5968729 330.852677,47.9859354 330.852677,48.7640604 C330.852677,49.2703104 330.668693,49.6277323 330.300724,49.8363261 C329.932755,50.0449198 329.350333,50.1492167 328.553458,50.1492167 L328.553458,50.1492167 L327.758927,50.1492167 L327.758927,51.8156229 L328.539396,51.8156229 C329.401896,51.8156229 330.030021,51.9164042 330.423771,52.1179667 C330.817521,52.3195292 331.014396,52.6617167 331.014396,53.1445292 C331.014396,53.6835917 330.843302,54.0749979 330.501115,54.3187479 C330.158927,54.5624979 329.62924,54.6843729 328.912052,54.6843729 C328.443302,54.6843729 327.969865,54.6210917 327.49174,54.4945292 C327.013615,54.3679667 326.575333,54.2039042 326.176896,54.0023417 L326.176896,54.0023417 L326.176896,55.8515604 C327.039396,56.2218729 328.028458,56.4070292 329.144083,56.4070292 Z M337.95424,56.4070292 C339.177677,56.4070292 340.083537,55.9757792 340.671818,55.1132792 C341.260099,54.2507792 341.55424,52.9218729 341.55424,51.1265604 C341.55424,49.3921854 341.250724,48.0749979 340.643693,47.1749979 C340.036662,46.2749979 339.140177,45.8249979 337.95424,45.8249979 C336.73549,45.8249979 335.833146,46.2550761 335.247208,47.1152323 C334.661271,47.9753886 334.368302,49.3124979 334.368302,51.1265604 C334.368302,52.8656229 334.669474,54.1804667 335.271818,55.0710917 C335.874162,55.9617167 336.768302,56.4070292 337.95424,56.4070292 Z M337.95424,54.6562479 C337.438615,54.6562479 337.071818,54.3832011 336.853849,53.8371073 C336.63588,53.2910136 336.526896,52.3874979 336.526896,51.1265604 C336.526896,49.8656229 336.637052,48.9597636 336.857365,48.4089823 C337.077677,47.8582011 337.443302,47.5828104 337.95424,47.5828104 C338.455802,47.5828104 338.820255,47.8582011 339.047599,48.4089823 C339.274943,48.9597636 339.388615,49.8656229 339.388615,51.1265604 C339.388615,52.3734354 339.276115,53.2734354 339.051115,53.8265604 C338.826115,54.3796854 338.46049,54.6562479 337.95424,54.6562479 Z M344.936271,52.2937479 C345.742521,52.2937479 346.35424,52.0230448 346.771427,51.4816386 C347.188615,50.9402323 347.397208,50.1304667 347.397208,49.0523417 C347.397208,48.0210917 347.185099,47.2277323 346.76088,46.6722636 C346.336662,46.1167948 345.728458,45.8390604 344.936271,45.8390604 C343.319083,45.8390604 342.51049,46.9101542 342.51049,49.0523417 C342.51049,50.1023417 342.721427,50.9050761 343.143302,51.4605448 C343.565177,52.0160136 344.162833,52.2937479 344.936271,52.2937479 Z M346.532365,56.2664042 L352.234708,45.9867167 L350.547208,45.9867167 L344.844865,56.2664042 L346.532365,56.2664042 Z M344.950333,50.8382792 C344.715958,50.8382792 344.546037,50.6917948 344.440568,50.3988261 C344.335099,50.1058573 344.282365,49.6617167 344.282365,49.0664042 C344.282365,48.4710917 344.335099,48.0292948 344.440568,47.7410136 C344.546037,47.4527323 344.715958,47.3085917 344.950333,47.3085917 C345.400333,47.3085917 345.625333,47.8945292 345.625333,49.0664042 C345.625333,50.2476542 345.400333,50.8382792 344.950333,50.8382792 Z M352.136271,56.3929667 C352.942521,56.3929667 353.55424,56.1222636 353.971427,55.5808573 C354.388615,55.0394511 354.597208,54.2320292 354.597208,53.1585917 C354.597208,52.1273417 354.385099,51.3339823 353.96088,50.7785136 C353.536662,50.2230448 352.928458,49.9453104 352.136271,49.9453104 C350.519083,49.9453104 349.71049,51.0164042 349.71049,53.1585917 C349.71049,54.2039042 349.921427,55.0042948 350.343302,55.5597636 C350.765177,56.1152323 351.362833,56.3929667 352.136271,56.3929667 Z M352.150333,54.9445292 C351.915958,54.9445292 351.746037,54.7980448 351.640568,54.5050761 C351.535099,54.2121073 351.482365,53.7679667 351.482365,53.1726542 C351.482365,52.5773417 351.535099,52.1355448 351.640568,51.8472636 C351.746037,51.5589823 351.915958,51.4148417 352.150333,51.4148417 C352.600333,51.4148417 352.825333,52.0007792 352.825333,53.1726542 C352.825333,54.3539042 352.600333,54.9445292 352.150333,54.9445292 Z" id="30%" fill="#FFFFFF" fill-rule="nonzero"></path>
                <path d="M130.426945,56.4070292 C131.52382,56.4070292 132.381633,56.0871073 133.000383,55.4472636 C133.619133,54.8074198 133.928508,53.9390604 133.928508,52.8421854 C133.928508,51.8249979 133.668352,51.0281229 133.148039,50.4515604 C132.627727,49.8749979 131.908195,49.5867167 130.989445,49.5867167 C129.96757,49.5867167 129.224602,49.9851542 128.760539,50.7820292 L128.760539,50.7820292 L128.669133,50.7820292 C128.71132,49.9710917 128.849602,49.3453104 129.083977,48.9046854 C129.318352,48.4640604 129.671086,48.1312479 130.14218,47.9062479 C130.613274,47.6812479 131.221477,47.5687479 131.966789,47.5687479 C132.374602,47.5687479 132.787102,47.6156229 133.204289,47.7093729 L133.204289,47.7093729 L133.204289,45.9726542 C132.871477,45.9023417 132.412102,45.8671854 131.826164,45.8671854 C130.110539,45.8671854 128.822649,46.3640604 127.962492,47.3578104 C127.102336,48.3515604 126.672258,49.8656229 126.672258,51.8999979 C126.672258,52.8515604 126.825774,53.6648417 127.132805,54.3398417 C127.439836,55.0148417 127.875774,55.5281229 128.440617,55.8796854 C129.005461,56.2312479 129.66757,56.4070292 130.426945,56.4070292 Z M130.384758,54.6703104 C129.934758,54.6703104 129.563274,54.4781229 129.270305,54.0937479 C128.977336,53.7093729 128.830852,53.2382792 128.830852,52.6804667 C128.830852,52.3007792 128.986711,51.9679667 129.29843,51.6820292 C129.610149,51.3960917 129.98632,51.2531229 130.426945,51.2531229 C130.895695,51.2531229 131.246086,51.3972636 131.478117,51.6855448 C131.710149,51.9738261 131.826164,52.3687479 131.826164,52.8703104 C131.826164,53.4468729 131.701945,53.8910136 131.453508,54.2027323 C131.20507,54.5144511 130.84882,54.6703104 130.384758,54.6703104 Z M138.491789,56.4070292 C139.715227,56.4070292 140.621086,55.9757792 141.209367,55.1132792 C141.797649,54.2507792 142.091789,52.9218729 142.091789,51.1265604 C142.091789,49.3921854 141.788274,48.0749979 141.181242,47.1749979 C140.574211,46.2749979 139.677727,45.8249979 138.491789,45.8249979 C137.273039,45.8249979 136.370695,46.2550761 135.784758,47.1152323 C135.19882,47.9753886 134.905852,49.3124979 134.905852,51.1265604 C134.905852,52.8656229 135.207024,54.1804667 135.809367,55.0710917 C136.411711,55.9617167 137.305852,56.4070292 138.491789,56.4070292 Z M138.491789,54.6562479 C137.976164,54.6562479 137.609367,54.3832011 137.391399,53.8371073 C137.17343,53.2910136 137.064445,52.3874979 137.064445,51.1265604 C137.064445,49.8656229 137.174602,48.9597636 137.394914,48.4089823 C137.615227,47.8582011 137.980852,47.5828104 138.491789,47.5828104 C138.993352,47.5828104 139.357805,47.8582011 139.585149,48.4089823 C139.812492,48.9597636 139.926164,49.8656229 139.926164,51.1265604 C139.926164,52.3734354 139.813664,53.2734354 139.588664,53.8265604 C139.363664,54.3796854 138.998039,54.6562479 138.491789,54.6562479 Z M145.47382,52.2937479 C146.28007,52.2937479 146.891789,52.0230448 147.308977,51.4816386 C147.726164,50.9402323 147.934758,50.1304667 147.934758,49.0523417 C147.934758,48.0210917 147.722649,47.2277323 147.29843,46.6722636 C146.874211,46.1167948 146.266008,45.8390604 145.47382,45.8390604 C143.856633,45.8390604 143.048039,46.9101542 143.048039,49.0523417 C143.048039,50.1023417 143.258977,50.9050761 143.680852,51.4605448 C144.102727,52.0160136 144.700383,52.2937479 145.47382,52.2937479 Z M147.069914,56.2664042 L152.772258,45.9867167 L151.084758,45.9867167 L145.382414,56.2664042 L147.069914,56.2664042 Z M145.487883,50.8382792 C145.253508,50.8382792 145.083586,50.6917948 144.978117,50.3988261 C144.872649,50.1058573 144.819914,49.6617167 144.819914,49.0664042 C144.819914,48.4710917 144.872649,48.0292948 144.978117,47.7410136 C145.083586,47.4527323 145.253508,47.3085917 145.487883,47.3085917 C145.937883,47.3085917 146.162883,47.8945292 146.162883,49.0664042 C146.162883,50.2476542 145.937883,50.8382792 145.487883,50.8382792 Z M152.67382,56.3929667 C153.48007,56.3929667 154.091789,56.1222636 154.508977,55.5808573 C154.926164,55.0394511 155.134758,54.2320292 155.134758,53.1585917 C155.134758,52.1273417 154.922649,51.3339823 154.49843,50.7785136 C154.074211,50.2230448 153.466008,49.9453104 152.67382,49.9453104 C151.056633,49.9453104 150.248039,51.0164042 150.248039,53.1585917 C150.248039,54.2039042 150.458977,55.0042948 150.880852,55.5597636 C151.302727,56.1152323 151.900383,56.3929667 152.67382,56.3929667 Z M152.687883,54.9445292 C152.453508,54.9445292 152.283586,54.7980448 152.178117,54.5050761 C152.072649,54.2121073 152.019914,53.7679667 152.019914,53.1726542 C152.019914,52.5773417 152.072649,52.1355448 152.178117,51.8472636 C152.283586,51.5589823 152.453508,51.4148417 152.687883,51.4148417 C153.137883,51.4148417 153.362883,52.0007792 153.362883,53.1726542 C153.362883,54.3539042 153.137883,54.9445292 152.687883,54.9445292 Z" id="60%" fill="#000000" fill-rule="nonzero"></path>
            </g>
        </g>
    </g>
</svg>