<?xml version="1.0" encoding="UTF-8"?>
<svg width="238px" height="229px" viewBox="0 0 238 229" version="1.1" xmlns="http://www.w3.org/2000/svg" xmlns:xlink="http://www.w3.org/1999/xlink">
    <title>brand-color</title>
    <g id="Doc_exemplos" stroke="none" stroke-width="1" fill="none" fill-rule="evenodd">
        <g id="doc-exemplos-cores-expandido" transform="translate(-217.000000, -1281.000000)">
            <g id="brand-color" transform="translate(219.000000, 1283.000000)">
                <g id="boxes-copy-3" transform="translate(0.000000, 75.000000)">
                    <g id="Group" fill="#F2F2F2" stroke="#979797" stroke-width="0.52">
                        <g id="boxes/base">
                            <rect id="base" x="-0.26" y="-0.26" width="234.52" height="75.52"></rect>
                        </g>
                    </g>
                    <path d="M77.0615625,39.4560925 C77.74,39.4560925 78.3026563,39.3403113 78.7495313,39.1087488 L78.7495313,39.1087488 L78.7495313,38.2129675 C78.1645313,38.452655 77.59375,38.5724988 77.0371875,38.5724988 C76.3871875,38.5724988 75.8966406,38.3531238 75.5655469,37.9143738 C75.2344531,37.4756238 75.0689063,36.8459363 75.0689063,36.0253113 C75.0689063,34.2946863 75.7473438,33.4293738 77.1042188,33.4293738 C77.3073438,33.4293738 77.5409375,33.4588269 77.805,33.5177331 C78.0690625,33.5766394 78.3128125,33.65078 78.53625,33.740155 L78.53625,33.740155 L78.8470313,32.8809363 C78.6642188,32.7874988 78.4123438,32.7062488 78.0914063,32.6371863 C77.7704688,32.5681238 77.4495313,32.5335925 77.1285938,32.5335925 C76.1332813,32.5335925 75.3664844,32.83828 74.8282031,33.447655 C74.2899219,34.05703 74.0207813,34.9203113 74.0207813,36.0374988 C74.0207813,37.1262488 74.2858594,37.9682019 74.8160156,38.5633581 C75.3461719,39.1585144 76.0946875,39.4560925 77.0615625,39.4560925 Z M83.0029688,39.4560925 C83.9698438,39.4560925 84.7275,39.1503894 85.2759375,38.5389831 C85.824375,37.9275769 86.0985938,37.0774988 86.0985938,35.9887488 C86.0985938,34.9284363 85.8233594,34.0874988 85.2728906,33.4659363 C84.7224219,32.8443738 83.98,32.5335925 83.045625,32.5335925 C82.07875,32.5335925 81.323125,32.8372644 80.77875,33.4446081 C80.234375,34.0519519 79.9621875,34.8999988 79.9621875,35.9887488 C79.9621875,36.6915613 80.088125,37.3049988 80.34,37.8290613 C80.591875,38.3531238 80.949375,38.7553113 81.4125,39.0356238 C81.875625,39.3159363 82.4057813,39.4560925 83.0029688,39.4560925 Z M83.0273438,38.6090613 C82.3651562,38.6090613 81.8634375,38.3856238 81.5221875,37.9387488 C81.1809375,37.4918738 81.0103125,36.8418738 81.0103125,35.9887488 C81.0103125,35.1274988 81.1789063,34.47953 81.5160938,34.0448425 C81.8532813,33.610155 82.3529688,33.3928113 83.0151563,33.3928113 C83.6854688,33.3928113 84.1922656,33.6132019 84.5355469,34.0539831 C84.8788281,34.4947644 85.0504688,35.1396863 85.0504688,35.9887488 C85.0504688,36.8459363 84.8788281,37.4969519 84.5355469,37.9417956 C84.1922656,38.3866394 83.6895313,38.6090613 83.0273438,38.6090613 Z M88.8834375,39.3342175 L88.8834375,29.8523425 L87.871875,29.8523425 L87.871875,39.3342175 L88.8834375,39.3342175 Z M93.6975,39.4560925 C94.664375,39.4560925 95.4220313,39.1503894 95.9704688,38.5389831 C96.5189063,37.9275769 96.793125,37.0774988 96.793125,35.9887488 C96.793125,34.9284363 96.5178906,34.0874988 95.9674219,33.4659363 C95.4169531,32.8443738 94.6745313,32.5335925 93.7401563,32.5335925 C92.7732813,32.5335925 92.0176563,32.8372644 91.4732813,33.4446081 C90.9289063,34.0519519 90.6567188,34.8999988 90.6567188,35.9887488 C90.6567188,36.6915613 90.7826563,37.3049988 91.0345313,37.8290613 C91.2864063,38.3531238 91.6439063,38.7553113 92.1070313,39.0356238 C92.5701563,39.3159363 93.1003125,39.4560925 93.6975,39.4560925 Z M93.721875,38.6090613 C93.0596875,38.6090613 92.5579688,38.3856238 92.2167188,37.9387488 C91.8754688,37.4918738 91.7048438,36.8418738 91.7048438,35.9887488 C91.7048438,35.1274988 91.8734375,34.47953 92.210625,34.0448425 C92.5478125,33.610155 93.0475,33.3928113 93.7096875,33.3928113 C94.38,33.3928113 94.8867969,33.6132019 95.2300781,34.0539831 C95.5733594,34.4947644 95.745,35.1396863 95.745,35.9887488 C95.745,36.8459363 95.5733594,37.4969519 95.2300781,37.9417956 C94.8867969,38.3866394 94.3840625,38.6090613 93.721875,38.6090613 Z M99.5779688,39.3342175 L99.5779688,35.7510925 C99.5779688,35.09703 99.7699219,34.5506238 100.153828,34.1118738 C100.537734,33.6731238 100.999844,33.4537488 101.540156,33.4537488 C101.751406,33.4537488 101.995156,33.4842175 102.271406,33.545155 L102.271406,33.545155 L102.411563,32.6067175 C102.175938,32.5579675 101.909844,32.5335925 101.613281,32.5335925 C101.194844,32.5335925 100.810938,32.651405 100.461563,32.88703 C100.112188,33.122655 99.8135938,33.4578113 99.5657813,33.8924988 L99.5657813,33.8924988 L99.5170313,33.8924988 L99.40125,32.6554675 L98.5664063,32.6554675 L98.5664063,39.3342175 L99.5779688,39.3342175 Z M106.092188,36.4518738 L106.092188,35.5256238 L103.100156,35.5256238 L103.100156,36.4518738 L106.092188,36.4518738 Z M110.784375,39.4560925 C111.65375,39.4560925 112.333203,39.1524206 112.822734,38.5450769 C113.312266,37.9377331 113.557031,37.0856238 113.557031,35.9887488 C113.557031,34.8918738 113.314297,34.0438269 112.828828,33.4446081 C112.343359,32.8453894 111.661875,32.54578 110.784375,32.54578 C109.858125,32.54578 109.159375,32.878905 108.688125,33.545155 L108.688125,33.545155 L108.639375,33.545155 C108.671875,33.1348425 108.688125,32.6717175 108.688125,32.15578 L108.688125,32.15578 L108.688125,29.8523425 L107.676563,29.8523425 L107.676563,39.3342175 L108.401719,39.3342175 L108.615,38.4749988 L108.688125,38.4749988 C108.931875,38.8081238 109.233516,39.0549206 109.593047,39.2153894 C109.952578,39.3758581 110.349688,39.4560925 110.784375,39.4560925 Z M110.6625,38.6090613 C109.971875,38.6090613 109.470156,38.4069519 109.157344,38.0027331 C108.844531,37.5985144 108.688125,36.9271863 108.688125,35.9887488 C108.688125,35.0503113 108.840469,34.3830456 109.145156,33.9869519 C109.449844,33.5908581 109.9475,33.3928113 110.638125,33.3928113 C111.275937,33.3928113 111.747188,33.6060925 112.051875,34.032655 C112.356563,34.4592175 112.508906,35.1071863 112.508906,35.9765613 C112.508906,36.8256238 112.356563,37.4766394 112.051875,37.9296081 C111.747188,38.3825769 111.284063,38.6090613 110.6625,38.6090613 Z M116.335781,39.3342175 L116.335781,35.7510925 C116.335781,35.09703 116.527734,34.5506238 116.911641,34.1118738 C117.295547,33.6731238 117.757656,33.4537488 118.297969,33.4537488 C118.509219,33.4537488 118.752969,33.4842175 119.029219,33.545155 L119.029219,33.545155 L119.169375,32.6067175 C118.93375,32.5579675 118.667656,32.5335925 118.371094,32.5335925 C117.952656,32.5335925 117.56875,32.651405 117.219375,32.88703 C116.87,33.122655 116.571406,33.4578113 116.323594,33.8924988 L116.323594,33.8924988 L116.274844,33.8924988 L116.159063,32.6554675 L115.324219,32.6554675 L115.324219,39.3342175 L116.335781,39.3342175 Z M122.039531,39.4560925 C122.535156,39.4560925 122.948516,39.3819519 123.279609,39.2336706 C123.610703,39.0853894 123.942813,38.80203 124.275938,38.3835925 L124.275938,38.3835925 L124.324688,38.3835925 L124.525781,39.3342175 L125.275313,39.3342175 L125.275313,34.7760925 C125.275313,33.9960925 125.083359,33.4293738 124.699453,33.0759363 C124.315547,32.7224988 123.725469,32.54578 122.929219,32.54578 C122.535156,32.54578 122.142109,32.5965613 121.750078,32.6981238 C121.358047,32.7996863 120.9975,32.9398425 120.668438,33.1185925 L120.668438,33.1185925 L120.979219,33.8924988 C121.682031,33.5512488 122.311719,33.3806238 122.868281,33.3806238 C123.363906,33.3806238 123.724453,33.5055456 123.949922,33.7553894 C124.175391,34.0052331 124.288125,34.3921863 124.288125,34.9162488 L124.288125,34.9162488 L124.288125,35.3306238 L123.154688,35.3671863 C120.9975,35.4321863 119.918906,36.1390613 119.918906,37.4878113 C119.918906,38.1174988 120.106797,38.6029675 120.482578,38.9442175 C120.858359,39.2854675 121.377344,39.4560925 122.039531,39.4560925 Z M122.240625,38.6212488 C121.8425,38.6212488 121.532734,38.52578 121.311328,38.3348425 C121.089922,38.143905 120.979219,37.8656238 120.979219,37.4999988 C120.979219,37.0328113 121.156953,36.6885144 121.512422,36.4671081 C121.867891,36.2457019 122.447812,36.12078 123.252188,36.0923425 L123.252188,36.0923425 L124.26375,36.0496863 L124.26375,36.6529675 C124.26375,37.27453 124.083984,37.7579675 123.724453,38.10328 C123.364922,38.4485925 122.870313,38.6212488 122.240625,38.6212488 Z M128.370938,39.3342175 L128.370938,35.8303113 C128.370938,34.9609363 128.533438,34.3373425 128.858438,33.95953 C129.183438,33.5817175 129.695313,33.3928113 130.394063,33.3928113 C130.922188,33.3928113 131.310156,33.5268738 131.557969,33.7949988 C131.805781,34.0631238 131.929688,34.4693738 131.929688,35.0137488 L131.929688,35.0137488 L131.929688,39.3342175 L132.94125,39.3342175 L132.94125,34.9771863 C132.94125,34.1240613 132.738125,33.5035144 132.331875,33.1155456 C131.925625,32.7275769 131.320313,32.5335925 130.515938,32.5335925 C130.056875,32.5335925 129.640469,32.6239831 129.266719,32.8047644 C128.892969,32.9855456 128.6025,33.2404675 128.395313,33.56953 L128.395313,33.56953 L128.346563,33.56953 L128.182031,32.6554675 L127.359375,32.6554675 L127.359375,39.3342175 L128.370938,39.3342175 Z M137.414062,39.4560925 C138.344375,39.4560925 139.043125,39.1168738 139.510312,38.4384363 L139.510312,38.4384363 L139.565156,38.4384363 L139.699219,39.3342175 L140.521875,39.3342175 L140.521875,29.8523425 L139.510312,29.8523425 L139.510312,32.570155 L139.534688,33.0393738 L139.577344,33.52078 L139.498125,33.52078 C139.014688,32.862655 138.32,32.5335925 137.414062,32.5335925 C136.544688,32.5335925 135.86625,32.83828 135.37875,33.447655 C134.89125,34.05703 134.6475,34.9121863 134.6475,36.0131238 C134.6475,37.1140613 134.890234,37.9631238 135.375703,38.5603113 C135.861172,39.1574988 136.540625,39.4560925 137.414062,39.4560925 Z M137.542031,38.6090613 C136.936719,38.6090613 136.477656,38.3917175 136.164844,37.95703 C135.852031,37.5223425 135.695625,36.8784363 135.695625,36.0253113 C135.695625,35.1843738 135.853047,34.5333581 136.167891,34.0722644 C136.482734,33.6111706 136.936719,33.3806238 137.529844,33.3806238 C138.220469,33.3806238 138.723203,33.5827331 139.038047,33.9869519 C139.352891,34.3911706 139.510312,35.0665613 139.510312,36.0131238 L139.510312,36.0131238 L139.510312,36.226405 C139.510312,37.06328 139.354922,37.6696081 139.044141,38.0453894 C138.733359,38.4211706 138.232656,38.6090613 137.542031,38.6090613 Z M145.098281,36.4518738 L145.098281,35.5256238 L142.10625,35.5256238 L142.10625,36.4518738 L145.098281,36.4518738 Z M149.168906,39.4560925 C150.168281,39.4560925 150.910703,39.0762488 151.396172,38.3165613 C151.881641,37.5568738 152.124375,36.4071863 152.124375,34.8674988 C152.124375,33.3806238 151.873516,32.245155 151.371797,31.4610925 C150.870078,30.67703 150.135781,30.2849988 149.168906,30.2849988 C148.177656,30.2849988 147.440313,30.66078 146.956875,31.4123425 C146.473438,32.163905 146.231719,33.3156238 146.231719,34.8674988 C146.231719,36.3706238 146.481563,37.5111706 146.98125,38.2891394 C147.480938,39.0671081 148.210156,39.4560925 149.168906,39.4560925 Z M149.168906,38.5846863 C148.502656,38.5846863 148.017188,38.2891394 147.7125,37.6980456 C147.407813,37.1069519 147.255469,36.1634363 147.255469,34.8674988 C147.255469,33.5715613 147.407813,32.6300769 147.7125,32.0430456 C148.017188,31.4560144 148.502656,31.1624988 149.168906,31.1624988 C149.843281,31.1624988 150.331797,31.4600769 150.634453,32.0552331 C150.937109,32.6503894 151.088437,33.5878113 151.088437,34.8674988 C151.088437,36.1471863 150.937109,37.0866394 150.634453,37.6858581 C150.331797,38.2850769 149.843281,38.5846863 149.168906,38.5846863 Z M159.211406,39.3342175 L159.211406,38.39578 L154.628906,38.39578 L154.628906,38.34703 L156.578906,36.4396863 C157.448281,35.5946863 158.041406,34.8959363 158.358281,34.3434363 C158.675156,33.7909363 158.833594,33.2323425 158.833594,32.667655 C158.833594,31.94453 158.595937,31.3686706 158.120625,30.9400769 C157.645312,30.5114831 156.989219,30.2971863 156.152344,30.2971863 C155.185469,30.2971863 154.291719,30.6384363 153.471094,31.3209363 L153.471094,31.3209363 L154.007344,32.00953 C154.413594,31.6885925 154.782266,31.4671863 155.113359,31.3453113 C155.444453,31.2234363 155.794844,31.1624988 156.164531,31.1624988 C156.676406,31.1624988 157.076563,31.3016394 157.365,31.5799206 C157.653437,31.8582019 157.797656,32.2349988 157.797656,32.7103113 C157.797656,33.0474988 157.740781,33.3623425 157.627031,33.6548425 C157.513281,33.9473425 157.342656,34.2479675 157.115156,34.5567175 C156.887656,34.8654675 156.416406,35.381405 155.701406,36.10453 L155.701406,36.10453 L153.355313,38.4628113 L153.355313,39.3342175 L159.211406,39.3342175 Z" id="color-brand-02" fill="#000000" fill-rule="nonzero"></path>
                    <path d="M21.62875,40.5254194 C22.6470833,40.5254194 23.456875,40.0419819 24.058125,39.0751069 C24.659375,38.1082319 24.96,36.7933361 24.96,35.1304194 C24.96,33.4675028 24.659375,32.1539611 24.058125,31.1897944 C23.456875,30.2256278 22.6470833,29.7435444 21.62875,29.7435444 C20.6104167,29.7435444 19.8019792,30.2242736 19.2034375,31.1857319 C18.6048958,32.1471903 18.305625,33.4620861 18.305625,35.1304194 C18.305625,36.8041694 18.6048958,38.1217736 19.2034375,39.0832319 C19.8019792,40.0446903 20.6104167,40.5254194 21.62875,40.5254194 Z M21.62875,39.3716694 C21.0058333,39.3716694 20.5210417,39.0019819 20.174375,38.2626069 C19.8277083,37.5232319 19.654375,36.4791694 19.654375,35.1304194 C19.654375,33.7870861 19.8277083,32.7470861 20.174375,32.0104194 C20.5210417,31.2737528 21.0058333,30.9054194 21.62875,30.9054194 C22.2570833,30.9054194 22.7445833,31.2737528 23.09125,32.0104194 C23.4379167,32.7470861 23.61125,33.7870861 23.61125,35.1304194 C23.61125,36.4791694 23.4379167,37.5232319 23.09125,38.2626069 C22.7445833,39.0019819 22.2570833,39.3716694 21.62875,39.3716694 Z M34.165625,40.2572944 C34.295625,40.2572944 34.40125,40.2098986 34.4825,40.1151069 C34.56375,40.0203153 34.6125,39.8889611 34.62875,39.7210444 L34.62875,39.7210444 L34.69375,39.0954194 C34.69375,39.0791694 34.6964583,39.0507319 34.701875,39.0101069 C34.7072917,38.9694819 34.71,38.9410444 34.71,38.9247944 C34.71,38.7189611 34.6585417,38.5564611 34.555625,38.4372944 C34.4527083,38.3181278 34.311875,38.2585444 34.133125,38.2585444 C33.954375,38.2585444 33.8121875,38.3194819 33.7065625,38.4413569 C33.6009375,38.5632319 33.5372917,38.7406278 33.515625,38.9735444 L33.515625,38.9735444 L29.8025,38.9735444 L30.801875,38.0147944 C31.0510417,37.7656278 31.41125,37.4216694 31.8825,36.9829194 C33.7241667,35.2225028 34.645,33.8114611 34.645,32.7497944 C34.645,31.9047944 34.3430208,31.1925028 33.7390625,30.6129194 C33.1351042,30.0333361 32.3835417,29.7435444 31.484375,29.7435444 C30.948125,29.7435444 30.4240625,29.8423986 29.9121875,30.0401069 C29.4003125,30.2378153 28.9710417,30.5045861 28.624375,30.8404194 C28.5214583,30.9433361 28.4510417,31.0394819 28.413125,31.1288569 C28.3752083,31.2182319 28.35625,31.3604194 28.35625,31.5554194 C28.35625,31.8912528 28.396875,32.1187528 28.478125,32.2379194 C28.559375,32.3570861 28.6975,32.4166694 28.8925,32.4166694 C29.1416667,32.4166694 29.3664583,32.2352111 29.566875,31.8722944 C29.6372917,31.7693778 29.68875,31.6962528 29.72125,31.6529194 C29.9108333,31.4145861 30.1613542,31.2250028 30.4728125,31.0841694 C30.7842708,30.9433361 31.110625,30.8729194 31.451875,30.8729194 C31.9772917,30.8729194 32.4052083,31.0530236 32.735625,31.4132319 C33.0660417,31.7734403 33.23125,32.2433361 33.23125,32.8229194 C33.23125,33.6300028 32.2941667,34.9164611 30.42,36.6822944 C30.1220833,36.9639611 29.8945833,37.1806278 29.7375,37.3322944 L29.7375,37.3322944 L29.501875,37.5597944 C28.461875,38.5293778 27.941875,39.1902111 27.941875,39.5422944 C27.941875,39.7860444 28.0109375,39.9661486 28.1490625,40.0826069 C28.2871875,40.1990653 28.4997917,40.2572944 28.786875,40.2572944 L28.786875,40.2572944 L34.165625,40.2572944 Z" id="02" fill="#000000" fill-rule="nonzero" opacity="0.5"></path>
                </g>
                <g id="boxes-copy-2" transform="translate(0.000000, 151.000000)">
                    <g id="Group" fill="#F2F2F2" stroke="#979797" stroke-width="0.52">
                        <g id="boxes/base">
                            <rect id="base" x="-0.26" y="-0.26" width="234.52" height="75.52"></rect>
                        </g>
                    </g>
                    <path d="M77.0615625,39.4560925 C77.74,39.4560925 78.3026563,39.3403113 78.7495313,39.1087488 L78.7495313,39.1087488 L78.7495313,38.2129675 C78.1645313,38.452655 77.59375,38.5724988 77.0371875,38.5724988 C76.3871875,38.5724988 75.8966406,38.3531238 75.5655469,37.9143738 C75.2344531,37.4756238 75.0689063,36.8459363 75.0689063,36.0253113 C75.0689063,34.2946863 75.7473438,33.4293738 77.1042188,33.4293738 C77.3073438,33.4293738 77.5409375,33.4588269 77.805,33.5177331 C78.0690625,33.5766394 78.3128125,33.65078 78.53625,33.740155 L78.53625,33.740155 L78.8470313,32.8809363 C78.6642188,32.7874988 78.4123438,32.7062488 78.0914063,32.6371863 C77.7704688,32.5681238 77.4495313,32.5335925 77.1285938,32.5335925 C76.1332813,32.5335925 75.3664844,32.83828 74.8282031,33.447655 C74.2899219,34.05703 74.0207813,34.9203113 74.0207813,36.0374988 C74.0207813,37.1262488 74.2858594,37.9682019 74.8160156,38.5633581 C75.3461719,39.1585144 76.0946875,39.4560925 77.0615625,39.4560925 Z M83.0029688,39.4560925 C83.9698438,39.4560925 84.7275,39.1503894 85.2759375,38.5389831 C85.824375,37.9275769 86.0985938,37.0774988 86.0985938,35.9887488 C86.0985938,34.9284363 85.8233594,34.0874988 85.2728906,33.4659363 C84.7224219,32.8443738 83.98,32.5335925 83.045625,32.5335925 C82.07875,32.5335925 81.323125,32.8372644 80.77875,33.4446081 C80.234375,34.0519519 79.9621875,34.8999988 79.9621875,35.9887488 C79.9621875,36.6915613 80.088125,37.3049988 80.34,37.8290613 C80.591875,38.3531238 80.949375,38.7553113 81.4125,39.0356238 C81.875625,39.3159363 82.4057813,39.4560925 83.0029688,39.4560925 Z M83.0273438,38.6090613 C82.3651562,38.6090613 81.8634375,38.3856238 81.5221875,37.9387488 C81.1809375,37.4918738 81.0103125,36.8418738 81.0103125,35.9887488 C81.0103125,35.1274988 81.1789063,34.47953 81.5160938,34.0448425 C81.8532813,33.610155 82.3529688,33.3928113 83.0151563,33.3928113 C83.6854688,33.3928113 84.1922656,33.6132019 84.5355469,34.0539831 C84.8788281,34.4947644 85.0504688,35.1396863 85.0504688,35.9887488 C85.0504688,36.8459363 84.8788281,37.4969519 84.5355469,37.9417956 C84.1922656,38.3866394 83.6895313,38.6090613 83.0273438,38.6090613 Z M88.8834375,39.3342175 L88.8834375,29.8523425 L87.871875,29.8523425 L87.871875,39.3342175 L88.8834375,39.3342175 Z M93.6975,39.4560925 C94.664375,39.4560925 95.4220313,39.1503894 95.9704688,38.5389831 C96.5189063,37.9275769 96.793125,37.0774988 96.793125,35.9887488 C96.793125,34.9284363 96.5178906,34.0874988 95.9674219,33.4659363 C95.4169531,32.8443738 94.6745313,32.5335925 93.7401563,32.5335925 C92.7732813,32.5335925 92.0176563,32.8372644 91.4732813,33.4446081 C90.9289063,34.0519519 90.6567188,34.8999988 90.6567188,35.9887488 C90.6567188,36.6915613 90.7826563,37.3049988 91.0345313,37.8290613 C91.2864063,38.3531238 91.6439063,38.7553113 92.1070313,39.0356238 C92.5701563,39.3159363 93.1003125,39.4560925 93.6975,39.4560925 Z M93.721875,38.6090613 C93.0596875,38.6090613 92.5579688,38.3856238 92.2167188,37.9387488 C91.8754688,37.4918738 91.7048438,36.8418738 91.7048438,35.9887488 C91.7048438,35.1274988 91.8734375,34.47953 92.210625,34.0448425 C92.5478125,33.610155 93.0475,33.3928113 93.7096875,33.3928113 C94.38,33.3928113 94.8867969,33.6132019 95.2300781,34.0539831 C95.5733594,34.4947644 95.745,35.1396863 95.745,35.9887488 C95.745,36.8459363 95.5733594,37.4969519 95.2300781,37.9417956 C94.8867969,38.3866394 94.3840625,38.6090613 93.721875,38.6090613 Z M99.5779688,39.3342175 L99.5779688,35.7510925 C99.5779688,35.09703 99.7699219,34.5506238 100.153828,34.1118738 C100.537734,33.6731238 100.999844,33.4537488 101.540156,33.4537488 C101.751406,33.4537488 101.995156,33.4842175 102.271406,33.545155 L102.271406,33.545155 L102.411563,32.6067175 C102.175938,32.5579675 101.909844,32.5335925 101.613281,32.5335925 C101.194844,32.5335925 100.810938,32.651405 100.461563,32.88703 C100.112188,33.122655 99.8135938,33.4578113 99.5657813,33.8924988 L99.5657813,33.8924988 L99.5170313,33.8924988 L99.40125,32.6554675 L98.5664063,32.6554675 L98.5664063,39.3342175 L99.5779688,39.3342175 Z M106.092188,36.4518738 L106.092188,35.5256238 L103.100156,35.5256238 L103.100156,36.4518738 L106.092188,36.4518738 Z M110.784375,39.4560925 C111.65375,39.4560925 112.333203,39.1524206 112.822734,38.5450769 C113.312266,37.9377331 113.557031,37.0856238 113.557031,35.9887488 C113.557031,34.8918738 113.314297,34.0438269 112.828828,33.4446081 C112.343359,32.8453894 111.661875,32.54578 110.784375,32.54578 C109.858125,32.54578 109.159375,32.878905 108.688125,33.545155 L108.688125,33.545155 L108.639375,33.545155 C108.671875,33.1348425 108.688125,32.6717175 108.688125,32.15578 L108.688125,32.15578 L108.688125,29.8523425 L107.676563,29.8523425 L107.676563,39.3342175 L108.401719,39.3342175 L108.615,38.4749988 L108.688125,38.4749988 C108.931875,38.8081238 109.233516,39.0549206 109.593047,39.2153894 C109.952578,39.3758581 110.349688,39.4560925 110.784375,39.4560925 Z M110.6625,38.6090613 C109.971875,38.6090613 109.470156,38.4069519 109.157344,38.0027331 C108.844531,37.5985144 108.688125,36.9271863 108.688125,35.9887488 C108.688125,35.0503113 108.840469,34.3830456 109.145156,33.9869519 C109.449844,33.5908581 109.9475,33.3928113 110.638125,33.3928113 C111.275937,33.3928113 111.747188,33.6060925 112.051875,34.032655 C112.356563,34.4592175 112.508906,35.1071863 112.508906,35.9765613 C112.508906,36.8256238 112.356563,37.4766394 112.051875,37.9296081 C111.747188,38.3825769 111.284063,38.6090613 110.6625,38.6090613 Z M116.335781,39.3342175 L116.335781,35.7510925 C116.335781,35.09703 116.527734,34.5506238 116.911641,34.1118738 C117.295547,33.6731238 117.757656,33.4537488 118.297969,33.4537488 C118.509219,33.4537488 118.752969,33.4842175 119.029219,33.545155 L119.029219,33.545155 L119.169375,32.6067175 C118.93375,32.5579675 118.667656,32.5335925 118.371094,32.5335925 C117.952656,32.5335925 117.56875,32.651405 117.219375,32.88703 C116.87,33.122655 116.571406,33.4578113 116.323594,33.8924988 L116.323594,33.8924988 L116.274844,33.8924988 L116.159063,32.6554675 L115.324219,32.6554675 L115.324219,39.3342175 L116.335781,39.3342175 Z M122.039531,39.4560925 C122.535156,39.4560925 122.948516,39.3819519 123.279609,39.2336706 C123.610703,39.0853894 123.942813,38.80203 124.275938,38.3835925 L124.275938,38.3835925 L124.324688,38.3835925 L124.525781,39.3342175 L125.275313,39.3342175 L125.275313,34.7760925 C125.275313,33.9960925 125.083359,33.4293738 124.699453,33.0759363 C124.315547,32.7224988 123.725469,32.54578 122.929219,32.54578 C122.535156,32.54578 122.142109,32.5965613 121.750078,32.6981238 C121.358047,32.7996863 120.9975,32.9398425 120.668438,33.1185925 L120.668438,33.1185925 L120.979219,33.8924988 C121.682031,33.5512488 122.311719,33.3806238 122.868281,33.3806238 C123.363906,33.3806238 123.724453,33.5055456 123.949922,33.7553894 C124.175391,34.0052331 124.288125,34.3921863 124.288125,34.9162488 L124.288125,34.9162488 L124.288125,35.3306238 L123.154688,35.3671863 C120.9975,35.4321863 119.918906,36.1390613 119.918906,37.4878113 C119.918906,38.1174988 120.106797,38.6029675 120.482578,38.9442175 C120.858359,39.2854675 121.377344,39.4560925 122.039531,39.4560925 Z M122.240625,38.6212488 C121.8425,38.6212488 121.532734,38.52578 121.311328,38.3348425 C121.089922,38.143905 120.979219,37.8656238 120.979219,37.4999988 C120.979219,37.0328113 121.156953,36.6885144 121.512422,36.4671081 C121.867891,36.2457019 122.447812,36.12078 123.252188,36.0923425 L123.252188,36.0923425 L124.26375,36.0496863 L124.26375,36.6529675 C124.26375,37.27453 124.083984,37.7579675 123.724453,38.10328 C123.364922,38.4485925 122.870313,38.6212488 122.240625,38.6212488 Z M128.370938,39.3342175 L128.370938,35.8303113 C128.370938,34.9609363 128.533438,34.3373425 128.858438,33.95953 C129.183438,33.5817175 129.695313,33.3928113 130.394063,33.3928113 C130.922188,33.3928113 131.310156,33.5268738 131.557969,33.7949988 C131.805781,34.0631238 131.929688,34.4693738 131.929688,35.0137488 L131.929688,35.0137488 L131.929688,39.3342175 L132.94125,39.3342175 L132.94125,34.9771863 C132.94125,34.1240613 132.738125,33.5035144 132.331875,33.1155456 C131.925625,32.7275769 131.320313,32.5335925 130.515938,32.5335925 C130.056875,32.5335925 129.640469,32.6239831 129.266719,32.8047644 C128.892969,32.9855456 128.6025,33.2404675 128.395313,33.56953 L128.395313,33.56953 L128.346563,33.56953 L128.182031,32.6554675 L127.359375,32.6554675 L127.359375,39.3342175 L128.370938,39.3342175 Z M137.414062,39.4560925 C138.344375,39.4560925 139.043125,39.1168738 139.510312,38.4384363 L139.510312,38.4384363 L139.565156,38.4384363 L139.699219,39.3342175 L140.521875,39.3342175 L140.521875,29.8523425 L139.510312,29.8523425 L139.510312,32.570155 L139.534688,33.0393738 L139.577344,33.52078 L139.498125,33.52078 C139.014688,32.862655 138.32,32.5335925 137.414062,32.5335925 C136.544688,32.5335925 135.86625,32.83828 135.37875,33.447655 C134.89125,34.05703 134.6475,34.9121863 134.6475,36.0131238 C134.6475,37.1140613 134.890234,37.9631238 135.375703,38.5603113 C135.861172,39.1574988 136.540625,39.4560925 137.414062,39.4560925 Z M137.542031,38.6090613 C136.936719,38.6090613 136.477656,38.3917175 136.164844,37.95703 C135.852031,37.5223425 135.695625,36.8784363 135.695625,36.0253113 C135.695625,35.1843738 135.853047,34.5333581 136.167891,34.0722644 C136.482734,33.6111706 136.936719,33.3806238 137.529844,33.3806238 C138.220469,33.3806238 138.723203,33.5827331 139.038047,33.9869519 C139.352891,34.3911706 139.510312,35.0665613 139.510312,36.0131238 L139.510312,36.0131238 L139.510312,36.226405 C139.510312,37.06328 139.354922,37.6696081 139.044141,38.0453894 C138.733359,38.4211706 138.232656,38.6090613 137.542031,38.6090613 Z M145.098281,36.4518738 L145.098281,35.5256238 L142.10625,35.5256238 L142.10625,36.4518738 L145.098281,36.4518738 Z M149.168906,39.4560925 C150.168281,39.4560925 150.910703,39.0762488 151.396172,38.3165613 C151.881641,37.5568738 152.124375,36.4071863 152.124375,34.8674988 C152.124375,33.3806238 151.873516,32.245155 151.371797,31.4610925 C150.870078,30.67703 150.135781,30.2849988 149.168906,30.2849988 C148.177656,30.2849988 147.440313,30.66078 146.956875,31.4123425 C146.473438,32.163905 146.231719,33.3156238 146.231719,34.8674988 C146.231719,36.3706238 146.481563,37.5111706 146.98125,38.2891394 C147.480938,39.0671081 148.210156,39.4560925 149.168906,39.4560925 Z M149.168906,38.5846863 C148.502656,38.5846863 148.017188,38.2891394 147.7125,37.6980456 C147.407813,37.1069519 147.255469,36.1634363 147.255469,34.8674988 C147.255469,33.5715613 147.407813,32.6300769 147.7125,32.0430456 C148.017188,31.4560144 148.502656,31.1624988 149.168906,31.1624988 C149.843281,31.1624988 150.331797,31.4600769 150.634453,32.0552331 C150.937109,32.6503894 151.088437,33.5878113 151.088437,34.8674988 C151.088437,36.1471863 150.937109,37.0866394 150.634453,37.6858581 C150.331797,38.2850769 149.843281,38.5846863 149.168906,38.5846863 Z M155.75625,39.4560925 C156.840937,39.4560925 157.677813,39.2275769 158.266875,38.7705456 C158.855938,38.3135144 159.150469,37.6604675 159.150469,36.811405 C159.150469,36.21828 158.977813,35.738905 158.6325,35.37328 C158.287188,35.007655 157.757031,34.780155 157.042031,34.69078 L157.042031,34.69078 L157.042031,34.64203 C157.627031,34.520155 158.078984,34.2784363 158.397891,33.9168738 C158.716797,33.5553113 158.87625,33.090155 158.87625,32.521405 C158.87625,31.83078 158.636563,31.2874206 158.157188,30.8913269 C157.677813,30.4952331 157.005469,30.2971863 156.140156,30.2971863 C155.612031,30.2971863 155.109297,30.3794519 154.631953,30.5439831 C154.154609,30.7085144 153.733125,30.9349988 153.3675,31.2234363 L153.3675,31.2234363 L153.879375,31.9059363 C154.322188,31.6215613 154.71625,31.4265613 155.061563,31.3209363 C155.406875,31.2153113 155.774531,31.1624988 156.164531,31.1624988 C156.676406,31.1624988 157.081641,31.286405 157.380234,31.5342175 C157.678828,31.78203 157.828125,32.12328 157.828125,32.5579675 C157.828125,33.1023425 157.625,33.5278894 157.21875,33.8346081 C156.8125,34.1413269 156.262031,34.2946863 155.567344,34.2946863 L155.567344,34.2946863 L154.677656,34.2946863 L154.677656,35.1660925 L155.555156,35.1660925 C157.253281,35.1660925 158.102344,35.706405 158.102344,36.78703 C158.102344,37.9935925 157.3325,38.5968738 155.792813,38.5968738 C155.402813,38.5968738 154.989453,38.5471081 154.552734,38.4475769 C154.116016,38.3480456 153.704688,38.2028113 153.31875,38.0118738 L153.31875,38.0118738 L153.31875,38.9746863 C153.688438,39.1534363 154.069297,39.2783581 154.461328,39.3494519 C154.853359,39.4205456 155.285,39.4560925 155.75625,39.4560925 Z" id="color-brand-03" fill="#000000" fill-rule="nonzero"></path>
                    <path d="M21.62875,40.5254194 C22.6470833,40.5254194 23.456875,40.0419819 24.058125,39.0751069 C24.659375,38.1082319 24.96,36.7933361 24.96,35.1304194 C24.96,33.4675028 24.659375,32.1539611 24.058125,31.1897944 C23.456875,30.2256278 22.6470833,29.7435444 21.62875,29.7435444 C20.6104167,29.7435444 19.8019792,30.2242736 19.2034375,31.1857319 C18.6048958,32.1471903 18.305625,33.4620861 18.305625,35.1304194 C18.305625,36.8041694 18.6048958,38.1217736 19.2034375,39.0832319 C19.8019792,40.0446903 20.6104167,40.5254194 21.62875,40.5254194 Z M21.62875,39.3716694 C21.0058333,39.3716694 20.5210417,39.0019819 20.174375,38.2626069 C19.8277083,37.5232319 19.654375,36.4791694 19.654375,35.1304194 C19.654375,33.7870861 19.8277083,32.7470861 20.174375,32.0104194 C20.5210417,31.2737528 21.0058333,30.9054194 21.62875,30.9054194 C22.2570833,30.9054194 22.7445833,31.2737528 23.09125,32.0104194 C23.4379167,32.7470861 23.61125,33.7870861 23.61125,35.1304194 C23.61125,36.4791694 23.4379167,37.5232319 23.09125,38.2626069 C22.7445833,39.0019819 22.2570833,39.3716694 21.62875,39.3716694 Z M31.265,40.5254194 C32.3320833,40.5254194 33.2014583,40.2234403 33.873125,39.6194819 C34.5447917,39.0155236 34.880625,38.2395861 34.880625,37.2916694 C34.880625,36.6308361 34.7059375,36.0715653 34.3565625,35.6138569 C34.0071875,35.1561486 33.515625,34.8406278 32.881875,34.6672944 C33.4452083,34.4614611 33.8609375,34.1743778 34.1290625,33.8060444 C34.3971875,33.4377111 34.53125,32.9691694 34.53125,32.4004194 C34.53125,31.6529194 34.2509375,31.0232319 33.6903125,30.5113569 C33.1296875,29.9994819 32.426875,29.7435444 31.581875,29.7435444 C30.8452083,29.7435444 30.1735417,29.9073986 29.566875,30.2351069 C28.9602083,30.5628153 28.656875,30.8918778 28.656875,31.2222944 C28.656875,31.3685444 28.7069792,31.4904194 28.8071875,31.5879194 C28.9073958,31.6854194 29.0333333,31.7341694 29.185,31.7341694 C29.3041667,31.7341694 29.6034375,31.5933361 30.0828125,31.3116694 C30.5621875,31.0300028 31.029375,30.8891694 31.484375,30.8891694 C31.9772917,30.8891694 32.3835417,31.0516694 32.703125,31.3766694 C33.0227083,31.7016694 33.1825,32.1214611 33.1825,32.6360444 C33.1825,33.0368778 33.0525,33.3781278 32.7925,33.6597944 C32.5325,33.9414611 32.19125,34.1147944 31.76875,34.1797944 C31.655,34.2014611 31.5114583,34.2204194 31.338125,34.2366694 C30.8939583,34.2908361 30.671875,34.4777111 30.671875,34.7972944 C30.671875,35.1493778 30.899375,35.3389611 31.354375,35.3660444 C31.5927083,35.3822944 31.785,35.4039611 31.93125,35.4310444 C32.41875,35.5231278 32.8019792,35.7357319 33.0809375,36.0688569 C33.3598958,36.4019819 33.499375,36.8095861 33.499375,37.2916694 C33.499375,37.8766694 33.2976042,38.3533361 32.8940625,38.7216694 C32.4905208,39.0900028 31.9664583,39.2741694 31.321875,39.2741694 C30.8235417,39.2741694 30.2859375,39.1360444 29.7090625,38.8597944 C29.1321875,38.5835444 28.7977083,38.4454194 28.705625,38.4454194 C28.5377083,38.4454194 28.3955208,38.4982319 28.2790625,38.6038569 C28.1626042,38.7094819 28.104375,38.8435444 28.104375,39.0060444 C28.104375,39.3852111 28.4253125,39.7332319 29.0671875,40.0501069 C29.7090625,40.3669819 30.4416667,40.5254194 31.265,40.5254194 Z" id="03" fill="#000000" fill-rule="nonzero" opacity="0.5"></path>
                </g>
                <g id="boxes-copy">
                    <g id="Group" fill="#FFFFFF" stroke="#666666" stroke-width="1.04">
                        <g id="boxes/base">
                            <rect id="base" x="-0.52" y="-0.52" width="235.04" height="76.04"></rect>
                        </g>
                    </g>
                    <path d="M77.0615625,39.4560925 C77.74,39.4560925 78.3026563,39.3403113 78.7495313,39.1087488 L78.7495313,39.1087488 L78.7495313,38.2129675 C78.1645313,38.452655 77.59375,38.5724988 77.0371875,38.5724988 C76.3871875,38.5724988 75.8966406,38.3531238 75.5655469,37.9143738 C75.2344531,37.4756238 75.0689063,36.8459363 75.0689063,36.0253113 C75.0689063,34.2946863 75.7473438,33.4293738 77.1042188,33.4293738 C77.3073438,33.4293738 77.5409375,33.4588269 77.805,33.5177331 C78.0690625,33.5766394 78.3128125,33.65078 78.53625,33.740155 L78.53625,33.740155 L78.8470313,32.8809363 C78.6642188,32.7874988 78.4123438,32.7062488 78.0914063,32.6371863 C77.7704688,32.5681238 77.4495313,32.5335925 77.1285938,32.5335925 C76.1332813,32.5335925 75.3664844,32.83828 74.8282031,33.447655 C74.2899219,34.05703 74.0207813,34.9203113 74.0207813,36.0374988 C74.0207813,37.1262488 74.2858594,37.9682019 74.8160156,38.5633581 C75.3461719,39.1585144 76.0946875,39.4560925 77.0615625,39.4560925 Z M83.0029688,39.4560925 C83.9698438,39.4560925 84.7275,39.1503894 85.2759375,38.5389831 C85.824375,37.9275769 86.0985938,37.0774988 86.0985938,35.9887488 C86.0985938,34.9284363 85.8233594,34.0874988 85.2728906,33.4659363 C84.7224219,32.8443738 83.98,32.5335925 83.045625,32.5335925 C82.07875,32.5335925 81.323125,32.8372644 80.77875,33.4446081 C80.234375,34.0519519 79.9621875,34.8999988 79.9621875,35.9887488 C79.9621875,36.6915613 80.088125,37.3049988 80.34,37.8290613 C80.591875,38.3531238 80.949375,38.7553113 81.4125,39.0356238 C81.875625,39.3159363 82.4057813,39.4560925 83.0029688,39.4560925 Z M83.0273438,38.6090613 C82.3651562,38.6090613 81.8634375,38.3856238 81.5221875,37.9387488 C81.1809375,37.4918738 81.0103125,36.8418738 81.0103125,35.9887488 C81.0103125,35.1274988 81.1789063,34.47953 81.5160938,34.0448425 C81.8532813,33.610155 82.3529688,33.3928113 83.0151563,33.3928113 C83.6854688,33.3928113 84.1922656,33.6132019 84.5355469,34.0539831 C84.8788281,34.4947644 85.0504688,35.1396863 85.0504688,35.9887488 C85.0504688,36.8459363 84.8788281,37.4969519 84.5355469,37.9417956 C84.1922656,38.3866394 83.6895313,38.6090613 83.0273438,38.6090613 Z M88.8834375,39.3342175 L88.8834375,29.8523425 L87.871875,29.8523425 L87.871875,39.3342175 L88.8834375,39.3342175 Z M93.6975,39.4560925 C94.664375,39.4560925 95.4220313,39.1503894 95.9704688,38.5389831 C96.5189063,37.9275769 96.793125,37.0774988 96.793125,35.9887488 C96.793125,34.9284363 96.5178906,34.0874988 95.9674219,33.4659363 C95.4169531,32.8443738 94.6745313,32.5335925 93.7401563,32.5335925 C92.7732813,32.5335925 92.0176563,32.8372644 91.4732813,33.4446081 C90.9289063,34.0519519 90.6567188,34.8999988 90.6567188,35.9887488 C90.6567188,36.6915613 90.7826563,37.3049988 91.0345313,37.8290613 C91.2864063,38.3531238 91.6439063,38.7553113 92.1070313,39.0356238 C92.5701563,39.3159363 93.1003125,39.4560925 93.6975,39.4560925 Z M93.721875,38.6090613 C93.0596875,38.6090613 92.5579688,38.3856238 92.2167188,37.9387488 C91.8754688,37.4918738 91.7048438,36.8418738 91.7048438,35.9887488 C91.7048438,35.1274988 91.8734375,34.47953 92.210625,34.0448425 C92.5478125,33.610155 93.0475,33.3928113 93.7096875,33.3928113 C94.38,33.3928113 94.8867969,33.6132019 95.2300781,34.0539831 C95.5733594,34.4947644 95.745,35.1396863 95.745,35.9887488 C95.745,36.8459363 95.5733594,37.4969519 95.2300781,37.9417956 C94.8867969,38.3866394 94.3840625,38.6090613 93.721875,38.6090613 Z M99.5779688,39.3342175 L99.5779688,35.7510925 C99.5779688,35.09703 99.7699219,34.5506238 100.153828,34.1118738 C100.537734,33.6731238 100.999844,33.4537488 101.540156,33.4537488 C101.751406,33.4537488 101.995156,33.4842175 102.271406,33.545155 L102.271406,33.545155 L102.411563,32.6067175 C102.175938,32.5579675 101.909844,32.5335925 101.613281,32.5335925 C101.194844,32.5335925 100.810938,32.651405 100.461563,32.88703 C100.112188,33.122655 99.8135938,33.4578113 99.5657813,33.8924988 L99.5657813,33.8924988 L99.5170313,33.8924988 L99.40125,32.6554675 L98.5664063,32.6554675 L98.5664063,39.3342175 L99.5779688,39.3342175 Z M106.092188,36.4518738 L106.092188,35.5256238 L103.100156,35.5256238 L103.100156,36.4518738 L106.092188,36.4518738 Z M110.784375,39.4560925 C111.65375,39.4560925 112.333203,39.1524206 112.822734,38.5450769 C113.312266,37.9377331 113.557031,37.0856238 113.557031,35.9887488 C113.557031,34.8918738 113.314297,34.0438269 112.828828,33.4446081 C112.343359,32.8453894 111.661875,32.54578 110.784375,32.54578 C109.858125,32.54578 109.159375,32.878905 108.688125,33.545155 L108.688125,33.545155 L108.639375,33.545155 C108.671875,33.1348425 108.688125,32.6717175 108.688125,32.15578 L108.688125,32.15578 L108.688125,29.8523425 L107.676563,29.8523425 L107.676563,39.3342175 L108.401719,39.3342175 L108.615,38.4749988 L108.688125,38.4749988 C108.931875,38.8081238 109.233516,39.0549206 109.593047,39.2153894 C109.952578,39.3758581 110.349688,39.4560925 110.784375,39.4560925 Z M110.6625,38.6090613 C109.971875,38.6090613 109.470156,38.4069519 109.157344,38.0027331 C108.844531,37.5985144 108.688125,36.9271863 108.688125,35.9887488 C108.688125,35.0503113 108.840469,34.3830456 109.145156,33.9869519 C109.449844,33.5908581 109.9475,33.3928113 110.638125,33.3928113 C111.275937,33.3928113 111.747188,33.6060925 112.051875,34.032655 C112.356563,34.4592175 112.508906,35.1071863 112.508906,35.9765613 C112.508906,36.8256238 112.356563,37.4766394 112.051875,37.9296081 C111.747188,38.3825769 111.284063,38.6090613 110.6625,38.6090613 Z M116.335781,39.3342175 L116.335781,35.7510925 C116.335781,35.09703 116.527734,34.5506238 116.911641,34.1118738 C117.295547,33.6731238 117.757656,33.4537488 118.297969,33.4537488 C118.509219,33.4537488 118.752969,33.4842175 119.029219,33.545155 L119.029219,33.545155 L119.169375,32.6067175 C118.93375,32.5579675 118.667656,32.5335925 118.371094,32.5335925 C117.952656,32.5335925 117.56875,32.651405 117.219375,32.88703 C116.87,33.122655 116.571406,33.4578113 116.323594,33.8924988 L116.323594,33.8924988 L116.274844,33.8924988 L116.159063,32.6554675 L115.324219,32.6554675 L115.324219,39.3342175 L116.335781,39.3342175 Z M122.039531,39.4560925 C122.535156,39.4560925 122.948516,39.3819519 123.279609,39.2336706 C123.610703,39.0853894 123.942813,38.80203 124.275938,38.3835925 L124.275938,38.3835925 L124.324688,38.3835925 L124.525781,39.3342175 L125.275313,39.3342175 L125.275313,34.7760925 C125.275313,33.9960925 125.083359,33.4293738 124.699453,33.0759363 C124.315547,32.7224988 123.725469,32.54578 122.929219,32.54578 C122.535156,32.54578 122.142109,32.5965613 121.750078,32.6981238 C121.358047,32.7996863 120.9975,32.9398425 120.668438,33.1185925 L120.668438,33.1185925 L120.979219,33.8924988 C121.682031,33.5512488 122.311719,33.3806238 122.868281,33.3806238 C123.363906,33.3806238 123.724453,33.5055456 123.949922,33.7553894 C124.175391,34.0052331 124.288125,34.3921863 124.288125,34.9162488 L124.288125,34.9162488 L124.288125,35.3306238 L123.154688,35.3671863 C120.9975,35.4321863 119.918906,36.1390613 119.918906,37.4878113 C119.918906,38.1174988 120.106797,38.6029675 120.482578,38.9442175 C120.858359,39.2854675 121.377344,39.4560925 122.039531,39.4560925 Z M122.240625,38.6212488 C121.8425,38.6212488 121.532734,38.52578 121.311328,38.3348425 C121.089922,38.143905 120.979219,37.8656238 120.979219,37.4999988 C120.979219,37.0328113 121.156953,36.6885144 121.512422,36.4671081 C121.867891,36.2457019 122.447812,36.12078 123.252188,36.0923425 L123.252188,36.0923425 L124.26375,36.0496863 L124.26375,36.6529675 C124.26375,37.27453 124.083984,37.7579675 123.724453,38.10328 C123.364922,38.4485925 122.870313,38.6212488 122.240625,38.6212488 Z M128.370938,39.3342175 L128.370938,35.8303113 C128.370938,34.9609363 128.533438,34.3373425 128.858438,33.95953 C129.183438,33.5817175 129.695313,33.3928113 130.394063,33.3928113 C130.922188,33.3928113 131.310156,33.5268738 131.557969,33.7949988 C131.805781,34.0631238 131.929688,34.4693738 131.929688,35.0137488 L131.929688,35.0137488 L131.929688,39.3342175 L132.94125,39.3342175 L132.94125,34.9771863 C132.94125,34.1240613 132.738125,33.5035144 132.331875,33.1155456 C131.925625,32.7275769 131.320313,32.5335925 130.515938,32.5335925 C130.056875,32.5335925 129.640469,32.6239831 129.266719,32.8047644 C128.892969,32.9855456 128.6025,33.2404675 128.395313,33.56953 L128.395313,33.56953 L128.346563,33.56953 L128.182031,32.6554675 L127.359375,32.6554675 L127.359375,39.3342175 L128.370938,39.3342175 Z M137.414062,39.4560925 C138.344375,39.4560925 139.043125,39.1168738 139.510312,38.4384363 L139.510312,38.4384363 L139.565156,38.4384363 L139.699219,39.3342175 L140.521875,39.3342175 L140.521875,29.8523425 L139.510312,29.8523425 L139.510312,32.570155 L139.534688,33.0393738 L139.577344,33.52078 L139.498125,33.52078 C139.014688,32.862655 138.32,32.5335925 137.414062,32.5335925 C136.544688,32.5335925 135.86625,32.83828 135.37875,33.447655 C134.89125,34.05703 134.6475,34.9121863 134.6475,36.0131238 C134.6475,37.1140613 134.890234,37.9631238 135.375703,38.5603113 C135.861172,39.1574988 136.540625,39.4560925 137.414062,39.4560925 Z M137.542031,38.6090613 C136.936719,38.6090613 136.477656,38.3917175 136.164844,37.95703 C135.852031,37.5223425 135.695625,36.8784363 135.695625,36.0253113 C135.695625,35.1843738 135.853047,34.5333581 136.167891,34.0722644 C136.482734,33.6111706 136.936719,33.3806238 137.529844,33.3806238 C138.220469,33.3806238 138.723203,33.5827331 139.038047,33.9869519 C139.352891,34.3911706 139.510312,35.0665613 139.510312,36.0131238 L139.510312,36.0131238 L139.510312,36.226405 C139.510312,37.06328 139.354922,37.6696081 139.044141,38.0453894 C138.733359,38.4211706 138.232656,38.6090613 137.542031,38.6090613 Z M145.098281,36.4518738 L145.098281,35.5256238 L142.10625,35.5256238 L142.10625,36.4518738 L145.098281,36.4518738 Z M149.168906,39.4560925 C150.168281,39.4560925 150.910703,39.0762488 151.396172,38.3165613 C151.881641,37.5568738 152.124375,36.4071863 152.124375,34.8674988 C152.124375,33.3806238 151.873516,32.245155 151.371797,31.4610925 C150.870078,30.67703 150.135781,30.2849988 149.168906,30.2849988 C148.177656,30.2849988 147.440313,30.66078 146.956875,31.4123425 C146.473438,32.163905 146.231719,33.3156238 146.231719,34.8674988 C146.231719,36.3706238 146.481563,37.5111706 146.98125,38.2891394 C147.480938,39.0671081 148.210156,39.4560925 149.168906,39.4560925 Z M149.168906,38.5846863 C148.502656,38.5846863 148.017188,38.2891394 147.7125,37.6980456 C147.407813,37.1069519 147.255469,36.1634363 147.255469,34.8674988 C147.255469,33.5715613 147.407813,32.6300769 147.7125,32.0430456 C148.017188,31.4560144 148.502656,31.1624988 149.168906,31.1624988 C149.843281,31.1624988 150.331797,31.4600769 150.634453,32.0552331 C150.937109,32.6503894 151.088437,33.5878113 151.088437,34.8674988 C151.088437,36.1471863 150.937109,37.0866394 150.634453,37.6858581 C150.331797,38.2850769 149.843281,38.5846863 149.168906,38.5846863 Z M157.102969,39.3342175 L157.102969,30.425155 L156.249844,30.425155 L153.891563,32.2471863 L154.427813,32.9418738 C155.289062,32.2431238 155.7725,31.84703 155.878125,31.7535925 C155.98375,31.660155 156.079219,31.57078 156.164531,31.4854675 C156.132031,31.9567175 156.115781,32.456405 156.115781,32.98453 L156.115781,32.98453 L156.115781,39.3342175 L157.102969,39.3342175 Z" id="color-brand-01" fill="#000000" fill-rule="nonzero"></path>
                    <path d="M21.62875,40.5254194 C22.6470833,40.5254194 23.456875,40.0419819 24.058125,39.0751069 C24.659375,38.1082319 24.96,36.7933361 24.96,35.1304194 C24.96,33.4675028 24.659375,32.1539611 24.058125,31.1897944 C23.456875,30.2256278 22.6470833,29.7435444 21.62875,29.7435444 C20.6104167,29.7435444 19.8019792,30.2242736 19.2034375,31.1857319 C18.6048958,32.1471903 18.305625,33.4620861 18.305625,35.1304194 C18.305625,36.8041694 18.6048958,38.1217736 19.2034375,39.0832319 C19.8019792,40.0446903 20.6104167,40.5254194 21.62875,40.5254194 Z M21.62875,39.3716694 C21.0058333,39.3716694 20.5210417,39.0019819 20.174375,38.2626069 C19.8277083,37.5232319 19.654375,36.4791694 19.654375,35.1304194 C19.654375,33.7870861 19.8277083,32.7470861 20.174375,32.0104194 C20.5210417,31.2737528 21.0058333,30.9054194 21.62875,30.9054194 C22.2570833,30.9054194 22.7445833,31.2737528 23.09125,32.0104194 C23.4379167,32.7470861 23.61125,33.7870861 23.61125,35.1304194 C23.61125,36.4791694 23.4379167,37.5232319 23.09125,38.2626069 C22.7445833,39.0019819 22.2570833,39.3716694 21.62875,39.3716694 Z M34.246875,40.2572944 C34.4635417,40.2572944 34.6260417,40.2085444 34.734375,40.1110444 C34.8427083,40.0135444 34.896875,39.8672944 34.896875,39.6722944 C34.896875,39.4556278 34.831875,39.3080236 34.701875,39.2294819 C34.571875,39.1509403 34.2658333,39.1116694 33.78375,39.1116694 L33.78375,39.1116694 L32.48375,39.1116694 L32.48375,30.3204194 C32.48375,30.1579194 32.4539583,30.0292736 32.394375,29.9344819 C32.3347917,29.8396903 32.2535417,29.7922944 32.150625,29.7922944 C32.0910417,29.7922944 32.0328125,29.7963569 31.9759375,29.8044819 C31.9190625,29.8126069 31.8608333,29.8247944 31.80125,29.8410444 L31.80125,29.8410444 L29.388125,30.4910444 C29.2147917,30.5397944 29.0820833,30.6129194 28.99,30.7104194 C28.8979167,30.8079194 28.851875,30.9216694 28.851875,31.0516694 C28.851875,31.2087528 28.9046875,31.3346903 29.0103125,31.4294819 C29.1159375,31.5242736 29.2527083,31.5716694 29.420625,31.5716694 C29.4477083,31.5716694 29.4788542,31.5689611 29.5140625,31.5635444 C29.5257986,31.5617389 29.5394907,31.5596324 29.5551389,31.557225 L29.6725,31.5391694 L31.2,31.1735444 L31.2,39.1116694 L29.85125,39.1116694 C29.3691667,39.1116694 29.063125,39.1509403 28.933125,39.2294819 C28.803125,39.3080236 28.738125,39.4556278 28.738125,39.6722944 C28.738125,39.8672944 28.7922917,40.0135444 28.900625,40.1110444 C29.0089583,40.2085444 29.1714583,40.2572944 29.388125,40.2572944 L29.388125,40.2572944 L34.246875,40.2572944 Z" id="01" fill="#000000" fill-rule="nonzero" opacity="0.5"></path>
                </g>
            </g>
        </g>
    </g>
</svg>