<svg width="256" height="239" viewBox="0 0 256 239" fill="none" xmlns="http://www.w3.org/2000/svg">
<rect width="256" height="239" fill="white"/>
<g filter="url(#filter0_dd)">
<path d="M56 97C56 95.8954 56.8954 95 58 95H194C195.105 95 196 95.8954 196 97V137C196 138.105 195.105 139 194 139H58C56.8954 139 56 138.105 56 137V97Z" fill="#FFD464"/>
<path d="M75.6484 117.992V122H73.3047V110.625H77.7422C78.5964 110.625 79.3464 110.781 79.9922 111.094C80.6432 111.406 81.1432 111.852 81.4922 112.43C81.8411 113.003 82.0156 113.656 82.0156 114.391C82.0156 115.505 81.6328 116.385 80.8672 117.031C80.1068 117.672 79.0521 117.992 77.7031 117.992H75.6484ZM75.6484 116.094H77.7422C78.362 116.094 78.8333 115.948 79.1562 115.656C79.4844 115.365 79.6484 114.948 79.6484 114.406C79.6484 113.849 79.4844 113.398 79.1562 113.055C78.8281 112.711 78.375 112.534 77.7969 112.523H75.6484V116.094ZM88.2344 115.664C87.9271 115.622 87.6562 115.602 87.4219 115.602C86.5677 115.602 86.0078 115.891 85.7422 116.469V122H83.4844V113.547H85.6172L85.6797 114.555C86.1328 113.779 86.7604 113.391 87.5625 113.391C87.8125 113.391 88.0469 113.424 88.2656 113.492L88.2344 115.664ZM91.7109 122H89.4453V113.547H91.7109V122ZM89.3125 111.359C89.3125 111.021 89.4245 110.742 89.6484 110.523C89.8776 110.305 90.1875 110.195 90.5781 110.195C90.9635 110.195 91.2708 110.305 91.5 110.523C91.7292 110.742 91.8438 111.021 91.8438 111.359C91.8438 111.703 91.7266 111.984 91.4922 112.203C91.263 112.422 90.9583 112.531 90.5781 112.531C90.1979 112.531 89.8906 112.422 89.6562 112.203C89.4271 111.984 89.3125 111.703 89.3125 111.359ZM95.6953 113.547L95.7656 114.492C96.3646 113.758 97.1745 113.391 98.1953 113.391C99.2839 113.391 100.031 113.82 100.438 114.68C101.031 113.82 101.878 113.391 102.977 113.391C103.893 113.391 104.576 113.659 105.023 114.195C105.471 114.727 105.695 115.529 105.695 116.602V122H103.43V116.609C103.43 116.13 103.336 115.781 103.148 115.562C102.961 115.339 102.63 115.227 102.156 115.227C101.479 115.227 101.01 115.549 100.75 116.195L100.758 122H98.5V116.617C98.5 116.128 98.4036 115.773 98.2109 115.555C98.0182 115.336 97.6901 115.227 97.2266 115.227C96.5859 115.227 96.1224 115.492 95.8359 116.023V122H93.5781V113.547H95.6953ZM112.336 122C112.232 121.797 112.156 121.544 112.109 121.242C111.562 121.852 110.852 122.156 109.977 122.156C109.148 122.156 108.461 121.917 107.914 121.438C107.372 120.958 107.102 120.354 107.102 119.625C107.102 118.729 107.432 118.042 108.094 117.562C108.76 117.083 109.721 116.841 110.977 116.836H112.016V116.352C112.016 115.961 111.914 115.648 111.711 115.414C111.513 115.18 111.198 115.062 110.766 115.062C110.385 115.062 110.086 115.154 109.867 115.336C109.654 115.518 109.547 115.768 109.547 116.086H107.289C107.289 115.596 107.44 115.143 107.742 114.727C108.044 114.31 108.471 113.984 109.023 113.75C109.576 113.51 110.195 113.391 110.883 113.391C111.924 113.391 112.75 113.654 113.359 114.18C113.974 114.701 114.281 115.435 114.281 116.383V120.047C114.286 120.849 114.398 121.456 114.617 121.867V122H112.336ZM110.469 120.43C110.802 120.43 111.109 120.357 111.391 120.211C111.672 120.06 111.88 119.859 112.016 119.609V118.156H111.172C110.042 118.156 109.44 118.547 109.367 119.328L109.359 119.461C109.359 119.742 109.458 119.974 109.656 120.156C109.854 120.339 110.125 120.43 110.469 120.43ZM120.766 115.664C120.458 115.622 120.188 115.602 119.953 115.602C119.099 115.602 118.539 115.891 118.273 116.469V122H116.016V113.547H118.148L118.211 114.555C118.664 113.779 119.292 113.391 120.094 113.391C120.344 113.391 120.578 113.424 120.797 113.492L120.766 115.664ZM125.156 118.805L126.719 113.547H129.141L125.742 123.312L125.555 123.758C125.049 124.862 124.216 125.414 123.055 125.414C122.727 125.414 122.393 125.365 122.055 125.266V123.555L122.398 123.562C122.826 123.562 123.143 123.497 123.352 123.367C123.565 123.237 123.732 123.021 123.852 122.719L124.117 122.023L121.156 113.547H123.586L125.156 118.805ZM141.633 117.852C141.633 119.206 141.344 120.263 140.766 121.023C140.188 121.779 139.38 122.156 138.344 122.156C137.427 122.156 136.695 121.805 136.148 121.102L136.047 122H134.016V110H136.273V114.305C136.794 113.695 137.479 113.391 138.328 113.391C139.359 113.391 140.167 113.771 140.75 114.531C141.339 115.286 141.633 116.352 141.633 117.727V117.852ZM139.375 117.688C139.375 116.833 139.24 116.211 138.969 115.82C138.698 115.424 138.294 115.227 137.758 115.227C137.039 115.227 136.544 115.521 136.273 116.109V119.445C136.549 120.039 137.049 120.336 137.773 120.336C138.503 120.336 138.982 119.977 139.211 119.258C139.32 118.914 139.375 118.391 139.375 117.688ZM148.094 121.141C147.536 121.818 146.766 122.156 145.781 122.156C144.875 122.156 144.182 121.896 143.703 121.375C143.229 120.854 142.987 120.091 142.977 119.086V113.547H145.234V119.008C145.234 119.888 145.635 120.328 146.438 120.328C147.203 120.328 147.729 120.062 148.016 119.531V113.547H150.281V122H148.156L148.094 121.141ZM154.688 111.469V113.547H156.133V115.203H154.688V119.422C154.688 119.734 154.747 119.958 154.867 120.094C154.987 120.229 155.216 120.297 155.555 120.297C155.805 120.297 156.026 120.279 156.219 120.242V121.953C155.776 122.089 155.32 122.156 154.852 122.156C153.268 122.156 152.461 121.357 152.43 119.758V115.203H151.195V113.547H152.43V111.469H154.688ZM160.094 111.469V113.547H161.539V115.203H160.094V119.422C160.094 119.734 160.154 119.958 160.273 120.094C160.393 120.229 160.622 120.297 160.961 120.297C161.211 120.297 161.432 120.279 161.625 120.242V121.953C161.182 122.089 160.727 122.156 160.258 122.156C158.674 122.156 157.867 121.357 157.836 119.758V115.203H156.602V113.547H157.836V111.469H160.094ZM162.211 117.695C162.211 116.857 162.372 116.109 162.695 115.453C163.018 114.797 163.482 114.289 164.086 113.93C164.695 113.57 165.401 113.391 166.203 113.391C167.344 113.391 168.273 113.74 168.992 114.438C169.716 115.135 170.12 116.083 170.203 117.281L170.219 117.859C170.219 119.156 169.857 120.198 169.133 120.984C168.409 121.766 167.438 122.156 166.219 122.156C165 122.156 164.026 121.766 163.297 120.984C162.573 120.203 162.211 119.141 162.211 117.797V117.695ZM164.469 117.859C164.469 118.661 164.62 119.276 164.922 119.703C165.224 120.125 165.656 120.336 166.219 120.336C166.766 120.336 167.193 120.128 167.5 119.711C167.807 119.289 167.961 118.617 167.961 117.695C167.961 116.909 167.807 116.299 167.5 115.867C167.193 115.435 166.76 115.219 166.203 115.219C165.651 115.219 165.224 115.435 164.922 115.867C164.62 116.294 164.469 116.958 164.469 117.859ZM173.688 113.547L173.758 114.523C174.362 113.768 175.172 113.391 176.188 113.391C177.083 113.391 177.75 113.654 178.188 114.18C178.625 114.706 178.849 115.492 178.859 116.539V122H176.602V116.594C176.602 116.115 176.497 115.768 176.289 115.555C176.081 115.336 175.734 115.227 175.25 115.227C174.615 115.227 174.138 115.497 173.82 116.039V122H171.562V113.547H173.688Z" fill="#1D2426"/>
</g>
<rect x="187" y="135" width="2" height="32" fill="#1D2426"/>
<circle cx="188" cy="171" r="12" fill="#1D2426"/>
<path d="M190.803 168.678C190.803 169.537 190.397 170.493 189.585 171.548C188.773 172.603 187.639 173.751 186.183 174.992H191.111V176H184.895V174.992C185.072 174.824 185.315 174.605 185.623 174.334C185.931 174.063 186.262 173.765 186.617 173.438C186.971 173.102 187.331 172.743 187.695 172.36C188.068 171.977 188.404 171.585 188.703 171.184C189.001 170.783 189.244 170.381 189.431 169.98C189.617 169.579 189.711 169.191 189.711 168.818C189.711 168.258 189.561 167.819 189.263 167.502C188.973 167.175 188.535 167.012 187.947 167.012C187.443 167.012 187.018 167.068 186.673 167.18C186.327 167.292 186.015 167.455 185.735 167.67L185.259 166.9C185.679 166.601 186.122 166.382 186.589 166.242C187.065 166.102 187.583 166.032 188.143 166.032C189.02 166.032 189.683 166.27 190.131 166.746C190.579 167.222 190.803 167.866 190.803 168.678Z" fill="white"/>
<rect width="2" height="32" transform="matrix(1 0 0 -1 74 104)" fill="#1D2426"/>
<circle r="12" transform="matrix(1 0 0 -1 75 68)" fill="#1D2426"/>
<path d="M72.5807 71.992H74.7787V64.628L72.5387 66.196L71.9927 65.398L75.0727 63.2H75.8567V71.992H78.0127V73H72.5807V71.992Z" fill="white"/>
<defs>
<filter id="filter0_dd" x="48" y="91" width="156" height="60" filterUnits="userSpaceOnUse" color-interpolation-filters="sRGB">
<feFlood flood-opacity="0" result="BackgroundImageFix"/>
<feColorMatrix in="SourceAlpha" type="matrix" values="0 0 0 0 0 0 0 0 0 0 0 0 0 0 0 0 0 0 127 0"/>
<feOffset/>
<feGaussianBlur stdDeviation="1.5"/>
<feColorMatrix type="matrix" values="0 0 0 0 0 0 0 0 0 0 0 0 0 0 0 0 0 0 0.1 0"/>
<feBlend mode="normal" in2="BackgroundImageFix" result="effect1_dropShadow"/>
<feColorMatrix in="SourceAlpha" type="matrix" values="0 0 0 0 0 0 0 0 0 0 0 0 0 0 0 0 0 0 127 0"/>
<feOffset dy="4"/>
<feGaussianBlur stdDeviation="4"/>
<feColorMatrix type="matrix" values="0 0 0 0 0 0 0 0 0 0 0 0 0 0 0 0 0 0 0.1 0"/>
<feBlend mode="normal" in2="effect1_dropShadow" result="effect2_dropShadow"/>
<feBlend mode="normal" in="SourceGraphic" in2="effect2_dropShadow" result="shape"/>
</filter>
</defs>
</svg>
