<?xml version="1.0" encoding="UTF-8"?>
<svg width="446px" height="55px" viewBox="0 0 446 55" version="1.1" xmlns="http://www.w3.org/2000/svg" xmlns:xlink="http://www.w3.org/1999/xlink">
    <title>font-weight-1</title>
    <g id="Doc_exemplos" stroke="none" stroke-width="1" fill="none" fill-rule="evenodd">
        <g id="doc-tipografia-expandido" transform="translate(-315.000000, -1902.000000)" fill="#000000" fill-rule="nonzero">
            <g id="font-weight-1" transform="translate(315.000000, 1902.000000)">
                <g id="900" transform="translate(409.600000, 0.000000)">
                    <path d="M5.65909091,25.28 L6.667,21.94 L12.423,21.94 L13.4318182,25.28 L18.5454545,25.28 L12.7840909,7.82545455 L6.30681818,7.82545455 L0.545454545,25.28 L5.65909091,25.28 Z M11.352,18.394 L7.738,18.394 L9.47727273,12.6322727 L9.61363636,12.6322727 L11.352,18.394 Z M23.9318182,25.4845455 C24.5,25.4845455 25.0213068,25.4163636 25.4957386,25.28 C25.9701705,25.1436364 26.3934659,24.9248864 26.765625,24.62375 C27.1377841,24.3226136 27.4545455,23.9277273 27.7159091,23.4390909 L27.7159091,23.4390909 L27.8181818,23.4390909 L27.8181818,25.28 L32.2159091,25.28 L32.2159091,16.3140909 C32.2159091,15.7061364 32.078125,15.1422159 31.8025568,14.6223295 C31.5269886,14.1024432 31.1278409,13.6478977 30.6051136,13.2586932 C30.0823864,12.8694886 29.4488636,12.5655114 28.7045455,12.3467614 C27.9602273,12.1280114 27.1193182,12.0186364 26.1818182,12.0186364 C24.8806818,12.0186364 23.7954545,12.2217614 22.9261364,12.6280114 C22.0568182,13.0342614 21.3963068,13.5740341 20.9446023,14.2473295 C20.4928977,14.920625 20.2386364,15.655 20.1818182,16.4504545 L20.1818182,16.4504545 L24.5113636,16.4504545 C24.5681818,16.0470455 24.7372159,15.7473295 25.0184659,15.5513068 C25.2997159,15.3552841 25.6647727,15.2572727 26.1136364,15.2572727 C26.5227273,15.2572727 26.8579545,15.3481818 27.1193182,15.53 C27.3806818,15.7118182 27.5113636,15.9731818 27.5113636,16.3140909 L27.5113636,16.3140909 L27.5113636,16.3481818 C27.5113636,16.5981818 27.4119318,16.7984659 27.2130682,16.9490341 C27.0142045,17.0996023 26.6917614,17.2160795 26.2457386,17.2984659 C25.7997159,17.3808523 25.2102273,17.4504545 24.4772727,17.5072727 C23.8011364,17.5584091 23.171875,17.6692045 22.5894886,17.8396591 C22.0071023,18.0101136 21.4971591,18.2572727 21.0596591,18.5811364 C20.6221591,18.905 20.28125,19.3211932 20.0369318,19.8297159 C19.7926136,20.3382386 19.6704545,20.9504545 19.6704545,21.6663636 C19.6704545,22.5356818 19.8522727,23.2515909 20.2159091,23.8140909 C20.5795455,24.3765909 21.0809659,24.795625 21.7201705,25.0711932 C22.359375,25.3467614 23.0965909,25.4845455 23.9318182,25.4845455 Z M25.4659091,22.5186364 C25.0681818,22.5186364 24.7414773,22.4220455 24.4857955,22.2288636 C24.2301136,22.0356818 24.1022727,21.7572727 24.1022727,21.3936364 C24.1022727,21.1663636 24.1576705,20.9603977 24.2684659,20.7757386 C24.3792614,20.5910795 24.5497159,20.4348295 24.7798295,20.3069886 C25.0099432,20.1791477 25.3068182,20.0868182 25.6704545,20.03 C25.8579545,20.0015909 26.0383523,19.9703409 26.2116477,19.93625 C26.3849432,19.9021591 26.5497159,19.8652273 26.7059659,19.8254545 C26.8622159,19.7856818 27.0099432,19.7430682 27.1491477,19.6976136 C27.2883523,19.6521591 27.4204545,19.6038636 27.5454545,19.5527273 L27.5454545,19.5527273 L27.5454545,20.6436364 C27.5454545,21.0413636 27.4460227,21.3794318 27.2471591,21.6578409 C27.0482955,21.93625 26.7911932,22.1493182 26.4758523,22.2970455 C26.1605114,22.4447727 25.8238636,22.5186364 25.4659091,22.5186364 Z" id="Aa"></path>
                    <path d="M3.54545455,46.5993182 C4.03693182,46.5993182 4.47798295,46.4927841 4.86860795,46.2797159 C5.25923295,46.0666477 5.59161932,45.7541477 5.86576705,45.3422159 C6.13991477,44.9302841 6.35014205,44.423892 6.49644886,43.8230398 C6.64275568,43.2221875 6.71590909,42.5339773 6.71590909,41.7584091 C6.71590909,40.9515909 6.62642045,40.2818466 6.44744318,39.7491761 C6.26846591,39.2165057 6.03125,38.7953409 5.73579545,38.4856818 C5.44034091,38.1760227 5.11363636,37.9544318 4.75568182,37.8209091 C4.39772727,37.6873864 4.03977273,37.6192045 3.68181818,37.6163636 C3.09090909,37.6106818 2.57741477,37.7399432 2.14133523,38.0041477 C1.70525568,38.2683523 1.3671875,38.6234659 1.12713068,39.0694886 C0.887073864,39.5155114 0.767045455,40.0084091 0.767045455,40.5481818 C0.767045455,41.1106818 0.891335227,41.6099716 1.13991477,42.0460511 C1.38849432,42.4821307 1.72088068,42.8244602 2.13707386,43.0730398 C2.55326705,43.3216193 3.01136364,43.4459091 3.51136364,43.4459091 C3.8125,43.4459091 4.09659091,43.3990341 4.36363636,43.3052841 C4.63068182,43.2115341 4.87357955,43.0780114 5.09232955,42.9047159 C5.31107955,42.7314205 5.5,42.5254545 5.65909091,42.2868182 L5.65909091,42.2868182 L5.72727273,42.2868182 C5.72727273,43.3606818 5.53196023,44.1916477 5.14133523,44.7797159 C4.75071023,45.3677841 4.21875,45.6618182 3.54545455,45.6618182 C3.08522727,45.6618182 2.71519886,45.5318466 2.43536932,45.2719034 C2.15553977,45.0119602 1.96875,44.6817045 1.875,44.2811364 L1.875,44.2811364 L0.835227273,44.2811364 C0.903409091,44.7413636 1.05894886,45.145483 1.30184659,45.4934943 C1.54474432,45.8415057 1.85724432,46.1128125 2.23934659,46.3074148 C2.62144886,46.502017 3.05681818,46.5993182 3.54545455,46.5993182 Z M3.64772727,42.5084091 C3.28977273,42.5084091 2.97088068,42.4210511 2.69105114,42.2463352 C2.41122159,42.0716193 2.19105114,41.8358239 2.03053977,41.5389489 C1.87002841,41.2420739 1.78977273,40.9118182 1.78977273,40.5481818 C1.78977273,40.1788636 1.87286932,39.8436364 2.0390625,39.5425 C2.20525568,39.2413636 2.43110795,39.0013068 2.71661932,38.8223295 C3.00213068,38.6433523 3.32386364,38.5538636 3.68181818,38.5538636 C4.04545455,38.5538636 4.37002841,38.6461932 4.65553977,38.8308523 C4.94105114,39.0155114 5.16548295,39.2584091 5.32883523,39.5595455 C5.4921875,39.8606818 5.57386364,40.1845455 5.57386364,40.5311364 C5.57386364,40.7896591 5.52414773,41.0375284 5.42471591,41.2747443 C5.32528409,41.5119602 5.18821023,41.723608 5.01349432,41.9096875 C4.83877841,42.095767 4.63494318,42.2420739 4.40198864,42.348608 C4.16903409,42.455142 3.91761364,42.5084091 3.64772727,42.5084091 Z M11.2329545,46.5993182 C11.875,46.5993182 12.421875,46.423892 12.8735795,46.0730398 C13.3252841,45.7221875 13.6704545,45.2122443 13.9090909,44.5432102 C14.1477273,43.8741761 14.2670455,43.0652273 14.2670455,42.1163636 C14.2670455,41.1731818 14.147017,40.3670739 13.9069602,39.6980398 C13.6669034,39.0290057 13.3203125,38.517642 12.8671875,38.1639489 C12.4140625,37.8102557 11.8693182,37.6334091 11.2329545,37.6334091 C10.5965909,37.6334091 10.0518466,37.8102557 9.59872159,38.1639489 C9.14559659,38.517642 8.79900568,39.0290057 8.55894886,39.6980398 C8.31889205,40.3670739 8.19886364,41.1731818 8.19886364,42.1163636 C8.19886364,43.0652273 8.31818182,43.8741761 8.55681818,44.5432102 C8.79545455,45.2122443 9.140625,45.7221875 9.59232955,46.0730398 C10.0440341,46.423892 10.5909091,46.5993182 11.2329545,46.5993182 Z M11.2329545,45.6618182 C10.8096591,45.6618182 10.4481534,45.5240341 10.1484375,45.2484659 C9.84872159,44.9728977 9.61931818,44.5709091 9.46022727,44.0425 C9.30113636,43.5140909 9.22159091,42.8720455 9.22159091,42.1163636 C9.22159091,40.9828409 9.39914773,40.1057102 9.75426136,39.4849716 C10.109375,38.864233 10.6022727,38.5538636 11.2329545,38.5538636 C11.6534091,38.5538636 12.0134943,38.6930682 12.3132102,38.9714773 C12.6129261,39.2498864 12.8430398,39.6547159 13.0035511,40.1859659 C13.1640625,40.7172159 13.2443182,41.3606818 13.2443182,42.1163636 C13.2443182,43.2527273 13.0681818,44.1277273 12.7159091,44.7413636 C12.3636364,45.355 11.8693182,45.6618182 11.2329545,45.6618182 Z M18.7329545,46.5993182 C19.375,46.5993182 19.921875,46.423892 20.3735795,46.0730398 C20.8252841,45.7221875 21.1704545,45.2122443 21.4090909,44.5432102 C21.6477273,43.8741761 21.7670455,43.0652273 21.7670455,42.1163636 C21.7670455,41.1731818 21.647017,40.3670739 21.4069602,39.6980398 C21.1669034,39.0290057 20.8203125,38.517642 20.3671875,38.1639489 C19.9140625,37.8102557 19.3693182,37.6334091 18.7329545,37.6334091 C18.0965909,37.6334091 17.5518466,37.8102557 17.0987216,38.1639489 C16.6455966,38.517642 16.2990057,39.0290057 16.0589489,39.6980398 C15.818892,40.3670739 15.6988636,41.1731818 15.6988636,42.1163636 C15.6988636,43.0652273 15.8181818,43.8741761 16.0568182,44.5432102 C16.2954545,45.2122443 16.640625,45.7221875 17.0923295,46.0730398 C17.5440341,46.423892 18.0909091,46.5993182 18.7329545,46.5993182 Z M18.7329545,45.6618182 C18.3096591,45.6618182 17.9481534,45.5240341 17.6484375,45.2484659 C17.3487216,44.9728977 17.1193182,44.5709091 16.9602273,44.0425 C16.8011364,43.5140909 16.7215909,42.8720455 16.7215909,42.1163636 C16.7215909,40.9828409 16.8991477,40.1057102 17.2542614,39.4849716 C17.609375,38.864233 18.1022727,38.5538636 18.7329545,38.5538636 C19.1534091,38.5538636 19.5134943,38.6930682 19.8132102,38.9714773 C20.1129261,39.2498864 20.3430398,39.6547159 20.5035511,40.1859659 C20.6640625,40.7172159 20.7443182,41.3606818 20.7443182,42.1163636 C20.7443182,43.2527273 20.5681818,44.1277273 20.2159091,44.7413636 C19.8636364,45.355 19.3693182,45.6618182 18.7329545,45.6618182 Z"></path>
                </g>
                <g id="800" transform="translate(358.400000, 0.000000)">
                    <path d="M5.09659091,25.28 L6.244,21.616 L12.272,21.616 L13.4232955,25.28 L17.9573864,25.28 L12.0681818,7.82545455 L6.45170455,7.82545455 L0.5625,25.28 L5.09659091,25.28 Z M11.266,18.411 L7.248,18.411 L9.1875,12.2231818 L9.32386364,12.2231818 L11.266,18.411 Z M23.53125,25.5015909 C24.1392045,25.5015909 24.6860795,25.4248864 25.171875,25.2714773 C25.6576705,25.1180682 26.0809659,24.8879545 26.4417614,24.5811364 C26.8025568,24.2743182 27.0994318,23.8993182 27.3323864,23.4561364 L27.3323864,23.4561364 L27.4346591,23.4561364 L27.4346591,25.28 L31.3551136,25.28 L31.3551136,16.3822727 C31.3551136,15.6890909 31.2116477,15.0726136 30.9247159,14.5328409 C30.6377841,13.9930682 30.2329545,13.5371023 29.7102273,13.1649432 C29.1875,12.7927841 28.5738636,12.5086932 27.8693182,12.3126705 C27.1647727,12.1166477 26.3948864,12.0186364 25.5596591,12.0186364 C24.3892045,12.0186364 23.3877841,12.1990341 22.5553977,12.5598295 C21.7230114,12.920625 21.0696023,13.4149432 20.5951705,14.0427841 C20.1207386,14.670625 19.8267045,15.3822727 19.7130682,16.1777273 L19.7130682,16.1777273 L23.5568182,16.3140909 C23.6477273,15.8936364 23.8607955,15.5640909 24.1960227,15.3254545 C24.53125,15.0868182 24.9744318,14.9675 25.5255682,14.9675 C26.0369318,14.9675 26.4431818,15.0868182 26.7443182,15.3254545 C27.0454545,15.5640909 27.1960227,15.9021591 27.1960227,16.3396591 L27.1960227,16.3396591 L27.1960227,16.3822727 C27.1960227,16.6493182 27.0923295,16.8552841 26.8849432,17.0001705 C26.6775568,17.1450568 26.3465909,17.2558523 25.8920455,17.3325568 C25.4375,17.4092614 24.8380682,17.4817045 24.09375,17.5498864 C23.4289773,17.6067045 22.8039773,17.7160795 22.21875,17.8780114 C21.6335227,18.0399432 21.1164773,18.2771591 20.6676136,18.5896591 C20.21875,18.9021591 19.8664773,19.3084091 19.6107955,19.8084091 C19.3551136,20.3084091 19.2272727,20.9220455 19.2272727,21.6493182 C19.2272727,22.5129545 19.4133523,23.2302841 19.7855114,23.8013068 C20.1576705,24.3723295 20.6661932,24.7984659 21.3110795,25.0797159 C21.9559659,25.3609659 22.6960227,25.5015909 23.53125,25.5015909 Z M24.8181818,22.7743182 C24.3409091,22.7743182 23.9474432,22.6606818 23.6377841,22.4334091 C23.328125,22.2061364 23.1732955,21.8765909 23.1732955,21.4447727 C23.1732955,21.1606818 23.2457386,20.9149432 23.390625,20.7075568 C23.5355114,20.5001705 23.7457386,20.3311364 24.0213068,20.2004545 C24.296875,20.0697727 24.6306818,19.9731818 25.0227273,19.9106818 C25.2159091,19.8822727 25.4176136,19.8510227 25.6278409,19.8169318 C25.8380682,19.7828409 26.0426136,19.7430682 26.2414773,19.6976136 C26.4403409,19.6521591 26.6235795,19.6038636 26.7911932,19.5527273 C26.9588068,19.5015909 27.1022727,19.4447727 27.2215909,19.3822727 L27.2215909,19.3822727 L27.2215909,20.6265909 C27.2215909,21.0527273 27.1136364,21.4263068 26.8977273,21.7473295 C26.6818182,22.0683523 26.3934659,22.3197727 26.0326705,22.5015909 C25.671875,22.6834091 25.2670455,22.7743182 24.8181818,22.7743182 Z" id="Aa"></path>
                    <path d="M3.69886364,46.5993182 C4.28125,46.5993182 4.79474432,46.4949148 5.23934659,46.286108 C5.68394886,46.0773011 6.03196023,45.7889489 6.28338068,45.4210511 C6.53480114,45.0531534 6.66193182,44.6334091 6.66477273,44.1618182 C6.66193182,43.7925 6.58522727,43.4508807 6.43465909,43.1369602 C6.28409091,42.8230398 6.08238636,42.5602557 5.82954545,42.348608 C5.57670455,42.1369602 5.29261364,42.0027273 4.97727273,41.9459091 L4.97727273,41.9459091 L4.97727273,41.8947727 C5.38636364,41.7868182 5.71519886,41.551733 5.96377841,41.189517 C6.21235795,40.8273011 6.33806818,40.4146591 6.34090909,39.9515909 C6.33806818,39.5084091 6.22230114,39.1121023 5.99360795,38.7626705 C5.76491477,38.4132386 5.45170455,38.1376705 5.05397727,37.9359659 C4.65625,37.7342614 4.20454545,37.6334091 3.69886364,37.6334091 C3.1875,37.6334091 2.73224432,37.7342614 2.33309659,37.9359659 C1.93394886,38.1376705 1.62073864,38.4132386 1.39346591,38.7626705 C1.16619318,39.1121023 1.05397727,39.5084091 1.05681818,39.9515909 C1.05397727,40.4146591 1.17613636,40.8273011 1.42329545,41.189517 C1.67045455,41.551733 2.00284091,41.7868182 2.42045455,41.8947727 L2.42045455,41.8947727 L2.42045455,41.9459091 C2.10227273,42.0027273 1.81463068,42.1369602 1.55752841,42.348608 C1.30042614,42.5602557 1.09801136,42.8230398 0.950284091,43.1369602 C0.802556818,43.4508807 0.730113636,43.7925 0.732954545,44.1618182 C0.730113636,44.6334091 0.853693182,45.0531534 1.10369318,45.4210511 C1.35369318,45.7889489 1.70241477,46.0773011 2.14985795,46.286108 C2.59730114,46.4949148 3.11363636,46.5993182 3.69886364,46.5993182 Z M3.69886364,41.5197727 C3.38068182,41.5197727 3.09943182,41.4572727 2.85511364,41.3322727 C2.61079545,41.2072727 2.41974432,41.0325568 2.28196023,40.808125 C2.14417614,40.5836932 2.07670455,40.3209091 2.07954545,40.0197727 C2.07670455,39.7243182 2.14204545,39.4665057 2.27556818,39.2463352 C2.40909091,39.0261648 2.59801136,38.8557102 2.84232955,38.7349716 C3.08664773,38.614233 3.37215909,38.5538636 3.69886364,38.5538636 C4.01988636,38.5538636 4.30113636,38.614233 4.54261364,38.7349716 C4.78409091,38.8557102 4.97301136,39.0261648 5.109375,39.2463352 C5.24573864,39.4665057 5.31534091,39.7243182 5.31818182,40.0197727 C5.31534091,40.3209091 5.24431818,40.5836932 5.10511364,40.808125 C4.96590909,41.0325568 4.77485795,41.2072727 4.53196023,41.3322727 C4.2890625,41.4572727 4.01136364,41.5197727 3.69886364,41.5197727 Z M3.69886364,45.6618182 C3.30113636,45.6618182 2.95738636,45.5978977 2.66761364,45.4700568 C2.37784091,45.3422159 2.15553977,45.1618182 2.00071023,44.9288636 C1.84588068,44.6959091 1.76988636,44.4231818 1.77272727,44.1106818 C1.76988636,43.7811364 1.8515625,43.4899432 2.01775568,43.2371023 C2.18394886,42.9842614 2.41264205,42.7853977 2.70383523,42.6405114 C2.99502841,42.495625 3.32670455,42.4231818 3.69886364,42.4231818 C4.06818182,42.4231818 4.39701705,42.495625 4.68536932,42.6405114 C4.97372159,42.7853977 5.20170455,42.9842614 5.36931818,43.2371023 C5.53693182,43.4899432 5.62215909,43.7811364 5.625,44.1106818 C5.62215909,44.4231818 5.54261364,44.6959091 5.38636364,44.9288636 C5.23011364,45.1618182 5.00852273,45.3422159 4.72159091,45.4700568 C4.43465909,45.5978977 4.09375,45.6618182 3.69886364,45.6618182 Z M11.1477273,46.5993182 C11.7897727,46.5993182 12.3366477,46.423892 12.7883523,46.0730398 C13.2400568,45.7221875 13.5852273,45.2122443 13.8238636,44.5432102 C14.0625,43.8741761 14.1818182,43.0652273 14.1818182,42.1163636 C14.1818182,41.1731818 14.0617898,40.3670739 13.821733,39.6980398 C13.5816761,39.0290057 13.2350852,38.517642 12.7819602,38.1639489 C12.3288352,37.8102557 11.7840909,37.6334091 11.1477273,37.6334091 C10.5113636,37.6334091 9.96661932,37.8102557 9.51349432,38.1639489 C9.06036932,38.517642 8.71377841,39.0290057 8.47372159,39.6980398 C8.23366477,40.3670739 8.11363636,41.1731818 8.11363636,42.1163636 C8.11363636,43.0652273 8.23295455,43.8741761 8.47159091,44.5432102 C8.71022727,45.2122443 9.05539773,45.7221875 9.50710227,46.0730398 C9.95880682,46.423892 10.5056818,46.5993182 11.1477273,46.5993182 Z M11.1477273,45.6618182 C10.7244318,45.6618182 10.3629261,45.5240341 10.0632102,45.2484659 C9.76349432,44.9728977 9.53409091,44.5709091 9.375,44.0425 C9.21590909,43.5140909 9.13636364,42.8720455 9.13636364,42.1163636 C9.13636364,40.9828409 9.31392045,40.1057102 9.66903409,39.4849716 C10.0241477,38.864233 10.5170455,38.5538636 11.1477273,38.5538636 C11.5681818,38.5538636 11.928267,38.6930682 12.227983,38.9714773 C12.5276989,39.2498864 12.7578125,39.6547159 12.9183239,40.1859659 C13.0788352,40.7172159 13.1590909,41.3606818 13.1590909,42.1163636 C13.1590909,43.2527273 12.9829545,44.1277273 12.6306818,44.7413636 C12.2784091,45.355 11.7840909,45.6618182 11.1477273,45.6618182 Z M18.6477273,46.5993182 C19.2897727,46.5993182 19.8366477,46.423892 20.2883523,46.0730398 C20.7400568,45.7221875 21.0852273,45.2122443 21.3238636,44.5432102 C21.5625,43.8741761 21.6818182,43.0652273 21.6818182,42.1163636 C21.6818182,41.1731818 21.5617898,40.3670739 21.321733,39.6980398 C21.0816761,39.0290057 20.7350852,38.517642 20.2819602,38.1639489 C19.8288352,37.8102557 19.2840909,37.6334091 18.6477273,37.6334091 C18.0113636,37.6334091 17.4666193,37.8102557 17.0134943,38.1639489 C16.5603693,38.517642 16.2137784,39.0290057 15.9737216,39.6980398 C15.7336648,40.3670739 15.6136364,41.1731818 15.6136364,42.1163636 C15.6136364,43.0652273 15.7329545,43.8741761 15.9715909,44.5432102 C16.2102273,45.2122443 16.5553977,45.7221875 17.0071023,46.0730398 C17.4588068,46.423892 18.0056818,46.5993182 18.6477273,46.5993182 Z M18.6477273,45.6618182 C18.2244318,45.6618182 17.8629261,45.5240341 17.5632102,45.2484659 C17.2634943,44.9728977 17.0340909,44.5709091 16.875,44.0425 C16.7159091,43.5140909 16.6363636,42.8720455 16.6363636,42.1163636 C16.6363636,40.9828409 16.8139205,40.1057102 17.1690341,39.4849716 C17.5241477,38.864233 18.0170455,38.5538636 18.6477273,38.5538636 C19.0681818,38.5538636 19.428267,38.6930682 19.727983,38.9714773 C20.0276989,39.2498864 20.2578125,39.6547159 20.4183239,40.1859659 C20.5788352,40.7172159 20.6590909,41.3606818 20.6590909,42.1163636 C20.6590909,43.2527273 20.4829545,44.1277273 20.1306818,44.7413636 C19.7784091,45.355 19.2840909,45.6618182 18.6477273,45.6618182 Z"></path>
                </g>
                <g id="700" transform="translate(307.200000, 0.000000)">
                    <path d="M4.52556818,25.28 L5.82,21.3 L12.122,21.3 L13.4147727,25.28 L17.3693182,25.28 L11.3522727,7.82545455 L6.59659091,7.82545455 L0.571022727,25.28 L4.52556818,25.28 Z M11.187,18.42 L6.757,18.42 L8.90625,11.8140909 L9.04261364,11.8140909 L11.187,18.42 Z M23.1306818,25.5271591 C23.7784091,25.5271591 24.3494318,25.4405114 24.84375,25.2672159 C25.3380682,25.0939205 25.7613636,24.8524432 26.1136364,24.5427841 C26.4659091,24.233125 26.7471591,23.87375 26.9573864,23.4646591 L26.9573864,23.4646591 L27.0596591,23.4646591 L27.0596591,25.28 L30.5028409,25.28 L30.5028409,16.4504545 C30.5028409,15.6720455 30.3522727,15.0030114 30.0511364,14.4433523 C29.75,13.8836932 29.3394886,13.4248864 28.8196023,13.0669318 C28.2997159,12.7089773 27.7059659,12.4447727 27.0383523,12.2743182 C26.3707386,12.1038636 25.6732955,12.0186364 24.9460227,12.0186364 C23.9005682,12.0186364 22.9815341,12.1763068 22.1889205,12.4916477 C21.3963068,12.8069886 20.75,13.2558523 20.25,13.8382386 C19.75,14.420625 19.4147727,15.1095455 19.2443182,15.905 L19.2443182,15.905 L22.6022727,16.1777273 C22.7272727,15.7459091 22.9829545,15.3865341 23.3693182,15.0996023 C23.7556818,14.8126705 24.2755682,14.6692045 24.9289773,14.6692045 C25.5482955,14.6692045 26.0269886,14.8169318 26.3650568,15.1123864 C26.703125,15.4078409 26.8721591,15.8254545 26.8721591,16.3652273 L26.8721591,16.3652273 L26.8721591,16.4163636 C26.8721591,16.6947727 26.7670455,16.905 26.5568182,17.0470455 C26.3465909,17.1890909 26.0085227,17.295625 25.5426136,17.3666477 C25.0767045,17.4376705 24.4630682,17.5129545 23.7017045,17.5925 C23.0539773,17.655 22.4360795,17.7629545 21.8480114,17.9163636 C21.2599432,18.0697727 20.7357955,18.2970455 20.2755682,18.5981818 C19.8153409,18.8993182 19.4517045,19.2970455 19.1846591,19.7913636 C18.9176136,20.2856818 18.7840909,20.8964773 18.7840909,21.62375 C18.7840909,22.4873864 18.9730114,23.2075568 19.3508523,23.7842614 C19.7286932,24.3609659 20.2443182,24.795625 20.8977273,25.0882386 C21.5511364,25.3808523 22.2954545,25.5271591 23.1306818,25.5271591 Z M24.1704545,23.0214773 C23.6136364,23.0214773 23.1548295,22.8922159 22.7940341,22.6336932 C22.4332386,22.3751705 22.2528409,21.99875 22.2528409,21.5044318 C22.2528409,21.1635227 22.3409091,20.8780114 22.5170455,20.6478977 C22.6931818,20.4177841 22.9403409,20.2345455 23.2585227,20.0981818 C23.5767045,19.9618182 23.9488636,19.8623864 24.375,19.7998864 C24.5738636,19.7714773 24.7954545,19.7388068 25.0397727,19.701875 C25.2840909,19.6649432 25.5284091,19.6223295 25.7727273,19.5740341 C26.0170455,19.5257386 26.2372159,19.4717614 26.4332386,19.4121023 C26.6292614,19.3524432 26.7840909,19.2856818 26.8977273,19.2118182 L26.8977273,19.2118182 L26.8977273,20.6010227 C26.8977273,21.06125 26.78125,21.4731818 26.5482955,21.8368182 C26.3153409,22.2004545 25.9943182,22.4888068 25.5852273,22.701875 C25.1761364,22.9149432 24.7045455,23.0214773 24.1704545,23.0214773 Z" id="Aa"></path>
                    <path d="M2.28409091,46.48 L6.17045455,38.7413636 L6.17045455,37.7527273 L0.579545455,37.7527273 L0.579545455,38.6902273 L5.07954545,38.6902273 L5.07954545,38.7584091 L1.17613636,46.48 L2.28409091,46.48 Z M10.4147727,46.5993182 C11.0568182,46.5993182 11.6036932,46.423892 12.0553977,46.0730398 C12.5071023,45.7221875 12.8522727,45.2122443 13.0909091,44.5432102 C13.3295455,43.8741761 13.4488636,43.0652273 13.4488636,42.1163636 C13.4488636,41.1731818 13.3288352,40.3670739 13.0887784,39.6980398 C12.8487216,39.0290057 12.5021307,38.517642 12.0490057,38.1639489 C11.5958807,37.8102557 11.0511364,37.6334091 10.4147727,37.6334091 C9.77840909,37.6334091 9.23366477,37.8102557 8.78053977,38.1639489 C8.32741477,38.517642 7.98082386,39.0290057 7.74076705,39.6980398 C7.50071023,40.3670739 7.38068182,41.1731818 7.38068182,42.1163636 C7.38068182,43.0652273 7.5,43.8741761 7.73863636,44.5432102 C7.97727273,45.2122443 8.32244318,45.7221875 8.77414773,46.0730398 C9.22585227,46.423892 9.77272727,46.5993182 10.4147727,46.5993182 Z M10.4147727,45.6618182 C9.99147727,45.6618182 9.62997159,45.5240341 9.33025568,45.2484659 C9.03053977,44.9728977 8.80113636,44.5709091 8.64204545,44.0425 C8.48295455,43.5140909 8.40340909,42.8720455 8.40340909,42.1163636 C8.40340909,40.9828409 8.58096591,40.1057102 8.93607955,39.4849716 C9.29119318,38.864233 9.78409091,38.5538636 10.4147727,38.5538636 C10.8352273,38.5538636 11.1953125,38.6930682 11.4950284,38.9714773 C11.7947443,39.2498864 12.024858,39.6547159 12.1853693,40.1859659 C12.3458807,40.7172159 12.4261364,41.3606818 12.4261364,42.1163636 C12.4261364,43.2527273 12.25,44.1277273 11.8977273,44.7413636 C11.5454545,45.355 11.0511364,45.6618182 10.4147727,45.6618182 Z M17.9147727,46.5993182 C18.5568182,46.5993182 19.1036932,46.423892 19.5553977,46.0730398 C20.0071023,45.7221875 20.3522727,45.2122443 20.5909091,44.5432102 C20.8295455,43.8741761 20.9488636,43.0652273 20.9488636,42.1163636 C20.9488636,41.1731818 20.8288352,40.3670739 20.5887784,39.6980398 C20.3487216,39.0290057 20.0021307,38.517642 19.5490057,38.1639489 C19.0958807,37.8102557 18.5511364,37.6334091 17.9147727,37.6334091 C17.2784091,37.6334091 16.7336648,37.8102557 16.2805398,38.1639489 C15.8274148,38.517642 15.4808239,39.0290057 15.240767,39.6980398 C15.0007102,40.3670739 14.8806818,41.1731818 14.8806818,42.1163636 C14.8806818,43.0652273 15,43.8741761 15.2386364,44.5432102 C15.4772727,45.2122443 15.8224432,45.7221875 16.2741477,46.0730398 C16.7258523,46.423892 17.2727273,46.5993182 17.9147727,46.5993182 Z M17.9147727,45.6618182 C17.4914773,45.6618182 17.1299716,45.5240341 16.8302557,45.2484659 C16.5305398,44.9728977 16.3011364,44.5709091 16.1420455,44.0425 C15.9829545,43.5140909 15.9034091,42.8720455 15.9034091,42.1163636 C15.9034091,40.9828409 16.0809659,40.1057102 16.4360795,39.4849716 C16.7911932,38.864233 17.2840909,38.5538636 17.9147727,38.5538636 C18.3352273,38.5538636 18.6953125,38.6930682 18.9950284,38.9714773 C19.2947443,39.2498864 19.524858,39.6547159 19.6853693,40.1859659 C19.8458807,40.7172159 19.9261364,41.3606818 19.9261364,42.1163636 C19.9261364,43.2527273 19.75,44.1277273 19.3977273,44.7413636 C19.0454545,45.355 18.5511364,45.6618182 17.9147727,45.6618182 Z"></path>
                </g>
                <g id="600" transform="translate(256.000000, 0.000000)">
                    <path d="M3.96306818,25.28 L5.406,20.977 L11.968,20.977 L13.4147727,25.28 L16.7897727,25.28 L10.6363636,7.82545455 L6.73295455,7.82545455 L0.588068182,25.28 L3.96306818,25.28 Z M11.115,18.437 L6.258,18.437 L8.61647727,11.405 L8.75284091,11.405 L11.115,18.437 Z M22.7215909,25.5442045 C23.4034091,25.5442045 23.9985795,25.4490341 24.5071023,25.2586932 C25.015625,25.0683523 25.4389205,24.8155114 25.7769886,24.5001705 C26.1150568,24.1848295 26.3778409,23.8453409 26.5653409,23.4817045 L26.5653409,23.4817045 L26.6676136,23.4817045 L26.6676136,25.28 L29.6335227,25.28 L29.6335227,16.5186364 C29.6335227,15.6493182 29.4758523,14.9248864 29.1605114,14.3453409 C28.8451705,13.7657955 28.4289773,13.3069886 27.9119318,12.9689205 C27.3948864,12.6308523 26.8238636,12.3879545 26.1988636,12.2402273 C25.5738636,12.0925 24.9460227,12.0186364 24.3153409,12.0186364 C23.4005682,12.0186364 22.5653409,12.1535795 21.8096591,12.4234659 C21.0539773,12.6933523 20.4147727,13.0967614 19.8920455,13.6336932 C19.3693182,14.170625 18.9943182,14.8368182 18.7670455,15.6322727 L18.7670455,15.6322727 L21.6477273,16.0413636 C21.8011364,15.5925 22.0980114,15.2032955 22.5383523,14.87375 C22.9786932,14.5442045 23.5767045,14.3794318 24.3323864,14.3794318 C25.0482955,14.3794318 25.5965909,14.5555682 25.9772727,14.9078409 C26.3579545,15.2601136 26.5482955,15.7572727 26.5482955,16.3993182 L26.5482955,16.3993182 L26.5482955,16.4504545 C26.5482955,16.7459091 26.4389205,16.9632386 26.2201705,17.1024432 C26.0014205,17.2416477 25.6534091,17.3439205 25.1761364,17.4092614 C24.6988636,17.4746023 24.0767045,17.5470455 23.3096591,17.6265909 C22.6732955,17.6947727 22.0582386,17.8041477 21.4644886,17.9547159 C20.8707386,18.1052841 20.3380682,18.3254545 19.8664773,18.6152273 C19.3948864,18.905 19.0227273,19.2913636 18.75,19.7743182 C18.4772727,20.2572727 18.3409091,20.8680682 18.3409091,21.6067045 C18.3409091,22.4646591 18.5326705,23.18625 18.9161932,23.7714773 C19.2997159,24.3567045 19.8224432,24.7984659 20.484375,25.0967614 C21.1463068,25.3950568 21.8920455,25.5442045 22.7215909,25.5442045 Z M23.5227273,23.2771591 C22.8806818,23.2771591 22.3522727,23.1322727 21.9375,22.8425 C21.5227273,22.5527273 21.3153409,22.12375 21.3153409,21.5555682 C21.3153409,21.1578409 21.4204545,20.8325568 21.6306818,20.5797159 C21.8409091,20.326875 22.1278409,20.1294318 22.4914773,19.9873864 C22.8551136,19.8453409 23.2670455,19.7430682 23.7272727,19.6805682 C23.9318182,19.6521591 24.1732955,19.6180682 24.4517045,19.5782955 C24.7301136,19.5385227 25.0113636,19.4930682 25.2954545,19.4419318 C25.5795455,19.3907955 25.8366477,19.3311364 26.0667614,19.2629545 C26.296875,19.1947727 26.4602273,19.1209091 26.5568182,19.0413636 L26.5568182,19.0413636 L26.5568182,20.5839773 C26.5568182,21.0669318 26.4332386,21.5129545 26.1860795,21.9220455 C25.9389205,22.3311364 25.5880682,22.6592614 25.1335227,22.9064205 C24.6789773,23.1535795 24.1420455,23.2771591 23.5227273,23.2771591 Z" id="Aa"></path>
                    <path d="M3.80113636,46.5993182 C4.38920455,46.605 4.90127841,46.4764489 5.33735795,46.2136648 C5.7734375,45.9508807 6.11221591,45.595767 6.35369318,45.1483239 C6.59517045,44.7008807 6.71590909,44.2072727 6.71590909,43.6675 C6.71590909,43.105 6.59090909,42.6057102 6.34090909,42.1696307 C6.09090909,41.7335511 5.75852273,41.3912216 5.34375,41.142642 C4.92897727,40.8940625 4.47159091,40.7697727 3.97159091,40.7697727 C3.67329545,40.7697727 3.390625,40.8166477 3.12357955,40.9103977 C2.85653409,41.0041477 2.61292614,41.1369602 2.39275568,41.3088352 C2.17258523,41.4807102 1.98295455,41.6873864 1.82386364,41.9288636 L1.82386364,41.9288636 L1.75568182,41.9288636 C1.75852273,40.8578409 1.95383523,40.0275852 2.34161932,39.4380966 C2.72940341,38.848608 3.26136364,38.5538636 3.9375,38.5538636 C4.39772727,38.5538636 4.76704545,38.6838352 5.04545455,38.9437784 C5.32386364,39.2037216 5.51136364,39.5339773 5.60795455,39.9345455 L5.60795455,39.9345455 L6.64772727,39.9345455 C6.57670455,39.4771591 6.42045455,39.0744602 6.17897727,38.7264489 C5.9375,38.3784375 5.62571023,38.1064205 5.24360795,37.9103977 C4.86150568,37.714375 4.42613636,37.6163636 3.9375,37.6163636 C3.44602273,37.6163636 3.00497159,37.7228977 2.61434659,37.9359659 C2.22372159,38.1490341 1.890625,38.4615341 1.61505682,38.8734659 C1.33948864,39.2853977 1.12926136,39.7917898 0.984375,40.392642 C0.839488636,40.9934943 0.767045455,41.6817045 0.767045455,42.4572727 C0.767045455,43.2640909 0.856534091,43.9338352 1.03551136,44.4665057 C1.21448864,44.9991761 1.45170455,45.4210511 1.74715909,45.7321307 C2.04261364,46.0432102 2.36931818,46.2640909 2.72727273,46.3947727 C3.08522727,46.5254545 3.44318182,46.5936364 3.80113636,46.5993182 Z M3.80113636,45.6618182 C3.4375,45.6618182 3.11292614,45.5694886 2.82741477,45.3848295 C2.54190341,45.2001705 2.31747159,44.9572727 2.15411932,44.6561364 C1.99076705,44.355 1.90909091,44.0311364 1.90909091,43.6845455 C1.90909091,43.4231818 1.95880682,43.173892 2.05823864,42.9366761 C2.15767045,42.6994602 2.29474432,42.4885227 2.46946023,42.3038636 C2.64417614,42.1192045 2.84801136,41.973608 3.08096591,41.8670739 C3.31392045,41.7605398 3.56534091,41.7072727 3.83522727,41.7072727 C4.19318182,41.7072727 4.51207386,41.7953409 4.79190341,41.9714773 C5.07173295,42.1476136 5.29190341,42.3841193 5.45241477,42.6809943 C5.61292614,42.9778693 5.69318182,43.3067045 5.69318182,43.6675 C5.69318182,44.0368182 5.61008523,44.3720455 5.44389205,44.6731818 C5.27769886,44.9743182 5.05184659,45.214375 4.76633523,45.3933523 C4.48082386,45.5723295 4.15909091,45.6618182 3.80113636,45.6618182 Z M11.2329545,46.5993182 C11.875,46.5993182 12.421875,46.423892 12.8735795,46.0730398 C13.3252841,45.7221875 13.6704545,45.2122443 13.9090909,44.5432102 C14.1477273,43.8741761 14.2670455,43.0652273 14.2670455,42.1163636 C14.2670455,41.1731818 14.147017,40.3670739 13.9069602,39.6980398 C13.6669034,39.0290057 13.3203125,38.517642 12.8671875,38.1639489 C12.4140625,37.8102557 11.8693182,37.6334091 11.2329545,37.6334091 C10.5965909,37.6334091 10.0518466,37.8102557 9.59872159,38.1639489 C9.14559659,38.517642 8.79900568,39.0290057 8.55894886,39.6980398 C8.31889205,40.3670739 8.19886364,41.1731818 8.19886364,42.1163636 C8.19886364,43.0652273 8.31818182,43.8741761 8.55681818,44.5432102 C8.79545455,45.2122443 9.140625,45.7221875 9.59232955,46.0730398 C10.0440341,46.423892 10.5909091,46.5993182 11.2329545,46.5993182 Z M11.2329545,45.6618182 C10.8096591,45.6618182 10.4481534,45.5240341 10.1484375,45.2484659 C9.84872159,44.9728977 9.61931818,44.5709091 9.46022727,44.0425 C9.30113636,43.5140909 9.22159091,42.8720455 9.22159091,42.1163636 C9.22159091,40.9828409 9.39914773,40.1057102 9.75426136,39.4849716 C10.109375,38.864233 10.6022727,38.5538636 11.2329545,38.5538636 C11.6534091,38.5538636 12.0134943,38.6930682 12.3132102,38.9714773 C12.6129261,39.2498864 12.8430398,39.6547159 13.0035511,40.1859659 C13.1640625,40.7172159 13.2443182,41.3606818 13.2443182,42.1163636 C13.2443182,43.2527273 13.0681818,44.1277273 12.7159091,44.7413636 C12.3636364,45.355 11.8693182,45.6618182 11.2329545,45.6618182 Z M18.7329545,46.5993182 C19.375,46.5993182 19.921875,46.423892 20.3735795,46.0730398 C20.8252841,45.7221875 21.1704545,45.2122443 21.4090909,44.5432102 C21.6477273,43.8741761 21.7670455,43.0652273 21.7670455,42.1163636 C21.7670455,41.1731818 21.647017,40.3670739 21.4069602,39.6980398 C21.1669034,39.0290057 20.8203125,38.517642 20.3671875,38.1639489 C19.9140625,37.8102557 19.3693182,37.6334091 18.7329545,37.6334091 C18.0965909,37.6334091 17.5518466,37.8102557 17.0987216,38.1639489 C16.6455966,38.517642 16.2990057,39.0290057 16.0589489,39.6980398 C15.818892,40.3670739 15.6988636,41.1731818 15.6988636,42.1163636 C15.6988636,43.0652273 15.8181818,43.8741761 16.0568182,44.5432102 C16.2954545,45.2122443 16.640625,45.7221875 17.0923295,46.0730398 C17.5440341,46.423892 18.0909091,46.5993182 18.7329545,46.5993182 Z M18.7329545,45.6618182 C18.3096591,45.6618182 17.9481534,45.5240341 17.6484375,45.2484659 C17.3487216,44.9728977 17.1193182,44.5709091 16.9602273,44.0425 C16.8011364,43.5140909 16.7215909,42.8720455 16.7215909,42.1163636 C16.7215909,40.9828409 16.8991477,40.1057102 17.2542614,39.4849716 C17.609375,38.864233 18.1022727,38.5538636 18.7329545,38.5538636 C19.1534091,38.5538636 19.5134943,38.6930682 19.8132102,38.9714773 C20.1129261,39.2498864 20.3430398,39.6547159 20.5035511,40.1859659 C20.6640625,40.7172159 20.7443182,41.3606818 20.7443182,42.1163636 C20.7443182,43.2527273 20.5681818,44.1277273 20.2159091,44.7413636 C19.8636364,45.355 19.3693182,45.6618182 18.7329545,45.6618182 Z"></path>
                </g>
                <g id="500" transform="translate(204.800000, 0.000000)">
                    <path d="M3.39204545,25.28 L4.99,20.661 L11.81,20.661 L13.40625,25.28 L16.2017045,25.28 L9.92045455,7.82545455 L6.87784091,7.82545455 L0.596590909,25.28 L3.39204545,25.28 Z M11.045,18.445 L5.757,18.445 L8.33522727,10.9959091 L8.47159091,10.9959091 L11.045,18.445 Z M22.3210227,25.5697727 C23.0426136,25.5697727 23.6619318,25.4646591 24.1789773,25.2544318 C24.6960227,25.0442045 25.1193182,24.78 25.4488636,24.4618182 C25.7784091,24.1436364 26.0255682,23.8197727 26.1903409,23.4902273 L26.1903409,23.4902273 L26.2926136,23.4902273 L26.2926136,25.28 L28.78125,25.28 L28.78125,16.5868182 C28.78125,15.6322727 28.6164773,14.8552841 28.2869318,14.2558523 C27.9573864,13.6564205 27.5355114,13.1947727 27.0213068,12.8709091 C26.5071023,12.5470455 25.9559659,12.3240341 25.3678977,12.201875 C24.7798295,12.0797159 24.2244318,12.0186364 23.7017045,12.0186364 C22.9119318,12.0186364 22.1590909,12.1308523 21.4431818,12.3552841 C20.7272727,12.5797159 20.0951705,12.9376705 19.546875,13.4291477 C18.9985795,13.920625 18.5823864,14.5640909 18.2982955,15.3595455 L18.2982955,15.3595455 L20.6931818,15.905 C20.8806818,15.4447727 21.2201705,15.0257386 21.7116477,14.6478977 C22.203125,14.2700568 22.8778409,14.0811364 23.7357955,14.0811364 C24.5596591,14.0811364 25.1803977,14.2856818 25.5980114,14.6947727 C26.015625,15.1038636 26.2244318,15.6805682 26.2244318,16.4248864 L26.2244318,16.4248864 L26.2244318,16.4845455 C26.2244318,16.7913636 26.1136364,17.0129545 25.8920455,17.1493182 C25.6704545,17.2856818 25.3153409,17.3836932 24.8267045,17.4433523 C24.3380682,17.5030114 23.7017045,17.5782955 22.9176136,17.6692045 C22.2982955,17.7430682 21.6903409,17.8510227 21.09375,17.9930682 C20.4971591,18.1351136 19.9573864,18.3453409 19.4744318,18.62375 C18.9914773,18.9021591 18.6079545,19.28 18.3238636,19.7572727 C18.0397727,20.2345455 17.8977273,20.8425 17.8977273,21.5811364 C17.8977273,22.4390909 18.0923295,23.1635227 18.4815341,23.7544318 C18.8707386,24.3453409 19.4005682,24.795625 20.0710227,25.1052841 C20.7414773,25.4149432 21.4914773,25.5697727 22.3210227,25.5697727 Z M22.875,23.5243182 C22.1534091,23.5243182 21.5596591,23.3638068 21.09375,23.0427841 C20.6278409,22.7217614 20.3948864,22.2459091 20.3948864,21.6152273 C20.3948864,21.1606818 20.515625,20.795625 20.7571023,20.5200568 C20.9985795,20.2444886 21.3224432,20.0328409 21.7286932,19.8851136 C22.1349432,19.7373864 22.5852273,19.6322727 23.0795455,19.5697727 C23.2897727,19.5413636 23.5511364,19.5058523 23.8636364,19.4632386 C24.1761364,19.420625 24.4971591,19.3723295 24.8267045,19.3183523 C25.15625,19.264375 25.4502841,19.1990341 25.7088068,19.1223295 C25.9673295,19.045625 26.1420455,18.9618182 26.2329545,18.8709091 L26.2329545,18.8709091 L26.2329545,20.5584091 C26.2329545,21.0754545 26.1008523,21.5598295 25.8366477,22.0115341 C25.5724432,22.4632386 25.1889205,22.8282955 24.6860795,23.1067045 C24.1832386,23.3851136 23.5795455,23.5243182 22.875,23.5243182 Z" id="Aa"></path>
                    <path d="M3.63068182,46.5993182 C4.18465909,46.5993182 4.67897727,46.473608 5.11363636,46.2221875 C5.54829545,45.970767 5.88991477,45.627017 6.13849432,45.1909375 C6.38707386,44.754858 6.51136364,44.2584091 6.51136364,43.7015909 C6.51136364,43.13625 6.39133523,42.6334091 6.15127841,42.1930682 C5.91122159,41.7527273 5.58167614,41.4054261 5.16264205,41.1511648 C4.74360795,40.8969034 4.26704545,40.7697727 3.73295455,40.7697727 C3.44034091,40.7697727 3.15909091,40.8166477 2.88920455,40.9103977 C2.61931818,41.0041477 2.39488636,41.1220455 2.21590909,41.2640909 L2.21590909,41.2640909 L2.16477273,41.2640909 L2.47159091,38.6902273 L6.11931818,38.6902273 L6.11931818,37.7527273 L1.58522727,37.7527273 L1.05681818,42.0481818 L2.04545455,42.1675 C2.22727273,42.0368182 2.45880682,41.9295739 2.74005682,41.845767 C3.02130682,41.7619602 3.29545455,41.7214773 3.5625,41.7243182 C3.93465909,41.7271591 4.265625,41.8152273 4.55539773,41.9885227 C4.84517045,42.1618182 5.07315341,42.3983239 5.23934659,42.6980398 C5.40553977,42.9977557 5.48863636,43.3379545 5.48863636,43.7186364 C5.48863636,44.0907955 5.40838068,44.423892 5.24786932,44.7179261 C5.08735795,45.0119602 4.8671875,45.2427841 4.58735795,45.4103977 C4.30752841,45.5780114 3.98863636,45.6618182 3.63068182,45.6618182 C3.18465909,45.6618182 2.80184659,45.533267 2.48224432,45.2761648 C2.16264205,45.0190625 1.98295455,44.6930682 1.94318182,44.2981818 L1.94318182,44.2981818 L0.920454545,44.2981818 C0.943181818,44.7413636 1.07528409,45.13625 1.31676136,45.4828409 C1.55823864,45.8294318 1.87926136,46.1021591 2.27982955,46.3010227 C2.68039773,46.4998864 3.13068182,46.5993182 3.63068182,46.5993182 Z M11.0454545,46.5993182 C11.6875,46.5993182 12.234375,46.423892 12.6860795,46.0730398 C13.1377841,45.7221875 13.4829545,45.2122443 13.7215909,44.5432102 C13.9602273,43.8741761 14.0795455,43.0652273 14.0795455,42.1163636 C14.0795455,41.1731818 13.959517,40.3670739 13.7194602,39.6980398 C13.4794034,39.0290057 13.1328125,38.517642 12.6796875,38.1639489 C12.2265625,37.8102557 11.6818182,37.6334091 11.0454545,37.6334091 C10.4090909,37.6334091 9.86434659,37.8102557 9.41122159,38.1639489 C8.95809659,38.517642 8.61150568,39.0290057 8.37144886,39.6980398 C8.13139205,40.3670739 8.01136364,41.1731818 8.01136364,42.1163636 C8.01136364,43.0652273 8.13068182,43.8741761 8.36931818,44.5432102 C8.60795455,45.2122443 8.953125,45.7221875 9.40482955,46.0730398 C9.85653409,46.423892 10.4034091,46.5993182 11.0454545,46.5993182 Z M11.0454545,45.6618182 C10.6221591,45.6618182 10.2606534,45.5240341 9.9609375,45.2484659 C9.66122159,44.9728977 9.43181818,44.5709091 9.27272727,44.0425 C9.11363636,43.5140909 9.03409091,42.8720455 9.03409091,42.1163636 C9.03409091,40.9828409 9.21164773,40.1057102 9.56676136,39.4849716 C9.921875,38.864233 10.4147727,38.5538636 11.0454545,38.5538636 C11.4659091,38.5538636 11.8259943,38.6930682 12.1257102,38.9714773 C12.4254261,39.2498864 12.6555398,39.6547159 12.8160511,40.1859659 C12.9765625,40.7172159 13.0568182,41.3606818 13.0568182,42.1163636 C13.0568182,43.2527273 12.8806818,44.1277273 12.5284091,44.7413636 C12.1761364,45.355 11.6818182,45.6618182 11.0454545,45.6618182 Z M18.5454545,46.5993182 C19.1875,46.5993182 19.734375,46.423892 20.1860795,46.0730398 C20.6377841,45.7221875 20.9829545,45.2122443 21.2215909,44.5432102 C21.4602273,43.8741761 21.5795455,43.0652273 21.5795455,42.1163636 C21.5795455,41.1731818 21.459517,40.3670739 21.2194602,39.6980398 C20.9794034,39.0290057 20.6328125,38.517642 20.1796875,38.1639489 C19.7265625,37.8102557 19.1818182,37.6334091 18.5454545,37.6334091 C17.9090909,37.6334091 17.3643466,37.8102557 16.9112216,38.1639489 C16.4580966,38.517642 16.1115057,39.0290057 15.8714489,39.6980398 C15.631392,40.3670739 15.5113636,41.1731818 15.5113636,42.1163636 C15.5113636,43.0652273 15.6306818,43.8741761 15.8693182,44.5432102 C16.1079545,45.2122443 16.453125,45.7221875 16.9048295,46.0730398 C17.3565341,46.423892 17.9034091,46.5993182 18.5454545,46.5993182 Z M18.5454545,45.6618182 C18.1221591,45.6618182 17.7606534,45.5240341 17.4609375,45.2484659 C17.1612216,44.9728977 16.9318182,44.5709091 16.7727273,44.0425 C16.6136364,43.5140909 16.5340909,42.8720455 16.5340909,42.1163636 C16.5340909,40.9828409 16.7116477,40.1057102 17.0667614,39.4849716 C17.421875,38.864233 17.9147727,38.5538636 18.5454545,38.5538636 C18.9659091,38.5538636 19.3259943,38.6930682 19.6257102,38.9714773 C19.9254261,39.2498864 20.1555398,39.6547159 20.3160511,40.1859659 C20.4765625,40.7172159 20.5568182,41.3606818 20.5568182,42.1163636 C20.5568182,43.2527273 20.3806818,44.1277273 20.0284091,44.7413636 C19.6761364,45.355 19.1818182,45.6618182 18.5454545,45.6618182 Z"></path>
                </g>
                <g id="400" transform="translate(153.600000, 0.000000)">
                    <path d="M2.82954545,25.28 L4.584,20.337 L11.642,20.337 L13.3977273,25.28 L15.6136364,25.28 L9.20454545,7.82545455 L7.02272727,7.82545455 L0.613636364,25.28 L2.82954545,25.28 Z M10.977,18.462 L5.249,18.462 L8.04545455,10.5868182 L8.18181818,10.5868182 L10.977,18.462 Z M21.9204545,25.5868182 C22.6818182,25.5868182 23.3267045,25.4731818 23.8551136,25.2459091 C24.3835227,25.0186364 24.8068182,24.7430682 25.125,24.4192045 C25.4431818,24.0953409 25.6704545,23.7913636 25.8068182,23.5072727 L25.8068182,23.5072727 L25.9090909,23.5072727 L25.9090909,25.28 L27.9204545,25.28 L27.9204545,16.655 C27.9204545,15.6152273 27.75,14.7856818 27.4090909,14.1663636 C27.0681818,13.5470455 26.640625,13.0839773 26.1264205,12.7771591 C25.6122159,12.4703409 25.0809659,12.2672159 24.5326705,12.1677841 C23.984375,12.0683523 23.5,12.0186364 23.0795455,12.0186364 C22.4204545,12.0186364 21.7514205,12.108125 21.0724432,12.2871023 C20.3934659,12.4660795 19.7684659,12.7785795 19.1974432,13.2246023 C18.6264205,13.670625 18.1704545,14.2913636 17.8295455,15.0868182 L17.8295455,15.0868182 L19.7386364,15.7686364 C19.9602273,15.2913636 20.34375,14.8425 20.8892045,14.4220455 C21.4346591,14.0015909 22.1875,13.7913636 23.1477273,13.7913636 C24.0738636,13.7913636 24.765625,14.0243182 25.2230114,14.4902273 C25.6803977,14.9561364 25.9090909,15.6095455 25.9090909,16.4504545 L25.9090909,16.4504545 L25.9090909,16.5186364 C25.9090909,16.8425 25.7940341,17.0697727 25.5639205,17.2004545 C25.3338068,17.3311364 24.9701705,17.4234659 24.4730114,17.4774432 C23.9758523,17.5314205 23.3295455,17.6095455 22.5340909,17.7118182 C21.9261364,17.7913636 21.3224432,17.8978977 20.7230114,18.0314205 C20.1235795,18.1649432 19.5767045,18.3652273 19.0823864,18.6322727 C18.5880682,18.8993182 18.1931818,19.2672159 17.8977273,19.7359659 C17.6022727,20.2047159 17.4545455,20.8140909 17.4545455,21.5640909 C17.4545455,22.4163636 17.6534091,23.1422159 18.0511364,23.7416477 C18.4488636,24.3410795 18.9857955,24.7984659 19.6619318,25.1138068 C20.3380682,25.4291477 21.0909091,25.5868182 21.9204545,25.5868182 Z M22.2272727,23.78 C21.4261364,23.78 20.765625,23.6024432 20.2457386,23.2473295 C19.7258523,22.8922159 19.4659091,22.3652273 19.4659091,21.6663636 C19.4659091,21.155 19.6036932,20.7501705 19.8792614,20.451875 C20.1548295,20.1535795 20.5184659,19.9291477 20.9701705,19.7785795 C21.421875,19.6280114 21.9090909,19.5186364 22.4318182,19.4504545 C22.6477273,19.4220455 22.9303977,19.3865341 23.2798295,19.3439205 C23.6292614,19.3013068 23.9900568,19.2501705 24.3622159,19.1905114 C24.734375,19.1308523 25.0639205,19.0598295 25.3508523,18.9774432 C25.6377841,18.8950568 25.8238636,18.8027273 25.9090909,18.7004545 L25.9090909,18.7004545 L25.9090909,20.5413636 C25.9090909,21.0868182 25.7684659,21.6067045 25.4872159,22.1010227 C25.2059659,22.5953409 24.7911932,22.99875 24.2428977,23.31125 C23.6946023,23.62375 23.0227273,23.78 22.2272727,23.78 Z" id="Aa"></path>
                    <path d="M4.53409091,37.7527273 L0.698863636,43.8209091 L0.698863636,44.6902273 L4.806,44.691 L4.80681818,46.48 L5.8125,46.48 L5.812,44.691 L7.00568182,44.6902273 L7.00568182,43.7527273 L5.812,43.753 L5.8125,37.7527273 L4.80681818,37.7527273 L4.53409091,37.7527273 Z M4.806,39.1 L4.806,43.753 L1.84090909,43.7527273 L1.84090909,43.6845455 L4.73863636,39.0993182 L4.806,39.1 Z M11.4545455,46.5993182 C12.0965909,46.5993182 12.6434659,46.423892 13.0951705,46.0730398 C13.546875,45.7221875 13.8920455,45.2122443 14.1306818,44.5432102 C14.3693182,43.8741761 14.4886364,43.0652273 14.4886364,42.1163636 C14.4886364,41.1731818 14.368608,40.3670739 14.1285511,39.6980398 C13.8884943,39.0290057 13.5419034,38.517642 13.0887784,38.1639489 C12.6356534,37.8102557 12.0909091,37.6334091 11.4545455,37.6334091 C10.8181818,37.6334091 10.2734375,37.8102557 9.8203125,38.1639489 C9.3671875,38.517642 9.02059659,39.0290057 8.78053977,39.6980398 C8.54048295,40.3670739 8.42045455,41.1731818 8.42045455,42.1163636 C8.42045455,43.0652273 8.53977273,43.8741761 8.77840909,44.5432102 C9.01704545,45.2122443 9.36221591,45.7221875 9.81392045,46.0730398 C10.265625,46.423892 10.8125,46.5993182 11.4545455,46.5993182 Z M11.4545455,45.6618182 C11.03125,45.6618182 10.6697443,45.5240341 10.3700284,45.2484659 C10.0703125,44.9728977 9.84090909,44.5709091 9.68181818,44.0425 C9.52272727,43.5140909 9.44318182,42.8720455 9.44318182,42.1163636 C9.44318182,40.9828409 9.62073864,40.1057102 9.97585227,39.4849716 C10.3309659,38.864233 10.8238636,38.5538636 11.4545455,38.5538636 C11.875,38.5538636 12.2350852,38.6930682 12.5348011,38.9714773 C12.834517,39.2498864 13.0646307,39.6547159 13.225142,40.1859659 C13.3856534,40.7172159 13.4659091,41.3606818 13.4659091,42.1163636 C13.4659091,43.2527273 13.2897727,44.1277273 12.9375,44.7413636 C12.5852273,45.355 12.0909091,45.6618182 11.4545455,45.6618182 Z M18.9545455,46.5993182 C19.5965909,46.5993182 20.1434659,46.423892 20.5951705,46.0730398 C21.046875,45.7221875 21.3920455,45.2122443 21.6306818,44.5432102 C21.8693182,43.8741761 21.9886364,43.0652273 21.9886364,42.1163636 C21.9886364,41.1731818 21.868608,40.3670739 21.6285511,39.6980398 C21.3884943,39.0290057 21.0419034,38.517642 20.5887784,38.1639489 C20.1356534,37.8102557 19.5909091,37.6334091 18.9545455,37.6334091 C18.3181818,37.6334091 17.7734375,37.8102557 17.3203125,38.1639489 C16.8671875,38.517642 16.5205966,39.0290057 16.2805398,39.6980398 C16.040483,40.3670739 15.9204545,41.1731818 15.9204545,42.1163636 C15.9204545,43.0652273 16.0397727,43.8741761 16.2784091,44.5432102 C16.5170455,45.2122443 16.8622159,45.7221875 17.3139205,46.0730398 C17.765625,46.423892 18.3125,46.5993182 18.9545455,46.5993182 Z M18.9545455,45.6618182 C18.53125,45.6618182 18.1697443,45.5240341 17.8700284,45.2484659 C17.5703125,44.9728977 17.3409091,44.5709091 17.1818182,44.0425 C17.0227273,43.5140909 16.9431818,42.8720455 16.9431818,42.1163636 C16.9431818,40.9828409 17.1207386,40.1057102 17.4758523,39.4849716 C17.8309659,38.864233 18.3238636,38.5538636 18.9545455,38.5538636 C19.375,38.5538636 19.7350852,38.6930682 20.0348011,38.9714773 C20.334517,39.2498864 20.5646307,39.6547159 20.725142,40.1859659 C20.8856534,40.7172159 20.9659091,41.3606818 20.9659091,42.1163636 C20.9659091,43.2527273 20.7897727,44.1277273 20.4375,44.7413636 C20.0852273,45.355 19.5909091,45.6618182 18.9545455,45.6618182 Z"></path>
                </g>
                <g id="300" transform="translate(102.400000, 0.000000)">
                    <path d="M2.34375,25.28 L4.213,20.022 L11.536,20.022 L13.40625,25.28 L15.0767045,25.28 L8.72727273,7.82545455 L7.02272727,7.82545455 L0.673295455,25.28 L2.34375,25.28 Z M11.026,18.59 L4.723,18.59 L7.81534091,9.89647727 L7.93465909,9.89647727 L11.026,18.59 Z M21.4090909,25.5782955 C22.1363636,25.5782955 22.7698864,25.4618182 23.3096591,25.2288636 C23.8494318,24.9959091 24.2982955,24.6976136 24.65625,24.3339773 C25.0142045,23.9703409 25.2840909,23.5953409 25.4659091,23.2089773 L25.4659091,23.2089773 L25.5596591,23.2089773 L25.5596591,25.28 L27.0767045,25.28 L27.0767045,16.3907955 C27.0767045,15.5157955 26.9318182,14.7927841 26.6420455,14.2217614 C26.3522727,13.6507386 25.9744318,13.2047159 25.5085227,12.8836932 C25.0426136,12.5626705 24.5383523,12.3368182 23.9957386,12.2061364 C23.453125,12.0754545 22.9318182,12.0101136 22.4318182,12.0101136 C21.7670455,12.0101136 21.1107955,12.1052841 20.4630682,12.295625 C19.8153409,12.4859659 19.2301136,12.795625 18.7073864,13.2246023 C18.1846591,13.6535795 17.7755682,14.2260227 17.4801136,14.9419318 L17.4801136,14.9419318 L18.9204545,15.4618182 C19.1590909,14.8993182 19.5752841,14.4106818 20.1690341,13.9959091 C20.7627841,13.5811364 21.53125,13.37375 22.4744318,13.37375 C23.46875,13.37375 24.2315341,13.6308523 24.7627841,14.1450568 C25.2940341,14.6592614 25.5596591,15.3623864 25.5596591,16.2544318 L25.5596591,16.2544318 L25.5596591,16.56125 C25.5596591,16.8907955 25.4261364,17.1294318 25.1590909,17.2771591 C24.8920455,17.4248864 24.5042614,17.5328409 23.9957386,17.6010227 C23.4872159,17.6692045 22.8664773,17.74875 22.1335227,17.8396591 C21.3948864,17.9305682 20.71875,18.0584091 20.1051136,18.2231818 C19.4914773,18.3879545 18.9602273,18.6123864 18.5113636,18.8964773 C18.0625,19.1805682 17.7159091,19.5442045 17.4715909,19.9873864 C17.2272727,20.4305682 17.1051136,20.9760227 17.1051136,21.62375 C17.1051136,22.4646591 17.2982955,23.1791477 17.6846591,23.7672159 C18.0710227,24.3552841 18.5909091,24.8041477 19.2443182,25.1138068 C19.8977273,25.4234659 20.6193182,25.5782955 21.4090909,25.5782955 Z M21.6136364,24.1890909 C20.7556818,24.1890909 20.0426136,23.9717614 19.4744318,23.5371023 C18.90625,23.1024432 18.6221591,22.4873864 18.6221591,21.6919318 C18.6221591,21.1635227 18.7613636,20.7302841 19.0397727,20.3922159 C19.3181818,20.0541477 19.71875,19.7885227 20.2414773,19.5953409 C20.7642045,19.4021591 21.3948864,19.2601136 22.1335227,19.1692045 C22.40625,19.1351136 22.7130682,19.0953409 23.0539773,19.0498864 C23.3948864,19.0044318 23.7372159,18.9490341 24.0809659,18.8836932 C24.4247159,18.8183523 24.7286932,18.7430682 24.9928977,18.6578409 C25.2571023,18.5726136 25.4460227,18.4760227 25.5596591,18.3680682 L25.5596591,18.3680682 L25.5596591,20.2601136 C25.5596591,20.9760227 25.3991477,21.6308523 25.078125,22.2246023 C24.7571023,22.8183523 24.3011364,23.2942045 23.7102273,23.6521591 C23.1193182,24.0101136 22.4204545,24.1890909 21.6136364,24.1890909 Z" id="Aa"></path>
                    <path d="M3.85227273,46.5993182 C4.41761364,46.5993182 4.921875,46.4913636 5.36505682,46.2754545 C5.80823864,46.0595455 6.15838068,45.7633807 6.41548295,45.3869602 C6.67258523,45.0105398 6.80113636,44.5851136 6.80113636,44.1106818 C6.80113636,43.5567045 6.64630682,43.0915057 6.33664773,42.7150852 C6.02698864,42.3386648 5.59659091,42.105 5.04545455,42.0140909 L5.04545455,42.0140909 L5.04545455,41.9459091 C5.48579545,41.8123864 5.83451705,41.5723295 6.09161932,41.2257386 C6.34872159,40.8791477 6.47727273,40.4601136 6.47727273,39.9686364 C6.47727273,39.5567045 6.37357955,39.1731818 6.16619318,38.8180682 C5.95880682,38.4629545 5.66193182,38.176733 5.27556818,37.9594034 C4.88920455,37.7420739 4.42613636,37.6334091 3.88636364,37.6334091 C3.38352273,37.6334091 2.92258523,37.73 2.50355114,37.9231818 C2.08451705,38.1163636 1.74573864,38.3855398 1.48721591,38.7307102 C1.22869318,39.0758807 1.09090909,39.4771591 1.07386364,39.9345455 L1.07386364,39.9345455 L2.09659091,39.9345455 C2.11079545,39.6447727 2.20170455,39.3969034 2.36931818,39.1909375 C2.53693182,38.9849716 2.75355114,38.8273011 3.01917614,38.7179261 C3.28480114,38.6085511 3.56818182,38.5538636 3.86931818,38.5538636 C4.19034091,38.5538636 4.46946023,38.6149432 4.70667614,38.7371023 C4.94389205,38.8592614 5.12784091,39.0297159 5.25852273,39.2484659 C5.38920455,39.4672159 5.45454545,39.7243182 5.45454545,40.0197727 C5.45454545,40.3265909 5.37997159,40.5936364 5.23082386,40.8209091 C5.08167614,41.0481818 4.87571023,41.2243182 4.61292614,41.3493182 C4.35014205,41.4743182 4.04545455,41.5368182 3.69886364,41.5368182 L3.69886364,41.5368182 L3,41.5368182 L3,42.4743182 L3.69886364,42.4743182 C4.14204545,42.4743182 4.51704545,42.5439205 4.82386364,42.683125 C5.13068182,42.8223295 5.36363636,43.0148011 5.52272727,43.2605398 C5.68181818,43.5062784 5.76136364,43.7896591 5.76136364,44.1106818 C5.76136364,44.4175 5.67897727,44.6873864 5.51420455,44.9203409 C5.34943182,45.1532955 5.12215909,45.3351136 4.83238636,45.4657955 C4.54261364,45.5964773 4.21022727,45.6618182 3.83522727,45.6618182 C3.5,45.6618182 3.19460227,45.6064205 2.91903409,45.495625 C2.64346591,45.3848295 2.42045455,45.2278693 2.25,45.0247443 C2.07954545,44.8216193 1.98295455,44.5794318 1.96022727,44.2981818 L1.96022727,44.2981818 L0.886363636,44.2981818 C0.909090909,44.7555682 1.04900568,45.1568466 1.30610795,45.502017 C1.56321023,45.8471875 1.91122159,46.1163636 2.35014205,46.3095455 C2.7890625,46.5027273 3.28977273,46.5993182 3.85227273,46.5993182 Z M11.3863636,46.5993182 C12.0284091,46.5993182 12.5752841,46.423892 13.0269886,46.0730398 C13.4786932,45.7221875 13.8238636,45.2122443 14.0625,44.5432102 C14.3011364,43.8741761 14.4204545,43.0652273 14.4204545,42.1163636 C14.4204545,41.1731818 14.3004261,40.3670739 14.0603693,39.6980398 C13.8203125,39.0290057 13.4737216,38.517642 13.0205966,38.1639489 C12.5674716,37.8102557 12.0227273,37.6334091 11.3863636,37.6334091 C10.75,37.6334091 10.2052557,37.8102557 9.75213068,38.1639489 C9.29900568,38.517642 8.95241477,39.0290057 8.71235795,39.6980398 C8.47230114,40.3670739 8.35227273,41.1731818 8.35227273,42.1163636 C8.35227273,43.0652273 8.47159091,43.8741761 8.71022727,44.5432102 C8.94886364,45.2122443 9.29403409,45.7221875 9.74573864,46.0730398 C10.1974432,46.423892 10.7443182,46.5993182 11.3863636,46.5993182 Z M11.3863636,45.6618182 C10.9630682,45.6618182 10.6015625,45.5240341 10.3018466,45.2484659 C10.0021307,44.9728977 9.77272727,44.5709091 9.61363636,44.0425 C9.45454545,43.5140909 9.375,42.8720455 9.375,42.1163636 C9.375,40.9828409 9.55255682,40.1057102 9.90767045,39.4849716 C10.2627841,38.864233 10.7556818,38.5538636 11.3863636,38.5538636 C11.8068182,38.5538636 12.1669034,38.6930682 12.4666193,38.9714773 C12.7663352,39.2498864 12.9964489,39.6547159 13.1569602,40.1859659 C13.3174716,40.7172159 13.3977273,41.3606818 13.3977273,42.1163636 C13.3977273,43.2527273 13.2215909,44.1277273 12.8693182,44.7413636 C12.5170455,45.355 12.0227273,45.6618182 11.3863636,45.6618182 Z M18.8863636,46.5993182 C19.5284091,46.5993182 20.0752841,46.423892 20.5269886,46.0730398 C20.9786932,45.7221875 21.3238636,45.2122443 21.5625,44.5432102 C21.8011364,43.8741761 21.9204545,43.0652273 21.9204545,42.1163636 C21.9204545,41.1731818 21.8004261,40.3670739 21.5603693,39.6980398 C21.3203125,39.0290057 20.9737216,38.517642 20.5205966,38.1639489 C20.0674716,37.8102557 19.5227273,37.6334091 18.8863636,37.6334091 C18.25,37.6334091 17.7052557,37.8102557 17.2521307,38.1639489 C16.7990057,38.517642 16.4524148,39.0290057 16.212358,39.6980398 C15.9723011,40.3670739 15.8522727,41.1731818 15.8522727,42.1163636 C15.8522727,43.0652273 15.9715909,43.8741761 16.2102273,44.5432102 C16.4488636,45.2122443 16.7940341,45.7221875 17.2457386,46.0730398 C17.6974432,46.423892 18.2443182,46.5993182 18.8863636,46.5993182 Z M18.8863636,45.6618182 C18.4630682,45.6618182 18.1015625,45.5240341 17.8018466,45.2484659 C17.5021307,44.9728977 17.2727273,44.5709091 17.1136364,44.0425 C16.9545455,43.5140909 16.875,42.8720455 16.875,42.1163636 C16.875,40.9828409 17.0525568,40.1057102 17.4076705,39.4849716 C17.7627841,38.864233 18.2556818,38.5538636 18.8863636,38.5538636 C19.3068182,38.5538636 19.6669034,38.6930682 19.9666193,38.9714773 C20.2663352,39.2498864 20.4964489,39.6547159 20.6569602,40.1859659 C20.8174716,40.7172159 20.8977273,41.3606818 20.8977273,42.1163636 C20.8977273,43.2527273 20.7215909,44.1277273 20.3693182,44.7413636 C20.0170455,45.355 19.5227273,45.6618182 18.8863636,45.6618182 Z"></path>
                </g>
                <g id="200" transform="translate(51.200000, 0.000000)">
                    <path d="M1.84943182,25.28 L3.843,19.698 L11.429,19.698 L13.4232955,25.28 L14.5482955,25.28 L8.25,7.82545455 L7.02272727,7.82545455 L0.724431818,25.28 L1.84943182,25.28 Z M11.076,18.709 L4.196,18.709 L7.59375,9.19761364 L7.67897727,9.19761364 L11.076,18.709 Z M20.8977273,25.56125 C21.5909091,25.56125 22.2144886,25.4433523 22.7684659,25.2075568 C23.3224432,24.9717614 23.796875,24.6535795 24.1917614,24.2530114 C24.5866477,23.8524432 24.8977273,23.4078409 25.125,22.9192045 L25.125,22.9192045 L25.2017045,22.9192045 L25.2017045,25.28 L26.2414773,25.28 L26.2414773,16.1351136 C26.2414773,15.4135227 26.1193182,14.7927841 25.875,14.2728977 C25.6306818,13.7530114 25.2997159,13.3254545 24.8821023,12.9902273 C24.4644886,12.655 23.9900568,12.405 23.4588068,12.2402273 C22.9275568,12.0754545 22.3693182,11.9930682 21.7840909,11.9930682 C21.1079545,11.9930682 20.4616477,12.0953409 19.8451705,12.2998864 C19.2286932,12.5044318 18.6832386,12.8140909 18.2088068,13.2288636 C17.734375,13.6436364 17.3721591,14.1635227 17.1221591,14.7885227 L17.1221591,14.7885227 L18.1022727,15.155 C18.3579545,14.5072727 18.8053977,13.9774432 19.4446023,13.5655114 C20.0838068,13.1535795 20.8721591,12.9476136 21.8096591,12.9476136 C22.8664773,12.9476136 23.6960227,13.2288636 24.2982955,13.7913636 C24.9005682,14.3538636 25.2017045,15.1123864 25.2017045,16.0669318 L25.2017045,16.0669318 L25.2017045,16.6123864 C25.2017045,16.9476136 25.0525568,17.1976136 24.7542614,17.3623864 C24.4559659,17.5271591 24.0454545,17.6478977 23.5227273,17.7246023 C23,17.8013068 22.40625,17.8794318 21.7414773,17.9589773 C20.8664773,18.0669318 20.1136364,18.2189205 19.4829545,18.4149432 C18.8522727,18.6109659 18.3352273,18.8595455 17.9318182,19.1606818 C17.5284091,19.4618182 17.2301136,19.8197727 17.0369318,20.2345455 C16.84375,20.6493182 16.7471591,21.1294318 16.7471591,21.6748864 C16.7471591,22.5044318 16.9360795,23.2089773 17.3139205,23.7885227 C17.6917614,24.3680682 18.1946023,24.8084091 18.8224432,25.1095455 C19.4502841,25.4106818 20.1420455,25.56125 20.8977273,25.56125 Z M21,24.5981818 C20.0852273,24.5981818 19.3210227,24.3396591 18.7073864,23.8226136 C18.09375,23.3055682 17.7869318,22.6010227 17.7869318,21.7089773 C17.7869318,21.1692045 17.9247159,20.7089773 18.2002841,20.3282955 C18.4758523,19.9476136 18.9133523,19.639375 19.5127841,19.4035795 C20.1122159,19.1677841 20.8892045,18.9930682 21.84375,18.8794318 C22.1619318,18.8396591 22.4900568,18.795625 22.828125,18.7473295 C23.1661932,18.6990341 23.4900568,18.6422159 23.7997159,18.576875 C24.109375,18.5115341 24.3877841,18.4348295 24.6349432,18.3467614 C24.8821023,18.2586932 25.0710227,18.1578409 25.2017045,18.0442045 L25.2017045,18.0442045 L25.2017045,19.9703409 C25.2017045,20.8567045 25.0227273,21.6493182 24.6647727,22.3481818 C24.3068182,23.0470455 23.8110795,23.5967614 23.1775568,23.9973295 C22.5440341,24.3978977 21.8181818,24.5981818 21,24.5981818 Z" id="Aa"></path>
                    <path d="M6.40909091,46.48 L6.40909091,45.5425 L2.35227273,45.5425 L2.35227273,45.4743182 L4.3125,43.3777273 C4.8125,42.8407955 5.20383523,42.3855398 5.48650568,42.0119602 C5.76917614,41.6383807 5.96803977,41.298892 6.08309659,40.9934943 C6.19815341,40.6880966 6.25568182,40.3748864 6.25568182,40.0538636 C6.25568182,39.605 6.14346591,39.1973295 5.91903409,38.8308523 C5.69460227,38.464375 5.38494318,38.1731818 4.99005682,37.9572727 C4.59517045,37.7413636 4.14204545,37.6334091 3.63068182,37.6334091 C3.12215909,37.6334091 2.6640625,37.7413636 2.25639205,37.9572727 C1.84872159,38.1731818 1.52698864,38.4743182 1.29119318,38.8606818 C1.05539773,39.2470455 0.9375,39.6959091 0.9375,40.2072727 L0.9375,40.2072727 L1.94318182,40.2072727 C1.94318182,39.8748864 2.01065341,39.5851136 2.14559659,39.3379545 C2.28053977,39.0907955 2.47230114,38.8983239 2.72088068,38.7605398 C2.96946023,38.6227557 3.26136364,38.5538636 3.59659091,38.5538636 C3.91193182,38.5538636 4.19602273,38.6149432 4.44886364,38.7371023 C4.70170455,38.8592614 4.90127841,39.0325568 5.04758523,39.2569886 C5.19389205,39.4814205 5.26704545,39.7470455 5.26704545,40.0538636 C5.26704545,40.3209091 5.21377841,40.5758807 5.10724432,40.8187784 C5.00071023,41.0616761 4.83806818,41.3201989 4.61931818,41.5943466 C4.40056818,41.8684943 4.12215909,42.1902273 3.78409091,42.5595455 L3.78409091,42.5595455 L0.903409091,45.7129545 L0.903409091,46.48 L6.40909091,46.48 Z M11.0113636,46.5993182 C11.6534091,46.5993182 12.2002841,46.423892 12.6519886,46.0730398 C13.1036932,45.7221875 13.4488636,45.2122443 13.6875,44.5432102 C13.9261364,43.8741761 14.0454545,43.0652273 14.0454545,42.1163636 C14.0454545,41.1731818 13.9254261,40.3670739 13.6853693,39.6980398 C13.4453125,39.0290057 13.0987216,38.517642 12.6455966,38.1639489 C12.1924716,37.8102557 11.6477273,37.6334091 11.0113636,37.6334091 C10.375,37.6334091 9.83025568,37.8102557 9.37713068,38.1639489 C8.92400568,38.517642 8.57741477,39.0290057 8.33735795,39.6980398 C8.09730114,40.3670739 7.97727273,41.1731818 7.97727273,42.1163636 C7.97727273,43.0652273 8.09659091,43.8741761 8.33522727,44.5432102 C8.57386364,45.2122443 8.91903409,45.7221875 9.37073864,46.0730398 C9.82244318,46.423892 10.3693182,46.5993182 11.0113636,46.5993182 Z M11.0113636,45.6618182 C10.5880682,45.6618182 10.2265625,45.5240341 9.92684659,45.2484659 C9.62713068,44.9728977 9.39772727,44.5709091 9.23863636,44.0425 C9.07954545,43.5140909 9,42.8720455 9,42.1163636 C9,40.9828409 9.17755682,40.1057102 9.53267045,39.4849716 C9.88778409,38.864233 10.3806818,38.5538636 11.0113636,38.5538636 C11.4318182,38.5538636 11.7919034,38.6930682 12.0916193,38.9714773 C12.3913352,39.2498864 12.6214489,39.6547159 12.7819602,40.1859659 C12.9424716,40.7172159 13.0227273,41.3606818 13.0227273,42.1163636 C13.0227273,43.2527273 12.8465909,44.1277273 12.4943182,44.7413636 C12.1420455,45.355 11.6477273,45.6618182 11.0113636,45.6618182 Z M18.5113636,46.5993182 C19.1534091,46.5993182 19.7002841,46.423892 20.1519886,46.0730398 C20.6036932,45.7221875 20.9488636,45.2122443 21.1875,44.5432102 C21.4261364,43.8741761 21.5454545,43.0652273 21.5454545,42.1163636 C21.5454545,41.1731818 21.4254261,40.3670739 21.1853693,39.6980398 C20.9453125,39.0290057 20.5987216,38.517642 20.1455966,38.1639489 C19.6924716,37.8102557 19.1477273,37.6334091 18.5113636,37.6334091 C17.875,37.6334091 17.3302557,37.8102557 16.8771307,38.1639489 C16.4240057,38.517642 16.0774148,39.0290057 15.837358,39.6980398 C15.5973011,40.3670739 15.4772727,41.1731818 15.4772727,42.1163636 C15.4772727,43.0652273 15.5965909,43.8741761 15.8352273,44.5432102 C16.0738636,45.2122443 16.4190341,45.7221875 16.8707386,46.0730398 C17.3224432,46.423892 17.8693182,46.5993182 18.5113636,46.5993182 Z M18.5113636,45.6618182 C18.0880682,45.6618182 17.7265625,45.5240341 17.4268466,45.2484659 C17.1271307,44.9728977 16.8977273,44.5709091 16.7386364,44.0425 C16.5795455,43.5140909 16.5,42.8720455 16.5,42.1163636 C16.5,40.9828409 16.6775568,40.1057102 17.0326705,39.4849716 C17.3877841,38.864233 17.8806818,38.5538636 18.5113636,38.5538636 C18.9318182,38.5538636 19.2919034,38.6930682 19.5916193,38.9714773 C19.8913352,39.2498864 20.1214489,39.6547159 20.2819602,40.1859659 C20.4424716,40.7172159 20.5227273,41.3606818 20.5227273,42.1163636 C20.5227273,43.2527273 20.3465909,44.1277273 19.9943182,44.7413636 C19.6420455,45.355 19.1477273,45.6618182 18.5113636,45.6618182 Z"></path>
                </g>
                <g id="100">
                    <path d="M1.36363636,25.28 L3.473,19.383 L11.321,19.383 L13.4318182,25.28 L14.0113636,25.28 L7.77272727,7.82545455 L7.02272727,7.82545455 L0.784090909,25.28 L1.36363636,25.28 Z M11.126,18.837 L3.668,18.837 L7.36363636,8.50727273 L7.43181818,8.50727273 L11.126,18.837 Z M20.3863636,25.5527273 C21.0454545,25.5527273 21.6576705,25.4319886 22.2230114,25.1905114 C22.7883523,24.9490341 23.2883523,24.608125 23.7230114,24.1677841 C24.1576705,23.7274432 24.5113636,23.2118182 24.7840909,22.6209091 L24.7840909,22.6209091 L24.8522727,22.6209091 L24.8522727,25.28 L25.3977273,25.28 L25.3977273,15.8709091 C25.3977273,15.3140909 25.3011364,14.7998864 25.1079545,14.3282955 C24.9147727,13.8567045 24.6335227,13.4461932 24.2642045,13.0967614 C23.8948864,12.7473295 23.4474432,12.4746023 22.921875,12.2785795 C22.3963068,12.0825568 21.8011364,11.9845455 21.1363636,11.9845455 C20.4545455,11.9845455 19.8210227,12.0925 19.2357955,12.3084091 C18.6505682,12.5243182 18.1448864,12.8311364 17.71875,13.2288636 C17.2926136,13.6265909 16.9772727,14.0981818 16.7727273,14.6436364 L16.7727273,14.6436364 L17.2840909,14.8481818 C17.5568182,14.1152273 18.0369318,13.545625 18.7244318,13.139375 C19.4119318,12.733125 20.2159091,12.53 21.1363636,12.53 C22.2613636,12.53 23.1619318,12.8353977 23.8380682,13.4461932 C24.5142045,14.0569886 24.8522727,14.8652273 24.8522727,15.8709091 L24.8522727,15.8709091 L24.8522727,16.655 C24.8522727,16.9959091 24.6846591,17.2572727 24.3494318,17.4390909 C24.0142045,17.6209091 23.5795455,17.7572727 23.0454545,17.8481818 C22.5113636,17.9390909 21.9431818,18.0186364 21.3409091,18.0868182 C20.3352273,18.2061364 19.5099432,18.3794318 18.8650568,18.6067045 C18.2201705,18.8339773 17.71875,19.1067045 17.3607955,19.4248864 C17.0028409,19.7430682 16.7528409,20.0967614 16.6107955,20.4859659 C16.46875,20.8751705 16.3977273,21.2913636 16.3977273,21.7345455 C16.3977273,22.5527273 16.5809659,23.2459091 16.9474432,23.8140909 C17.3139205,24.3822727 17.7997159,24.8140909 18.4048295,25.1095455 C19.0099432,25.405 19.6704545,25.5527273 20.3863636,25.5527273 Z M20.3863636,25.0072727 C19.4147727,25.0072727 18.5980114,24.7089773 17.9360795,24.1123864 C17.2741477,23.5157955 16.9431818,22.7231818 16.9431818,21.7345455 C16.9431818,21.1777273 17.0823864,20.6890909 17.3607955,20.2686364 C17.6392045,19.8481818 18.1136364,19.49875 18.7840909,19.2203409 C19.4545455,18.9419318 20.375,18.7345455 21.5454545,18.5981818 C21.9204545,18.5527273 22.2727273,18.5044318 22.6022727,18.4532955 C22.9318182,18.4021591 23.2372159,18.3410795 23.5184659,18.2700568 C23.7997159,18.1990341 24.0525568,18.1180682 24.2769886,18.0271591 C24.5014205,17.93625 24.6931818,17.8311364 24.8522727,17.7118182 L24.8522727,17.7118182 L24.8522727,19.6890909 C24.8522727,20.7459091 24.6534091,21.6734659 24.2556818,22.4717614 C23.8579545,23.2700568 23.3210227,23.8922159 22.6448864,24.3382386 C21.96875,24.7842614 21.2159091,25.0072727 20.3863636,25.0072727 Z" id="Aa"></path>
                    <path d="M3.97159091,46.48 L3.97159091,37.7527273 L2.91477273,37.7527273 L0.732954545,39.2015909 L0.732954545,40.2754545 L2.86363636,38.8606818 L2.91477273,38.8606818 L2.91477273,46.48 L3.97159091,46.48 Z M9.32386364,46.5993182 C9.96590909,46.5993182 10.5127841,46.423892 10.9644886,46.0730398 C11.4161932,45.7221875 11.7613636,45.2122443 12,44.5432102 C12.2386364,43.8741761 12.3579545,43.0652273 12.3579545,42.1163636 C12.3579545,41.1731818 12.2379261,40.3670739 11.9978693,39.6980398 C11.7578125,39.0290057 11.4112216,38.517642 10.9580966,38.1639489 C10.5049716,37.8102557 9.96022727,37.6334091 9.32386364,37.6334091 C8.6875,37.6334091 8.14275568,37.8102557 7.68963068,38.1639489 C7.23650568,38.517642 6.88991477,39.0290057 6.64985795,39.6980398 C6.40980114,40.3670739 6.28977273,41.1731818 6.28977273,42.1163636 C6.28977273,43.0652273 6.40909091,43.8741761 6.64772727,44.5432102 C6.88636364,45.2122443 7.23153409,45.7221875 7.68323864,46.0730398 C8.13494318,46.423892 8.68181818,46.5993182 9.32386364,46.5993182 Z M9.32386364,45.6618182 C8.90056818,45.6618182 8.5390625,45.5240341 8.23934659,45.2484659 C7.93963068,44.9728977 7.71022727,44.5709091 7.55113636,44.0425 C7.39204545,43.5140909 7.3125,42.8720455 7.3125,42.1163636 C7.3125,40.9828409 7.49005682,40.1057102 7.84517045,39.4849716 C8.20028409,38.864233 8.69318182,38.5538636 9.32386364,38.5538636 C9.74431818,38.5538636 10.1044034,38.6930682 10.4041193,38.9714773 C10.7038352,39.2498864 10.9339489,39.6547159 11.0944602,40.1859659 C11.2549716,40.7172159 11.3352273,41.3606818 11.3352273,42.1163636 C11.3352273,43.2527273 11.1590909,44.1277273 10.8068182,44.7413636 C10.4545455,45.355 9.96022727,45.6618182 9.32386364,45.6618182 Z M16.8238636,46.5993182 C17.4659091,46.5993182 18.0127841,46.423892 18.4644886,46.0730398 C18.9161932,45.7221875 19.2613636,45.2122443 19.5,44.5432102 C19.7386364,43.8741761 19.8579545,43.0652273 19.8579545,42.1163636 C19.8579545,41.1731818 19.7379261,40.3670739 19.4978693,39.6980398 C19.2578125,39.0290057 18.9112216,38.517642 18.4580966,38.1639489 C18.0049716,37.8102557 17.4602273,37.6334091 16.8238636,37.6334091 C16.1875,37.6334091 15.6427557,37.8102557 15.1896307,38.1639489 C14.7365057,38.517642 14.3899148,39.0290057 14.149858,39.6980398 C13.9098011,40.3670739 13.7897727,41.1731818 13.7897727,42.1163636 C13.7897727,43.0652273 13.9090909,43.8741761 14.1477273,44.5432102 C14.3863636,45.2122443 14.7315341,45.7221875 15.1832386,46.0730398 C15.6349432,46.423892 16.1818182,46.5993182 16.8238636,46.5993182 Z M16.8238636,45.6618182 C16.4005682,45.6618182 16.0390625,45.5240341 15.7393466,45.2484659 C15.4396307,44.9728977 15.2102273,44.5709091 15.0511364,44.0425 C14.8920455,43.5140909 14.8125,42.8720455 14.8125,42.1163636 C14.8125,40.9828409 14.9900568,40.1057102 15.3451705,39.4849716 C15.7002841,38.864233 16.1931818,38.5538636 16.8238636,38.5538636 C17.2443182,38.5538636 17.6044034,38.6930682 17.9041193,38.9714773 C18.2038352,39.2498864 18.4339489,39.6547159 18.5944602,40.1859659 C18.7549716,40.7172159 18.8352273,41.3606818 18.8352273,42.1163636 C18.8352273,43.2527273 18.6590909,44.1277273 18.3068182,44.7413636 C17.9545455,45.355 17.4602273,45.6618182 16.8238636,45.6618182 Z"></path>
                </g>
            </g>
        </g>
    </g>
</svg>