<?xml version="1.0" encoding="UTF-8"?>
<svg width="555px" height="142px" viewBox="0 0 555 142" version="1.1" xmlns="http://www.w3.org/2000/svg" xmlns:xlink="http://www.w3.org/1999/xlink">
    <title>font-weight-2</title>
    <g id="Doc_exemplos" stroke="none" stroke-width="1" fill="none" fill-rule="evenodd">
        <g id="doc-tipografia-expandido" transform="translate(-861.000000, -1904.000000)">
            <g id="font-weight-2" transform="translate(862.000000, 1904.000000)">
                <path d="M495.18,110.912 C496.402667,110.912 497.345333,110.592333 498.008,109.953 C498.670667,109.313667 499.002,108.392 499.002,107.188 C499.002,104.817333 497.975333,103.632 495.922,103.632 C495.474,103.632 495.058667,103.716 494.676,103.884 C494.293333,104.052 493.980667,104.29 493.738,104.598 L493.738,104.598 L493.668,104.598 L493.668,101 L491.428,101 L491.428,101.938 L492.59,101.938 L492.59,110.352 C492.804667,110.501333 493.145333,110.632 493.612,110.744 C494.078667,110.856 494.601333,110.912 495.18,110.912 Z M495.376,109.974 C495.049333,109.974 494.736667,109.941333 494.438,109.876 C494.139333,109.810667 493.882667,109.722 493.668,109.61 L493.668,109.61 L493.668,106.39 C493.826667,105.811333 494.078667,105.363333 494.424,105.046 C494.769333,104.728667 495.222,104.57 495.782,104.57 C496.155333,104.57 496.472667,104.637667 496.734,104.773 C496.995333,104.908333 497.207667,105.095 497.371,105.333 C497.534333,105.571 497.653333,105.848667 497.728,106.166 C497.802667,106.483333 497.84,106.819333 497.84,107.174 C497.84,107.659333 497.781667,108.079333 497.665,108.434 C497.548333,108.788667 497.382667,109.080333 497.168,109.309 C496.953333,109.537667 496.694333,109.705667 496.391,109.813 C496.087667,109.920333 495.749333,109.974 495.376,109.974 Z M506.38,110.8 L506.38,109.862 L503.692,109.862 L503.692,105.732 C503.748,105.648 503.836667,105.545333 503.958,105.424 C504.079333,105.302667 504.226333,105.181333 504.399,105.06 C504.571667,104.938667 504.774667,104.836 505.008,104.752 C505.241333,104.668 505.502667,104.626 505.792,104.626 C506.1,104.626 506.312333,104.766 506.429,105.046 C506.545667,105.326 506.604,105.764667 506.604,106.362 L506.604,106.362 L507.584,106.348 C507.584,105.928 507.565333,105.552333 507.528,105.221 C507.490667,104.889667 507.418333,104.607333 507.311,104.374 C507.203667,104.140667 507.054333,103.963333 506.863,103.842 C506.671667,103.720667 506.417333,103.66 506.1,103.66 C505.558667,103.66 505.092,103.762667 504.7,103.968 C504.308,104.173333 503.953333,104.420667 503.636,104.71 L503.636,104.71 L503.566,104.71 L503.342,103.8 L500.724,103.8 L500.724,104.738 L502.614,104.738 L502.614,109.862 L500.724,109.862 L500.724,110.8 L506.38,110.8 Z M511.49,110.926 C511.844667,110.926 512.152667,110.879333 512.414,110.786 C512.675333,110.692667 512.897,110.583 513.079,110.457 C513.261,110.331 513.408,110.202667 513.52,110.072 C513.632,109.941333 513.716,109.834 513.772,109.75 L513.772,109.75 L513.842,109.75 L513.968,110.8 L515.83,110.8 L515.83,109.89 L514.892,109.89 C514.836,109.47 514.808,109.026667 514.808,108.56 C514.817333,108.158667 514.831333,107.757333 514.85,107.356 C514.868667,106.954667 514.878,106.576667 514.878,106.222 C514.878,105.914 514.847667,105.608333 514.787,105.305 C514.726333,105.001667 514.609667,104.731 514.437,104.493 C514.264333,104.255 514.026333,104.061333 513.723,103.912 C513.419667,103.762667 513.03,103.688 512.554,103.688 C512.068667,103.688 511.574,103.739333 511.07,103.842 C510.566,103.944667 510.113333,104.112667 509.712,104.346 L509.712,104.346 L510.062,105.158 C510.360667,105.036667 510.701333,104.917667 511.084,104.801 C511.466667,104.684333 511.868,104.626 512.288,104.626 C512.596,104.626 512.855,104.661 513.065,104.731 C513.275,104.801 513.438333,104.92 513.555,105.088 C513.671667,105.256 513.746333,105.482333 513.779,105.767 C513.811667,106.051667 513.804667,106.408667 513.758,106.838 C513.067333,106.735333 512.444333,106.698 511.889,106.726 C511.333667,106.754 510.86,106.852 510.468,107.02 C510.076,107.188 509.775,107.430667 509.565,107.748 C509.355,108.065333 509.25,108.462 509.25,108.938 C509.25,109.554 509.450667,110.039333 509.852,110.394 C510.253333,110.748667 510.799333,110.926 511.49,110.926 Z M511.77,109.988 C511.275333,109.988 510.923,109.873667 510.713,109.645 C510.503,109.416333 510.398,109.148 510.398,108.84 C510.398,108.541333 510.482,108.298667 510.65,108.112 C510.818,107.925333 511.051333,107.787667 511.35,107.699 C511.648667,107.610333 512.003333,107.566 512.414,107.566 C512.824667,107.566 513.272667,107.608 513.758,107.692 L513.758,107.692 L513.758,108.672 C513.702,108.812 513.618,108.959 513.506,109.113 C513.394,109.267 513.254,109.409333 513.086,109.54 C512.918,109.670667 512.722,109.778 512.498,109.862 C512.274,109.946 512.031333,109.988 511.77,109.988 Z M518.98,110.8 L518.98,106.404 C519.045333,106.170667 519.148,105.949 519.288,105.739 C519.428,105.529 519.591333,105.344667 519.778,105.186 C519.964667,105.027333 520.172333,104.899 520.401,104.801 C520.629667,104.703 520.865333,104.654 521.108,104.654 C521.770667,104.654 522.228,104.85 522.48,105.242 C522.732,105.634 522.858,106.217333 522.858,106.992 L522.858,106.992 L522.858,110.8 L523.95,110.8 L523.95,106.782 C523.95,106.156667 523.894,105.641 523.782,105.235 C523.67,104.829 523.504333,104.507 523.285,104.269 C523.065667,104.031 522.790333,103.865333 522.459,103.772 C522.127667,103.678667 521.747333,103.632 521.318,103.632 C521.038,103.632 520.772,103.669333 520.52,103.744 C520.268,103.818667 520.039333,103.919 519.834,104.045 C519.628667,104.171 519.449,104.311 519.295,104.465 C519.141,104.619 519.017333,104.775333 518.924,104.934 L518.924,104.934 L518.854,104.934 L518.728,103.8 L516.852,103.8 L516.852,104.71 L517.79,104.71 C517.808667,104.812667 517.825,104.934 517.839,105.074 C517.853,105.214 517.864667,105.356333 517.874,105.501 C517.883333,105.645667 517.890333,105.785667 517.895,105.921 C517.899667,106.056333 517.902,106.166 517.902,106.25 L517.902,106.25 L517.902,110.8 L518.98,110.8 Z M528.864,110.968 C529.396,110.968 529.865,110.849 530.271,110.611 C530.677,110.373 530.982667,110.076667 531.188,109.722 L531.188,109.722 L531.244,109.722 L531.384,110.8 L533.246,110.8 L533.246,109.89 L532.308,109.89 C532.289333,109.787333 532.270667,109.668333 532.252,109.533 C532.233333,109.397667 532.217,109.26 532.203,109.12 C532.189,108.98 532.177333,108.847 532.168,108.721 C532.158667,108.595 532.154,108.49 532.154,108.406 L532.154,108.406 L532.154,101 L529.886,101 L529.886,101.938 L531.062,101.938 L531.062,103.926 C530.922,103.888667 530.793667,103.853667 530.677,103.821 C530.560333,103.788333 530.436667,103.762667 530.306,103.744 C530.175333,103.725333 530.033,103.711333 529.879,103.702 C529.725,103.692667 529.55,103.688 529.354,103.688 C528.812667,103.688 528.322667,103.767333 527.884,103.926 C527.445333,104.084667 527.069667,104.315667 526.757,104.619 C526.444333,104.922333 526.204,105.300333 526.036,105.753 C525.868,106.205667 525.784,106.726 525.784,107.314 C525.784,108.564667 526.033667,109.486333 526.533,110.079 C527.032333,110.671667 527.809333,110.968 528.864,110.968 Z M529.046,110.03 C528.654,110.03 528.322667,109.96 528.052,109.82 C527.781333,109.68 527.564333,109.488667 527.401,109.246 C527.237667,109.003333 527.121,108.716333 527.051,108.385 C526.981,108.053667 526.946,107.696667 526.946,107.314 C526.946,106.380667 527.160667,105.697 527.59,105.263 C528.019333,104.829 528.607333,104.612 529.354,104.612 C529.774,104.612 530.112333,104.644667 530.369,104.71 C530.625667,104.775333 530.856667,104.878 531.062,105.018 L531.062,105.018 L531.062,108.266 C530.940667,108.854 530.716667,109.295 530.39,109.589 C530.063333,109.883 529.615333,110.03 529.046,110.03 Z" id="brand" fill="#4269E0" fill-rule="nonzero"></path>
                <g id="900" opacity="0.400000006" transform="translate(420.000000, 87.000000)" fill="#000000" fill-rule="nonzero">
                    <path d="M5.65909091,24.2 L6.667,20.86 L12.423,20.86 L13.4318182,24.2 L18.5454545,24.2 L12.7840909,6.74545455 L6.30681818,6.74545455 L0.545454545,24.2 L5.65909091,24.2 Z M11.352,17.314 L7.738,17.314 L9.47727273,11.5522727 L9.61363636,11.5522727 L11.352,17.314 Z M23.9318182,24.4045455 C24.5,24.4045455 25.0213068,24.3363636 25.4957386,24.2 C25.9701705,24.0636364 26.3934659,23.8448864 26.765625,23.54375 C27.1377841,23.2426136 27.4545455,22.8477273 27.7159091,22.3590909 L27.7159091,22.3590909 L27.8181818,22.3590909 L27.8181818,24.2 L32.2159091,24.2 L32.2159091,15.2340909 C32.2159091,14.6261364 32.078125,14.0622159 31.8025568,13.5423295 C31.5269886,13.0224432 31.1278409,12.5678977 30.6051136,12.1786932 C30.0823864,11.7894886 29.4488636,11.4855114 28.7045455,11.2667614 C27.9602273,11.0480114 27.1193182,10.9386364 26.1818182,10.9386364 C24.8806818,10.9386364 23.7954545,11.1417614 22.9261364,11.5480114 C22.0568182,11.9542614 21.3963068,12.4940341 20.9446023,13.1673295 C20.4928977,13.840625 20.2386364,14.575 20.1818182,15.3704545 L20.1818182,15.3704545 L24.5113636,15.3704545 C24.5681818,14.9670455 24.7372159,14.6673295 25.0184659,14.4713068 C25.2997159,14.2752841 25.6647727,14.1772727 26.1136364,14.1772727 C26.5227273,14.1772727 26.8579545,14.2681818 27.1193182,14.45 C27.3806818,14.6318182 27.5113636,14.8931818 27.5113636,15.2340909 L27.5113636,15.2340909 L27.5113636,15.2681818 C27.5113636,15.5181818 27.4119318,15.7184659 27.2130682,15.8690341 C27.0142045,16.0196023 26.6917614,16.1360795 26.2457386,16.2184659 C25.7997159,16.3008523 25.2102273,16.3704545 24.4772727,16.4272727 C23.8011364,16.4784091 23.171875,16.5892045 22.5894886,16.7596591 C22.0071023,16.9301136 21.4971591,17.1772727 21.0596591,17.5011364 C20.6221591,17.825 20.28125,18.2411932 20.0369318,18.7497159 C19.7926136,19.2582386 19.6704545,19.8704545 19.6704545,20.5863636 C19.6704545,21.4556818 19.8522727,22.1715909 20.2159091,22.7340909 C20.5795455,23.2965909 21.0809659,23.715625 21.7201705,23.9911932 C22.359375,24.2667614 23.0965909,24.4045455 23.9318182,24.4045455 Z M25.4659091,21.4386364 C25.0681818,21.4386364 24.7414773,21.3420455 24.4857955,21.1488636 C24.2301136,20.9556818 24.1022727,20.6772727 24.1022727,20.3136364 C24.1022727,20.0863636 24.1576705,19.8803977 24.2684659,19.6957386 C24.3792614,19.5110795 24.5497159,19.3548295 24.7798295,19.2269886 C25.0099432,19.0991477 25.3068182,19.0068182 25.6704545,18.95 C25.8579545,18.9215909 26.0383523,18.8903409 26.2116477,18.85625 C26.3849432,18.8221591 26.5497159,18.7852273 26.7059659,18.7454545 C26.8622159,18.7056818 27.0099432,18.6630682 27.1491477,18.6176136 C27.2883523,18.5721591 27.4204545,18.5238636 27.5454545,18.4727273 L27.5454545,18.4727273 L27.5454545,19.5636364 C27.5454545,19.9613636 27.4460227,20.2994318 27.2471591,20.5778409 C27.0482955,20.85625 26.7911932,21.0693182 26.4758523,21.2170455 C26.1605114,21.3647727 25.8238636,21.4386364 25.4659091,21.4386364 Z" id="Aa"></path>
                    <path d="M3.54545455,43.9193182 C4.03693182,43.9193182 4.47798295,43.8127841 4.86860795,43.5997159 C5.25923295,43.3866477 5.59161932,43.0741477 5.86576705,42.6622159 C6.13991477,42.2502841 6.35014205,41.743892 6.49644886,41.1430398 C6.64275568,40.5421875 6.71590909,39.8539773 6.71590909,39.0784091 C6.71590909,38.2715909 6.62642045,37.6018466 6.44744318,37.0691761 C6.26846591,36.5365057 6.03125,36.1153409 5.73579545,35.8056818 C5.44034091,35.4960227 5.11363636,35.2744318 4.75568182,35.1409091 C4.39772727,35.0073864 4.03977273,34.9392045 3.68181818,34.9363636 C3.09090909,34.9306818 2.57741477,35.0599432 2.14133523,35.3241477 C1.70525568,35.5883523 1.3671875,35.9434659 1.12713068,36.3894886 C0.887073864,36.8355114 0.767045455,37.3284091 0.767045455,37.8681818 C0.767045455,38.4306818 0.891335227,38.9299716 1.13991477,39.3660511 C1.38849432,39.8021307 1.72088068,40.1444602 2.13707386,40.3930398 C2.55326705,40.6416193 3.01136364,40.7659091 3.51136364,40.7659091 C3.8125,40.7659091 4.09659091,40.7190341 4.36363636,40.6252841 C4.63068182,40.5315341 4.87357955,40.3980114 5.09232955,40.2247159 C5.31107955,40.0514205 5.5,39.8454545 5.65909091,39.6068182 L5.65909091,39.6068182 L5.72727273,39.6068182 C5.72727273,40.6806818 5.53196023,41.5116477 5.14133523,42.0997159 C4.75071023,42.6877841 4.21875,42.9818182 3.54545455,42.9818182 C3.08522727,42.9818182 2.71519886,42.8518466 2.43536932,42.5919034 C2.15553977,42.3319602 1.96875,42.0017045 1.875,41.6011364 L1.875,41.6011364 L0.835227273,41.6011364 C0.903409091,42.0613636 1.05894886,42.465483 1.30184659,42.8134943 C1.54474432,43.1615057 1.85724432,43.4328125 2.23934659,43.6274148 C2.62144886,43.822017 3.05681818,43.9193182 3.54545455,43.9193182 Z M3.64772727,39.8284091 C3.28977273,39.8284091 2.97088068,39.7410511 2.69105114,39.5663352 C2.41122159,39.3916193 2.19105114,39.1558239 2.03053977,38.8589489 C1.87002841,38.5620739 1.78977273,38.2318182 1.78977273,37.8681818 C1.78977273,37.4988636 1.87286932,37.1636364 2.0390625,36.8625 C2.20525568,36.5613636 2.43110795,36.3213068 2.71661932,36.1423295 C3.00213068,35.9633523 3.32386364,35.8738636 3.68181818,35.8738636 C4.04545455,35.8738636 4.37002841,35.9661932 4.65553977,36.1508523 C4.94105114,36.3355114 5.16548295,36.5784091 5.32883523,36.8795455 C5.4921875,37.1806818 5.57386364,37.5045455 5.57386364,37.8511364 C5.57386364,38.1096591 5.52414773,38.3575284 5.42471591,38.5947443 C5.32528409,38.8319602 5.18821023,39.043608 5.01349432,39.2296875 C4.83877841,39.415767 4.63494318,39.5620739 4.40198864,39.668608 C4.16903409,39.775142 3.91761364,39.8284091 3.64772727,39.8284091 Z M11.2329545,43.9193182 C11.875,43.9193182 12.421875,43.743892 12.8735795,43.3930398 C13.3252841,43.0421875 13.6704545,42.5322443 13.9090909,41.8632102 C14.1477273,41.1941761 14.2670455,40.3852273 14.2670455,39.4363636 C14.2670455,38.4931818 14.147017,37.6870739 13.9069602,37.0180398 C13.6669034,36.3490057 13.3203125,35.837642 12.8671875,35.4839489 C12.4140625,35.1302557 11.8693182,34.9534091 11.2329545,34.9534091 C10.5965909,34.9534091 10.0518466,35.1302557 9.59872159,35.4839489 C9.14559659,35.837642 8.79900568,36.3490057 8.55894886,37.0180398 C8.31889205,37.6870739 8.19886364,38.4931818 8.19886364,39.4363636 C8.19886364,40.3852273 8.31818182,41.1941761 8.55681818,41.8632102 C8.79545455,42.5322443 9.140625,43.0421875 9.59232955,43.3930398 C10.0440341,43.743892 10.5909091,43.9193182 11.2329545,43.9193182 Z M11.2329545,42.9818182 C10.8096591,42.9818182 10.4481534,42.8440341 10.1484375,42.5684659 C9.84872159,42.2928977 9.61931818,41.8909091 9.46022727,41.3625 C9.30113636,40.8340909 9.22159091,40.1920455 9.22159091,39.4363636 C9.22159091,38.3028409 9.39914773,37.4257102 9.75426136,36.8049716 C10.109375,36.184233 10.6022727,35.8738636 11.2329545,35.8738636 C11.6534091,35.8738636 12.0134943,36.0130682 12.3132102,36.2914773 C12.6129261,36.5698864 12.8430398,36.9747159 13.0035511,37.5059659 C13.1640625,38.0372159 13.2443182,38.6806818 13.2443182,39.4363636 C13.2443182,40.5727273 13.0681818,41.4477273 12.7159091,42.0613636 C12.3636364,42.675 11.8693182,42.9818182 11.2329545,42.9818182 Z M18.7329545,43.9193182 C19.375,43.9193182 19.921875,43.743892 20.3735795,43.3930398 C20.8252841,43.0421875 21.1704545,42.5322443 21.4090909,41.8632102 C21.6477273,41.1941761 21.7670455,40.3852273 21.7670455,39.4363636 C21.7670455,38.4931818 21.647017,37.6870739 21.4069602,37.0180398 C21.1669034,36.3490057 20.8203125,35.837642 20.3671875,35.4839489 C19.9140625,35.1302557 19.3693182,34.9534091 18.7329545,34.9534091 C18.0965909,34.9534091 17.5518466,35.1302557 17.0987216,35.4839489 C16.6455966,35.837642 16.2990057,36.3490057 16.0589489,37.0180398 C15.818892,37.6870739 15.6988636,38.4931818 15.6988636,39.4363636 C15.6988636,40.3852273 15.8181818,41.1941761 16.0568182,41.8632102 C16.2954545,42.5322443 16.640625,43.0421875 17.0923295,43.3930398 C17.5440341,43.743892 18.0909091,43.9193182 18.7329545,43.9193182 Z M18.7329545,42.9818182 C18.3096591,42.9818182 17.9481534,42.8440341 17.6484375,42.5684659 C17.3487216,42.2928977 17.1193182,41.8909091 16.9602273,41.3625 C16.8011364,40.8340909 16.7215909,40.1920455 16.7215909,39.4363636 C16.7215909,38.3028409 16.8991477,37.4257102 17.2542614,36.8049716 C17.609375,36.184233 18.1022727,35.8738636 18.7329545,35.8738636 C19.1534091,35.8738636 19.5134943,36.0130682 19.8132102,36.2914773 C20.1129261,36.5698864 20.3430398,36.9747159 20.5035511,37.5059659 C20.6640625,38.0372159 20.7443182,38.6806818 20.7443182,39.4363636 C20.7443182,40.5727273 20.5681818,41.4477273 20.2159091,42.0613636 C19.8636364,42.675 19.3693182,42.9818182 18.7329545,42.9818182 Z"></path>
                </g>
                <g id="800" opacity="0.400000006" transform="translate(369.600000, 87.000000)" fill="#000000" fill-rule="nonzero">
                    <path d="M5.09659091,24.2 L6.244,20.536 L12.272,20.536 L13.4232955,24.2 L17.9573864,24.2 L12.0681818,6.74545455 L6.45170455,6.74545455 L0.5625,24.2 L5.09659091,24.2 Z M11.266,17.331 L7.248,17.331 L9.1875,11.1431818 L9.32386364,11.1431818 L11.266,17.331 Z M23.53125,24.4215909 C24.1392045,24.4215909 24.6860795,24.3448864 25.171875,24.1914773 C25.6576705,24.0380682 26.0809659,23.8079545 26.4417614,23.5011364 C26.8025568,23.1943182 27.0994318,22.8193182 27.3323864,22.3761364 L27.3323864,22.3761364 L27.4346591,22.3761364 L27.4346591,24.2 L31.3551136,24.2 L31.3551136,15.3022727 C31.3551136,14.6090909 31.2116477,13.9926136 30.9247159,13.4528409 C30.6377841,12.9130682 30.2329545,12.4571023 29.7102273,12.0849432 C29.1875,11.7127841 28.5738636,11.4286932 27.8693182,11.2326705 C27.1647727,11.0366477 26.3948864,10.9386364 25.5596591,10.9386364 C24.3892045,10.9386364 23.3877841,11.1190341 22.5553977,11.4798295 C21.7230114,11.840625 21.0696023,12.3349432 20.5951705,12.9627841 C20.1207386,13.590625 19.8267045,14.3022727 19.7130682,15.0977273 L19.7130682,15.0977273 L23.5568182,15.2340909 C23.6477273,14.8136364 23.8607955,14.4840909 24.1960227,14.2454545 C24.53125,14.0068182 24.9744318,13.8875 25.5255682,13.8875 C26.0369318,13.8875 26.4431818,14.0068182 26.7443182,14.2454545 C27.0454545,14.4840909 27.1960227,14.8221591 27.1960227,15.2596591 L27.1960227,15.2596591 L27.1960227,15.3022727 C27.1960227,15.5693182 27.0923295,15.7752841 26.8849432,15.9201705 C26.6775568,16.0650568 26.3465909,16.1758523 25.8920455,16.2525568 C25.4375,16.3292614 24.8380682,16.4017045 24.09375,16.4698864 C23.4289773,16.5267045 22.8039773,16.6360795 22.21875,16.7980114 C21.6335227,16.9599432 21.1164773,17.1971591 20.6676136,17.5096591 C20.21875,17.8221591 19.8664773,18.2284091 19.6107955,18.7284091 C19.3551136,19.2284091 19.2272727,19.8420455 19.2272727,20.5693182 C19.2272727,21.4329545 19.4133523,22.1502841 19.7855114,22.7213068 C20.1576705,23.2923295 20.6661932,23.7184659 21.3110795,23.9997159 C21.9559659,24.2809659 22.6960227,24.4215909 23.53125,24.4215909 Z M24.8181818,21.6943182 C24.3409091,21.6943182 23.9474432,21.5806818 23.6377841,21.3534091 C23.328125,21.1261364 23.1732955,20.7965909 23.1732955,20.3647727 C23.1732955,20.0806818 23.2457386,19.8349432 23.390625,19.6275568 C23.5355114,19.4201705 23.7457386,19.2511364 24.0213068,19.1204545 C24.296875,18.9897727 24.6306818,18.8931818 25.0227273,18.8306818 C25.2159091,18.8022727 25.4176136,18.7710227 25.6278409,18.7369318 C25.8380682,18.7028409 26.0426136,18.6630682 26.2414773,18.6176136 C26.4403409,18.5721591 26.6235795,18.5238636 26.7911932,18.4727273 C26.9588068,18.4215909 27.1022727,18.3647727 27.2215909,18.3022727 L27.2215909,18.3022727 L27.2215909,19.5465909 C27.2215909,19.9727273 27.1136364,20.3463068 26.8977273,20.6673295 C26.6818182,20.9883523 26.3934659,21.2397727 26.0326705,21.4215909 C25.671875,21.6034091 25.2670455,21.6943182 24.8181818,21.6943182 Z" id="Aa"></path>
                    <path d="M3.69886364,43.9193182 C4.28125,43.9193182 4.79474432,43.8149148 5.23934659,43.606108 C5.68394886,43.3973011 6.03196023,43.1089489 6.28338068,42.7410511 C6.53480114,42.3731534 6.66193182,41.9534091 6.66477273,41.4818182 C6.66193182,41.1125 6.58522727,40.7708807 6.43465909,40.4569602 C6.28409091,40.1430398 6.08238636,39.8802557 5.82954545,39.668608 C5.57670455,39.4569602 5.29261364,39.3227273 4.97727273,39.2659091 L4.97727273,39.2659091 L4.97727273,39.2147727 C5.38636364,39.1068182 5.71519886,38.871733 5.96377841,38.509517 C6.21235795,38.1473011 6.33806818,37.7346591 6.34090909,37.2715909 C6.33806818,36.8284091 6.22230114,36.4321023 5.99360795,36.0826705 C5.76491477,35.7332386 5.45170455,35.4576705 5.05397727,35.2559659 C4.65625,35.0542614 4.20454545,34.9534091 3.69886364,34.9534091 C3.1875,34.9534091 2.73224432,35.0542614 2.33309659,35.2559659 C1.93394886,35.4576705 1.62073864,35.7332386 1.39346591,36.0826705 C1.16619318,36.4321023 1.05397727,36.8284091 1.05681818,37.2715909 C1.05397727,37.7346591 1.17613636,38.1473011 1.42329545,38.509517 C1.67045455,38.871733 2.00284091,39.1068182 2.42045455,39.2147727 L2.42045455,39.2147727 L2.42045455,39.2659091 C2.10227273,39.3227273 1.81463068,39.4569602 1.55752841,39.668608 C1.30042614,39.8802557 1.09801136,40.1430398 0.950284091,40.4569602 C0.802556818,40.7708807 0.730113636,41.1125 0.732954545,41.4818182 C0.730113636,41.9534091 0.853693182,42.3731534 1.10369318,42.7410511 C1.35369318,43.1089489 1.70241477,43.3973011 2.14985795,43.606108 C2.59730114,43.8149148 3.11363636,43.9193182 3.69886364,43.9193182 Z M3.69886364,38.8397727 C3.38068182,38.8397727 3.09943182,38.7772727 2.85511364,38.6522727 C2.61079545,38.5272727 2.41974432,38.3525568 2.28196023,38.128125 C2.14417614,37.9036932 2.07670455,37.6409091 2.07954545,37.3397727 C2.07670455,37.0443182 2.14204545,36.7865057 2.27556818,36.5663352 C2.40909091,36.3461648 2.59801136,36.1757102 2.84232955,36.0549716 C3.08664773,35.934233 3.37215909,35.8738636 3.69886364,35.8738636 C4.01988636,35.8738636 4.30113636,35.934233 4.54261364,36.0549716 C4.78409091,36.1757102 4.97301136,36.3461648 5.109375,36.5663352 C5.24573864,36.7865057 5.31534091,37.0443182 5.31818182,37.3397727 C5.31534091,37.6409091 5.24431818,37.9036932 5.10511364,38.128125 C4.96590909,38.3525568 4.77485795,38.5272727 4.53196023,38.6522727 C4.2890625,38.7772727 4.01136364,38.8397727 3.69886364,38.8397727 Z M3.69886364,42.9818182 C3.30113636,42.9818182 2.95738636,42.9178977 2.66761364,42.7900568 C2.37784091,42.6622159 2.15553977,42.4818182 2.00071023,42.2488636 C1.84588068,42.0159091 1.76988636,41.7431818 1.77272727,41.4306818 C1.76988636,41.1011364 1.8515625,40.8099432 2.01775568,40.5571023 C2.18394886,40.3042614 2.41264205,40.1053977 2.70383523,39.9605114 C2.99502841,39.815625 3.32670455,39.7431818 3.69886364,39.7431818 C4.06818182,39.7431818 4.39701705,39.815625 4.68536932,39.9605114 C4.97372159,40.1053977 5.20170455,40.3042614 5.36931818,40.5571023 C5.53693182,40.8099432 5.62215909,41.1011364 5.625,41.4306818 C5.62215909,41.7431818 5.54261364,42.0159091 5.38636364,42.2488636 C5.23011364,42.4818182 5.00852273,42.6622159 4.72159091,42.7900568 C4.43465909,42.9178977 4.09375,42.9818182 3.69886364,42.9818182 Z M11.1477273,43.9193182 C11.7897727,43.9193182 12.3366477,43.743892 12.7883523,43.3930398 C13.2400568,43.0421875 13.5852273,42.5322443 13.8238636,41.8632102 C14.0625,41.1941761 14.1818182,40.3852273 14.1818182,39.4363636 C14.1818182,38.4931818 14.0617898,37.6870739 13.821733,37.0180398 C13.5816761,36.3490057 13.2350852,35.837642 12.7819602,35.4839489 C12.3288352,35.1302557 11.7840909,34.9534091 11.1477273,34.9534091 C10.5113636,34.9534091 9.96661932,35.1302557 9.51349432,35.4839489 C9.06036932,35.837642 8.71377841,36.3490057 8.47372159,37.0180398 C8.23366477,37.6870739 8.11363636,38.4931818 8.11363636,39.4363636 C8.11363636,40.3852273 8.23295455,41.1941761 8.47159091,41.8632102 C8.71022727,42.5322443 9.05539773,43.0421875 9.50710227,43.3930398 C9.95880682,43.743892 10.5056818,43.9193182 11.1477273,43.9193182 Z M11.1477273,42.9818182 C10.7244318,42.9818182 10.3629261,42.8440341 10.0632102,42.5684659 C9.76349432,42.2928977 9.53409091,41.8909091 9.375,41.3625 C9.21590909,40.8340909 9.13636364,40.1920455 9.13636364,39.4363636 C9.13636364,38.3028409 9.31392045,37.4257102 9.66903409,36.8049716 C10.0241477,36.184233 10.5170455,35.8738636 11.1477273,35.8738636 C11.5681818,35.8738636 11.928267,36.0130682 12.227983,36.2914773 C12.5276989,36.5698864 12.7578125,36.9747159 12.9183239,37.5059659 C13.0788352,38.0372159 13.1590909,38.6806818 13.1590909,39.4363636 C13.1590909,40.5727273 12.9829545,41.4477273 12.6306818,42.0613636 C12.2784091,42.675 11.7840909,42.9818182 11.1477273,42.9818182 Z M18.6477273,43.9193182 C19.2897727,43.9193182 19.8366477,43.743892 20.2883523,43.3930398 C20.7400568,43.0421875 21.0852273,42.5322443 21.3238636,41.8632102 C21.5625,41.1941761 21.6818182,40.3852273 21.6818182,39.4363636 C21.6818182,38.4931818 21.5617898,37.6870739 21.321733,37.0180398 C21.0816761,36.3490057 20.7350852,35.837642 20.2819602,35.4839489 C19.8288352,35.1302557 19.2840909,34.9534091 18.6477273,34.9534091 C18.0113636,34.9534091 17.4666193,35.1302557 17.0134943,35.4839489 C16.5603693,35.837642 16.2137784,36.3490057 15.9737216,37.0180398 C15.7336648,37.6870739 15.6136364,38.4931818 15.6136364,39.4363636 C15.6136364,40.3852273 15.7329545,41.1941761 15.9715909,41.8632102 C16.2102273,42.5322443 16.5553977,43.0421875 17.0071023,43.3930398 C17.4588068,43.743892 18.0056818,43.9193182 18.6477273,43.9193182 Z M18.6477273,42.9818182 C18.2244318,42.9818182 17.8629261,42.8440341 17.5632102,42.5684659 C17.2634943,42.2928977 17.0340909,41.8909091 16.875,41.3625 C16.7159091,40.8340909 16.6363636,40.1920455 16.6363636,39.4363636 C16.6363636,38.3028409 16.8139205,37.4257102 17.1690341,36.8049716 C17.5241477,36.184233 18.0170455,35.8738636 18.6477273,35.8738636 C19.0681818,35.8738636 19.428267,36.0130682 19.727983,36.2914773 C20.0276989,36.5698864 20.2578125,36.9747159 20.4183239,37.5059659 C20.5788352,38.0372159 20.6590909,38.6806818 20.6590909,39.4363636 C20.6590909,40.5727273 20.4829545,41.4477273 20.1306818,42.0613636 C19.7784091,42.675 19.2840909,42.9818182 18.6477273,42.9818182 Z"></path>
                </g>
                <g id="500" opacity="0.400000006" transform="translate(218.400000, 87.000000)" fill="#000000" fill-rule="nonzero">
                    <path d="M3.39204545,24.2 L4.99,19.581 L11.81,19.581 L13.40625,24.2 L16.2017045,24.2 L9.92045455,6.74545455 L6.87784091,6.74545455 L0.596590909,24.2 L3.39204545,24.2 Z M11.045,17.365 L5.757,17.365 L8.33522727,9.91590909 L8.47159091,9.91590909 L11.045,17.365 Z M22.3210227,24.4897727 C23.0426136,24.4897727 23.6619318,24.3846591 24.1789773,24.1744318 C24.6960227,23.9642045 25.1193182,23.7 25.4488636,23.3818182 C25.7784091,23.0636364 26.0255682,22.7397727 26.1903409,22.4102273 L26.1903409,22.4102273 L26.2926136,22.4102273 L26.2926136,24.2 L28.78125,24.2 L28.78125,15.5068182 C28.78125,14.5522727 28.6164773,13.7752841 28.2869318,13.1758523 C27.9573864,12.5764205 27.5355114,12.1147727 27.0213068,11.7909091 C26.5071023,11.4670455 25.9559659,11.2440341 25.3678977,11.121875 C24.7798295,10.9997159 24.2244318,10.9386364 23.7017045,10.9386364 C22.9119318,10.9386364 22.1590909,11.0508523 21.4431818,11.2752841 C20.7272727,11.4997159 20.0951705,11.8576705 19.546875,12.3491477 C18.9985795,12.840625 18.5823864,13.4840909 18.2982955,14.2795455 L18.2982955,14.2795455 L20.6931818,14.825 C20.8806818,14.3647727 21.2201705,13.9457386 21.7116477,13.5678977 C22.203125,13.1900568 22.8778409,13.0011364 23.7357955,13.0011364 C24.5596591,13.0011364 25.1803977,13.2056818 25.5980114,13.6147727 C26.015625,14.0238636 26.2244318,14.6005682 26.2244318,15.3448864 L26.2244318,15.3448864 L26.2244318,15.4045455 C26.2244318,15.7113636 26.1136364,15.9329545 25.8920455,16.0693182 C25.6704545,16.2056818 25.3153409,16.3036932 24.8267045,16.3633523 C24.3380682,16.4230114 23.7017045,16.4982955 22.9176136,16.5892045 C22.2982955,16.6630682 21.6903409,16.7710227 21.09375,16.9130682 C20.4971591,17.0551136 19.9573864,17.2653409 19.4744318,17.54375 C18.9914773,17.8221591 18.6079545,18.2 18.3238636,18.6772727 C18.0397727,19.1545455 17.8977273,19.7625 17.8977273,20.5011364 C17.8977273,21.3590909 18.0923295,22.0835227 18.4815341,22.6744318 C18.8707386,23.2653409 19.4005682,23.715625 20.0710227,24.0252841 C20.7414773,24.3349432 21.4914773,24.4897727 22.3210227,24.4897727 Z M22.875,22.4443182 C22.1534091,22.4443182 21.5596591,22.2838068 21.09375,21.9627841 C20.6278409,21.6417614 20.3948864,21.1659091 20.3948864,20.5352273 C20.3948864,20.0806818 20.515625,19.715625 20.7571023,19.4400568 C20.9985795,19.1644886 21.3224432,18.9528409 21.7286932,18.8051136 C22.1349432,18.6573864 22.5852273,18.5522727 23.0795455,18.4897727 C23.2897727,18.4613636 23.5511364,18.4258523 23.8636364,18.3832386 C24.1761364,18.340625 24.4971591,18.2923295 24.8267045,18.2383523 C25.15625,18.184375 25.4502841,18.1190341 25.7088068,18.0423295 C25.9673295,17.965625 26.1420455,17.8818182 26.2329545,17.7909091 L26.2329545,17.7909091 L26.2329545,19.4784091 C26.2329545,19.9954545 26.1008523,20.4798295 25.8366477,20.9315341 C25.5724432,21.3832386 25.1889205,21.7482955 24.6860795,22.0267045 C24.1832386,22.3051136 23.5795455,22.4443182 22.875,22.4443182 Z" id="Aa"></path>
                    <path d="M3.63068182,43.9193182 C4.18465909,43.9193182 4.67897727,43.793608 5.11363636,43.5421875 C5.54829545,43.290767 5.88991477,42.947017 6.13849432,42.5109375 C6.38707386,42.074858 6.51136364,41.5784091 6.51136364,41.0215909 C6.51136364,40.45625 6.39133523,39.9534091 6.15127841,39.5130682 C5.91122159,39.0727273 5.58167614,38.7254261 5.16264205,38.4711648 C4.74360795,38.2169034 4.26704545,38.0897727 3.73295455,38.0897727 C3.44034091,38.0897727 3.15909091,38.1366477 2.88920455,38.2303977 C2.61931818,38.3241477 2.39488636,38.4420455 2.21590909,38.5840909 L2.21590909,38.5840909 L2.16477273,38.5840909 L2.47159091,36.0102273 L6.11931818,36.0102273 L6.11931818,35.0727273 L1.58522727,35.0727273 L1.05681818,39.3681818 L2.04545455,39.4875 C2.22727273,39.3568182 2.45880682,39.2495739 2.74005682,39.165767 C3.02130682,39.0819602 3.29545455,39.0414773 3.5625,39.0443182 C3.93465909,39.0471591 4.265625,39.1352273 4.55539773,39.3085227 C4.84517045,39.4818182 5.07315341,39.7183239 5.23934659,40.0180398 C5.40553977,40.3177557 5.48863636,40.6579545 5.48863636,41.0386364 C5.48863636,41.4107955 5.40838068,41.743892 5.24786932,42.0379261 C5.08735795,42.3319602 4.8671875,42.5627841 4.58735795,42.7303977 C4.30752841,42.8980114 3.98863636,42.9818182 3.63068182,42.9818182 C3.18465909,42.9818182 2.80184659,42.853267 2.48224432,42.5961648 C2.16264205,42.3390625 1.98295455,42.0130682 1.94318182,41.6181818 L1.94318182,41.6181818 L0.920454545,41.6181818 C0.943181818,42.0613636 1.07528409,42.45625 1.31676136,42.8028409 C1.55823864,43.1494318 1.87926136,43.4221591 2.27982955,43.6210227 C2.68039773,43.8198864 3.13068182,43.9193182 3.63068182,43.9193182 Z M11.0454545,43.9193182 C11.6875,43.9193182 12.234375,43.743892 12.6860795,43.3930398 C13.1377841,43.0421875 13.4829545,42.5322443 13.7215909,41.8632102 C13.9602273,41.1941761 14.0795455,40.3852273 14.0795455,39.4363636 C14.0795455,38.4931818 13.959517,37.6870739 13.7194602,37.0180398 C13.4794034,36.3490057 13.1328125,35.837642 12.6796875,35.4839489 C12.2265625,35.1302557 11.6818182,34.9534091 11.0454545,34.9534091 C10.4090909,34.9534091 9.86434659,35.1302557 9.41122159,35.4839489 C8.95809659,35.837642 8.61150568,36.3490057 8.37144886,37.0180398 C8.13139205,37.6870739 8.01136364,38.4931818 8.01136364,39.4363636 C8.01136364,40.3852273 8.13068182,41.1941761 8.36931818,41.8632102 C8.60795455,42.5322443 8.953125,43.0421875 9.40482955,43.3930398 C9.85653409,43.743892 10.4034091,43.9193182 11.0454545,43.9193182 Z M11.0454545,42.9818182 C10.6221591,42.9818182 10.2606534,42.8440341 9.9609375,42.5684659 C9.66122159,42.2928977 9.43181818,41.8909091 9.27272727,41.3625 C9.11363636,40.8340909 9.03409091,40.1920455 9.03409091,39.4363636 C9.03409091,38.3028409 9.21164773,37.4257102 9.56676136,36.8049716 C9.921875,36.184233 10.4147727,35.8738636 11.0454545,35.8738636 C11.4659091,35.8738636 11.8259943,36.0130682 12.1257102,36.2914773 C12.4254261,36.5698864 12.6555398,36.9747159 12.8160511,37.5059659 C12.9765625,38.0372159 13.0568182,38.6806818 13.0568182,39.4363636 C13.0568182,40.5727273 12.8806818,41.4477273 12.5284091,42.0613636 C12.1761364,42.675 11.6818182,42.9818182 11.0454545,42.9818182 Z M18.5454545,43.9193182 C19.1875,43.9193182 19.734375,43.743892 20.1860795,43.3930398 C20.6377841,43.0421875 20.9829545,42.5322443 21.2215909,41.8632102 C21.4602273,41.1941761 21.5795455,40.3852273 21.5795455,39.4363636 C21.5795455,38.4931818 21.459517,37.6870739 21.2194602,37.0180398 C20.9794034,36.3490057 20.6328125,35.837642 20.1796875,35.4839489 C19.7265625,35.1302557 19.1818182,34.9534091 18.5454545,34.9534091 C17.9090909,34.9534091 17.3643466,35.1302557 16.9112216,35.4839489 C16.4580966,35.837642 16.1115057,36.3490057 15.8714489,37.0180398 C15.631392,37.6870739 15.5113636,38.4931818 15.5113636,39.4363636 C15.5113636,40.3852273 15.6306818,41.1941761 15.8693182,41.8632102 C16.1079545,42.5322443 16.453125,43.0421875 16.9048295,43.3930398 C17.3565341,43.743892 17.9034091,43.9193182 18.5454545,43.9193182 Z M18.5454545,42.9818182 C18.1221591,42.9818182 17.7606534,42.8440341 17.4609375,42.5684659 C17.1612216,42.2928977 16.9318182,41.8909091 16.7727273,41.3625 C16.6136364,40.8340909 16.5340909,40.1920455 16.5340909,39.4363636 C16.5340909,38.3028409 16.7116477,37.4257102 17.0667614,36.8049716 C17.421875,36.184233 17.9147727,35.8738636 18.5454545,35.8738636 C18.9659091,35.8738636 19.3259943,36.0130682 19.6257102,36.2914773 C19.9254261,36.5698864 20.1555398,36.9747159 20.3160511,37.5059659 C20.4765625,38.0372159 20.5568182,38.6806818 20.5568182,39.4363636 C20.5568182,40.5727273 20.3806818,41.4477273 20.0284091,42.0613636 C19.6761364,42.675 19.1818182,42.9818182 18.5454545,42.9818182 Z"></path>
                </g>
                <g id="300" opacity="0.400000006" transform="translate(117.600000, 87.000000)" fill="#000000" fill-rule="nonzero">
                    <path d="M2.34375,24.2 L4.213,18.942 L11.536,18.942 L13.40625,24.2 L15.0767045,24.2 L8.72727273,6.74545455 L7.02272727,6.74545455 L0.673295455,24.2 L2.34375,24.2 Z M11.026,17.51 L4.723,17.51 L7.81534091,8.81647727 L7.93465909,8.81647727 L11.026,17.51 Z M21.4090909,24.4982955 C22.1363636,24.4982955 22.7698864,24.3818182 23.3096591,24.1488636 C23.8494318,23.9159091 24.2982955,23.6176136 24.65625,23.2539773 C25.0142045,22.8903409 25.2840909,22.5153409 25.4659091,22.1289773 L25.4659091,22.1289773 L25.5596591,22.1289773 L25.5596591,24.2 L27.0767045,24.2 L27.0767045,15.3107955 C27.0767045,14.4357955 26.9318182,13.7127841 26.6420455,13.1417614 C26.3522727,12.5707386 25.9744318,12.1247159 25.5085227,11.8036932 C25.0426136,11.4826705 24.5383523,11.2568182 23.9957386,11.1261364 C23.453125,10.9954545 22.9318182,10.9301136 22.4318182,10.9301136 C21.7670455,10.9301136 21.1107955,11.0252841 20.4630682,11.215625 C19.8153409,11.4059659 19.2301136,11.715625 18.7073864,12.1446023 C18.1846591,12.5735795 17.7755682,13.1460227 17.4801136,13.8619318 L17.4801136,13.8619318 L18.9204545,14.3818182 C19.1590909,13.8193182 19.5752841,13.3306818 20.1690341,12.9159091 C20.7627841,12.5011364 21.53125,12.29375 22.4744318,12.29375 C23.46875,12.29375 24.2315341,12.5508523 24.7627841,13.0650568 C25.2940341,13.5792614 25.5596591,14.2823864 25.5596591,15.1744318 L25.5596591,15.1744318 L25.5596591,15.48125 C25.5596591,15.8107955 25.4261364,16.0494318 25.1590909,16.1971591 C24.8920455,16.3448864 24.5042614,16.4528409 23.9957386,16.5210227 C23.4872159,16.5892045 22.8664773,16.66875 22.1335227,16.7596591 C21.3948864,16.8505682 20.71875,16.9784091 20.1051136,17.1431818 C19.4914773,17.3079545 18.9602273,17.5323864 18.5113636,17.8164773 C18.0625,18.1005682 17.7159091,18.4642045 17.4715909,18.9073864 C17.2272727,19.3505682 17.1051136,19.8960227 17.1051136,20.54375 C17.1051136,21.3846591 17.2982955,22.0991477 17.6846591,22.6872159 C18.0710227,23.2752841 18.5909091,23.7241477 19.2443182,24.0338068 C19.8977273,24.3434659 20.6193182,24.4982955 21.4090909,24.4982955 Z M21.6136364,23.1090909 C20.7556818,23.1090909 20.0426136,22.8917614 19.4744318,22.4571023 C18.90625,22.0224432 18.6221591,21.4073864 18.6221591,20.6119318 C18.6221591,20.0835227 18.7613636,19.6502841 19.0397727,19.3122159 C19.3181818,18.9741477 19.71875,18.7085227 20.2414773,18.5153409 C20.7642045,18.3221591 21.3948864,18.1801136 22.1335227,18.0892045 C22.40625,18.0551136 22.7130682,18.0153409 23.0539773,17.9698864 C23.3948864,17.9244318 23.7372159,17.8690341 24.0809659,17.8036932 C24.4247159,17.7383523 24.7286932,17.6630682 24.9928977,17.5778409 C25.2571023,17.4926136 25.4460227,17.3960227 25.5596591,17.2880682 L25.5596591,17.2880682 L25.5596591,19.1801136 C25.5596591,19.8960227 25.3991477,20.5508523 25.078125,21.1446023 C24.7571023,21.7383523 24.3011364,22.2142045 23.7102273,22.5721591 C23.1193182,22.9301136 22.4204545,23.1090909 21.6136364,23.1090909 Z" id="Aa"></path>
                    <path d="M3.85227273,43.9193182 C4.41761364,43.9193182 4.921875,43.8113636 5.36505682,43.5954545 C5.80823864,43.3795455 6.15838068,43.0833807 6.41548295,42.7069602 C6.67258523,42.3305398 6.80113636,41.9051136 6.80113636,41.4306818 C6.80113636,40.8767045 6.64630682,40.4115057 6.33664773,40.0350852 C6.02698864,39.6586648 5.59659091,39.425 5.04545455,39.3340909 L5.04545455,39.3340909 L5.04545455,39.2659091 C5.48579545,39.1323864 5.83451705,38.8923295 6.09161932,38.5457386 C6.34872159,38.1991477 6.47727273,37.7801136 6.47727273,37.2886364 C6.47727273,36.8767045 6.37357955,36.4931818 6.16619318,36.1380682 C5.95880682,35.7829545 5.66193182,35.496733 5.27556818,35.2794034 C4.88920455,35.0620739 4.42613636,34.9534091 3.88636364,34.9534091 C3.38352273,34.9534091 2.92258523,35.05 2.50355114,35.2431818 C2.08451705,35.4363636 1.74573864,35.7055398 1.48721591,36.0507102 C1.22869318,36.3958807 1.09090909,36.7971591 1.07386364,37.2545455 L1.07386364,37.2545455 L2.09659091,37.2545455 C2.11079545,36.9647727 2.20170455,36.7169034 2.36931818,36.5109375 C2.53693182,36.3049716 2.75355114,36.1473011 3.01917614,36.0379261 C3.28480114,35.9285511 3.56818182,35.8738636 3.86931818,35.8738636 C4.19034091,35.8738636 4.46946023,35.9349432 4.70667614,36.0571023 C4.94389205,36.1792614 5.12784091,36.3497159 5.25852273,36.5684659 C5.38920455,36.7872159 5.45454545,37.0443182 5.45454545,37.3397727 C5.45454545,37.6465909 5.37997159,37.9136364 5.23082386,38.1409091 C5.08167614,38.3681818 4.87571023,38.5443182 4.61292614,38.6693182 C4.35014205,38.7943182 4.04545455,38.8568182 3.69886364,38.8568182 L3.69886364,38.8568182 L3,38.8568182 L3,39.7943182 L3.69886364,39.7943182 C4.14204545,39.7943182 4.51704545,39.8639205 4.82386364,40.003125 C5.13068182,40.1423295 5.36363636,40.3348011 5.52272727,40.5805398 C5.68181818,40.8262784 5.76136364,41.1096591 5.76136364,41.4306818 C5.76136364,41.7375 5.67897727,42.0073864 5.51420455,42.2403409 C5.34943182,42.4732955 5.12215909,42.6551136 4.83238636,42.7857955 C4.54261364,42.9164773 4.21022727,42.9818182 3.83522727,42.9818182 C3.5,42.9818182 3.19460227,42.9264205 2.91903409,42.815625 C2.64346591,42.7048295 2.42045455,42.5478693 2.25,42.3447443 C2.07954545,42.1416193 1.98295455,41.8994318 1.96022727,41.6181818 L1.96022727,41.6181818 L0.886363636,41.6181818 C0.909090909,42.0755682 1.04900568,42.4768466 1.30610795,42.822017 C1.56321023,43.1671875 1.91122159,43.4363636 2.35014205,43.6295455 C2.7890625,43.8227273 3.28977273,43.9193182 3.85227273,43.9193182 Z M11.3863636,43.9193182 C12.0284091,43.9193182 12.5752841,43.743892 13.0269886,43.3930398 C13.4786932,43.0421875 13.8238636,42.5322443 14.0625,41.8632102 C14.3011364,41.1941761 14.4204545,40.3852273 14.4204545,39.4363636 C14.4204545,38.4931818 14.3004261,37.6870739 14.0603693,37.0180398 C13.8203125,36.3490057 13.4737216,35.837642 13.0205966,35.4839489 C12.5674716,35.1302557 12.0227273,34.9534091 11.3863636,34.9534091 C10.75,34.9534091 10.2052557,35.1302557 9.75213068,35.4839489 C9.29900568,35.837642 8.95241477,36.3490057 8.71235795,37.0180398 C8.47230114,37.6870739 8.35227273,38.4931818 8.35227273,39.4363636 C8.35227273,40.3852273 8.47159091,41.1941761 8.71022727,41.8632102 C8.94886364,42.5322443 9.29403409,43.0421875 9.74573864,43.3930398 C10.1974432,43.743892 10.7443182,43.9193182 11.3863636,43.9193182 Z M11.3863636,42.9818182 C10.9630682,42.9818182 10.6015625,42.8440341 10.3018466,42.5684659 C10.0021307,42.2928977 9.77272727,41.8909091 9.61363636,41.3625 C9.45454545,40.8340909 9.375,40.1920455 9.375,39.4363636 C9.375,38.3028409 9.55255682,37.4257102 9.90767045,36.8049716 C10.2627841,36.184233 10.7556818,35.8738636 11.3863636,35.8738636 C11.8068182,35.8738636 12.1669034,36.0130682 12.4666193,36.2914773 C12.7663352,36.5698864 12.9964489,36.9747159 13.1569602,37.5059659 C13.3174716,38.0372159 13.3977273,38.6806818 13.3977273,39.4363636 C13.3977273,40.5727273 13.2215909,41.4477273 12.8693182,42.0613636 C12.5170455,42.675 12.0227273,42.9818182 11.3863636,42.9818182 Z M18.8863636,43.9193182 C19.5284091,43.9193182 20.0752841,43.743892 20.5269886,43.3930398 C20.9786932,43.0421875 21.3238636,42.5322443 21.5625,41.8632102 C21.8011364,41.1941761 21.9204545,40.3852273 21.9204545,39.4363636 C21.9204545,38.4931818 21.8004261,37.6870739 21.5603693,37.0180398 C21.3203125,36.3490057 20.9737216,35.837642 20.5205966,35.4839489 C20.0674716,35.1302557 19.5227273,34.9534091 18.8863636,34.9534091 C18.25,34.9534091 17.7052557,35.1302557 17.2521307,35.4839489 C16.7990057,35.837642 16.4524148,36.3490057 16.212358,37.0180398 C15.9723011,37.6870739 15.8522727,38.4931818 15.8522727,39.4363636 C15.8522727,40.3852273 15.9715909,41.1941761 16.2102273,41.8632102 C16.4488636,42.5322443 16.7940341,43.0421875 17.2457386,43.3930398 C17.6974432,43.743892 18.2443182,43.9193182 18.8863636,43.9193182 Z M18.8863636,42.9818182 C18.4630682,42.9818182 18.1015625,42.8440341 17.8018466,42.5684659 C17.5021307,42.2928977 17.2727273,41.8909091 17.1136364,41.3625 C16.9545455,40.8340909 16.875,40.1920455 16.875,39.4363636 C16.875,38.3028409 17.0525568,37.4257102 17.4076705,36.8049716 C17.7627841,36.184233 18.2556818,35.8738636 18.8863636,35.8738636 C19.3068182,35.8738636 19.6669034,36.0130682 19.9666193,36.2914773 C20.2663352,36.5698864 20.4964489,36.9747159 20.6569602,37.5059659 C20.8174716,38.0372159 20.8977273,38.6806818 20.8977273,39.4363636 C20.8977273,40.5727273 20.7215909,41.4477273 20.3693182,42.0613636 C20.0170455,42.675 19.5227273,42.9818182 18.8863636,42.9818182 Z"></path>
                </g>
                <g id="200" opacity="0.400000006" transform="translate(67.200000, 87.000000)" fill="#000000" fill-rule="nonzero">
                    <path d="M1.84943182,24.2 L3.843,18.618 L11.429,18.618 L13.4232955,24.2 L14.5482955,24.2 L8.25,6.74545455 L7.02272727,6.74545455 L0.724431818,24.2 L1.84943182,24.2 Z M11.076,17.629 L4.196,17.629 L7.59375,8.11761364 L7.67897727,8.11761364 L11.076,17.629 Z M20.8977273,24.48125 C21.5909091,24.48125 22.2144886,24.3633523 22.7684659,24.1275568 C23.3224432,23.8917614 23.796875,23.5735795 24.1917614,23.1730114 C24.5866477,22.7724432 24.8977273,22.3278409 25.125,21.8392045 L25.125,21.8392045 L25.2017045,21.8392045 L25.2017045,24.2 L26.2414773,24.2 L26.2414773,15.0551136 C26.2414773,14.3335227 26.1193182,13.7127841 25.875,13.1928977 C25.6306818,12.6730114 25.2997159,12.2454545 24.8821023,11.9102273 C24.4644886,11.575 23.9900568,11.325 23.4588068,11.1602273 C22.9275568,10.9954545 22.3693182,10.9130682 21.7840909,10.9130682 C21.1079545,10.9130682 20.4616477,11.0153409 19.8451705,11.2198864 C19.2286932,11.4244318 18.6832386,11.7340909 18.2088068,12.1488636 C17.734375,12.5636364 17.3721591,13.0835227 17.1221591,13.7085227 L17.1221591,13.7085227 L18.1022727,14.075 C18.3579545,13.4272727 18.8053977,12.8974432 19.4446023,12.4855114 C20.0838068,12.0735795 20.8721591,11.8676136 21.8096591,11.8676136 C22.8664773,11.8676136 23.6960227,12.1488636 24.2982955,12.7113636 C24.9005682,13.2738636 25.2017045,14.0323864 25.2017045,14.9869318 L25.2017045,14.9869318 L25.2017045,15.5323864 C25.2017045,15.8676136 25.0525568,16.1176136 24.7542614,16.2823864 C24.4559659,16.4471591 24.0454545,16.5678977 23.5227273,16.6446023 C23,16.7213068 22.40625,16.7994318 21.7414773,16.8789773 C20.8664773,16.9869318 20.1136364,17.1389205 19.4829545,17.3349432 C18.8522727,17.5309659 18.3352273,17.7795455 17.9318182,18.0806818 C17.5284091,18.3818182 17.2301136,18.7397727 17.0369318,19.1545455 C16.84375,19.5693182 16.7471591,20.0494318 16.7471591,20.5948864 C16.7471591,21.4244318 16.9360795,22.1289773 17.3139205,22.7085227 C17.6917614,23.2880682 18.1946023,23.7284091 18.8224432,24.0295455 C19.4502841,24.3306818 20.1420455,24.48125 20.8977273,24.48125 Z M21,23.5181818 C20.0852273,23.5181818 19.3210227,23.2596591 18.7073864,22.7426136 C18.09375,22.2255682 17.7869318,21.5210227 17.7869318,20.6289773 C17.7869318,20.0892045 17.9247159,19.6289773 18.2002841,19.2482955 C18.4758523,18.8676136 18.9133523,18.559375 19.5127841,18.3235795 C20.1122159,18.0877841 20.8892045,17.9130682 21.84375,17.7994318 C22.1619318,17.7596591 22.4900568,17.715625 22.828125,17.6673295 C23.1661932,17.6190341 23.4900568,17.5622159 23.7997159,17.496875 C24.109375,17.4315341 24.3877841,17.3548295 24.6349432,17.2667614 C24.8821023,17.1786932 25.0710227,17.0778409 25.2017045,16.9642045 L25.2017045,16.9642045 L25.2017045,18.8903409 C25.2017045,19.7767045 25.0227273,20.5693182 24.6647727,21.2681818 C24.3068182,21.9670455 23.8110795,22.5167614 23.1775568,22.9173295 C22.5440341,23.3178977 21.8181818,23.5181818 21,23.5181818 Z" id="Aa"></path>
                    <path d="M6.40909091,43.8 L6.40909091,42.8625 L2.35227273,42.8625 L2.35227273,42.7943182 L4.3125,40.6977273 C4.8125,40.1607955 5.20383523,39.7055398 5.48650568,39.3319602 C5.76917614,38.9583807 5.96803977,38.618892 6.08309659,38.3134943 C6.19815341,38.0080966 6.25568182,37.6948864 6.25568182,37.3738636 C6.25568182,36.925 6.14346591,36.5173295 5.91903409,36.1508523 C5.69460227,35.784375 5.38494318,35.4931818 4.99005682,35.2772727 C4.59517045,35.0613636 4.14204545,34.9534091 3.63068182,34.9534091 C3.12215909,34.9534091 2.6640625,35.0613636 2.25639205,35.2772727 C1.84872159,35.4931818 1.52698864,35.7943182 1.29119318,36.1806818 C1.05539773,36.5670455 0.9375,37.0159091 0.9375,37.5272727 L0.9375,37.5272727 L1.94318182,37.5272727 C1.94318182,37.1948864 2.01065341,36.9051136 2.14559659,36.6579545 C2.28053977,36.4107955 2.47230114,36.2183239 2.72088068,36.0805398 C2.96946023,35.9427557 3.26136364,35.8738636 3.59659091,35.8738636 C3.91193182,35.8738636 4.19602273,35.9349432 4.44886364,36.0571023 C4.70170455,36.1792614 4.90127841,36.3525568 5.04758523,36.5769886 C5.19389205,36.8014205 5.26704545,37.0670455 5.26704545,37.3738636 C5.26704545,37.6409091 5.21377841,37.8958807 5.10724432,38.1387784 C5.00071023,38.3816761 4.83806818,38.6401989 4.61931818,38.9143466 C4.40056818,39.1884943 4.12215909,39.5102273 3.78409091,39.8795455 L3.78409091,39.8795455 L0.903409091,43.0329545 L0.903409091,43.8 L6.40909091,43.8 Z M11.0113636,43.9193182 C11.6534091,43.9193182 12.2002841,43.743892 12.6519886,43.3930398 C13.1036932,43.0421875 13.4488636,42.5322443 13.6875,41.8632102 C13.9261364,41.1941761 14.0454545,40.3852273 14.0454545,39.4363636 C14.0454545,38.4931818 13.9254261,37.6870739 13.6853693,37.0180398 C13.4453125,36.3490057 13.0987216,35.837642 12.6455966,35.4839489 C12.1924716,35.1302557 11.6477273,34.9534091 11.0113636,34.9534091 C10.375,34.9534091 9.83025568,35.1302557 9.37713068,35.4839489 C8.92400568,35.837642 8.57741477,36.3490057 8.33735795,37.0180398 C8.09730114,37.6870739 7.97727273,38.4931818 7.97727273,39.4363636 C7.97727273,40.3852273 8.09659091,41.1941761 8.33522727,41.8632102 C8.57386364,42.5322443 8.91903409,43.0421875 9.37073864,43.3930398 C9.82244318,43.743892 10.3693182,43.9193182 11.0113636,43.9193182 Z M11.0113636,42.9818182 C10.5880682,42.9818182 10.2265625,42.8440341 9.92684659,42.5684659 C9.62713068,42.2928977 9.39772727,41.8909091 9.23863636,41.3625 C9.07954545,40.8340909 9,40.1920455 9,39.4363636 C9,38.3028409 9.17755682,37.4257102 9.53267045,36.8049716 C9.88778409,36.184233 10.3806818,35.8738636 11.0113636,35.8738636 C11.4318182,35.8738636 11.7919034,36.0130682 12.0916193,36.2914773 C12.3913352,36.5698864 12.6214489,36.9747159 12.7819602,37.5059659 C12.9424716,38.0372159 13.0227273,38.6806818 13.0227273,39.4363636 C13.0227273,40.5727273 12.8465909,41.4477273 12.4943182,42.0613636 C12.1420455,42.675 11.6477273,42.9818182 11.0113636,42.9818182 Z M18.5113636,43.9193182 C19.1534091,43.9193182 19.7002841,43.743892 20.1519886,43.3930398 C20.6036932,43.0421875 20.9488636,42.5322443 21.1875,41.8632102 C21.4261364,41.1941761 21.5454545,40.3852273 21.5454545,39.4363636 C21.5454545,38.4931818 21.4254261,37.6870739 21.1853693,37.0180398 C20.9453125,36.3490057 20.5987216,35.837642 20.1455966,35.4839489 C19.6924716,35.1302557 19.1477273,34.9534091 18.5113636,34.9534091 C17.875,34.9534091 17.3302557,35.1302557 16.8771307,35.4839489 C16.4240057,35.837642 16.0774148,36.3490057 15.837358,37.0180398 C15.5973011,37.6870739 15.4772727,38.4931818 15.4772727,39.4363636 C15.4772727,40.3852273 15.5965909,41.1941761 15.8352273,41.8632102 C16.0738636,42.5322443 16.4190341,43.0421875 16.8707386,43.3930398 C17.3224432,43.743892 17.8693182,43.9193182 18.5113636,43.9193182 Z M18.5113636,42.9818182 C18.0880682,42.9818182 17.7265625,42.8440341 17.4268466,42.5684659 C17.1271307,42.2928977 16.8977273,41.8909091 16.7386364,41.3625 C16.5795455,40.8340909 16.5,40.1920455 16.5,39.4363636 C16.5,38.3028409 16.6775568,37.4257102 17.0326705,36.8049716 C17.3877841,36.184233 17.8806818,35.8738636 18.5113636,35.8738636 C18.9318182,35.8738636 19.2919034,36.0130682 19.5916193,36.2914773 C19.8913352,36.5698864 20.1214489,36.9747159 20.2819602,37.5059659 C20.4424716,38.0372159 20.5227273,38.6806818 20.5227273,39.4363636 C20.5227273,40.5727273 20.3465909,41.4477273 19.9943182,42.0613636 C19.6420455,42.675 19.1477273,42.9818182 18.5113636,42.9818182 Z"></path>
                </g>
                <g id="100" opacity="0.400000006" transform="translate(16.800000, 87.000000)" fill="#000000" fill-rule="nonzero">
                    <path d="M1.36363636,24.2 L3.473,18.303 L11.321,18.303 L13.4318182,24.2 L14.0113636,24.2 L7.77272727,6.74545455 L7.02272727,6.74545455 L0.784090909,24.2 L1.36363636,24.2 Z M11.126,17.757 L3.668,17.757 L7.36363636,7.42727273 L7.43181818,7.42727273 L11.126,17.757 Z M20.3863636,24.4727273 C21.0454545,24.4727273 21.6576705,24.3519886 22.2230114,24.1105114 C22.7883523,23.8690341 23.2883523,23.528125 23.7230114,23.0877841 C24.1576705,22.6474432 24.5113636,22.1318182 24.7840909,21.5409091 L24.7840909,21.5409091 L24.8522727,21.5409091 L24.8522727,24.2 L25.3977273,24.2 L25.3977273,14.7909091 C25.3977273,14.2340909 25.3011364,13.7198864 25.1079545,13.2482955 C24.9147727,12.7767045 24.6335227,12.3661932 24.2642045,12.0167614 C23.8948864,11.6673295 23.4474432,11.3946023 22.921875,11.1985795 C22.3963068,11.0025568 21.8011364,10.9045455 21.1363636,10.9045455 C20.4545455,10.9045455 19.8210227,11.0125 19.2357955,11.2284091 C18.6505682,11.4443182 18.1448864,11.7511364 17.71875,12.1488636 C17.2926136,12.5465909 16.9772727,13.0181818 16.7727273,13.5636364 L16.7727273,13.5636364 L17.2840909,13.7681818 C17.5568182,13.0352273 18.0369318,12.465625 18.7244318,12.059375 C19.4119318,11.653125 20.2159091,11.45 21.1363636,11.45 C22.2613636,11.45 23.1619318,11.7553977 23.8380682,12.3661932 C24.5142045,12.9769886 24.8522727,13.7852273 24.8522727,14.7909091 L24.8522727,14.7909091 L24.8522727,15.575 C24.8522727,15.9159091 24.6846591,16.1772727 24.3494318,16.3590909 C24.0142045,16.5409091 23.5795455,16.6772727 23.0454545,16.7681818 C22.5113636,16.8590909 21.9431818,16.9386364 21.3409091,17.0068182 C20.3352273,17.1261364 19.5099432,17.2994318 18.8650568,17.5267045 C18.2201705,17.7539773 17.71875,18.0267045 17.3607955,18.3448864 C17.0028409,18.6630682 16.7528409,19.0167614 16.6107955,19.4059659 C16.46875,19.7951705 16.3977273,20.2113636 16.3977273,20.6545455 C16.3977273,21.4727273 16.5809659,22.1659091 16.9474432,22.7340909 C17.3139205,23.3022727 17.7997159,23.7340909 18.4048295,24.0295455 C19.0099432,24.325 19.6704545,24.4727273 20.3863636,24.4727273 Z M20.3863636,23.9272727 C19.4147727,23.9272727 18.5980114,23.6289773 17.9360795,23.0323864 C17.2741477,22.4357955 16.9431818,21.6431818 16.9431818,20.6545455 C16.9431818,20.0977273 17.0823864,19.6090909 17.3607955,19.1886364 C17.6392045,18.7681818 18.1136364,18.41875 18.7840909,18.1403409 C19.4545455,17.8619318 20.375,17.6545455 21.5454545,17.5181818 C21.9204545,17.4727273 22.2727273,17.4244318 22.6022727,17.3732955 C22.9318182,17.3221591 23.2372159,17.2610795 23.5184659,17.1900568 C23.7997159,17.1190341 24.0525568,17.0380682 24.2769886,16.9471591 C24.5014205,16.85625 24.6931818,16.7511364 24.8522727,16.6318182 L24.8522727,16.6318182 L24.8522727,18.6090909 C24.8522727,19.6659091 24.6534091,20.5934659 24.2556818,21.3917614 C23.8579545,22.1900568 23.3210227,22.8122159 22.6448864,23.2582386 C21.96875,23.7042614 21.2159091,23.9272727 20.3863636,23.9272727 Z" id="Aa"></path>
                    <path d="M3.97159091,43.8 L3.97159091,35.0727273 L2.91477273,35.0727273 L0.732954545,36.5215909 L0.732954545,37.5954545 L2.86363636,36.1806818 L2.91477273,36.1806818 L2.91477273,43.8 L3.97159091,43.8 Z M9.32386364,43.9193182 C9.96590909,43.9193182 10.5127841,43.743892 10.9644886,43.3930398 C11.4161932,43.0421875 11.7613636,42.5322443 12,41.8632102 C12.2386364,41.1941761 12.3579545,40.3852273 12.3579545,39.4363636 C12.3579545,38.4931818 12.2379261,37.6870739 11.9978693,37.0180398 C11.7578125,36.3490057 11.4112216,35.837642 10.9580966,35.4839489 C10.5049716,35.1302557 9.96022727,34.9534091 9.32386364,34.9534091 C8.6875,34.9534091 8.14275568,35.1302557 7.68963068,35.4839489 C7.23650568,35.837642 6.88991477,36.3490057 6.64985795,37.0180398 C6.40980114,37.6870739 6.28977273,38.4931818 6.28977273,39.4363636 C6.28977273,40.3852273 6.40909091,41.1941761 6.64772727,41.8632102 C6.88636364,42.5322443 7.23153409,43.0421875 7.68323864,43.3930398 C8.13494318,43.743892 8.68181818,43.9193182 9.32386364,43.9193182 Z M9.32386364,42.9818182 C8.90056818,42.9818182 8.5390625,42.8440341 8.23934659,42.5684659 C7.93963068,42.2928977 7.71022727,41.8909091 7.55113636,41.3625 C7.39204545,40.8340909 7.3125,40.1920455 7.3125,39.4363636 C7.3125,38.3028409 7.49005682,37.4257102 7.84517045,36.8049716 C8.20028409,36.184233 8.69318182,35.8738636 9.32386364,35.8738636 C9.74431818,35.8738636 10.1044034,36.0130682 10.4041193,36.2914773 C10.7038352,36.5698864 10.9339489,36.9747159 11.0944602,37.5059659 C11.2549716,38.0372159 11.3352273,38.6806818 11.3352273,39.4363636 C11.3352273,40.5727273 11.1590909,41.4477273 10.8068182,42.0613636 C10.4545455,42.675 9.96022727,42.9818182 9.32386364,42.9818182 Z M16.8238636,43.9193182 C17.4659091,43.9193182 18.0127841,43.743892 18.4644886,43.3930398 C18.9161932,43.0421875 19.2613636,42.5322443 19.5,41.8632102 C19.7386364,41.1941761 19.8579545,40.3852273 19.8579545,39.4363636 C19.8579545,38.4931818 19.7379261,37.6870739 19.4978693,37.0180398 C19.2578125,36.3490057 18.9112216,35.837642 18.4580966,35.4839489 C18.0049716,35.1302557 17.4602273,34.9534091 16.8238636,34.9534091 C16.1875,34.9534091 15.6427557,35.1302557 15.1896307,35.4839489 C14.7365057,35.837642 14.3899148,36.3490057 14.149858,37.0180398 C13.9098011,37.6870739 13.7897727,38.4931818 13.7897727,39.4363636 C13.7897727,40.3852273 13.9090909,41.1941761 14.1477273,41.8632102 C14.3863636,42.5322443 14.7315341,43.0421875 15.1832386,43.3930398 C15.6349432,43.743892 16.1818182,43.9193182 16.8238636,43.9193182 Z M16.8238636,42.9818182 C16.4005682,42.9818182 16.0390625,42.8440341 15.7393466,42.5684659 C15.4396307,42.2928977 15.2102273,41.8909091 15.0511364,41.3625 C14.8920455,40.8340909 14.8125,40.1920455 14.8125,39.4363636 C14.8125,38.3028409 14.9900568,37.4257102 15.3451705,36.8049716 C15.7002841,36.184233 16.1931818,35.8738636 16.8238636,35.8738636 C17.2443182,35.8738636 17.6044034,36.0130682 17.9041193,36.2914773 C18.2038352,36.5698864 18.4339489,36.9747159 18.5944602,37.5059659 C18.7549716,38.0372159 18.8352273,38.6806818 18.8352273,39.4363636 C18.8352273,40.5727273 18.6590909,41.4477273 18.3068182,42.0613636 C17.9545455,42.675 17.4602273,42.9818182 16.8238636,42.9818182 Z"></path>
                </g>
                <line x1="0.3" y1="66.7" x2="552.3" y2="66.7" id="Line" stroke="#000000" stroke-width="1.5" opacity="0.400000006" stroke-linecap="square" stroke-dasharray="4"></line>
                <path d="M495.404,30.368 C495.898667,30.368 496.353667,30.3096667 496.769,30.193 C497.184333,30.0763333 497.543667,29.8943333 497.847,29.647 C498.150333,29.3996667 498.388333,29.0893333 498.561,28.716 C498.733667,28.3426667 498.82,27.904 498.82,27.4 L498.82,27.4 L498.82,20.652 C498.670667,20.596 498.484,20.5423333 498.26,20.491 C498.036,20.4396667 497.791,20.3953333 497.525,20.358 C497.259,20.3206667 496.976667,20.2903333 496.678,20.267 C496.379333,20.2436667 496.080667,20.232 495.782,20.232 C495.212667,20.232 494.697,20.3136667 494.235,20.477 C493.773,20.6403333 493.376333,20.883 493.045,21.205 C492.713667,21.527 492.457,21.926 492.275,22.402 C492.093,22.878 492.002,23.424 492.002,24.04 C492.002,24.628 492.079,25.1413333 492.233,25.58 C492.387,26.0186667 492.604,26.3803333 492.884,26.665 C493.164,26.9496667 493.493,27.162 493.871,27.302 C494.249,27.442 494.662,27.512 495.11,27.512 C495.539333,27.512 495.917333,27.4583333 496.244,27.351 C496.570667,27.2436667 496.818,27.078 496.986,26.854 L496.986,26.854 L497.042,26.854 L497.042,27.302 C497.042,27.806 496.888,28.1933333 496.58,28.464 C496.272,28.7346667 495.824,28.87 495.236,28.87 C494.76,28.87 494.365667,28.8023333 494.053,28.667 C493.740333,28.5316667 493.472,28.3893333 493.248,28.24 L493.248,28.24 L492.548,29.528 C492.66,29.6213333 492.809333,29.717 492.996,29.815 C493.182667,29.913 493.399667,30.004 493.647,30.088 C493.894333,30.172 494.165,30.2396667 494.459,30.291 C494.753,30.3423333 495.068,30.368 495.404,30.368 Z M495.46,26.056 C495.245333,26.056 495.044667,26.0116667 494.858,25.923 C494.671333,25.8343333 494.503333,25.7013333 494.354,25.524 C494.204667,25.3466667 494.088,25.1273333 494.004,24.866 C493.92,24.6046667 493.878,24.306 493.878,23.97 C493.878,23.5873333 493.927,23.2583333 494.025,22.983 C494.123,22.7076667 494.258333,22.479 494.431,22.297 C494.603667,22.115 494.804333,21.982 495.033,21.898 C495.261667,21.814 495.506667,21.772 495.768,21.772 C495.982667,21.772 496.209,21.7883333 496.447,21.821 C496.685,21.8536667 496.869333,21.898 497,21.954 L497,21.954 L497,25.104 C496.897333,25.4213333 496.703667,25.6593333 496.419,25.818 C496.134333,25.9766667 495.814667,26.056 495.46,26.056 Z M504.812,27.596 C505.073333,27.596 505.309,27.5796667 505.519,27.547 C505.729,27.5143333 505.922667,27.4676667 506.1,27.407 C506.277333,27.3463333 506.445333,27.2716667 506.604,27.183 C506.762667,27.0943333 506.921333,26.9986667 507.08,26.896 L507.08,26.896 L506.394,25.636 C506.207333,25.748 506.020667,25.8343333 505.834,25.895 C505.647333,25.9556667 505.409333,25.986 505.12,25.986 C504.728,25.986 504.443333,25.846 504.266,25.566 C504.088667,25.286 504,24.7866667 504,24.068 L504,24.068 L504,17.6 L501.018,17.6 L501.018,19.14 L502.18,19.14 L502.18,25.02 C502.18,25.8413333 502.399333,26.476 502.838,26.924 C503.276667,27.372 503.934667,27.596 504.812,27.596 Z M512.4,27.596 C512.96,27.596 513.466333,27.5143333 513.919,27.351 C514.371667,27.1876667 514.761333,26.9473333 515.088,26.63 C515.414667,26.3126667 515.666667,25.9253333 515.844,25.468 C516.021333,25.0106667 516.11,24.488 516.11,23.9 C516.11,23.3493333 516.028333,22.8453333 515.865,22.388 C515.701667,21.9306667 515.461333,21.541 515.144,21.219 C514.826667,20.897 514.437,20.6473333 513.975,20.47 C513.513,20.2926667 512.988,20.204 512.4,20.204 C511.84,20.204 511.333667,20.2856667 510.881,20.449 C510.428333,20.6123333 510.038667,20.8526667 509.712,21.17 C509.385333,21.4873333 509.133333,21.8746667 508.956,22.332 C508.778667,22.7893333 508.69,23.312 508.69,23.9 C508.69,24.4506667 508.771667,24.9546667 508.935,25.412 C509.098333,25.8693333 509.338667,26.259 509.656,26.581 C509.973333,26.903 510.363,27.1526667 510.825,27.33 C511.287,27.5073333 511.812,27.596 512.4,27.596 Z M512.4,26.056 C512.110667,26.056 511.854,26.0023333 511.63,25.895 C511.406,25.7876667 511.214667,25.636 511.056,25.44 C510.897333,25.244 510.776,25.0153333 510.692,24.754 C510.608,24.4926667 510.566,24.208 510.566,23.9 C510.566,23.5173333 510.612667,23.1906667 510.706,22.92 C510.799333,22.6493333 510.927667,22.4253333 511.091,22.248 C511.254333,22.0706667 511.448,21.9423333 511.672,21.863 C511.896,21.7836667 512.138667,21.744 512.4,21.744 C512.988,21.744 513.440667,21.9423333 513.758,22.339 C514.075333,22.7356667 514.234,23.256 514.234,23.9 C514.234,24.6466667 514.063667,25.1926667 513.723,25.538 C513.382333,25.8833333 512.941333,26.056 512.4,26.056 Z M520.464,27.568 C521.08,27.568 521.633,27.484 522.123,27.316 C522.613,27.148 523.028333,26.903 523.369,26.581 C523.709667,26.259 523.973333,25.8576667 524.16,25.377 C524.346667,24.8963333 524.44,24.3433333 524.44,23.718 C524.44,22.5513333 524.162333,21.6786667 523.607,21.1 C523.051667,20.5213333 522.312,20.232 521.388,20.232 C520.902667,20.232 520.494333,20.2973333 520.163,20.428 C519.831667,20.5586667 519.568,20.736 519.372,20.96 L519.372,20.96 L519.316,20.96 L519.316,17.6 L516.418,17.6 L516.418,19.14 L517.496,19.14 L517.496,26.812 C517.766667,26.98 518.147,27.148 518.637,27.316 C519.127,27.484 519.736,27.568 520.464,27.568 Z M520.772,26.028 C520.473333,26.028 520.193333,25.9906667 519.932,25.916 C519.670667,25.8413333 519.465333,25.7666667 519.316,25.692 L519.316,25.692 L519.316,22.78 C519.372,22.6213333 519.463,22.479 519.589,22.353 C519.715,22.227 519.850333,22.122 519.995,22.038 C520.139667,21.954 520.291333,21.8886667 520.45,21.842 C520.608667,21.7953333 520.753333,21.772 520.884,21.772 C521.434667,21.772 521.852333,21.94 522.137,22.276 C522.421667,22.612 522.564,23.1113333 522.564,23.774 C522.564,24.166 522.517333,24.502 522.424,24.782 C522.330667,25.062 522.202333,25.2953333 522.039,25.482 C521.875667,25.6686667 521.684333,25.8063333 521.465,25.895 C521.245667,25.9836667 521.014667,26.028 520.772,26.028 Z M528.066,27.512 C528.654,27.512 529.120667,27.407 529.466,27.197 C529.811333,26.987 530.077333,26.7373333 530.264,26.448 L530.264,26.448 L530.334,26.448 L530.516,27.4 L532.84,27.4 L532.84,25.86 L531.93,25.86 C531.920667,25.7386667 531.906667,25.6126667 531.888,25.482 C531.869333,25.2393333 531.86,25.02 531.86,24.824 C531.86,24.5626667 531.876333,24.264 531.909,23.928 C531.941667,23.592 531.958,23.186 531.958,22.71 C531.958,22.3366667 531.911333,22.0006667 531.818,21.702 C531.724667,21.4033333 531.573,21.1466667 531.363,20.932 C531.153,20.7173333 530.877667,20.5516667 530.537,20.435 C530.196333,20.3183333 529.783333,20.26 529.298,20.26 C528.626,20.26 528.045,20.3206667 527.555,20.442 C527.065,20.5633333 526.633333,20.708 526.26,20.876 L526.26,20.876 L526.694,22.304 C526.955333,22.1826667 527.277333,22.0613333 527.66,21.94 C528.042667,21.8186667 528.472,21.758 528.948,21.758 C529.349333,21.758 529.652667,21.835 529.858,21.989 C530.063333,22.143 530.166,22.3973333 530.166,22.752 L530.166,22.752 L530.166,23.018 C530.166,23.1113333 530.156667,23.2046667 530.138,23.298 C529.867333,23.2793333 529.638667,23.2606667 529.452,23.242 C529.265333,23.2233333 529.088,23.214 528.92,23.214 C528.444,23.214 528.012333,23.2583333 527.625,23.347 C527.237667,23.4356667 526.906333,23.571 526.631,23.753 C526.355667,23.935 526.145667,24.1683333 526.001,24.453 C525.856333,24.7376667 525.784,25.076 525.784,25.468 C525.784,26.084 525.989333,26.5786667 526.4,26.952 C526.810667,27.3253333 527.366,27.512 528.066,27.512 Z M528.654,26.014 C528.299333,26.014 528.045,25.9416667 527.891,25.797 C527.737,25.6523333 527.66,25.4493333 527.66,25.188 C527.66,25.0293333 527.702,24.894 527.786,24.782 C527.87,24.67 527.982,24.579 528.122,24.509 C528.262,24.439 528.420667,24.3876667 528.598,24.355 C528.775333,24.3223333 528.952667,24.306 529.13,24.306 C529.344667,24.306 529.545333,24.3176667 529.732,24.341 C529.918667,24.3643333 530.058667,24.3853333 530.152,24.404 L530.152,24.404 L530.152,25.244 C530.049333,25.4306667 529.886,25.6056667 529.662,25.769 C529.438,25.9323333 529.102,26.014 528.654,26.014 Z M538.412,27.596 C538.673333,27.596 538.909,27.5796667 539.119,27.547 C539.329,27.5143333 539.522667,27.4676667 539.7,27.407 C539.877333,27.3463333 540.045333,27.2716667 540.204,27.183 C540.362667,27.0943333 540.521333,26.9986667 540.68,26.896 L540.68,26.896 L539.994,25.636 C539.807333,25.748 539.620667,25.8343333 539.434,25.895 C539.247333,25.9556667 539.009333,25.986 538.72,25.986 C538.328,25.986 538.043333,25.846 537.866,25.566 C537.688667,25.286 537.6,24.7866667 537.6,24.068 L537.6,24.068 L537.6,17.6 L534.618,17.6 L534.618,19.14 L535.78,19.14 L535.78,25.02 C535.78,25.8413333 535.999333,26.476 536.438,26.924 C536.876667,27.372 537.534667,27.596 538.412,27.596 Z" id="global" fill="#4269E0" fill-rule="nonzero"></path>
                <g id="700" transform="translate(319.200000, 0.000000)" fill="#000000" fill-rule="nonzero">
                    <path d="M4.52556818,24.2 L5.82,20.22 L12.122,20.22 L13.4147727,24.2 L17.3693182,24.2 L11.3522727,6.74545455 L6.59659091,6.74545455 L0.571022727,24.2 L4.52556818,24.2 Z M11.187,17.34 L6.757,17.34 L8.90625,10.7340909 L9.04261364,10.7340909 L11.187,17.34 Z M23.1306818,24.4471591 C23.7784091,24.4471591 24.3494318,24.3605114 24.84375,24.1872159 C25.3380682,24.0139205 25.7613636,23.7724432 26.1136364,23.4627841 C26.4659091,23.153125 26.7471591,22.79375 26.9573864,22.3846591 L26.9573864,22.3846591 L27.0596591,22.3846591 L27.0596591,24.2 L30.5028409,24.2 L30.5028409,15.3704545 C30.5028409,14.5920455 30.3522727,13.9230114 30.0511364,13.3633523 C29.75,12.8036932 29.3394886,12.3448864 28.8196023,11.9869318 C28.2997159,11.6289773 27.7059659,11.3647727 27.0383523,11.1943182 C26.3707386,11.0238636 25.6732955,10.9386364 24.9460227,10.9386364 C23.9005682,10.9386364 22.9815341,11.0963068 22.1889205,11.4116477 C21.3963068,11.7269886 20.75,12.1758523 20.25,12.7582386 C19.75,13.340625 19.4147727,14.0295455 19.2443182,14.825 L19.2443182,14.825 L22.6022727,15.0977273 C22.7272727,14.6659091 22.9829545,14.3065341 23.3693182,14.0196023 C23.7556818,13.7326705 24.2755682,13.5892045 24.9289773,13.5892045 C25.5482955,13.5892045 26.0269886,13.7369318 26.3650568,14.0323864 C26.703125,14.3278409 26.8721591,14.7454545 26.8721591,15.2852273 L26.8721591,15.2852273 L26.8721591,15.3363636 C26.8721591,15.6147727 26.7670455,15.825 26.5568182,15.9670455 C26.3465909,16.1090909 26.0085227,16.215625 25.5426136,16.2866477 C25.0767045,16.3576705 24.4630682,16.4329545 23.7017045,16.5125 C23.0539773,16.575 22.4360795,16.6829545 21.8480114,16.8363636 C21.2599432,16.9897727 20.7357955,17.2170455 20.2755682,17.5181818 C19.8153409,17.8193182 19.4517045,18.2170455 19.1846591,18.7113636 C18.9176136,19.2056818 18.7840909,19.8164773 18.7840909,20.54375 C18.7840909,21.4073864 18.9730114,22.1275568 19.3508523,22.7042614 C19.7286932,23.2809659 20.2443182,23.715625 20.8977273,24.0082386 C21.5511364,24.3008523 22.2954545,24.4471591 23.1306818,24.4471591 Z M24.1704545,21.9414773 C23.6136364,21.9414773 23.1548295,21.8122159 22.7940341,21.5536932 C22.4332386,21.2951705 22.2528409,20.91875 22.2528409,20.4244318 C22.2528409,20.0835227 22.3409091,19.7980114 22.5170455,19.5678977 C22.6931818,19.3377841 22.9403409,19.1545455 23.2585227,19.0181818 C23.5767045,18.8818182 23.9488636,18.7823864 24.375,18.7198864 C24.5738636,18.6914773 24.7954545,18.6588068 25.0397727,18.621875 C25.2840909,18.5849432 25.5284091,18.5423295 25.7727273,18.4940341 C26.0170455,18.4457386 26.2372159,18.3917614 26.4332386,18.3321023 C26.6292614,18.2724432 26.7840909,18.2056818 26.8977273,18.1318182 L26.8977273,18.1318182 L26.8977273,19.5210227 C26.8977273,19.98125 26.78125,20.3931818 26.5482955,20.7568182 C26.3153409,21.1204545 25.9943182,21.4088068 25.5852273,21.621875 C25.1761364,21.8349432 24.7045455,21.9414773 24.1704545,21.9414773 Z" id="Aa"></path>
                    <path d="M2.28409091,43.8 L6.17045455,36.0613636 L6.17045455,35.0727273 L0.579545455,35.0727273 L0.579545455,36.0102273 L5.07954545,36.0102273 L5.07954545,36.0784091 L1.17613636,43.8 L2.28409091,43.8 Z M10.4147727,43.9193182 C11.0568182,43.9193182 11.6036932,43.743892 12.0553977,43.3930398 C12.5071023,43.0421875 12.8522727,42.5322443 13.0909091,41.8632102 C13.3295455,41.1941761 13.4488636,40.3852273 13.4488636,39.4363636 C13.4488636,38.4931818 13.3288352,37.6870739 13.0887784,37.0180398 C12.8487216,36.3490057 12.5021307,35.837642 12.0490057,35.4839489 C11.5958807,35.1302557 11.0511364,34.9534091 10.4147727,34.9534091 C9.77840909,34.9534091 9.23366477,35.1302557 8.78053977,35.4839489 C8.32741477,35.837642 7.98082386,36.3490057 7.74076705,37.0180398 C7.50071023,37.6870739 7.38068182,38.4931818 7.38068182,39.4363636 C7.38068182,40.3852273 7.5,41.1941761 7.73863636,41.8632102 C7.97727273,42.5322443 8.32244318,43.0421875 8.77414773,43.3930398 C9.22585227,43.743892 9.77272727,43.9193182 10.4147727,43.9193182 Z M10.4147727,42.9818182 C9.99147727,42.9818182 9.62997159,42.8440341 9.33025568,42.5684659 C9.03053977,42.2928977 8.80113636,41.8909091 8.64204545,41.3625 C8.48295455,40.8340909 8.40340909,40.1920455 8.40340909,39.4363636 C8.40340909,38.3028409 8.58096591,37.4257102 8.93607955,36.8049716 C9.29119318,36.184233 9.78409091,35.8738636 10.4147727,35.8738636 C10.8352273,35.8738636 11.1953125,36.0130682 11.4950284,36.2914773 C11.7947443,36.5698864 12.024858,36.9747159 12.1853693,37.5059659 C12.3458807,38.0372159 12.4261364,38.6806818 12.4261364,39.4363636 C12.4261364,40.5727273 12.25,41.4477273 11.8977273,42.0613636 C11.5454545,42.675 11.0511364,42.9818182 10.4147727,42.9818182 Z M17.9147727,43.9193182 C18.5568182,43.9193182 19.1036932,43.743892 19.5553977,43.3930398 C20.0071023,43.0421875 20.3522727,42.5322443 20.5909091,41.8632102 C20.8295455,41.1941761 20.9488636,40.3852273 20.9488636,39.4363636 C20.9488636,38.4931818 20.8288352,37.6870739 20.5887784,37.0180398 C20.3487216,36.3490057 20.0021307,35.837642 19.5490057,35.4839489 C19.0958807,35.1302557 18.5511364,34.9534091 17.9147727,34.9534091 C17.2784091,34.9534091 16.7336648,35.1302557 16.2805398,35.4839489 C15.8274148,35.837642 15.4808239,36.3490057 15.240767,37.0180398 C15.0007102,37.6870739 14.8806818,38.4931818 14.8806818,39.4363636 C14.8806818,40.3852273 15,41.1941761 15.2386364,41.8632102 C15.4772727,42.5322443 15.8224432,43.0421875 16.2741477,43.3930398 C16.7258523,43.743892 17.2727273,43.9193182 17.9147727,43.9193182 Z M17.9147727,42.9818182 C17.4914773,42.9818182 17.1299716,42.8440341 16.8302557,42.5684659 C16.5305398,42.2928977 16.3011364,41.8909091 16.1420455,41.3625 C15.9829545,40.8340909 15.9034091,40.1920455 15.9034091,39.4363636 C15.9034091,38.3028409 16.0809659,37.4257102 16.4360795,36.8049716 C16.7911932,36.184233 17.2840909,35.8738636 17.9147727,35.8738636 C18.3352273,35.8738636 18.6953125,36.0130682 18.9950284,36.2914773 C19.2947443,36.5698864 19.524858,36.9747159 19.6853693,37.5059659 C19.8458807,38.0372159 19.9261364,38.6806818 19.9261364,39.4363636 C19.9261364,40.5727273 19.75,41.4477273 19.3977273,42.0613636 C19.0454545,42.675 18.5511364,42.9818182 17.9147727,42.9818182 Z"></path>
                </g>
                <g id="600" transform="translate(268.800000, 0.000000)" fill="#000000" fill-rule="nonzero">
                    <path d="M3.96306818,24.2 L5.406,19.897 L11.968,19.897 L13.4147727,24.2 L16.7897727,24.2 L10.6363636,6.74545455 L6.73295455,6.74545455 L0.588068182,24.2 L3.96306818,24.2 Z M11.115,17.357 L6.258,17.357 L8.61647727,10.325 L8.75284091,10.325 L11.115,17.357 Z M22.7215909,24.4642045 C23.4034091,24.4642045 23.9985795,24.3690341 24.5071023,24.1786932 C25.015625,23.9883523 25.4389205,23.7355114 25.7769886,23.4201705 C26.1150568,23.1048295 26.3778409,22.7653409 26.5653409,22.4017045 L26.5653409,22.4017045 L26.6676136,22.4017045 L26.6676136,24.2 L29.6335227,24.2 L29.6335227,15.4386364 C29.6335227,14.5693182 29.4758523,13.8448864 29.1605114,13.2653409 C28.8451705,12.6857955 28.4289773,12.2269886 27.9119318,11.8889205 C27.3948864,11.5508523 26.8238636,11.3079545 26.1988636,11.1602273 C25.5738636,11.0125 24.9460227,10.9386364 24.3153409,10.9386364 C23.4005682,10.9386364 22.5653409,11.0735795 21.8096591,11.3434659 C21.0539773,11.6133523 20.4147727,12.0167614 19.8920455,12.5536932 C19.3693182,13.090625 18.9943182,13.7568182 18.7670455,14.5522727 L18.7670455,14.5522727 L21.6477273,14.9613636 C21.8011364,14.5125 22.0980114,14.1232955 22.5383523,13.79375 C22.9786932,13.4642045 23.5767045,13.2994318 24.3323864,13.2994318 C25.0482955,13.2994318 25.5965909,13.4755682 25.9772727,13.8278409 C26.3579545,14.1801136 26.5482955,14.6772727 26.5482955,15.3193182 L26.5482955,15.3193182 L26.5482955,15.3704545 C26.5482955,15.6659091 26.4389205,15.8832386 26.2201705,16.0224432 C26.0014205,16.1616477 25.6534091,16.2639205 25.1761364,16.3292614 C24.6988636,16.3946023 24.0767045,16.4670455 23.3096591,16.5465909 C22.6732955,16.6147727 22.0582386,16.7241477 21.4644886,16.8747159 C20.8707386,17.0252841 20.3380682,17.2454545 19.8664773,17.5352273 C19.3948864,17.825 19.0227273,18.2113636 18.75,18.6943182 C18.4772727,19.1772727 18.3409091,19.7880682 18.3409091,20.5267045 C18.3409091,21.3846591 18.5326705,22.10625 18.9161932,22.6914773 C19.2997159,23.2767045 19.8224432,23.7184659 20.484375,24.0167614 C21.1463068,24.3150568 21.8920455,24.4642045 22.7215909,24.4642045 Z M23.5227273,22.1971591 C22.8806818,22.1971591 22.3522727,22.0522727 21.9375,21.7625 C21.5227273,21.4727273 21.3153409,21.04375 21.3153409,20.4755682 C21.3153409,20.0778409 21.4204545,19.7525568 21.6306818,19.4997159 C21.8409091,19.246875 22.1278409,19.0494318 22.4914773,18.9073864 C22.8551136,18.7653409 23.2670455,18.6630682 23.7272727,18.6005682 C23.9318182,18.5721591 24.1732955,18.5380682 24.4517045,18.4982955 C24.7301136,18.4585227 25.0113636,18.4130682 25.2954545,18.3619318 C25.5795455,18.3107955 25.8366477,18.2511364 26.0667614,18.1829545 C26.296875,18.1147727 26.4602273,18.0409091 26.5568182,17.9613636 L26.5568182,17.9613636 L26.5568182,19.5039773 C26.5568182,19.9869318 26.4332386,20.4329545 26.1860795,20.8420455 C25.9389205,21.2511364 25.5880682,21.5792614 25.1335227,21.8264205 C24.6789773,22.0735795 24.1420455,22.1971591 23.5227273,22.1971591 Z" id="Aa"></path>
                    <path d="M3.80113636,43.9193182 C4.38920455,43.925 4.90127841,43.7964489 5.33735795,43.5336648 C5.7734375,43.2708807 6.11221591,42.915767 6.35369318,42.4683239 C6.59517045,42.0208807 6.71590909,41.5272727 6.71590909,40.9875 C6.71590909,40.425 6.59090909,39.9257102 6.34090909,39.4896307 C6.09090909,39.0535511 5.75852273,38.7112216 5.34375,38.462642 C4.92897727,38.2140625 4.47159091,38.0897727 3.97159091,38.0897727 C3.67329545,38.0897727 3.390625,38.1366477 3.12357955,38.2303977 C2.85653409,38.3241477 2.61292614,38.4569602 2.39275568,38.6288352 C2.17258523,38.8007102 1.98295455,39.0073864 1.82386364,39.2488636 L1.82386364,39.2488636 L1.75568182,39.2488636 C1.75852273,38.1778409 1.95383523,37.3475852 2.34161932,36.7580966 C2.72940341,36.168608 3.26136364,35.8738636 3.9375,35.8738636 C4.39772727,35.8738636 4.76704545,36.0038352 5.04545455,36.2637784 C5.32386364,36.5237216 5.51136364,36.8539773 5.60795455,37.2545455 L5.60795455,37.2545455 L6.64772727,37.2545455 C6.57670455,36.7971591 6.42045455,36.3944602 6.17897727,36.0464489 C5.9375,35.6984375 5.62571023,35.4264205 5.24360795,35.2303977 C4.86150568,35.034375 4.42613636,34.9363636 3.9375,34.9363636 C3.44602273,34.9363636 3.00497159,35.0428977 2.61434659,35.2559659 C2.22372159,35.4690341 1.890625,35.7815341 1.61505682,36.1934659 C1.33948864,36.6053977 1.12926136,37.1117898 0.984375,37.712642 C0.839488636,38.3134943 0.767045455,39.0017045 0.767045455,39.7772727 C0.767045455,40.5840909 0.856534091,41.2538352 1.03551136,41.7865057 C1.21448864,42.3191761 1.45170455,42.7410511 1.74715909,43.0521307 C2.04261364,43.3632102 2.36931818,43.5840909 2.72727273,43.7147727 C3.08522727,43.8454545 3.44318182,43.9136364 3.80113636,43.9193182 Z M3.80113636,42.9818182 C3.4375,42.9818182 3.11292614,42.8894886 2.82741477,42.7048295 C2.54190341,42.5201705 2.31747159,42.2772727 2.15411932,41.9761364 C1.99076705,41.675 1.90909091,41.3511364 1.90909091,41.0045455 C1.90909091,40.7431818 1.95880682,40.493892 2.05823864,40.2566761 C2.15767045,40.0194602 2.29474432,39.8085227 2.46946023,39.6238636 C2.64417614,39.4392045 2.84801136,39.293608 3.08096591,39.1870739 C3.31392045,39.0805398 3.56534091,39.0272727 3.83522727,39.0272727 C4.19318182,39.0272727 4.51207386,39.1153409 4.79190341,39.2914773 C5.07173295,39.4676136 5.29190341,39.7041193 5.45241477,40.0009943 C5.61292614,40.2978693 5.69318182,40.6267045 5.69318182,40.9875 C5.69318182,41.3568182 5.61008523,41.6920455 5.44389205,41.9931818 C5.27769886,42.2943182 5.05184659,42.534375 4.76633523,42.7133523 C4.48082386,42.8923295 4.15909091,42.9818182 3.80113636,42.9818182 Z M11.2329545,43.9193182 C11.875,43.9193182 12.421875,43.743892 12.8735795,43.3930398 C13.3252841,43.0421875 13.6704545,42.5322443 13.9090909,41.8632102 C14.1477273,41.1941761 14.2670455,40.3852273 14.2670455,39.4363636 C14.2670455,38.4931818 14.147017,37.6870739 13.9069602,37.0180398 C13.6669034,36.3490057 13.3203125,35.837642 12.8671875,35.4839489 C12.4140625,35.1302557 11.8693182,34.9534091 11.2329545,34.9534091 C10.5965909,34.9534091 10.0518466,35.1302557 9.59872159,35.4839489 C9.14559659,35.837642 8.79900568,36.3490057 8.55894886,37.0180398 C8.31889205,37.6870739 8.19886364,38.4931818 8.19886364,39.4363636 C8.19886364,40.3852273 8.31818182,41.1941761 8.55681818,41.8632102 C8.79545455,42.5322443 9.140625,43.0421875 9.59232955,43.3930398 C10.0440341,43.743892 10.5909091,43.9193182 11.2329545,43.9193182 Z M11.2329545,42.9818182 C10.8096591,42.9818182 10.4481534,42.8440341 10.1484375,42.5684659 C9.84872159,42.2928977 9.61931818,41.8909091 9.46022727,41.3625 C9.30113636,40.8340909 9.22159091,40.1920455 9.22159091,39.4363636 C9.22159091,38.3028409 9.39914773,37.4257102 9.75426136,36.8049716 C10.109375,36.184233 10.6022727,35.8738636 11.2329545,35.8738636 C11.6534091,35.8738636 12.0134943,36.0130682 12.3132102,36.2914773 C12.6129261,36.5698864 12.8430398,36.9747159 13.0035511,37.5059659 C13.1640625,38.0372159 13.2443182,38.6806818 13.2443182,39.4363636 C13.2443182,40.5727273 13.0681818,41.4477273 12.7159091,42.0613636 C12.3636364,42.675 11.8693182,42.9818182 11.2329545,42.9818182 Z M18.7329545,43.9193182 C19.375,43.9193182 19.921875,43.743892 20.3735795,43.3930398 C20.8252841,43.0421875 21.1704545,42.5322443 21.4090909,41.8632102 C21.6477273,41.1941761 21.7670455,40.3852273 21.7670455,39.4363636 C21.7670455,38.4931818 21.647017,37.6870739 21.4069602,37.0180398 C21.1669034,36.3490057 20.8203125,35.837642 20.3671875,35.4839489 C19.9140625,35.1302557 19.3693182,34.9534091 18.7329545,34.9534091 C18.0965909,34.9534091 17.5518466,35.1302557 17.0987216,35.4839489 C16.6455966,35.837642 16.2990057,36.3490057 16.0589489,37.0180398 C15.818892,37.6870739 15.6988636,38.4931818 15.6988636,39.4363636 C15.6988636,40.3852273 15.8181818,41.1941761 16.0568182,41.8632102 C16.2954545,42.5322443 16.640625,43.0421875 17.0923295,43.3930398 C17.5440341,43.743892 18.0909091,43.9193182 18.7329545,43.9193182 Z M18.7329545,42.9818182 C18.3096591,42.9818182 17.9481534,42.8440341 17.6484375,42.5684659 C17.3487216,42.2928977 17.1193182,41.8909091 16.9602273,41.3625 C16.8011364,40.8340909 16.7215909,40.1920455 16.7215909,39.4363636 C16.7215909,38.3028409 16.8991477,37.4257102 17.2542614,36.8049716 C17.609375,36.184233 18.1022727,35.8738636 18.7329545,35.8738636 C19.1534091,35.8738636 19.5134943,36.0130682 19.8132102,36.2914773 C20.1129261,36.5698864 20.3430398,36.9747159 20.5035511,37.5059659 C20.6640625,38.0372159 20.7443182,38.6806818 20.7443182,39.4363636 C20.7443182,40.5727273 20.5681818,41.4477273 20.2159091,42.0613636 C19.8636364,42.675 19.3693182,42.9818182 18.7329545,42.9818182 Z"></path>
                </g>
                <g id="400" transform="translate(168.000000, 0.000000)" fill="#000000" fill-rule="nonzero">
                    <path d="M2.82954545,24.2 L4.584,19.257 L11.642,19.257 L13.3977273,24.2 L15.6136364,24.2 L9.20454545,6.74545455 L7.02272727,6.74545455 L0.613636364,24.2 L2.82954545,24.2 Z M10.977,17.382 L5.249,17.382 L8.04545455,9.50681818 L8.18181818,9.50681818 L10.977,17.382 Z M21.9204545,24.5068182 C22.6818182,24.5068182 23.3267045,24.3931818 23.8551136,24.1659091 C24.3835227,23.9386364 24.8068182,23.6630682 25.125,23.3392045 C25.4431818,23.0153409 25.6704545,22.7113636 25.8068182,22.4272727 L25.8068182,22.4272727 L25.9090909,22.4272727 L25.9090909,24.2 L27.9204545,24.2 L27.9204545,15.575 C27.9204545,14.5352273 27.75,13.7056818 27.4090909,13.0863636 C27.0681818,12.4670455 26.640625,12.0039773 26.1264205,11.6971591 C25.6122159,11.3903409 25.0809659,11.1872159 24.5326705,11.0877841 C23.984375,10.9883523 23.5,10.9386364 23.0795455,10.9386364 C22.4204545,10.9386364 21.7514205,11.028125 21.0724432,11.2071023 C20.3934659,11.3860795 19.7684659,11.6985795 19.1974432,12.1446023 C18.6264205,12.590625 18.1704545,13.2113636 17.8295455,14.0068182 L17.8295455,14.0068182 L19.7386364,14.6886364 C19.9602273,14.2113636 20.34375,13.7625 20.8892045,13.3420455 C21.4346591,12.9215909 22.1875,12.7113636 23.1477273,12.7113636 C24.0738636,12.7113636 24.765625,12.9443182 25.2230114,13.4102273 C25.6803977,13.8761364 25.9090909,14.5295455 25.9090909,15.3704545 L25.9090909,15.3704545 L25.9090909,15.4386364 C25.9090909,15.7625 25.7940341,15.9897727 25.5639205,16.1204545 C25.3338068,16.2511364 24.9701705,16.3434659 24.4730114,16.3974432 C23.9758523,16.4514205 23.3295455,16.5295455 22.5340909,16.6318182 C21.9261364,16.7113636 21.3224432,16.8178977 20.7230114,16.9514205 C20.1235795,17.0849432 19.5767045,17.2852273 19.0823864,17.5522727 C18.5880682,17.8193182 18.1931818,18.1872159 17.8977273,18.6559659 C17.6022727,19.1247159 17.4545455,19.7340909 17.4545455,20.4840909 C17.4545455,21.3363636 17.6534091,22.0622159 18.0511364,22.6616477 C18.4488636,23.2610795 18.9857955,23.7184659 19.6619318,24.0338068 C20.3380682,24.3491477 21.0909091,24.5068182 21.9204545,24.5068182 Z M22.2272727,22.7 C21.4261364,22.7 20.765625,22.5224432 20.2457386,22.1673295 C19.7258523,21.8122159 19.4659091,21.2852273 19.4659091,20.5863636 C19.4659091,20.075 19.6036932,19.6701705 19.8792614,19.371875 C20.1548295,19.0735795 20.5184659,18.8491477 20.9701705,18.6985795 C21.421875,18.5480114 21.9090909,18.4386364 22.4318182,18.3704545 C22.6477273,18.3420455 22.9303977,18.3065341 23.2798295,18.2639205 C23.6292614,18.2213068 23.9900568,18.1701705 24.3622159,18.1105114 C24.734375,18.0508523 25.0639205,17.9798295 25.3508523,17.8974432 C25.6377841,17.8150568 25.8238636,17.7227273 25.9090909,17.6204545 L25.9090909,17.6204545 L25.9090909,19.4613636 C25.9090909,20.0068182 25.7684659,20.5267045 25.4872159,21.0210227 C25.2059659,21.5153409 24.7911932,21.91875 24.2428977,22.23125 C23.6946023,22.54375 23.0227273,22.7 22.2272727,22.7 Z" id="Aa"></path>
                    <path d="M4.53409091,35.0727273 L0.698863636,41.1409091 L0.698863636,42.0102273 L4.806,42.011 L4.80681818,43.8 L5.8125,43.8 L5.812,42.011 L7.00568182,42.0102273 L7.00568182,41.0727273 L5.812,41.073 L5.8125,35.0727273 L4.80681818,35.0727273 L4.53409091,35.0727273 Z M4.806,36.42 L4.806,41.073 L1.84090909,41.0727273 L1.84090909,41.0045455 L4.73863636,36.4193182 L4.806,36.42 Z M11.4545455,43.9193182 C12.0965909,43.9193182 12.6434659,43.743892 13.0951705,43.3930398 C13.546875,43.0421875 13.8920455,42.5322443 14.1306818,41.8632102 C14.3693182,41.1941761 14.4886364,40.3852273 14.4886364,39.4363636 C14.4886364,38.4931818 14.368608,37.6870739 14.1285511,37.0180398 C13.8884943,36.3490057 13.5419034,35.837642 13.0887784,35.4839489 C12.6356534,35.1302557 12.0909091,34.9534091 11.4545455,34.9534091 C10.8181818,34.9534091 10.2734375,35.1302557 9.8203125,35.4839489 C9.3671875,35.837642 9.02059659,36.3490057 8.78053977,37.0180398 C8.54048295,37.6870739 8.42045455,38.4931818 8.42045455,39.4363636 C8.42045455,40.3852273 8.53977273,41.1941761 8.77840909,41.8632102 C9.01704545,42.5322443 9.36221591,43.0421875 9.81392045,43.3930398 C10.265625,43.743892 10.8125,43.9193182 11.4545455,43.9193182 Z M11.4545455,42.9818182 C11.03125,42.9818182 10.6697443,42.8440341 10.3700284,42.5684659 C10.0703125,42.2928977 9.84090909,41.8909091 9.68181818,41.3625 C9.52272727,40.8340909 9.44318182,40.1920455 9.44318182,39.4363636 C9.44318182,38.3028409 9.62073864,37.4257102 9.97585227,36.8049716 C10.3309659,36.184233 10.8238636,35.8738636 11.4545455,35.8738636 C11.875,35.8738636 12.2350852,36.0130682 12.5348011,36.2914773 C12.834517,36.5698864 13.0646307,36.9747159 13.225142,37.5059659 C13.3856534,38.0372159 13.4659091,38.6806818 13.4659091,39.4363636 C13.4659091,40.5727273 13.2897727,41.4477273 12.9375,42.0613636 C12.5852273,42.675 12.0909091,42.9818182 11.4545455,42.9818182 Z M18.9545455,43.9193182 C19.5965909,43.9193182 20.1434659,43.743892 20.5951705,43.3930398 C21.046875,43.0421875 21.3920455,42.5322443 21.6306818,41.8632102 C21.8693182,41.1941761 21.9886364,40.3852273 21.9886364,39.4363636 C21.9886364,38.4931818 21.868608,37.6870739 21.6285511,37.0180398 C21.3884943,36.3490057 21.0419034,35.837642 20.5887784,35.4839489 C20.1356534,35.1302557 19.5909091,34.9534091 18.9545455,34.9534091 C18.3181818,34.9534091 17.7734375,35.1302557 17.3203125,35.4839489 C16.8671875,35.837642 16.5205966,36.3490057 16.2805398,37.0180398 C16.040483,37.6870739 15.9204545,38.4931818 15.9204545,39.4363636 C15.9204545,40.3852273 16.0397727,41.1941761 16.2784091,41.8632102 C16.5170455,42.5322443 16.8622159,43.0421875 17.3139205,43.3930398 C17.765625,43.743892 18.3125,43.9193182 18.9545455,43.9193182 Z M18.9545455,42.9818182 C18.53125,42.9818182 18.1697443,42.8440341 17.8700284,42.5684659 C17.5703125,42.2928977 17.3409091,41.8909091 17.1818182,41.3625 C17.0227273,40.8340909 16.9431818,40.1920455 16.9431818,39.4363636 C16.9431818,38.3028409 17.1207386,37.4257102 17.4758523,36.8049716 C17.8309659,36.184233 18.3238636,35.8738636 18.9545455,35.8738636 C19.375,35.8738636 19.7350852,36.0130682 20.0348011,36.2914773 C20.334517,36.5698864 20.5646307,36.9747159 20.725142,37.5059659 C20.8856534,38.0372159 20.9659091,38.6806818 20.9659091,39.4363636 C20.9659091,40.5727273 20.7897727,41.4477273 20.4375,42.0613636 C20.0852273,42.675 19.5909091,42.9818182 18.9545455,42.9818182 Z"></path>
                </g>
            </g>
        </g>
    </g>
</svg>