<?xml version="1.0" encoding="UTF-8"?>
<svg width="424px" height="104px" viewBox="0 0 424 104" version="1.1" xmlns="http://www.w3.org/2000/svg" xmlns:xlink="http://www.w3.org/1999/xlink">
    <title>line-height-component</title>
    <g id="Doc_exemplos" stroke="none" stroke-width="1" fill="none" fill-rule="evenodd">
        <g id="doc-tipografia-expandido" transform="translate(-1906.000000, -4176.000000)">
            <g id="line-height-component" transform="translate(1906.000000, 4176.000000)">
                <rect id="bg" fill-opacity="0" fill="#D8D8D8" x="0" y="0" width="424" height="104"></rect>
                <g id="btn" transform="translate(236.000000, 32.000000)">
                    <rect id="Rectangle-Copy-4" fill="#58595B" x="0" y="0" width="156" height="40" rx="4"></rect>
                    <rect id="Rectangle-Copy-7" stroke="#00EAE8" stroke-width="2" fill="#32E7E7" opacity="0.322651708" x="0" y="0" width="156" height="40" rx="4"></rect>
                    <rect id="Rectangle" stroke="#32E7E7" fill="#58595B" x="16" y="8" width="124" height="24"></rect>
                    <path d="M19.859375,26 L19.859375,21.9375 L20.8984375,21.9375 C22.3151042,21.9375 23.4075521,21.6119792 24.1757812,20.9609375 C24.9440104,20.3098958 25.328125,19.3697917 25.328125,18.140625 C25.328125,16.9583333 24.9674479,16.0690104 24.2460938,15.4726562 C23.5247396,14.8763021 22.4713542,14.578125 21.0859375,14.578125 L21.0859375,14.578125 L17.4375,14.578125 L17.4375,26 L19.859375,26 Z M20.65625,19.953125 L19.859375,19.953125 L19.859375,16.5625 L20.9609375,16.5625 C21.6223958,16.5625 22.1080729,16.6979167 22.4179688,16.96875 C22.7278646,17.2395833 22.8828125,17.6588542 22.8828125,18.2265625 C22.8828125,18.7890625 22.6979167,19.2174479 22.328125,19.5117188 C21.9583333,19.8059896 21.4010417,19.953125 20.65625,19.953125 L20.65625,19.953125 Z M29.6796875,26 L29.6796875,21.5546875 C29.6796875,20.8515625 29.8919271,20.3046875 30.3164062,19.9140625 C30.7408854,19.5234375 31.3333333,19.328125 32.09375,19.328125 C32.3697917,19.328125 32.6041667,19.3541667 32.796875,19.40625 L32.796875,19.40625 L32.9765625,17.171875 C32.7630208,17.125 32.4947917,17.1015625 32.171875,17.1015625 C31.6302083,17.1015625 31.1289062,17.2513021 30.6679688,17.5507812 C30.2070312,17.8502604 29.8411458,18.2447917 29.5703125,18.734375 L29.5703125,18.734375 L29.453125,18.734375 L29.1015625,17.265625 L27.296875,17.265625 L27.296875,26 L29.6796875,26 Z M35.7578125,16.1796875 C36.1901042,16.1796875 36.5143229,16.0768229 36.7304688,15.8710938 C36.9466146,15.6653646 37.0546875,15.3776042 37.0546875,15.0078125 C37.0546875,14.2317708 36.6223958,13.84375 35.7578125,13.84375 C34.8932292,13.84375 34.4609375,14.2317708 34.4609375,15.0078125 C34.4609375,15.7890625 34.8932292,16.1796875 35.7578125,16.1796875 Z M36.9453125,26 L36.9453125,17.265625 L34.5625,17.265625 L34.5625,26 L36.9453125,26 Z M41.828125,26 L41.828125,21.890625 C41.828125,20.8645833 41.9661458,20.1276042 42.2421875,19.6796875 C42.5182292,19.2317708 42.9609375,19.0078125 43.5703125,19.0078125 C44.0234375,19.0078125 44.3554688,19.1653646 44.5664062,19.4804688 C44.7773438,19.7955729 44.8828125,20.2682292 44.8828125,20.8984375 L44.8828125,20.8984375 L44.8828125,26 L47.265625,26 L47.265625,21.6171875 C47.265625,20.7109375 47.4101562,20.0494792 47.6992188,19.6328125 C47.9882812,19.2161458 48.4244792,19.0078125 49.0078125,19.0078125 C49.4609375,19.0078125 49.7929688,19.1653646 50.0039062,19.4804688 C50.2148438,19.7955729 50.3203125,20.2682292 50.3203125,20.8984375 L50.3203125,20.8984375 L50.3203125,26 L52.7109375,26 L52.7109375,20.3046875 C52.7109375,19.1848958 52.4570312,18.3710938 51.9492188,17.8632812 C51.4414062,17.3554688 50.6927083,17.1015625 49.703125,17.1015625 C49.1302083,17.1015625 48.6158854,17.2135417 48.1601562,17.4375 C47.7044271,17.6614583 47.359375,17.9765625 47.125,18.3828125 L47.125,18.3828125 L46.9140625,18.3828125 C46.4505208,17.5286458 45.5651042,17.1015625 44.2578125,17.1015625 C43.6848958,17.1015625 43.1770833,17.2148438 42.734375,17.4414062 C42.2916667,17.6679688 41.953125,17.9817708 41.71875,18.3828125 L41.71875,18.3828125 L41.5859375,18.3828125 L41.265625,17.265625 L39.4453125,17.265625 L39.4453125,26 L41.828125,26 Z M57.28125,26.15625 C57.9635417,26.15625 58.5169271,26.0585938 58.9414062,25.8632812 C59.3658854,25.6679688 59.7786458,25.3177083 60.1796875,24.8125 L60.1796875,24.8125 L60.2421875,24.8125 L60.703125,26 L62.3671875,26 L62.3671875,20.1796875 C62.3671875,19.1380208 62.0546875,18.3619792 61.4296875,17.8515625 C60.8046875,17.3411458 59.90625,17.0859375 58.734375,17.0859375 C57.5104167,17.0859375 56.3958333,17.3489583 55.390625,17.875 L55.390625,17.875 L56.1796875,19.484375 C57.1223958,19.0625 57.9427083,18.8515625 58.640625,18.8515625 C59.546875,18.8515625 60,19.2942708 60,20.1796875 L60,20.1796875 L60,20.5625 L58.484375,20.609375 C57.1770833,20.65625 56.1992188,20.8997396 55.5507812,21.3398438 C54.9023438,21.7799479 54.578125,22.4635417 54.578125,23.390625 C54.578125,24.2760417 54.8190104,24.9583333 55.3007812,25.4375 C55.7825521,25.9166667 56.4427083,26.15625 57.28125,26.15625 Z M58.1796875,24.4140625 C57.4088542,24.4140625 57.0234375,24.078125 57.0234375,23.40625 C57.0234375,22.9375 57.1927083,22.5885417 57.53125,22.359375 C57.8697917,22.1302083 58.3854167,22.0052083 59.078125,21.984375 L59.078125,21.984375 L60,21.953125 L60,22.671875 C60,23.1979167 59.8346354,23.6197917 59.5039062,23.9375 C59.1731771,24.2552083 58.7317708,24.4140625 58.1796875,24.4140625 Z M67.203125,26 L67.203125,21.5546875 C67.203125,20.8515625 67.4153646,20.3046875 67.8398438,19.9140625 C68.2643229,19.5234375 68.8567708,19.328125 69.6171875,19.328125 C69.8932292,19.328125 70.1276042,19.3541667 70.3203125,19.40625 L70.3203125,19.40625 L70.5,17.171875 C70.2864583,17.125 70.0182292,17.1015625 69.6953125,17.1015625 C69.1536458,17.1015625 68.6523438,17.2513021 68.1914062,17.5507812 C67.7304688,17.8502604 67.3645833,18.2447917 67.09375,18.734375 L67.09375,18.734375 L66.9765625,18.734375 L66.625,17.265625 L64.8203125,17.265625 L64.8203125,26 L67.203125,26 Z M72.59375,29.84375 C73.4322917,29.84375 74.1653646,29.6171875 74.7929688,29.1640625 C75.4205729,28.7109375 75.9036458,28.0286458 76.2421875,27.1171875 L76.2421875,27.1171875 L79.9375,17.265625 L77.3828125,17.265625 L75.765625,22.1796875 C75.5989583,22.6536458 75.4869792,23.1588542 75.4296875,23.6953125 L75.4296875,23.6953125 L75.3828125,23.6953125 C75.3307292,23.1119792 75.234375,22.6067708 75.09375,22.1796875 L75.09375,22.1796875 L73.4453125,17.265625 L70.8359375,17.265625 L74.3046875,25.9375 L74.1640625,26.3671875 C73.9869792,26.8880208 73.7408854,27.2773438 73.4257812,27.5351562 C73.1106771,27.7929688 72.7421875,27.921875 72.3203125,27.921875 C71.9817708,27.921875 71.6692708,27.8880208 71.3828125,27.8203125 L71.3828125,27.8203125 L71.3828125,29.7109375 C71.7786458,29.7994792 72.1822917,29.84375 72.59375,29.84375 Z M90.140625,26.15625 C91.1770833,26.15625 91.9960938,25.7604167 92.5976562,24.96875 C93.1992188,24.1770833 93.5,23.0598958 93.5,21.6171875 C93.5,20.2161458 93.2083333,19.1132812 92.625,18.3085938 C92.0416667,17.5039062 91.234375,17.1015625 90.203125,17.1015625 C89.109375,17.1015625 88.2838542,17.5338542 87.7265625,18.3984375 L87.7265625,18.3984375 L87.6328125,18.3984375 C87.6953125,17.6067708 87.7265625,17.03125 87.7265625,16.671875 L87.7265625,16.671875 L87.7265625,13.84375 L85.34375,13.84375 L85.34375,26 L87.1640625,26 L87.5625,25.0390625 L87.7265625,25.0390625 C88.3098958,25.7838542 89.1145833,26.15625 90.140625,26.15625 Z M89.46875,24.2265625 C88.8645833,24.2265625 88.4231771,24.0234375 88.1445312,23.6171875 C87.8658854,23.2109375 87.7265625,22.5390625 87.7265625,21.6015625 L87.7265625,21.6015625 L87.7265625,21.34375 C87.7369792,20.5104167 87.8776042,19.9127604 88.1484375,19.5507812 C88.4192708,19.1888021 88.8489583,19.0078125 89.4375,19.0078125 C89.9427083,19.0078125 90.3411458,19.2226562 90.6328125,19.6523438 C90.9244792,20.0820312 91.0703125,20.7265625 91.0703125,21.5859375 C91.0703125,22.4453125 90.9257812,23.1002604 90.6367188,23.5507812 C90.3476562,24.0013021 89.9583333,24.2265625 89.46875,24.2265625 Z M98.5234375,26.15625 C99.1223958,26.15625 99.65625,26.0455729 100.125,25.8242188 C100.59375,25.6028646 100.955729,25.2890625 101.210938,24.8828125 L101.210938,24.8828125 L101.335938,24.8828125 L101.65625,26 L103.484375,26 L103.484375,17.265625 L101.101562,17.265625 L101.101562,21.375 C101.101562,22.40625 100.953125,23.1445312 100.65625,23.5898438 C100.359375,24.0351562 99.8776042,24.2578125 99.2109375,24.2578125 C98.7213542,24.2578125 98.3645833,24.1002604 98.140625,23.7851562 C97.9166667,23.4700521 97.8046875,22.9973958 97.8046875,22.3671875 L97.8046875,22.3671875 L97.8046875,17.265625 L95.421875,17.265625 L95.421875,22.9609375 C95.421875,23.9921875 95.6822917,24.7825521 96.203125,25.3320312 C96.7239583,25.8815104 97.4973958,26.15625 98.5234375,26.15625 Z M108.976562,26.15625 C109.841146,26.15625 110.570312,26.0234375 111.164062,25.7578125 L111.164062,25.7578125 L111.164062,23.984375 C110.580729,24.1666667 110.080729,24.2578125 109.664062,24.2578125 C109.351562,24.2578125 109.10026,24.1770833 108.910156,24.015625 C108.720052,23.8541667 108.625,23.6041667 108.625,23.265625 L108.625,23.265625 L108.625,19.0546875 L111.070312,19.0546875 L111.070312,17.265625 L108.625,17.265625 L108.625,15.40625 L107.101562,15.40625 L106.414062,17.25 L105.101562,18.046875 L105.101562,19.0546875 L106.242188,19.0546875 L106.242188,23.265625 C106.242188,24.2291667 106.459635,24.9518229 106.894531,25.4335938 C107.329427,25.9153646 108.023438,26.15625 108.976562,26.15625 Z M115.921875,26.15625 C116.786458,26.15625 117.515625,26.0234375 118.109375,25.7578125 L118.109375,25.7578125 L118.109375,23.984375 C117.526042,24.1666667 117.026042,24.2578125 116.609375,24.2578125 C116.296875,24.2578125 116.045573,24.1770833 115.855469,24.015625 C115.665365,23.8541667 115.570312,23.6041667 115.570312,23.265625 L115.570312,23.265625 L115.570312,19.0546875 L118.015625,19.0546875 L118.015625,17.265625 L115.570312,17.265625 L115.570312,15.40625 L114.046875,15.40625 L113.359375,17.25 L112.046875,18.046875 L112.046875,19.0546875 L113.1875,19.0546875 L113.1875,23.265625 C113.1875,24.2291667 113.404948,24.9518229 113.839844,25.4335938 C114.27474,25.9153646 114.96875,26.15625 115.921875,26.15625 Z M123.554688,26.15625 C124.893229,26.15625 125.9375,25.7552083 126.6875,24.953125 C127.4375,24.1510417 127.8125,23.0390625 127.8125,21.6171875 C127.8125,20.7005208 127.640625,19.9010417 127.296875,19.21875 C126.953125,18.5364583 126.460938,18.0130208 125.820312,17.6484375 C125.179688,17.2838542 124.440104,17.1015625 123.601562,17.1015625 C122.252604,17.1015625 121.205729,17.4973958 120.460938,18.2890625 C119.716146,19.0807292 119.34375,20.1901042 119.34375,21.6171875 C119.34375,22.5338542 119.515625,23.3359375 119.859375,24.0234375 C120.203125,24.7109375 120.695312,25.2382812 121.335938,25.6054688 C121.976562,25.9726562 122.716146,26.15625 123.554688,26.15625 Z M123.585938,24.2421875 C122.945312,24.2421875 122.483073,24.0208333 122.199219,23.578125 C121.915365,23.1354167 121.773438,22.4817708 121.773438,21.6171875 C121.773438,20.7473958 121.914062,20.0976562 122.195312,19.6679688 C122.476562,19.2382812 122.934896,19.0234375 123.570312,19.0234375 C124.210938,19.0234375 124.671875,19.2395833 124.953125,19.671875 C125.234375,20.1041667 125.375,20.7526042 125.375,21.6171875 C125.375,22.4869792 125.235677,23.1419271 124.957031,23.5820312 C124.678385,24.0221354 124.221354,24.2421875 123.585938,24.2421875 Z M132.164062,26 L132.164062,21.890625 C132.164062,20.859375 132.3125,20.1210938 132.609375,19.6757812 C132.90625,19.2304688 133.388021,19.0078125 134.054688,19.0078125 C134.544271,19.0078125 134.901042,19.1653646 135.125,19.4804688 C135.348958,19.7955729 135.460938,20.2682292 135.460938,20.8984375 L135.460938,20.8984375 L135.460938,26 L137.84375,26 L137.84375,20.3046875 C137.84375,19.2682292 137.580729,18.4752604 137.054688,17.9257812 C136.528646,17.3763021 135.757812,17.1015625 134.742188,17.1015625 C134.148438,17.1015625 133.61849,17.2096354 133.152344,17.4257812 C132.686198,17.6419271 132.320312,17.9609375 132.054688,18.3828125 L132.054688,18.3828125 L131.921875,18.3828125 L131.601562,17.265625 L129.78125,17.265625 L129.78125,26 L132.164062,26 Z" id="Primarybutton" fill="#FFFFFF" fill-rule="nonzero"></path>
                </g>
                <g id="btn" transform="translate(32.000000, 32.000000)">
                    <rect id="Rectangle" fill="#58595B" x="0" y="0" width="156" height="40" rx="4"></rect>
                    <path d="M19.859375,26 L19.859375,21.9375 L20.8984375,21.9375 C22.3151042,21.9375 23.4075521,21.6119792 24.1757812,20.9609375 C24.9440104,20.3098958 25.328125,19.3697917 25.328125,18.140625 C25.328125,16.9583333 24.9674479,16.0690104 24.2460938,15.4726562 C23.5247396,14.8763021 22.4713542,14.578125 21.0859375,14.578125 L21.0859375,14.578125 L17.4375,14.578125 L17.4375,26 L19.859375,26 Z M20.65625,19.953125 L19.859375,19.953125 L19.859375,16.5625 L20.9609375,16.5625 C21.6223958,16.5625 22.1080729,16.6979167 22.4179688,16.96875 C22.7278646,17.2395833 22.8828125,17.6588542 22.8828125,18.2265625 C22.8828125,18.7890625 22.6979167,19.2174479 22.328125,19.5117188 C21.9583333,19.8059896 21.4010417,19.953125 20.65625,19.953125 L20.65625,19.953125 Z M29.6796875,26 L29.6796875,21.5546875 C29.6796875,20.8515625 29.8919271,20.3046875 30.3164062,19.9140625 C30.7408854,19.5234375 31.3333333,19.328125 32.09375,19.328125 C32.3697917,19.328125 32.6041667,19.3541667 32.796875,19.40625 L32.796875,19.40625 L32.9765625,17.171875 C32.7630208,17.125 32.4947917,17.1015625 32.171875,17.1015625 C31.6302083,17.1015625 31.1289062,17.2513021 30.6679688,17.5507812 C30.2070312,17.8502604 29.8411458,18.2447917 29.5703125,18.734375 L29.5703125,18.734375 L29.453125,18.734375 L29.1015625,17.265625 L27.296875,17.265625 L27.296875,26 L29.6796875,26 Z M35.7578125,16.1796875 C36.1901042,16.1796875 36.5143229,16.0768229 36.7304688,15.8710938 C36.9466146,15.6653646 37.0546875,15.3776042 37.0546875,15.0078125 C37.0546875,14.2317708 36.6223958,13.84375 35.7578125,13.84375 C34.8932292,13.84375 34.4609375,14.2317708 34.4609375,15.0078125 C34.4609375,15.7890625 34.8932292,16.1796875 35.7578125,16.1796875 Z M36.9453125,26 L36.9453125,17.265625 L34.5625,17.265625 L34.5625,26 L36.9453125,26 Z M41.828125,26 L41.828125,21.890625 C41.828125,20.8645833 41.9661458,20.1276042 42.2421875,19.6796875 C42.5182292,19.2317708 42.9609375,19.0078125 43.5703125,19.0078125 C44.0234375,19.0078125 44.3554688,19.1653646 44.5664062,19.4804688 C44.7773438,19.7955729 44.8828125,20.2682292 44.8828125,20.8984375 L44.8828125,20.8984375 L44.8828125,26 L47.265625,26 L47.265625,21.6171875 C47.265625,20.7109375 47.4101562,20.0494792 47.6992188,19.6328125 C47.9882812,19.2161458 48.4244792,19.0078125 49.0078125,19.0078125 C49.4609375,19.0078125 49.7929688,19.1653646 50.0039062,19.4804688 C50.2148438,19.7955729 50.3203125,20.2682292 50.3203125,20.8984375 L50.3203125,20.8984375 L50.3203125,26 L52.7109375,26 L52.7109375,20.3046875 C52.7109375,19.1848958 52.4570312,18.3710938 51.9492188,17.8632812 C51.4414062,17.3554688 50.6927083,17.1015625 49.703125,17.1015625 C49.1302083,17.1015625 48.6158854,17.2135417 48.1601562,17.4375 C47.7044271,17.6614583 47.359375,17.9765625 47.125,18.3828125 L47.125,18.3828125 L46.9140625,18.3828125 C46.4505208,17.5286458 45.5651042,17.1015625 44.2578125,17.1015625 C43.6848958,17.1015625 43.1770833,17.2148438 42.734375,17.4414062 C42.2916667,17.6679688 41.953125,17.9817708 41.71875,18.3828125 L41.71875,18.3828125 L41.5859375,18.3828125 L41.265625,17.265625 L39.4453125,17.265625 L39.4453125,26 L41.828125,26 Z M57.28125,26.15625 C57.9635417,26.15625 58.5169271,26.0585938 58.9414062,25.8632812 C59.3658854,25.6679688 59.7786458,25.3177083 60.1796875,24.8125 L60.1796875,24.8125 L60.2421875,24.8125 L60.703125,26 L62.3671875,26 L62.3671875,20.1796875 C62.3671875,19.1380208 62.0546875,18.3619792 61.4296875,17.8515625 C60.8046875,17.3411458 59.90625,17.0859375 58.734375,17.0859375 C57.5104167,17.0859375 56.3958333,17.3489583 55.390625,17.875 L55.390625,17.875 L56.1796875,19.484375 C57.1223958,19.0625 57.9427083,18.8515625 58.640625,18.8515625 C59.546875,18.8515625 60,19.2942708 60,20.1796875 L60,20.1796875 L60,20.5625 L58.484375,20.609375 C57.1770833,20.65625 56.1992188,20.8997396 55.5507812,21.3398438 C54.9023438,21.7799479 54.578125,22.4635417 54.578125,23.390625 C54.578125,24.2760417 54.8190104,24.9583333 55.3007812,25.4375 C55.7825521,25.9166667 56.4427083,26.15625 57.28125,26.15625 Z M58.1796875,24.4140625 C57.4088542,24.4140625 57.0234375,24.078125 57.0234375,23.40625 C57.0234375,22.9375 57.1927083,22.5885417 57.53125,22.359375 C57.8697917,22.1302083 58.3854167,22.0052083 59.078125,21.984375 L59.078125,21.984375 L60,21.953125 L60,22.671875 C60,23.1979167 59.8346354,23.6197917 59.5039062,23.9375 C59.1731771,24.2552083 58.7317708,24.4140625 58.1796875,24.4140625 Z M67.203125,26 L67.203125,21.5546875 C67.203125,20.8515625 67.4153646,20.3046875 67.8398438,19.9140625 C68.2643229,19.5234375 68.8567708,19.328125 69.6171875,19.328125 C69.8932292,19.328125 70.1276042,19.3541667 70.3203125,19.40625 L70.3203125,19.40625 L70.5,17.171875 C70.2864583,17.125 70.0182292,17.1015625 69.6953125,17.1015625 C69.1536458,17.1015625 68.6523438,17.2513021 68.1914062,17.5507812 C67.7304688,17.8502604 67.3645833,18.2447917 67.09375,18.734375 L67.09375,18.734375 L66.9765625,18.734375 L66.625,17.265625 L64.8203125,17.265625 L64.8203125,26 L67.203125,26 Z M72.59375,29.84375 C73.4322917,29.84375 74.1653646,29.6171875 74.7929688,29.1640625 C75.4205729,28.7109375 75.9036458,28.0286458 76.2421875,27.1171875 L76.2421875,27.1171875 L79.9375,17.265625 L77.3828125,17.265625 L75.765625,22.1796875 C75.5989583,22.6536458 75.4869792,23.1588542 75.4296875,23.6953125 L75.4296875,23.6953125 L75.3828125,23.6953125 C75.3307292,23.1119792 75.234375,22.6067708 75.09375,22.1796875 L75.09375,22.1796875 L73.4453125,17.265625 L70.8359375,17.265625 L74.3046875,25.9375 L74.1640625,26.3671875 C73.9869792,26.8880208 73.7408854,27.2773438 73.4257812,27.5351562 C73.1106771,27.7929688 72.7421875,27.921875 72.3203125,27.921875 C71.9817708,27.921875 71.6692708,27.8880208 71.3828125,27.8203125 L71.3828125,27.8203125 L71.3828125,29.7109375 C71.7786458,29.7994792 72.1822917,29.84375 72.59375,29.84375 Z M90.140625,26.15625 C91.1770833,26.15625 91.9960938,25.7604167 92.5976562,24.96875 C93.1992188,24.1770833 93.5,23.0598958 93.5,21.6171875 C93.5,20.2161458 93.2083333,19.1132812 92.625,18.3085938 C92.0416667,17.5039062 91.234375,17.1015625 90.203125,17.1015625 C89.109375,17.1015625 88.2838542,17.5338542 87.7265625,18.3984375 L87.7265625,18.3984375 L87.6328125,18.3984375 C87.6953125,17.6067708 87.7265625,17.03125 87.7265625,16.671875 L87.7265625,16.671875 L87.7265625,13.84375 L85.34375,13.84375 L85.34375,26 L87.1640625,26 L87.5625,25.0390625 L87.7265625,25.0390625 C88.3098958,25.7838542 89.1145833,26.15625 90.140625,26.15625 Z M89.46875,24.2265625 C88.8645833,24.2265625 88.4231771,24.0234375 88.1445312,23.6171875 C87.8658854,23.2109375 87.7265625,22.5390625 87.7265625,21.6015625 L87.7265625,21.6015625 L87.7265625,21.34375 C87.7369792,20.5104167 87.8776042,19.9127604 88.1484375,19.5507812 C88.4192708,19.1888021 88.8489583,19.0078125 89.4375,19.0078125 C89.9427083,19.0078125 90.3411458,19.2226562 90.6328125,19.6523438 C90.9244792,20.0820312 91.0703125,20.7265625 91.0703125,21.5859375 C91.0703125,22.4453125 90.9257812,23.1002604 90.6367188,23.5507812 C90.3476562,24.0013021 89.9583333,24.2265625 89.46875,24.2265625 Z M98.5234375,26.15625 C99.1223958,26.15625 99.65625,26.0455729 100.125,25.8242188 C100.59375,25.6028646 100.955729,25.2890625 101.210938,24.8828125 L101.210938,24.8828125 L101.335938,24.8828125 L101.65625,26 L103.484375,26 L103.484375,17.265625 L101.101562,17.265625 L101.101562,21.375 C101.101562,22.40625 100.953125,23.1445312 100.65625,23.5898438 C100.359375,24.0351562 99.8776042,24.2578125 99.2109375,24.2578125 C98.7213542,24.2578125 98.3645833,24.1002604 98.140625,23.7851562 C97.9166667,23.4700521 97.8046875,22.9973958 97.8046875,22.3671875 L97.8046875,22.3671875 L97.8046875,17.265625 L95.421875,17.265625 L95.421875,22.9609375 C95.421875,23.9921875 95.6822917,24.7825521 96.203125,25.3320312 C96.7239583,25.8815104 97.4973958,26.15625 98.5234375,26.15625 Z M108.976562,26.15625 C109.841146,26.15625 110.570312,26.0234375 111.164062,25.7578125 L111.164062,25.7578125 L111.164062,23.984375 C110.580729,24.1666667 110.080729,24.2578125 109.664062,24.2578125 C109.351562,24.2578125 109.10026,24.1770833 108.910156,24.015625 C108.720052,23.8541667 108.625,23.6041667 108.625,23.265625 L108.625,23.265625 L108.625,19.0546875 L111.070312,19.0546875 L111.070312,17.265625 L108.625,17.265625 L108.625,15.40625 L107.101562,15.40625 L106.414062,17.25 L105.101562,18.046875 L105.101562,19.0546875 L106.242188,19.0546875 L106.242188,23.265625 C106.242188,24.2291667 106.459635,24.9518229 106.894531,25.4335938 C107.329427,25.9153646 108.023438,26.15625 108.976562,26.15625 Z M115.921875,26.15625 C116.786458,26.15625 117.515625,26.0234375 118.109375,25.7578125 L118.109375,25.7578125 L118.109375,23.984375 C117.526042,24.1666667 117.026042,24.2578125 116.609375,24.2578125 C116.296875,24.2578125 116.045573,24.1770833 115.855469,24.015625 C115.665365,23.8541667 115.570312,23.6041667 115.570312,23.265625 L115.570312,23.265625 L115.570312,19.0546875 L118.015625,19.0546875 L118.015625,17.265625 L115.570312,17.265625 L115.570312,15.40625 L114.046875,15.40625 L113.359375,17.25 L112.046875,18.046875 L112.046875,19.0546875 L113.1875,19.0546875 L113.1875,23.265625 C113.1875,24.2291667 113.404948,24.9518229 113.839844,25.4335938 C114.27474,25.9153646 114.96875,26.15625 115.921875,26.15625 Z M123.554688,26.15625 C124.893229,26.15625 125.9375,25.7552083 126.6875,24.953125 C127.4375,24.1510417 127.8125,23.0390625 127.8125,21.6171875 C127.8125,20.7005208 127.640625,19.9010417 127.296875,19.21875 C126.953125,18.5364583 126.460938,18.0130208 125.820312,17.6484375 C125.179688,17.2838542 124.440104,17.1015625 123.601562,17.1015625 C122.252604,17.1015625 121.205729,17.4973958 120.460938,18.2890625 C119.716146,19.0807292 119.34375,20.1901042 119.34375,21.6171875 C119.34375,22.5338542 119.515625,23.3359375 119.859375,24.0234375 C120.203125,24.7109375 120.695312,25.2382812 121.335938,25.6054688 C121.976562,25.9726562 122.716146,26.15625 123.554688,26.15625 Z M123.585938,24.2421875 C122.945312,24.2421875 122.483073,24.0208333 122.199219,23.578125 C121.915365,23.1354167 121.773438,22.4817708 121.773438,21.6171875 C121.773438,20.7473958 121.914062,20.0976562 122.195312,19.6679688 C122.476562,19.2382812 122.934896,19.0234375 123.570312,19.0234375 C124.210938,19.0234375 124.671875,19.2395833 124.953125,19.671875 C125.234375,20.1041667 125.375,20.7526042 125.375,21.6171875 C125.375,22.4869792 125.235677,23.1419271 124.957031,23.5820312 C124.678385,24.0221354 124.221354,24.2421875 123.585938,24.2421875 Z M132.164062,26 L132.164062,21.890625 C132.164062,20.859375 132.3125,20.1210938 132.609375,19.6757812 C132.90625,19.2304688 133.388021,19.0078125 134.054688,19.0078125 C134.544271,19.0078125 134.901042,19.1653646 135.125,19.4804688 C135.348958,19.7955729 135.460938,20.2682292 135.460938,20.8984375 L135.460938,20.8984375 L135.460938,26 L137.84375,26 L137.84375,20.3046875 C137.84375,19.2682292 137.580729,18.4752604 137.054688,17.9257812 C136.528646,17.3763021 135.757812,17.1015625 134.742188,17.1015625 C134.148438,17.1015625 133.61849,17.2096354 133.152344,17.4257812 C132.686198,17.6419271 132.320312,17.9609375 132.054688,18.3828125 L132.054688,18.3828125 L131.921875,18.3828125 L131.601562,17.265625 L129.78125,17.265625 L129.78125,26 L132.164062,26 Z" id="Primarybutton" fill="#FFFFFF" fill-rule="nonzero"></path>
                </g>
            </g>
        </g>
    </g>
</svg>