<?xml version="1.0" encoding="UTF-8"?>
<svg width="672px" height="144px" viewBox="0 0 672 144" version="1.1" xmlns="http://www.w3.org/2000/svg" xmlns:xlink="http://www.w3.org/1999/xlink">
    <title>neutral-mid</title>
    <g id="Doc_exemplos" stroke="none" stroke-width="1" fill="none" fill-rule="evenodd">
        <g id="doc-exemplos-cores-expandido" transform="translate(-1497.000000, -3069.000000)">
            <g id="neutral-mid" transform="translate(1497.000000, 3069.000000)">
                <rect id="base" fill-opacity="0" fill="#D8D8D8" x="0" y="0" width="672" height="144"></rect>
                <g id="amostras" transform="translate(0.000000, 24.000000)">
                    <rect id="amostra" stroke="#F2F2F2" stroke-width="0.9" fill="#FFFFFF" x="0.45" y="0.45" width="55.1" height="54.9"></rect>
                    <path d="M23.6656,39.2016 C24.232,39.2016 24.748,39.0936 25.2136,38.8776 C25.6792,38.6616 26.0776,38.3352 26.4088,37.8984 C26.74,37.4616 26.9968,36.9144 27.1792,36.2568 C27.3616,35.5992 27.4528,34.8288 27.4528,33.9456 C27.4528,32.16 27.1264,30.8424 26.4736,29.9928 C25.8208,29.1432 24.8896,28.7184 23.68,28.7184 C23.1136,28.7184 22.6,28.8264 22.1392,29.0424 C21.6784,29.2584 21.2824,29.5824 20.9512,30.0144 C20.62,30.4464 20.3632,30.9912 20.1808,31.6488 C19.9984,32.3064 19.9072,33.072 19.9072,33.9456 C19.9072,35.6544 20.2288,36.9576 20.872,37.8552 C21.5152,38.7528 22.4464,39.2016 23.6656,39.2016 Z M21.7792,34.752 C21.7696,34.6176 21.7624,34.4856 21.7576,34.356 C21.7528,34.2264 21.7504,34.0896 21.7504,33.9456 C21.7504,32.6976 21.916,31.7784 22.2472,31.188 C22.5784,30.5976 23.0512,30.3024 23.6656,30.3024 C24.4624,30.3024 25.0048,30.7152 25.2928,31.5408 L25.2928,31.5408 L21.7792,34.752 Z M23.68,37.6176 C22.8928,37.6176 22.3504,37.1808 22.0528,36.3072 L22.0528,36.3072 L25.5808,33.096 C25.5904,33.2304 25.5976,33.3672 25.6024,33.5064 C25.6072,33.6456 25.6096,33.792 25.6096,33.9456 C25.6096,35.2224 25.4416,36.1536 25.1056,36.7392 C24.7696,37.3248 24.2944,37.6176 23.68,37.6176 Z M32.3056,39.2016 C32.872,39.2016 33.388,39.0936 33.8536,38.8776 C34.3192,38.6616 34.7176,38.3352 35.0488,37.8984 C35.38,37.4616 35.6368,36.9144 35.8192,36.2568 C36.0016,35.5992 36.0928,34.8288 36.0928,33.9456 C36.0928,32.16 35.7664,30.8424 35.1136,29.9928 C34.4608,29.1432 33.5296,28.7184 32.32,28.7184 C31.7536,28.7184 31.24,28.8264 30.7792,29.0424 C30.3184,29.2584 29.9224,29.5824 29.5912,30.0144 C29.26,30.4464 29.0032,30.9912 28.8208,31.6488 C28.6384,32.3064 28.5472,33.072 28.5472,33.9456 C28.5472,35.6544 28.8688,36.9576 29.512,37.8552 C30.1552,38.7528 31.0864,39.2016 32.3056,39.2016 Z M30.4192,34.752 C30.4096,34.6176 30.4024,34.4856 30.3976,34.356 C30.3928,34.2264 30.3904,34.0896 30.3904,33.9456 C30.3904,32.6976 30.556,31.7784 30.8872,31.188 C31.2184,30.5976 31.6912,30.3024 32.3056,30.3024 C33.1024,30.3024 33.6448,30.7152 33.9328,31.5408 L33.9328,31.5408 L30.4192,34.752 Z M32.32,37.6176 C31.5328,37.6176 30.9904,37.1808 30.6928,36.3072 L30.6928,36.3072 L34.2208,33.096 C34.2304,33.2304 34.2376,33.3672 34.2424,33.5064 C34.2472,33.6456 34.2496,33.792 34.2496,33.9456 C34.2496,35.2224 34.0816,36.1536 33.7456,36.7392 C33.4096,37.3248 32.9344,37.6176 32.32,37.6176 Z" id="00" fill="#000000" fill-rule="nonzero"></path>
                    <rect id="amostra" fill="#F2F2F2" x="56" y="-3.65929509e-13" width="56" height="55.8"></rect>
                    <path d="M80.0656,39.3016 C80.632,39.3016 81.148,39.1936 81.6136,38.9776 C82.0792,38.7616 82.4776,38.4352 82.8088,37.9984 C83.14,37.5616 83.3968,37.0144 83.5792,36.3568 C83.7616,35.6992 83.8528,34.9288 83.8528,34.0456 C83.8528,32.26 83.5264,30.9424 82.8736,30.0928 C82.2208,29.2432 81.2896,28.8184 80.08,28.8184 C79.5136,28.8184 79,28.9264 78.5392,29.1424 C78.0784,29.3584 77.6824,29.6824 77.3512,30.1144 C77.02,30.5464 76.7632,31.0912 76.5808,31.7488 C76.3984,32.4064 76.3072,33.172 76.3072,34.0456 C76.3072,35.7544 76.6288,37.0576 77.272,37.9552 C77.9152,38.8528 78.8464,39.3016 80.0656,39.3016 Z M78.1792,34.852 C78.1696,34.7176 78.1624,34.5856 78.1576,34.456 C78.1528,34.3264 78.1504,34.1896 78.1504,34.0456 C78.1504,32.7976 78.316,31.8784 78.6472,31.288 C78.9784,30.6976 79.4512,30.4024 80.0656,30.4024 C80.8624,30.4024 81.4048,30.8152 81.6928,31.6408 L81.6928,31.6408 L78.1792,34.852 Z M80.08,37.7176 C79.2928,37.7176 78.7504,37.2808 78.4528,36.4072 L78.4528,36.4072 L81.9808,33.196 C81.9904,33.3304 81.9976,33.4672 82.0024,33.6064 C82.0072,33.7456 82.0096,33.892 82.0096,34.0456 C82.0096,35.3224 81.8416,36.2536 81.5056,36.8392 C81.1696,37.4248 80.6944,37.7176 80.08,37.7176 Z M87.8992,39.3016 C88.4464,39.3016 88.96,39.2272 89.44,39.0784 C89.92,38.9296 90.3424,38.7112 90.7072,38.4232 C91.072,38.1352 91.36,37.7776 91.5712,37.3504 C91.7824,36.9232 91.888,36.4264 91.888,35.86 C91.888,35.38 91.804,34.9408 91.636,34.5424 C91.468,34.144 91.2304,33.8056 90.9232,33.5272 C90.616,33.2488 90.256,33.04 89.8432,32.9008 C89.4304,32.7616 88.984,32.692 88.504,32.692 C88.456,32.692 88.4008,32.6944 88.3384,32.6992 C88.276,32.704 88.2112,32.7064 88.144,32.7064 C88.0672,32.716 87.9904,32.7208 87.9136,32.7208 L87.9136,32.7208 L87.9136,30.748 L91.5136,30.748 L91.5136,29.02 L86.3008,29.02 L86.3008,34.2904 C86.4544,34.2904 86.6032,34.2856 86.7472,34.276 C86.872,34.2664 87.004,34.2592 87.1432,34.2544 C87.2824,34.2496 87.4048,34.2472 87.5104,34.2472 C88.3456,34.2472 88.972,34.3984 89.3896,34.7008 C89.8072,35.0032 90.016,35.4184 90.016,35.9464 C90.016,36.2152 89.9608,36.4552 89.8504,36.6664 C89.74,36.8776 89.5864,37.0552 89.3896,37.1992 C89.1928,37.3432 88.96,37.4536 88.6912,37.5304 C88.4224,37.6072 88.1296,37.6456 87.8128,37.6456 C87.4384,37.6456 87.0808,37.588 86.74,37.4728 C86.3992,37.3576 86.1472,37.252 85.984,37.156 L85.984,37.156 L85.3792,38.6536 C85.5136,38.7208 85.6792,38.7928 85.876,38.8696 C86.0728,38.9464 86.2864,39.016 86.5168,39.0784 C86.7472,39.1408 86.9824,39.1936 87.2224,39.2368 C87.4624,39.28 87.688,39.3016 87.8992,39.3016 Z" id="05" fill="#000000" fill-rule="nonzero"></path>
                    <rect id="amostra" fill="#E6E6E6" x="112" y="-3.65929509e-13" width="56" height="55.8"></rect>
                    <path d="M139.0352,39.1 L139.0352,37.516 L136.8752,37.516 L136.8752,29.02 L135.608,29.02 L132.3248,31.5256 L133.1888,32.6776 L135.0896,31.2232 L135.0896,37.516 L132.8864,37.516 L132.8864,39.1 L139.0352,39.1 Z M144.3056,39.3016 C144.872,39.3016 145.388,39.1936 145.8536,38.9776 C146.3192,38.7616 146.7176,38.4352 147.0488,37.9984 C147.38,37.5616 147.6368,37.0144 147.8192,36.3568 C148.0016,35.6992 148.0928,34.9288 148.0928,34.0456 C148.0928,32.26 147.7664,30.9424 147.1136,30.0928 C146.4608,29.2432 145.5296,28.8184 144.32,28.8184 C143.7536,28.8184 143.24,28.9264 142.7792,29.1424 C142.3184,29.3584 141.9224,29.6824 141.5912,30.1144 C141.26,30.5464 141.0032,31.0912 140.8208,31.7488 C140.6384,32.4064 140.5472,33.172 140.5472,34.0456 C140.5472,35.7544 140.8688,37.0576 141.512,37.9552 C142.1552,38.8528 143.0864,39.3016 144.3056,39.3016 Z M142.4192,34.852 C142.4096,34.7176 142.4024,34.5856 142.3976,34.456 C142.3928,34.3264 142.3904,34.1896 142.3904,34.0456 C142.3904,32.7976 142.556,31.8784 142.8872,31.288 C143.2184,30.6976 143.6912,30.4024 144.3056,30.4024 C145.1024,30.4024 145.6448,30.8152 145.9328,31.6408 L145.9328,31.6408 L142.4192,34.852 Z M144.32,37.7176 C143.5328,37.7176 142.9904,37.2808 142.6928,36.4072 L142.6928,36.4072 L146.2208,33.196 C146.2304,33.3304 146.2376,33.4672 146.2424,33.6064 C146.2472,33.7456 146.2496,33.892 146.2496,34.0456 C146.2496,35.3224 146.0816,36.2536 145.7456,36.8392 C145.4096,37.4248 144.9344,37.7176 144.32,37.7176 Z" id="10" fill="#000000" fill-rule="nonzero"></path>
                    <rect id="amostra" fill="#CCCCCC" x="168" y="0" width="56" height="55.8"></rect>
                    <path d="M194.8912,39 L194.8912,37.416 L190.744,37.416 C190.9168,37.2816 191.1112,37.1136 191.3272,36.912 C191.5432,36.7104 191.7616,36.4944 191.9824,36.264 C192.2032,36.0336 192.4264,35.7912 192.652,35.5368 C192.8776,35.2824 193.0864,35.0304 193.2784,34.7808 C193.528,34.4544 193.7416,34.152 193.9192,33.8736 C194.0968,33.5952 194.2408,33.324 194.3512,33.06 C194.4616,32.796 194.5432,32.532 194.596,32.268 C194.6488,32.004 194.6752,31.7184 194.6752,31.4112 C194.6752,30.9696 194.5888,30.5808 194.416,30.2448 C194.2432,29.9088 194.0104,29.628 193.7176,29.4024 C193.4248,29.1768 193.0888,29.0064 192.7096,28.8912 C192.3304,28.776 191.9344,28.7184 191.5216,28.7184 C190.8784,28.7184 190.3096,28.8168 189.8152,29.0136 C189.3208,29.2104 188.872,29.4528 188.4688,29.7408 L188.4688,29.7408 L189.2176,31.0656 C189.5248,30.816 189.82,30.6384 190.1032,30.5328 C190.3864,30.4272 190.7008,30.3744 191.0464,30.3744 C191.3056,30.3744 191.5432,30.4152 191.7592,30.4968 C191.9752,30.5784 192.16,30.6888 192.3136,30.828 C192.4672,30.9672 192.5872,31.128 192.6736,31.3104 C192.76,31.4928 192.8032,31.68 192.8032,31.872 C192.8032,32.1408 192.7648,32.4024 192.688,32.6568 C192.6112,32.9112 192.4936,33.1704 192.3352,33.4344 C192.1768,33.6984 191.9752,33.9792 191.7304,34.2768 C191.4856,34.5744 191.2,34.9056 190.8736,35.2704 C190.6432,35.5296 190.408,35.7792 190.168,36.0192 C189.928,36.2592 189.7,36.48 189.484,36.6816 C189.268,36.8832 189.0736,37.0632 188.9008,37.2216 C188.728,37.38 188.584,37.5072 188.4688,37.6032 L188.4688,37.6032 L188.4688,39 L194.8912,39 Z M200.3056,39.2016 C200.872,39.2016 201.388,39.0936 201.8536,38.8776 C202.3192,38.6616 202.7176,38.3352 203.0488,37.8984 C203.38,37.4616 203.6368,36.9144 203.8192,36.2568 C204.0016,35.5992 204.0928,34.8288 204.0928,33.9456 C204.0928,32.16 203.7664,30.8424 203.1136,29.9928 C202.4608,29.1432 201.5296,28.7184 200.32,28.7184 C199.7536,28.7184 199.24,28.8264 198.7792,29.0424 C198.3184,29.2584 197.9224,29.5824 197.5912,30.0144 C197.26,30.4464 197.0032,30.9912 196.8208,31.6488 C196.6384,32.3064 196.5472,33.072 196.5472,33.9456 C196.5472,35.6544 196.8688,36.9576 197.512,37.8552 C198.1552,38.7528 199.0864,39.2016 200.3056,39.2016 Z M198.4192,34.752 C198.4096,34.6176 198.4024,34.4856 198.3976,34.356 C198.3928,34.2264 198.3904,34.0896 198.3904,33.9456 C198.3904,32.6976 198.556,31.7784 198.8872,31.188 C199.2184,30.5976 199.6912,30.3024 200.3056,30.3024 C201.1024,30.3024 201.6448,30.7152 201.9328,31.5408 L201.9328,31.5408 L198.4192,34.752 Z M200.32,37.6176 C199.5328,37.6176 198.9904,37.1808 198.6928,36.3072 L198.6928,36.3072 L202.2208,33.096 C202.2304,33.2304 202.2376,33.3672 202.2424,33.5064 C202.2472,33.6456 202.2496,33.792 202.2496,33.9456 C202.2496,35.2224 202.0816,36.1536 201.7456,36.7392 C201.4096,37.3248 200.9344,37.6176 200.32,37.6176 Z" id="20" fill="#000000" fill-rule="nonzero"></path>
                    <rect id="amostra" fill="#B3B3B3" x="224" y="0" width="56" height="55.8"></rect>
                    <path d="M246.96,39.2016 C247.4688,39.2016 247.9632,39.132 248.4432,38.9928 C248.9232,38.8536 249.348,38.6424 249.7176,38.3592 C250.0872,38.076 250.3848,37.728 250.6104,37.3152 C250.836,36.9024 250.9488,36.4224 250.9488,35.8752 C250.9488,35.424 250.8744,35.0256 250.7256,34.68 C250.5768,34.3344 250.38,34.0464 250.1352,33.816 C249.8904,33.5856 249.6096,33.4128 249.2928,33.2976 C248.976,33.1824 248.6496,33.1248 248.3136,33.1248 L248.3136,33.1248 L247.9824,33.1248 L250.5168,30.2304 L250.5168,28.92 L244.6416,28.92 L244.6416,30.504 L248.2848,30.504 L245.8656,33.456 L245.8656,34.4784 L246.672,34.4784 C247.0176,34.4784 247.3392,34.5024 247.6368,34.5504 C247.9344,34.5984 248.1888,34.68 248.4,34.7952 C248.6112,34.9104 248.7768,35.0664 248.8968,35.2632 C249.0168,35.46 249.0768,35.7024 249.0768,35.9904 C249.0768,36.2208 249.024,36.4344 248.9184,36.6312 C248.8128,36.828 248.6664,37.0008 248.4792,37.1496 C248.292,37.2984 248.0664,37.4136 247.8024,37.4952 C247.5384,37.5768 247.248,37.6176 246.9312,37.6176 C246.7392,37.6176 246.5448,37.6032 246.348,37.5744 C246.1512,37.5456 245.9592,37.5072 245.772,37.4592 C245.5848,37.4112 245.4168,37.3632 245.268,37.3152 C245.1192,37.2672 245.0016,37.2192 244.9152,37.1712 L244.9152,37.1712 L244.4112,38.7264 C244.8144,38.8896 245.232,39.0096 245.664,39.0864 C246.096,39.1632 246.528,39.2016 246.96,39.2016 Z M256.3056,39.2016 C256.872,39.2016 257.388,39.0936 257.8536,38.8776 C258.3192,38.6616 258.7176,38.3352 259.0488,37.8984 C259.38,37.4616 259.6368,36.9144 259.8192,36.2568 C260.0016,35.5992 260.0928,34.8288 260.0928,33.9456 C260.0928,32.16 259.7664,30.8424 259.1136,29.9928 C258.4608,29.1432 257.5296,28.7184 256.32,28.7184 C255.7536,28.7184 255.24,28.8264 254.7792,29.0424 C254.3184,29.2584 253.9224,29.5824 253.5912,30.0144 C253.26,30.4464 253.0032,30.9912 252.8208,31.6488 C252.6384,32.3064 252.5472,33.072 252.5472,33.9456 C252.5472,35.6544 252.8688,36.9576 253.512,37.8552 C254.1552,38.7528 255.0864,39.2016 256.3056,39.2016 Z M254.4192,34.752 C254.4096,34.6176 254.4024,34.4856 254.3976,34.356 C254.3928,34.2264 254.3904,34.0896 254.3904,33.9456 C254.3904,32.6976 254.556,31.7784 254.8872,31.188 C255.2184,30.5976 255.6912,30.3024 256.3056,30.3024 C257.1024,30.3024 257.6448,30.7152 257.9328,31.5408 L257.9328,31.5408 L254.4192,34.752 Z M256.32,37.6176 C255.5328,37.6176 254.9904,37.1808 254.6928,36.3072 L254.6928,36.3072 L258.2208,33.096 C258.2304,33.2304 258.2376,33.3672 258.2424,33.5064 C258.2472,33.6456 258.2496,33.792 258.2496,33.9456 C258.2496,35.2224 258.0816,36.1536 257.7456,36.7392 C257.4096,37.3248 256.9344,37.6176 256.32,37.6176 Z" id="30" fill="#000000" fill-rule="nonzero"></path>
                    <rect id="amostra" fill="#999999" x="280" y="0" width="56" height="55.8"></rect>
                    <path d="M305.9408,39 L305.9408,36.192 L307.6688,36.192 L307.6688,34.6944 L305.9408,34.6944 L305.9408,28.848 L304.4,28.848 L299.8352,34.9104 L299.8352,36.192 L304.1984,36.192 L304.1984,39 L305.9408,39 Z M304.1984,34.6944 L301.6928,34.6944 L304.1984,31.4976 L304.1984,34.6944 Z M312.3056,39.2016 C312.872,39.2016 313.388,39.0936 313.8536,38.8776 C314.3192,38.6616 314.7176,38.3352 315.0488,37.8984 C315.38,37.4616 315.6368,36.9144 315.8192,36.2568 C316.0016,35.5992 316.0928,34.8288 316.0928,33.9456 C316.0928,32.16 315.7664,30.8424 315.1136,29.9928 C314.4608,29.1432 313.5296,28.7184 312.32,28.7184 C311.7536,28.7184 311.24,28.8264 310.7792,29.0424 C310.3184,29.2584 309.9224,29.5824 309.5912,30.0144 C309.26,30.4464 309.0032,30.9912 308.8208,31.6488 C308.6384,32.3064 308.5472,33.072 308.5472,33.9456 C308.5472,35.6544 308.8688,36.9576 309.512,37.8552 C310.1552,38.7528 311.0864,39.2016 312.3056,39.2016 Z M310.4192,34.752 C310.4096,34.6176 310.4024,34.4856 310.3976,34.356 C310.3928,34.2264 310.3904,34.0896 310.3904,33.9456 C310.3904,32.6976 310.556,31.7784 310.8872,31.188 C311.2184,30.5976 311.6912,30.3024 312.3056,30.3024 C313.1024,30.3024 313.6448,30.7152 313.9328,31.5408 L313.9328,31.5408 L310.4192,34.752 Z M312.32,37.6176 C311.5328,37.6176 310.9904,37.1808 310.6928,36.3072 L310.6928,36.3072 L314.2208,33.096 C314.2304,33.2304 314.2376,33.3672 314.2424,33.5064 C314.2472,33.6456 314.2496,33.792 314.2496,33.9456 C314.2496,35.2224 314.0816,36.1536 313.7456,36.7392 C313.4096,37.3248 312.9344,37.6176 312.32,37.6176 Z" id="40" fill="#000000" fill-rule="nonzero"></path>
                    <rect id="amostra" fill="#808080" x="336" y="0" width="56" height="55.8"></rect>
                    <path d="M358.8592,39.2016 C359.4064,39.2016 359.92,39.1272 360.4,38.9784 C360.88,38.8296 361.3024,38.6112 361.6672,38.3232 C362.032,38.0352 362.32,37.6776 362.5312,37.2504 C362.7424,36.8232 362.848,36.3264 362.848,35.76 C362.848,35.28 362.764,34.8408 362.596,34.4424 C362.428,34.044 362.1904,33.7056 361.8832,33.4272 C361.576,33.1488 361.216,32.94 360.8032,32.8008 C360.3904,32.6616 359.944,32.592 359.464,32.592 C359.416,32.592 359.3608,32.5944 359.2984,32.5992 C359.236,32.604 359.1712,32.6064 359.104,32.6064 C359.0272,32.616 358.9504,32.6208 358.8736,32.6208 L358.8736,32.6208 L358.8736,30.648 L362.4736,30.648 L362.4736,28.92 L357.2608,28.92 L357.2608,34.1904 C357.4144,34.1904 357.5632,34.1856 357.7072,34.176 C357.832,34.1664 357.964,34.1592 358.1032,34.1544 C358.2424,34.1496 358.3648,34.1472 358.4704,34.1472 C359.3056,34.1472 359.932,34.2984 360.3496,34.6008 C360.7672,34.9032 360.976,35.3184 360.976,35.8464 C360.976,36.1152 360.9208,36.3552 360.8104,36.5664 C360.7,36.7776 360.5464,36.9552 360.3496,37.0992 C360.1528,37.2432 359.92,37.3536 359.6512,37.4304 C359.3824,37.5072 359.0896,37.5456 358.7728,37.5456 C358.3984,37.5456 358.0408,37.488 357.7,37.3728 C357.3592,37.2576 357.1072,37.152 356.944,37.056 L356.944,37.056 L356.3392,38.5536 C356.4736,38.6208 356.6392,38.6928 356.836,38.7696 C357.0328,38.8464 357.2464,38.916 357.4768,38.9784 C357.7072,39.0408 357.9424,39.0936 358.1824,39.1368 C358.4224,39.18 358.648,39.2016 358.8592,39.2016 Z M368.3056,39.2016 C368.872,39.2016 369.388,39.0936 369.8536,38.8776 C370.3192,38.6616 370.7176,38.3352 371.0488,37.8984 C371.38,37.4616 371.6368,36.9144 371.8192,36.2568 C372.0016,35.5992 372.0928,34.8288 372.0928,33.9456 C372.0928,32.16 371.7664,30.8424 371.1136,29.9928 C370.4608,29.1432 369.5296,28.7184 368.32,28.7184 C367.7536,28.7184 367.24,28.8264 366.7792,29.0424 C366.3184,29.2584 365.9224,29.5824 365.5912,30.0144 C365.26,30.4464 365.0032,30.9912 364.8208,31.6488 C364.6384,32.3064 364.5472,33.072 364.5472,33.9456 C364.5472,35.6544 364.8688,36.9576 365.512,37.8552 C366.1552,38.7528 367.0864,39.2016 368.3056,39.2016 Z M366.4192,34.752 C366.4096,34.6176 366.4024,34.4856 366.3976,34.356 C366.3928,34.2264 366.3904,34.0896 366.3904,33.9456 C366.3904,32.6976 366.556,31.7784 366.8872,31.188 C367.2184,30.5976 367.6912,30.3024 368.3056,30.3024 C369.1024,30.3024 369.6448,30.7152 369.9328,31.5408 L369.9328,31.5408 L366.4192,34.752 Z M368.32,37.6176 C367.5328,37.6176 366.9904,37.1808 366.6928,36.3072 L366.6928,36.3072 L370.2208,33.096 C370.2304,33.2304 370.2376,33.3672 370.2424,33.5064 C370.2472,33.6456 370.2496,33.792 370.2496,33.9456 C370.2496,35.2224 370.0816,36.1536 369.7456,36.7392 C369.4096,37.3248 368.9344,37.6176 368.32,37.6176 Z" id="50" fill="#000000" fill-rule="nonzero"></path>
                    <rect id="amostra" fill="#666666" x="392" y="0" width="56" height="55.8"></rect>
                    <path d="M415.752,39.2016 C416.2416,39.2016 416.7,39.1152 417.1272,38.9424 C417.5544,38.7696 417.9216,38.5344 418.2288,38.2368 C418.536,37.9392 418.7784,37.5888 418.956,37.1856 C419.1336,36.7824 419.2224,36.3456 419.2224,35.8752 C419.2224,35.3856 419.1432,34.9488 418.9848,34.5648 C418.8264,34.1808 418.6104,33.8568 418.3368,33.5928 C418.0632,33.3288 417.7392,33.1272 417.3648,32.988 C416.9904,32.8488 416.5872,32.7792 416.1552,32.7792 C415.6944,32.7792 415.272,32.8632 414.888,33.0312 C414.504,33.1992 414.216,33.4032 414.024,33.6432 C414.1104,33.24 414.2712,32.8512 414.5064,32.4768 C414.7416,32.1024 415.032,31.7616 415.3776,31.4544 C415.7232,31.1472 416.1168,30.8856 416.5584,30.6696 C417,30.4536 417.4752,30.2976 417.984,30.2016 L417.984,30.2016 L417.5664,28.7184 C416.9328,28.8144 416.2944,29.0376 415.6512,29.388 C415.008,29.7384 414.4272,30.1992 413.9088,30.7704 C413.3904,31.3416 412.9656,32.016 412.6344,32.7936 C412.3032,33.5712 412.1376,34.4352 412.1376,35.3856 C412.1376,36.0192 412.2336,36.576 412.4256,37.056 C412.6176,37.536 412.8768,37.9344 413.2032,38.2512 C413.5296,38.568 413.9112,38.8056 414.348,38.964 C414.7848,39.1224 415.2528,39.2016 415.752,39.2016 Z M415.6512,37.6176 C415.3728,37.6176 415.128,37.572 414.9168,37.4808 C414.7056,37.3896 414.5256,37.2648 414.3768,37.1064 C414.228,36.948 414.1152,36.7632 414.0384,36.552 C413.9616,36.3408 413.9232,36.12 413.9232,35.8896 C413.9232,35.8128 413.9256,35.7096 413.9304,35.58 C413.9352,35.4504 413.9472,35.3328 413.9664,35.2272 C414.1104,34.9968 414.336,34.7952 414.6432,34.6224 C414.9504,34.4496 415.296,34.3632 415.68,34.3632 C416.208,34.3632 416.628,34.4976 416.94,34.7664 C417.252,35.0352 417.408,35.4288 417.408,35.9472 C417.408,36.1968 417.3576,36.4248 417.2568,36.6312 C417.156,36.8376 417.024,37.0128 416.8608,37.1568 C416.6976,37.3008 416.5104,37.4136 416.2992,37.4952 C416.088,37.5768 415.872,37.6176 415.6512,37.6176 Z M424.3056,39.2016 C424.872,39.2016 425.388,39.0936 425.8536,38.8776 C426.3192,38.6616 426.7176,38.3352 427.0488,37.8984 C427.38,37.4616 427.6368,36.9144 427.8192,36.2568 C428.0016,35.5992 428.0928,34.8288 428.0928,33.9456 C428.0928,32.16 427.7664,30.8424 427.1136,29.9928 C426.4608,29.1432 425.5296,28.7184 424.32,28.7184 C423.7536,28.7184 423.24,28.8264 422.7792,29.0424 C422.3184,29.2584 421.9224,29.5824 421.5912,30.0144 C421.26,30.4464 421.0032,30.9912 420.8208,31.6488 C420.6384,32.3064 420.5472,33.072 420.5472,33.9456 C420.5472,35.6544 420.8688,36.9576 421.512,37.8552 C422.1552,38.7528 423.0864,39.2016 424.3056,39.2016 Z M422.4192,34.752 C422.4096,34.6176 422.4024,34.4856 422.3976,34.356 C422.3928,34.2264 422.3904,34.0896 422.3904,33.9456 C422.3904,32.6976 422.556,31.7784 422.8872,31.188 C423.2184,30.5976 423.6912,30.3024 424.3056,30.3024 C425.1024,30.3024 425.6448,30.7152 425.9328,31.5408 L425.9328,31.5408 L422.4192,34.752 Z M424.32,37.6176 C423.5328,37.6176 422.9904,37.1808 422.6928,36.3072 L422.6928,36.3072 L426.2208,33.096 C426.2304,33.2304 426.2376,33.3672 426.2424,33.5064 C426.2472,33.6456 426.2496,33.792 426.2496,33.9456 C426.2496,35.2224 426.0816,36.1536 425.7456,36.7392 C425.4096,37.3248 424.9344,37.6176 424.32,37.6176 Z" id="60" fill="#FFFFFF" fill-rule="nonzero"></path>
                    <rect id="amostra" fill="#4D4D4D" x="448" y="0" width="56" height="55.8"></rect>
                    <path d="M470.6576,39 L474.848,30.3312 L474.848,28.92 L468.2816,28.92 L468.2816,30.6192 L472.976,30.6192 L468.8288,39 L470.6576,39 Z M480.3056,39.2016 C480.872,39.2016 481.388,39.0936 481.8536,38.8776 C482.3192,38.6616 482.7176,38.3352 483.0488,37.8984 C483.38,37.4616 483.6368,36.9144 483.8192,36.2568 C484.0016,35.5992 484.0928,34.8288 484.0928,33.9456 C484.0928,32.16 483.7664,30.8424 483.1136,29.9928 C482.4608,29.1432 481.5296,28.7184 480.32,28.7184 C479.7536,28.7184 479.24,28.8264 478.7792,29.0424 C478.3184,29.2584 477.9224,29.5824 477.5912,30.0144 C477.26,30.4464 477.0032,30.9912 476.8208,31.6488 C476.6384,32.3064 476.5472,33.072 476.5472,33.9456 C476.5472,35.6544 476.8688,36.9576 477.512,37.8552 C478.1552,38.7528 479.0864,39.2016 480.3056,39.2016 Z M478.4192,34.752 C478.4096,34.6176 478.4024,34.4856 478.3976,34.356 C478.3928,34.2264 478.3904,34.0896 478.3904,33.9456 C478.3904,32.6976 478.556,31.7784 478.8872,31.188 C479.2184,30.5976 479.6912,30.3024 480.3056,30.3024 C481.1024,30.3024 481.6448,30.7152 481.9328,31.5408 L481.9328,31.5408 L478.4192,34.752 Z M480.32,37.6176 C479.5328,37.6176 478.9904,37.1808 478.6928,36.3072 L478.6928,36.3072 L482.2208,33.096 C482.2304,33.2304 482.2376,33.3672 482.2424,33.5064 C482.2472,33.6456 482.2496,33.792 482.2496,33.9456 C482.2496,35.2224 482.0816,36.1536 481.7456,36.7392 C481.4096,37.3248 480.9344,37.6176 480.32,37.6176 Z" id="70" fill="#FFFFFF" fill-rule="nonzero"></path>
                    <rect id="amostra" fill="#333333" x="504" y="0" width="56" height="55.8"></rect>
                    <path d="M527.6224,39.2016 C528.1024,39.2016 528.556,39.132 528.9832,38.9928 C529.4104,38.8536 529.7824,38.6592 530.0992,38.4096 C530.416,38.16 530.668,37.86 530.8552,37.5096 C531.0424,37.1592 531.136,36.768 531.136,36.336 C531.136,35.7024 530.9656,35.184 530.6248,34.7808 C530.284,34.3776 529.8256,34.0272 529.2496,33.7296 C529.7584,33.4224 530.1592,33.0576 530.452,32.6352 C530.7448,32.2128 530.8912,31.7184 530.8912,31.152 C530.8912,30.7872 530.8096,30.4536 530.6464,30.1512 C530.4832,29.8488 530.2576,29.592 529.9696,29.3808 C529.6816,29.1696 529.348,29.0064 528.9688,28.8912 C528.5896,28.776 528.184,28.7184 527.752,28.7184 C527.2816,28.7184 526.8448,28.7856 526.4416,28.92 C526.0384,29.0544 525.6904,29.2416 525.3976,29.4816 C525.1048,29.7216 524.8768,30.0048 524.7136,30.3312 C524.5504,30.6576 524.4688,31.008 524.4688,31.3824 C524.4688,31.9584 524.6272,32.436 524.944,32.8152 C525.2608,33.1944 525.6592,33.5232 526.1392,33.8016 C525.8992,33.936 525.664,34.092 525.4336,34.2696 C525.2032,34.4472 524.9992,34.6464 524.8216,34.8672 C524.644,35.088 524.5,35.3376 524.3896,35.616 C524.2792,35.8944 524.224,36.2016 524.224,36.5376 C524.224,36.9408 524.3104,37.3056 524.4832,37.632 C524.656,37.9584 524.896,38.2368 525.2032,38.4672 C525.5104,38.6976 525.8704,38.8776 526.2832,39.0072 C526.696,39.1368 527.1424,39.2016 527.6224,39.2016 Z M527.9392,33.0816 C527.7376,32.9856 527.536,32.8896 527.3344,32.7936 C527.1328,32.6976 526.9528,32.5896 526.7944,32.4696 C526.636,32.3496 526.5064,32.2104 526.4056,32.052 C526.3048,31.8936 526.2544,31.6992 526.2544,31.4688 C526.2544,31.3248 526.2904,31.1808 526.3624,31.0368 C526.4344,30.8928 526.5352,30.768 526.6648,30.6624 C526.7944,30.5568 526.948,30.4704 527.1256,30.4032 C527.3032,30.336 527.4976,30.3024 527.7088,30.3024 C527.8912,30.3024 528.0688,30.3288 528.2416,30.3816 C528.4144,30.4344 528.5704,30.5136 528.7096,30.6192 C528.8488,30.7248 528.9616,30.852 529.048,31.0008 C529.1344,31.1496 529.1776,31.3248 529.1776,31.5264 C529.1776,31.68 529.1416,31.8312 529.0696,31.98 C528.9976,32.1288 528.904,32.2728 528.7888,32.412 C528.6736,32.5512 528.5416,32.6784 528.3928,32.7936 C528.244,32.9088 528.0928,33.0048 527.9392,33.0816 Z M527.6656,37.6176 C527.1184,37.6176 526.6912,37.5 526.384,37.2648 C526.0768,37.0296 525.9232,36.696 525.9232,36.264 C525.9232,35.9664 526.0528,35.652 526.312,35.3208 C526.5712,34.9896 526.9408,34.7184 527.4208,34.5072 C527.632,34.6224 527.8504,34.7352 528.076,34.8456 C528.3016,34.956 528.508,35.0784 528.6952,35.2128 C528.8824,35.3472 529.0384,35.5008 529.1632,35.6736 C529.288,35.8464 529.3504,36.0528 529.3504,36.2928 C529.3504,36.7248 529.192,37.0536 528.8752,37.2792 C528.5584,37.5048 528.1552,37.6176 527.6656,37.6176 Z M536.3056,39.2016 C536.872,39.2016 537.388,39.0936 537.8536,38.8776 C538.3192,38.6616 538.7176,38.3352 539.0488,37.8984 C539.38,37.4616 539.6368,36.9144 539.8192,36.2568 C540.0016,35.5992 540.0928,34.8288 540.0928,33.9456 C540.0928,32.16 539.7664,30.8424 539.1136,29.9928 C538.4608,29.1432 537.5296,28.7184 536.32,28.7184 C535.7536,28.7184 535.24,28.8264 534.7792,29.0424 C534.3184,29.2584 533.9224,29.5824 533.5912,30.0144 C533.26,30.4464 533.0032,30.9912 532.8208,31.6488 C532.6384,32.3064 532.5472,33.072 532.5472,33.9456 C532.5472,35.6544 532.8688,36.9576 533.512,37.8552 C534.1552,38.7528 535.0864,39.2016 536.3056,39.2016 Z M534.4192,34.752 C534.4096,34.6176 534.4024,34.4856 534.3976,34.356 C534.3928,34.2264 534.3904,34.0896 534.3904,33.9456 C534.3904,32.6976 534.556,31.7784 534.8872,31.188 C535.2184,30.5976 535.6912,30.3024 536.3056,30.3024 C537.1024,30.3024 537.6448,30.7152 537.9328,31.5408 L537.9328,31.5408 L534.4192,34.752 Z M536.32,37.6176 C535.5328,37.6176 534.9904,37.1808 534.6928,36.3072 L534.6928,36.3072 L538.2208,33.096 C538.2304,33.2304 538.2376,33.3672 538.2424,33.5064 C538.2472,33.6456 538.2496,33.792 538.2496,33.9456 C538.2496,35.2224 538.0816,36.1536 537.7456,36.7392 C537.4096,37.3248 536.9344,37.6176 536.32,37.6176 Z" id="80" fill="#FFFFFF" fill-rule="nonzero"></path>
                    <rect id="amostra" fill="#1A1A1A" x="560" y="0" width="56" height="55.8"></rect>
                    <path d="M581.9232,39.2016 C582.624,39.1248 583.296,38.9424 583.9392,38.6544 C584.5824,38.3664 585.1464,37.9536 585.6312,37.416 C586.116,36.8784 586.5024,36.2064 586.7904,35.4 C587.0784,34.5936 587.2224,33.6336 587.2224,32.52 C587.2224,31.9056 587.136,31.3608 586.9632,30.8856 C586.7904,30.4104 586.5456,30.012 586.2288,29.6904 C585.912,29.3688 585.5328,29.1264 585.0912,28.9632 C584.6496,28.8 584.16,28.7184 583.6224,28.7184 C583.0944,28.7184 582.6168,28.8024 582.1896,28.9704 C581.7624,29.1384 581.3976,29.3688 581.0952,29.6616 C580.7928,29.9544 580.5576,30.3072 580.3896,30.72 C580.2216,31.1328 580.1376,31.584 580.1376,32.0736 C580.1376,32.592 580.2336,33.0456 580.4256,33.4344 C580.6176,33.8232 580.8648,34.1472 581.1672,34.4064 C581.4696,34.6656 581.808,34.8576 582.1824,34.9824 C582.5568,35.1072 582.9264,35.1696 583.2912,35.1696 L583.2912,35.1696 L583.32,35.1696 C583.7616,35.1696 584.1408,35.1096 584.4576,34.9896 C584.7744,34.8696 585.0336,34.7088 585.2352,34.5072 C585.1776,34.92 585.048,35.3064 584.8464,35.6664 C584.6448,36.0264 584.3856,36.348 584.0688,36.6312 C583.752,36.9144 583.38,37.152 582.9528,37.344 C582.5256,37.536 582.048,37.6656 581.52,37.7328 L581.52,37.7328 L581.9232,39.2016 Z M583.7376,33.6288 C583.5072,33.6288 583.284,33.5928 583.068,33.5208 C582.852,33.4488 582.6624,33.3432 582.4992,33.204 C582.336,33.0648 582.204,32.892 582.1032,32.6856 C582.0024,32.4792 581.952,32.2416 581.952,31.9728 C581.952,31.4352 582.1104,31.0152 582.4272,30.7128 C582.744,30.4104 583.1376,30.2592 583.608,30.2592 C583.9056,30.2592 584.1696,30.3192 584.4,30.4392 C584.6304,30.5592 584.8224,30.72 584.976,30.9216 C585.1296,31.1232 585.2448,31.3536 585.3216,31.6128 C585.3984,31.872 585.4368,32.136 585.4368,32.4048 C585.4368,32.5872 585.4224,32.7792 585.3936,32.9808 C585.2592,33.1632 585.048,33.3168 584.76,33.4416 C584.472,33.5664 584.1312,33.6288 583.7376,33.6288 Z M592.3056,39.2016 C592.872,39.2016 593.388,39.0936 593.8536,38.8776 C594.3192,38.6616 594.7176,38.3352 595.0488,37.8984 C595.38,37.4616 595.6368,36.9144 595.8192,36.2568 C596.0016,35.5992 596.0928,34.8288 596.0928,33.9456 C596.0928,32.16 595.7664,30.8424 595.1136,29.9928 C594.4608,29.1432 593.5296,28.7184 592.32,28.7184 C591.7536,28.7184 591.24,28.8264 590.7792,29.0424 C590.3184,29.2584 589.9224,29.5824 589.5912,30.0144 C589.26,30.4464 589.0032,30.9912 588.8208,31.6488 C588.6384,32.3064 588.5472,33.072 588.5472,33.9456 C588.5472,35.6544 588.8688,36.9576 589.512,37.8552 C590.1552,38.7528 591.0864,39.2016 592.3056,39.2016 Z M590.4192,34.752 C590.4096,34.6176 590.4024,34.4856 590.3976,34.356 C590.3928,34.2264 590.3904,34.0896 590.3904,33.9456 C590.3904,32.6976 590.556,31.7784 590.8872,31.188 C591.2184,30.5976 591.6912,30.3024 592.3056,30.3024 C593.1024,30.3024 593.6448,30.7152 593.9328,31.5408 L593.9328,31.5408 L590.4192,34.752 Z M592.32,37.6176 C591.5328,37.6176 590.9904,37.1808 590.6928,36.3072 L590.6928,36.3072 L594.2208,33.096 C594.2304,33.2304 594.2376,33.3672 594.2424,33.5064 C594.2472,33.6456 594.2496,33.792 594.2496,33.9456 C594.2496,35.2224 594.0816,36.1536 593.7456,36.7392 C593.4096,37.3248 592.9344,37.6176 592.32,37.6176 Z" id="90" fill="#FFFFFF" fill-rule="nonzero"></path>
                    <rect id="amostra" fill="#0D0D0D" x="616" y="0" width="56" height="55.8"></rect>
                    <path d="M637.9232,39.2016 C638.624,39.1248 639.296,38.9424 639.9392,38.6544 C640.5824,38.3664 641.1464,37.9536 641.6312,37.416 C642.116,36.8784 642.5024,36.2064 642.7904,35.4 C643.0784,34.5936 643.2224,33.6336 643.2224,32.52 C643.2224,31.9056 643.136,31.3608 642.9632,30.8856 C642.7904,30.4104 642.5456,30.012 642.2288,29.6904 C641.912,29.3688 641.5328,29.1264 641.0912,28.9632 C640.6496,28.8 640.16,28.7184 639.6224,28.7184 C639.0944,28.7184 638.6168,28.8024 638.1896,28.9704 C637.7624,29.1384 637.3976,29.3688 637.0952,29.6616 C636.7928,29.9544 636.5576,30.3072 636.3896,30.72 C636.2216,31.1328 636.1376,31.584 636.1376,32.0736 C636.1376,32.592 636.2336,33.0456 636.4256,33.4344 C636.6176,33.8232 636.8648,34.1472 637.1672,34.4064 C637.4696,34.6656 637.808,34.8576 638.1824,34.9824 C638.5568,35.1072 638.9264,35.1696 639.2912,35.1696 L639.2912,35.1696 L639.32,35.1696 C639.7616,35.1696 640.1408,35.1096 640.4576,34.9896 C640.7744,34.8696 641.0336,34.7088 641.2352,34.5072 C641.1776,34.92 641.048,35.3064 640.8464,35.6664 C640.6448,36.0264 640.3856,36.348 640.0688,36.6312 C639.752,36.9144 639.38,37.152 638.9528,37.344 C638.5256,37.536 638.048,37.6656 637.52,37.7328 L637.52,37.7328 L637.9232,39.2016 Z M639.7376,33.6288 C639.5072,33.6288 639.284,33.5928 639.068,33.5208 C638.852,33.4488 638.6624,33.3432 638.4992,33.204 C638.336,33.0648 638.204,32.892 638.1032,32.6856 C638.0024,32.4792 637.952,32.2416 637.952,31.9728 C637.952,31.4352 638.1104,31.0152 638.4272,30.7128 C638.744,30.4104 639.1376,30.2592 639.608,30.2592 C639.9056,30.2592 640.1696,30.3192 640.4,30.4392 C640.6304,30.5592 640.8224,30.72 640.976,30.9216 C641.1296,31.1232 641.2448,31.3536 641.3216,31.6128 C641.3984,31.872 641.4368,32.136 641.4368,32.4048 C641.4368,32.5872 641.4224,32.7792 641.3936,32.9808 C641.2592,33.1632 641.048,33.3168 640.76,33.4416 C640.472,33.5664 640.1312,33.6288 639.7376,33.6288 Z M647.4992,39.2016 C648.0464,39.2016 648.56,39.1272 649.04,38.9784 C649.52,38.8296 649.9424,38.6112 650.3072,38.3232 C650.672,38.0352 650.96,37.6776 651.1712,37.2504 C651.3824,36.8232 651.488,36.3264 651.488,35.76 C651.488,35.28 651.404,34.8408 651.236,34.4424 C651.068,34.044 650.8304,33.7056 650.5232,33.4272 C650.216,33.1488 649.856,32.94 649.4432,32.8008 C649.0304,32.6616 648.584,32.592 648.104,32.592 C648.056,32.592 648.0008,32.5944 647.9384,32.5992 C647.876,32.604 647.8112,32.6064 647.744,32.6064 C647.6672,32.616 647.5904,32.6208 647.5136,32.6208 L647.5136,32.6208 L647.5136,30.648 L651.1136,30.648 L651.1136,28.92 L645.9008,28.92 L645.9008,34.1904 C646.0544,34.1904 646.2032,34.1856 646.3472,34.176 C646.472,34.1664 646.604,34.1592 646.7432,34.1544 C646.8824,34.1496 647.0048,34.1472 647.1104,34.1472 C647.9456,34.1472 648.572,34.2984 648.9896,34.6008 C649.4072,34.9032 649.616,35.3184 649.616,35.8464 C649.616,36.1152 649.5608,36.3552 649.4504,36.5664 C649.34,36.7776 649.1864,36.9552 648.9896,37.0992 C648.7928,37.2432 648.56,37.3536 648.2912,37.4304 C648.0224,37.5072 647.7296,37.5456 647.4128,37.5456 C647.0384,37.5456 646.6808,37.488 646.34,37.3728 C645.9992,37.2576 645.7472,37.152 645.584,37.056 L645.584,37.056 L644.9792,38.5536 C645.1136,38.6208 645.2792,38.6928 645.476,38.7696 C645.6728,38.8464 645.8864,38.916 646.1168,38.9784 C646.3472,39.0408 646.5824,39.0936 646.8224,39.1368 C647.0624,39.18 647.288,39.2016 647.4992,39.2016 Z" id="95" fill="#FFFFFF" fill-rule="nonzero"></path>
                </g>
                <rect id="line-1" fill="#40BA6E" x="0" y="86" width="278" height="7.2"></rect>
                <rect id="line-2" fill="#FF000E" x="282" y="86" width="164" height="7.2"></rect>
                <rect id="line-3" fill="#40BA6E" x="450" y="86" width="222" height="7.2"></rect>
                <path d="M546.5776,117.3824 C547.5472,117.3824 548.3416,117.2312 548.9608,116.9288 C549.58,116.6264 550.0648,116.228 550.4152,115.7336 C550.7656,115.2392 551.008,114.6752 551.1424,114.0416 C551.2768,113.408 551.344,112.76 551.344,112.0976 C551.344,111.368 551.2768,110.6936 551.1424,110.0744 C551.008,109.4552 550.7704,108.9176 550.4296,108.4616 C550.0888,108.0056 549.6256,107.648 549.04,107.3888 C548.4544,107.1296 547.7152,107 546.8224,107 C546.592,107 546.3304,107.0048 546.0376,107.0144 C545.7448,107.024 545.4616,107.036 545.188,107.0504 C544.9144,107.0648 544.6696,107.0816 544.4536,107.1008 C544.2376,107.12 544.0864,107.1344 544,107.144 L544,107.144 L544,117.2384 C544.1248,117.2576 544.3024,117.2744 544.5328,117.2888 C544.7632,117.3032 545.0032,117.3176 545.2528,117.332 C545.5024,117.3464 545.7472,117.3584 545.9872,117.368 C546.2272,117.3776 546.424,117.3824 546.5776,117.3824 Z M546.808,115.6256 C546.76,115.6256 546.6976,115.6232 546.6208,115.6184 C546.544,115.6136 546.4648,115.6088 546.3832,115.604 C546.3016,115.5992 546.2224,115.5944 546.1456,115.5896 C546.0688,115.5848 546.0112,115.5776 545.9728,115.568 L545.9728,115.568 L545.9728,108.8144 C546.0592,108.8048 546.1888,108.7928 546.3616,108.7784 C546.5344,108.764 546.712,108.7568 546.8944,108.7568 C547.4416,108.7568 547.8736,108.8624 548.1904,109.0736 C548.5072,109.2848 548.7448,109.5536 548.9032,109.88 C549.0616,110.2064 549.1624,110.5664 549.2056,110.96 C549.2488,111.3536 549.2704,111.7328 549.2704,112.0976 C549.2704,112.52 549.2464,112.9424 549.1984,113.3648 C549.1504,113.7872 549.0448,114.1664 548.8816,114.5024 C548.7184,114.8384 548.4712,115.1096 548.14,115.316 C547.8088,115.5224 547.3648,115.6256 546.808,115.6256 Z M553.9792,117.224 L554.6704,114.992 L557.68,114.992 L558.4,117.224 L560.4736,117.224 L557.2336,107.144 L555.2608,107.144 L552.0064,117.224 L553.9792,117.224 Z M557.2912,113.408 L555.1312,113.408 L556.1392,110.0384 L556.2688,110.0384 L557.2912,113.408 Z M563.4256,117.224 L563.4256,113.2784 L564.6064,113.2784 L566.6368,117.224 L568.912,117.224 L566.4784,112.8176 C566.7184,112.6832 566.9416,112.532 567.148,112.364 C567.3544,112.196 567.5296,111.9968 567.6736,111.7664 C567.8176,111.536 567.9304,111.2696 568.012,110.9672 C568.0936,110.6648 568.1344,110.3072 568.1344,109.8944 C568.1344,109.3376 568.0264,108.872 567.8104,108.4976 C567.5944,108.1232 567.3064,107.8256 566.9464,107.6048 C566.5864,107.384 566.1784,107.228 565.7224,107.1368 C565.2664,107.0456 564.8032,107 564.3328,107 C564.1312,107 563.9104,107.0048 563.6704,107.0144 C563.4304,107.024 563.1832,107.0384 562.9288,107.0576 C562.6744,107.0768 562.42,107.1032 562.1656,107.1368 C561.9112,107.1704 561.6736,107.2064 561.4528,107.2448 L561.4528,107.2448 L561.4528,117.224 L563.4256,117.224 Z M564.2032,111.752 L563.4256,111.752 L563.4256,108.8288 C563.5312,108.8 563.6824,108.7808 563.8792,108.7712 C564.076,108.7616 564.2752,108.7568 564.4768,108.7568 C564.9952,108.7568 565.3888,108.8792 565.6576,109.124 C565.9264,109.3688 566.0608,109.7072 566.0608,110.1392 C566.0608,110.7152 565.888,111.128 565.5424,111.3776 C565.1968,111.6272 564.7504,111.752 564.2032,111.752 L564.2032,111.752 Z M571.864,117.224 L571.864,113.0192 L572.8864,113.0192 L575.3632,117.224 L577.7968,117.224 L574.6,112.0112 L577.4368,107.144 L575.1904,107.144 L572.8864,111.2624 L571.864,111.2624 L571.864,107.144 L569.8912,107.144 L569.8912,117.224 L571.864,117.224 Z" id="DARK" fill="#000000" fill-rule="nonzero"></path>
                <path d="M352.872,117.224 L352.872,111.6944 L352.7856,110.2832 L352.8576,110.2832 L354.5424,112.9184 L354.888,112.9184 L356.5008,110.2832 L356.5872,110.2832 L356.5152,111.8528 L356.5152,117.224 L358.488,117.224 L358.488,107.144 L356.5008,107.144 L354.7872,109.9376 L354.7296,109.9376 L353.0016,107.144 L351,107.144 L351,117.224 L352.872,117.224 Z M367.3764,117.224 L367.3764,115.4672 L364.8132,115.4672 L364.8132,108.9008 L367.3764,108.9008 L367.3764,107.144 L360.2916,107.144 L360.2916,108.9008 L362.8404,108.9008 L362.8404,115.4672 L360.2916,115.4672 L360.2916,117.224 L367.3764,117.224 Z M371.9016,117.3824 C372.8712,117.3824 373.6656,117.2312 374.2848,116.9288 C374.904,116.6264 375.3888,116.228 375.7392,115.7336 C376.0896,115.2392 376.332,114.6752 376.4664,114.0416 C376.6008,113.408 376.668,112.76 376.668,112.0976 C376.668,111.368 376.6008,110.6936 376.4664,110.0744 C376.332,109.4552 376.0944,108.9176 375.7536,108.4616 C375.4128,108.0056 374.9496,107.648 374.364,107.3888 C373.7784,107.1296 373.0392,107 372.1464,107 C371.916,107 371.6544,107.0048 371.3616,107.0144 C371.0688,107.024 370.7856,107.036 370.512,107.0504 C370.2384,107.0648 369.9936,107.0816 369.7776,107.1008 C369.5616,107.12 369.4104,107.1344 369.324,107.144 L369.324,107.144 L369.324,117.2384 C369.4488,117.2576 369.6264,117.2744 369.8568,117.2888 C370.0872,117.3032 370.3272,117.3176 370.5768,117.332 C370.8264,117.3464 371.0712,117.3584 371.3112,117.368 C371.5512,117.3776 371.748,117.3824 371.9016,117.3824 Z M372.132,115.6256 C372.084,115.6256 372.0216,115.6232 371.9448,115.6184 C371.868,115.6136 371.7888,115.6088 371.7072,115.604 C371.6256,115.5992 371.5464,115.5944 371.4696,115.5896 C371.3928,115.5848 371.3352,115.5776 371.2968,115.568 L371.2968,115.568 L371.2968,108.8144 C371.3832,108.8048 371.5128,108.7928 371.6856,108.7784 C371.8584,108.764 372.036,108.7568 372.2184,108.7568 C372.7656,108.7568 373.1976,108.8624 373.5144,109.0736 C373.8312,109.2848 374.0688,109.5536 374.2272,109.88 C374.3856,110.2064 374.4864,110.5664 374.5296,110.96 C374.5728,111.3536 374.5944,111.7328 374.5944,112.0976 C374.5944,112.52 374.5704,112.9424 374.5224,113.3648 C374.4744,113.7872 374.3688,114.1664 374.2056,114.5024 C374.0424,114.8384 373.7952,115.1096 373.464,115.316 C373.1328,115.5224 372.6888,115.6256 372.132,115.6256 Z" id="MID" fill="#000000" fill-rule="nonzero"></path>
                <path d="M124.624,117.2816 L124.624,113.1776 L122.8384,113.1776 L122.8384,115.5248 L119.9728,115.5248 L119.9728,107.2016 L118,107.2016 L118,117.2816 L124.624,117.2816 Z M133.3792,117.2816 L133.3792,115.5248 L130.816,115.5248 L130.816,108.9584 L133.3792,108.9584 L133.3792,107.2016 L126.2944,107.2016 L126.2944,108.9584 L128.8432,108.9584 L128.8432,115.5248 L126.2944,115.5248 L126.2944,117.2816 L133.3792,117.2816 Z M139.3696,117.4832 C139.9168,117.4832 140.452,117.4064 140.9752,117.2528 C141.4984,117.0992 141.9232,116.8736 142.2496,116.576 L142.2496,116.576 L142.2496,112.0256 L138.808,112.0256 L138.808,113.4656 L140.6368,113.4656 L140.6368,115.4672 C140.56,115.5248 140.4184,115.5824 140.212,115.64 C140.0056,115.6976 139.7776,115.7264 139.528,115.7264 C139.144,115.7264 138.7864,115.6496 138.4552,115.496 C138.124,115.3424 137.8384,115.1168 137.5984,114.8192 C137.3584,114.5216 137.1712,114.1568 137.0368,113.7248 C136.9024,113.2928 136.8352,112.8032 136.8352,112.256 C136.8352,111.6416 136.9024,111.1136 137.0368,110.672 C137.1712,110.2304 137.3608,109.868 137.6056,109.5848 C137.8504,109.3016 138.1408,109.0928 138.4768,108.9584 C138.8128,108.824 139.1776,108.7568 139.5712,108.7568 C139.8016,108.7568 140.0128,108.776 140.2048,108.8144 L140.2048,108.8144 L140.4352,108.872 L140.4352,110.4704 L142.0192,110.4704 L142.0192,107.4896 C141.7024,107.3456 141.352,107.228 140.968,107.1368 C140.584,107.0456 140.104,107 139.528,107 C138.9712,107 138.4096,107.096 137.8432,107.288 C137.2768,107.48 136.7656,107.7848 136.3096,108.2024 C135.8536,108.62 135.4816,109.1552 135.1936,109.808 C134.9056,110.4608 134.7616,111.2528 134.7616,112.184 C134.7616,113.0672 134.8816,113.8376 135.1216,114.4952 C135.3616,115.1528 135.688,115.7048 136.1008,116.1512 C136.5136,116.5976 137.0008,116.9312 137.5624,117.152 C138.124,117.3728 138.7264,117.4832 139.3696,117.4832 Z M145.4896,117.2816 L145.4896,113.0624 L148.744,113.0624 L148.744,117.2816 L150.7168,117.2816 L150.7168,107.2016 L148.744,107.2016 L148.744,111.3056 L145.4896,111.3056 L145.4896,107.2016 L143.5168,107.2016 L143.5168,117.2816 L145.4896,117.2816 Z M158.3776,117.2816 L158.3776,115.6976 L156.7504,115.6976 L156.7504,108.7856 L158.1184,108.7856 L158.1184,110.528 L159.7024,110.528 L159.7024,107.2016 L151.8112,107.2016 L151.8112,110.528 L153.3952,110.528 L153.3952,108.7856 L154.7776,108.7856 L154.7776,115.6976 L153.136,115.6976 L153.136,117.2816 L158.3776,117.2816 Z" id="LIGHT" fill="#000000" fill-rule="nonzero"></path>
                <g id="warning" transform="translate(297.000000, 24.000000)">
                    <rect id="Rectangle" x="0" y="0" width="21.6" height="21.6"></rect>
                    <g id="Group" transform="translate(0.900000, 1.800000)" fill-rule="nonzero">
                        <path d="M9.9,0 L19.8,17.1 L0,17.1 L9.9,0 Z" id="Combined-Shape" fill="#FFFFFF"></path>
                        <path d="M9.9,3.591 L16.677,15.3 L3.123,15.3 L9.9,3.591 M9.9,0 L0,17.1 L19.8,17.1 L9.9,0 L9.9,0 Z" id="Shape" fill="#000000"></path>
                        <path d="M10.8,12.6 L10.8,14.4 L9,14.4 L9,12.6 L10.8,12.6 Z M10.8,7.2 L10.8,11.7 L9,11.7 L9,7.2 L10.8,7.2 Z" id="Combined-Shape" fill="#000000"></path>
                    </g>
                </g>
                <g id="warning" transform="translate(353.000000, 24.000000)">
                    <rect id="Rectangle" x="0" y="0" width="21.6" height="21.6"></rect>
                    <g id="Group" transform="translate(0.900000, 1.800000)" fill-rule="nonzero">
                        <path d="M9.9,0 L19.8,17.1 L0,17.1 L9.9,0 Z" id="Combined-Shape" fill="#FFFFFF"></path>
                        <path d="M9.9,3.591 L16.677,15.3 L3.123,15.3 L9.9,3.591 M9.9,0 L0,17.1 L19.8,17.1 L9.9,0 L9.9,0 Z" id="Shape" fill="#000000"></path>
                        <path d="M10.8,12.6 L10.8,14.4 L9,14.4 L9,12.6 L10.8,12.6 Z M10.8,7.2 L10.8,11.7 L9,11.7 L9,7.2 L10.8,7.2 Z" id="Combined-Shape" fill="#000000"></path>
                    </g>
                </g>
                <g id="warning" transform="translate(409.000000, 24.000000)">
                    <rect id="Rectangle" x="0" y="0" width="21.6" height="21.6"></rect>
                    <g id="Group" transform="translate(0.900000, 1.800000)" fill-rule="nonzero">
                        <path d="M9.9,0 L19.8,17.1 L0,17.1 L9.9,0 Z" id="Combined-Shape" fill="#FFFFFF"></path>
                        <path d="M9.9,3.591 L16.677,15.3 L3.123,15.3 L9.9,3.591 M9.9,0 L0,17.1 L19.8,17.1 L9.9,0 L9.9,0 Z" id="Shape" fill="#000000"></path>
                        <path d="M10.8,12.6 L10.8,14.4 L9,14.4 L9,12.6 L10.8,12.6 Z M10.8,7.2 L10.8,11.7 L9,11.7 L9,7.2 L10.8,7.2 Z" id="Combined-Shape" fill="#000000"></path>
                    </g>
                </g>
            </g>
        </g>
    </g>
</svg>