<?xml version="1.0" encoding="UTF-8"?>
<svg width="339px" height="122px" viewBox="0 0 339 122" version="1.1" xmlns="http://www.w3.org/2000/svg" xmlns:xlink="http://www.w3.org/1999/xlink">
    <title>transform-numtab</title>
    <g id="Doc_exemplos" stroke="none" stroke-width="1" fill="none" fill-rule="evenodd">
        <g id="doc-tipografia-expandido" transform="translate(-1382.000000, -4984.000000)">
            <g id="transform-numtab" transform="translate(1382.000000, 4984.000000)">
                <rect id="Rectangle" stroke-opacity="0" stroke="#979797" stroke-width="0.6" x="0.3" y="0.3" width="338.4" height="120.6"></rect>
                <text id="1111,00-8888,00" font-family="Inter-SemiBold, Inter" font-size="24" font-weight="500" line-spacing="31.2" fill="#000000">
                    <tspan x="0" y="23">1111,00</tspan>
                    <tspan x="0" y="54.2">8888,00</tspan>
                </text>
                <path d="M182.636932,25.8 L182.636932,8.34545455 L179.628409,8.34545455 L175.290341,11.1323864 L175.290341,14.0301136 L179.372727,11.4221591 L179.475,11.4221591 L179.475,25.8 L182.636932,25.8 Z M198.727841,25.8 L198.727841,8.34545455 L195.719318,8.34545455 L191.38125,11.1323864 L191.38125,14.0301136 L195.463636,11.4221591 L195.565909,11.4221591 L195.565909,25.8 L198.727841,25.8 Z M214.81875,25.8 L214.81875,8.34545455 L211.810227,8.34545455 L207.472159,11.1323864 L207.472159,14.0301136 L211.554545,11.4221591 L211.656818,11.4221591 L211.656818,25.8 L214.81875,25.8 Z M230.909659,25.8 L230.909659,8.34545455 L227.901136,8.34545455 L223.563068,11.1323864 L223.563068,14.0301136 L227.645455,11.4221591 L227.747727,11.4221591 L227.747727,25.8 L230.909659,25.8 Z M239.415341,30.0613636 C239.551705,29.7034091 239.730682,29.2119318 239.952273,28.5869318 C240.173864,27.9619318 240.385511,27.2786932 240.587216,26.5372159 C240.78892,25.7957386 240.929545,25.0670455 241.009091,24.3511364 L241.009091,24.3511364 L241.119886,23.4136364 L238.392614,23.4136364 L238.332955,24.3681818 C238.2875,25.1352273 238.199432,25.8909091 238.06875,26.6352273 C237.938068,27.3795455 237.803125,28.05 237.66392,28.6465909 C237.524716,29.2431818 237.415341,29.7147727 237.335795,30.0613636 L237.335795,30.0613636 L239.415341,30.0613636 Z M250.989205,26.1323864 C252.392614,26.1323864 253.595739,25.7772727 254.59858,25.0670455 C255.60142,24.3568182 256.371307,23.3269886 256.908239,21.9775568 C257.44517,20.628125 257.713636,18.9988636 257.713636,17.0897727 C257.713636,15.1920455 257.44517,13.5727273 256.908239,12.2318182 C256.371307,10.8909091 255.6,9.86818182 254.594318,9.16363636 C253.588636,8.45909091 252.386932,8.10681818 250.989205,8.10681818 C249.591477,8.10681818 248.391193,8.45909091 247.388352,9.16363636 C246.385511,9.86818182 245.615625,10.8894886 245.078693,12.2275568 C244.541761,13.565625 244.270455,15.1863636 244.264773,17.0897727 C244.264773,18.9931818 244.533239,20.6196023 245.07017,21.9690341 C245.607102,23.3184659 246.376989,24.3497159 247.37983,25.0627841 C248.38267,25.7758523 249.585795,26.1323864 250.989205,26.1323864 Z M250.989205,23.4647727 C250.261932,23.4647727 249.634091,23.2247159 249.105682,22.7446023 C248.577273,22.2644886 248.169602,21.55 247.88267,20.6011364 C247.595739,19.6522727 247.455114,18.4818182 247.460795,17.0897727 C247.466477,15.0102273 247.784659,13.4321023 248.415341,12.3553977 C249.046023,11.2786932 249.903977,10.7403409 250.989205,10.7403409 C251.710795,10.7403409 252.335795,10.9803977 252.864205,11.4605114 C253.392614,11.940625 253.801705,12.6522727 254.091477,13.5954545 C254.38125,14.5386364 254.526136,15.7034091 254.526136,17.0897727 C254.526136,19.1863636 254.209375,20.7730114 253.575852,21.8497159 C252.94233,22.9264205 252.080114,23.4647727 250.989205,23.4647727 Z M267.080114,26.1323864 C268.483523,26.1323864 269.686648,25.7772727 270.689489,25.0670455 C271.69233,24.3568182 272.462216,23.3269886 272.999148,21.9775568 C273.53608,20.628125 273.804545,18.9988636 273.804545,17.0897727 C273.804545,15.1920455 273.53608,13.5727273 272.999148,12.2318182 C272.462216,10.8909091 271.690909,9.86818182 270.685227,9.16363636 C269.679545,8.45909091 268.477841,8.10681818 267.080114,8.10681818 C265.682386,8.10681818 264.482102,8.45909091 263.479261,9.16363636 C262.47642,9.86818182 261.706534,10.8894886 261.169602,12.2275568 C260.63267,13.565625 260.361364,15.1863636 260.355682,17.0897727 C260.355682,18.9931818 260.624148,20.6196023 261.16108,21.9690341 C261.698011,23.3184659 262.467898,24.3497159 263.470739,25.0627841 C264.47358,25.7758523 265.676705,26.1323864 267.080114,26.1323864 Z M267.080114,23.4647727 C266.352841,23.4647727 265.725,23.2247159 265.196591,22.7446023 C264.668182,22.2644886 264.260511,21.55 263.97358,20.6011364 C263.686648,19.6522727 263.546023,18.4818182 263.551705,17.0897727 C263.557386,15.0102273 263.875568,13.4321023 264.50625,12.3553977 C265.136932,11.2786932 265.994886,10.7403409 267.080114,10.7403409 C267.801705,10.7403409 268.426705,10.9803977 268.955114,11.4605114 C269.483523,11.940625 269.892614,12.6522727 270.182386,13.5954545 C270.472159,14.5386364 270.617045,15.7034091 270.617045,17.0897727 C270.617045,19.1863636 270.300284,20.7730114 269.666761,21.8497159 C269.033239,22.9264205 268.171023,23.4647727 267.080114,23.4647727 Z M179.645455,57.2386364 C180.906818,57.2386364 182.024716,57.0255682 182.999148,56.5994318 C183.97358,56.1732955 184.739205,55.5894886 185.296023,54.8480114 C185.852841,54.1065341 186.13125,53.2642045 186.13125,52.3210227 C186.13125,51.5880682 185.967898,50.9147727 185.641193,50.3011364 C185.314489,49.6875 184.876989,49.1747159 184.328693,48.7627841 C183.780398,48.3508523 183.165341,48.0880682 182.483523,47.9744318 L182.483523,47.9744318 L182.483523,47.8551136 C183.364205,47.65625 184.084375,47.1974432 184.644034,46.4786932 C185.203693,45.7599432 185.483523,44.9289773 185.483523,43.9857955 C185.483523,43.0880682 185.229261,42.2869318 184.720739,41.5823864 C184.212216,40.8778409 183.519034,40.3224432 182.641193,39.9161932 C181.763352,39.5099432 180.764773,39.3068182 179.645455,39.3068182 C178.514773,39.3068182 177.509091,39.5099432 176.628409,39.9161932 C175.747727,40.3224432 175.054545,40.8778409 174.548864,41.5823864 C174.043182,42.2869318 173.793182,43.0880682 173.798864,43.9857955 C173.793182,44.9289773 174.06733,45.7599432 174.621307,46.4786932 C175.175284,47.1974432 175.901136,47.65625 176.798864,47.8551136 L176.798864,47.8551136 L176.798864,47.9744318 C176.117045,48.0880682 175.499148,48.3508523 174.94517,48.7627841 C174.391193,49.1747159 173.952273,49.6875 173.628409,50.3011364 C173.304545,50.9147727 173.145455,51.5880682 173.151136,52.3210227 C173.145455,53.2642045 173.419602,54.1065341 173.97358,54.8480114 C174.527557,55.5894886 175.294602,56.1732955 176.274716,56.5994318 C177.25483,57.0255682 178.378409,57.2386364 179.645455,57.2386364 Z M179.645455,46.8494318 C179.105682,46.8494318 178.626989,46.7400568 178.209375,46.5213068 C177.791761,46.3025568 177.465057,46.0014205 177.229261,45.6178977 C176.993466,45.234375 176.878409,44.7897727 176.884091,44.2840909 C176.878409,43.7840909 176.990625,43.3451705 177.220739,42.9673295 C177.450852,42.5894886 177.774716,42.296875 178.19233,42.0894886 C178.609943,41.8821023 179.094318,41.7784091 179.645455,41.7784091 C180.185227,41.7784091 180.6625,41.8821023 181.077273,42.0894886 C181.492045,42.296875 181.815909,42.5894886 182.048864,42.9673295 C182.281818,43.3451705 182.401136,43.7840909 182.406818,44.2840909 C182.401136,44.7897727 182.278977,45.2357955 182.040341,45.6221591 C181.801705,46.0085227 181.47642,46.3096591 181.064489,46.5255682 C180.652557,46.7414773 180.179545,46.8494318 179.645455,46.8494318 Z M179.645455,54.8011364 C178.986364,54.8011364 178.41392,54.6875 177.928125,54.4602273 C177.44233,54.2329545 177.065909,53.9161932 176.798864,53.5099432 C176.531818,53.1036932 176.401136,52.6335227 176.406818,52.0994318 C176.401136,51.5426136 176.53892,51.0497159 176.82017,50.6207386 C177.10142,50.1917614 177.486364,49.8551136 177.975,49.6107955 C178.463636,49.3664773 179.020455,49.2443182 179.645455,49.2443182 C180.264773,49.2443182 180.81733,49.3664773 181.303125,49.6107955 C181.78892,49.8551136 182.172443,50.1917614 182.453693,50.6207386 C182.734943,51.0497159 182.878409,51.5426136 182.884091,52.0994318 C182.878409,52.6335227 182.742045,53.1051136 182.475,53.5142045 C182.207955,53.9232955 181.832955,54.2400568 181.35,54.4644886 C180.867045,54.6889205 180.298864,54.8011364 179.645455,54.8011364 Z M195.736364,57.2386364 C196.997727,57.2386364 198.115625,57.0255682 199.090057,56.5994318 C200.064489,56.1732955 200.830114,55.5894886 201.386932,54.8480114 C201.94375,54.1065341 202.222159,53.2642045 202.222159,52.3210227 C202.222159,51.5880682 202.058807,50.9147727 201.732102,50.3011364 C201.405398,49.6875 200.967898,49.1747159 200.419602,48.7627841 C199.871307,48.3508523 199.25625,48.0880682 198.574432,47.9744318 L198.574432,47.9744318 L198.574432,47.8551136 C199.455114,47.65625 200.175284,47.1974432 200.734943,46.4786932 C201.294602,45.7599432 201.574432,44.9289773 201.574432,43.9857955 C201.574432,43.0880682 201.32017,42.2869318 200.811648,41.5823864 C200.303125,40.8778409 199.609943,40.3224432 198.732102,39.9161932 C197.854261,39.5099432 196.855682,39.3068182 195.736364,39.3068182 C194.605682,39.3068182 193.6,39.5099432 192.719318,39.9161932 C191.838636,40.3224432 191.145455,40.8778409 190.639773,41.5823864 C190.134091,42.2869318 189.884091,43.0880682 189.889773,43.9857955 C189.884091,44.9289773 190.158239,45.7599432 190.712216,46.4786932 C191.266193,47.1974432 191.992045,47.65625 192.889773,47.8551136 L192.889773,47.8551136 L192.889773,47.9744318 C192.207955,48.0880682 191.590057,48.3508523 191.03608,48.7627841 C190.482102,49.1747159 190.043182,49.6875 189.719318,50.3011364 C189.395455,50.9147727 189.236364,51.5880682 189.242045,52.3210227 C189.236364,53.2642045 189.510511,54.1065341 190.064489,54.8480114 C190.618466,55.5894886 191.385511,56.1732955 192.365625,56.5994318 C193.345739,57.0255682 194.469318,57.2386364 195.736364,57.2386364 Z M195.736364,46.8494318 C195.196591,46.8494318 194.717898,46.7400568 194.300284,46.5213068 C193.88267,46.3025568 193.555966,46.0014205 193.32017,45.6178977 C193.084375,45.234375 192.969318,44.7897727 192.975,44.2840909 C192.969318,43.7840909 193.081534,43.3451705 193.311648,42.9673295 C193.541761,42.5894886 193.865625,42.296875 194.283239,42.0894886 C194.700852,41.8821023 195.185227,41.7784091 195.736364,41.7784091 C196.276136,41.7784091 196.753409,41.8821023 197.168182,42.0894886 C197.582955,42.296875 197.906818,42.5894886 198.139773,42.9673295 C198.372727,43.3451705 198.492045,43.7840909 198.497727,44.2840909 C198.492045,44.7897727 198.369886,45.2357955 198.13125,45.6221591 C197.892614,46.0085227 197.56733,46.3096591 197.155398,46.5255682 C196.743466,46.7414773 196.270455,46.8494318 195.736364,46.8494318 Z M195.736364,54.8011364 C195.077273,54.8011364 194.50483,54.6875 194.019034,54.4602273 C193.533239,54.2329545 193.156818,53.9161932 192.889773,53.5099432 C192.622727,53.1036932 192.492045,52.6335227 192.497727,52.0994318 C192.492045,51.5426136 192.62983,51.0497159 192.91108,50.6207386 C193.19233,50.1917614 193.577273,49.8551136 194.065909,49.6107955 C194.554545,49.3664773 195.111364,49.2443182 195.736364,49.2443182 C196.355682,49.2443182 196.908239,49.3664773 197.394034,49.6107955 C197.87983,49.8551136 198.263352,50.1917614 198.544602,50.6207386 C198.825852,51.0497159 198.969318,51.5426136 198.975,52.0994318 C198.969318,52.6335227 198.832955,53.1051136 198.565909,53.5142045 C198.298864,53.9232955 197.923864,54.2400568 197.440909,54.4644886 C196.957955,54.6889205 196.389773,54.8011364 195.736364,54.8011364 Z M211.827273,57.2386364 C213.088636,57.2386364 214.206534,57.0255682 215.180966,56.5994318 C216.155398,56.1732955 216.921023,55.5894886 217.477841,54.8480114 C218.034659,54.1065341 218.313068,53.2642045 218.313068,52.3210227 C218.313068,51.5880682 218.149716,50.9147727 217.823011,50.3011364 C217.496307,49.6875 217.058807,49.1747159 216.510511,48.7627841 C215.962216,48.3508523 215.347159,48.0880682 214.665341,47.9744318 L214.665341,47.9744318 L214.665341,47.8551136 C215.546023,47.65625 216.266193,47.1974432 216.825852,46.4786932 C217.385511,45.7599432 217.665341,44.9289773 217.665341,43.9857955 C217.665341,43.0880682 217.41108,42.2869318 216.902557,41.5823864 C216.394034,40.8778409 215.700852,40.3224432 214.823011,39.9161932 C213.94517,39.5099432 212.946591,39.3068182 211.827273,39.3068182 C210.696591,39.3068182 209.690909,39.5099432 208.810227,39.9161932 C207.929545,40.3224432 207.236364,40.8778409 206.730682,41.5823864 C206.225,42.2869318 205.975,43.0880682 205.980682,43.9857955 C205.975,44.9289773 206.249148,45.7599432 206.803125,46.4786932 C207.357102,47.1974432 208.082955,47.65625 208.980682,47.8551136 L208.980682,47.8551136 L208.980682,47.9744318 C208.298864,48.0880682 207.680966,48.3508523 207.126989,48.7627841 C206.573011,49.1747159 206.134091,49.6875 205.810227,50.3011364 C205.486364,50.9147727 205.327273,51.5880682 205.332955,52.3210227 C205.327273,53.2642045 205.60142,54.1065341 206.155398,54.8480114 C206.709375,55.5894886 207.47642,56.1732955 208.456534,56.5994318 C209.436648,57.0255682 210.560227,57.2386364 211.827273,57.2386364 Z M211.827273,46.8494318 C211.2875,46.8494318 210.808807,46.7400568 210.391193,46.5213068 C209.97358,46.3025568 209.646875,46.0014205 209.41108,45.6178977 C209.175284,45.234375 209.060227,44.7897727 209.065909,44.2840909 C209.060227,43.7840909 209.172443,43.3451705 209.402557,42.9673295 C209.63267,42.5894886 209.956534,42.296875 210.374148,42.0894886 C210.791761,41.8821023 211.276136,41.7784091 211.827273,41.7784091 C212.367045,41.7784091 212.844318,41.8821023 213.259091,42.0894886 C213.673864,42.296875 213.997727,42.5894886 214.230682,42.9673295 C214.463636,43.3451705 214.582955,43.7840909 214.588636,44.2840909 C214.582955,44.7897727 214.460795,45.2357955 214.222159,45.6221591 C213.983523,46.0085227 213.658239,46.3096591 213.246307,46.5255682 C212.834375,46.7414773 212.361364,46.8494318 211.827273,46.8494318 Z M211.827273,54.8011364 C211.168182,54.8011364 210.595739,54.6875 210.109943,54.4602273 C209.624148,54.2329545 209.247727,53.9161932 208.980682,53.5099432 C208.713636,53.1036932 208.582955,52.6335227 208.588636,52.0994318 C208.582955,51.5426136 208.720739,51.0497159 209.001989,50.6207386 C209.283239,50.1917614 209.668182,49.8551136 210.156818,49.6107955 C210.645455,49.3664773 211.202273,49.2443182 211.827273,49.2443182 C212.446591,49.2443182 212.999148,49.3664773 213.484943,49.6107955 C213.970739,49.8551136 214.354261,50.1917614 214.635511,50.6207386 C214.916761,51.0497159 215.060227,51.5426136 215.065909,52.0994318 C215.060227,52.6335227 214.923864,53.1051136 214.656818,53.5142045 C214.389773,53.9232955 214.014773,54.2400568 213.531818,54.4644886 C213.048864,54.6889205 212.480682,54.8011364 211.827273,54.8011364 Z M227.918182,57.2386364 C229.179545,57.2386364 230.297443,57.0255682 231.271875,56.5994318 C232.246307,56.1732955 233.011932,55.5894886 233.56875,54.8480114 C234.125568,54.1065341 234.403977,53.2642045 234.403977,52.3210227 C234.403977,51.5880682 234.240625,50.9147727 233.91392,50.3011364 C233.587216,49.6875 233.149716,49.1747159 232.60142,48.7627841 C232.053125,48.3508523 231.438068,48.0880682 230.75625,47.9744318 L230.75625,47.9744318 L230.75625,47.8551136 C231.636932,47.65625 232.357102,47.1974432 232.916761,46.4786932 C233.47642,45.7599432 233.75625,44.9289773 233.75625,43.9857955 C233.75625,43.0880682 233.501989,42.2869318 232.993466,41.5823864 C232.484943,40.8778409 231.791761,40.3224432 230.91392,39.9161932 C230.03608,39.5099432 229.0375,39.3068182 227.918182,39.3068182 C226.7875,39.3068182 225.781818,39.5099432 224.901136,39.9161932 C224.020455,40.3224432 223.327273,40.8778409 222.821591,41.5823864 C222.315909,42.2869318 222.065909,43.0880682 222.071591,43.9857955 C222.065909,44.9289773 222.340057,45.7599432 222.894034,46.4786932 C223.448011,47.1974432 224.173864,47.65625 225.071591,47.8551136 L225.071591,47.8551136 L225.071591,47.9744318 C224.389773,48.0880682 223.771875,48.3508523 223.217898,48.7627841 C222.66392,49.1747159 222.225,49.6875 221.901136,50.3011364 C221.577273,50.9147727 221.418182,51.5880682 221.423864,52.3210227 C221.418182,53.2642045 221.69233,54.1065341 222.246307,54.8480114 C222.800284,55.5894886 223.56733,56.1732955 224.547443,56.5994318 C225.527557,57.0255682 226.651136,57.2386364 227.918182,57.2386364 Z M227.918182,46.8494318 C227.378409,46.8494318 226.899716,46.7400568 226.482102,46.5213068 C226.064489,46.3025568 225.737784,46.0014205 225.501989,45.6178977 C225.266193,45.234375 225.151136,44.7897727 225.156818,44.2840909 C225.151136,43.7840909 225.263352,43.3451705 225.493466,42.9673295 C225.72358,42.5894886 226.047443,42.296875 226.465057,42.0894886 C226.88267,41.8821023 227.367045,41.7784091 227.918182,41.7784091 C228.457955,41.7784091 228.935227,41.8821023 229.35,42.0894886 C229.764773,42.296875 230.088636,42.5894886 230.321591,42.9673295 C230.554545,43.3451705 230.673864,43.7840909 230.679545,44.2840909 C230.673864,44.7897727 230.551705,45.2357955 230.313068,45.6221591 C230.074432,46.0085227 229.749148,46.3096591 229.337216,46.5255682 C228.925284,46.7414773 228.452273,46.8494318 227.918182,46.8494318 Z M227.918182,54.8011364 C227.259091,54.8011364 226.686648,54.6875 226.200852,54.4602273 C225.715057,54.2329545 225.338636,53.9161932 225.071591,53.5099432 C224.804545,53.1036932 224.673864,52.6335227 224.679545,52.0994318 C224.673864,51.5426136 224.811648,51.0497159 225.092898,50.6207386 C225.374148,50.1917614 225.759091,49.8551136 226.247727,49.6107955 C226.736364,49.3664773 227.293182,49.2443182 227.918182,49.2443182 C228.5375,49.2443182 229.090057,49.3664773 229.575852,49.6107955 C230.061648,49.8551136 230.44517,50.1917614 230.72642,50.6207386 C231.00767,51.0497159 231.151136,51.5426136 231.156818,52.0994318 C231.151136,52.6335227 231.014773,53.1051136 230.747727,53.5142045 C230.480682,53.9232955 230.105682,54.2400568 229.622727,54.4644886 C229.139773,54.6889205 228.571591,54.8011364 227.918182,54.8011364 Z M239.415341,61.2613636 C239.551705,60.9034091 239.730682,60.4119318 239.952273,59.7869318 C240.173864,59.1619318 240.385511,58.4786932 240.587216,57.7372159 C240.78892,56.9957386 240.929545,56.2670455 241.009091,55.5511364 L241.009091,55.5511364 L241.119886,54.6136364 L238.392614,54.6136364 L238.332955,55.5681818 C238.2875,56.3352273 238.199432,57.0909091 238.06875,57.8352273 C237.938068,58.5795455 237.803125,59.25 237.66392,59.8465909 C237.524716,60.4431818 237.415341,60.9147727 237.335795,61.2613636 L237.335795,61.2613636 L239.415341,61.2613636 Z M250.989205,57.3323864 C252.392614,57.3323864 253.595739,56.9772727 254.59858,56.2670455 C255.60142,55.5568182 256.371307,54.5269886 256.908239,53.1775568 C257.44517,51.828125 257.713636,50.1988636 257.713636,48.2897727 C257.713636,46.3920455 257.44517,44.7727273 256.908239,43.4318182 C256.371307,42.0909091 255.6,41.0681818 254.594318,40.3636364 C253.588636,39.6590909 252.386932,39.3068182 250.989205,39.3068182 C249.591477,39.3068182 248.391193,39.6590909 247.388352,40.3636364 C246.385511,41.0681818 245.615625,42.0894886 245.078693,43.4275568 C244.541761,44.765625 244.270455,46.3863636 244.264773,48.2897727 C244.264773,50.1931818 244.533239,51.8196023 245.07017,53.1690341 C245.607102,54.5184659 246.376989,55.5497159 247.37983,56.2627841 C248.38267,56.9758523 249.585795,57.3323864 250.989205,57.3323864 Z M250.989205,54.6647727 C250.261932,54.6647727 249.634091,54.4247159 249.105682,53.9446023 C248.577273,53.4644886 248.169602,52.75 247.88267,51.8011364 C247.595739,50.8522727 247.455114,49.6818182 247.460795,48.2897727 C247.466477,46.2102273 247.784659,44.6321023 248.415341,43.5553977 C249.046023,42.4786932 249.903977,41.9403409 250.989205,41.9403409 C251.710795,41.9403409 252.335795,42.1803977 252.864205,42.6605114 C253.392614,43.140625 253.801705,43.8522727 254.091477,44.7954545 C254.38125,45.7386364 254.526136,46.9034091 254.526136,48.2897727 C254.526136,50.3863636 254.209375,51.9730114 253.575852,53.0497159 C252.94233,54.1264205 252.080114,54.6647727 250.989205,54.6647727 Z M267.080114,57.3323864 C268.483523,57.3323864 269.686648,56.9772727 270.689489,56.2670455 C271.69233,55.5568182 272.462216,54.5269886 272.999148,53.1775568 C273.53608,51.828125 273.804545,50.1988636 273.804545,48.2897727 C273.804545,46.3920455 273.53608,44.7727273 272.999148,43.4318182 C272.462216,42.0909091 271.690909,41.0681818 270.685227,40.3636364 C269.679545,39.6590909 268.477841,39.3068182 267.080114,39.3068182 C265.682386,39.3068182 264.482102,39.6590909 263.479261,40.3636364 C262.47642,41.0681818 261.706534,42.0894886 261.169602,43.4275568 C260.63267,44.765625 260.361364,46.3863636 260.355682,48.2897727 C260.355682,50.1931818 260.624148,51.8196023 261.16108,53.1690341 C261.698011,54.5184659 262.467898,55.5497159 263.470739,56.2627841 C264.47358,56.9758523 265.676705,57.3323864 267.080114,57.3323864 Z M267.080114,54.6647727 C266.352841,54.6647727 265.725,54.4247159 265.196591,53.9446023 C264.668182,53.4644886 264.260511,52.75 263.97358,51.8011364 C263.686648,50.8522727 263.546023,49.6818182 263.551705,48.2897727 C263.557386,46.2102273 263.875568,44.6321023 264.50625,43.5553977 C265.136932,42.4786932 265.994886,41.9403409 267.080114,41.9403409 C267.801705,41.9403409 268.426705,42.1803977 268.955114,42.6605114 C269.483523,43.140625 269.892614,43.8522727 270.182386,44.7954545 C270.472159,45.7386364 270.617045,46.9034091 270.617045,48.2897727 C270.617045,50.3863636 270.300284,51.9730114 269.666761,53.0497159 C269.033239,54.1264205 268.171023,54.6647727 267.080114,54.6647727 Z" id="1111,008888,00" fill="#000000" fill-rule="nonzero"></path>
                <path d="M2.46590909,89 L2.465,85.282 L4.69318182,85.28125 C5.3973064,85.28125 5.98882342,85.1666784 6.46773288,84.9375351 L6.64204545,84.8462358 C7.14914773,84.5562263 7.52450284,84.1659564 7.7681108,83.6754261 C8.01171875,83.1848958 8.13352273,82.639678 8.13352273,82.0397727 C8.13352273,81.4398674 8.01089015,80.8963068 7.765625,80.4090909 C7.52035985,79.921875 7.14334754,79.5349195 6.63458807,79.2482244 C6.1258286,78.9615294 5.47206439,78.8181818 4.67329545,78.8181818 L4.67329545,78.8181818 L1.23295455,78.8181818 L1.23295455,89 L2.46590909,89 Z M2.46590909,79.9119318 L4.63352273,79.9119318 C5.18702652,79.9119318 5.6311553,80.0039062 5.96590909,80.1878551 C6.30066288,80.371804 6.54344223,80.6245265 6.69424716,80.9460227 C6.84505208,81.2675189 6.92045455,81.6321023 6.92045455,82.0397727 C6.92045455,82.4474432 6.84505208,82.8128551 6.69424716,83.1360085 C6.54344223,83.4591619 6.30232008,83.7151989 5.97088068,83.9041193 C5.63944129,84.0930398 5.20028409,84.1875 4.65340909,84.1875 L4.65340909,84.1875 L2.465,84.188 L2.46590909,79.9119318 Z M12.2102273,89.1789773 C12.6543561,89.1789773 13.0305398,89.1126894 13.3387784,88.9801136 C13.647017,88.8475379 13.8939394,88.6867898 14.0795455,88.4978693 C14.2651515,88.3089489 14.3977273,88.1316288 14.4772727,87.9659091 L14.4772727,87.9659091 L14.5369318,87.9659091 L14.5369318,89 L15.7102273,89 L15.7102273,83.96875 C15.7102273,83.3622159 15.6107955,82.8783144 15.4119318,82.5170455 C15.2130682,82.1557765 14.96366,81.8856534 14.6637074,81.7066761 C14.3637547,81.5276989 14.0538589,81.4092093 13.7340199,81.3512074 C13.4141809,81.2932055 13.1316288,81.2642045 12.8863636,81.2642045 C12.5018939,81.2642045 12.1116241,81.3164062 11.715554,81.4208097 C11.3194839,81.5252131 10.9549006,81.7075047 10.621804,81.9676847 C10.2887074,82.2278646 10.0227273,82.5899621 9.82386364,83.0539773 L9.82386364,83.0539773 L10.9375,83.4517045 C11.0667614,83.1732955 11.290483,82.9114583 11.6086648,82.6661932 C11.9268466,82.420928 12.3660038,82.2982955 12.9261364,82.2982955 C13.4663826,82.2982955 13.86991,82.4341856 14.1367188,82.7059659 C14.4035275,82.9777462 14.5369318,83.3589015 14.5369318,83.8494318 L14.5369318,83.8494318 L14.5369318,83.8892045 C14.5369318,84.078125 14.4698153,84.2107008 14.3355824,84.2869318 C14.2013494,84.3631629 13.9892282,84.4170218 13.6992188,84.4485085 C13.4092093,84.4799953 13.032197,84.5255682 12.5681818,84.5852273 C12.2135417,84.6316288 11.8613873,84.6937737 11.5117188,84.7716619 C11.1620502,84.8495502 10.8430398,84.9663826 10.5546875,85.1221591 C10.2663352,85.2779356 10.0359848,85.4925426 9.86363636,85.7659801 C9.69128788,86.0394176 9.60511364,86.3948864 9.60511364,86.8323864 C9.60511364,87.3295455 9.72111742,87.7529593 9.953125,88.1026278 C10.1851326,88.4522964 10.4983428,88.7191051 10.8927557,88.903054 C11.2871686,89.0870028 11.7263258,89.1789773 12.2102273,89.1789773 Z M12.3892045,88.125 C11.921875,88.125 11.5365767,88.0214252 11.2333097,87.8142756 C10.9300426,87.6071259 10.7784091,87.2997159 10.7784091,86.8920455 C10.7784091,86.59375 10.8587831,86.3575994 11.0195312,86.1835938 C11.1802794,86.0095881 11.3924006,85.8786695 11.6558949,85.7908381 C11.9193892,85.7030066 12.2035985,85.6392045 12.5085227,85.5994318 C12.6344697,85.5828598 12.7993608,85.5621449 13.003196,85.5372869 C13.2070312,85.512429 13.4174953,85.4825994 13.6345881,85.4477983 C13.8516809,85.4129972 14.0439157,85.3715672 14.2112926,85.3235085 C14.3786695,85.2754498 14.4872159,85.2215909 14.5369318,85.1619318 L14.5369318,85.1619318 L14.5369318,86.2357955 C14.5369318,86.5539773 14.4549006,86.8572443 14.2908381,87.1455966 C14.1267756,87.4339489 13.8848248,87.6692708 13.5649858,87.8515625 C13.2451468,88.0338542 12.8532197,88.125 12.3892045,88.125 Z M20.7414773,89.1590909 C21.2320076,89.1590909 21.6247633,89.0770597 21.9197443,88.9129972 C22.2147254,88.7489347 22.4417614,88.5616714 22.6008523,88.3512074 C22.7599432,88.1407434 22.8825758,87.9659091 22.96875,87.8267045 L22.96875,87.8267045 L23.1079545,87.8267045 L23.1079545,89 L24.2414773,89 L24.2414773,78.8181818 L23.0681818,78.8181818 L23.0681818,82.5767045 L22.96875,82.5767045 C22.8825758,82.4441288 22.762429,82.2742661 22.6083097,82.0671165 C22.4541903,81.8599669 22.2321259,81.6743608 21.9421165,81.5102983 C21.652107,81.3462358 21.2585227,81.2642045 20.7613636,81.2642045 C20.1183712,81.2642045 19.5516098,81.4249527 19.0610795,81.7464489 C18.5705492,82.0679451 18.1877367,82.5236742 17.912642,83.1136364 C17.6375473,83.7035985 17.5,84.3996212 17.5,85.2017045 C17.5,86.0104167 17.6375473,86.7105824 17.912642,87.3022017 C18.1877367,87.893821 18.568892,88.3512074 19.056108,88.6743608 C19.5433239,88.9975142 20.1051136,89.1590909 20.7414773,89.1590909 Z M20.9005682,88.1051136 C20.4100379,88.1051136 19.9998816,87.9750237 19.6700994,87.7148438 C19.3403172,87.4546638 19.0917377,87.1033381 18.9243608,86.6608665 C18.7569839,86.2183949 18.6732955,85.7253788 18.6732955,85.1818182 C18.6732955,84.6448864 18.7553267,84.1601562 18.9193892,83.7276278 C19.0834517,83.2950994 19.3303741,82.9520597 19.6601562,82.6985085 C19.9899384,82.4449574 20.4034091,82.3181818 20.9005682,82.3181818 C21.3778409,82.3181818 21.7788826,82.4383286 22.1036932,82.6786222 C22.4285038,82.9189157 22.6737689,83.2536695 22.8394886,83.6828835 C23.0052083,84.1120975 23.0880682,84.6117424 23.0880682,85.1818182 C23.0880682,85.7585227 23.0035511,86.2664536 22.834517,86.7056108 C22.665483,87.144768 22.4185606,87.4878078 22.09375,87.7347301 C21.7689394,87.9816525 21.3712121,88.1051136 20.9005682,88.1051136 Z M27.7215909,89 L27.7215909,84.1676136 C27.7215909,83.8229167 27.8052794,83.5155066 27.9726562,83.2453835 C28.1400331,82.9752604 28.3687263,82.7631392 28.6587358,82.6090199 C28.9487453,82.4549006 29.2793561,82.3778409 29.6505682,82.3778409 C29.8063447,82.3778409 29.9546638,82.3886127 30.0955256,82.4101562 C30.2363873,82.4316998 30.3267045,82.4474432 30.3664773,82.4573864 L30.3664773,82.4573864 L30.3664773,81.2642045 C30.3001894,81.2575758 30.2024148,81.2526042 30.0731534,81.2492898 C29.943892,81.2459754 29.8361742,81.2443182 29.75,81.2443182 C29.2926136,81.2443182 28.8816288,81.3619792 28.5170455,81.5973011 C28.1524621,81.8326231 27.9005682,82.1392045 27.7613636,82.5170455 L27.7613636,82.5170455 L27.6818182,82.5170455 L27.6818182,81.3636364 L26.5482955,81.3636364 L26.5482955,89 L27.7215909,89 Z M33.2301136,80.4488636 C33.2301136,80.2400568 33.2922585,80.0619081 33.4165483,79.9144176 C33.5408381,79.7669271 33.6974432,79.6931818 33.8863636,79.6931818 C34.0752841,79.6931818 34.234375,79.7254972 34.3636364,79.7901278 C34.4928977,79.8547585 34.6155303,79.9285038 34.7315341,80.0113636 C34.8475379,80.0942235 34.9801136,80.1679688 35.1292614,80.2325994 C35.2784091,80.2972301 35.4673295,80.3295455 35.6960227,80.3295455 C36.1235795,80.3295455 36.4823627,80.1770833 36.7723722,79.8721591 C37.0623816,79.5672348 37.2073864,79.15625 37.2073864,78.6392045 L37.2073864,78.6392045 L36.3125,78.5596591 C36.3125,78.7684659 36.2470407,78.9466146 36.1161222,79.0941051 C35.9852036,79.2415956 35.8252841,79.3153409 35.6363636,79.3153409 C35.4573864,79.3153409 35.2974669,79.2830256 35.1566051,79.2183949 C35.0157434,79.1537642 34.8790246,79.0800189 34.7464489,78.9971591 C34.6138731,78.9142992 34.4746686,78.840554 34.3288352,78.7759233 C34.1830019,78.7112926 34.015625,78.6789773 33.8267045,78.6789773 C33.3991477,78.6789773 33.0403646,78.840554 32.7503551,79.1637074 C32.4603456,79.4868608 32.3153409,79.9019886 32.3153409,80.4090909 L32.3153409,80.4090909 L33.2301136,80.4488636 Z M34.0056818,89.1789773 C34.4498106,89.1789773 34.8259943,89.1126894 35.134233,88.9801136 C35.4424716,88.8475379 35.6893939,88.6867898 35.875,88.4978693 C36.0606061,88.3089489 36.1931818,88.1316288 36.2727273,87.9659091 L36.2727273,87.9659091 L36.3323864,87.9659091 L36.3323864,89 L37.5056818,89 L37.5056818,83.96875 C37.5056818,83.3622159 37.40625,82.8783144 37.2073864,82.5170455 C37.0085227,82.1557765 36.7591146,81.8856534 36.4591619,81.7066761 C36.1592093,81.5276989 35.8493134,81.4092093 35.5294744,81.3512074 C35.2096354,81.2932055 34.9270833,81.2642045 34.6818182,81.2642045 C34.2973485,81.2642045 33.9070786,81.3164062 33.5110085,81.4208097 C33.1149384,81.5252131 32.7503551,81.7075047 32.4172585,81.9676847 C32.0841619,82.2278646 31.8181818,82.5899621 31.6193182,83.0539773 L31.6193182,83.0539773 L32.7329545,83.4517045 C32.8622159,83.1732955 33.0859375,82.9114583 33.4041193,82.6661932 C33.7223011,82.420928 34.1614583,82.2982955 34.7215909,82.2982955 C35.2618371,82.2982955 35.6653646,82.4341856 35.9321733,82.7059659 C36.198982,82.9777462 36.3323864,83.3589015 36.3323864,83.8494318 L36.3323864,83.8494318 L36.3323864,83.8892045 C36.3323864,84.078125 36.2652699,84.2107008 36.1310369,84.2869318 C35.996804,84.3631629 35.7846828,84.4170218 35.4946733,84.4485085 C35.2046638,84.4799953 34.8276515,84.5255682 34.3636364,84.5852273 C34.0089962,84.6316288 33.6568419,84.6937737 33.3071733,84.7716619 C32.9575047,84.8495502 32.6384943,84.9663826 32.350142,85.1221591 C32.0617898,85.2779356 31.8314394,85.4925426 31.6590909,85.7659801 C31.4867424,86.0394176 31.4005682,86.3948864 31.4005682,86.8323864 C31.4005682,87.3295455 31.516572,87.7529593 31.7485795,88.1026278 C31.9805871,88.4522964 32.2937973,88.7191051 32.6882102,88.903054 C33.0826231,89.0870028 33.5217803,89.1789773 34.0056818,89.1789773 Z M34.1846591,88.125 C33.7173295,88.125 33.3320312,88.0214252 33.0287642,87.8142756 C32.7254972,87.6071259 32.5738636,87.2997159 32.5738636,86.8920455 C32.5738636,86.59375 32.6542377,86.3575994 32.8149858,86.1835938 C32.9757339,86.0095881 33.1878551,85.8786695 33.4513494,85.7908381 C33.7148438,85.7030066 33.999053,85.6392045 34.3039773,85.5994318 C34.4299242,85.5828598 34.5948153,85.5621449 34.7986506,85.5372869 C35.0024858,85.512429 35.2129498,85.4825994 35.4300426,85.4477983 C35.6471354,85.4129972 35.8393703,85.3715672 36.0067472,85.3235085 C36.1741241,85.2754498 36.2826705,85.2215909 36.3323864,85.1619318 L36.3323864,85.1619318 L36.3323864,86.2357955 C36.3323864,86.5539773 36.2503551,86.8572443 36.0862926,87.1455966 C35.9222301,87.4339489 35.6802794,87.6692708 35.3604403,87.8515625 C35.0406013,88.0338542 34.6486742,88.125 34.1846591,88.125 Z M42.7556818,89.1590909 C43.4450758,89.1590909 44.0491241,88.9950284 44.5678267,88.6669034 C45.0865294,88.3387784 45.4908854,87.8797348 45.7808949,87.2897727 C46.0709044,86.6998106 46.2159091,86.0104167 46.2159091,85.2215909 C46.2159091,84.4261364 46.0709044,83.7317708 45.7808949,83.1384943 C45.4908854,82.5452178 45.0865294,82.084517 44.5678267,81.756392 C44.0491241,81.428267 43.4450758,81.2642045 42.7556818,81.2642045 C42.0662879,81.2642045 41.4622396,81.428267 40.9435369,81.756392 C40.4248343,82.084517 40.0204782,82.5452178 39.7304688,83.1384943 C39.4404593,83.7317708 39.2954545,84.4261364 39.2954545,85.2215909 C39.2954545,86.0104167 39.4404593,86.6998106 39.7304688,87.2897727 C40.0204782,87.8797348 40.4248343,88.3387784 40.9435369,88.6669034 C41.4622396,88.9950284 42.0662879,89.1590909 42.7556818,89.1590909 Z M42.7556818,88.1051136 C42.2320076,88.1051136 41.8011364,87.9708807 41.4630682,87.7024148 C41.125,87.4339489 40.8747633,87.0809659 40.712358,86.6434659 C40.5499527,86.2059659 40.46875,85.7320076 40.46875,85.2215909 C40.46875,84.7111742 40.5499527,84.2355587 40.712358,83.7947443 C40.8747633,83.3539299 41.125,82.9976326 41.4630682,82.7258523 C41.8011364,82.454072 42.2320076,82.3181818 42.7556818,82.3181818 C43.2793561,82.3181818 43.7102273,82.454072 44.0482955,82.7258523 C44.3863636,82.9976326 44.6366004,83.3539299 44.7990057,83.7947443 C44.961411,84.2355587 45.0426136,84.7111742 45.0426136,85.2215909 C45.0426136,85.7320076 44.961411,86.2059659 44.7990057,86.6434659 C44.6366004,87.0809659 44.3863636,87.4339489 44.0482955,87.7024148 C43.7102273,87.9708807 43.2793561,88.1051136 42.7556818,88.1051136 Z M54.8267045,89.1590909 C55.3172348,89.1590909 55.7099905,89.0770597 56.0049716,88.9129972 C56.2999527,88.7489347 56.5269886,88.5616714 56.6860795,88.3512074 C56.8451705,88.1407434 56.967803,87.9659091 57.0539773,87.8267045 L57.0539773,87.8267045 L57.1931818,87.8267045 L57.1931818,89 L58.3267045,89 L58.3267045,78.8181818 L57.1534091,78.8181818 L57.1534091,82.5767045 L57.0539773,82.5767045 C56.967803,82.4441288 56.8476562,82.2742661 56.6935369,82.0671165 C56.5394176,81.8599669 56.3173532,81.6743608 56.0273437,81.5102983 C55.7373343,81.3462358 55.34375,81.2642045 54.8465909,81.2642045 C54.2035985,81.2642045 53.6368371,81.4249527 53.1463068,81.7464489 C52.6557765,82.0679451 52.272964,82.5236742 51.9978693,83.1136364 C51.7227746,83.7035985 51.5852273,84.3996212 51.5852273,85.2017045 C51.5852273,86.0104167 51.7227746,86.7105824 51.9978693,87.3022017 C52.272964,87.893821 52.6541193,88.3512074 53.1413352,88.6743608 C53.6285511,88.9975142 54.1903409,89.1590909 54.8267045,89.1590909 Z M54.9857955,88.1051136 C54.4952652,88.1051136 54.0851089,87.9750237 53.7553267,87.7148438 C53.4255445,87.4546638 53.176965,87.1033381 53.0095881,86.6608665 C52.8422112,86.2183949 52.7585227,85.7253788 52.7585227,85.1818182 C52.7585227,84.6448864 52.840554,84.1601562 53.0046165,83.7276278 C53.168679,83.2950994 53.4156013,82.9520597 53.7453835,82.6985085 C54.0751657,82.4449574 54.4886364,82.3181818 54.9857955,82.3181818 C55.4630682,82.3181818 55.8641098,82.4383286 56.1889205,82.6786222 C56.5137311,82.9189157 56.7589962,83.2536695 56.9247159,83.6828835 C57.0904356,84.1120975 57.1732955,84.6117424 57.1732955,85.1818182 C57.1732955,85.7585227 57.0887784,86.2664536 56.9197443,86.7056108 C56.7507102,87.144768 56.5037879,87.4878078 56.1789773,87.7347301 C55.8541667,87.9816525 55.4564394,88.1051136 54.9857955,88.1051136 Z M62.8806818,89.1789773 C63.3248106,89.1789773 63.7009943,89.1126894 64.009233,88.9801136 C64.3174716,88.8475379 64.5643939,88.6867898 64.75,88.4978693 C64.9356061,88.3089489 65.0681818,88.1316288 65.1477273,87.9659091 L65.1477273,87.9659091 L65.2073864,87.9659091 L65.2073864,89 L66.3806818,89 L66.3806818,83.96875 C66.3806818,83.3622159 66.28125,82.8783144 66.0823864,82.5170455 C65.8835227,82.1557765 65.6341146,81.8856534 65.3341619,81.7066761 C65.0342093,81.5276989 64.7243134,81.4092093 64.4044744,81.3512074 C64.0846354,81.2932055 63.8020833,81.2642045 63.5568182,81.2642045 C63.1723485,81.2642045 62.7820786,81.3164062 62.3860085,81.4208097 C61.9899384,81.5252131 61.6253551,81.7075047 61.2922585,81.9676847 C60.9591619,82.2278646 60.6931818,82.5899621 60.4943182,83.0539773 L60.4943182,83.0539773 L61.6079545,83.4517045 C61.7372159,83.1732955 61.9609375,82.9114583 62.2791193,82.6661932 C62.5973011,82.420928 63.0364583,82.2982955 63.5965909,82.2982955 C64.1368371,82.2982955 64.5403646,82.4341856 64.8071733,82.7059659 C65.073982,82.9777462 65.2073864,83.3589015 65.2073864,83.8494318 L65.2073864,83.8494318 L65.2073864,83.8892045 C65.2073864,84.078125 65.1402699,84.2107008 65.0060369,84.2869318 C64.871804,84.3631629 64.6596828,84.4170218 64.3696733,84.4485085 C64.0796638,84.4799953 63.7026515,84.5255682 63.2386364,84.5852273 C62.8839962,84.6316288 62.5318419,84.6937737 62.1821733,84.7716619 C61.8325047,84.8495502 61.5134943,84.9663826 61.225142,85.1221591 C60.9367898,85.2779356 60.7064394,85.4925426 60.5340909,85.7659801 C60.3617424,86.0394176 60.2755682,86.3948864 60.2755682,86.8323864 C60.2755682,87.3295455 60.391572,87.7529593 60.6235795,88.1026278 C60.8555871,88.4522964 61.1687973,88.7191051 61.5632102,88.903054 C61.9576231,89.0870028 62.3967803,89.1789773 62.8806818,89.1789773 Z M63.0596591,88.125 C62.5923295,88.125 62.2070312,88.0214252 61.9037642,87.8142756 C61.6004972,87.6071259 61.4488636,87.2997159 61.4488636,86.8920455 C61.4488636,86.59375 61.5292377,86.3575994 61.6899858,86.1835938 C61.8507339,86.0095881 62.0628551,85.8786695 62.3263494,85.7908381 C62.5898438,85.7030066 62.874053,85.6392045 63.1789773,85.5994318 C63.3049242,85.5828598 63.4698153,85.5621449 63.6736506,85.5372869 C63.8774858,85.512429 64.0879498,85.4825994 64.3050426,85.4477983 C64.5221354,85.4129972 64.7143703,85.3715672 64.8817472,85.3235085 C65.0491241,85.2754498 65.1576705,85.2215909 65.2073864,85.1619318 L65.2073864,85.1619318 L65.2073864,86.2357955 C65.2073864,86.5539773 65.1253551,86.8572443 64.9612926,87.1455966 C64.7972301,87.4339489 64.5552794,87.6692708 64.2354403,87.8515625 C63.9156013,88.0338542 63.5236742,88.125 63.0596591,88.125 Z M74.15625,89 L74.156,82.358 L75.8664773,82.3579545 L75.8664773,81.3636364 L74.156,81.364 L74.15625,80.5880682 C74.15625,80.2642045 74.2189529,80.0073052 74.3443588,79.8173701 L74.4122869,79.727983 C74.5829782,79.5324337 74.8622159,79.4346591 75.25,79.4346591 C75.4190341,79.4346591 75.5557528,79.4495739 75.6601562,79.4794034 C75.7645597,79.509233 75.8465909,79.5340909 75.90625,79.5539773 L75.90625,79.5539773 L76.2443182,78.5397727 C76.1548295,78.5 76.0189394,78.4569129 75.8366477,78.4105114 C75.6543561,78.3641098 75.4190341,78.3409091 75.1306818,78.3409091 C74.7660985,78.3409091 74.4197443,78.4138258 74.0916193,78.5596591 C73.7634943,78.7054924 73.4966856,78.9242424 73.2911932,79.2159091 C73.0857008,79.5075758 72.9829545,79.8721591 72.9829545,80.3096591 L72.9829545,80.3096591 L72.982,81.364 L71.75,81.3636364 L71.75,82.3579545 L72.982,82.358 L72.9829545,89 L74.15625,89 Z M80.3011364,89.1590909 C80.9905303,89.1590909 81.5945786,88.9950284 82.1132812,88.6669034 C82.6319839,88.3387784 83.03634,87.8797348 83.3263494,87.2897727 C83.6163589,86.6998106 83.7613636,86.0104167 83.7613636,85.2215909 C83.7613636,84.4261364 83.6163589,83.7317708 83.3263494,83.1384943 C83.03634,82.5452178 82.6319839,82.084517 82.1132812,81.756392 C81.5945786,81.428267 80.9905303,81.2642045 80.3011364,81.2642045 C79.6117424,81.2642045 79.0076941,81.428267 78.4889915,81.756392 C77.9702888,82.084517 77.5659328,82.5452178 77.2759233,83.1384943 C76.9859138,83.7317708 76.8409091,84.4261364 76.8409091,85.2215909 C76.8409091,86.0104167 76.9859138,86.6998106 77.2759233,87.2897727 C77.5659328,87.8797348 77.9702888,88.3387784 78.4889915,88.6669034 C79.0076941,88.9950284 79.6117424,89.1590909 80.3011364,89.1590909 Z M80.3011364,88.1051136 C79.7774621,88.1051136 79.3465909,87.9708807 79.0085227,87.7024148 C78.6704545,87.4339489 78.4202178,87.0809659 78.2578125,86.6434659 C78.0954072,86.2059659 78.0142045,85.7320076 78.0142045,85.2215909 C78.0142045,84.7111742 78.0954072,84.2355587 78.2578125,83.7947443 C78.4202178,83.3539299 78.6704545,82.9976326 79.0085227,82.7258523 C79.3465909,82.454072 79.7774621,82.3181818 80.3011364,82.3181818 C80.8248106,82.3181818 81.2556818,82.454072 81.59375,82.7258523 C81.9318182,82.9976326 82.1820549,83.3539299 82.3444602,83.7947443 C82.5068655,84.2355587 82.5880682,84.7111742 82.5880682,85.2215909 C82.5880682,85.7320076 82.5068655,86.2059659 82.3444602,86.6434659 C82.1820549,87.0809659 81.9318182,87.4339489 81.59375,87.7024148 C81.2556818,87.9708807 80.8248106,88.1051136 80.3011364,88.1051136 Z M86.7244318,89 L86.7244318,84.40625 C86.7244318,83.9621212 86.8089489,83.5842803 86.977983,83.2727273 C87.147017,82.9611742 87.378196,82.7241951 87.6715199,82.5617898 C87.9648437,82.3993845 88.2987689,82.3181818 88.6732955,82.3181818 C89.2168561,82.3181818 89.6444129,82.4863873 89.9559659,82.8227983 C90.2675189,83.1592093 90.4232955,83.6273674 90.4232955,84.2272727 L90.4232955,84.2272727 L90.4232955,89 L91.5965909,89 L91.5965909,84.1477273 C91.5965909,83.4981061 91.4888731,82.9603456 91.2734375,82.534446 C91.0580019,82.1085464 90.756392,81.7903646 90.368608,81.5799006 C89.9808239,81.3694366 89.5284091,81.2642045 89.0113636,81.2642045 C88.4346591,81.2642045 87.9640152,81.3826941 87.5994318,81.6196733 C87.2348485,81.8566525 86.9630682,82.1690341 86.7840909,82.5568182 L86.7840909,82.5568182 L86.6846591,82.5568182 L86.6846591,81.3636364 L85.5511364,81.3636364 L85.5511364,89 L86.7244318,89 Z M96.3295455,89.0994318 C96.5482955,89.0994318 96.7289299,89.0836884 96.8714489,89.0522017 C97.0139678,89.020715 97.125,88.9900568 97.2045455,88.9602273 L97.2045455,88.9602273 L96.9659091,87.90625 C96.9493371,87.9095644 96.9309238,87.913155 96.9106692,87.9170218 L96.7670455,87.9435369 C96.6841856,87.9584517 96.578125,87.9659091 96.4488636,87.9659091 C96.2765152,87.9659091 96.1132812,87.9385653 95.9591619,87.8838778 C95.8050426,87.8291903 95.6790956,87.7198153 95.581321,87.5557528 C95.4835464,87.3916903 95.4346591,87.1439394 95.4346591,86.8125 L95.4346591,86.8125 L95.434,82.358 L97.0653409,82.3579545 L97.0653409,81.3636364 L95.434,81.364 L95.4346591,79.5340909 L94.2613636,79.5340909 L94.261,81.364 L93.1079545,81.3636364 L93.1079545,82.3579545 L94.261,82.358 L94.2613636,87.1306818 C94.2613636,87.5113636 94.3374594,87.836039 94.489651,88.1047078 L94.5720881,88.234375 C94.7792377,88.5260417 95.0410748,88.7431345 95.3575994,88.8856534 C95.6741241,89.0281723 95.9981061,89.0994318 96.3295455,89.0994318 Z M101.957386,89.1590909 C102.474432,89.1590909 102.940104,89.0787169 103.354403,88.9179688 C103.768703,88.7572206 104.116714,88.5318419 104.398437,88.2418324 C104.680161,87.9518229 104.880682,87.6145833 105,87.2301136 L105,87.2301136 L103.866477,86.9119318 C103.767045,87.1770833 103.626184,87.3983191 103.443892,87.5756392 C103.2616,87.7529593 103.045336,87.885535 102.795099,87.9733665 C102.544863,88.0611979 102.265625,88.1051136 101.957386,88.1051136 C101.483428,88.1051136 101.067472,88.0015388 100.709517,87.7943892 C100.351562,87.5872396 100.072325,87.2839725 99.871804,86.8845881 C99.6712831,86.4852036 99.5710227,85.9971591 99.5710227,85.4204545 L99.575,85.58 L105.119318,85.5795455 L105.119318,85.0823864 C105.119318,84.3697917 105.024858,83.7698864 104.835937,83.2826705 C104.647017,82.7954545 104.393466,82.4035275 104.075284,82.1068892 C103.757102,81.8102509 103.404119,81.5956439 103.016335,81.4630682 C102.628551,81.3304924 102.235795,81.2642045 101.838068,81.2642045 C101.148674,81.2642045 100.546283,81.43241 100.030895,81.768821 C99.5155066,82.105232 99.114465,82.5725616 98.8277699,83.1708097 C98.5410748,83.7690578 98.3977273,84.4592803 98.3977273,85.2414773 C98.3977273,86.0236742 98.5410748,86.7089252 98.8277699,87.2972301 C99.114465,87.885535 99.5237926,88.3429214 100.055753,88.6693892 C100.587713,88.995857 101.221591,89.1590909 101.957386,89.1590909 Z M99.5786182,84.5360638 C99.6039365,84.1926557 99.6925505,83.867661 99.8444602,83.5610795 C100.026752,83.1931818 100.28776,82.8940578 100.627486,82.6637074 C100.967211,82.433357 101.370739,82.3181818 101.838068,82.3181818 C102.262311,82.3181818 102.631037,82.4159564 102.944247,82.6115057 C103.257457,82.8070549 103.499408,83.0738636 103.670099,83.4119318 C103.840791,83.75 103.926136,84.1344697 103.926136,84.5653409 L103.926136,84.5653409 L99.577,84.566 L99.5786182,84.5360638 Z" id="Padrãodafonte" fill="#000000" fill-rule="nonzero"></path>
                <path d="M176.929545,89.1392045 C177.443277,89.1392045 177.926349,89.0646307 178.378764,88.915483 C178.831179,88.7663352 179.239678,88.5484138 179.604261,88.2617188 C179.968845,87.9750237 180.273769,87.6261837 180.519034,87.2151989 C180.764299,86.804214 180.933333,86.3385417 181.026136,85.8181818 L181.026136,85.8181818 L179.793182,85.8181818 C179.720265,86.1695076 179.59349,86.480232 179.412855,86.7503551 C179.232221,87.0204782 179.013471,87.2475142 178.756605,87.4314631 C178.49974,87.6154119 178.21553,87.7537879 177.903977,87.8465909 C177.592424,87.9393939 177.267614,87.9857955 176.929545,87.9857955 C176.313068,87.9857955 175.755421,87.8300189 175.256605,87.5184659 C174.757789,87.2069129 174.361719,86.7478693 174.068395,86.1413352 C173.775071,85.5348011 173.628409,84.7907197 173.628409,83.9090909 C173.628409,83.0274621 173.775071,82.2833807 174.068395,81.6768466 C174.361719,81.0703125 174.757789,80.6112689 175.256605,80.2997159 C175.755421,79.9881629 176.313068,79.8323864 176.929545,79.8323864 C177.267614,79.8323864 177.592424,79.8787879 177.903977,79.9715909 C178.21553,80.0643939 178.49974,80.2027699 178.756605,80.3867188 C179.013471,80.5706676 179.232221,80.796875 179.412855,81.0653409 C179.59349,81.3338068 179.720265,81.6453598 179.793182,82 L179.793182,82 L181.026136,82 C180.933333,81.4763258 180.764299,81.0098248 180.519034,80.6004972 C180.273769,80.1911695 179.968845,79.8431581 179.604261,79.5564631 C179.239678,79.269768 178.831179,79.0518466 178.378764,78.9026989 C177.926349,78.7535511 177.443277,78.6789773 176.929545,78.6789773 C176.061174,78.6789773 175.28892,78.8910985 174.612784,79.3153409 C173.936648,79.7395833 173.404688,80.342803 173.016903,81.125 C172.629119,81.907197 172.435227,82.8352273 172.435227,83.9090909 C172.435227,84.9829545 172.629119,85.9109848 173.016903,86.6931818 C173.404688,87.4753788 173.936648,88.0785985 174.612784,88.5028409 C175.28892,88.9270833 176.061174,89.1392045 176.929545,89.1392045 Z M185.957955,89.1590909 C186.647348,89.1590909 187.251397,88.9950284 187.770099,88.6669034 C188.288802,88.3387784 188.693158,87.8797348 188.983168,87.2897727 C189.273177,86.6998106 189.418182,86.0104167 189.418182,85.2215909 C189.418182,84.4261364 189.273177,83.7317708 188.983168,83.1384943 C188.693158,82.5452178 188.288802,82.084517 187.770099,81.756392 C187.251397,81.428267 186.647348,81.2642045 185.957955,81.2642045 C185.268561,81.2642045 184.664512,81.428267 184.14581,81.756392 C183.627107,82.084517 183.222751,82.5452178 182.932741,83.1384943 C182.642732,83.7317708 182.497727,84.4261364 182.497727,85.2215909 C182.497727,86.0104167 182.642732,86.6998106 182.932741,87.2897727 C183.222751,87.8797348 183.627107,88.3387784 184.14581,88.6669034 C184.664512,88.9950284 185.268561,89.1590909 185.957955,89.1590909 Z M185.957955,88.1051136 C185.43428,88.1051136 185.003409,87.9708807 184.665341,87.7024148 C184.327273,87.4339489 184.077036,87.0809659 183.914631,86.6434659 C183.752225,86.2059659 183.671023,85.7320076 183.671023,85.2215909 C183.671023,84.7111742 183.752225,84.2355587 183.914631,83.7947443 C184.077036,83.3539299 184.327273,82.9976326 184.665341,82.7258523 C185.003409,82.454072 185.43428,82.3181818 185.957955,82.3181818 C186.481629,82.3181818 186.9125,82.454072 187.250568,82.7258523 C187.588636,82.9976326 187.838873,83.3539299 188.001278,83.7947443 C188.163684,84.2355587 188.244886,84.7111742 188.244886,85.2215909 C188.244886,85.7320076 188.163684,86.2059659 188.001278,86.6434659 C187.838873,87.0809659 187.588636,87.4339489 187.250568,87.7024148 C186.9125,87.9708807 186.481629,88.1051136 185.957955,88.1051136 Z M192.38125,89 L192.38125,84.2272727 C192.38125,83.8527462 192.461624,83.5221354 192.622372,83.2354403 C192.78312,82.9487453 192.995241,82.7241951 193.258736,82.5617898 C193.52223,82.3993845 193.806439,82.3181818 194.111364,82.3181818 C194.555492,82.3181818 194.918419,82.4515862 195.200142,82.7183949 C195.481866,82.9852036 195.622727,83.3357008 195.622727,83.7698864 L195.622727,83.7698864 L195.622727,89 L196.815909,89 L196.815909,84.0284091 C196.815909,83.5345644 196.9634,83.1260653 197.258381,82.8029119 C197.553362,82.4797585 197.969318,82.3181818 198.50625,82.3181818 C198.923864,82.3181818 199.28679,82.4391572 199.595028,82.681108 C199.903267,82.9230587 200.057386,83.3257576 200.057386,83.8892045 L200.057386,83.8892045 L200.057386,89 L201.230682,89 L201.230682,83.8892045 C201.230682,82.9910038 201.013589,82.3289536 200.579403,81.903054 C200.145218,81.4771544 199.586742,81.2642045 198.903977,81.2642045 C198.357102,81.2642045 197.888116,81.3810369 197.497017,81.6147017 C197.105919,81.8483665 196.812595,82.1624053 196.617045,82.5568182 L196.617045,82.5568182 L196.5375,82.5568182 C196.34858,82.1491477 196.085914,81.8317945 195.749503,81.6047585 C195.413092,81.3777225 194.992992,81.2642045 194.489205,81.2642045 C193.992045,81.2642045 193.566146,81.3777225 193.211506,81.6047585 C192.856866,81.8317945 192.6,82.1491477 192.440909,82.5568182 L192.440909,82.5568182 L192.341477,82.5568182 L192.341477,81.3636364 L191.207955,81.3636364 L191.207955,89 L192.38125,89 Z M208.489205,89 L208.489205,84.40625 C208.489205,83.9621212 208.573722,83.5842803 208.742756,83.2727273 C208.91179,82.9611742 209.142969,82.7241951 209.436293,82.5617898 C209.729616,82.3993845 210.063542,82.3181818 210.438068,82.3181818 C210.981629,82.3181818 211.409186,82.4863873 211.720739,82.8227983 C212.032292,83.1592093 212.188068,83.6273674 212.188068,84.2272727 L212.188068,84.2272727 L212.188068,89 L213.361364,89 L213.361364,84.1477273 C213.361364,83.4981061 213.253646,82.9603456 213.03821,82.534446 C212.822775,82.1085464 212.521165,81.7903646 212.133381,81.5799006 C211.745597,81.3694366 211.293182,81.2642045 210.776136,81.2642045 C210.199432,81.2642045 209.728788,81.3826941 209.364205,81.6196733 C208.999621,81.8566525 208.727841,82.1690341 208.548864,82.5568182 L208.548864,82.5568182 L208.449432,82.5568182 L208.449432,81.3636364 L207.315909,81.3636364 L207.315909,89 L208.489205,89 Z M219.009091,80.3295455 L220.560227,78.0227273 L219.188068,78.0227273 L217.975,80.3295455 L219.009091,80.3295455 Z M217.975,89.0994318 C218.551705,89.0994318 219.028977,88.9643703 219.406818,88.6942472 C219.784659,88.4241241 220.063068,88.0951705 220.242045,87.7073864 L220.242045,87.7073864 L220.321591,87.7073864 L220.321591,89 L221.494886,89 L221.494886,81.3636364 L220.321591,81.3636364 L220.321591,85.8778409 C220.321591,86.3551136 220.218016,86.7478693 220.010866,87.056108 C219.803717,87.3643466 219.548509,87.5930398 219.245241,87.7421875 C218.941974,87.8913352 218.644508,87.9659091 218.352841,87.9659091 C217.865625,87.9659091 217.465412,87.8001894 217.152202,87.46875 C216.838991,87.1373106 216.682386,86.6931818 216.682386,86.1363636 L216.682386,86.1363636 L216.682386,81.3636364 L215.509091,81.3636364 L215.509091,86.2159091 C215.509091,86.8655303 215.615152,87.4032907 215.827273,87.8291903 C216.039394,88.25509 216.331061,88.5732718 216.702273,88.7837358 C217.073485,88.9941998 217.497727,89.0994318 217.975,89.0994318 Z M224.815909,89 L224.815909,84.2272727 C224.815909,83.8527462 224.896283,83.5221354 225.057031,83.2354403 C225.217779,82.9487453 225.429901,82.7241951 225.693395,82.5617898 C225.956889,82.3993845 226.241098,82.3181818 226.546023,82.3181818 C226.990152,82.3181818 227.353078,82.4515862 227.634801,82.7183949 C227.916525,82.9852036 228.057386,83.3357008 228.057386,83.7698864 L228.057386,83.7698864 L228.057386,89 L229.250568,89 L229.250568,84.0284091 C229.250568,83.5345644 229.398059,83.1260653 229.69304,82.8029119 C229.988021,82.4797585 230.403977,82.3181818 230.940909,82.3181818 C231.358523,82.3181818 231.721449,82.4391572 232.029688,82.681108 C232.337926,82.9230587 232.492045,83.3257576 232.492045,83.8892045 L232.492045,83.8892045 L232.492045,89 L233.665341,89 L233.665341,83.8892045 C233.665341,82.9910038 233.448248,82.3289536 233.014063,81.903054 C232.579877,81.4771544 232.021402,81.2642045 231.338636,81.2642045 C230.791761,81.2642045 230.322775,81.3810369 229.931676,81.6147017 C229.540578,81.8483665 229.247254,82.1624053 229.051705,82.5568182 L229.051705,82.5568182 L228.972159,82.5568182 C228.783239,82.1491477 228.520573,81.8317945 228.184162,81.6047585 C227.847751,81.3777225 227.427652,81.2642045 226.923864,81.2642045 C226.426705,81.2642045 226.000805,81.3777225 225.646165,81.6047585 C225.291525,81.8317945 225.034659,82.1491477 224.875568,82.5568182 L224.875568,82.5568182 L224.776136,82.5568182 L224.776136,81.3636364 L223.642614,81.3636364 L223.642614,89 L224.815909,89 Z M239.014773,89.1590909 C239.531818,89.1590909 239.997491,89.0787169 240.41179,88.9179688 C240.826089,88.7572206 241.1741,88.5318419 241.455824,88.2418324 C241.737547,87.9518229 241.938068,87.6145833 242.057386,87.2301136 L242.057386,87.2301136 L240.923864,86.9119318 C240.824432,87.1770833 240.68357,87.3983191 240.501278,87.5756392 C240.318987,87.7529593 240.102723,87.885535 239.852486,87.9733665 C239.602249,88.0611979 239.323011,88.1051136 239.014773,88.1051136 C238.540814,88.1051136 238.124858,88.0015388 237.766903,87.7943892 C237.408949,87.5872396 237.129711,87.2839725 236.92919,86.8845881 C236.72867,86.4852036 236.628409,85.9971591 236.628409,85.4204545 L236.632,85.58 L242.176705,85.5795455 L242.176705,85.0823864 C242.176705,84.3697917 242.082244,83.7698864 241.893324,83.2826705 C241.704403,82.7954545 241.450852,82.4035275 241.13267,82.1068892 C240.814489,81.8102509 240.461506,81.5956439 240.073722,81.4630682 C239.685938,81.3304924 239.293182,81.2642045 238.895455,81.2642045 C238.206061,81.2642045 237.60367,81.43241 237.088281,81.768821 C236.572893,82.105232 236.171851,82.5725616 235.885156,83.1708097 C235.598461,83.7690578 235.455114,84.4592803 235.455114,85.2414773 C235.455114,86.0236742 235.598461,86.7089252 235.885156,87.2972301 C236.171851,87.885535 236.581179,88.3429214 237.113139,88.6693892 C237.645099,88.995857 238.278977,89.1590909 239.014773,89.1590909 Z M236.636005,84.5360638 C236.661323,84.1926557 236.749937,83.867661 236.901847,83.5610795 C237.084138,83.1931818 237.345147,82.8940578 237.684872,82.6637074 C238.024598,82.433357 238.428125,82.3181818 238.895455,82.3181818 C239.319697,82.3181818 239.688423,82.4159564 240.001634,82.6115057 C240.314844,82.8070549 240.556795,83.0738636 240.727486,83.4119318 C240.898177,83.75 240.983523,84.1344697 240.983523,84.5653409 L240.983523,84.5653409 L236.635,84.566 L236.636005,84.5360638 Z M245.139773,89 L245.139773,84.1676136 C245.139773,83.8229167 245.223461,83.5155066 245.390838,83.2453835 C245.558215,82.9752604 245.786908,82.7631392 246.076918,82.6090199 C246.366927,82.4549006 246.697538,82.3778409 247.06875,82.3778409 C247.224527,82.3778409 247.372846,82.3886127 247.513707,82.4101562 C247.654569,82.4316998 247.744886,82.4474432 247.784659,82.4573864 L247.784659,82.4573864 L247.784659,81.2642045 C247.718371,81.2575758 247.620597,81.2526042 247.491335,81.2492898 C247.362074,81.2459754 247.254356,81.2443182 247.168182,81.2443182 C246.710795,81.2443182 246.299811,81.3619792 245.935227,81.5973011 C245.570644,81.8326231 245.31875,82.1392045 245.179545,82.5170455 L245.179545,82.5170455 L245.1,82.5170455 L245.1,81.3636364 L243.966477,81.3636364 L243.966477,89 L245.139773,89 Z M251.423864,89.1789773 C251.867992,89.1789773 252.244176,89.1126894 252.552415,88.9801136 C252.860653,88.8475379 253.107576,88.6867898 253.293182,88.4978693 C253.478788,88.3089489 253.611364,88.1316288 253.690909,87.9659091 L253.690909,87.9659091 L253.750568,87.9659091 L253.750568,89 L254.923864,89 L254.923864,83.96875 C254.923864,83.3622159 254.824432,82.8783144 254.625568,82.5170455 C254.426705,82.1557765 254.177296,81.8856534 253.877344,81.7066761 C253.577391,81.5276989 253.267495,81.4092093 252.947656,81.3512074 C252.627817,81.2932055 252.345265,81.2642045 252.1,81.2642045 C251.71553,81.2642045 251.32526,81.3164062 250.92919,81.4208097 C250.53312,81.5252131 250.168537,81.7075047 249.83544,81.9676847 C249.502344,82.2278646 249.236364,82.5899621 249.0375,83.0539773 L249.0375,83.0539773 L250.151136,83.4517045 C250.280398,83.1732955 250.504119,82.9114583 250.822301,82.6661932 C251.140483,82.420928 251.57964,82.2982955 252.139773,82.2982955 C252.680019,82.2982955 253.083546,82.4341856 253.350355,82.7059659 C253.617164,82.9777462 253.750568,83.3589015 253.750568,83.8494318 L253.750568,83.8494318 L253.750568,83.8892045 C253.750568,84.078125 253.683452,84.2107008 253.549219,84.2869318 C253.414986,84.3631629 253.202865,84.4170218 252.912855,84.4485085 C252.622846,84.4799953 252.245833,84.5255682 251.781818,84.5852273 C251.427178,84.6316288 251.075024,84.6937737 250.725355,84.7716619 C250.375687,84.8495502 250.056676,84.9663826 249.768324,85.1221591 C249.479972,85.2779356 249.249621,85.4925426 249.077273,85.7659801 C248.904924,86.0394176 248.81875,86.3948864 248.81875,86.8323864 C248.81875,87.3295455 248.934754,87.7529593 249.166761,88.1026278 C249.398769,88.4522964 249.711979,88.7191051 250.106392,88.903054 C250.500805,89.0870028 250.939962,89.1789773 251.423864,89.1789773 Z M251.602841,88.125 C251.135511,88.125 250.750213,88.0214252 250.446946,87.8142756 C250.143679,87.6071259 249.992045,87.2997159 249.992045,86.8920455 C249.992045,86.59375 250.07242,86.3575994 250.233168,86.1835938 C250.393916,86.0095881 250.606037,85.8786695 250.869531,85.7908381 C251.133026,85.7030066 251.417235,85.6392045 251.722159,85.5994318 C251.848106,85.5828598 252.012997,85.5621449 252.216832,85.5372869 C252.420668,85.512429 252.631132,85.4825994 252.848224,85.4477983 C253.065317,85.4129972 253.257552,85.3715672 253.424929,85.3235085 C253.592306,85.2754498 253.700852,85.2215909 253.750568,85.1619318 L253.750568,85.1619318 L253.750568,86.2357955 C253.750568,86.5539773 253.668537,86.8572443 253.504474,87.1455966 C253.340412,87.4339489 253.098461,87.6692708 252.778622,87.8515625 C252.458783,88.0338542 252.066856,88.125 251.602841,88.125 Z M259.457955,91.9829545 C260.144034,91.9829545 260.663565,91.847893 261.016548,91.5777699 C261.369531,91.3076468 261.546023,90.9588068 261.546023,90.53125 C261.546023,90.1434659 261.438305,89.8609138 261.222869,89.6835938 C261.007434,89.5062737 260.770455,89.3977273 260.511932,89.3579545 L260.511932,89.3579545 L260.555,89.141 L260.639976,89.1333198 C260.939489,89.0989583 261.216545,89.0302354 261.471144,88.927151 L261.657884,88.8433949 C262.083783,88.6329309 262.426823,88.347893 262.687003,87.9882812 C262.947183,87.6286695 263.110417,87.2234848 263.176705,86.7727273 L263.176705,86.7727273 L262.003409,86.7727273 C261.930492,87.0511364 261.80786,87.2897727 261.635511,87.4886364 C261.463163,87.6875 261.252699,87.8399621 261.004119,87.9460227 C260.75554,88.0520833 260.478788,88.1051136 260.173864,88.1051136 C259.709848,88.1051136 259.306321,87.9841383 258.963281,87.7421875 C258.620241,87.5002367 258.35509,87.1605114 258.167827,86.7230114 C257.980563,86.2855114 257.886932,85.7717803 257.886932,85.1818182 C257.886932,84.6051136 257.982221,84.1021544 258.172798,83.6729403 C258.363376,83.2437263 258.630185,82.9106297 258.973224,82.6736506 C259.316264,82.4366714 259.716477,82.3181818 260.173864,82.3181818 C260.690909,82.3181818 261.102723,82.4532434 261.409304,82.7233665 C261.715885,82.9934896 261.91392,83.3025568 262.003409,83.6505682 L262.003409,83.6505682 L263.176705,83.6505682 C263.110417,83.1732955 262.939725,82.7556818 262.664631,82.3977273 C262.389536,82.0397727 262.036553,81.7613636 261.605682,81.5625 C261.174811,81.3636364 260.690909,81.2642045 260.153977,81.2642045 C259.464583,81.2642045 258.862192,81.43241 258.346804,81.768821 C257.831416,82.105232 257.430374,82.5709044 257.143679,83.1658381 C256.856984,83.7607718 256.713636,84.4460227 256.713636,85.2215909 C256.713636,85.9839015 256.852841,86.6616951 257.13125,87.2549716 C257.409659,87.8482481 257.807386,88.3139205 258.324432,88.6519886 C258.669129,88.8773674 259.058018,89.0276199 259.491098,89.1027462 L259.585,89.117 L259.418182,89.9346591 C259.733049,89.959517 259.975414,90.0027883 260.145277,90.0644729 L260.238494,90.1036932 C260.407528,90.186553 260.492045,90.3423295 260.492045,90.5710227 C260.492045,90.7997159 260.390128,90.9629498 260.186293,91.0607244 C259.982457,91.1584991 259.72642,91.2073864 259.418182,91.2073864 L259.418182,91.2073864 L259.457955,91.9829545 Z M266.358523,80.4488636 C266.358523,80.2400568 266.420668,80.0619081 266.544957,79.9144176 C266.669247,79.7669271 266.825852,79.6931818 267.014773,79.6931818 C267.203693,79.6931818 267.362784,79.7254972 267.492045,79.7901278 C267.621307,79.8547585 267.743939,79.9285038 267.859943,80.0113636 C267.975947,80.0942235 268.108523,80.1679688 268.25767,80.2325994 C268.406818,80.2972301 268.595739,80.3295455 268.824432,80.3295455 C269.251989,80.3295455 269.610772,80.1770833 269.900781,79.8721591 C270.190791,79.5672348 270.335795,79.15625 270.335795,78.6392045 L270.335795,78.6392045 L269.440909,78.5596591 C269.440909,78.7684659 269.37545,78.9466146 269.244531,79.0941051 C269.113613,79.2415956 268.953693,79.3153409 268.764773,79.3153409 C268.585795,79.3153409 268.425876,79.2830256 268.285014,79.2183949 C268.144152,79.1537642 268.007434,79.0800189 267.874858,78.9971591 C267.742282,78.9142992 267.603078,78.840554 267.457244,78.7759233 C267.311411,78.7112926 267.144034,78.6789773 266.955114,78.6789773 C266.527557,78.6789773 266.168774,78.840554 265.878764,79.1637074 C265.588755,79.4868608 265.44375,79.9019886 265.44375,80.4090909 L265.44375,80.4090909 L266.358523,80.4488636 Z M267.134091,89.1789773 C267.57822,89.1789773 267.954403,89.1126894 268.262642,88.9801136 C268.570881,88.8475379 268.817803,88.6867898 269.003409,88.4978693 C269.189015,88.3089489 269.321591,88.1316288 269.401136,87.9659091 L269.401136,87.9659091 L269.460795,87.9659091 L269.460795,89 L270.634091,89 L270.634091,83.96875 C270.634091,83.3622159 270.534659,82.8783144 270.335795,82.5170455 C270.136932,82.1557765 269.887524,81.8856534 269.587571,81.7066761 C269.287618,81.5276989 268.977723,81.4092093 268.657884,81.3512074 C268.338045,81.2932055 268.055492,81.2642045 267.810227,81.2642045 C267.425758,81.2642045 267.035488,81.3164062 266.639418,81.4208097 C266.243348,81.5252131 265.878764,81.7075047 265.545668,81.9676847 C265.212571,82.2278646 264.946591,82.5899621 264.747727,83.0539773 L264.747727,83.0539773 L265.861364,83.4517045 C265.990625,83.1732955 266.214347,82.9114583 266.532528,82.6661932 C266.85071,82.420928 267.289867,82.2982955 267.85,82.2982955 C268.390246,82.2982955 268.793774,82.4341856 269.060582,82.7059659 C269.327391,82.9777462 269.460795,83.3589015 269.460795,83.8494318 L269.460795,83.8494318 L269.460795,83.8892045 C269.460795,84.078125 269.393679,84.2107008 269.259446,84.2869318 C269.125213,84.3631629 268.913092,84.4170218 268.623082,84.4485085 C268.333073,84.4799953 267.956061,84.5255682 267.492045,84.5852273 C267.137405,84.6316288 266.785251,84.6937737 266.435582,84.7716619 C266.085914,84.8495502 265.766903,84.9663826 265.478551,85.1221591 C265.190199,85.2779356 264.959848,85.4925426 264.7875,85.7659801 C264.615152,86.0394176 264.528977,86.3948864 264.528977,86.8323864 C264.528977,87.3295455 264.644981,87.7529593 264.876989,88.1026278 C265.108996,88.4522964 265.422206,88.7191051 265.816619,88.903054 C266.211032,89.0870028 266.650189,89.1789773 267.134091,89.1789773 Z M267.313068,88.125 C266.845739,88.125 266.46044,88.0214252 266.157173,87.8142756 C265.853906,87.6071259 265.702273,87.2997159 265.702273,86.8920455 C265.702273,86.59375 265.782647,86.3575994 265.943395,86.1835938 C266.104143,86.0095881 266.316264,85.8786695 266.579759,85.7908381 C266.843253,85.7030066 267.127462,85.6392045 267.432386,85.5994318 C267.558333,85.5828598 267.723224,85.5621449 267.92706,85.5372869 C268.130895,85.512429 268.341359,85.4825994 268.558452,85.4477983 C268.775545,85.4129972 268.967779,85.3715672 269.135156,85.3235085 C269.302533,85.2754498 269.41108,85.2215909 269.460795,85.1619318 L269.460795,85.1619318 L269.460795,86.2357955 C269.460795,86.5539773 269.378764,86.8572443 269.214702,87.1455966 C269.050639,87.4339489 268.808688,87.6692708 268.488849,87.8515625 C268.16901,88.0338542 267.777083,88.125 267.313068,88.125 Z M275.884091,89.1590909 C276.573485,89.1590909 277.177533,88.9950284 277.696236,88.6669034 C278.214938,88.3387784 278.619295,87.8797348 278.909304,87.2897727 C279.199313,86.6998106 279.344318,86.0104167 279.344318,85.2215909 C279.344318,84.4261364 279.199313,83.7317708 278.909304,83.1384943 C278.619295,82.5452178 278.214938,82.084517 277.696236,81.756392 C277.177533,81.428267 276.573485,81.2642045 275.884091,81.2642045 C275.194697,81.2642045 274.590649,81.428267 274.071946,81.756392 C273.553243,82.084517 273.148887,82.5452178 272.858878,83.1384943 C272.568868,83.7317708 272.423864,84.4261364 272.423864,85.2215909 C272.423864,86.0104167 272.568868,86.6998106 272.858878,87.2897727 C273.148887,87.8797348 273.553243,88.3387784 274.071946,88.6669034 C274.590649,88.9950284 275.194697,89.1590909 275.884091,89.1590909 Z M275.884091,88.1051136 C275.360417,88.1051136 274.929545,87.9708807 274.591477,87.7024148 C274.253409,87.4339489 274.003172,87.0809659 273.840767,86.6434659 C273.678362,86.2059659 273.597159,85.7320076 273.597159,85.2215909 C273.597159,84.7111742 273.678362,84.2355587 273.840767,83.7947443 C274.003172,83.3539299 274.253409,82.9976326 274.591477,82.7258523 C274.929545,82.454072 275.360417,82.3181818 275.884091,82.3181818 C276.407765,82.3181818 276.838636,82.454072 277.176705,82.7258523 C277.514773,82.9976326 277.765009,83.3539299 277.927415,83.7947443 C278.08982,84.2355587 278.171023,84.7111742 278.171023,85.2215909 C278.171023,85.7320076 278.08982,86.2059659 277.927415,86.6434659 C277.765009,87.0809659 277.514773,87.4339489 277.176705,87.7024148 C276.838636,87.9708807 276.407765,88.1051136 275.884091,88.1051136 Z M287.656818,89.0994318 C287.875568,89.0994318 288.056203,89.0836884 288.198722,89.0522017 C288.341241,89.020715 288.452273,88.9900568 288.531818,88.9602273 L288.531818,88.9602273 L288.293182,87.90625 C288.27661,87.9095644 288.258197,87.913155 288.237942,87.9170218 L288.094318,87.9435369 C288.011458,87.9584517 287.905398,87.9659091 287.776136,87.9659091 C287.603788,87.9659091 287.440554,87.9385653 287.286435,87.8838778 C287.132315,87.8291903 287.006368,87.7198153 286.908594,87.5557528 C286.810819,87.3916903 286.761932,87.1439394 286.761932,86.8125 L286.761932,86.8125 L286.761,82.358 L288.392614,82.3579545 L288.392614,81.3636364 L286.761,81.364 L286.761932,79.5340909 L285.588636,79.5340909 L285.588,81.364 L284.435227,81.3636364 L284.435227,82.3579545 L285.588,82.358 L285.588636,87.1306818 C285.588636,87.5113636 285.664732,87.836039 285.816924,88.1047078 L285.899361,88.234375 C286.10651,88.5260417 286.368348,88.7431345 286.684872,88.8856534 C287.001397,89.0281723 287.325379,89.0994318 287.656818,89.0994318 Z M292.409659,89.1789773 C292.853788,89.1789773 293.229972,89.1126894 293.53821,88.9801136 C293.846449,88.8475379 294.093371,88.6867898 294.278977,88.4978693 C294.464583,88.3089489 294.597159,88.1316288 294.676705,87.9659091 L294.676705,87.9659091 L294.736364,87.9659091 L294.736364,89 L295.909659,89 L295.909659,83.96875 C295.909659,83.3622159 295.810227,82.8783144 295.611364,82.5170455 C295.4125,82.1557765 295.163092,81.8856534 294.863139,81.7066761 C294.563187,81.5276989 294.253291,81.4092093 293.933452,81.3512074 C293.613613,81.2932055 293.331061,81.2642045 293.085795,81.2642045 C292.701326,81.2642045 292.311056,81.3164062 291.914986,81.4208097 C291.518916,81.5252131 291.154332,81.7075047 290.821236,81.9676847 C290.488139,82.2278646 290.222159,82.5899621 290.023295,83.0539773 L290.023295,83.0539773 L291.136932,83.4517045 C291.266193,83.1732955 291.489915,82.9114583 291.808097,82.6661932 C292.126278,82.420928 292.565436,82.2982955 293.125568,82.2982955 C293.665814,82.2982955 294.069342,82.4341856 294.336151,82.7059659 C294.602959,82.9777462 294.736364,83.3589015 294.736364,83.8494318 L294.736364,83.8494318 L294.736364,83.8892045 C294.736364,84.078125 294.669247,84.2107008 294.535014,84.2869318 C294.400781,84.3631629 294.18866,84.4170218 293.898651,84.4485085 C293.608641,84.4799953 293.231629,84.5255682 292.767614,84.5852273 C292.412973,84.6316288 292.060819,84.6937737 291.711151,84.7716619 C291.361482,84.8495502 291.042472,84.9663826 290.754119,85.1221591 C290.465767,85.2779356 290.235417,85.4925426 290.063068,85.7659801 C289.89072,86.0394176 289.804545,86.3948864 289.804545,86.8323864 C289.804545,87.3295455 289.920549,87.7529593 290.152557,88.1026278 C290.384564,88.4522964 290.697775,88.7191051 291.092187,88.903054 C291.4866,89.0870028 291.925758,89.1789773 292.409659,89.1789773 Z M292.588636,88.125 C292.121307,88.125 291.736009,88.0214252 291.432741,87.8142756 C291.129474,87.6071259 290.977841,87.2997159 290.977841,86.8920455 C290.977841,86.59375 291.058215,86.3575994 291.218963,86.1835938 C291.379711,86.0095881 291.591832,85.8786695 291.855327,85.7908381 C292.118821,85.7030066 292.40303,85.6392045 292.707955,85.5994318 C292.833902,85.5828598 292.998793,85.5621449 293.202628,85.5372869 C293.406463,85.512429 293.616927,85.4825994 293.83402,85.4477983 C294.051113,85.4129972 294.243348,85.3715672 294.410724,85.3235085 C294.578101,85.2754498 294.686648,85.2215909 294.736364,85.1619318 L294.736364,85.1619318 L294.736364,86.2357955 C294.736364,86.5539773 294.654332,86.8572443 294.49027,87.1455966 C294.326207,87.4339489 294.084257,87.6692708 293.764418,87.8515625 C293.444579,88.0338542 293.052652,88.125 292.588636,88.125 Z M301.716477,89.1590909 C302.352841,89.1590909 302.914631,88.9975142 303.401847,88.6743608 C303.889062,88.3512074 304.270218,87.893821 304.545313,87.3022017 C304.820407,86.7105824 304.957955,86.0104167 304.957955,85.2017045 C304.957955,84.3996212 304.820407,83.7035985 304.545313,83.1136364 C304.270218,82.5236742 303.887405,82.0679451 303.396875,81.7464489 C302.906345,81.4249527 302.339583,81.2642045 301.696591,81.2642045 C301.199432,81.2642045 300.805848,81.3462358 300.515838,81.5102983 C300.225829,81.6743608 300.003764,81.8599669 299.849645,82.0671165 C299.695526,82.2742661 299.575379,82.4441288 299.489205,82.5767045 L299.489205,82.5767045 L299.389773,82.5767045 L299.389773,78.8181818 L298.216477,78.8181818 L298.216477,89 L299.35,89 L299.35,87.8267045 L299.489205,87.8267045 C299.575379,87.9659091 299.698011,88.1407434 299.857102,88.3512074 C300.016193,88.5616714 300.243229,88.7489347 300.53821,88.9129972 C300.833191,89.0770597 301.225947,89.1590909 301.716477,89.1590909 Z M301.557386,88.1051136 C301.086742,88.1051136 300.689015,87.9816525 300.364205,87.7347301 C300.039394,87.4878078 299.792472,87.144768 299.623438,86.7056108 C299.454403,86.2664536 299.369886,85.7585227 299.369886,85.1818182 C299.369886,84.6117424 299.452746,84.1120975 299.618466,83.6828835 C299.784186,83.2536695 300.029451,82.9189157 300.354261,82.6786222 C300.679072,82.4383286 301.080114,82.3181818 301.557386,82.3181818 C302.054545,82.3181818 302.468016,82.4449574 302.797798,82.6985085 C303.12758,82.9520597 303.374503,83.2950994 303.538565,83.7276278 C303.702628,84.1601562 303.784659,84.6448864 303.784659,85.1818182 C303.784659,85.7253788 303.700971,86.2183949 303.533594,86.6608665 C303.366217,87.1033381 303.117637,87.4546638 302.787855,87.7148438 C302.458073,87.9750237 302.047917,88.1051136 301.557386,88.1051136 Z M309.213636,89.0994318 C309.790341,89.0994318 310.267614,88.9643703 310.645455,88.6942472 C311.023295,88.4241241 311.301705,88.0951705 311.480682,87.7073864 L311.480682,87.7073864 L311.560227,87.7073864 L311.560227,89 L312.733523,89 L312.733523,81.3636364 L311.560227,81.3636364 L311.560227,85.8778409 C311.560227,86.3551136 311.456652,86.7478693 311.249503,87.056108 C311.042353,87.3643466 310.787145,87.5930398 310.483878,87.7421875 C310.180611,87.8913352 309.883144,87.9659091 309.591477,87.9659091 C309.104261,87.9659091 308.704048,87.8001894 308.390838,87.46875 C308.077628,87.1373106 307.921023,86.6931818 307.921023,86.1363636 L307.921023,86.1363636 L307.921023,81.3636364 L306.747727,81.3636364 L306.747727,86.2159091 C306.747727,86.8655303 306.853788,87.4032907 307.065909,87.8291903 C307.27803,88.25509 307.569697,88.5732718 307.940909,88.7837358 C308.312121,88.9941998 308.736364,89.0994318 309.213636,89.0994318 Z M316.054545,89 L316.054545,78.8181818 L314.88125,78.8181818 L314.88125,89 L316.054545,89 Z M320.449432,89.1789773 C320.893561,89.1789773 321.269744,89.1126894 321.577983,88.9801136 C321.886222,88.8475379 322.133144,88.6867898 322.31875,88.4978693 C322.504356,88.3089489 322.636932,88.1316288 322.716477,87.9659091 L322.716477,87.9659091 L322.776136,87.9659091 L322.776136,89 L323.949432,89 L323.949432,83.96875 C323.949432,83.3622159 323.85,82.8783144 323.651136,82.5170455 C323.452273,82.1557765 323.202865,81.8856534 322.902912,81.7066761 C322.602959,81.5276989 322.293063,81.4092093 321.973224,81.3512074 C321.653385,81.2932055 321.370833,81.2642045 321.125568,81.2642045 C320.741098,81.2642045 320.350829,81.3164062 319.954759,81.4208097 C319.558688,81.5252131 319.194105,81.7075047 318.861009,81.9676847 C318.527912,82.2278646 318.261932,82.5899621 318.063068,83.0539773 L318.063068,83.0539773 L319.176705,83.4517045 C319.305966,83.1732955 319.529688,82.9114583 319.847869,82.6661932 C320.166051,82.420928 320.605208,82.2982955 321.165341,82.2982955 C321.705587,82.2982955 322.109115,82.4341856 322.375923,82.7059659 C322.642732,82.9777462 322.776136,83.3589015 322.776136,83.8494318 L322.776136,83.8494318 L322.776136,83.8892045 C322.776136,84.078125 322.70902,84.2107008 322.574787,84.2869318 C322.440554,84.3631629 322.228433,84.4170218 321.938423,84.4485085 C321.648414,84.4799953 321.271402,84.5255682 320.807386,84.5852273 C320.452746,84.6316288 320.100592,84.6937737 319.750923,84.7716619 C319.401255,84.8495502 319.082244,84.9663826 318.793892,85.1221591 C318.50554,85.2779356 318.275189,85.4925426 318.102841,85.7659801 C317.930492,86.0394176 317.844318,86.3948864 317.844318,86.8323864 C317.844318,87.3295455 317.960322,87.7529593 318.19233,88.1026278 C318.424337,88.4522964 318.737547,88.7191051 319.13196,88.903054 C319.526373,89.0870028 319.96553,89.1789773 320.449432,89.1789773 Z M320.628409,88.125 C320.16108,88.125 319.775781,88.0214252 319.472514,87.8142756 C319.169247,87.6071259 319.017614,87.2997159 319.017614,86.8920455 C319.017614,86.59375 319.097988,86.3575994 319.258736,86.1835938 C319.419484,86.0095881 319.631605,85.8786695 319.895099,85.7908381 C320.158594,85.7030066 320.442803,85.6392045 320.747727,85.5994318 C320.873674,85.5828598 321.038565,85.5621449 321.242401,85.5372869 C321.446236,85.512429 321.6567,85.4825994 321.873793,85.4477983 C322.090885,85.4129972 322.28312,85.3715672 322.450497,85.3235085 C322.617874,85.2754498 322.72642,85.2215909 322.776136,85.1619318 L322.776136,85.1619318 L322.776136,86.2357955 C322.776136,86.5539773 322.694105,86.8572443 322.530043,87.1455966 C322.36598,87.4339489 322.124029,87.6692708 321.80419,87.8515625 C321.484351,88.0338542 321.092424,88.125 320.628409,88.125 Z M327.270455,89 L327.270455,84.1676136 C327.270455,83.8229167 327.354143,83.5155066 327.52152,83.2453835 C327.688897,82.9752604 327.91759,82.7631392 328.207599,82.6090199 C328.497609,82.4549006 328.82822,82.3778409 329.199432,82.3778409 C329.355208,82.3778409 329.503527,82.3886127 329.644389,82.4101562 C329.785251,82.4316998 329.875568,82.4474432 329.915341,82.4573864 L329.915341,82.4573864 L329.915341,81.2642045 C329.849053,81.2575758 329.751278,81.2526042 329.622017,81.2492898 C329.492756,81.2459754 329.385038,81.2443182 329.298864,81.2443182 C328.841477,81.2443182 328.430492,81.3619792 328.065909,81.5973011 C327.701326,81.8326231 327.449432,82.1392045 327.310227,82.5170455 L327.310227,82.5170455 L327.230682,82.5170455 L327.230682,81.3636364 L326.097159,81.3636364 L326.097159,89 L327.270455,89 Z" id="Comnúmeraçãotabular" fill="#000000" fill-rule="nonzero"></path>
            </g>
        </g>
    </g>
</svg>