<?xml version="1.0" encoding="UTF-8"?>
<svg width="507px" height="56px" viewBox="0 0 507 56" version="1.1" xmlns="http://www.w3.org/2000/svg" xmlns:xlink="http://www.w3.org/1999/xlink">
    <title>font-family-1</title>
    <g id="Doc_exemplos" stroke="none" stroke-width="1" fill="none" fill-rule="evenodd">
        <g id="doc-tipografia-expandido" transform="translate(-315.000000, -1013.000000)" fill="#000000" fill-rule="nonzero">
            <g id="font-family-1" transform="translate(315.000000, 1013.000000)">
                <g id="roboto" transform="translate(0.000000, 0.500000)">
                    <path d="M82.5683594,49 L83.828125,46.34375 L88.3691406,46.34375 L88.7109375,49 L92.1875,49 L89.5605469,34.78125 L86.4160156,34.78125 L78.8867188,49 L82.5683594,49 Z M88.0273438,43.6972656 L85.078125,43.6972656 L87.4023438,38.7949219 L88.0273438,43.6972656 Z M96.4160156,49.1953125 C97.4186198,49.2213542 98.28125,48.8372396 99.0039062,48.0429688 C99.0039062,48.4270833 99.0494792,48.7460938 99.140625,49 L99.140625,49 L102.265625,49 L102.275391,48.8144531 C102.125651,48.4759115 102.063802,48.0657552 102.089844,47.5839844 L102.089844,47.5839844 L102.138672,46.9785156 L102.929688,42.0078125 C103.001302,41.2721354 102.88737,40.6227214 102.587891,40.0595703 C102.288411,39.4964193 101.837565,39.0569661 101.235352,38.7412109 C100.633138,38.4254557 99.9316406,38.2578125 99.1308594,38.2382812 C98.297526,38.21875 97.5113932,38.3505859 96.7724609,38.6337891 C96.0335286,38.9169922 95.4492188,39.320638 95.0195312,39.8447266 C94.5898438,40.3688151 94.358724,40.9856771 94.3261719,41.6953125 L94.3261719,41.6953125 L97.5488281,41.6855469 C97.7115885,40.8977865 98.1445312,40.5104167 98.8476562,40.5234375 C99.4140625,40.5429688 99.7102865,40.8489583 99.7363281,41.4414062 L99.7363281,41.4414062 L99.6972656,41.9589844 L99.5800781,42.5546875 L98.5058594,42.5351562 C96.9042969,42.5351562 95.641276,42.8427734 94.7167969,43.4580078 C93.7923177,44.0732422 93.3138021,44.953776 93.28125,46.0996094 C93.2421875,46.952474 93.5253906,47.6783854 94.1308594,48.2773438 C94.7363281,48.8763021 95.4980469,49.1822917 96.4160156,49.1953125 Z M97.4673801,46.8710259 L97.3046875,46.8710938 C97.03125,46.8580729 96.8277995,46.7652995 96.6943359,46.5927734 C96.5608724,46.4202474 96.5104167,46.2005208 96.5429688,45.9335938 C96.6080729,45.4322917 96.8261719,45.0367839 97.1972656,44.7470703 C97.5683594,44.4573568 98.0110677,44.3059896 98.5253906,44.2929688 L98.5253906,44.2929688 L99.3554688,44.3027344 L99.0332031,46.0019531 C98.5384115,46.6074219 97.9622396,46.8971354 97.3046875,46.8710938 L97.4673801,46.8710259 Z" id="Aa"></path>
                    <path d="M42.7441406,49 L43.8964844,45.6894531 L49.4042969,45.6894531 L50.5664062,49 L53.1445312,49 L47.7636719,34.78125 L45.546875,34.78125 L40.1757812,49 L42.7441406,49 Z M48.7109375,43.6972656 L44.5898438,43.6972656 L46.6503906,37.7988281 L48.7109375,43.6972656 Z M57.7929688,49.1953125 C58.8867188,49.1953125 59.8111979,48.8014323 60.5664062,48.0136719 C60.6445312,48.469401 60.7356771,48.7981771 60.8398438,49 L60.8398438,49 L63.2617188,49 L63.2617188,48.8339844 C62.9947917,48.2675781 62.8613281,47.5091146 62.8613281,46.5585938 L62.8613281,46.5585938 L62.8613281,41.7929688 C62.8417969,40.6666667 62.4641927,39.7926432 61.7285156,39.1708984 C60.9928385,38.5491536 60.0065104,38.2382812 58.7695312,38.2382812 C57.9557292,38.2382812 57.2184245,38.3815104 56.5576172,38.6679688 C55.8968099,38.9544271 55.374349,39.3499349 54.9902344,39.8544922 C54.6061198,40.3590495 54.4140625,40.9010417 54.4140625,41.4804688 L54.4140625,41.4804688 L56.7871094,41.4804688 C56.7871094,41.0638021 56.9596354,40.7203776 57.3046875,40.4501953 C57.6497396,40.180013 58.0924479,40.0449219 58.6328125,40.0449219 C59.2578125,40.0449219 59.7233073,40.2093099 60.0292969,40.5380859 C60.3352865,40.866862 60.4882812,41.3046875 60.4882812,41.8515625 L60.4882812,41.8515625 L60.4882812,42.5449219 L59.0332031,42.5449219 C57.4772135,42.5449219 56.2809245,42.8460286 55.4443359,43.4482422 C54.6077474,44.0504557 54.1894531,44.9147135 54.1894531,46.0410156 C54.1894531,46.9329427 54.5247396,47.6816406 55.1953125,48.2871094 C55.8658854,48.8925781 56.7317708,49.1953125 57.7929688,49.1953125 Z M58.2324219,47.2910156 C57.7246094,47.2910156 57.3193359,47.1559245 57.0166016,46.8857422 C56.7138672,46.6155599 56.5625,46.2526042 56.5625,45.796875 C56.5625,45.2369792 56.7838542,44.8040365 57.2265625,44.4980469 C57.6692708,44.1920573 58.3300781,44.0390625 59.2089844,44.0390625 L59.2089844,44.0390625 L60.4882812,44.0390625 L60.4882812,46.03125 C60.2799479,46.4153646 59.9690755,46.7213542 59.5556641,46.9492188 C59.1422526,47.1770833 58.7011719,47.2910156 58.2324219,47.2910156 Z" id="Aa"></path>
                    <path d="M1.55273438,49 L3.01757812,45.015625 L9.47265625,45.015625 L10.9472656,49 L12.1972656,49 L6.81640625,34.78125 L5.67382812,34.78125 L0.29296875,49 L1.55273438,49 Z M9.09179688,43.9902344 L3.38867188,43.9902344 L6.24023438,36.2460938 L9.09179688,43.9902344 Z M16.875,49.1953125 C17.5846354,49.1953125 18.2568359,49.0504557 18.8916016,48.7607422 C19.5263672,48.4710286 20.0488281,48.0592448 20.4589844,47.5253906 C20.4915365,48.1764323 20.5664062,48.6679688 20.6835938,49 L20.6835938,49 L21.9335938,49 L21.9335938,48.8828125 C21.71875,48.375 21.6113281,47.610026 21.6113281,46.5878906 L21.6113281,46.5878906 L21.6113281,41.5878906 C21.5917969,40.5332031 21.241862,39.711263 20.5615234,39.1220703 C19.8811849,38.5328776 18.9518229,38.2382812 17.7734375,38.2382812 C16.6341146,38.2382812 15.6738281,38.5458984 14.8925781,39.1611328 C14.1113281,39.7763672 13.7207031,40.5039062 13.7207031,41.34375 L13.7207031,41.34375 L14.8925781,41.3535156 C14.8925781,40.7675781 15.1595052,40.266276 15.6933594,39.8496094 C16.2272135,39.4329427 16.9010417,39.2246094 17.7148438,39.2246094 C18.6067708,39.2246094 19.2854818,39.4410807 19.7509766,39.8740234 C20.2164714,40.3069661 20.4492188,40.9010417 20.4492188,41.65625 L20.4492188,41.65625 L20.4492188,42.8574219 L18.3300781,42.8574219 C16.8001302,42.8574219 15.6070964,43.156901 14.7509766,43.7558594 C13.8948568,44.3548177 13.4667969,45.1686198 13.4667969,46.1972656 C13.4667969,47.063151 13.7809245,47.7792969 14.4091797,48.3457031 C15.0374349,48.9121094 15.859375,49.1953125 16.875,49.1953125 Z M17.0117188,48.1601562 C16.3085938,48.1601562 15.7373047,47.9648438 15.2978516,47.5742188 C14.8583984,47.1835938 14.6386719,46.6920573 14.6386719,46.0996094 C14.6386719,45.3769531 14.9674479,44.8089193 15.625,44.3955078 C16.2825521,43.9820964 17.1940104,43.7688802 18.359375,43.7558594 L18.359375,43.7558594 L20.4492188,43.7558594 L20.4492188,46.0800781 C20.1692708,46.7115885 19.7216797,47.2161458 19.1064453,47.59375 C18.4912109,47.9713542 17.7929688,48.1601562 17.0117188,48.1601562 Z" id="Aa"></path>
                    <path d="M4.19921875,20 L4.19921875,14.7949219 L6.53320312,14.7949219 L9.19921875,20 L12.34375,20 L12.34375,19.8632812 L9.26757812,14.0527344 C10.1204427,13.6686198 10.7568359,13.1526693 11.1767578,12.5048828 C11.5966797,11.8570964 11.8066406,11.0481771 11.8066406,10.078125 C11.8066406,8.7109375 11.3509115,7.65299479 10.4394531,6.90429688 C9.52799479,6.15559896 8.23242188,5.78125 6.55273438,5.78125 L6.55273438,5.78125 L1.26953125,5.78125 L1.26953125,20 L4.19921875,20 Z M6.5625,12.421875 L4.19921875,12.421875 L4.19921875,8.15429688 L6.55273438,8.15429688 C7.34049479,8.15429688 7.92480469,8.34635417 8.30566406,8.73046875 C8.68652344,9.11458333 8.87695312,9.64192708 8.87695312,10.3125 C8.87695312,10.9700521 8.67513021,11.4860026 8.27148438,11.8603516 C7.86783854,12.2347005 7.29817708,12.421875 6.5625,12.421875 L6.5625,12.421875 Z M18.4179688,20.1953125 C19.9414062,20.1953125 21.155599,19.7054036 22.0605469,18.7255859 C22.9654948,17.7457682 23.4179688,16.4453125 23.4179688,14.8242188 L23.4179688,14.8242188 L23.3984375,14.1015625 C23.2942708,12.6041667 22.7913411,11.4192708 21.8896484,10.546875 C20.9879557,9.67447917 19.8242188,9.23828125 18.3984375,9.23828125 C17.3958333,9.23828125 16.5152995,9.46289062 15.7568359,9.91210938 C14.9983724,10.3613281 14.4173177,10.9960938 14.0136719,11.8164062 C13.610026,12.6367188 13.4082031,13.5709635 13.4082031,14.6191406 L13.4082031,14.6191406 L13.4082031,14.7460938 C13.4082031,16.4257812 13.8623047,17.7539062 14.7705078,18.7304688 C15.6787109,19.7070312 16.8945312,20.1953125 18.4179688,20.1953125 Z M18.4179688,17.9199219 C17.7148438,17.9199219 17.1744792,17.6546224 16.796875,17.1240234 C16.4192708,16.5934245 16.2304688,15.8268229 16.2304688,14.8242188 C16.2304688,13.6979167 16.4192708,12.8662109 16.796875,12.3291016 C17.1744792,11.7919922 17.7083333,11.5234375 18.3984375,11.5234375 C19.0950521,11.5234375 19.6354167,11.7936198 20.0195312,12.3339844 C20.4036458,12.874349 20.5957031,13.6360677 20.5957031,14.6191406 C20.5957031,15.7714844 20.4036458,16.6097005 20.0195312,17.1337891 C19.6354167,17.6578776 19.1015625,17.9199219 18.4179688,17.9199219 Z M30.5664062,20.1953125 C31.8619792,20.1953125 32.8710938,19.7216797 33.59375,18.7744141 C34.3164062,17.8271484 34.6777344,16.5071615 34.6777344,14.8144531 L34.6777344,14.8144531 L34.6777344,14.6582031 C34.6777344,12.9394531 34.3115234,11.6064453 33.5791016,10.6591797 C32.8466797,9.71191406 31.8359375,9.23828125 30.546875,9.23828125 C29.4856771,9.23828125 28.6295573,9.61914062 27.9785156,10.3808594 L27.9785156,10.3808594 L27.9785156,5 L25.15625,5 L25.15625,20 L27.6953125,20 L27.8222656,18.8769531 C28.5058594,19.7558594 29.4205729,20.1953125 30.5664062,20.1953125 Z M29.8535156,17.9199219 C28.9485677,17.9199219 28.3235677,17.5488281 27.9785156,16.8066406 L27.9785156,16.8066406 L27.9785156,12.6367188 C28.3170573,11.9010417 28.9355469,11.5332031 29.8339844,11.5332031 C30.5045573,11.5332031 31.0091146,11.7789714 31.3476562,12.2705078 C31.6861979,12.7620443 31.8554688,13.5416667 31.8554688,14.609375 C31.8554688,15.4882812 31.7871094,16.1425781 31.6503906,16.5722656 C31.3639323,17.4707031 30.764974,17.9199219 29.8535156,17.9199219 Z M40.9863281,20.1953125 C42.5097656,20.1953125 43.7239583,19.7054036 44.6289062,18.7255859 C45.5338542,17.7457682 45.9863281,16.4453125 45.9863281,14.8242188 L45.9863281,14.8242188 L45.9667969,14.1015625 C45.8626302,12.6041667 45.3597005,11.4192708 44.4580078,10.546875 C43.5563151,9.67447917 42.3925781,9.23828125 40.9667969,9.23828125 C39.9641927,9.23828125 39.0836589,9.46289062 38.3251953,9.91210938 C37.5667318,10.3613281 36.9856771,10.9960938 36.5820312,11.8164062 C36.1783854,12.6367188 35.9765625,13.5709635 35.9765625,14.6191406 L35.9765625,14.6191406 L35.9765625,14.7460938 C35.9765625,16.4257812 36.4306641,17.7539062 37.3388672,18.7304688 C38.2470703,19.7070312 39.4628906,20.1953125 40.9863281,20.1953125 Z M40.9863281,17.9199219 C40.2832031,17.9199219 39.7428385,17.6546224 39.3652344,17.1240234 C38.9876302,16.5934245 38.7988281,15.8268229 38.7988281,14.8242188 C38.7988281,13.6979167 38.9876302,12.8662109 39.3652344,12.3291016 C39.7428385,11.7919922 40.2766927,11.5234375 40.9667969,11.5234375 C41.6634115,11.5234375 42.203776,11.7936198 42.5878906,12.3339844 C42.9720052,12.874349 43.1640625,13.6360677 43.1640625,14.6191406 C43.1640625,15.7714844 42.9720052,16.6097005 42.5878906,17.1337891 C42.203776,17.6578776 41.6699219,17.9199219 40.9863281,17.9199219 Z M51.3085938,20.1953125 C51.8945312,20.1953125 52.4641927,20.1106771 53.0175781,19.9414062 L53.0175781,19.9414062 L53.0175781,17.8027344 C52.7766927,17.8483073 52.5,17.8710938 52.1875,17.8710938 C51.7643229,17.8710938 51.4778646,17.7864583 51.328125,17.6171875 C51.1783854,17.4479167 51.1035156,17.1679688 51.1035156,16.7773438 L51.1035156,16.7773438 L51.1035156,11.5039062 L52.9101562,11.5039062 L52.9101562,9.43359375 L51.1035156,9.43359375 L51.1035156,6.8359375 L48.28125,6.8359375 L48.28125,9.43359375 L46.7382812,9.43359375 L46.7382812,11.5039062 L48.28125,11.5039062 L48.28125,17.1972656 C48.3203125,19.1959635 49.3294271,20.1953125 51.3085938,20.1953125 Z M58.7597656,20.1953125 C60.2832031,20.1953125 61.4973958,19.7054036 62.4023438,18.7255859 C63.3072917,17.7457682 63.7597656,16.4453125 63.7597656,14.8242188 L63.7597656,14.8242188 L63.7402344,14.1015625 C63.6360677,12.6041667 63.133138,11.4192708 62.2314453,10.546875 C61.3297526,9.67447917 60.1660156,9.23828125 58.7402344,9.23828125 C57.7376302,9.23828125 56.8570964,9.46289062 56.0986328,9.91210938 C55.3401693,10.3613281 54.7591146,10.9960938 54.3554688,11.8164062 C53.9518229,12.6367188 53.75,13.5709635 53.75,14.6191406 L53.75,14.6191406 L53.75,14.7460938 C53.75,16.4257812 54.2041016,17.7539062 55.1123047,18.7304688 C56.0205078,19.7070312 57.2363281,20.1953125 58.7597656,20.1953125 Z M58.7597656,17.9199219 C58.0566406,17.9199219 57.516276,17.6546224 57.1386719,17.1240234 C56.7610677,16.5934245 56.5722656,15.8268229 56.5722656,14.8242188 C56.5722656,13.6979167 56.7610677,12.8662109 57.1386719,12.3291016 C57.516276,11.7919922 58.0501302,11.5234375 58.7402344,11.5234375 C59.436849,11.5234375 59.9772135,11.7936198 60.3613281,12.3339844 C60.7454427,12.874349 60.9375,13.6360677 60.9375,14.6191406 C60.9375,15.7714844 60.7454427,16.6097005 60.3613281,17.1337891 C59.9772135,17.6578776 59.4433594,17.9199219 58.7597656,17.9199219 Z" id="Roboto"></path>
                </g>
                <g id="montserrat" transform="translate(168.000000, 0.500000)">
                    <path d="M83.5,49 L84.9,46.56 L90.24,46.56 L90.7,49 L95.4,49 L92.08,35 L87.44,35 L78.52,49 L83.5,49 Z M89.58,43.16 L86.84,43.16 L88.9,39.58 L89.58,43.16 Z M100.92,49.2 C102.066667,49.2 103.053333,48.8 103.88,48 L103.88,48 L103.68,49 L107.94,49 L110.12,38.06 L105.6,38.06 L105.36,39.22 C104.746667,38.3133333 103.706667,37.86 102.24,37.86 C101.2,37.86 100.233333,38.1333333 99.34,38.68 C98.4466667,39.2266667 97.7366667,39.98 97.21,40.94 C96.6833333,41.9 96.42,42.9666667 96.42,44.14 C96.42,45.18 96.6366667,46.0833333 97.07,46.85 C97.5033333,47.6166667 98.0666667,48.2 98.76,48.6 C99.4533333,49 100.173333,49.2 100.92,49.2 Z M102.62,45.64 C102.113333,45.64 101.716667,45.4833333 101.43,45.17 C101.143333,44.8566667 101,44.44 101,43.92 C101,43.16 101.183333,42.5533333 101.55,42.1 C101.916667,41.6466667 102.393333,41.42 102.98,41.42 C103.486667,41.42 103.883333,41.5766667 104.17,41.89 C104.456667,42.2033333 104.6,42.62 104.6,43.14 C104.6,43.9 104.416667,44.5066667 104.05,44.96 C103.683333,45.4133333 103.206667,45.64 102.62,45.64 Z" id="Aa"></path>
                    <path d="M42.04,49 L43.58,45.5 L51.02,45.5 L52.56,49 L54.66,49 L48.3,35 L46.32,35 L39.98,49 L42.04,49 Z M50.32,43.9 L44.28,43.9 L47.3,37.04 L50.32,43.9 Z M59.56,49.12 C60.3733333,49.12 61.0766667,48.99 61.67,48.73 C62.2633333,48.47 62.72,48.0933333 63.04,47.6 L63.04,47.6 L63.04,49 L64.86,49 L64.86,42.6 C64.86,41.1733333 64.47,40.1 63.69,39.38 C62.91,38.66 61.7866667,38.3 60.32,38.3 C59.4666667,38.3 58.66,38.4166667 57.9,38.65 C57.14,38.8833333 56.4866667,39.22 55.94,39.66 L55.94,39.66 L56.74,41.1 C57.1533333,40.7533333 57.66,40.4766667 58.26,40.27 C58.86,40.0633333 59.4733333,39.96 60.1,39.96 C61.0333333,39.96 61.74,40.18 62.22,40.62 C62.7,41.06 62.94,41.6933333 62.94,42.52 L62.94,42.52 L62.94,42.9 L59.9,42.9 C58.42,42.9 57.34,43.1833333 56.66,43.75 C55.98,44.3166667 55.64,45.0666667 55.64,46 C55.64,46.9333333 55.9966667,47.6866667 56.71,48.26 C57.4233333,48.8333333 58.3733333,49.12 59.56,49.12 Z M59.88,47.64 C59.1466667,47.64 58.5733333,47.4866667 58.16,47.18 C57.7466667,46.8733333 57.54,46.4533333 57.54,45.92 C57.54,44.8266667 58.3533333,44.28 59.98,44.28 L59.98,44.28 L62.94,44.28 L62.94,45.76 C62.7,46.36 62.3133333,46.8233333 61.78,47.15 C61.2466667,47.4766667 60.6133333,47.64 59.88,47.64 Z" id="Aa"></path>
                    <path d="M1.2,49 L2.98,45.06 L11.1,45.06 L12.9,49 L14,49 L7.56,35 L6.54,35 L0.1,49 L1.2,49 Z M10.72,44.2 L3.38,44.2 L7.04,36.12 L10.72,44.2 Z M19.04,49.08 C19.9333333,49.08 20.7,48.91 21.34,48.57 C21.98,48.23 22.4666667,47.7533333 22.8,47.14 L22.8,47.14 L22.8,49 L23.76,49 L23.76,42.38 C23.76,41.1 23.4133333,40.13 22.72,39.47 C22.0266667,38.81 21.0333333,38.48 19.74,38.48 C18.94,38.48 18.1733333,38.61 17.44,38.87 C16.7066667,39.13 16.08,39.4933333 15.56,39.96 L15.56,39.96 L16.06,40.68 C16.5,40.28 17.0366667,39.96 17.67,39.72 C18.3033333,39.48 18.9666667,39.36 19.66,39.36 C20.6733333,39.36 21.4433333,39.6133333 21.97,40.12 C22.4966667,40.6266667 22.76,41.3666667 22.76,42.34 L22.76,42.34 L22.76,43.18 L19.18,43.18 C17.82,43.18 16.83,43.45 16.21,43.99 C15.59,44.53 15.28,45.2333333 15.28,46.1 C15.28,46.9933333 15.6166667,47.7133333 16.29,48.26 C16.9633333,48.8066667 17.88,49.08 19.04,49.08 Z M19.18,48.26 C18.26,48.26 17.5466667,48.0633333 17.04,47.67 C16.5333333,47.2766667 16.28,46.74 16.28,46.06 C16.28,45.4066667 16.51,44.8933333 16.97,44.52 C17.43,44.1466667 18.1733333,43.96 19.2,43.96 L19.2,43.96 L22.76,43.96 L22.76,45.92 C22.4533333,46.68 21.9966667,47.26 21.39,47.66 C20.7833333,48.06 20.0466667,48.26 19.18,48.26 Z" id="Aa"></path>
                    <path d="M4.7,20 L4.7,11.78 L8.8,18.52 L10.26,18.52 L14.38,11.6 L14.4,20 L17.44,20 L17.4,6 L14.74,6 L9.58,14.7 L4.34,6 L1.66,6 L1.66,20 L4.7,20 Z M25.66,20.16 C26.7933333,20.16 27.8066667,19.9233333 28.7,19.45 C29.5933333,18.9766667 30.2933333,18.32 30.8,17.48 C31.3066667,16.64 31.56,15.6866667 31.56,14.62 C31.56,13.5533333 31.3066667,12.6 30.8,11.76 C30.2933333,10.92 29.5933333,10.2633333 28.7,9.79 C27.8066667,9.31666667 26.7933333,9.08 25.66,9.08 C24.5266667,9.08 23.51,9.31666667 22.61,9.79 C21.71,10.2633333 21.0066667,10.92 20.5,11.76 C19.9933333,12.6 19.74,13.5533333 19.74,14.62 C19.74,15.6866667 19.9933333,16.64 20.5,17.48 C21.0066667,18.32 21.71,18.9766667 22.61,19.45 C23.51,19.9233333 24.5266667,20.16 25.66,20.16 Z M25.66,17.6 C24.86,17.6 24.2,17.33 23.68,16.79 C23.16,16.25 22.9,15.5266667 22.9,14.62 C22.9,13.7133333 23.16,12.99 23.68,12.45 C24.2,11.91 24.86,11.64 25.66,11.64 C26.46,11.64 27.1166667,11.91 27.63,12.45 C28.1433333,12.99 28.4,13.7133333 28.4,14.62 C28.4,15.5266667 28.1433333,16.25 27.63,16.79 C27.1166667,17.33 26.46,17.6 25.66,17.6 Z M36.76,20 L36.76,14.68 C36.76,13.72 36.9933333,12.9966667 37.46,12.51 C37.9266667,12.0233333 38.5533333,11.78 39.34,11.78 C40.0466667,11.78 40.5866667,11.99 40.96,12.41 C41.3333333,12.83 41.52,13.4666667 41.52,14.32 L41.52,14.32 L41.52,20 L44.64,20 L44.64,13.84 C44.64,12.2666667 44.23,11.08 43.41,10.28 C42.59,9.48 41.5133333,9.08 40.18,9.08 C39.4466667,9.08 38.7733333,9.20333333 38.16,9.45 C37.5466667,9.69666667 37.0333333,10.0466667 36.62,10.5 L36.62,10.5 L36.62,9.24 L33.64,9.24 L33.64,20 L36.76,20 Z M51.86,20.16 C52.3533333,20.16 52.8233333,20.1033333 53.27,19.99 C53.7166667,19.8766667 54.0933333,19.7066667 54.4,19.48 L54.4,19.48 L53.56,17.28 C53.2133333,17.5466667 52.7933333,17.68 52.3,17.68 C51.8733333,17.68 51.5433333,17.5566667 51.31,17.31 C51.0766667,17.0633333 50.96,16.7133333 50.96,16.26 L50.96,16.26 L50.96,11.88 L53.64,11.88 L53.64,9.48 L50.96,9.48 L50.96,6.86 L47.84,6.86 L47.84,9.48 L46.18,9.48 L46.18,11.88 L47.84,11.88 L47.84,16.3 C47.84,17.5666667 48.19,18.5266667 48.89,19.18 C49.59,19.8333333 50.58,20.16 51.86,20.16 Z M59.78,20.16 C60.8333333,20.16 61.7433333,20.0166667 62.51,19.73 C63.2766667,19.4433333 63.86,19.04 64.26,18.52 C64.66,18 64.86,17.4066667 64.86,16.74 C64.86,15.9533333 64.6533333,15.34 64.24,14.9 C63.8266667,14.46 63.34,14.1566667 62.78,13.99 C62.22,13.8233333 61.5,13.6666667 60.62,13.52 C59.8333333,13.4 59.26,13.2733333 58.9,13.14 C58.54,13.0066667 58.36,12.7733333 58.36,12.44 C58.36,12.1466667 58.5266667,11.9066667 58.86,11.72 C59.1933333,11.5333333 59.6933333,11.44 60.36,11.44 C61.48,11.44 62.5133333,11.7066667 63.46,12.24 L63.46,12.24 L64.5,10.02 C64.0066667,9.72666667 63.3833333,9.49666667 62.63,9.33 C61.8766667,9.16333333 61.12,9.08 60.36,9.08 C59.3333333,9.08 58.4433333,9.22666667 57.69,9.52 C56.9366667,9.81333333 56.3633333,10.2233333 55.97,10.75 C55.5766667,11.2766667 55.38,11.88 55.38,12.56 C55.38,13.3733333 55.59,14 56.01,14.44 C56.43,14.88 56.9266667,15.1866667 57.5,15.36 C58.0733333,15.5333333 58.8,15.6866667 59.68,15.82 C60.4266667,15.9133333 60.98,16.0266667 61.34,16.16 C61.7,16.2933333 61.88,16.5133333 61.88,16.82 C61.88,17.4733333 61.22,17.8 59.9,17.8 C59.2466667,17.8 58.58,17.7033333 57.9,17.51 C57.22,17.3166667 56.64,17.0666667 56.16,16.76 L56.16,16.76 L55.12,19 C55.6266667,19.3333333 56.3066667,19.61 57.16,19.83 C58.0133333,20.05 58.8866667,20.16 59.78,20.16 Z M72.12,20.16 C74.0666667,20.16 75.5466667,19.58 76.56,18.42 L76.56,18.42 L74.9,16.62 C74.5266667,16.98 74.1233333,17.2433333 73.69,17.41 C73.2566667,17.5766667 72.76,17.66 72.2,17.66 C71.3866667,17.66 70.7066667,17.4666667 70.16,17.08 C69.6133333,16.6933333 69.2666667,16.1666667 69.12,15.5 L69.12,15.5 L77.26,15.5 C77.3,14.98 77.32,14.7 77.32,14.66 C77.32,13.54 77.0766667,12.5566667 76.59,11.71 C76.1033333,10.8633333 75.4333333,10.2133333 74.58,9.76 C73.7266667,9.30666667 72.7733333,9.08 71.72,9.08 C70.64,9.08 69.6633333,9.31666667 68.79,9.79 C67.9166667,10.2633333 67.23,10.9233333 66.73,11.77 C66.23,12.6166667 65.98,13.5666667 65.98,14.62 C65.98,15.6866667 66.2333333,16.64 66.74,17.48 C67.2466667,18.32 67.9666667,18.9766667 68.9,19.45 C69.8333333,19.9233333 70.9066667,20.16 72.12,20.16 Z M74.38,13.68 L69.08,13.68 C69.1866667,12.9866667 69.48,12.44 69.96,12.04 C70.44,11.64 71.0333333,11.44 71.74,11.44 C72.4333333,11.44 73.02,11.6433333 73.5,12.05 C73.98,12.4566667 74.2733333,13 74.38,13.68 L74.38,13.68 Z M82.52,20 L82.52,14.92 C82.52,13.92 82.7733333,13.17 83.28,12.67 C83.7866667,12.17 84.4866667,11.92 85.38,11.92 C85.5,11.92 85.7333333,11.9333333 86.08,11.96 L86.08,11.96 L86.08,9.08 C85.2533333,9.08 84.5233333,9.21333333 83.89,9.48 C83.2566667,9.74666667 82.7533333,10.14 82.38,10.66 L82.38,10.66 L82.38,9.24 L79.4,9.24 L79.4,20 L82.52,20 Z M91.06,20 L91.06,14.92 C91.06,13.92 91.3133333,13.17 91.82,12.67 C92.3266667,12.17 93.0266667,11.92 93.92,11.92 C94.04,11.92 94.2733333,11.9333333 94.62,11.96 L94.62,11.96 L94.62,9.08 C93.7933333,9.08 93.0633333,9.21333333 92.43,9.48 C91.7966667,9.74666667 91.2933333,10.14 90.92,10.66 L90.92,10.66 L90.92,9.24 L87.94,9.24 L87.94,20 L91.06,20 Z M99.74,20.16 C101.34,20.16 102.433333,19.66 103.02,18.66 L103.02,18.66 L103.02,20 L105.94,20 L105.94,13.86 C105.94,12.26 105.493333,11.0633333 104.6,10.27 C103.706667,9.47666667 102.426667,9.08 100.76,9.08 C99.8933333,9.08 99.05,9.19333333 98.23,9.42 C97.41,9.64666667 96.7066667,9.96666667 96.12,10.38 L96.12,10.38 L97.24,12.56 C97.6266667,12.2533333 98.0966667,12.01 98.65,11.83 C99.2033333,11.65 99.7666667,11.56 100.34,11.56 C101.166667,11.56 101.786667,11.7433333 102.2,12.11 C102.613333,12.4766667 102.82,13 102.82,13.68 L102.82,13.68 L100.34,13.68 C98.7666667,13.68 97.6033333,13.9666667 96.85,14.54 C96.0966667,15.1133333 95.72,15.9 95.72,16.9 C95.72,17.5266667 95.88,18.0866667 96.2,18.58 C96.52,19.0733333 96.9833333,19.46 97.59,19.74 C98.1966667,20.02 98.9133333,20.16 99.74,20.16 Z M100.52,18.06 C99.9733333,18.06 99.5433333,17.9433333 99.23,17.71 C98.9166667,17.4766667 98.76,17.16 98.76,16.76 C98.76,15.92 99.4,15.5 100.68,15.5 L100.68,15.5 L102.82,15.5 L102.82,16.6 C102.646667,17.08 102.353333,17.4433333 101.94,17.69 C101.526667,17.9366667 101.053333,18.06 100.52,18.06 Z M113.16,20.16 C113.653333,20.16 114.123333,20.1033333 114.57,19.99 C115.016667,19.8766667 115.393333,19.7066667 115.7,19.48 L115.7,19.48 L114.86,17.28 C114.513333,17.5466667 114.093333,17.68 113.6,17.68 C113.173333,17.68 112.843333,17.5566667 112.61,17.31 C112.376667,17.0633333 112.26,16.7133333 112.26,16.26 L112.26,16.26 L112.26,11.88 L114.94,11.88 L114.94,9.48 L112.26,9.48 L112.26,6.86 L109.14,6.86 L109.14,9.48 L107.48,9.48 L107.48,11.88 L109.14,11.88 L109.14,16.3 C109.14,17.5666667 109.49,18.5266667 110.19,19.18 C110.89,19.8333333 111.88,20.16 113.16,20.16 Z" id="Montserrat"></path>
                </g>
                <g id="Group" transform="translate(341.000000, 0.000000)">
                    <path d="M82.8222656,50 L82.8222656,49.6386719 C82.438151,49.6191406 82.1630859,49.5426432 81.9970703,49.4091797 C81.8310547,49.2757161 81.7480469,49.1308594 81.7480469,48.9746094 C81.7480469,48.8248698 81.780599,48.6751302 81.8457031,48.5253906 C81.9303385,48.3300781 82.0638021,48.1119792 82.2460938,47.8710938 L82.2460938,47.8710938 L83.1835938,46.7480469 L84.0039062,45.7324219 L88.1054688,45.7324219 L88.0175781,47.421875 C87.985026,48.1380208 87.8938802,48.6409505 87.7441406,48.9306641 C87.594401,49.2203776 87.4283854,49.4108073 87.2460938,49.5019531 C87.1614583,49.5410156 86.8359375,49.5865885 86.2695312,49.6386719 L86.2695312,49.6386719 L86.1621094,50 L91.8945312,50 L91.9921875,49.6386719 C91.5755208,49.6061198 91.2776693,49.4889323 91.0986328,49.2871094 C90.9195964,49.0852865 90.8300781,48.7630208 90.8300781,48.3203125 C90.8300781,48.203125 90.8398438,47.8613281 90.859375,47.2949219 L90.859375,47.2949219 L91.2988281,36.4550781 L90.859375,36.4550781 L81.4746094,47.65625 C80.7910156,48.4700521 80.2669271,49.0071615 79.9023438,49.2675781 C79.6289062,49.4563802 79.3164062,49.5800781 78.9648438,49.6386719 L78.9648438,49.6386719 L78.8671875,50 L82.8222656,50 Z M88.1054688,44.9316406 L84.6777344,44.9316406 L88.359375,40.6152344 L88.1054688,44.9316406 Z M99.4921875,50.2734375 C100.097656,50.2734375 100.662435,50.0797526 101.186523,49.6923828 C101.710612,49.305013 102.203776,48.688151 102.666016,47.8417969 L102.666016,47.8417969 L102.324219,47.6660156 C101.953125,48.1803385 101.71875,48.4798177 101.621094,48.5644531 C101.380208,48.7727865 101.191406,48.8769531 101.054688,48.8769531 C100.996094,48.8769531 100.939128,48.8476562 100.883789,48.7890625 C100.828451,48.7304688 100.800781,48.6621094 100.800781,48.5839844 C100.800781,48.5384115 100.810547,48.4667969 100.830078,48.3691406 L100.830078,48.3691406 L101.025391,47.578125 L102.919922,41.0839844 L100.605469,41.2207031 L100.253906,42.421875 C100.14974,41.8619792 99.9869792,41.476237 99.765625,41.2646484 C99.5442708,41.0530599 99.2513021,40.9472656 98.8867188,40.9472656 C98.2291667,40.9472656 97.5260417,41.2467448 96.7773438,41.8457031 C95.8658854,42.5683594 95.1302083,43.523763 94.5703125,44.7119141 C94.0104167,45.9000651 93.7304688,46.953125 93.7304688,47.8710938 C93.7304688,48.4895833 93.8639323,49.0445964 94.1308594,49.5361328 C94.3977865,50.0276693 94.8307292,50.2734375 95.4296875,50.2734375 C95.8854167,50.2734375 96.3151042,50.1171875 96.71875,49.8046875 C97.4153646,49.2643229 98.141276,48.3463542 98.8964844,47.0507812 L98.8964844,47.0507812 L98.6621094,47.8417969 C98.453776,48.531901 98.3496094,49.0039062 98.3496094,49.2578125 C98.3496094,49.5507812 98.4472656,49.7932943 98.6425781,49.9853516 C98.8378906,50.1774089 99.1210938,50.2734375 99.4921875,50.2734375 Z M96.8261719,48.4765625 C96.6894531,48.4765625 96.5641276,48.4000651 96.4501953,48.2470703 C96.336263,48.0940755 96.2792969,47.8450521 96.2792969,47.5 C96.2792969,46.6015625 96.5315755,45.5354818 97.0361328,44.3017578 C97.5406901,43.0680339 98.0110677,42.249349 98.4472656,41.8457031 C98.6621094,41.6503906 98.8704427,41.5527344 99.0722656,41.5527344 C99.2740885,41.5527344 99.4335938,41.6341146 99.5507812,41.796875 C99.7135417,42.03125 99.7949219,42.4121094 99.7949219,42.9394531 C99.7949219,43.889974 99.4889323,44.9772135 98.8769531,46.2011719 C98.531901,46.8977865 98.1445312,47.4869792 97.7148438,47.96875 C97.4153646,48.3072917 97.1191406,48.4765625 96.8261719,48.4765625 Z" id="Aa"></path>
                    <path d="M44.5605469,50 L44.5605469,49.6386719 C43.8704427,49.5865885 43.4375,49.5084635 43.2617188,49.4042969 C42.9622396,49.2285156 42.8125,48.9550781 42.8125,48.5839844 C42.8125,48.3040365 42.9036458,47.9492188 43.0859375,47.5195312 L43.0859375,47.5195312 L43.6425781,46.2304688 L48.3203125,46.2304688 L49.0234375,47.8808594 C49.2057292,48.3105469 49.3033854,48.5546875 49.3164062,48.6132812 C49.3554688,48.7369792 49.375,48.8574219 49.375,48.9746094 C49.375,49.1699219 49.3033854,49.3196615 49.1601562,49.4238281 C48.9518229,49.5670573 48.5904948,49.6386719 48.0761719,49.6386719 L48.0761719,49.6386719 L47.8125,49.6386719 L47.8125,50 L54.21875,50 L54.21875,49.6386719 C53.8151042,49.6061198 53.5026042,49.4889323 53.28125,49.2871094 C52.9882812,49.0201823 52.6139323,48.3723958 52.1582031,47.34375 L52.1582031,47.34375 L47.3828125,36.484375 L47.1972656,36.484375 L42.4609375,47.0507812 C42.0117188,48.0598958 41.6341146,48.7255859 41.328125,49.0478516 C41.0221354,49.3701172 40.6315104,49.5670573 40.15625,49.6386719 L40.15625,49.6386719 L40.15625,50 L44.5605469,50 Z M47.9882812,45.5078125 L43.984375,45.5078125 L46.015625,40.9472656 L47.9882812,45.5078125 Z M61.9140625,50.1269531 C62.3567708,50.1269531 62.7522786,50.0179036 63.1005859,49.7998047 C63.4488932,49.5817057 63.7858073,49.2317708 64.1113281,48.75 L64.1113281,48.75 L63.8183594,48.515625 C63.6425781,48.7565104 63.4700521,48.8769531 63.3007812,48.8769531 C63.2161458,48.8769531 63.141276,48.8509115 63.0761719,48.7988281 C63.0110677,48.7467448 62.9622396,48.6669922 62.9296875,48.5595703 C62.8971354,48.4521484 62.8808594,48.1901042 62.8808594,47.7734375 L62.8808594,47.7734375 L62.8808594,44.2285156 C62.8808594,43.2454427 62.8352865,42.6171875 62.7441406,42.34375 C62.594401,41.9140625 62.2672526,41.5152995 61.7626953,41.1474609 C61.258138,40.7796224 60.5729167,40.5957031 59.7070312,40.5957031 C58.9908854,40.5957031 58.3007812,40.7096354 57.6367188,40.9375 C56.9726562,41.1653646 56.4550781,41.492513 56.0839844,41.9189453 C55.7128906,42.3453776 55.5273438,42.7929688 55.5273438,43.2617188 C55.5273438,43.59375 55.6656901,43.8834635 55.9423828,44.1308594 C56.2190755,44.3782552 56.5625,44.5019531 56.9726562,44.5019531 C57.3567708,44.5019531 57.6676432,44.3896484 57.9052734,44.1650391 C58.1429036,43.9404297 58.2617188,43.6686198 58.2617188,43.3496094 C58.2617188,43.0891927 58.1380208,42.8190104 57.890625,42.5390625 C57.7083333,42.3372396 57.6171875,42.1679688 57.6171875,42.03125 C57.6171875,41.875 57.7018229,41.7382812 57.8710938,41.6210938 C58.1445312,41.4322917 58.4928385,41.3378906 58.9160156,41.3378906 C59.1764323,41.3378906 59.4108073,41.4046224 59.6191406,41.5380859 C59.827474,41.6715495 59.9690755,41.8277995 60.0439453,42.0068359 C60.1188151,42.1858724 60.15625,42.6204427 60.15625,43.3105469 L60.15625,43.3105469 L60.15625,44.2285156 C58.1445312,45.1529948 56.8391927,45.8935547 56.2402344,46.4501953 C55.641276,47.0068359 55.3417969,47.6334635 55.3417969,48.3300781 C55.3417969,48.844401 55.5143229,49.2724609 55.859375,49.6142578 C56.2044271,49.9560547 56.6373698,50.1269531 57.1582031,50.1269531 C58.0436198,50.1269531 59.0429688,49.6354167 60.15625,48.6523438 C60.2213542,49.1471354 60.4003906,49.5166016 60.6933594,49.7607422 C60.9863281,50.0048828 61.3932292,50.1269531 61.9140625,50.1269531 Z M59.0234375,48.4863281 C58.7304688,48.4863281 58.5026042,48.3984375 58.3398438,48.2226562 C58.125,47.9947917 58.0175781,47.7311198 58.0175781,47.4316406 C58.0175781,47.0735677 58.1445312,46.71875 58.3984375,46.3671875 C58.7825521,45.8398438 59.3684896,45.3450521 60.15625,44.8828125 L60.15625,44.8828125 L60.15625,47.9394531 C59.7265625,48.3040365 59.3489583,48.4863281 59.0234375,48.4863281 Z" id="Aa"></path>
                    <path d="M4.32617188,50 L4.32617188,49.6386719 C3.68815104,49.593099 3.27311198,49.4938151 3.08105469,49.3408203 C2.8889974,49.1878255 2.79296875,49.0104167 2.79296875,48.8085938 C2.79296875,48.5546875 2.90364583,48.1705729 3.125,47.65625 L3.125,47.65625 L4.0234375,45.5664062 L9.15039062,45.5664062 L9.95117188,47.4707031 C10.2115885,48.0891927 10.3417969,48.5416667 10.3417969,48.828125 C10.3417969,49.0429688 10.2490234,49.2252604 10.0634766,49.375 C9.87792969,49.5247396 9.52148438,49.6126302 8.99414062,49.6386719 L8.99414062,49.6386719 L8.99414062,50 L14.21875,50 L14.21875,49.6386719 C13.6783854,49.6061198 13.2568359,49.4580078 12.9541016,49.1943359 C12.6513672,48.9306641 12.3144531,48.3561198 11.9433594,47.4707031 L11.9433594,47.4707031 L7.33398437,36.4550781 L6.9921875,36.4550781 L2.33398438,47.3535156 C1.93033854,48.3105469 1.5625,48.9453125 1.23046875,49.2578125 C1.06770833,49.4140625 0.709635417,49.5410156 0.15625,49.6386719 L0.15625,49.6386719 L0.15625,50 L4.32617188,50 Z M8.87695312,44.84375 L4.32617188,44.84375 L6.63085938,39.4921875 L8.87695312,44.84375 Z M17.2851562,50.1855469 C17.6822917,50.1855469 18.0566406,50.1041667 18.4082031,49.9414062 C18.6425781,49.8307292 19.21875,49.4205729 20.1367188,48.7109375 C20.1432292,49.2447917 20.2408854,49.6223958 20.4296875,49.84375 C20.6184896,50.0651042 20.8723958,50.1757812 21.1914062,50.1757812 C21.8554688,50.1757812 22.5520833,49.6875 23.28125,48.7109375 L23.28125,48.7109375 L23.28125,48.1640625 C22.890625,48.5546875 22.6269531,48.7923177 22.4902344,48.8769531 C22.4121094,48.922526 22.3209635,48.9453125 22.2167969,48.9453125 C22.1191406,48.9453125 22.0328776,48.9127604 21.9580078,48.8476562 C21.883138,48.7825521 21.8294271,48.6539714 21.796875,48.4619141 C21.7643229,48.2698568 21.7480469,47.7473958 21.7480469,46.8945312 L21.7480469,43.8574219 C21.7480469,42.9915365 21.6894531,42.4186198 21.5722656,42.1386719 C21.389974,41.7089844 21.1067708,41.3932292 20.7226562,41.1914062 C20.2148438,40.9244792 19.5638021,40.7910156 18.7695312,40.7910156 C17.734375,40.7910156 16.9303385,41.0253906 16.3574219,41.4941406 C15.7845052,41.9628906 15.4980469,42.4772135 15.4980469,43.0371094 C15.4980469,43.3300781 15.5745443,43.5611979 15.7275391,43.7304688 C15.8805339,43.8997396 16.077474,43.984375 16.3183594,43.984375 C16.5657552,43.984375 16.7659505,43.9029948 16.9189453,43.7402344 C17.0719401,43.577474 17.1484375,43.3463542 17.1484375,43.046875 L17.1484375,43.046875 L17.1289062,42.4804688 C17.1289062,42.1940104 17.2526042,41.9401042 17.5,41.71875 C17.7408854,41.4973958 18.0664062,41.3867188 18.4765625,41.3867188 C19.0169271,41.3867188 19.4287109,41.5527344 19.7119141,41.8847656 C19.9951172,42.2167969 20.1367188,42.828776 20.1367188,43.7207031 L20.1367188,43.7207031 L20.1367188,44.0722656 C18.6002604,44.6321615 17.5016276,45.1074219 16.8408203,45.4980469 C16.180013,45.8886719 15.7161458,46.3053385 15.4492188,46.7480469 C15.2539062,47.0670573 15.15625,47.4446615 15.15625,47.8808594 C15.15625,48.5709635 15.3564453,49.1276042 15.7568359,49.5507812 C16.1572266,49.9739583 16.6666667,50.1855469 17.2851562,50.1855469 Z M18.1835938,49.0527344 C17.8190104,49.0527344 17.4967448,48.898112 17.2167969,48.5888672 C16.936849,48.2796224 16.796875,47.890625 16.796875,47.421875 C16.796875,47.0507812 16.9075521,46.7089844 17.1289062,46.3964844 C17.3502604,46.0839844 17.718099,45.7845052 18.2324219,45.4980469 C18.5188802,45.3352865 19.1536458,45.0585938 20.1367188,44.6679688 L20.1367188,44.6679688 L20.1367188,48.0761719 C19.3294271,48.7272135 18.6783854,49.0527344 18.1835938,49.0527344 Z" id="Aa"></path>
                    <path d="M10.1269531,21 L10.1269531,20.6386719 L9.6875,20.6386719 C9.30989583,20.6386719 9.01204427,20.5751953 8.79394531,20.4482422 C8.57584635,20.3212891 8.42936198,20.1731771 8.35449219,20.0039062 C8.2796224,19.8346354 8.2421875,19.4114583 8.2421875,18.734375 L8.2421875,18.734375 L8.2421875,8.51953125 L9.22851562,8.51953125 C9.84700521,8.51953125 10.2799479,8.578125 10.5273438,8.6953125 C10.9700521,8.91015625 11.3183594,9.19824219 11.5722656,9.55957031 C11.8261719,9.92089844 12.0572917,10.514974 12.265625,11.3417969 L12.265625,11.3417969 L12.6171875,11.3417969 L12.6171875,7.7578125 L0.72265625,7.7578125 L0.72265625,11.3417969 L1.09375,11.3417969 C1.24348958,10.3652344 1.6015625,9.61328125 2.16796875,9.0859375 C2.57161458,8.70833333 3.21940104,8.51953125 4.11132812,8.51953125 L4.11132812,8.51953125 L5.06835938,8.51953125 L5.06835938,18.734375 C5.06835938,19.3984375 5.03255208,19.8085938 4.9609375,19.9648438 C4.86328125,20.1861979 4.72981771,20.3424479 4.56054688,20.4335938 C4.32617188,20.5703125 4.01692708,20.6386719 3.6328125,20.6386719 L3.6328125,20.6386719 L3.19335938,20.6386719 L3.19335938,21 L10.1269531,21 Z M15.8496094,10.4628906 C16.266276,10.4628906 16.6227214,10.3164062 16.9189453,10.0234375 C17.2151693,9.73046875 17.3632812,9.37565104 17.3632812,8.95898438 C17.3632812,8.54231771 17.2167969,8.1858724 16.9238281,7.88964844 C16.6308594,7.59342448 16.2727865,7.4453125 15.8496094,7.4453125 C15.4329427,7.4453125 15.078125,7.59342448 14.7851562,7.88964844 C14.4921875,8.1858724 14.3457031,8.54231771 14.3457031,8.95898438 C14.3457031,9.37565104 14.4921875,9.73046875 14.7851562,10.0234375 C15.078125,10.3164062 15.4329427,10.4628906 15.8496094,10.4628906 Z M18.3203125,21 L18.3203125,20.6484375 C17.8841146,20.6223958 17.5911458,20.5198568 17.4414062,20.3408203 C17.2916667,20.1617839 17.2167969,19.75 17.2167969,19.1054688 L17.2167969,19.1054688 L17.2167969,11.8691406 L13.3886719,11.8691406 L13.3886719,12.2304688 C13.8183594,12.2565104 14.1080729,12.3590495 14.2578125,12.5380859 C14.4075521,12.7171224 14.4824219,13.1289062 14.4824219,13.7734375 L14.4824219,13.7734375 L14.4824219,19.1054688 C14.4824219,19.75 14.4173177,20.1471354 14.2871094,20.296875 C14.0917969,20.5182292 13.7923177,20.6354167 13.3886719,20.6484375 L13.3886719,20.6484375 L13.3886719,21 L18.3203125,21 Z M23.984375,21 L23.984375,20.6484375 C23.5807292,20.609375 23.3154297,20.4873047 23.1884766,20.2822266 C23.0615234,20.0771484 22.9980469,19.6523438 22.9980469,19.0078125 L22.9980469,19.0078125 L22.9980469,14.1054688 C23.343099,13.6171875 23.6686198,13.2721354 23.9746094,13.0703125 C24.1894531,12.9335938 24.4270833,12.8652344 24.6875,12.8652344 C24.8632812,12.8652344 25.0276693,12.9238281 25.1806641,13.0410156 C25.3336589,13.1582031 25.4427083,13.3209635 25.5078125,13.5292969 C25.5729167,13.7376302 25.6054688,14.2552083 25.6054688,15.0820312 L25.6054688,15.0820312 L25.6054688,19.0078125 C25.6054688,19.5416667 25.5810547,19.8883464 25.5322266,20.0478516 C25.4833984,20.2073568 25.3857422,20.3440755 25.2392578,20.4580078 C25.0927734,20.5719401 24.8925781,20.6354167 24.6386719,20.6484375 L24.6386719,20.6484375 L24.6386719,21 L29.3652344,21 L29.3652344,20.6484375 C28.9420573,20.6223958 28.655599,20.4889323 28.5058594,20.2480469 C28.3951823,20.078776 28.3398438,19.6653646 28.3398438,19.0078125 L28.3398438,19.0078125 L28.3398438,14.1054688 C28.6328125,13.6953125 28.922526,13.3876953 29.2089844,13.1826172 C29.4954427,12.9775391 29.7786458,12.875 30.0585938,12.875 C30.2473958,12.875 30.4117839,12.9287109 30.5517578,13.0361328 C30.6917318,13.1435547 30.7942708,13.3079427 30.859375,13.5292969 C30.9244792,13.750651 30.9570312,14.2682292 30.9570312,15.0820312 L30.9570312,15.0820312 L30.9570312,19.0078125 C30.9570312,19.6393229 30.8984375,20.0429688 30.78125,20.21875 C30.6054688,20.4726562 30.3320312,20.6158854 29.9609375,20.6484375 L29.9609375,20.6484375 L29.9609375,21 L34.6777344,21 L34.6777344,20.6484375 C34.2740885,20.5963542 34.0087891,20.4856771 33.8818359,20.3164062 C33.7548828,20.1471354 33.6914062,19.7109375 33.6914062,19.0078125 L33.6914062,19.0078125 L33.6914062,15.2675781 C33.6914062,14.2910156 33.6181641,13.5797526 33.4716797,13.1337891 C33.3251953,12.6878255 33.0647786,12.319987 32.6904297,12.0302734 C32.3160807,11.7405599 31.813151,11.5957031 31.1816406,11.5957031 C30.6608073,11.5957031 30.1611328,11.7259115 29.6826172,11.9863281 C29.2041016,12.2467448 28.7044271,12.6699219 28.1835938,13.2558594 C27.96875,12.6959635 27.6627604,12.2792969 27.265625,12.0058594 C26.8684896,11.7324219 26.3769531,11.5957031 25.7910156,11.5957031 C25.2832031,11.5957031 24.8160807,11.7047526 24.3896484,11.9228516 C23.9632161,12.1409505 23.499349,12.5234375 22.9980469,13.0703125 L22.9980469,13.0703125 L22.9980469,11.8691406 L19.2773438,11.8691406 L19.2773438,12.2304688 C19.6809896,12.2825521 19.9462891,12.3932292 20.0732422,12.5625 C20.2001953,12.7317708 20.2636719,13.1614583 20.2636719,13.8515625 L20.2636719,13.8515625 L20.2636719,19.0078125 C20.2636719,19.7109375 20.2083333,20.1341146 20.0976562,20.2773438 C19.9348958,20.4856771 19.6614583,20.609375 19.2773438,20.6484375 L19.2773438,20.6484375 L19.2773438,21 L23.984375,21 Z M39.8828125,21.2734375 C40.6705729,21.2734375 41.3639323,21.0634766 41.9628906,20.6435547 C42.561849,20.2236328 43.108724,19.5091146 43.6035156,18.5 L43.6035156,18.5 L43.2714844,18.2851562 C42.906901,18.8515625 42.5651042,19.2438151 42.2460938,19.4619141 C41.9270833,19.680013 41.5722656,19.7890625 41.1816406,19.7890625 C40.5501302,19.7890625 40.0097656,19.5188802 39.5605469,18.9785156 C38.9746094,18.2753906 38.6523438,17.3183594 38.59375,16.1074219 L38.59375,16.1074219 L43.6035156,16.1074219 C43.5514323,14.6165365 43.1852214,13.491862 42.5048828,12.7333984 C41.8245443,11.9749349 41.0221354,11.5957031 40.0976562,11.5957031 C38.9908854,11.5957031 38.0257161,12.0465495 37.2021484,12.9482422 C36.3785807,13.8499349 35.9667969,15.0625 35.9667969,16.5859375 C35.9667969,17.8294271 36.2467448,18.8710938 36.8066406,19.7109375 C37.5032552,20.7526042 38.5286458,21.2734375 39.8828125,21.2734375 Z M41.2011719,15.453125 L38.5449219,15.453125 L38.5449219,15.1113281 C38.5449219,14.1022135 38.7369792,13.3079427 39.1210938,12.7285156 C39.3359375,12.3964844 39.6126302,12.2304688 39.9511719,12.2304688 C40.1790365,12.2304688 40.3613281,12.2890625 40.4980469,12.40625 C40.7389323,12.6080729 40.9163411,12.9042969 41.0302734,13.2949219 C41.1442057,13.6855469 41.2011719,14.4049479 41.2011719,15.453125 L41.2011719,15.453125 Z M48.1542969,21.2734375 C48.7141927,21.2734375 49.2252604,21.1432292 49.6875,20.8828125 C50.1497396,20.6223958 50.5078125,20.2480469 50.7617188,19.7597656 C51.015625,19.2714844 51.1425781,18.7734375 51.1425781,18.265625 C51.1425781,17.7057292 50.9912109,17.1995443 50.6884766,16.7470703 C50.3857422,16.2945964 49.7558594,15.7444661 48.7988281,15.0966797 C47.8417969,14.4488932 47.2591146,13.9915365 47.0507812,13.7246094 C46.9205729,13.561849 46.8554688,13.3925781 46.8554688,13.2167969 C46.8554688,12.9824219 46.9498698,12.7757161 47.1386719,12.5966797 C47.327474,12.4176432 47.5553385,12.328125 47.8222656,12.328125 C48.2454427,12.328125 48.6702474,12.4973958 49.0966797,12.8359375 C49.523112,13.1744792 49.9348958,13.8059896 50.3320312,14.7304688 L50.3320312,14.7304688 L50.6640625,14.7304688 L50.5175781,11.6152344 L50.1855469,11.6152344 C50.0292969,11.843099 49.9153646,11.9814453 49.84375,12.0302734 C49.7721354,12.0791016 49.6777344,12.1035156 49.5605469,12.1035156 C49.4498698,12.1035156 49.3066406,12.0546875 49.1308594,11.9570312 C48.6686198,11.7161458 48.1901042,11.5957031 47.6953125,11.5957031 C46.7773438,11.5957031 46.0758464,11.8805339 45.5908203,12.4501953 C45.1057943,13.0198568 44.8632812,13.65625 44.8632812,14.359375 C44.8632812,15.0039062 45.078125,15.593099 45.5078125,16.1269531 C45.8007812,16.4915365 46.4453125,17.0188802 47.4414062,17.7089844 C48.1184896,18.171224 48.5546875,18.516276 48.75,18.7441406 C48.9453125,18.9720052 49.0429688,19.2421875 49.0429688,19.5546875 C49.0429688,19.828125 48.9436849,20.0608724 48.7451172,20.2529297 C48.5465495,20.444987 48.2910156,20.5410156 47.9785156,20.5410156 C47.5227865,20.5410156 47.039388,20.3261719 46.5283203,19.8964844 C46.0172526,19.4667969 45.6152344,18.8222656 45.3222656,17.9628906 L45.3222656,17.9628906 L44.9902344,17.9628906 L45.1464844,21.2441406 L45.46875,21.2441406 C45.6119792,20.9186198 45.7910156,20.7558594 46.0058594,20.7558594 C46.077474,20.7558594 46.2109375,20.7916667 46.40625,20.8632812 C47.1354167,21.1367188 47.718099,21.2734375 48.1542969,21.2734375 Z M69.0917969,21.3027344 L69.0917969,10.2773438 C69.0917969,9.65234375 69.1455078,9.21126302 69.2529297,8.95410156 C69.3603516,8.6969401 69.5100911,8.51139323 69.7021484,8.39746094 C69.8942057,8.28352865 70.2701823,8.19075521 70.8300781,8.11914062 L70.8300781,8.11914062 L70.8300781,7.7578125 L66.4550781,7.7578125 L66.4550781,8.11914062 C67.1907552,8.10611979 67.7148438,8.28841146 68.0273438,8.66601562 C68.2552083,8.94596354 68.3691406,9.48307292 68.3691406,10.2773438 L68.3691406,10.2773438 L68.3691406,15.9707031 L61.8359375,7.7578125 L57.1386719,7.7578125 L57.1386719,8.11914062 C57.5423177,8.13216146 57.8515625,8.19401042 58.0664062,8.3046875 C58.28125,8.41536458 58.5286458,8.64648438 58.8085938,8.99804688 L58.8085938,8.99804688 L59.0917969,9.34960938 L59.0917969,18.6953125 C59.0917969,19.3984375 58.9485677,19.8964844 58.6621094,20.1894531 C58.375651,20.4824219 57.8678385,20.6321615 57.1386719,20.6386719 L57.1386719,20.6386719 L57.1386719,21 L61.8359375,21 L61.8359375,20.6386719 L61.5234375,20.6386719 C61.0742188,20.6386719 60.6754557,20.5052083 60.3271484,20.2382812 C59.9788411,19.9713542 59.8046875,19.4570312 59.8046875,18.6953125 L59.8046875,18.6953125 L59.8046875,10.2773438 L68.7597656,21.3027344 L69.0917969,21.3027344 Z M75.9863281,21.2734375 C76.7740885,21.2734375 77.4674479,21.0634766 78.0664062,20.6435547 C78.6653646,20.2236328 79.2122396,19.5091146 79.7070312,18.5 L79.7070312,18.5 L79.375,18.2851562 C79.0104167,18.8515625 78.6686198,19.2438151 78.3496094,19.4619141 C78.030599,19.680013 77.6757812,19.7890625 77.2851562,19.7890625 C76.6536458,19.7890625 76.1132812,19.5188802 75.6640625,18.9785156 C75.078125,18.2753906 74.7558594,17.3183594 74.6972656,16.1074219 L74.6972656,16.1074219 L79.7070312,16.1074219 C79.6549479,14.6165365 79.288737,13.491862 78.6083984,12.7333984 C77.9280599,11.9749349 77.125651,11.5957031 76.2011719,11.5957031 C75.094401,11.5957031 74.1292318,12.0465495 73.3056641,12.9482422 C72.4820964,13.8499349 72.0703125,15.0625 72.0703125,16.5859375 C72.0703125,17.8294271 72.3502604,18.8710938 72.9101562,19.7109375 C73.6067708,20.7526042 74.6321615,21.2734375 75.9863281,21.2734375 Z M77.3046875,15.453125 L74.6484375,15.453125 L74.6484375,15.1113281 C74.6484375,14.1022135 74.8404948,13.3079427 75.2246094,12.7285156 C75.4394531,12.3964844 75.7161458,12.2304688 76.0546875,12.2304688 C76.2825521,12.2304688 76.4648438,12.2890625 76.6015625,12.40625 C76.8424479,12.6080729 77.0198568,12.9042969 77.1337891,13.2949219 C77.2477214,13.6855469 77.3046875,14.4049479 77.3046875,15.453125 L77.3046875,15.453125 Z M84.9511719,21.2734375 L87.4023438,14.5742188 L89.9023438,21.2734375 L90.4589844,21.2734375 L93.0175781,14.0175781 C93.297526,13.2102865 93.5253906,12.7203776 93.7011719,12.5478516 C93.8769531,12.3753255 94.1145833,12.2695312 94.4140625,12.2304688 L94.4140625,12.2304688 L94.4140625,11.8691406 L91.7089844,11.8691406 L91.7089844,12.2304688 C92.0670573,12.2565104 92.3079427,12.328125 92.4316406,12.4453125 C92.5553385,12.5625 92.6171875,12.7480469 92.6171875,13.0019531 C92.6171875,13.171224 92.5325521,13.4902344 92.3632812,13.9589844 L92.3632812,13.9589844 L91.1914062,17.2402344 L89.9023438,13.6757812 C89.7135417,13.1875 89.6191406,12.8717448 89.6191406,12.7285156 C89.6191406,12.578776 89.6679688,12.4632161 89.765625,12.3818359 C89.8632812,12.3004557 90.094401,12.25 90.4589844,12.2304688 L90.4589844,12.2304688 L90.4589844,11.8691406 L85.78125,11.8691406 L85.78125,12.2304688 C86.0872396,12.2825521 86.3134766,12.3753255 86.4599609,12.5087891 C86.6064453,12.6422526 86.7773438,12.953125 86.9726562,13.4414062 L86.9726562,13.4414062 L87.0703125,13.6757812 L85.78125,17.2402344 L84.4433594,13.6757812 C84.235026,13.1223958 84.1308594,12.7903646 84.1308594,12.6796875 C84.1308594,12.5625 84.1894531,12.4583333 84.3066406,12.3671875 C84.4238281,12.2760417 84.6386719,12.2304688 84.9511719,12.2304688 L84.9511719,12.2304688 L84.9511719,11.8691406 L80.3417969,11.8691406 L80.3417969,12.2304688 C80.6738281,12.3216146 80.921224,12.4713542 81.0839844,12.6796875 C81.3378906,12.9856771 81.6471354,13.6432292 82.0117188,14.6523438 L82.0117188,14.6523438 L84.4433594,21.2734375 L84.9511719,21.2734375 Z M106.767578,21 L106.767578,20.6386719 C106.162109,20.6386719 105.748698,20.5833333 105.527344,20.4726562 C105.30599,20.3619792 105.151367,20.2138672 105.063477,20.0283203 C104.975586,19.8427734 104.931641,19.3919271 104.931641,18.6757812 L104.931641,18.6757812 L104.931641,14.9648438 L105.800781,14.9648438 L110.068359,21 L114.238281,21 L114.238281,20.6386719 C113.886719,20.6191406 113.577474,20.5084635 113.310547,20.3066406 C113.134766,20.1634115 112.838542,19.8020833 112.421875,19.2226562 L112.421875,19.2226562 L109.238281,14.7402344 C110.045573,14.5384115 110.673828,14.2356771 111.123047,13.8320312 C111.826172,13.1940104 112.177734,12.3867188 112.177734,11.4101562 C112.177734,10.609375 111.943359,9.91113281 111.474609,9.31542969 C111.005859,8.71972656 110.400391,8.31119792 109.658203,8.08984375 C108.916016,7.86848958 107.744141,7.7578125 106.142578,7.7578125 L106.142578,7.7578125 L99.9902344,7.7578125 L99.9902344,8.11914062 C100.595703,8.11914062 101.009115,8.17447917 101.230469,8.28515625 C101.451823,8.39583333 101.606445,8.54394531 101.694336,8.72949219 C101.782227,8.91503906 101.826172,9.36588542 101.826172,10.0820312 L101.826172,10.0820312 L101.826172,18.6757812 C101.826172,19.3919271 101.782227,19.8411458 101.694336,20.0234375 C101.606445,20.2057292 101.453451,20.3538411 101.235352,20.4677734 C101.017253,20.5817057 100.602214,20.6386719 99.9902344,20.6386719 L99.9902344,20.6386719 L99.9902344,21 L106.767578,21 Z M105.488281,14.2714844 L104.931641,14.2714844 L104.931641,8.47070312 L105.976562,8.47070312 C107.02474,8.47070312 107.784831,8.71158854 108.256836,9.19335938 C108.728841,9.67513021 108.964844,10.4205729 108.964844,11.4296875 C108.964844,12.1263021 108.836263,12.6910807 108.579102,13.1240234 C108.32194,13.5569661 107.96875,13.8564453 107.519531,14.0224609 C107.070312,14.1884766 106.393229,14.2714844 105.488281,14.2714844 L105.488281,14.2714844 Z M119.072266,21.2734375 C120.472005,21.2734375 121.56901,20.7460938 122.363281,19.6914062 C123.020833,18.8190104 123.349609,17.735026 123.349609,16.4394531 C123.349609,15.5410156 123.172201,14.7141927 122.817383,13.9589844 C122.462565,13.203776 121.943359,12.6210938 121.259766,12.2109375 C120.576172,11.8007812 119.83724,11.5957031 119.042969,11.5957031 C117.721354,11.5957031 116.681315,12.0823568 115.922852,13.0556641 C115.164388,14.0289714 114.785156,15.1699219 114.785156,16.4785156 C114.785156,17.7480469 115.15625,18.8645833 115.898438,19.828125 C116.640625,20.7916667 117.698568,21.2734375 119.072266,21.2734375 Z M119.042969,20.5996094 C118.74349,20.5996094 118.476562,20.4791667 118.242188,20.2382812 C118.007812,19.9973958 117.854818,19.6458333 117.783203,19.1835938 C117.692057,18.578125 117.646484,17.9270833 117.646484,17.2304688 C117.646484,15.9153646 117.683919,14.8883464 117.758789,14.1494141 C117.833659,13.4104818 117.989909,12.9156901 118.227539,12.6650391 C118.465169,12.414388 118.75,12.2890625 119.082031,12.2890625 C119.355469,12.2890625 119.576823,12.3574219 119.746094,12.4941406 C119.986979,12.6829427 120.169271,12.9840495 120.292969,13.3974609 C120.416667,13.8108724 120.478516,14.5709635 120.478516,15.6777344 C120.478516,17.5592448 120.413411,18.8092448 120.283203,19.4277344 C120.198568,19.8248698 120.029297,20.1341146 119.775391,20.3554688 C119.580078,20.5182292 119.335938,20.5996094 119.042969,20.5996094 Z M129.511719,21 L129.511719,20.6484375 C129.108073,20.609375 128.842773,20.4873047 128.71582,20.2822266 C128.588867,20.0771484 128.525391,19.6523438 128.525391,19.0078125 L128.525391,19.0078125 L128.525391,14.1054688 C128.870443,13.6171875 129.195964,13.2721354 129.501953,13.0703125 C129.716797,12.9335938 129.954427,12.8652344 130.214844,12.8652344 C130.390625,12.8652344 130.555013,12.9238281 130.708008,13.0410156 C130.861003,13.1582031 130.970052,13.3209635 131.035156,13.5292969 C131.10026,13.7376302 131.132812,14.2552083 131.132812,15.0820312 L131.132812,19.0078125 C131.132812,19.5416667 131.108398,19.8883464 131.05957,20.0478516 C131.010742,20.2073568 130.913086,20.3440755 130.766602,20.4580078 C130.620117,20.5719401 130.419922,20.6354167 130.166016,20.6484375 L130.166016,20.6484375 L130.166016,21 L134.892578,21 L134.892578,20.6484375 C134.469401,20.6223958 134.182943,20.4889323 134.033203,20.2480469 C133.922526,20.078776 133.867188,19.6653646 133.867188,19.0078125 L133.867188,19.0078125 L133.867188,14.1054688 C134.160156,13.6953125 134.44987,13.3876953 134.736328,13.1826172 C135.022786,12.9775391 135.30599,12.875 135.585938,12.875 C135.77474,12.875 135.939128,12.9287109 136.079102,13.0361328 C136.219076,13.1435547 136.321615,13.3079427 136.386719,13.5292969 C136.451823,13.750651 136.484375,14.2682292 136.484375,15.0820312 L136.484375,15.0820312 L136.484375,19.0078125 C136.484375,19.6393229 136.425781,20.0429688 136.308594,20.21875 C136.132812,20.4726562 135.859375,20.6158854 135.488281,20.6484375 L135.488281,20.6484375 L135.488281,21 L140.205078,21 L140.205078,20.6484375 C139.801432,20.5963542 139.536133,20.4856771 139.40918,20.3164062 C139.282227,20.1471354 139.21875,19.7109375 139.21875,19.0078125 L139.21875,19.0078125 L139.21875,15.2675781 C139.21875,14.2910156 139.145508,13.5797526 138.999023,13.1337891 C138.852539,12.6878255 138.592122,12.319987 138.217773,12.0302734 C137.843424,11.7405599 137.340495,11.5957031 136.708984,11.5957031 C136.188151,11.5957031 135.688477,11.7259115 135.209961,11.9863281 C134.731445,12.2467448 134.231771,12.6699219 133.710938,13.2558594 C133.496094,12.6959635 133.190104,12.2792969 132.792969,12.0058594 C132.395833,11.7324219 131.904297,11.5957031 131.318359,11.5957031 C130.810547,11.5957031 130.343424,11.7047526 129.916992,11.9228516 C129.49056,12.1409505 129.026693,12.5234375 128.525391,13.0703125 L128.525391,13.0703125 L128.525391,11.8691406 L124.804688,11.8691406 L124.804688,12.2304688 C125.208333,12.2825521 125.473633,12.3932292 125.600586,12.5625 C125.727539,12.7317708 125.791016,13.1614583 125.791016,13.8515625 L125.791016,13.8515625 L125.791016,19.0078125 C125.791016,19.7109375 125.735677,20.1341146 125.625,20.2773438 C125.46224,20.4856771 125.188802,20.609375 124.804688,20.6484375 L124.804688,20.6484375 L124.804688,21 L129.511719,21 Z M148.193359,21.1269531 C148.636068,21.1269531 149.031576,21.0179036 149.379883,20.7998047 C149.72819,20.5817057 150.065104,20.2317708 150.390625,19.75 L150.390625,19.75 L150.097656,19.515625 C149.921875,19.7565104 149.749349,19.8769531 149.580078,19.8769531 C149.495443,19.8769531 149.420573,19.8509115 149.355469,19.7988281 C149.290365,19.7467448 149.241536,19.6669922 149.208984,19.5595703 C149.176432,19.4521484 149.160156,19.1901042 149.160156,18.7734375 L149.160156,15.2285156 C149.160156,14.2454427 149.114583,13.6171875 149.023438,13.34375 C148.873698,12.9140625 148.546549,12.5152995 148.041992,12.1474609 C147.537435,11.7796224 146.852214,11.5957031 145.986328,11.5957031 C145.270182,11.5957031 144.580078,11.7096354 143.916016,11.9375 C143.251953,12.1653646 142.734375,12.492513 142.363281,12.9189453 C141.992188,13.3453776 141.806641,13.7929688 141.806641,14.2617188 C141.806641,14.59375 141.944987,14.8834635 142.22168,15.1308594 C142.498372,15.3782552 142.841797,15.5019531 143.251953,15.5019531 C143.636068,15.5019531 143.94694,15.3896484 144.18457,15.1650391 C144.422201,14.9404297 144.541016,14.6686198 144.541016,14.3496094 C144.541016,14.0891927 144.417318,13.8190104 144.169922,13.5390625 C143.98763,13.3372396 143.896484,13.1679688 143.896484,13.03125 C143.896484,12.875 143.98112,12.7382812 144.150391,12.6210938 C144.423828,12.4322917 144.772135,12.3378906 145.195312,12.3378906 C145.455729,12.3378906 145.690104,12.4046224 145.898438,12.5380859 C146.106771,12.6715495 146.248372,12.8277995 146.323242,13.0068359 C146.398112,13.1858724 146.435547,13.6204427 146.435547,14.3105469 L146.435547,14.3105469 L146.435547,15.2285156 C144.423828,16.1529948 143.11849,16.8935547 142.519531,17.4501953 C141.920573,18.0068359 141.621094,18.6334635 141.621094,19.3300781 C141.621094,19.844401 141.79362,20.2724609 142.138672,20.6142578 C142.483724,20.9560547 142.916667,21.1269531 143.4375,21.1269531 C144.322917,21.1269531 145.322266,20.6354167 146.435547,19.6523438 C146.500651,20.1471354 146.679688,20.5166016 146.972656,20.7607422 C147.265625,21.0048828 147.672526,21.1269531 148.193359,21.1269531 Z M145.302734,19.4863281 C145.009766,19.4863281 144.781901,19.3984375 144.619141,19.2226562 C144.404297,18.9947917 144.296875,18.7311198 144.296875,18.4316406 C144.296875,18.0735677 144.423828,17.71875 144.677734,17.3671875 C145.061849,16.8398438 145.647786,16.3450521 146.435547,15.8828125 L146.435547,15.8828125 L146.435547,18.9394531 C146.005859,19.3040365 145.628255,19.4863281 145.302734,19.4863281 Z M156.025391,21 L156.025391,20.6484375 C155.680339,20.6028646 155.444336,20.4889323 155.317383,20.3066406 C155.19043,20.124349 155.126953,19.6914062 155.126953,19.0078125 L155.126953,19.0078125 L155.126953,14.1152344 C155.608724,13.3144531 156.129557,12.9140625 156.689453,12.9140625 C156.858724,12.9140625 157.013346,12.9677734 157.15332,13.0751953 C157.293294,13.1826172 157.392578,13.3339844 157.451172,13.5292969 C157.509766,13.7246094 157.539062,14.1966146 157.539062,14.9453125 L157.539062,14.9453125 L157.539062,19.0078125 C157.539062,19.6523438 157.486979,20.0559896 157.382812,20.21875 C157.233073,20.4596354 156.985677,20.6028646 156.640625,20.6484375 L156.640625,20.6484375 L156.640625,21 L161.259766,21 L161.259766,20.6484375 C160.85612,20.6028646 160.59082,20.4938151 160.463867,20.3212891 C160.336914,20.148763 160.273438,19.7109375 160.273438,19.0078125 L160.273438,19.0078125 L160.273438,15.453125 C160.273438,14.3984375 160.221354,13.6855469 160.117188,13.3144531 C159.986979,12.8261719 159.726562,12.4176432 159.335938,12.0888672 C158.945312,11.7600911 158.453776,11.5957031 157.861328,11.5957031 C157.366536,11.5957031 156.904297,11.711263 156.474609,11.9423828 C156.044922,12.1735026 155.595703,12.5429688 155.126953,13.0507812 L155.126953,13.0507812 L155.126953,11.8691406 L151.40625,11.8691406 L151.40625,12.2304688 C151.809896,12.2825521 152.075195,12.3932292 152.202148,12.5625 C152.329102,12.7317708 152.392578,13.1614583 152.392578,13.8515625 L152.392578,13.8515625 L152.392578,19.0078125 C152.392578,19.7109375 152.33724,20.1341146 152.226562,20.2773438 C152.063802,20.4856771 151.790365,20.609375 151.40625,20.6484375 L151.40625,20.6484375 L151.40625,21 L156.025391,21 Z" id="TimesNewRoman"></path>
                </g>
            </g>
        </g>
    </g>
</svg>