<?xml version="1.0" encoding="UTF-8"?>
<svg width="506px" height="74px" viewBox="0 0 506 74" version="1.1" xmlns="http://www.w3.org/2000/svg" xmlns:xlink="http://www.w3.org/1999/xlink">
    <title>letter-spacing</title>
    <g id="Doc_exemplos" stroke="none" stroke-width="1" fill="none" fill-rule="evenodd">
        <g id="doc-tipografia-expandido" transform="translate(-126.000000, -4948.000000)">
            <g id="letter-spacing" transform="translate(126.000000, 4948.000000)">
                <text id="0" font-family="Inter-SemiBold, Inter" font-size="28" font-weight="500" line-spacing="36.4" fill="#000000">
                    <tspan x="244.3" y="43.8">0</tspan>
                </text>
                <g id="linhas" transform="translate(0.000000, 29.400000)" fill="#979797" fill-rule="nonzero">
                    <path id="line" d="M341.25,11.45 L339.85,11.45 L339.85,6.649 L283.85,6.65 L283.85,5.25 L339.85,5.249 L339.85,0.45 L341.25,0.45 L341.25,11.45 Z"></path>
                    <path id="line" d="M397.25,11.45 L395.85,11.45 L395.85,6.649 L339.85,6.65 L339.85,5.25 L395.85,5.249 L395.85,0.45 L397.25,0.45 L397.25,11.45 Z"></path>
                    <path id="line" d="M453.25,11.45 L451.85,11.45 L451.85,6.649 L395.85,6.65 L395.85,5.25 L451.85,5.249 L451.85,0.45 L453.25,0.45 L453.25,11.45 Z"></path>
                    <path id="line" d="M493.685682,-0.114994633 L494.299307,0.221849416 L504.261829,5.69068488 L505.398172,6.31447015 L504.253334,6.92252314 L494.216331,12.2534309 L493.598118,12.5817795 L492.941421,11.3453537 L493.559634,11.0170051 L501.151,6.985 L493.928677,6.93538683 L452.545173,6.64998335 L451.845189,6.64515588 L451.854844,5.24518917 L452.554827,5.25001665 L493.938332,5.53542012 L501.16,5.585 L493.625619,1.44910014 L493.011994,1.11225609 L493.685682,-0.114994633 Z"></path>
                    <polygon id="line" transform="translate(197.050000, 5.950000) scale(-1, 1) translate(-197.050000, -5.950000) " points="225.75 10.85 224.35 10.85 224.35 6.65 168.35 6.65 168.35 5.25 224.35 5.25 224.35 1.05 225.75 1.05"></polygon>
                    <polygon id="line" transform="translate(141.050000, 5.950000) scale(-1, 1) translate(-141.050000, -5.950000) " points="169.75 10.85 168.35 10.85 168.35 6.65 112.35 6.65 112.35 5.25 168.35 5.25 168.35 1.05 169.75 1.05"></polygon>
                    <polygon id="line" transform="translate(85.050000, 5.950000) scale(-1, 1) translate(-85.050000, -5.950000) " points="113.75 10.85 112.35 10.85 112.35 6.65 56.35 6.65 56.35 5.25 112.35 5.25 112.35 1.05 113.75 1.05"></polygon>
                    <polygon id="line" transform="translate(29.676405, 5.950000) scale(-1, 1) translate(-29.676405, -5.950000) " points="48.90808 0.271714256 49.5181829 0.614897124 57.9181829 5.33989712 59.0028102 5.95 57.9181829 6.56010288 49.5181829 11.2851029 48.90808 11.6282857 48.2217143 10.40808 48.8318171 10.0648971 54.9024 6.65 0.35 6.65 0.35 5.25 54.9024 5.25 48.8318171 1.83510288 48.2217143 1.49192001"></polygon>
                </g>
                <path d="M411.630682,70.4 L411.630682,66.3644886 C411.630682,66.0690341 411.692472,65.8090909 411.816051,65.5846591 C411.939631,65.3602273 412.102983,65.1848011 412.306108,65.0583807 C412.509233,64.9319602 412.731534,64.86875 412.973011,64.86875 C413.328125,64.86875 413.616477,64.9767045 413.838068,65.1926136 C414.059659,65.4085227 414.170455,65.6940341 414.170455,66.0491477 L414.170455,66.0491477 L414.170455,70.4 L415.440341,70.4 L415.440341,66.228125 C415.440341,65.8303977 415.555398,65.5044034 415.785511,65.250142 C416.015625,64.9958807 416.338068,64.86875 416.752841,64.86875 C417.088068,64.86875 417.37642,64.9681818 417.617898,65.1670455 C417.859375,65.3659091 417.980114,65.6869318 417.980114,66.1301136 L417.980114,66.1301136 L417.980114,70.4 L419.254261,70.4 L419.254261,66.0107955 C419.254261,65.2607955 419.066051,64.6997159 418.689631,64.3275568 C418.31321,63.9553977 417.828125,63.7693182 417.234375,63.7693182 C416.762784,63.7693182 416.356534,63.8737216 416.015625,64.0825284 C415.674716,64.2913352 415.426136,64.5704545 415.269886,64.9198864 L415.269886,64.9198864 L415.201705,64.9198864 C415.059659,64.5619318 414.840199,64.2806818 414.543324,64.0761364 C414.246449,63.8715909 413.879261,63.7693182 413.441761,63.7693182 C413.009943,63.7693182 412.639205,63.8708807 412.329545,64.0740057 C412.019886,64.2771307 411.796875,64.5590909 411.660511,64.9198864 L411.660511,64.9198864 L411.579545,64.9198864 L411.579545,63.8545455 L410.356534,63.8545455 L410.356534,70.4 L411.630682,70.4 Z M422.863636,70.5448864 C423.224432,70.5448864 423.534091,70.4923295 423.792614,70.3872159 C424.051136,70.2821023 424.262784,70.15 424.427557,69.9909091 C424.59233,69.8318182 424.715909,69.6698864 424.798295,69.5051136 L424.798295,69.5051136 L424.849432,69.5051136 L424.849432,70.4 L426.09375,70.4 L426.09375,66.0534091 C426.09375,65.5761364 426.011364,65.187642 425.846591,64.8879261 C425.681818,64.5882102 425.470881,64.3573864 425.213778,64.1954545 C424.956676,64.0335227 424.681108,63.922017 424.387074,63.8609375 C424.09304,63.799858 423.815341,63.7693182 423.553977,63.7693182 C423.159091,63.7693182 422.78267,63.8254261 422.424716,63.937642 C422.066761,64.049858 421.75071,64.2288352 421.476563,64.4745739 C421.202415,64.7203125 420.994318,65.0420455 420.852273,65.4397727 L420.852273,65.4397727 L422.049716,65.7125 C422.143466,65.4823864 422.31321,65.2728693 422.558949,65.0839489 C422.804688,64.8950284 423.142045,64.8005682 423.571023,64.8005682 C423.982955,64.8005682 424.293324,64.9028409 424.502131,65.1073864 C424.710938,65.3119318 424.815341,65.6002841 424.815341,65.9724432 L424.815341,65.9724432 L424.815341,66.0022727 C424.815341,66.1556818 424.759943,66.2664773 424.649148,66.3346591 C424.538352,66.4028409 424.360795,66.4518466 424.116477,66.4816761 C423.872159,66.5115057 423.553977,66.5491477 423.161932,66.5946023 C422.852273,66.6315341 422.548295,66.6855114 422.25,66.7565341 C421.951705,66.8275568 421.681818,66.9326705 421.440341,67.071875 C421.198864,67.2110795 421.007102,67.4 420.865057,67.6386364 C420.723011,67.8772727 420.651989,68.18125 420.651989,68.5505682 C420.651989,68.9795455 420.74929,69.3417614 420.943892,69.6372159 C421.138494,69.9326705 421.403409,70.1578125 421.738636,70.312642 C422.073864,70.4674716 422.448864,70.5448864 422.863636,70.5448864 Z M423.140625,69.5221591 C422.77983,69.5221591 422.482955,69.4419034 422.25,69.281392 C422.017045,69.1208807 421.900568,68.8829545 421.900568,68.5676136 C421.900568,68.3403409 421.960938,68.1578125 422.081676,68.0200284 C422.202415,67.8822443 422.364347,67.7764205 422.567472,67.7025568 C422.770597,67.6286932 422.995739,67.5761364 423.242898,67.5448864 C423.348011,67.5306818 423.478693,67.5129261 423.634943,67.4916193 C423.791193,67.4703125 423.951705,67.4461648 424.116477,67.4191761 C424.28125,67.3921875 424.428267,67.359517 424.557528,67.3211648 C424.68679,67.2828125 424.774148,67.2409091 424.819602,67.1954545 L424.819602,67.1954545 L424.819602,68.0392045 C424.819602,68.2977273 424.753551,68.5399148 424.621449,68.765767 C424.489347,68.9916193 424.297585,69.1741477 424.046165,69.3133523 C423.794744,69.4525568 423.492898,69.5221591 423.140625,69.5221591 Z M428.433239,62.8446023 C428.65483,62.8446023 428.84446,62.7700284 429.002131,62.6208807 C429.159801,62.471733 429.238636,62.2934659 429.238636,62.0860795 C429.238636,61.8758523 429.159801,61.6961648 429.002131,61.547017 C428.84446,61.3978693 428.65483,61.3232955 428.433239,61.3232955 C428.211648,61.3232955 428.022017,61.3978693 427.864347,61.547017 C427.706676,61.6961648 427.627841,61.8758523 427.627841,62.0860795 C427.627841,62.2934659 427.706676,62.471733 427.864347,62.6208807 C428.022017,62.7700284 428.211648,62.8446023 428.433239,62.8446023 Z M429.06392,70.4 L429.06392,63.8545455 L427.789773,63.8545455 L427.789773,70.4 L429.06392,70.4 Z M433.133523,70.5321023 C433.661932,70.5321023 434.127131,70.4454545 434.529119,70.2721591 C434.931108,70.0988636 435.245028,69.859517 435.470881,69.5541193 C435.696733,69.2487216 435.809659,68.9 435.809659,68.5079545 C435.809659,68.0448864 435.661932,67.6684659 435.366477,67.3786932 C435.071023,67.0889205 434.622159,66.8744318 434.019886,66.7352273 L434.019886,66.7352273 L432.980114,66.4965909 C432.619318,66.4113636 432.357955,66.3019886 432.196023,66.1684659 C432.034091,66.0349432 431.953125,65.8588068 431.953125,65.6400568 C431.953125,65.3872159 432.073864,65.1805398 432.315341,65.0200284 C432.556818,64.859517 432.857955,64.7792614 433.21875,64.7792614 C433.482955,64.7792614 433.703125,64.821875 433.879261,64.9071023 C434.055398,64.9923295 434.195313,65.1017045 434.299006,65.2352273 C434.402699,65.36875 434.478693,65.509375 434.526989,65.6571023 L434.526989,65.6571023 L435.681818,65.4525568 C435.551136,64.9411932 435.28267,64.5328125 434.87642,64.2274148 C434.47017,63.922017 433.913352,63.7693182 433.205966,63.7693182 C432.714489,63.7693182 432.278409,63.8509943 431.897727,64.0143466 C431.517045,64.1776989 431.21875,64.4042614 431.002841,64.6940341 C430.786932,64.9838068 430.678977,65.321875 430.678977,65.7082386 C430.678977,66.1741477 430.824574,66.5590909 431.115767,66.8630682 C431.40696,67.1670455 431.857955,67.3886364 432.46875,67.5278409 L432.46875,67.5278409 L433.576705,67.7707386 C433.889205,67.8417614 434.121449,67.946875 434.273438,68.0860795 C434.425426,68.2252841 434.50142,68.3971591 434.50142,68.6017045 C434.50142,68.8545455 434.37642,69.0683239 434.12642,69.2430398 C433.87642,69.4177557 433.542614,69.5051136 433.125,69.5051136 C432.741477,69.5051136 432.430398,69.4234375 432.191761,69.2600852 C431.953125,69.096733 431.795455,68.8545455 431.71875,68.5335227 L431.71875,68.5335227 L430.487216,68.7210227 C430.59233,69.3005682 430.87642,69.7473011 431.339489,70.0612216 C431.802557,70.375142 432.400568,70.5321023 433.133523,70.5321023 Z M443.207386,70.5321023 C443.684659,70.5321023 444.110085,70.4589489 444.483665,70.312642 C444.857244,70.1663352 445.168324,69.9603693 445.416903,69.6947443 C445.665483,69.4291193 445.838068,69.11875 445.934659,68.7636364 L445.934659,68.7636364 L444.728693,68.5463068 C444.651989,68.7508523 444.541193,68.9227273 444.396307,69.0619318 C444.25142,69.2011364 444.079545,69.3055398 443.880682,69.375142 C443.681818,69.4447443 443.461648,69.4795455 443.22017,69.4795455 C442.848011,69.4795455 442.522727,69.3992898 442.244318,69.2387784 C441.965909,69.078267 441.74929,68.8446023 441.59446,68.5377841 C441.439631,68.2309659 441.362216,67.8588068 441.362216,67.4213068 L441.365,67.511 L446.015625,67.5107955 L446.015625,67.0590909 C446.015625,66.4653409 445.93608,65.9603693 445.776989,65.5441761 C445.617898,65.127983 445.400568,64.7892045 445.125,64.5278409 C444.849432,64.2664773 444.538352,64.0747159 444.191761,63.9525568 C443.84517,63.8303977 443.487216,63.7693182 443.117898,63.7693182 C442.509943,63.7693182 441.979403,63.9127841 441.526278,64.1997159 C441.073153,64.4866477 440.720881,64.8857955 440.46946,65.3971591 C440.21804,65.9085227 440.09233,66.4994318 440.09233,67.1698864 C440.09233,67.8488636 440.21804,68.440483 440.46946,68.9447443 C440.720881,69.4490057 441.078835,69.8396307 441.543324,70.1166193 C442.007813,70.393608 442.5625,70.5321023 443.207386,70.5321023 Z M441.370824,66.482358 C441.393778,66.2284943 441.462642,65.9896307 441.577415,65.765767 C441.720881,65.4859375 441.925426,65.2586648 442.191051,65.0839489 C442.456676,64.909233 442.768466,64.821875 443.12642,64.821875 C443.455966,64.821875 443.743608,64.8971591 443.989347,65.0477273 C444.235085,65.1982955 444.426136,65.4035511 444.5625,65.6634943 C444.698864,65.9234375 444.767045,66.2210227 444.767045,66.55625 L444.767045,66.55625 L441.367,66.557 L441.370824,66.482358 Z M449.791193,70.5321023 C450.319602,70.5321023 450.784801,70.4454545 451.18679,70.2721591 C451.588778,70.0988636 451.902699,69.859517 452.128551,69.5541193 C452.354403,69.2487216 452.46733,68.9 452.46733,68.5079545 C452.46733,68.0448864 452.319602,67.6684659 452.024148,67.3786932 C451.728693,67.0889205 451.27983,66.8744318 450.677557,66.7352273 L450.677557,66.7352273 L449.637784,66.4965909 C449.276989,66.4113636 449.015625,66.3019886 448.853693,66.1684659 C448.691761,66.0349432 448.610795,65.8588068 448.610795,65.6400568 C448.610795,65.3872159 448.731534,65.1805398 448.973011,65.0200284 C449.214489,64.859517 449.515625,64.7792614 449.87642,64.7792614 C450.140625,64.7792614 450.360795,64.821875 450.536932,64.9071023 C450.713068,64.9923295 450.852983,65.1017045 450.956676,65.2352273 C451.060369,65.36875 451.136364,65.509375 451.184659,65.6571023 L451.184659,65.6571023 L452.339489,65.4525568 C452.208807,64.9411932 451.940341,64.5328125 451.534091,64.2274148 C451.127841,63.922017 450.571023,63.7693182 449.863636,63.7693182 C449.372159,63.7693182 448.93608,63.8509943 448.555398,64.0143466 C448.174716,64.1776989 447.87642,64.4042614 447.660511,64.6940341 C447.444602,64.9838068 447.336648,65.321875 447.336648,65.7082386 C447.336648,66.1741477 447.482244,66.5590909 447.773438,66.8630682 C448.064631,67.1670455 448.515625,67.3886364 449.12642,67.5278409 L449.12642,67.5278409 L450.234375,67.7707386 C450.546875,67.8417614 450.779119,67.946875 450.931108,68.0860795 C451.083097,68.2252841 451.159091,68.3971591 451.159091,68.6017045 C451.159091,68.8545455 451.034091,69.0683239 450.784091,69.2430398 C450.534091,69.4177557 450.200284,69.5051136 449.78267,69.5051136 C449.399148,69.5051136 449.088068,69.4234375 448.849432,69.2600852 C448.610795,69.096733 448.453125,68.8545455 448.37642,68.5335227 L448.37642,68.5335227 L447.144886,68.7210227 C447.25,69.3005682 447.534091,69.7473011 447.997159,70.0612216 C448.460227,70.375142 449.058239,70.5321023 449.791193,70.5321023 Z M455.139205,72.8545455 L455.139205,69.3815341 L455.215909,69.3815341 C455.292614,69.5207386 455.401989,69.6798295 455.544034,69.8588068 C455.68608,70.0377841 455.882813,70.1940341 456.134233,70.3275568 C456.385653,70.4610795 456.710227,70.5278409 457.107955,70.5278409 C457.636364,70.5278409 458.106534,70.3921875 458.518466,70.1208807 C458.930398,69.8495739 459.254261,69.4617898 459.490057,68.9575284 C459.725852,68.453267 459.84375,67.8474432 459.84375,67.1400568 C459.84375,66.4326705 459.725142,65.8275568 459.487926,65.3247159 C459.25071,64.821875 458.924716,64.4369318 458.509943,64.1698864 C458.09517,63.9028409 457.62358,63.7693182 457.09517,63.7693182 C456.68892,63.7693182 456.362216,63.8367898 456.115057,63.971733 C455.867898,64.1066761 455.674716,64.2636364 455.535511,64.4426136 C455.396307,64.6215909 455.289773,64.7792614 455.215909,64.915625 L455.215909,64.915625 L455.109375,64.915625 L455.109375,63.8545455 L453.865057,63.8545455 L453.865057,72.8545455 L455.139205,72.8545455 Z M456.822443,69.4411932 C456.455966,69.4411932 456.146307,69.343892 455.893466,69.1492898 C455.640625,68.9546875 455.447443,68.6840909 455.31392,68.3375 C455.180398,67.9909091 455.113636,67.5875 455.113636,67.1272727 C455.113636,66.6727273 455.178977,66.275 455.309659,65.9340909 C455.440341,65.5931818 455.632813,65.3275568 455.887074,65.1372159 C456.141335,64.946875 456.453125,64.8517045 456.822443,64.8517045 C457.205966,64.8517045 457.526278,64.9511364 457.783381,65.15 C458.040483,65.3488636 458.233665,65.6201705 458.362926,65.9639205 C458.492188,66.3076705 458.556818,66.6954545 458.556818,67.1272727 C458.556818,67.5647727 458.490767,67.9582386 458.358665,68.3076705 C458.226563,68.6571023 458.03267,68.9333807 457.776989,69.1365057 C457.521307,69.3396307 457.203125,69.4411932 456.822443,69.4411932 Z M463.176136,70.5448864 C463.536932,70.5448864 463.846591,70.4923295 464.105114,70.3872159 C464.363636,70.2821023 464.575284,70.15 464.740057,69.9909091 C464.90483,69.8318182 465.028409,69.6698864 465.110795,69.5051136 L465.110795,69.5051136 L465.161932,69.5051136 L465.161932,70.4 L466.40625,70.4 L466.40625,66.0534091 C466.40625,65.5761364 466.323864,65.187642 466.159091,64.8879261 C465.994318,64.5882102 465.783381,64.3573864 465.526278,64.1954545 C465.269176,64.0335227 464.993608,63.922017 464.699574,63.8609375 C464.40554,63.799858 464.127841,63.7693182 463.866477,63.7693182 C463.471591,63.7693182 463.09517,63.8254261 462.737216,63.937642 C462.379261,64.049858 462.06321,64.2288352 461.789063,64.4745739 C461.514915,64.7203125 461.306818,65.0420455 461.164773,65.4397727 L461.164773,65.4397727 L462.362216,65.7125 C462.455966,65.4823864 462.62571,65.2728693 462.871449,65.0839489 C463.117188,64.8950284 463.454545,64.8005682 463.883523,64.8005682 C464.295455,64.8005682 464.605824,64.9028409 464.814631,65.1073864 C465.023438,65.3119318 465.127841,65.6002841 465.127841,65.9724432 L465.127841,65.9724432 L465.127841,66.0022727 C465.127841,66.1556818 465.072443,66.2664773 464.961648,66.3346591 C464.850852,66.4028409 464.673295,66.4518466 464.428977,66.4816761 C464.184659,66.5115057 463.866477,66.5491477 463.474432,66.5946023 C463.164773,66.6315341 462.860795,66.6855114 462.5625,66.7565341 C462.264205,66.8275568 461.994318,66.9326705 461.752841,67.071875 C461.511364,67.2110795 461.319602,67.4 461.177557,67.6386364 C461.035511,67.8772727 460.964489,68.18125 460.964489,68.5505682 C460.964489,68.9795455 461.06179,69.3417614 461.256392,69.6372159 C461.450994,69.9326705 461.715909,70.1578125 462.051136,70.312642 C462.386364,70.4674716 462.761364,70.5448864 463.176136,70.5448864 Z M463.453125,69.5221591 C463.09233,69.5221591 462.795455,69.4419034 462.5625,69.281392 C462.329545,69.1208807 462.213068,68.8829545 462.213068,68.5676136 C462.213068,68.3403409 462.273438,68.1578125 462.394176,68.0200284 C462.514915,67.8822443 462.676847,67.7764205 462.879972,67.7025568 C463.083097,67.6286932 463.308239,67.5761364 463.555398,67.5448864 C463.660511,67.5306818 463.791193,67.5129261 463.947443,67.4916193 C464.103693,67.4703125 464.264205,67.4461648 464.428977,67.4191761 C464.59375,67.3921875 464.740767,67.359517 464.870028,67.3211648 C464.99929,67.2828125 465.086648,67.2409091 465.132102,67.1954545 L465.132102,67.1954545 L465.132102,68.0392045 C465.132102,68.2977273 465.066051,68.5399148 464.933949,68.765767 C464.801847,68.9916193 464.610085,69.1741477 464.358665,69.3133523 C464.107244,69.4525568 463.805398,69.5221591 463.453125,69.5221591 Z M470.147727,73.025 C470.778409,73.025 471.260653,72.9056818 471.59446,72.6670455 C471.928267,72.4284091 472.09375,72.1173295 472.090909,71.7338068 C472.090909,71.4127841 471.99858,71.1727273 471.81392,71.0136364 C471.629261,70.8545455 471.413352,70.7551136 471.166193,70.7153409 L471.166193,70.7153409 L471.205,70.516 L471.286381,70.5087952 C471.560268,70.4777192 471.812587,70.415567 472.043338,70.3223388 L472.212358,70.2465909 C472.597301,70.05625 472.90483,69.7948864 473.134943,69.4625 C473.365057,69.1301136 473.502841,68.7522727 473.548295,68.3289773 L473.548295,68.3289773 L472.308239,68.3289773 C472.254261,68.5647727 472.159801,68.7664773 472.024858,68.9340909 C471.889915,69.1017045 471.723722,69.2302557 471.526278,69.3197443 C471.328835,69.409233 471.109375,69.4539773 470.867898,69.4539773 C470.507102,69.4539773 470.193892,69.3588068 469.928267,69.1684659 C469.662642,68.978125 469.457386,68.7096591 469.3125,68.3630682 C469.167614,68.0164773 469.09517,67.6045455 469.09517,67.1272727 C469.09517,66.6613636 469.169034,66.2572443 469.316761,65.9149148 C469.464489,65.5725852 469.671165,65.3083807 469.93679,65.1223011 C470.202415,64.9362216 470.512784,64.8431818 470.867898,64.8431818 C471.274148,64.8431818 471.598722,64.9539773 471.841619,65.1755682 C472.084517,65.3971591 472.240057,65.6613636 472.308239,65.9681818 L472.308239,65.9681818 L473.548295,65.9681818 C473.502841,65.5278409 473.360085,65.1428977 473.120028,64.8133523 C472.879972,64.4838068 472.565341,64.2274148 472.176136,64.0441761 C471.786932,63.8609375 471.34375,63.7693182 470.846591,63.7693182 C470.230114,63.7693182 469.694602,63.9127841 469.240057,64.1997159 C468.785511,64.4866477 468.433239,64.8850852 468.183239,65.3950284 C467.933239,65.9049716 467.808239,66.4923295 467.808239,67.1571023 C467.808239,67.8133523 467.930398,68.3957386 468.174716,68.9042614 C468.419034,69.4127841 468.769176,69.8112216 469.225142,70.0995739 C469.510121,70.279794 469.829778,70.4036954 470.184115,70.471278 L470.371,70.501 L470.224432,71.2096591 C470.474432,71.2346591 470.670341,71.2742045 470.812159,71.3282955 L470.908381,71.3715909 C471.051847,71.4482955 471.122159,71.5818182 471.119318,71.7721591 C471.116477,71.9625 471.023438,72.1002841 470.840199,72.1855114 C470.65696,72.2707386 470.417614,72.3133523 470.122159,72.3133523 L470.122159,72.3133523 L470.147727,73.025 Z M476.821023,70.5448864 C477.181818,70.5448864 477.491477,70.4923295 477.75,70.3872159 C478.008523,70.2821023 478.22017,70.15 478.384943,69.9909091 C478.549716,69.8318182 478.673295,69.6698864 478.755682,69.5051136 L478.755682,69.5051136 L478.806818,69.5051136 L478.806818,70.4 L480.051136,70.4 L480.051136,66.0534091 C480.051136,65.5761364 479.96875,65.187642 479.803977,64.8879261 C479.639205,64.5882102 479.428267,64.3573864 479.171165,64.1954545 C478.914063,64.0335227 478.638494,63.922017 478.34446,63.8609375 C478.050426,63.799858 477.772727,63.7693182 477.511364,63.7693182 C477.116477,63.7693182 476.740057,63.8254261 476.382102,63.937642 C476.024148,64.049858 475.708097,64.2288352 475.433949,64.4745739 C475.159801,64.7203125 474.951705,65.0420455 474.809659,65.4397727 L474.809659,65.4397727 L476.007102,65.7125 C476.100852,65.4823864 476.270597,65.2728693 476.516335,65.0839489 C476.762074,64.8950284 477.099432,64.8005682 477.528409,64.8005682 C477.940341,64.8005682 478.25071,64.9028409 478.459517,65.1073864 C478.668324,65.3119318 478.772727,65.6002841 478.772727,65.9724432 L478.772727,65.9724432 L478.772727,66.0022727 C478.772727,66.1556818 478.71733,66.2664773 478.606534,66.3346591 C478.495739,66.4028409 478.318182,66.4518466 478.073864,66.4816761 C477.829545,66.5115057 477.511364,66.5491477 477.119318,66.5946023 C476.809659,66.6315341 476.505682,66.6855114 476.207386,66.7565341 C475.909091,66.8275568 475.639205,66.9326705 475.397727,67.071875 C475.15625,67.2110795 474.964489,67.4 474.822443,67.6386364 C474.680398,67.8772727 474.609375,68.18125 474.609375,68.5505682 C474.609375,68.9795455 474.706676,69.3417614 474.901278,69.6372159 C475.095881,69.9326705 475.360795,70.1578125 475.696023,70.312642 C476.03125,70.4674716 476.40625,70.5448864 476.821023,70.5448864 Z M477.098011,69.5221591 C476.737216,69.5221591 476.440341,69.4419034 476.207386,69.281392 C475.974432,69.1208807 475.857955,68.8829545 475.857955,68.5676136 C475.857955,68.3403409 475.918324,68.1578125 476.039063,68.0200284 C476.159801,67.8822443 476.321733,67.7764205 476.524858,67.7025568 C476.727983,67.6286932 476.953125,67.5761364 477.200284,67.5448864 C477.305398,67.5306818 477.43608,67.5129261 477.59233,67.4916193 C477.74858,67.4703125 477.909091,67.4461648 478.073864,67.4191761 C478.238636,67.3921875 478.385653,67.359517 478.514915,67.3211648 C478.644176,67.2828125 478.731534,67.2409091 478.776989,67.1954545 L478.776989,67.1954545 L478.776989,68.0392045 C478.776989,68.2977273 478.710938,68.5399148 478.578835,68.765767 C478.446733,68.9916193 478.254972,69.1741477 478.003551,69.3133523 C477.752131,69.4525568 477.450284,69.5221591 477.098011,69.5221591 Z M484.197443,70.5278409 C484.59517,70.5278409 484.919034,70.4610795 485.169034,70.3275568 C485.419034,70.1940341 485.615767,70.0377841 485.759233,69.8588068 C485.902699,69.6798295 486.012784,69.5207386 486.089489,69.3815341 L486.089489,69.3815341 L486.196023,69.3815341 L486.196023,70.4 L487.440341,70.4 L487.440341,61.6727273 L486.166193,61.6727273 L486.166193,64.915625 L486.089489,64.915625 C486.012784,64.7792614 485.90554,64.6215909 485.767756,64.4426136 C485.629972,64.2636364 485.43679,64.1066761 485.18821,63.971733 C484.939631,63.8367898 484.612216,63.7693182 484.205966,63.7693182 C483.680398,63.7693182 483.210227,63.9028409 482.795455,64.1698864 C482.380682,64.4369318 482.054688,64.821875 481.817472,65.3247159 C481.580256,65.8275568 481.461648,66.4326705 481.461648,67.1400568 C481.461648,67.8474432 481.578835,68.453267 481.81321,68.9575284 C482.047585,69.4617898 482.371449,69.8495739 482.784801,70.1208807 C483.198153,70.3921875 483.669034,70.5278409 484.197443,70.5278409 Z M484.478693,69.4411932 C484.100852,69.4411932 483.783381,69.3396307 483.526278,69.1365057 C483.269176,68.9333807 483.075284,68.6571023 482.944602,68.3076705 C482.81392,67.9582386 482.74858,67.5647727 482.74858,67.1272727 C482.74858,66.6954545 482.81321,66.3076705 482.942472,65.9639205 C483.071733,65.6201705 483.264205,65.3488636 483.519886,65.15 C483.775568,64.9511364 484.09517,64.8517045 484.478693,64.8517045 C484.850852,64.8517045 485.163352,64.946875 485.416193,65.1372159 C485.669034,65.3275568 485.860795,65.5931818 485.991477,65.9340909 C486.122159,66.275 486.1875,66.6727273 486.1875,67.1272727 C486.1875,67.5875 486.121449,67.9909091 485.989347,68.3375 C485.857244,68.6840909 485.664063,68.9546875 485.409801,69.1492898 C485.15554,69.343892 484.84517,69.4411932 484.478693,69.4411932 Z M492.012784,70.5321023 C492.62642,70.5321023 493.161932,70.3914773 493.619318,70.1102273 C494.076705,69.8289773 494.431818,69.4355114 494.684659,68.9298295 C494.9375,68.4241477 495.06392,67.8332386 495.06392,67.1571023 C495.06392,66.478125 494.9375,65.884375 494.684659,65.3758523 C494.431818,64.8673295 494.076705,64.4724432 493.619318,64.1911932 C493.161932,63.9099432 492.62642,63.7693182 492.012784,63.7693182 C491.399148,63.7693182 490.863636,63.9099432 490.40625,64.1911932 C489.948864,64.4724432 489.59375,64.8673295 489.340909,65.3758523 C489.088068,65.884375 488.961648,66.478125 488.961648,67.1571023 C488.961648,67.8332386 489.088068,68.4241477 489.340909,68.9298295 C489.59375,69.4355114 489.948864,69.8289773 490.40625,70.1102273 C490.863636,70.3914773 491.399148,70.5321023 492.012784,70.5321023 Z M492.017045,69.4625 C491.616477,69.4625 491.284801,69.3573864 491.022017,69.1471591 C490.759233,68.9369318 490.564631,68.6571023 490.43821,68.3076705 C490.31179,67.9582386 490.24858,67.5732955 490.24858,67.1528409 C490.24858,66.7352273 490.31179,66.3509943 490.43821,66.000142 C490.564631,65.6492898 490.759233,65.3673295 491.022017,65.1542614 C491.284801,64.9411932 491.616477,64.8346591 492.017045,64.8346591 C492.414773,64.8346591 492.744318,64.9411932 493.005682,65.1542614 C493.267045,65.3673295 493.460938,65.6492898 493.587358,66.000142 C493.713778,66.3509943 493.776989,66.7352273 493.776989,67.1528409 C493.776989,67.5732955 493.713778,67.9582386 493.587358,68.3076705 C493.460938,68.6571023 493.267045,68.9369318 493.005682,69.1471591 C492.744318,69.3573864 492.414773,69.4625 492.017045,69.4625 Z" id="maisespaçado" fill="#000000" fill-rule="nonzero" opacity="0.6"></path>
                <path d="M6.37926136,71.1 L6.37926136,67.0644886 C6.37926136,66.7690341 6.44105114,66.5090909 6.56463068,66.2846591 C6.68821023,66.0602273 6.8515625,65.8848011 7.0546875,65.7583807 C7.2578125,65.6319602 7.48011364,65.56875 7.72159091,65.56875 C8.07670455,65.56875 8.36505682,65.6767045 8.58664773,65.8926136 C8.80823864,66.1085227 8.91903409,66.3940341 8.91903409,66.7491477 L8.91903409,66.7491477 L8.91903409,71.1 L10.1889205,71.1 L10.1889205,66.928125 C10.1889205,66.5303977 10.3039773,66.2044034 10.5340909,65.950142 C10.7642045,65.6958807 11.0866477,65.56875 11.5014205,65.56875 C11.8366477,65.56875 12.125,65.6681818 12.3664773,65.8670455 C12.6079545,66.0659091 12.7286932,66.3869318 12.7286932,66.8301136 L12.7286932,66.8301136 L12.7286932,71.1 L14.0028409,71.1 L14.0028409,66.7107955 C14.0028409,65.9607955 13.8146307,65.3997159 13.4382102,65.0275568 C13.0617898,64.6553977 12.5767045,64.4693182 11.9829545,64.4693182 C11.5113636,64.4693182 11.1051136,64.5737216 10.7642045,64.7825284 C10.4232955,64.9913352 10.1747159,65.2704545 10.0184659,65.6198864 L10.0184659,65.6198864 L9.95028409,65.6198864 C9.80823864,65.2619318 9.58877841,64.9806818 9.29190341,64.7761364 C8.99502841,64.5715909 8.62784091,64.4693182 8.19034091,64.4693182 C7.75852273,64.4693182 7.38778409,64.5708807 7.078125,64.7740057 C6.76846591,64.9771307 6.54545455,65.2590909 6.40909091,65.6198864 L6.40909091,65.6198864 L6.328125,65.6198864 L6.328125,64.5545455 L5.10511364,64.5545455 L5.10511364,71.1 L6.37926136,71.1 Z M18.5284091,71.2321023 C19.0056818,71.2321023 19.431108,71.1589489 19.8046875,71.012642 C20.178267,70.8663352 20.4893466,70.6603693 20.7379261,70.3947443 C20.9865057,70.1291193 21.1590909,69.81875 21.2556818,69.4636364 L21.2556818,69.4636364 L20.0497159,69.2463068 C19.9730114,69.4508523 19.8622159,69.6227273 19.7173295,69.7619318 C19.5724432,69.9011364 19.4005682,70.0055398 19.2017045,70.075142 C19.0028409,70.1447443 18.7826705,70.1795455 18.5411932,70.1795455 C18.1690341,70.1795455 17.84375,70.0992898 17.5653409,69.9387784 C17.2869318,69.778267 17.0703125,69.5446023 16.915483,69.2377841 C16.7606534,68.9309659 16.6832386,68.5588068 16.6832386,68.1213068 L16.686,68.211 L21.3366477,68.2107955 L21.3366477,67.7590909 C21.3366477,67.1653409 21.2571023,66.6603693 21.0980114,66.2441761 C20.9389205,65.827983 20.7215909,65.4892045 20.4460227,65.2278409 C20.1704545,64.9664773 19.859375,64.7747159 19.5127841,64.6525568 C19.1661932,64.5303977 18.8082386,64.4693182 18.4389205,64.4693182 C17.8309659,64.4693182 17.3004261,64.6127841 16.8473011,64.8997159 C16.3941761,65.1866477 16.0419034,65.5857955 15.790483,66.0971591 C15.5390625,66.6085227 15.4133523,67.1994318 15.4133523,67.8698864 C15.4133523,68.5488636 15.5390625,69.140483 15.790483,69.6447443 C16.0419034,70.1490057 16.399858,70.5396307 16.8643466,70.8166193 C17.3288352,71.093608 17.8835227,71.2321023 18.5284091,71.2321023 Z M16.6918466,67.182358 C16.7148011,66.9284943 16.7836648,66.6896307 16.8984375,66.465767 C17.0419034,66.1859375 17.2464489,65.9586648 17.5120739,65.7839489 C17.7776989,65.609233 18.0894886,65.521875 18.4474432,65.521875 C18.7769886,65.521875 19.0646307,65.5971591 19.3103693,65.7477273 C19.556108,65.8982955 19.7471591,66.1035511 19.8835227,66.3634943 C20.0198864,66.6234375 20.0880682,66.9210227 20.0880682,67.25625 L20.0880682,67.25625 L16.688,67.257 L16.6918466,67.182358 Z M24.0298295,71.1 L24.0298295,67.2136364 C24.0298295,66.8670455 24.0958807,66.5708807 24.227983,66.325142 C24.3600852,66.0794034 24.540483,65.8926136 24.7691761,65.7647727 C24.9978693,65.6369318 25.2599432,65.5730114 25.5553977,65.5730114 C25.9872159,65.5730114 26.3267045,65.7072443 26.5738636,65.9757102 C26.8210227,66.2441761 26.9446023,66.615625 26.9446023,67.0900568 L26.9446023,67.0900568 L26.9446023,71.1 L28.21875,71.1 L28.21875,66.9366477 C28.21875,66.396875 28.1264205,65.94375 27.9417614,65.5772727 C27.7571023,65.2107955 27.4971591,64.934517 27.1619318,64.7484375 C26.8267045,64.562358 26.4360795,64.4693182 25.9900568,64.4693182 C25.4985795,64.4693182 25.0916193,64.5744318 24.7691761,64.7846591 C24.446733,64.9948864 24.2102273,65.2732955 24.0596591,65.6198864 L24.0596591,65.6198864 L23.9786932,65.6198864 L23.9786932,64.5545455 L22.7556818,64.5545455 L22.7556818,71.1 L24.0298295,71.1 Z M32.6803977,71.2321023 C33.2940341,71.2321023 33.8295455,71.0914773 34.2869318,70.8102273 C34.7443182,70.5289773 35.0994318,70.1355114 35.3522727,69.6298295 C35.6051136,69.1241477 35.7315341,68.5332386 35.7315341,67.8571023 C35.7315341,67.178125 35.6051136,66.584375 35.3522727,66.0758523 C35.0994318,65.5673295 34.7443182,65.1724432 34.2869318,64.8911932 C33.8295455,64.6099432 33.2940341,64.4693182 32.6803977,64.4693182 C32.0667614,64.4693182 31.53125,64.6099432 31.0738636,64.8911932 C30.6164773,65.1724432 30.2613636,65.5673295 30.0085227,66.0758523 C29.7556818,66.584375 29.6292614,67.178125 29.6292614,67.8571023 C29.6292614,68.5332386 29.7556818,69.1241477 30.0085227,69.6298295 C30.2613636,70.1355114 30.6164773,70.5289773 31.0738636,70.8102273 C31.53125,71.0914773 32.0667614,71.2321023 32.6803977,71.2321023 Z M32.6846591,70.1625 C32.2840909,70.1625 31.9524148,70.0573864 31.6896307,69.8471591 C31.4268466,69.6369318 31.2322443,69.3571023 31.1058239,69.0076705 C30.9794034,68.6582386 30.9161932,68.2732955 30.9161932,67.8528409 C30.9161932,67.4352273 30.9794034,67.0509943 31.1058239,66.700142 C31.2322443,66.3492898 31.4268466,66.0673295 31.6896307,65.8542614 C31.9524148,65.6411932 32.2840909,65.5346591 32.6846591,65.5346591 C33.0823864,65.5346591 33.4119318,65.6411932 33.6732955,65.8542614 C33.9346591,66.0673295 34.1285511,66.3492898 34.2549716,66.700142 C34.381392,67.0509943 34.4446023,67.4352273 34.4446023,67.8528409 C34.4446023,68.2732955 34.381392,68.6582386 34.2549716,69.0076705 C34.1285511,69.3571023 33.9346591,69.6369318 33.6732955,69.8471591 C33.4119318,70.0573864 33.0823864,70.1625 32.6846591,70.1625 Z M39.5071023,71.2321023 C40.0355114,71.2321023 40.5007102,71.1454545 40.9026989,70.9721591 C41.3046875,70.7988636 41.618608,70.559517 41.8444602,70.2541193 C42.0703125,69.9487216 42.1832386,69.6 42.1832386,69.2079545 C42.1832386,68.7448864 42.0355114,68.3684659 41.7400568,68.0786932 C41.4446023,67.7889205 40.9957386,67.5744318 40.3934659,67.4352273 L40.3934659,67.4352273 L39.3536932,67.1965909 C38.9928977,67.1113636 38.7315341,67.0019886 38.5696023,66.8684659 C38.4076705,66.7349432 38.3267045,66.5588068 38.3267045,66.3400568 C38.3267045,66.0872159 38.4474432,65.8805398 38.6889205,65.7200284 C38.9303977,65.559517 39.2315341,65.4792614 39.5923295,65.4792614 C39.8565341,65.4792614 40.0767045,65.521875 40.2528409,65.6071023 C40.4289773,65.6923295 40.568892,65.8017045 40.6725852,65.9352273 C40.7762784,66.06875 40.8522727,66.209375 40.9005682,66.3571023 L40.9005682,66.3571023 L42.0553977,66.1525568 C41.9247159,65.6411932 41.65625,65.2328125 41.25,64.9274148 C40.84375,64.622017 40.2869318,64.4693182 39.5795455,64.4693182 C39.0880682,64.4693182 38.6519886,64.5509943 38.2713068,64.7143466 C37.890625,64.8776989 37.5923295,65.1042614 37.3764205,65.3940341 C37.1605114,65.6838068 37.0525568,66.021875 37.0525568,66.4082386 C37.0525568,66.8741477 37.1981534,67.2590909 37.4893466,67.5630682 C37.7805398,67.8670455 38.2315341,68.0886364 38.8423295,68.2278409 L38.8423295,68.2278409 L39.9502841,68.4707386 C40.2627841,68.5417614 40.4950284,68.646875 40.647017,68.7860795 C40.7990057,68.9252841 40.875,69.0971591 40.875,69.3017045 C40.875,69.5545455 40.75,69.7683239 40.5,69.9430398 C40.25,70.1177557 39.9161932,70.2051136 39.4985795,70.2051136 C39.1150568,70.2051136 38.8039773,70.1234375 38.5653409,69.9600852 C38.3267045,69.796733 38.1690341,69.5545455 38.0923295,69.2335227 L38.0923295,69.2335227 L36.8607955,69.4210227 C36.9659091,70.0005682 37.25,70.4473011 37.7130682,70.7612216 C38.1761364,71.075142 38.7741477,71.2321023 39.5071023,71.2321023 Z M49.5809659,71.2321023 C50.0582386,71.2321023 50.4836648,71.1589489 50.8572443,71.012642 C51.2308239,70.8663352 51.5419034,70.6603693 51.790483,70.3947443 C52.0390625,70.1291193 52.2116477,69.81875 52.3082386,69.4636364 L52.3082386,69.4636364 L51.1022727,69.2463068 C51.0255682,69.4508523 50.9147727,69.6227273 50.7698864,69.7619318 C50.625,69.9011364 50.453125,70.0055398 50.2542614,70.075142 C50.0553977,70.1447443 49.8352273,70.1795455 49.59375,70.1795455 C49.2215909,70.1795455 48.8963068,70.0992898 48.6178977,69.9387784 C48.3394886,69.778267 48.1228693,69.5446023 47.9680398,69.2377841 C47.8132102,68.9309659 47.7357955,68.5588068 47.7357955,68.1213068 L47.738,68.211 L52.3892045,68.2107955 L52.3892045,67.7590909 C52.3892045,67.1653409 52.3096591,66.6603693 52.1505682,66.2441761 C51.9914773,65.827983 51.7741477,65.4892045 51.4985795,65.2278409 C51.2230114,64.9664773 50.9119318,64.7747159 50.5653409,64.6525568 C50.21875,64.5303977 49.8607955,64.4693182 49.4914773,64.4693182 C48.8835227,64.4693182 48.352983,64.6127841 47.899858,64.8997159 C47.446733,65.1866477 47.0944602,65.5857955 46.8430398,66.0971591 C46.5916193,66.6085227 46.4659091,67.1994318 46.4659091,67.8698864 C46.4659091,68.5488636 46.5916193,69.140483 46.8430398,69.6447443 C47.0944602,70.1490057 47.4524148,70.5396307 47.9169034,70.8166193 C48.381392,71.093608 48.9360795,71.2321023 49.5809659,71.2321023 Z M47.7444034,67.182358 C47.767358,66.9284943 47.8362216,66.6896307 47.9509943,66.465767 C48.0944602,66.1859375 48.2990057,65.9586648 48.5646307,65.7839489 C48.8302557,65.609233 49.1420455,65.521875 49.5,65.521875 C49.8295455,65.521875 50.1171875,65.5971591 50.3629261,65.7477273 C50.6086648,65.8982955 50.7997159,66.1035511 50.9360795,66.3634943 C51.0724432,66.6234375 51.140625,66.9210227 51.140625,67.25625 L51.140625,67.25625 L47.741,67.257 L47.7444034,67.182358 Z M56.1647727,71.2321023 C56.6931818,71.2321023 57.1583807,71.1454545 57.5603693,70.9721591 C57.962358,70.7988636 58.2762784,70.559517 58.5021307,70.2541193 C58.727983,69.9487216 58.8409091,69.6 58.8409091,69.2079545 C58.8409091,68.7448864 58.6931818,68.3684659 58.3977273,68.0786932 C58.1022727,67.7889205 57.6534091,67.5744318 57.0511364,67.4352273 L57.0511364,67.4352273 L56.0113636,67.1965909 C55.6505682,67.1113636 55.3892045,67.0019886 55.2272727,66.8684659 C55.0653409,66.7349432 54.984375,66.5588068 54.984375,66.3400568 C54.984375,66.0872159 55.1051136,65.8805398 55.3465909,65.7200284 C55.5880682,65.559517 55.8892045,65.4792614 56.25,65.4792614 C56.5142045,65.4792614 56.734375,65.521875 56.9105114,65.6071023 C57.0866477,65.6923295 57.2265625,65.8017045 57.3302557,65.9352273 C57.4339489,66.06875 57.5099432,66.209375 57.5582386,66.3571023 L57.5582386,66.3571023 L58.7130682,66.1525568 C58.5823864,65.6411932 58.3139205,65.2328125 57.9076705,64.9274148 C57.5014205,64.622017 56.9446023,64.4693182 56.2372159,64.4693182 C55.7457386,64.4693182 55.3096591,64.5509943 54.9289773,64.7143466 C54.5482955,64.8776989 54.25,65.1042614 54.0340909,65.3940341 C53.8181818,65.6838068 53.7102273,66.021875 53.7102273,66.4082386 C53.7102273,66.8741477 53.8558239,67.2590909 54.147017,67.5630682 C54.4382102,67.8670455 54.8892045,68.0886364 55.5,68.2278409 L55.5,68.2278409 L56.6079545,68.4707386 C56.9204545,68.5417614 57.1526989,68.646875 57.3046875,68.7860795 C57.4566761,68.9252841 57.5326705,69.0971591 57.5326705,69.3017045 C57.5326705,69.5545455 57.4076705,69.7683239 57.1576705,69.9430398 C56.9076705,70.1177557 56.5738636,70.2051136 56.15625,70.2051136 C55.7727273,70.2051136 55.4616477,70.1234375 55.2230114,69.9600852 C54.984375,69.796733 54.8267045,69.5545455 54.75,69.2335227 L54.75,69.2335227 L53.5184659,69.4210227 C53.6235795,70.0005682 53.9076705,70.4473011 54.3707386,70.7612216 C54.8338068,71.075142 55.4318182,71.2321023 56.1647727,71.2321023 Z M61.5127841,73.5545455 L61.5127841,70.0815341 L61.5894886,70.0815341 C61.6661932,70.2207386 61.7755682,70.3798295 61.9176136,70.5588068 C62.0596591,70.7377841 62.256392,70.8940341 62.5078125,71.0275568 C62.759233,71.1610795 63.0838068,71.2278409 63.4815341,71.2278409 C64.0099432,71.2278409 64.4801136,71.0921875 64.8920455,70.8208807 C65.3039773,70.5495739 65.6278409,70.1617898 65.8636364,69.6575284 C66.0994318,69.153267 66.2173295,68.5474432 66.2173295,67.8400568 C66.2173295,67.1326705 66.0987216,66.5275568 65.8615057,66.0247159 C65.6242898,65.521875 65.2982955,65.1369318 64.8835227,64.8698864 C64.46875,64.6028409 63.9971591,64.4693182 63.46875,64.4693182 C63.0625,64.4693182 62.7357955,64.5367898 62.4886364,64.671733 C62.2414773,64.8066761 62.0482955,64.9636364 61.9090909,65.1426136 C61.7698864,65.3215909 61.6633523,65.4792614 61.5894886,65.615625 L61.5894886,65.615625 L61.4829545,65.615625 L61.4829545,64.5545455 L60.2386364,64.5545455 L60.2386364,73.5545455 L61.5127841,73.5545455 Z M63.1960227,70.1411932 C62.8295455,70.1411932 62.5198864,70.043892 62.2670455,69.8492898 C62.0142045,69.6546875 61.8210227,69.3840909 61.6875,69.0375 C61.5539773,68.6909091 61.4872159,68.2875 61.4872159,67.8272727 C61.4872159,67.3727273 61.5525568,66.975 61.6832386,66.6340909 C61.8139205,66.2931818 62.006392,66.0275568 62.2606534,65.8372159 C62.5149148,65.646875 62.8267045,65.5517045 63.1960227,65.5517045 C63.5795455,65.5517045 63.899858,65.6511364 64.1569602,65.85 C64.4140625,66.0488636 64.6072443,66.3201705 64.7365057,66.6639205 C64.865767,67.0076705 64.9303977,67.3954545 64.9303977,67.8272727 C64.9303977,68.2647727 64.8643466,68.6582386 64.7322443,69.0076705 C64.600142,69.3571023 64.40625,69.6333807 64.1505682,69.8365057 C63.8948864,70.0396307 63.5767045,70.1411932 63.1960227,70.1411932 Z M69.5497159,71.2448864 C69.9105114,71.2448864 70.2201705,71.1923295 70.4786932,71.0872159 C70.7372159,70.9821023 70.9488636,70.85 71.1136364,70.6909091 C71.2784091,70.5318182 71.4019886,70.3698864 71.484375,70.2051136 L71.484375,70.2051136 L71.5355114,70.2051136 L71.5355114,71.1 L72.7798295,71.1 L72.7798295,66.7534091 C72.7798295,66.2761364 72.6974432,65.887642 72.5326705,65.5879261 C72.3678977,65.2882102 72.1569602,65.0573864 71.899858,64.8954545 C71.6427557,64.7335227 71.3671875,64.622017 71.0731534,64.5609375 C70.7791193,64.499858 70.5014205,64.4693182 70.2400568,64.4693182 C69.8451705,64.4693182 69.46875,64.5254261 69.1107955,64.637642 C68.7528409,64.749858 68.4367898,64.9288352 68.162642,65.1745739 C67.8884943,65.4203125 67.6803977,65.7420455 67.5383523,66.1397727 L67.5383523,66.1397727 L68.7357955,66.4125 C68.8295455,66.1823864 68.9992898,65.9728693 69.2450284,65.7839489 C69.490767,65.5950284 69.828125,65.5005682 70.2571023,65.5005682 C70.6690341,65.5005682 70.9794034,65.6028409 71.1882102,65.8073864 C71.397017,66.0119318 71.5014205,66.3002841 71.5014205,66.6724432 L71.5014205,66.6724432 L71.5014205,66.7022727 C71.5014205,66.8556818 71.4460227,66.9664773 71.3352273,67.0346591 C71.2244318,67.1028409 71.046875,67.1518466 70.8025568,67.1816761 C70.5582386,67.2115057 70.2400568,67.2491477 69.8480114,67.2946023 C69.5383523,67.3315341 69.234375,67.3855114 68.9360795,67.4565341 C68.6377841,67.5275568 68.3678977,67.6326705 68.1264205,67.771875 C67.8849432,67.9110795 67.6931818,68.1 67.5511364,68.3386364 C67.4090909,68.5772727 67.3380682,68.88125 67.3380682,69.2505682 C67.3380682,69.6795455 67.4353693,70.0417614 67.6299716,70.3372159 C67.8245739,70.6326705 68.0894886,70.8578125 68.4247159,71.012642 C68.7599432,71.1674716 69.1349432,71.2448864 69.5497159,71.2448864 Z M69.8267045,70.2221591 C69.4659091,70.2221591 69.1690341,70.1419034 68.9360795,69.981392 C68.703125,69.8208807 68.5866477,69.5829545 68.5866477,69.2676136 C68.5866477,69.0403409 68.647017,68.8578125 68.7677557,68.7200284 C68.8884943,68.5822443 69.0504261,68.4764205 69.2535511,68.4025568 C69.4566761,68.3286932 69.6818182,68.2761364 69.9289773,68.2448864 C70.0340909,68.2306818 70.1647727,68.2129261 70.3210227,68.1916193 C70.4772727,68.1703125 70.6377841,68.1461648 70.8025568,68.1191761 C70.9673295,68.0921875 71.1143466,68.059517 71.243608,68.0211648 C71.3728693,67.9828125 71.4602273,67.9409091 71.5056818,67.8954545 L71.5056818,67.8954545 L71.5056818,68.7392045 C71.5056818,68.9977273 71.4396307,69.2399148 71.3075284,69.465767 C71.1754261,69.6916193 70.9836648,69.8741477 70.7322443,70.0133523 C70.4808239,70.1525568 70.1789773,70.2221591 69.8267045,70.2221591 Z M76.5213068,73.725 C77.1519886,73.725 77.634233,73.6056818 77.9680398,73.3670455 C78.3018466,73.1284091 78.4673295,72.8173295 78.4644886,72.4338068 C78.4644886,72.1127841 78.3721591,71.8727273 78.1875,71.7136364 C78.0028409,71.5545455 77.7869318,71.4551136 77.5397727,71.4153409 L77.5397727,71.4153409 L77.578,71.216 L77.6599606,71.2087952 C77.9338474,71.1777192 78.1861665,71.115567 78.4169179,71.0223388 L78.5859375,70.9465909 C78.9708807,70.75625 79.2784091,70.4948864 79.5085227,70.1625 C79.7386364,69.8301136 79.8764205,69.4522727 79.921875,69.0289773 L79.921875,69.0289773 L78.6818182,69.0289773 C78.6278409,69.2647727 78.5333807,69.4664773 78.3984375,69.6340909 C78.2634943,69.8017045 78.0973011,69.9302557 77.899858,70.0197443 C77.7024148,70.109233 77.4829545,70.1539773 77.2414773,70.1539773 C76.8806818,70.1539773 76.5674716,70.0588068 76.3018466,69.8684659 C76.0362216,69.678125 75.8309659,69.4096591 75.6860795,69.0630682 C75.5411932,68.7164773 75.46875,68.3045455 75.46875,67.8272727 C75.46875,67.3613636 75.5426136,66.9572443 75.6903409,66.6149148 C75.8380682,66.2725852 76.0447443,66.0083807 76.3103693,65.8223011 C76.5759943,65.6362216 76.8863636,65.5431818 77.2414773,65.5431818 C77.6477273,65.5431818 77.9723011,65.6539773 78.2151989,65.8755682 C78.4580966,66.0971591 78.6136364,66.3613636 78.6818182,66.6681818 L78.6818182,66.6681818 L79.921875,66.6681818 C79.8764205,66.2278409 79.7336648,65.8428977 79.493608,65.5133523 C79.2535511,65.1838068 78.9389205,64.9274148 78.5497159,64.7441761 C78.1605114,64.5609375 77.7173295,64.4693182 77.2201705,64.4693182 C76.6036932,64.4693182 76.0681818,64.6127841 75.6136364,64.8997159 C75.1590909,65.1866477 74.8068182,65.5850852 74.5568182,66.0950284 C74.3068182,66.6049716 74.1818182,67.1923295 74.1818182,67.8571023 C74.1818182,68.5133523 74.3039773,69.0957386 74.5482955,69.6042614 C74.7926136,70.1127841 75.1427557,70.5112216 75.5987216,70.7995739 C75.8837003,70.979794 76.203358,71.1036954 76.5576949,71.171278 L76.744,71.201 L76.5980114,71.9096591 C76.8480114,71.9346591 77.0439205,71.9742045 77.1857386,72.0282955 L77.2819602,72.0715909 C77.4254261,72.1482955 77.4957386,72.2818182 77.4928977,72.4721591 C77.4900568,72.6625 77.397017,72.8002841 77.2137784,72.8855114 C77.0305398,72.9707386 76.7911932,73.0133523 76.4957386,73.0133523 L76.4957386,73.0133523 L76.5213068,73.725 Z M83.1946023,71.2448864 C83.5553977,71.2448864 83.8650568,71.1923295 84.1235795,71.0872159 C84.3821023,70.9821023 84.59375,70.85 84.7585227,70.6909091 C84.9232955,70.5318182 85.046875,70.3698864 85.1292614,70.2051136 L85.1292614,70.2051136 L85.1803977,70.2051136 L85.1803977,71.1 L86.4247159,71.1 L86.4247159,66.7534091 C86.4247159,66.2761364 86.3423295,65.887642 86.1775568,65.5879261 C86.0127841,65.2882102 85.8018466,65.0573864 85.5447443,64.8954545 C85.287642,64.7335227 85.0120739,64.622017 84.7180398,64.5609375 C84.4240057,64.499858 84.1463068,64.4693182 83.8849432,64.4693182 C83.4900568,64.4693182 83.1136364,64.5254261 82.7556818,64.637642 C82.3977273,64.749858 82.0816761,64.9288352 81.8075284,65.1745739 C81.5333807,65.4203125 81.3252841,65.7420455 81.1832386,66.1397727 L81.1832386,66.1397727 L82.3806818,66.4125 C82.4744318,66.1823864 82.6441761,65.9728693 82.8899148,65.7839489 C83.1356534,65.5950284 83.4730114,65.5005682 83.9019886,65.5005682 C84.3139205,65.5005682 84.6242898,65.6028409 84.8330966,65.8073864 C85.0419034,66.0119318 85.1463068,66.3002841 85.1463068,66.6724432 L85.1463068,66.6724432 L85.1463068,66.7022727 C85.1463068,66.8556818 85.0909091,66.9664773 84.9801136,67.0346591 C84.8693182,67.1028409 84.6917614,67.1518466 84.4474432,67.1816761 C84.203125,67.2115057 83.8849432,67.2491477 83.4928977,67.2946023 C83.1832386,67.3315341 82.8792614,67.3855114 82.5809659,67.4565341 C82.2826705,67.5275568 82.0127841,67.6326705 81.7713068,67.771875 C81.5298295,67.9110795 81.3380682,68.1 81.1960227,68.3386364 C81.0539773,68.5772727 80.9829545,68.88125 80.9829545,69.2505682 C80.9829545,69.6795455 81.0802557,70.0417614 81.274858,70.3372159 C81.4694602,70.6326705 81.734375,70.8578125 82.0696023,71.012642 C82.4048295,71.1674716 82.7798295,71.2448864 83.1946023,71.2448864 Z M83.4715909,70.2221591 C83.1107955,70.2221591 82.8139205,70.1419034 82.5809659,69.981392 C82.3480114,69.8208807 82.2315341,69.5829545 82.2315341,69.2676136 C82.2315341,69.0403409 82.2919034,68.8578125 82.412642,68.7200284 C82.5333807,68.5822443 82.6953125,68.4764205 82.8984375,68.4025568 C83.1015625,68.3286932 83.3267045,68.2761364 83.5738636,68.2448864 C83.6789773,68.2306818 83.8096591,68.2129261 83.9659091,68.1916193 C84.1221591,68.1703125 84.2826705,68.1461648 84.4474432,68.1191761 C84.6122159,68.0921875 84.759233,68.059517 84.8884943,68.0211648 C85.0177557,67.9828125 85.1051136,67.9409091 85.1505682,67.8954545 L85.1505682,67.8954545 L85.1505682,68.7392045 C85.1505682,68.9977273 85.084517,69.2399148 84.9524148,69.465767 C84.8203125,69.6916193 84.6285511,69.8741477 84.3771307,70.0133523 C84.1257102,70.1525568 83.8238636,70.2221591 83.4715909,70.2221591 Z M90.5710227,71.2278409 C90.96875,71.2278409 91.2926136,71.1610795 91.5426136,71.0275568 C91.7926136,70.8940341 91.9893466,70.7377841 92.1328125,70.5588068 C92.2762784,70.3798295 92.3863636,70.2207386 92.4630682,70.0815341 L92.4630682,70.0815341 L92.5696023,70.0815341 L92.5696023,71.1 L93.8139205,71.1 L93.8139205,62.3727273 L92.5397727,62.3727273 L92.5397727,65.615625 L92.4630682,65.615625 C92.3863636,65.4792614 92.2791193,65.3215909 92.1413352,65.1426136 C92.0035511,64.9636364 91.8103693,64.8066761 91.5617898,64.671733 C91.3132102,64.5367898 90.9857955,64.4693182 90.5795455,64.4693182 C90.0539773,64.4693182 89.5838068,64.6028409 89.1690341,64.8698864 C88.7542614,65.1369318 88.428267,65.521875 88.1910511,66.0247159 C87.9538352,66.5275568 87.8352273,67.1326705 87.8352273,67.8400568 C87.8352273,68.5474432 87.9524148,69.153267 88.1867898,69.6575284 C88.4211648,70.1617898 88.7450284,70.5495739 89.1583807,70.8208807 C89.571733,71.0921875 90.0426136,71.2278409 90.5710227,71.2278409 Z M90.8522727,70.1411932 C90.4744318,70.1411932 90.1569602,70.0396307 89.899858,69.8365057 C89.6427557,69.6333807 89.4488636,69.3571023 89.3181818,69.0076705 C89.1875,68.6582386 89.1221591,68.2647727 89.1221591,67.8272727 C89.1221591,67.3954545 89.1867898,67.0076705 89.3160511,66.6639205 C89.4453125,66.3201705 89.6377841,66.0488636 89.8934659,65.85 C90.1491477,65.6511364 90.46875,65.5517045 90.8522727,65.5517045 C91.2244318,65.5517045 91.5369318,65.646875 91.7897727,65.8372159 C92.0426136,66.0275568 92.234375,66.2931818 92.3650568,66.6340909 C92.4957386,66.975 92.5610795,67.3727273 92.5610795,67.8272727 C92.5610795,68.2875 92.4950284,68.6909091 92.3629261,69.0375 C92.2308239,69.3840909 92.037642,69.6546875 91.7833807,69.8492898 C91.5291193,70.043892 91.21875,70.1411932 90.8522727,70.1411932 Z M98.3863636,71.2321023 C99,71.2321023 99.5355114,71.0914773 99.9928977,70.8102273 C100.450284,70.5289773 100.805398,70.1355114 101.058239,69.6298295 C101.31108,69.1241477 101.4375,68.5332386 101.4375,67.8571023 C101.4375,67.178125 101.31108,66.584375 101.058239,66.0758523 C100.805398,65.5673295 100.450284,65.1724432 99.9928977,64.8911932 C99.5355114,64.6099432 99,64.4693182 98.3863636,64.4693182 C97.7727273,64.4693182 97.2372159,64.6099432 96.7798295,64.8911932 C96.3224432,65.1724432 95.9673295,65.5673295 95.7144886,66.0758523 C95.4616477,66.584375 95.3352273,67.178125 95.3352273,67.8571023 C95.3352273,68.5332386 95.4616477,69.1241477 95.7144886,69.6298295 C95.9673295,70.1355114 96.3224432,70.5289773 96.7798295,70.8102273 C97.2372159,71.0914773 97.7727273,71.2321023 98.3863636,71.2321023 Z M98.390625,70.1625 C97.9900568,70.1625 97.6583807,70.0573864 97.3955966,69.8471591 C97.1328125,69.6369318 96.9382102,69.3571023 96.8117898,69.0076705 C96.6853693,68.6582386 96.6221591,68.2732955 96.6221591,67.8528409 C96.6221591,67.4352273 96.6853693,67.0509943 96.8117898,66.700142 C96.9382102,66.3492898 97.1328125,66.0673295 97.3955966,65.8542614 C97.6583807,65.6411932 97.9900568,65.5346591 98.390625,65.5346591 C98.7883523,65.5346591 99.1178977,65.6411932 99.3792614,65.8542614 C99.640625,66.0673295 99.834517,66.3492898 99.9609375,66.700142 C100.087358,67.0509943 100.150568,67.4352273 100.150568,67.8528409 C100.150568,68.2732955 100.087358,68.6582386 99.9609375,69.0076705 C99.834517,69.3571023 99.640625,69.6369318 99.3792614,69.8471591 C99.1178977,70.0573864 98.7883523,70.1625 98.390625,70.1625 Z" id="menosespaçado" fill="#000000" fill-rule="nonzero" opacity="0.6"></path>
                <path d="M331.268324,14.193892 C332.086979,14.193892 332.788802,13.9867424 333.373793,13.5724432 C333.958783,13.1581439 334.407884,12.55741 334.721094,11.7702415 C335.034304,10.9830729 335.190909,10.0326705 335.190909,8.91903409 C335.190909,7.81202652 335.034304,6.86742424 334.721094,6.08522727 C334.407884,5.3030303 333.957955,4.70643939 333.371307,4.29545455 C332.784659,3.8844697 332.083665,3.67897727 331.268324,3.67897727 C330.452983,3.67897727 329.752817,3.8844697 329.167827,4.29545455 C328.582836,4.70643939 328.133736,5.3022017 327.820526,6.08274148 C327.507315,6.86328125 327.349053,7.80871212 327.345739,8.91903409 C327.345739,10.0293561 327.502344,10.9781013 327.815554,11.7652699 C328.128764,12.5524384 328.577865,13.1540009 329.162855,13.5699574 C329.747846,13.9859138 330.449669,14.193892 331.268324,14.193892 Z M331.268324,12.6377841 C330.844081,12.6377841 330.477841,12.4977509 330.169602,12.2176847 C329.861364,11.9376184 329.623556,11.5208333 329.456179,10.9673295 C329.288802,10.4138258 329.206771,9.73106061 329.210085,8.91903409 C329.2134,7.70596591 329.399006,6.78539299 329.766903,6.15731534 C330.134801,5.52923769 330.635275,5.21519886 331.268324,5.21519886 C331.689252,5.21519886 332.053835,5.35523201 332.362074,5.6352983 C332.670312,5.91536458 332.908949,6.33049242 333.077983,6.88068182 C333.247017,7.43087121 333.331534,8.11032197 333.331534,8.91903409 C333.331534,10.1420455 333.146757,11.06759 332.777202,11.6956676 C332.407647,12.3237453 331.904687,12.6377841 331.268324,12.6377841 Z M337.572301,14.109375 C337.76785,14.109375 337.947656,14.0604877 338.111719,13.9627131 C338.275781,13.8649384 338.408357,13.7331913 338.509446,13.5674716 C338.610535,13.4017519 338.662737,13.217803 338.666051,13.015625 C338.662737,12.7173295 338.552533,12.4621212 338.33544,12.25 C338.118348,12.0378788 337.863968,11.9318182 337.572301,11.9318182 C337.270691,11.9318182 337.012169,12.0378788 336.796733,12.25 C336.581297,12.4621212 336.475237,12.7173295 336.478551,13.015625 C336.475237,13.3205492 336.581297,13.579072 336.796733,13.7911932 C337.012169,14.0033144 337.270691,14.109375 337.572301,14.109375 Z M343.399006,14 L343.399006,3.81818182 L341.644034,3.81818182 L339.113494,5.44389205 L339.113494,7.13423295 L341.494886,5.61292614 L341.554545,5.61292614 L341.554545,14 L343.399006,14 Z M349.528977,14.1392045 C350.248201,14.1392045 350.882079,13.9892282 351.430611,13.6892756 C351.979143,13.3893229 352.408357,12.9766809 352.718253,12.4513494 C353.028149,11.926018 353.183097,11.3269413 353.183097,10.6541193 C353.183097,10.0011837 353.043892,9.42116477 352.765483,8.9140625 C352.487074,8.40696023 352.105919,8.00840436 351.622017,7.71839489 C351.138116,7.42838542 350.587926,7.28338068 349.971449,7.28338068 C349.560464,7.28338068 349.182623,7.35712595 348.837926,7.50461648 C348.493229,7.65210701 348.22642,7.83688447 348.0375,8.05894886 L348.0375,8.05894886 L347.977841,8.05894886 L348.271165,5.359375 L352.651136,5.359375 L352.651136,3.81818182 L346.744886,3.81818182 L346.212926,9.06818182 L347.878409,9.34161932 C348.050758,9.15269886 348.284422,9.00023674 348.579403,8.88423295 C348.874384,8.76822917 349.174337,8.71188447 349.479261,8.71519886 C349.853788,8.71519886 350.185227,8.80054451 350.47358,8.9712358 C350.761932,9.14192708 350.988968,9.37642045 351.154687,9.67471591 C351.320407,9.97301136 351.40161,10.3143939 351.398295,10.6988636 C351.40161,11.0767045 351.322064,11.4131155 351.159659,11.7080966 C350.997254,12.0030777 350.775189,12.233428 350.493466,12.3991477 C350.211742,12.5648674 349.890246,12.6477273 349.528977,12.6477273 C349.068277,12.6477273 348.673864,12.5159801 348.345739,12.2524858 C348.017614,11.9889915 347.836979,11.6484375 347.803835,11.2308239 L347.803835,11.2308239 L346.014062,11.2308239 C346.033949,11.7942708 346.197183,12.2947443 346.503764,12.7322443 C346.810346,13.1697443 347.225473,13.5136127 347.749148,13.7638494 C348.272822,14.0140862 348.866098,14.1392045 349.528977,14.1392045 Z" id="0.15" fill="#000000" fill-rule="nonzero" opacity="0.8"></path>
                <path d="M383.068324,14.193892 C383.886979,14.193892 384.588802,13.9867424 385.173793,13.5724432 C385.758783,13.1581439 386.207884,12.55741 386.521094,11.7702415 C386.834304,10.9830729 386.990909,10.0326705 386.990909,8.91903409 C386.990909,7.81202652 386.834304,6.86742424 386.521094,6.08522727 C386.207884,5.3030303 385.757955,4.70643939 385.171307,4.29545455 C384.584659,3.8844697 383.883665,3.67897727 383.068324,3.67897727 C382.252983,3.67897727 381.552817,3.8844697 380.967827,4.29545455 C380.382836,4.70643939 379.933736,5.3022017 379.620526,6.08274148 C379.307315,6.86328125 379.149053,7.80871212 379.145739,8.91903409 C379.145739,10.0293561 379.302344,10.9781013 379.615554,11.7652699 C379.928764,12.5524384 380.377865,13.1540009 380.962855,13.5699574 C381.547846,13.9859138 382.249669,14.193892 383.068324,14.193892 Z M383.068324,12.6377841 C382.644081,12.6377841 382.277841,12.4977509 381.969602,12.2176847 C381.661364,11.9376184 381.423556,11.5208333 381.256179,10.9673295 C381.088802,10.4138258 381.006771,9.73106061 381.010085,8.91903409 C381.0134,7.70596591 381.199006,6.78539299 381.566903,6.15731534 C381.934801,5.52923769 382.435275,5.21519886 383.068324,5.21519886 C383.489252,5.21519886 383.853835,5.35523201 384.162074,5.6352983 C384.470313,5.91536458 384.708949,6.33049242 384.877983,6.88068182 C385.047017,7.43087121 385.131534,8.11032197 385.131534,8.91903409 C385.131534,10.1420455 384.946757,11.06759 384.577202,11.6956676 C384.207647,12.3237453 383.704688,12.6377841 383.068324,12.6377841 Z M389.372301,14.109375 C389.56785,14.109375 389.747656,14.0604877 389.911719,13.9627131 C390.075781,13.8649384 390.208357,13.7331913 390.309446,13.5674716 C390.410535,13.4017519 390.462737,13.217803 390.466051,13.015625 C390.462737,12.7173295 390.352533,12.4621212 390.13544,12.25 C389.918348,12.0378788 389.663968,11.9318182 389.372301,11.9318182 C389.070691,11.9318182 388.812169,12.0378788 388.596733,12.25 C388.381297,12.4621212 388.275237,12.7173295 388.278551,13.015625 C388.275237,13.3205492 388.381297,13.579072 388.596733,13.7911932 C388.812169,14.0033144 389.070691,14.109375 389.372301,14.109375 Z M399.290625,14 L399.290625,12.4588068 L394.855966,12.4588068 L394.855966,12.3892045 L396.610938,10.6044034 C397.270502,9.96803977 397.783404,9.42613636 398.149645,8.97869318 C398.515885,8.53125 398.771922,8.12357955 398.917756,7.75568182 C399.063589,7.38778409 399.136506,7.01325758 399.136506,6.63210227 C399.136506,6.06202652 398.993158,5.55492424 398.706463,5.11079545 C398.419768,4.66666667 398.017898,4.31699811 397.500852,4.06178977 C396.983807,3.80658144 396.383902,3.67897727 395.701136,3.67897727 C395.028314,3.67897727 394.432552,3.80989583 393.913849,4.07173295 C393.395147,4.33357008 392.988305,4.703125 392.693324,5.18039773 C392.398343,5.65767045 392.250852,6.21946023 392.250852,6.86576705 L392.250852,6.86576705 L394.005824,6.86576705 C394.005824,6.51775568 394.074598,6.21780303 394.212145,5.96590909 C394.349692,5.71401515 394.544413,5.51929451 394.796307,5.38174716 C395.048201,5.24419981 395.341525,5.17542614 395.676278,5.17542614 C396.001089,5.17542614 396.291098,5.23839962 396.546307,5.36434659 C396.801515,5.49029356 397.002036,5.66844223 397.147869,5.89879261 C397.293703,6.12914299 397.366619,6.40506629 397.366619,6.7265625 C397.366619,7.00828598 397.310275,7.2734375 397.197585,7.52201705 C397.084896,7.77059659 396.915862,8.02746212 396.690483,8.29261364 C396.465104,8.55776515 396.183381,8.8610322 395.845313,9.20241477 L395.845313,9.20241477 L392.310511,12.6676136 L392.310511,14 L399.290625,14 Z M404.550568,14.1392045 C405.269792,14.1392045 405.90367,13.9892282 406.452202,13.6892756 C407.000734,13.3893229 407.429948,12.9766809 407.739844,12.4513494 C408.04974,11.926018 408.204688,11.3269413 408.204688,10.6541193 C408.204688,10.0011837 408.065483,9.42116477 407.787074,8.9140625 C407.508665,8.40696023 407.127509,8.00840436 406.643608,7.71839489 C406.159706,7.42838542 405.609517,7.28338068 404.99304,7.28338068 C404.582055,7.28338068 404.204214,7.35712595 403.859517,7.50461648 C403.51482,7.65210701 403.248011,7.83688447 403.059091,8.05894886 L403.059091,8.05894886 L402.999432,8.05894886 L403.292756,5.359375 L407.672727,5.359375 L407.672727,3.81818182 L401.766477,3.81818182 L401.234517,9.06818182 L402.9,9.34161932 C403.072348,9.15269886 403.306013,9.00023674 403.600994,8.88423295 C403.895975,8.76822917 404.195928,8.71188447 404.500852,8.71519886 C404.875379,8.71519886 405.206818,8.80054451 405.49517,8.9712358 C405.783523,9.14192708 406.010559,9.37642045 406.176278,9.67471591 C406.341998,9.97301136 406.423201,10.3143939 406.419886,10.6988636 C406.423201,11.0767045 406.343655,11.4131155 406.18125,11.7080966 C406.018845,12.0030777 405.79678,12.233428 405.515057,12.3991477 C405.233333,12.5648674 404.911837,12.6477273 404.550568,12.6477273 C404.089867,12.6477273 403.695455,12.5159801 403.36733,12.2524858 C403.039205,11.9889915 402.85857,11.6484375 402.825426,11.2308239 L402.825426,11.2308239 L401.035653,11.2308239 C401.05554,11.7942708 401.218774,12.2947443 401.525355,12.7322443 C401.831937,13.1697443 402.247064,13.5136127 402.770739,13.7638494 C403.294413,14.0140862 403.887689,14.1392045 404.550568,14.1392045 Z" id="0.25" fill="#000000" fill-rule="nonzero" opacity="0.8"></path>
                <path d="M448.36321,14.109375 C448.558759,14.109375 448.738565,14.0604877 448.902628,13.9627131 C449.06669,13.8649384 449.199266,13.7331913 449.300355,13.5674716 C449.401444,13.4017519 449.453646,13.217803 449.45696,13.015625 C449.453646,12.7173295 449.343442,12.4621212 449.126349,12.25 C448.909257,12.0378788 448.654877,11.9318182 448.36321,11.9318182 C448.0616,11.9318182 447.803078,12.0378788 447.587642,12.25 C447.372206,12.4621212 447.266146,12.7173295 447.26946,13.015625 C447.266146,13.3205492 447.372206,13.579072 447.587642,13.7911932 C447.803078,14.0033144 448.0616,14.109375 448.36321,14.109375 Z M451.977557,14.109375 C452.173106,14.109375 452.352912,14.0604877 452.516974,13.9627131 C452.681037,13.8649384 452.813613,13.7331913 452.914702,13.5674716 C453.015791,13.4017519 453.067992,13.217803 453.071307,13.015625 C453.067992,12.7173295 452.957789,12.4621212 452.740696,12.25 C452.523603,12.0378788 452.269223,11.9318182 451.977557,11.9318182 C451.675947,11.9318182 451.417424,12.0378788 451.201989,12.25 C450.986553,12.4621212 450.880492,12.7173295 450.883807,13.015625 C450.880492,13.3205492 450.986553,13.579072 451.201989,13.7911932 C451.417424,14.0033144 451.675947,14.109375 451.977557,14.109375 Z M455.586932,14.109375 C455.782481,14.109375 455.962287,14.0604877 456.126349,13.9627131 C456.290412,13.8649384 456.422988,13.7331913 456.524077,13.5674716 C456.625166,13.4017519 456.677367,13.217803 456.680682,13.015625 C456.677367,12.7173295 456.567164,12.4621212 456.350071,12.25 C456.132978,12.0378788 455.878598,11.9318182 455.586932,11.9318182 C455.285322,11.9318182 455.026799,12.0378788 454.811364,12.25 C454.595928,12.4621212 454.489867,12.7173295 454.493182,13.015625 C454.489867,13.3205492 454.595928,13.579072 454.811364,13.7911932 C455.026799,14.0033144 455.285322,14.109375 455.586932,14.109375 Z" id="…" fill="#000000" fill-rule="nonzero" opacity="0.8"></path>
                <path d="M151.553267,9.64985795 L151.553267,8.16832386 L146.96946,8.16832386 L146.96946,9.64985795 L151.553267,9.64985795 Z M157.191051,14.193892 C158.009706,14.193892 158.711529,13.9867424 159.29652,13.5724432 C159.88151,13.1581439 160.330611,12.55741 160.643821,11.7702415 C160.957031,10.9830729 161.113636,10.0326705 161.113636,8.91903409 C161.113636,7.81202652 160.957031,6.86742424 160.643821,6.08522727 C160.330611,5.3030303 159.880682,4.70643939 159.294034,4.29545455 C158.707386,3.8844697 158.006392,3.67897727 157.191051,3.67897727 C156.37571,3.67897727 155.675545,3.8844697 155.090554,4.29545455 C154.505563,4.70643939 154.056463,5.3022017 153.743253,6.08274148 C153.430043,6.86328125 153.27178,7.80871212 153.268466,8.91903409 C153.268466,10.0293561 153.425071,10.9781013 153.738281,11.7652699 C154.051491,12.5524384 154.500592,13.1540009 155.085582,13.5699574 C155.670573,13.9859138 156.372396,14.193892 157.191051,14.193892 Z M157.191051,12.6377841 C156.766809,12.6377841 156.400568,12.4977509 156.09233,12.2176847 C155.784091,11.9376184 155.546283,11.5208333 155.378906,10.9673295 C155.211529,10.4138258 155.129498,9.73106061 155.132812,8.91903409 C155.136127,7.70596591 155.321733,6.78539299 155.689631,6.15731534 C156.057528,5.52923769 156.558002,5.21519886 157.191051,5.21519886 C157.611979,5.21519886 157.976562,5.35523201 158.284801,5.6352983 C158.59304,5.91536458 158.831676,6.33049242 159.00071,6.88068182 C159.169744,7.43087121 159.254261,8.11032197 159.254261,8.91903409 C159.254261,10.1420455 159.069484,11.06759 158.699929,11.6956676 C158.330374,12.3237453 157.827415,12.6377841 157.191051,12.6377841 Z M163.495028,14.109375 C163.690578,14.109375 163.870384,14.0604877 164.034446,13.9627131 C164.198509,13.8649384 164.331084,13.7331913 164.432173,13.5674716 C164.533262,13.4017519 164.585464,13.217803 164.588778,13.015625 C164.585464,12.7173295 164.47526,12.4621212 164.258168,12.25 C164.041075,12.0378788 163.786695,11.9318182 163.495028,11.9318182 C163.193419,11.9318182 162.934896,12.0378788 162.71946,12.25 C162.504025,12.4621212 162.397964,12.7173295 162.401278,13.015625 C162.397964,13.3205492 162.504025,13.579072 162.71946,13.7911932 C162.934896,14.0033144 163.193419,14.109375 163.495028,14.109375 Z M169.321733,14 L169.321733,3.81818182 L167.566761,3.81818182 L165.036222,5.44389205 L165.036222,7.13423295 L167.417614,5.61292614 L167.477273,5.61292614 L167.477273,14 L169.321733,14 Z M175.451705,14.1392045 C176.170928,14.1392045 176.804806,13.9892282 177.353338,13.6892756 C177.90187,13.3893229 178.331084,12.9766809 178.64098,12.4513494 C178.950876,11.926018 179.105824,11.3269413 179.105824,10.6541193 C179.105824,10.0011837 178.966619,9.42116477 178.68821,8.9140625 C178.409801,8.40696023 178.028646,8.00840436 177.544744,7.71839489 C177.060843,7.42838542 176.510653,7.28338068 175.894176,7.28338068 C175.483191,7.28338068 175.10535,7.35712595 174.760653,7.50461648 C174.415956,7.65210701 174.149148,7.83688447 173.960227,8.05894886 L173.960227,8.05894886 L173.900568,8.05894886 L174.193892,5.359375 L178.573864,5.359375 L178.573864,3.81818182 L172.667614,3.81818182 L172.135653,9.06818182 L173.801136,9.34161932 C173.973485,9.15269886 174.20715,9.00023674 174.502131,8.88423295 C174.797112,8.76822917 175.097064,8.71188447 175.401989,8.71519886 C175.776515,8.71519886 176.107955,8.80054451 176.396307,8.9712358 C176.684659,9.14192708 176.911695,9.37642045 177.077415,9.67471591 C177.243134,9.97301136 177.324337,10.3143939 177.321023,10.6988636 C177.324337,11.0767045 177.244792,11.4131155 177.082386,11.7080966 C176.919981,12.0030777 176.697917,12.233428 176.416193,12.3991477 C176.13447,12.5648674 175.812973,12.6477273 175.451705,12.6477273 C174.991004,12.6477273 174.596591,12.5159801 174.268466,12.2524858 C173.940341,11.9889915 173.759706,11.6484375 173.726562,11.2308239 L173.726562,11.2308239 L171.93679,11.2308239 C171.956676,11.7942708 172.11991,12.2947443 172.426491,12.7322443 C172.733073,13.1697443 173.148201,13.5136127 173.671875,13.7638494 C174.195549,14.0140862 174.788826,14.1392045 175.451705,14.1392045 Z" id="-0.15" fill="#000000" fill-rule="nonzero" opacity="0.8"></path>
                <path d="M96.253267,9.64985795 L96.253267,8.16832386 L91.6694602,8.16832386 L91.6694602,9.64985795 L96.253267,9.64985795 Z M101.891051,14.193892 C102.709706,14.193892 103.411529,13.9867424 103.99652,13.5724432 C104.58151,13.1581439 105.030611,12.55741 105.343821,11.7702415 C105.657031,10.9830729 105.813636,10.0326705 105.813636,8.91903409 C105.813636,7.81202652 105.657031,6.86742424 105.343821,6.08522727 C105.030611,5.3030303 104.580682,4.70643939 103.994034,4.29545455 C103.407386,3.8844697 102.706392,3.67897727 101.891051,3.67897727 C101.07571,3.67897727 100.375545,3.8844697 99.790554,4.29545455 C99.2055634,4.70643939 98.7564631,5.3022017 98.4432528,6.08274148 C98.1300426,6.86328125 97.9717803,7.80871212 97.9684659,8.91903409 C97.9684659,10.0293561 98.125071,10.9781013 98.4382812,11.7652699 C98.7514915,12.5524384 99.2005919,13.1540009 99.7855824,13.5699574 C100.370573,13.9859138 101.072396,14.193892 101.891051,14.193892 Z M101.891051,12.6377841 C101.466809,12.6377841 101.100568,12.4977509 100.79233,12.2176847 C100.484091,11.9376184 100.246283,11.5208333 100.078906,10.9673295 C99.9115294,10.4138258 99.8294981,9.73106061 99.8328125,8.91903409 C99.8361269,7.70596591 100.021733,6.78539299 100.389631,6.15731534 C100.757528,5.52923769 101.258002,5.21519886 101.891051,5.21519886 C102.311979,5.21519886 102.676562,5.35523201 102.984801,5.6352983 C103.29304,5.91536458 103.531676,6.33049242 103.70071,6.88068182 C103.869744,7.43087121 103.954261,8.11032197 103.954261,8.91903409 C103.954261,10.1420455 103.769484,11.06759 103.399929,11.6956676 C103.030374,12.3237453 102.527415,12.6377841 101.891051,12.6377841 Z M108.195028,14.109375 C108.390578,14.109375 108.570384,14.0604877 108.734446,13.9627131 C108.898509,13.8649384 109.031084,13.7331913 109.132173,13.5674716 C109.233262,13.4017519 109.285464,13.217803 109.288778,13.015625 C109.285464,12.7173295 109.17526,12.4621212 108.958168,12.25 C108.741075,12.0378788 108.486695,11.9318182 108.195028,11.9318182 C107.893419,11.9318182 107.634896,12.0378788 107.41946,12.25 C107.204025,12.4621212 107.097964,12.7173295 107.101278,13.015625 C107.097964,13.3205492 107.204025,13.579072 107.41946,13.7911932 C107.634896,14.0033144 107.893419,14.109375 108.195028,14.109375 Z M118.113352,14 L118.113352,12.4588068 L113.678693,12.4588068 L113.678693,12.3892045 L115.433665,10.6044034 C116.093229,9.96803977 116.606132,9.42613636 116.972372,8.97869318 C117.338613,8.53125 117.59465,8.12357955 117.740483,7.75568182 C117.886316,7.38778409 117.959233,7.01325758 117.959233,6.63210227 C117.959233,6.06202652 117.815885,5.55492424 117.52919,5.11079545 C117.242495,4.66666667 116.840625,4.31699811 116.32358,4.06178977 C115.806534,3.80658144 115.206629,3.67897727 114.523864,3.67897727 C113.851042,3.67897727 113.255279,3.80989583 112.736577,4.07173295 C112.217874,4.33357008 111.811032,4.703125 111.516051,5.18039773 C111.22107,5.65767045 111.07358,6.21946023 111.07358,6.86576705 L111.07358,6.86576705 L112.828551,6.86576705 C112.828551,6.51775568 112.897325,6.21780303 113.034872,5.96590909 C113.17242,5.71401515 113.36714,5.51929451 113.619034,5.38174716 C113.870928,5.24419981 114.164252,5.17542614 114.499006,5.17542614 C114.823816,5.17542614 115.113826,5.23839962 115.369034,5.36434659 C115.624242,5.49029356 115.824763,5.66844223 115.970597,5.89879261 C116.11643,6.12914299 116.189347,6.40506629 116.189347,6.7265625 C116.189347,7.00828598 116.133002,7.2734375 116.020312,7.52201705 C115.907623,7.77059659 115.738589,8.02746212 115.51321,8.29261364 C115.287831,8.55776515 115.006108,8.8610322 114.66804,9.20241477 L114.66804,9.20241477 L111.133239,12.6676136 L111.133239,14 L118.113352,14 Z M123.373295,14.1392045 C124.092519,14.1392045 124.726397,13.9892282 125.274929,13.6892756 C125.823461,13.3893229 126.252675,12.9766809 126.562571,12.4513494 C126.872467,11.926018 127.027415,11.3269413 127.027415,10.6541193 C127.027415,10.0011837 126.88821,9.42116477 126.609801,8.9140625 C126.331392,8.40696023 125.950237,8.00840436 125.466335,7.71839489 C124.982434,7.42838542 124.432244,7.28338068 123.815767,7.28338068 C123.404782,7.28338068 123.026941,7.35712595 122.682244,7.50461648 C122.337547,7.65210701 122.070739,7.83688447 121.881818,8.05894886 L121.881818,8.05894886 L121.822159,8.05894886 L122.115483,5.359375 L126.495455,5.359375 L126.495455,3.81818182 L120.589205,3.81818182 L120.057244,9.06818182 L121.722727,9.34161932 C121.895076,9.15269886 122.128741,9.00023674 122.423722,8.88423295 C122.718703,8.76822917 123.018655,8.71188447 123.32358,8.71519886 C123.698106,8.71519886 124.029545,8.80054451 124.317898,8.9712358 C124.60625,9.14192708 124.833286,9.37642045 124.999006,9.67471591 C125.164725,9.97301136 125.245928,10.3143939 125.242614,10.6988636 C125.245928,11.0767045 125.166383,11.4131155 125.003977,11.7080966 C124.841572,12.0030777 124.619508,12.233428 124.337784,12.3991477 C124.056061,12.5648674 123.734564,12.6477273 123.373295,12.6477273 C122.912595,12.6477273 122.518182,12.5159801 122.190057,12.2524858 C121.861932,11.9889915 121.681297,11.6484375 121.648153,11.2308239 L121.648153,11.2308239 L119.858381,11.2308239 C119.878267,11.7942708 120.041501,12.2947443 120.348082,12.7322443 C120.654664,13.1697443 121.069792,13.5136127 121.593466,13.7638494 C122.11714,14.0140862 122.710417,14.1392045 123.373295,14.1392045 Z" id="-0.25" fill="#000000" fill-rule="nonzero" opacity="0.8"></path>
                <path d="M52.8632102,14.109375 C53.0587595,14.109375 53.2385653,14.0604877 53.4026278,13.9627131 C53.5666903,13.8649384 53.6992661,13.7331913 53.8003551,13.5674716 C53.9014441,13.4017519 53.9536458,13.217803 53.9569602,13.015625 C53.9536458,12.7173295 53.8434422,12.4621212 53.6263494,12.25 C53.4092566,12.0378788 53.1548769,11.9318182 52.8632102,11.9318182 C52.5616004,11.9318182 52.3030777,12.0378788 52.087642,12.25 C51.8722064,12.4621212 51.7661458,12.7173295 51.7694602,13.015625 C51.7661458,13.3205492 51.8722064,13.579072 52.087642,13.7911932 C52.3030777,14.0033144 52.5616004,14.109375 52.8632102,14.109375 Z M56.4775568,14.109375 C56.6731061,14.109375 56.8529119,14.0604877 57.0169744,13.9627131 C57.1810369,13.8649384 57.3136127,13.7331913 57.4147017,13.5674716 C57.5157907,13.4017519 57.5679924,13.217803 57.5713068,13.015625 C57.5679924,12.7173295 57.4577888,12.4621212 57.240696,12.25 C57.0236032,12.0378788 56.7692235,11.9318182 56.4775568,11.9318182 C56.175947,11.9318182 55.9174242,12.0378788 55.7019886,12.25 C55.486553,12.4621212 55.3804924,12.7173295 55.3838068,13.015625 C55.3804924,13.3205492 55.486553,13.579072 55.7019886,13.7911932 C55.9174242,14.0033144 56.175947,14.109375 56.4775568,14.109375 Z M60.0869318,14.109375 C60.2824811,14.109375 60.4622869,14.0604877 60.6263494,13.9627131 C60.7904119,13.8649384 60.9229877,13.7331913 61.0240767,13.5674716 C61.1251657,13.4017519 61.1773674,13.217803 61.1806818,13.015625 C61.1773674,12.7173295 61.0671638,12.4621212 60.850071,12.25 C60.6329782,12.0378788 60.3785985,11.9318182 60.0869318,11.9318182 C59.785322,11.9318182 59.5267992,12.0378788 59.3113636,12.25 C59.095928,12.4621212 58.9898674,12.7173295 58.9931818,13.015625 C58.9898674,13.3205492 59.095928,13.579072 59.3113636,13.7911932 C59.5267992,14.0033144 59.785322,14.109375 60.0869318,14.109375 Z" id="…" fill="#000000" fill-rule="nonzero" opacity="0.8"></path>
                <path d="M242.816264,14.1541193 C243.213991,14.1541193 243.561174,14.0986032 243.857812,13.987571 C244.154451,13.8765388 244.401373,13.7290483 244.59858,13.5450994 C244.795786,13.3611506 244.949077,13.1631155 245.058452,12.9509943 L245.058452,12.9509943 L245.118111,12.9509943 L245.118111,14 L246.848224,14 L246.848224,8.88920455 C246.848224,8.38210227 246.75625,7.95951705 246.572301,7.62144886 C246.388352,7.28338068 246.145573,7.01574337 245.843963,6.81853693 C245.542353,6.62133049 245.209257,6.47964015 244.844673,6.39346591 C244.48009,6.30729167 244.113849,6.26420455 243.745952,6.26420455 C243.212334,6.26420455 242.725118,6.3429214 242.284304,6.50035511 C241.84349,6.65778883 241.47062,6.8931108 241.165696,7.20632102 C240.860772,7.51953125 240.642022,7.90814394 240.509446,8.37215909 L240.509446,8.37215909 L242.189844,8.61079545 C242.279332,8.34895833 242.452509,8.12192235 242.709375,7.9296875 C242.966241,7.73745265 243.31508,7.64133523 243.755895,7.64133523 C244.173509,7.64133523 244.493348,7.74408144 244.715412,7.94957386 C244.937476,8.15506629 245.048509,8.44507576 245.048509,8.81960227 L245.048509,8.81960227 L245.048509,8.84943182 C245.048509,9.0217803 244.984706,9.14855587 244.857102,9.22975852 C244.729498,9.31096117 244.526491,9.37062027 244.248082,9.4087358 C243.969673,9.44685133 243.606747,9.48910985 243.159304,9.53551136 C242.788092,9.57528409 242.429309,9.63908617 242.082955,9.72691761 C241.7366,9.81474905 241.425876,9.94318182 241.150781,10.1122159 C240.875687,10.28125 240.658594,10.5066288 240.499503,10.7883523 C240.340412,11.0700758 240.260866,11.4263731 240.260866,11.8572443 C240.260866,12.3577178 240.372727,12.7786458 240.596449,13.1200284 C240.82017,13.461411 241.125095,13.7191051 241.511222,13.8931108 C241.897348,14.0671165 242.332363,14.1541193 242.816264,14.1541193 Z M243.283594,12.8316761 C242.909067,12.8316761 242.600829,12.7471591 242.358878,12.578125 C242.116927,12.4090909 241.995952,12.1588542 241.995952,11.8274148 C241.995952,11.5954072 242.057268,11.4056581 242.179901,11.2581676 C242.302533,11.1106771 242.46991,10.9955019 242.682031,10.912642 C242.894152,10.8297822 243.134446,10.7701231 243.402912,10.7336648 C243.52223,10.7170928 243.663092,10.6972064 243.825497,10.6740057 C243.987902,10.6508049 244.151965,10.6242898 244.317685,10.5944602 C244.483404,10.5646307 244.633381,10.5298295 244.767614,10.4900568 C244.901847,10.4502841 244.997135,10.407197 245.05348,10.3607955 L245.05348,10.3607955 L245.05348,11.2606534 C245.05348,11.5423769 244.981392,11.8025568 244.837216,12.0411932 C244.69304,12.2798295 244.488376,12.4712358 244.223224,12.6154119 C243.958073,12.7595881 243.644863,12.8316761 243.283594,12.8316761 Z M251.20831,14.0994318 C251.7817,14.0994318 252.264773,13.9635417 252.657528,13.6917614 C253.050284,13.4199811 253.332836,13.0703125 253.505185,12.6427557 L253.505185,12.6427557 L253.58473,12.6427557 L253.58473,14 L255.329759,14 L255.329759,6.36363636 L253.530043,6.36363636 L253.530043,10.7883523 C253.530043,11.1761364 253.449669,11.4984612 253.28892,11.7553267 C253.128172,12.0121922 252.923509,12.2052557 252.674929,12.334517 C252.426349,12.4637784 252.169484,12.5284091 251.904332,12.5284091 C251.473461,12.5284091 251.12545,12.3858902 250.860298,12.1008523 C250.595147,11.8158144 250.462571,11.4313447 250.462571,10.9474432 L250.462571,10.9474432 L250.462571,6.36363636 L248.662855,6.36363636 L248.662855,11.2258523 C248.662855,11.8357008 248.770573,12.355232 248.986009,12.784446 C249.201444,13.21366 249.500568,13.5401278 249.883381,13.7638494 C250.266193,13.987571 250.707836,14.0994318 251.20831,14.0994318 Z M260.072656,14.1044034 C260.327865,14.0977746 260.544129,14.0745739 260.721449,14.0348011 C260.898769,13.9950284 261.035488,13.9585701 261.131605,13.9254261 L261.131605,13.9254261 L260.828338,12.5184659 C260.778622,12.5317235 260.706534,12.5466383 260.612074,12.5632102 C260.517614,12.5797822 260.414039,12.5880682 260.301349,12.5880682 C260.152202,12.5880682 260.016312,12.5648674 259.893679,12.5184659 C259.771046,12.4720644 259.672443,12.3850616 259.597869,12.2574574 C259.523295,12.1298532 259.486009,11.9450758 259.486009,11.703125 L259.486009,11.703125 L259.486,7.756 L260.992401,7.75568182 L260.992401,6.36363636 L259.486,6.364 L259.486009,4.53409091 L257.686293,4.53409091 L257.686,6.364 L256.602486,6.36363636 L256.602486,7.75568182 L257.686,7.756 L257.686293,12.0014205 C257.683452,12.4105114 257.759142,12.7611607 257.913362,13.0533685 L257.997017,13.1946023 C258.207481,13.5127841 258.493348,13.7472775 258.854616,13.8980824 C259.215885,14.0488873 259.621899,14.117661 260.072656,14.1044034 Z M265.750213,14.1491477 C266.495952,14.1491477 267.142259,13.9850852 267.689134,13.6569602 C268.236009,13.3288352 268.659422,12.8697917 268.959375,12.2798295 C269.259328,11.6898674 269.409304,11.0004735 269.409304,10.2116477 C269.409304,9.42282197 269.259328,8.73177083 268.959375,8.13849432 C268.659422,7.5452178 268.236009,7.08451705 267.689134,6.75639205 C267.142259,6.42826705 266.495952,6.26420455 265.750213,6.26420455 C265.004474,6.26420455 264.358168,6.42826705 263.811293,6.75639205 C263.264418,7.08451705 262.841004,7.5452178 262.541051,8.13849432 C262.241098,8.73177083 262.091122,9.42282197 262.091122,10.2116477 C262.091122,11.0004735 262.241098,11.6898674 262.541051,12.2798295 C262.841004,12.8697917 263.264418,13.3288352 263.811293,13.6569602 C264.358168,13.9850852 265.004474,14.1491477 265.750213,14.1491477 Z M265.760156,12.7073864 C265.345857,12.7073864 265.001989,12.5955256 264.728551,12.371804 C264.455114,12.1480824 264.251278,11.8473011 264.117045,11.4694602 C263.982812,11.0916193 263.915696,10.6706913 263.915696,10.2066761 C263.915696,9.73934659 263.982812,9.31593277 264.117045,8.93643466 C264.251278,8.55693655 264.455114,8.25449811 264.728551,8.02911932 C265.001989,7.80374053 265.345857,7.69105114 265.760156,7.69105114 C266.164512,7.69105114 266.50258,7.80374053 266.774361,8.02911932 C267.046141,8.25449811 267.249148,8.55693655 267.383381,8.93643466 C267.517614,9.31593277 267.58473,9.73934659 267.58473,10.2066761 C267.58473,10.6706913 267.517614,11.0916193 267.383381,11.4694602 C267.249148,11.8473011 267.046141,12.1480824 266.774361,12.371804 C266.50258,12.5955256 266.164512,12.7073864 265.760156,12.7073864 Z" id="auto" fill="#000000" fill-rule="nonzero" opacity="0.8"></path>
            </g>
        </g>
    </g>
</svg>