<?xml version="1.0" encoding="UTF-8"?>
<svg width="424px" height="104px" viewBox="0 0 424 104" version="1.1" xmlns="http://www.w3.org/2000/svg" xmlns:xlink="http://www.w3.org/1999/xlink">
    <title>line-height-component</title>
    <g id="Doc_exemplos" stroke="none" stroke-width="1" fill="none" fill-rule="evenodd">
        <g id="doc-tipografia-expandido" transform="translate(-1906.000000, -4176.000000)">
            <g id="line-height-component" transform="translate(1906.000000, 4176.000000)">
                <rect id="bg" fill-opacity="0" fill="#D8D8D8" x="0" y="0" width="424" height="104"></rect>
                <g id="btn" transform="translate(32.000000, 32.000000)">
                    <rect id="Rectangle" fill="#4545A1" x="0" y="0" width="150" height="48" rx="4"></rect>
                    <path d="M19.4715909,30 L19.471,26.228 L21.5397727,26.2272727 C22.3343855,26.2272727 23.0249953,26.0970819 23.6116021,25.8367003 L23.8267045,25.7329545 C24.4573864,25.4034091 24.9393939,24.9431818 25.2727273,24.3522727 C25.6060606,23.7613636 25.7727273,23.0795455 25.7727273,22.3068182 C25.7727273,21.5340909 25.6089015,20.8513258 25.28125,20.2585227 C24.9535985,19.6657197 24.4791667,19.2017045 23.8579545,18.8664773 C23.2367424,18.53125 22.4848485,18.3636364 21.6022727,18.3636364 L21.6022727,18.3636364 L17.0113636,18.3636364 L17.0113636,30 L19.4715909,30 Z M19.4715909,20.375 L21.1306818,20.375 C21.6079545,20.375 22.0018939,20.4554924 22.3125,20.6164773 C22.6231061,20.7774621 22.8551136,21.0028409 23.0085227,21.2926136 C23.1619318,21.5823864 23.2386364,21.9204545 23.2386364,22.3068182 C23.2386364,22.6893939 23.1619318,23.0274621 23.0085227,23.3210227 C22.8551136,23.6145833 22.624053,23.84375 22.3153409,24.0085227 C22.0066288,24.1732955 21.6155303,24.2556818 21.1420455,24.2556818 L21.1420455,24.2556818 L19.471,24.256 L19.4715909,20.375 Z M29.7499917,30 L29.7499917,25.0625 C29.7499917,24.7064394 29.8304841,24.3920455 29.9914689,24.1193182 C30.1524538,23.8465909 30.3721508,23.6335227 30.6505599,23.4801136 C30.9289689,23.3267045 31.2462038,23.25 31.6022644,23.25 C31.7689311,23.25 31.9526432,23.2632576 32.1534008,23.2897727 C32.3541583,23.3162879 32.5113553,23.3465909 32.6249917,23.3806818 L32.6249917,23.3806818 L32.6249917,21.2329545 C32.5189311,21.2064394 32.395825,21.1856061 32.2556735,21.1704545 C32.115522,21.155303 31.9848402,21.1477273 31.863628,21.1477273 C31.3749917,21.1477273 30.9431735,21.2869318 30.5681735,21.5653409 C30.1931735,21.84375 29.926128,22.2537879 29.7670371,22.7954545 L29.7670371,22.7954545 L29.676128,22.7954545 L29.676128,21.2727273 L27.3295371,21.2727273 L27.3295371,30 L29.7499917,30 Z M35.0920133,20.1477273 C35.4518618,20.1477273 35.7596269,20.0274621 36.0153087,19.7869318 C36.2709905,19.5464015 36.3988315,19.2575758 36.3988315,18.9204545 C36.3988315,18.5871212 36.2709905,18.3001894 36.0153087,18.0596591 C35.7596269,17.8191288 35.4499678,17.6988636 35.0863315,17.6988636 C34.7302708,17.6988636 34.4234527,17.8191288 34.1658769,18.0596591 C33.9083012,18.3001894 33.7795133,18.5871212 33.7795133,18.9204545 C33.7795133,19.2575758 33.9083012,19.5464015 34.1658769,19.7869318 C34.4234527,20.0274621 34.7321648,20.1477273 35.0920133,20.1477273 Z M36.2908769,30 L36.2908769,21.2727273 L33.8704224,21.2727273 L33.8704224,30 L36.2908769,30 Z M40.6453996,30 L40.6453996,24.7613636 C40.6453996,24.4393939 40.7078996,24.1581439 40.8328996,23.9176136 C40.9578996,23.6770833 41.1274072,23.4895833 41.3414223,23.3551136 C41.5554375,23.2206439 41.7969148,23.1534091 42.0658542,23.1534091 C42.4635814,23.1534091 42.7846042,23.280303 43.0289223,23.5340909 C43.2732405,23.7878788 43.3953996,24.1287879 43.3953996,24.5568182 L43.3953996,24.5568182 L43.3953996,30 L45.7419905,30 L45.7419905,24.6704545 C45.7419905,24.2159091 45.8650966,23.8494318 46.1113087,23.5710227 C46.3575208,23.2926136 46.7003239,23.1534091 47.1397178,23.1534091 C47.5260814,23.1534091 47.8480511,23.2746212 48.1056269,23.5170455 C48.3632026,23.7594697 48.4919905,24.1231061 48.4919905,24.6079545 L48.4919905,24.6079545 L48.4919905,30 L50.9067633,30 L50.9067633,24.1306818 C50.9067633,23.1837121 50.6520284,22.4517045 50.1425587,21.9346591 C49.633089,21.4176136 48.9711572,21.1590909 48.1567633,21.1590909 C47.5166117,21.1590909 46.9626345,21.3096591 46.4948314,21.6107955 C46.0270284,21.9119318 45.7041117,22.3125 45.5260814,22.8125 L45.5260814,22.8125 L45.4351723,22.8125 C45.2950208,22.3049242 45.0147178,21.9024621 44.5942633,21.6051136 C44.1738087,21.3077652 43.664339,21.1590909 43.0658542,21.1590909 C42.4749451,21.1590909 41.9673693,21.3068182 41.5431269,21.6022727 C41.1188845,21.8977273 40.8158542,22.3011364 40.634036,22.8125 L40.634036,22.8125 L40.5317633,22.8125 L40.5317633,21.2727273 L38.2249451,21.2727273 L38.2249451,30 L40.6453996,30 Z M55.3044628,30.1647727 C55.736281,30.1647727 56.1169628,30.1070076 56.4465082,29.9914773 C56.7760537,29.875947 57.0582507,29.7149621 57.2930991,29.5085227 C57.5279476,29.3020833 57.7154476,29.0625 57.8555991,28.7897727 L57.8555991,28.7897727 L57.923781,28.7897727 L57.923781,30 L60.2192355,30 L60.2192355,24.1136364 C60.2192355,23.594697 60.1188567,23.1486742 59.9180991,22.7755682 C59.7173416,22.4024621 59.4436673,22.0965909 59.0970764,21.8579545 C58.7504855,21.6193182 58.3546522,21.4431818 57.9095764,21.3295455 C57.4645007,21.2159091 56.9995385,21.1590909 56.5146901,21.1590909 C55.8177204,21.1590909 55.205031,21.2642045 54.6766219,21.4744318 C54.1482128,21.6846591 53.7173416,21.9839015 53.3840082,22.3721591 C53.0506749,22.7604167 52.8271901,23.219697 52.7135537,23.75 L52.7135537,23.75 L54.9521901,23.9318182 C55.0355234,23.6439394 55.2059779,23.4043561 55.4635537,23.2130682 C55.7211294,23.0217803 56.0677204,22.9261364 56.5033264,22.9261364 C56.9162052,22.9261364 57.235334,23.0246212 57.4607128,23.2215909 C57.6860916,23.4185606 57.798781,23.6969697 57.798781,24.0568182 L57.798781,24.0568182 L57.798781,24.0909091 C57.798781,24.2765152 57.7287052,24.4166667 57.5885537,24.5113636 C57.4484022,24.6060606 57.2230234,24.6770833 56.9124173,24.7244318 C56.6018113,24.7717803 56.1927204,24.8219697 55.6851446,24.875 C55.2533264,24.9166667 54.8413946,24.9886364 54.4493491,25.0909091 C54.0573037,25.1931818 53.7078719,25.344697 53.4010537,25.5454545 C53.0942355,25.7462121 52.8518113,26.0113636 52.673781,26.3409091 C52.4957507,26.6704545 52.4067355,27.0776515 52.4067355,27.5625 C52.4067355,28.1382576 52.5326825,28.6183712 52.7845764,29.0028409 C53.0364704,29.3873106 53.3802204,29.6770833 53.8158264,29.8721591 C54.2514325,30.0672348 54.7476446,30.1647727 55.3044628,30.1647727 Z M55.9976446,28.4943182 C55.6264325,28.4943182 55.3205613,28.4081439 55.080031,28.2357955 C54.8395007,28.063447 54.7192355,27.8125 54.7192355,27.4829545 C54.7192355,27.2556818 54.7779476,27.0653409 54.8953719,26.9119318 C55.0127961,26.7585227 55.1775688,26.6363636 55.3896901,26.5454545 C55.6018113,26.4545455 55.8499173,26.3882576 56.1340082,26.3465909 C56.266584,26.3276515 56.4143113,26.3058712 56.5771901,26.28125 C56.7400688,26.2566288 56.9029476,26.2282197 57.0658264,26.1960227 C57.2287052,26.1638258 57.3754855,26.1278409 57.5061673,26.0880682 C57.6368491,26.0482955 57.7400688,26.0037879 57.8158264,25.9545455 L57.8158264,25.9545455 L57.8158264,26.8806818 C57.8158264,27.1875 57.7381749,27.4621212 57.5828719,27.7045455 C57.4275688,27.9469697 57.2135537,28.1392045 56.9408264,28.28125 C56.6680991,28.4232955 56.3537052,28.4943182 55.9976446,28.4943182 Z M64.5180886,30 L64.5180886,25.0625 C64.5180886,24.7064394 64.598581,24.3920455 64.7595659,24.1193182 C64.9205507,23.8465909 65.1402477,23.6335227 65.4186568,23.4801136 C65.6970659,23.3267045 66.0143007,23.25 66.3703613,23.25 C66.537028,23.25 66.7207401,23.2632576 66.9214977,23.2897727 C67.1222553,23.3162879 67.2794522,23.3465909 67.3930886,23.3806818 L67.3930886,23.3806818 L67.3930886,21.2329545 C67.287028,21.2064394 67.1639219,21.1856061 67.0237704,21.1704545 C66.8836189,21.155303 66.7529371,21.1477273 66.631725,21.1477273 C66.1430886,21.1477273 65.7112704,21.2869318 65.3362704,21.5653409 C64.9612704,21.84375 64.694225,22.2537879 64.5351341,22.7954545 L64.5351341,22.7954545 L64.444225,22.7954545 L64.444225,21.2727273 L62.0976341,21.2727273 L62.0976341,30 L64.5180886,30 Z M70.4055647,33.2556818 C71.0040496,33.2556818 71.5154132,33.1600379 71.9396557,32.96875 C72.3638981,32.7774621 72.7152238,32.5085227 72.9936329,32.1619318 C73.272042,31.8153409 73.492686,31.4090909 73.6555647,30.9431818 L73.6555647,30.9431818 L77.0476102,21.2840909 L74.4851102,21.2727273 L72.6612466,27.6818182 L72.5703375,27.6818182 L70.7635193,21.2727273 L68.2180647,21.2727273 L71.3487466,30.25 L71.2067011,30.6193182 C71.0362466,31.0132576 70.804239,31.2414773 70.5106784,31.3039773 C70.2171178,31.3664773 69.8563223,31.3314394 69.428292,31.1988636 L69.428292,31.1988636 L68.8828375,33.0113636 C69.0570799,33.0795455 69.2777238,33.1373106 69.5447693,33.1846591 C69.8118147,33.2320076 70.0987466,33.2556818 70.4055647,33.2556818 Z M87.0146692,30.1420455 C87.677548,30.1420455 88.2769799,29.9706439 88.8129647,29.6278409 C89.3489495,29.2850379 89.773192,28.7793561 90.085692,28.1107955 C90.398192,27.4422348 90.554442,26.6212121 90.554442,25.6477273 C90.554442,24.6477273 90.3934571,23.8153409 90.0714874,23.1505682 C89.7495177,22.4857955 89.3195935,21.9876894 88.7817147,21.65625 C88.2438359,21.3248106 87.6567147,21.1590909 87.0203511,21.1590909 C86.5317147,21.1590909 86.1235708,21.2414773 85.7959192,21.40625 C85.4682677,21.5710227 85.2031162,21.7755682 85.0004647,22.0198864 C84.7978132,22.2642045 84.6434571,22.5037879 84.5373965,22.7386364 L84.5373965,22.7386364 L84.4635329,22.7386364 L84.4635329,18.3636364 L82.0430783,18.3636364 L82.0430783,30 L84.429442,30 L84.429442,28.6022727 L84.5373965,28.6022727 C84.647245,28.844697 84.8063359,29.0842803 85.0146692,29.3210227 C85.2230026,29.5577652 85.490995,29.7537879 85.8186465,29.9090909 C86.146298,30.0643939 86.5449723,30.1420455 87.0146692,30.1420455 Z M86.2476238,28.2159091 C85.8574723,28.2159091 85.5260329,28.1089015 85.2533056,27.8948864 C84.9805783,27.6808712 84.772245,27.3806818 84.6283056,26.9943182 C84.4843662,26.6079545 84.4123965,26.155303 84.4123965,25.6363636 C84.4123965,25.1174242 84.4843662,24.6666667 84.6283056,24.2840909 C84.772245,23.9015152 84.9796314,23.6060606 85.2504647,23.3977273 C85.521298,23.1893939 85.8536844,23.0852273 86.2476238,23.0852273 C86.6453511,23.0852273 86.9805783,23.1931818 87.2533056,23.4090909 C87.5260329,23.625 87.7324723,23.9242424 87.8726238,24.3068182 C88.0127753,24.6893939 88.0828511,25.1325758 88.0828511,25.6363636 C88.0828511,26.1439394 88.0118283,26.5918561 87.8697829,26.9801136 C87.7277374,27.3683712 87.5203511,27.6714015 87.2476238,27.8892045 C86.9748965,28.1070076 86.6415632,28.2159091 86.2476238,28.2159091 Z M95.1157962,30.1136364 C95.7710992,30.1136364 96.3269704,29.9583333 96.7834098,29.6477273 C97.2398492,29.3371212 97.5665538,28.9261364 97.7635234,28.4147727 L97.7635234,28.4147727 L97.8544325,28.4147727 L97.8544325,30 L100.178296,30 L100.178296,21.2727273 L97.7578416,21.2727273 L97.7578416,26.2840909 C97.7616295,26.6742424 97.684925,27.0018939 97.527728,27.2670455 C97.370531,27.532197 97.1650386,27.7320076 96.9112507,27.8664773 C96.6574628,28.000947 96.3847356,28.0681818 96.0930689,28.0681818 C95.6347356,28.0681818 95.2692053,27.9185606 94.996478,27.6193182 C94.7237507,27.3200758 94.5854931,26.9128788 94.5817053,26.3977273 L94.5817053,26.3977273 L94.5817053,21.2727273 L92.1612507,21.2727273 L92.1612507,26.8295455 C92.1650386,27.5113636 92.2909856,28.0965909 92.5390916,28.5852273 C92.7871977,29.0738636 93.1328416,29.4507576 93.5760234,29.7159091 C94.0192053,29.9810606 94.5324628,30.1136364 95.1157962,30.1136364 Z M105.354325,30.1229128 L105.59986,30.1193182 C105.914254,30.1079545 106.1813,30.0767045 106.400997,30.0255682 C106.620694,29.9744318 106.791148,29.9299242 106.91236,29.8920455 L106.91236,29.8920455 L106.531679,28.0909091 C106.471073,28.1022727 106.383951,28.1183712 106.270315,28.1392045 C106.156679,28.1600379 106.043042,28.1704545 105.929406,28.1704545 C105.766527,28.1704545 105.623535,28.1458333 105.500429,28.0965909 C105.377323,28.0473485 105.281679,27.9611742 105.213497,27.8380682 C105.145315,27.7149621 105.111224,27.5416667 105.111224,27.3181818 L105.111224,27.3181818 L105.111,23.091 L106.75327,23.0909091 L106.75327,21.2727273 L105.111,21.273 L105.111224,19.1818182 L102.69077,19.1818182 L102.69,21.273 L101.497588,21.2727273 L101.497588,23.0909091 L102.69,23.091 L102.69077,27.6363636 C102.687455,28.1368371 102.778394,28.5619081 102.963586,28.9115767 L103.048724,29.0568182 C103.291148,29.4318182 103.63111,29.7083333 104.06861,29.8863636 C104.50611,30.0643939 105.016527,30.1420455 105.59986,30.1193182 L105.354325,30.1229128 Z M111.567945,30.1229128 L111.813481,30.1193182 C112.127875,30.1079545 112.39492,30.0767045 112.614617,30.0255682 C112.834314,29.9744318 113.004769,29.9299242 113.125981,29.8920455 L113.125981,29.8920455 L112.745299,28.0909091 C112.684693,28.1022727 112.597572,28.1183712 112.483935,28.1392045 C112.370299,28.1600379 112.256663,28.1704545 112.143026,28.1704545 C111.980147,28.1704545 111.837155,28.1458333 111.714049,28.0965909 C111.590943,28.0473485 111.495299,27.9611742 111.427117,27.8380682 C111.358935,27.7149621 111.324844,27.5416667 111.324844,27.3181818 L111.324844,27.3181818 L111.324,23.091 L112.96689,23.0909091 L112.96689,21.2727273 L111.324,21.273 L111.324844,19.1818182 L108.90439,19.1818182 L108.904,21.273 L107.711208,21.2727273 L107.711208,23.0909091 L108.904,23.091 L108.90439,27.6363636 C108.901075,28.1368371 108.992014,28.5619081 109.177206,28.9115767 L109.262344,29.0568182 C109.504769,29.4318182 109.844731,29.7083333 110.282231,29.8863636 C110.719731,30.0643939 111.230147,30.1420455 111.813481,30.1193182 L111.567945,30.1229128 Z M118.390737,30.1704545 C119.273313,30.1704545 120.035624,29.9820076 120.677669,29.6051136 C121.319715,29.2282197 121.81498,28.7017045 122.163465,28.0255682 C122.511949,27.3494318 122.686192,26.5643939 122.686192,25.6704545 C122.686192,24.7689394 122.511949,23.9801136 122.163465,23.3039773 C121.81498,22.6278409 121.319715,22.1013258 120.677669,21.7244318 C120.035624,21.3475379 119.273313,21.1590909 118.390737,21.1590909 C117.508162,21.1590909 116.745851,21.3475379 116.103806,21.7244318 C115.46176,22.1013258 114.966495,22.6278409 114.61801,23.3039773 C114.269525,23.9801136 114.095283,24.7689394 114.095283,25.6704545 C114.095283,26.5643939 114.269525,27.3494318 114.61801,28.0255682 C114.966495,28.7017045 115.46176,29.2282197 116.103806,29.6051136 C116.745851,29.9820076 117.508162,30.1704545 118.390737,30.1704545 Z M118.402101,28.2954545 C117.996798,28.2954545 117.656836,28.1808712 117.382215,27.9517045 C117.107593,27.7225379 116.901154,27.4090909 116.762896,27.0113636 C116.624639,26.6136364 116.55551,26.1609848 116.55551,25.6534091 C116.55551,25.1458333 116.624639,24.6931818 116.762896,24.2954545 C116.901154,23.8977273 117.107593,23.5833333 117.382215,23.3522727 C117.656836,23.1212121 117.996798,23.0056818 118.402101,23.0056818 C118.803616,23.0056818 119.138843,23.1212121 119.407783,23.3522727 C119.676722,23.5833333 119.880321,23.8977273 120.018578,24.2954545 C120.156836,24.6931818 120.225965,25.1458333 120.225965,25.6534091 C120.225965,26.1609848 120.156836,26.6136364 120.018578,27.0113636 C119.880321,27.4090909 119.676722,27.7225379 119.407783,27.9517045 C119.138843,28.1808712 118.803616,28.2954545 118.402101,28.2954545 Z M126.686181,30 L126.686181,24.9545455 C126.689969,24.5795455 126.760991,24.2585227 126.899249,23.9914773 C127.037507,23.7244318 127.230688,23.5208333 127.478794,23.3806818 C127.726901,23.2405303 128.013832,23.1704545 128.33959,23.1704545 C128.824438,23.1704545 129.20512,23.3210227 129.481635,23.6221591 C129.758151,23.9232955 129.894514,24.3409091 129.890726,24.875 L129.890726,24.875 L129.890726,30 L132.311181,30 L132.311181,24.4431818 C132.311181,23.7651515 132.186181,23.1808712 131.936181,22.6903409 C131.686181,22.1998106 131.335802,21.8219697 130.885044,21.5568182 C130.434287,21.2916667 129.905878,21.1590909 129.299817,21.1590909 C128.65209,21.1590909 128.100954,21.3077652 127.646408,21.6051136 C127.191863,21.9024621 126.867999,22.3049242 126.674817,22.8125 L126.674817,22.8125 L126.572544,22.8125 L126.572544,21.2727273 L124.265726,21.2727273 L124.265726,30 L126.686181,30 Z" id="Primarybutton" fill="#FFFFFF" fill-rule="nonzero"></path>
                </g>
                <g id="btn-copy" transform="translate(236.000000, 32.000000)">
                    <rect id="Rectangle" fill="#4545A1" x="0" y="0" width="150" height="48" rx="4"></rect>
                    <rect id="Rectangle" stroke="#32E7E7" fill-opacity="0.2" fill="#00ECE9" x="13" y="8" width="124" height="32"></rect>
                    <path d="M19.4715909,30 L19.471,26.228 L21.5397727,26.2272727 C22.3343855,26.2272727 23.0249953,26.0970819 23.6116021,25.8367003 L23.8267045,25.7329545 C24.4573864,25.4034091 24.9393939,24.9431818 25.2727273,24.3522727 C25.6060606,23.7613636 25.7727273,23.0795455 25.7727273,22.3068182 C25.7727273,21.5340909 25.6089015,20.8513258 25.28125,20.2585227 C24.9535985,19.6657197 24.4791667,19.2017045 23.8579545,18.8664773 C23.2367424,18.53125 22.4848485,18.3636364 21.6022727,18.3636364 L21.6022727,18.3636364 L17.0113636,18.3636364 L17.0113636,30 L19.4715909,30 Z M19.4715909,20.375 L21.1306818,20.375 C21.6079545,20.375 22.0018939,20.4554924 22.3125,20.6164773 C22.6231061,20.7774621 22.8551136,21.0028409 23.0085227,21.2926136 C23.1619318,21.5823864 23.2386364,21.9204545 23.2386364,22.3068182 C23.2386364,22.6893939 23.1619318,23.0274621 23.0085227,23.3210227 C22.8551136,23.6145833 22.624053,23.84375 22.3153409,24.0085227 C22.0066288,24.1732955 21.6155303,24.2556818 21.1420455,24.2556818 L21.1420455,24.2556818 L19.471,24.256 L19.4715909,20.375 Z M29.7499917,30 L29.7499917,25.0625 C29.7499917,24.7064394 29.8304841,24.3920455 29.9914689,24.1193182 C30.1524538,23.8465909 30.3721508,23.6335227 30.6505599,23.4801136 C30.9289689,23.3267045 31.2462038,23.25 31.6022644,23.25 C31.7689311,23.25 31.9526432,23.2632576 32.1534008,23.2897727 C32.3541583,23.3162879 32.5113553,23.3465909 32.6249917,23.3806818 L32.6249917,23.3806818 L32.6249917,21.2329545 C32.5189311,21.2064394 32.395825,21.1856061 32.2556735,21.1704545 C32.115522,21.155303 31.9848402,21.1477273 31.863628,21.1477273 C31.3749917,21.1477273 30.9431735,21.2869318 30.5681735,21.5653409 C30.1931735,21.84375 29.926128,22.2537879 29.7670371,22.7954545 L29.7670371,22.7954545 L29.676128,22.7954545 L29.676128,21.2727273 L27.3295371,21.2727273 L27.3295371,30 L29.7499917,30 Z M35.0920133,20.1477273 C35.4518618,20.1477273 35.7596269,20.0274621 36.0153087,19.7869318 C36.2709905,19.5464015 36.3988315,19.2575758 36.3988315,18.9204545 C36.3988315,18.5871212 36.2709905,18.3001894 36.0153087,18.0596591 C35.7596269,17.8191288 35.4499678,17.6988636 35.0863315,17.6988636 C34.7302708,17.6988636 34.4234527,17.8191288 34.1658769,18.0596591 C33.9083012,18.3001894 33.7795133,18.5871212 33.7795133,18.9204545 C33.7795133,19.2575758 33.9083012,19.5464015 34.1658769,19.7869318 C34.4234527,20.0274621 34.7321648,20.1477273 35.0920133,20.1477273 Z M36.2908769,30 L36.2908769,21.2727273 L33.8704224,21.2727273 L33.8704224,30 L36.2908769,30 Z M40.6453996,30 L40.6453996,24.7613636 C40.6453996,24.4393939 40.7078996,24.1581439 40.8328996,23.9176136 C40.9578996,23.6770833 41.1274072,23.4895833 41.3414223,23.3551136 C41.5554375,23.2206439 41.7969148,23.1534091 42.0658542,23.1534091 C42.4635814,23.1534091 42.7846042,23.280303 43.0289223,23.5340909 C43.2732405,23.7878788 43.3953996,24.1287879 43.3953996,24.5568182 L43.3953996,24.5568182 L43.3953996,30 L45.7419905,30 L45.7419905,24.6704545 C45.7419905,24.2159091 45.8650966,23.8494318 46.1113087,23.5710227 C46.3575208,23.2926136 46.7003239,23.1534091 47.1397178,23.1534091 C47.5260814,23.1534091 47.8480511,23.2746212 48.1056269,23.5170455 C48.3632026,23.7594697 48.4919905,24.1231061 48.4919905,24.6079545 L48.4919905,24.6079545 L48.4919905,30 L50.9067633,30 L50.9067633,24.1306818 C50.9067633,23.1837121 50.6520284,22.4517045 50.1425587,21.9346591 C49.633089,21.4176136 48.9711572,21.1590909 48.1567633,21.1590909 C47.5166117,21.1590909 46.9626345,21.3096591 46.4948314,21.6107955 C46.0270284,21.9119318 45.7041117,22.3125 45.5260814,22.8125 L45.5260814,22.8125 L45.4351723,22.8125 C45.2950208,22.3049242 45.0147178,21.9024621 44.5942633,21.6051136 C44.1738087,21.3077652 43.664339,21.1590909 43.0658542,21.1590909 C42.4749451,21.1590909 41.9673693,21.3068182 41.5431269,21.6022727 C41.1188845,21.8977273 40.8158542,22.3011364 40.634036,22.8125 L40.634036,22.8125 L40.5317633,22.8125 L40.5317633,21.2727273 L38.2249451,21.2727273 L38.2249451,30 L40.6453996,30 Z M55.3044628,30.1647727 C55.736281,30.1647727 56.1169628,30.1070076 56.4465082,29.9914773 C56.7760537,29.875947 57.0582507,29.7149621 57.2930991,29.5085227 C57.5279476,29.3020833 57.7154476,29.0625 57.8555991,28.7897727 L57.8555991,28.7897727 L57.923781,28.7897727 L57.923781,30 L60.2192355,30 L60.2192355,24.1136364 C60.2192355,23.594697 60.1188567,23.1486742 59.9180991,22.7755682 C59.7173416,22.4024621 59.4436673,22.0965909 59.0970764,21.8579545 C58.7504855,21.6193182 58.3546522,21.4431818 57.9095764,21.3295455 C57.4645007,21.2159091 56.9995385,21.1590909 56.5146901,21.1590909 C55.8177204,21.1590909 55.205031,21.2642045 54.6766219,21.4744318 C54.1482128,21.6846591 53.7173416,21.9839015 53.3840082,22.3721591 C53.0506749,22.7604167 52.8271901,23.219697 52.7135537,23.75 L52.7135537,23.75 L54.9521901,23.9318182 C55.0355234,23.6439394 55.2059779,23.4043561 55.4635537,23.2130682 C55.7211294,23.0217803 56.0677204,22.9261364 56.5033264,22.9261364 C56.9162052,22.9261364 57.235334,23.0246212 57.4607128,23.2215909 C57.6860916,23.4185606 57.798781,23.6969697 57.798781,24.0568182 L57.798781,24.0568182 L57.798781,24.0909091 C57.798781,24.2765152 57.7287052,24.4166667 57.5885537,24.5113636 C57.4484022,24.6060606 57.2230234,24.6770833 56.9124173,24.7244318 C56.6018113,24.7717803 56.1927204,24.8219697 55.6851446,24.875 C55.2533264,24.9166667 54.8413946,24.9886364 54.4493491,25.0909091 C54.0573037,25.1931818 53.7078719,25.344697 53.4010537,25.5454545 C53.0942355,25.7462121 52.8518113,26.0113636 52.673781,26.3409091 C52.4957507,26.6704545 52.4067355,27.0776515 52.4067355,27.5625 C52.4067355,28.1382576 52.5326825,28.6183712 52.7845764,29.0028409 C53.0364704,29.3873106 53.3802204,29.6770833 53.8158264,29.8721591 C54.2514325,30.0672348 54.7476446,30.1647727 55.3044628,30.1647727 Z M55.9976446,28.4943182 C55.6264325,28.4943182 55.3205613,28.4081439 55.080031,28.2357955 C54.8395007,28.063447 54.7192355,27.8125 54.7192355,27.4829545 C54.7192355,27.2556818 54.7779476,27.0653409 54.8953719,26.9119318 C55.0127961,26.7585227 55.1775688,26.6363636 55.3896901,26.5454545 C55.6018113,26.4545455 55.8499173,26.3882576 56.1340082,26.3465909 C56.266584,26.3276515 56.4143113,26.3058712 56.5771901,26.28125 C56.7400688,26.2566288 56.9029476,26.2282197 57.0658264,26.1960227 C57.2287052,26.1638258 57.3754855,26.1278409 57.5061673,26.0880682 C57.6368491,26.0482955 57.7400688,26.0037879 57.8158264,25.9545455 L57.8158264,25.9545455 L57.8158264,26.8806818 C57.8158264,27.1875 57.7381749,27.4621212 57.5828719,27.7045455 C57.4275688,27.9469697 57.2135537,28.1392045 56.9408264,28.28125 C56.6680991,28.4232955 56.3537052,28.4943182 55.9976446,28.4943182 Z M64.5180886,30 L64.5180886,25.0625 C64.5180886,24.7064394 64.598581,24.3920455 64.7595659,24.1193182 C64.9205507,23.8465909 65.1402477,23.6335227 65.4186568,23.4801136 C65.6970659,23.3267045 66.0143007,23.25 66.3703613,23.25 C66.537028,23.25 66.7207401,23.2632576 66.9214977,23.2897727 C67.1222553,23.3162879 67.2794522,23.3465909 67.3930886,23.3806818 L67.3930886,23.3806818 L67.3930886,21.2329545 C67.287028,21.2064394 67.1639219,21.1856061 67.0237704,21.1704545 C66.8836189,21.155303 66.7529371,21.1477273 66.631725,21.1477273 C66.1430886,21.1477273 65.7112704,21.2869318 65.3362704,21.5653409 C64.9612704,21.84375 64.694225,22.2537879 64.5351341,22.7954545 L64.5351341,22.7954545 L64.444225,22.7954545 L64.444225,21.2727273 L62.0976341,21.2727273 L62.0976341,30 L64.5180886,30 Z M70.4055647,33.2556818 C71.0040496,33.2556818 71.5154132,33.1600379 71.9396557,32.96875 C72.3638981,32.7774621 72.7152238,32.5085227 72.9936329,32.1619318 C73.272042,31.8153409 73.492686,31.4090909 73.6555647,30.9431818 L73.6555647,30.9431818 L77.0476102,21.2840909 L74.4851102,21.2727273 L72.6612466,27.6818182 L72.5703375,27.6818182 L70.7635193,21.2727273 L68.2180647,21.2727273 L71.3487466,30.25 L71.2067011,30.6193182 C71.0362466,31.0132576 70.804239,31.2414773 70.5106784,31.3039773 C70.2171178,31.3664773 69.8563223,31.3314394 69.428292,31.1988636 L69.428292,31.1988636 L68.8828375,33.0113636 C69.0570799,33.0795455 69.2777238,33.1373106 69.5447693,33.1846591 C69.8118147,33.2320076 70.0987466,33.2556818 70.4055647,33.2556818 Z M87.0146692,30.1420455 C87.677548,30.1420455 88.2769799,29.9706439 88.8129647,29.6278409 C89.3489495,29.2850379 89.773192,28.7793561 90.085692,28.1107955 C90.398192,27.4422348 90.554442,26.6212121 90.554442,25.6477273 C90.554442,24.6477273 90.3934571,23.8153409 90.0714874,23.1505682 C89.7495177,22.4857955 89.3195935,21.9876894 88.7817147,21.65625 C88.2438359,21.3248106 87.6567147,21.1590909 87.0203511,21.1590909 C86.5317147,21.1590909 86.1235708,21.2414773 85.7959192,21.40625 C85.4682677,21.5710227 85.2031162,21.7755682 85.0004647,22.0198864 C84.7978132,22.2642045 84.6434571,22.5037879 84.5373965,22.7386364 L84.5373965,22.7386364 L84.4635329,22.7386364 L84.4635329,18.3636364 L82.0430783,18.3636364 L82.0430783,30 L84.429442,30 L84.429442,28.6022727 L84.5373965,28.6022727 C84.647245,28.844697 84.8063359,29.0842803 85.0146692,29.3210227 C85.2230026,29.5577652 85.490995,29.7537879 85.8186465,29.9090909 C86.146298,30.0643939 86.5449723,30.1420455 87.0146692,30.1420455 Z M86.2476238,28.2159091 C85.8574723,28.2159091 85.5260329,28.1089015 85.2533056,27.8948864 C84.9805783,27.6808712 84.772245,27.3806818 84.6283056,26.9943182 C84.4843662,26.6079545 84.4123965,26.155303 84.4123965,25.6363636 C84.4123965,25.1174242 84.4843662,24.6666667 84.6283056,24.2840909 C84.772245,23.9015152 84.9796314,23.6060606 85.2504647,23.3977273 C85.521298,23.1893939 85.8536844,23.0852273 86.2476238,23.0852273 C86.6453511,23.0852273 86.9805783,23.1931818 87.2533056,23.4090909 C87.5260329,23.625 87.7324723,23.9242424 87.8726238,24.3068182 C88.0127753,24.6893939 88.0828511,25.1325758 88.0828511,25.6363636 C88.0828511,26.1439394 88.0118283,26.5918561 87.8697829,26.9801136 C87.7277374,27.3683712 87.5203511,27.6714015 87.2476238,27.8892045 C86.9748965,28.1070076 86.6415632,28.2159091 86.2476238,28.2159091 Z M95.1157962,30.1136364 C95.7710992,30.1136364 96.3269704,29.9583333 96.7834098,29.6477273 C97.2398492,29.3371212 97.5665538,28.9261364 97.7635234,28.4147727 L97.7635234,28.4147727 L97.8544325,28.4147727 L97.8544325,30 L100.178296,30 L100.178296,21.2727273 L97.7578416,21.2727273 L97.7578416,26.2840909 C97.7616295,26.6742424 97.684925,27.0018939 97.527728,27.2670455 C97.370531,27.532197 97.1650386,27.7320076 96.9112507,27.8664773 C96.6574628,28.000947 96.3847356,28.0681818 96.0930689,28.0681818 C95.6347356,28.0681818 95.2692053,27.9185606 94.996478,27.6193182 C94.7237507,27.3200758 94.5854931,26.9128788 94.5817053,26.3977273 L94.5817053,26.3977273 L94.5817053,21.2727273 L92.1612507,21.2727273 L92.1612507,26.8295455 C92.1650386,27.5113636 92.2909856,28.0965909 92.5390916,28.5852273 C92.7871977,29.0738636 93.1328416,29.4507576 93.5760234,29.7159091 C94.0192053,29.9810606 94.5324628,30.1136364 95.1157962,30.1136364 Z M105.354325,30.1229128 L105.59986,30.1193182 C105.914254,30.1079545 106.1813,30.0767045 106.400997,30.0255682 C106.620694,29.9744318 106.791148,29.9299242 106.91236,29.8920455 L106.91236,29.8920455 L106.531679,28.0909091 C106.471073,28.1022727 106.383951,28.1183712 106.270315,28.1392045 C106.156679,28.1600379 106.043042,28.1704545 105.929406,28.1704545 C105.766527,28.1704545 105.623535,28.1458333 105.500429,28.0965909 C105.377323,28.0473485 105.281679,27.9611742 105.213497,27.8380682 C105.145315,27.7149621 105.111224,27.5416667 105.111224,27.3181818 L105.111224,27.3181818 L105.111,23.091 L106.75327,23.0909091 L106.75327,21.2727273 L105.111,21.273 L105.111224,19.1818182 L102.69077,19.1818182 L102.69,21.273 L101.497588,21.2727273 L101.497588,23.0909091 L102.69,23.091 L102.69077,27.6363636 C102.687455,28.1368371 102.778394,28.5619081 102.963586,28.9115767 L103.048724,29.0568182 C103.291148,29.4318182 103.63111,29.7083333 104.06861,29.8863636 C104.50611,30.0643939 105.016527,30.1420455 105.59986,30.1193182 L105.354325,30.1229128 Z M111.567945,30.1229128 L111.813481,30.1193182 C112.127875,30.1079545 112.39492,30.0767045 112.614617,30.0255682 C112.834314,29.9744318 113.004769,29.9299242 113.125981,29.8920455 L113.125981,29.8920455 L112.745299,28.0909091 C112.684693,28.1022727 112.597572,28.1183712 112.483935,28.1392045 C112.370299,28.1600379 112.256663,28.1704545 112.143026,28.1704545 C111.980147,28.1704545 111.837155,28.1458333 111.714049,28.0965909 C111.590943,28.0473485 111.495299,27.9611742 111.427117,27.8380682 C111.358935,27.7149621 111.324844,27.5416667 111.324844,27.3181818 L111.324844,27.3181818 L111.324,23.091 L112.96689,23.0909091 L112.96689,21.2727273 L111.324,21.273 L111.324844,19.1818182 L108.90439,19.1818182 L108.904,21.273 L107.711208,21.2727273 L107.711208,23.0909091 L108.904,23.091 L108.90439,27.6363636 C108.901075,28.1368371 108.992014,28.5619081 109.177206,28.9115767 L109.262344,29.0568182 C109.504769,29.4318182 109.844731,29.7083333 110.282231,29.8863636 C110.719731,30.0643939 111.230147,30.1420455 111.813481,30.1193182 L111.567945,30.1229128 Z M118.390737,30.1704545 C119.273313,30.1704545 120.035624,29.9820076 120.677669,29.6051136 C121.319715,29.2282197 121.81498,28.7017045 122.163465,28.0255682 C122.511949,27.3494318 122.686192,26.5643939 122.686192,25.6704545 C122.686192,24.7689394 122.511949,23.9801136 122.163465,23.3039773 C121.81498,22.6278409 121.319715,22.1013258 120.677669,21.7244318 C120.035624,21.3475379 119.273313,21.1590909 118.390737,21.1590909 C117.508162,21.1590909 116.745851,21.3475379 116.103806,21.7244318 C115.46176,22.1013258 114.966495,22.6278409 114.61801,23.3039773 C114.269525,23.9801136 114.095283,24.7689394 114.095283,25.6704545 C114.095283,26.5643939 114.269525,27.3494318 114.61801,28.0255682 C114.966495,28.7017045 115.46176,29.2282197 116.103806,29.6051136 C116.745851,29.9820076 117.508162,30.1704545 118.390737,30.1704545 Z M118.402101,28.2954545 C117.996798,28.2954545 117.656836,28.1808712 117.382215,27.9517045 C117.107593,27.7225379 116.901154,27.4090909 116.762896,27.0113636 C116.624639,26.6136364 116.55551,26.1609848 116.55551,25.6534091 C116.55551,25.1458333 116.624639,24.6931818 116.762896,24.2954545 C116.901154,23.8977273 117.107593,23.5833333 117.382215,23.3522727 C117.656836,23.1212121 117.996798,23.0056818 118.402101,23.0056818 C118.803616,23.0056818 119.138843,23.1212121 119.407783,23.3522727 C119.676722,23.5833333 119.880321,23.8977273 120.018578,24.2954545 C120.156836,24.6931818 120.225965,25.1458333 120.225965,25.6534091 C120.225965,26.1609848 120.156836,26.6136364 120.018578,27.0113636 C119.880321,27.4090909 119.676722,27.7225379 119.407783,27.9517045 C119.138843,28.1808712 118.803616,28.2954545 118.402101,28.2954545 Z M126.686181,30 L126.686181,24.9545455 C126.689969,24.5795455 126.760991,24.2585227 126.899249,23.9914773 C127.037507,23.7244318 127.230688,23.5208333 127.478794,23.3806818 C127.726901,23.2405303 128.013832,23.1704545 128.33959,23.1704545 C128.824438,23.1704545 129.20512,23.3210227 129.481635,23.6221591 C129.758151,23.9232955 129.894514,24.3409091 129.890726,24.875 L129.890726,24.875 L129.890726,30 L132.311181,30 L132.311181,24.4431818 C132.311181,23.7651515 132.186181,23.1808712 131.936181,22.6903409 C131.686181,22.1998106 131.335802,21.8219697 130.885044,21.5568182 C130.434287,21.2916667 129.905878,21.1590909 129.299817,21.1590909 C128.65209,21.1590909 128.100954,21.3077652 127.646408,21.6051136 C127.191863,21.9024621 126.867999,22.3049242 126.674817,22.8125 L126.674817,22.8125 L126.572544,22.8125 L126.572544,21.2727273 L124.265726,21.2727273 L124.265726,30 L126.686181,30 Z" id="Primarybutton" fill="#FFFFFF" fill-rule="nonzero"></path>
                </g>
            </g>
        </g>
    </g>
</svg>