<?xml version="1.0" encoding="UTF-8"?>
<svg width="396px" height="274px" viewBox="0 0 396 274" version="1.1" xmlns="http://www.w3.org/2000/svg" xmlns:xlink="http://www.w3.org/1999/xlink">
    <title>typo-layers-ds</title>
    <defs>
        <circle id="path-1" cx="277.152" cy="136.992" r="118.56"></circle>
        <mask id="mask-2" maskContentUnits="userSpaceOnUse" maskUnits="objectBoundingBox" x="0" y="0" width="237.12" height="237.12" fill="white">
            <use xlink:href="#path-1"></use>
        </mask>
    </defs>
    <g id="Doc_exemplos" stroke="none" stroke-width="1" fill="none" fill-rule="evenodd">
        <g id="doc-tipografia-expandido" transform="translate(-414.000000, -266.000000)">
            <g id="typo-layers-ds" transform="translate(414.000000, 266.000000)">
                <path d="M136.8,1.70530257e-13 C169.798402,1.70530257e-13 200.067961,11.6835685 223.697602,31.1396317 C239.756439,23.0114401 257.919427,18.432 277.152,18.432 C342.63088,18.432 395.712,71.5131201 395.712,136.992 C395.712,202.47088 342.63088,255.552 277.152,255.552 C257.80397,255.552 239.538406,250.917412 223.404906,242.697836 C199.821707,262.011271 169.6642,273.6 136.8,273.6 C61.2474462,273.6 5.68434189e-14,212.352554 5.68434189e-14,136.8 C5.68434189e-14,61.2474462 61.2474462,1.70530257e-13 136.8,1.70530257e-13 Z" id="Combined-Shape" fill="#FFFFFF"></path>
                <circle id="Oval-g" stroke="#808080" stroke-width="0.96" fill-opacity="0.05" fill="#000000" cx="136.8" cy="136.8" r="136.32"></circle>
                <use id="Oval-b" stroke="#808080" mask="url(#mask-2)" stroke-width="1.92" fill-opacity="0.1" fill="#4269E0" stroke-dasharray="3.840000152587891" xlink:href="#path-1"></use>
                <text id="font-family" font-family="Courier" font-size="12" font-weight="normal" fill="#000000">
                    <tspan x="290.688" y="125.192">font-family</tspan>
                </text>
                <text id="line-height" font-family="Courier" font-size="12" font-weight="normal" fill="#000000">
                    <tspan x="26.496" y="125.192">line-height</tspan>
                </text>
                <text id="letter-spacing" font-family="Courier" font-size="12" font-weight="normal" fill="#000000">
                    <tspan x="26.496" y="166.28">letter-spacing</tspan>
                </text>
                <text id="font-weight" font-family="Courier" font-size="12" font-weight="normal" fill="#000000">
                    <tspan x="177.024" y="166.28">font-weight</tspan>
                </text>
                <text id="font-size" font-family="Courier" font-size="12" font-weight="normal" fill="#000000">
                    <tspan x="177.024" y="125.192">font-size</tspan>
                </text>
                <text id="Brand" font-family="Courier-Bold, Courier" font-size="16" font-weight="bold" fill="#000000">
                    <tspan x="265.92" y="56.12">Brand</tspan>
                </text>
                <text id="Global" font-family="Courier-Bold, Courier" font-size="16" font-weight="bold" fill="#000000">
                    <tspan x="107.04" y="56.12">Global</tspan>
                </text>
            </g>
        </g>
    </g>
</svg>