<svg width="24" height="24" viewBox="0 0 24 24" fill="none" xmlns="http://www.w3.org/2000/svg">
<path fill-rule="evenodd" clip-rule="evenodd" d="M13 3C13 1.89543 12.1046 1 11 1C9.89543 1 9 1.89543 9 3C9 4.10457 9.89543 5 11 5C12.1046 5 13 4.10457 13 3ZM11 6C12.0544 6 12.9182 6.81588 12.9945 7.85074L13 8V13H18C18.4059 13 18.7671 13.2446 18.9215 13.6116L18.9615 13.7253L20.754 20H21C21.5128 20 21.9355 20.386 21.9933 20.8834L22 21C22 21.5128 21.614 21.9355 21.1166 21.9933L21 22H20C19.5941 22 19.2329 21.7554 19.0785 21.3884L19.0385 21.2747L17.53 15.999L10.5 16C9.7203 16 9.07955 15.4051 9.00687 14.6445L9 14.5V8C9 6.89543 9.89543 6 11 6ZM7 7C7.51284 7 7.93551 7.38604 7.99327 7.88338L8 8V10.3434C8 10.7669 7.7333 11.1444 7.3342 11.2859C5.35332 11.9883 4 13.8677 4 16C4 18.7614 6.23858 21 9 21C11.1359 21 13.0151 19.6483 13.7155 17.6674C13.8996 17.1467 14.471 16.8738 14.9917 17.0579C15.5124 17.2421 15.7852 17.8134 15.6011 18.3341C14.6203 21.1081 11.99 23 9 23C5.13401 23 2 19.866 2 16C2 13.2849 3.56485 10.865 5.93226 9.70888L6 9.676V9H4C3.48716 9 3.06449 8.61396 3.00673 8.11662L3 8C3 7.48716 3.38604 7.06449 3.88338 7.00673L4 7H7Z" fill="black"/>
</svg>
