<svg width="24" height="24" viewBox="0 0 24 24" fill="none" xmlns="http://www.w3.org/2000/svg">
<path fill-rule="evenodd" clip-rule="evenodd" d="M12 15.8259C11.7237 15.8912 11.4427 15.9384 11.1585 15.967C11.4746 16.2917 11.7569 16.6494 12 17.0343C12.2431 16.6494 12.5254 16.2917 12.8415 15.967C12.5573 15.9384 12.2763 15.8912 12 15.8259ZM4 9.50002C4 11.263 4.70189 12.8621 5.84149 14.033C5.53023 14.0644 5.22291 14.118 4.92131 14.1933C4.56275 14.2828 4.28279 14.5628 4.19329 14.9213C4.06531 15.434 4 15.9631 4 16.5C4 20.0899 6.91015 23 10.5 23C11.0095 23 11.512 22.9412 12 22.8259C12.488 22.9412 12.9905 23 13.5 23C17.0899 23 20 20.0899 20 16.5C20 15.9631 19.9347 15.434 19.8067 14.9213C19.7172 14.5628 19.4372 14.2828 19.0787 14.1933C18.7771 14.118 18.4698 14.0644 18.1585 14.033C19.2981 12.8621 20 11.263 20 9.50002C20 8.96313 19.9347 8.43397 19.8067 7.92133C19.7172 7.56278 19.4372 7.28282 19.0787 7.19331C18.5661 7.06533 18.0369 7.00002 17.5 7.00002C16.4697 7.00002 15.4954 7.23973 14.6298 7.66642C14.9087 6.87718 15.0366 6.02816 14.9911 5.15984C14.8945 3.31745 14.0314 1.63735 12.6365 0.486027C12.2668 0.180932 11.7327 0.181018 11.3631 0.48623C9.87794 1.71283 9 3.53573 9 5.50002C9 6.25132 9.12843 6.98193 9.37015 7.6664C8.50457 7.23973 7.53028 7.00002 6.5 7.00002C5.96311 7.00002 5.43395 7.06533 4.92131 7.19331C4.56275 7.28282 4.28279 7.56278 4.19329 7.92133C4.06531 8.43397 4 8.96313 4 9.50002ZM18 9.50002C18 11.9853 15.9853 14 13.5 14C13.3402 14 13.1816 13.9917 13.0247 13.9753C13.0083 13.8184 13 13.6598 13 13.5C13 11.0147 15.0147 9.00002 17.5 9.00002C17.6598 9.00002 17.8184 9.00831 17.9753 9.02474C17.9917 9.18165 18 9.34022 18 9.50002ZM12.9938 5.26451C12.9432 4.29767 12.589 3.39741 12.0001 2.67067C11.3615 3.459 11 4.44932 11 5.50002C11 6.55064 11.3615 7.5409 11.9999 8.3292C12.6881 7.47912 13.0532 6.39639 12.9938 5.26451ZM18 16.5C18 18.9853 15.9853 21 13.5 21C13.3402 21 13.1816 20.9917 13.0247 20.9753C13.0083 20.8184 13 20.6598 13 20.5C13 18.0147 15.0147 16 17.5 16C17.6598 16 17.8184 16.0083 17.9753 16.0247C17.9917 16.1817 18 16.3402 18 16.5ZM11 13.5C11 11.0147 8.98528 9.00002 6.5 9.00002C6.34019 9.00002 6.18163 9.00831 6.02472 9.02474C6.00829 9.18165 6 9.34022 6 9.50002C6 11.9853 8.01472 14 10.5 14C10.6598 14 10.8184 13.9917 10.9753 13.9753C10.9917 13.8184 11 13.6598 11 13.5ZM6.5 16C8.98528 16 11 18.0147 11 20.5C11 20.6598 10.9917 20.8184 10.9753 20.9753C10.8184 20.9917 10.6598 21 10.5 21C8.01472 21 6 18.9853 6 16.5C6 16.3402 6.00829 16.1817 6.02472 16.0247C6.18163 16.0083 6.34019 16 6.5 16Z" fill="black"/>
</svg>
