<svg width="24" height="24" viewBox="0 0 24 24" fill="none" xmlns="http://www.w3.org/2000/svg">
<path fill-rule="evenodd" clip-rule="evenodd" d="M5 7H19C19.5523 7 20 6.55228 20 6C20 5.44772 19.5523 5 19 5H5C4.44772 5 4 5.44772 4 6C4 6.55228 4.44772 7 5 7ZM5 11H11C11.5523 11 12 10.5523 12 10C12 9.44772 11.5523 9 11 9H5C4.44772 9 4 9.44772 4 10C4 10.5523 4.44772 11 5 11ZM5 15H19C19.5523 15 20 14.5523 20 14C20 13.4477 19.5523 13 19 13H5C4.44772 13 4 13.4477 4 14C4 14.5523 4.44772 15 5 15ZM5 19H11C11.5523 19 12 18.5523 12 18C12 17.4477 11.5523 17 11 17H5C4.44772 17 4 17.4477 4 18C4 18.5523 4.44772 19 5 19Z" fill="black"/>
</svg>
