<svg width="24" height="24" viewBox="0 0 24 24" fill="none" xmlns="http://www.w3.org/2000/svg">
<path fill-rule="evenodd" clip-rule="evenodd" d="M5 7H19C19.5523 7 20 6.55228 20 6C20 5.44772 19.5523 5 19 5H5C4.44772 5 4 5.44772 4 6C4 6.55228 4.44772 7 5 7ZM9 11H15C15.5523 11 16 10.5523 16 10C16 9.44772 15.5523 9 15 9H9C8.44772 9 8 9.44772 8 10C8 10.5523 8.44772 11 9 11ZM5 15H19C19.5523 15 20 14.5523 20 14C20 13.4477 19.5523 13 19 13H5C4.44772 13 4 13.4477 4 14C4 14.5523 4.44772 15 5 15ZM9 19H15C15.5523 19 16 18.5523 16 18C16 17.4477 15.5523 17 15 17H9C8.44772 17 8 17.4477 8 18C8 18.5523 8.44772 19 9 19Z" fill="black"/>
</svg>
