<svg width="24" height="24" viewBox="0 0 24 24" fill="none" xmlns="http://www.w3.org/2000/svg">
<path fill-rule="evenodd" clip-rule="evenodd" d="M12 2C10.3431 2 9 3.34315 9 5C9 6.30622 9.83481 7.41746 11 7.82929V10H9C8.44772 10 8 10.4477 8 11C8 11.5523 8.44772 12 9 12H11V19.9572C7.33522 19.6353 4.89743 17.5155 4.20332 14.1144L4.179 13.988L5.4453 14.8321L5.54607 14.8911C5.99192 15.119 6.54758 14.9814 6.83205 14.5547C7.1384 14.0952 7.01423 13.4743 6.5547 13.1679L2 10.1315V12L2.00337 12.307C2.13366 18.2071 6.02784 22 12 22C18.0751 22 22 18.0751 22 12V10.1315L17.4453 13.1679L17.352 13.2382C16.9702 13.5622 16.8835 14.128 17.1679 14.5547L17.2382 14.648C17.5622 15.0298 18.128 15.1165 18.5547 14.8321L19.82 13.988L19.7967 14.1144C19.1026 17.5155 16.6648 19.6353 13 19.9572V12H15C15.5523 12 16 11.5523 16 11C16 10.4477 15.5523 10 15 10H13V7.82929C14.1652 7.41746 15 6.30622 15 5C15 3.34315 13.6569 2 12 2ZM13 5C13 4.44772 12.5523 4 12 4C11.4477 4 11 4.44772 11 5C11 5.55228 11.4477 6 12 6C12.5523 6 13 5.55228 13 5Z" fill="black"/>
</svg>
