<svg width="24" height="24" viewBox="0 0 24 24" fill="none" xmlns="http://www.w3.org/2000/svg">
<path fill-rule="evenodd" clip-rule="evenodd" d="M22 7C22 4.23858 19.7614 2 17 2C14.2386 2 12 4.23858 12 7C12 9.41889 13.7177 11.4366 15.9998 11.8999L16 20H3C2.44772 20 2 20.4477 2 21C2 21.5523 2.44772 22 3 22H17L17.1166 21.9933C17.614 21.9355 18 21.5128 18 21L18.0012 11.8997C20.2828 11.436 22 9.41854 22 7ZM14 18C14 17.4477 13.5523 17 13 17H6C5.44772 17 5 17.4477 5 18C5 18.5523 5.44772 19 6 19H13C13.5523 19 14 18.5523 14 18ZM17 4C15.3431 4 14 5.34315 14 7C14 8.65685 15.3431 10 17 10C18.6569 10 20 8.65685 20 7C20 5.34315 18.6569 4 17 4ZM18.4974 6.6129C18.8024 6.22061 18.7747 5.65338 18.4142 5.29289C18.0237 4.90237 17.3905 4.90237 17 5.29289L16.2929 6L16.2097 6.09421C15.9047 6.4865 15.9324 7.05373 16.2929 7.41421C16.6834 7.80474 17.3166 7.80474 17.7071 7.41421L18.4142 6.70711L18.4974 6.6129Z" fill="black"/>
</svg>
