<svg width="24" height="24" viewBox="0 0 24 24" fill="none" xmlns="http://www.w3.org/2000/svg">
<path fill-rule="evenodd" clip-rule="evenodd" d="M2 4C1.44772 4 1 4.44772 1 5V19C1 19.5523 1.44772 20 2 20C2.55228 20 3 19.5523 3 19V5C3 4.44772 2.55228 4 2 4ZM4 5.5C4 4.67157 4.67157 4 5.5 4C6.32843 4 7 4.67157 7 5.5V18.5C7 19.3284 6.32843 20 5.5 20C4.67157 20 4 19.3284 4 18.5V5.5ZM9.5 4C9.22386 4 9 4.22386 9 4.5V19.5C9 19.7761 9.22386 20 9.5 20C9.77614 20 10 19.7761 10 19.5V4.5C10 4.22386 9.77614 4 9.5 4ZM11 5.5C11 4.67157 11.6716 4 12.5 4C13.3284 4 14 4.67157 14 5.5V18.5C14 19.3284 13.3284 20 12.5 20C11.6716 20 11 19.3284 11 18.5V5.5ZM15 4.5C15 4.22386 15.2239 4 15.5 4C15.7761 4 16 4.22386 16 4.5V19.5C16 19.7761 15.7761 20 15.5 20C15.2239 20 15 19.7761 15 19.5V4.5ZM21 5C21 4.44772 21.4477 4 22 4C22.5523 4 23 4.44772 23 5V19C23 19.5523 22.5523 20 22 20C21.4477 20 21 19.5523 21 19V5ZM18 4C17.4477 4 17 4.44772 17 5V19C17 19.5523 17.4477 20 18 20C18.5523 20 19 19.5523 19 19V5C19 4.44772 18.5523 4 18 4Z" fill="black"/>
</svg>
