<svg width="24" height="24" viewBox="0 0 24 24" fill="none" xmlns="http://www.w3.org/2000/svg">
<path fill-rule="evenodd" clip-rule="evenodd" d="M16.4821 15.3782C16.8961 15.7929 16.8961 16.4261 16.482 16.8402L12.1278 21.1943C11.9168 21.4062 11.6934 21.5054 11.3967 21.5054C11.3144 21.5054 11.2632 21.5031 11.1974 21.4922C11.1089 21.4774 11.0296 21.4501 10.9618 21.4024C10.5782 21.2769 10.3551 20.8941 10.3551 20.4639V14.2581L7.77287 16.8404C7.35794 17.2545 6.7246 17.2548 6.31066 16.84C5.89672 16.4253 5.89672 15.7921 6.31082 15.378L9.93448 11.7543L6.31066 8.13052C5.89651 7.7156 5.89627 7.08225 6.31099 6.66831C6.72571 6.25437 7.35893 6.25437 7.77304 6.66848L10.3551 9.25057V3.04482C10.3551 2.59336 10.6008 2.19421 10.9687 2.10846C11.3742 1.9065 11.8072 1.9931 12.1281 2.31401L16.4827 6.66864C16.8967 7.08336 16.8967 7.71658 16.4826 8.13069L12.8586 11.7546L16.4821 15.3782ZM12.4383 9.24998L14.2889 7.39928L12.4383 5.54859V9.24998ZM12.4383 14.2581L14.2889 16.1088L12.4383 17.9595V14.2581Z" fill="black"/>
</svg>
