<svg width="24" height="24" viewBox="0 0 24 24" fill="none" xmlns="http://www.w3.org/2000/svg">
<path fill-rule="evenodd" clip-rule="evenodd" d="M11.7071 10.7071C11.0771 11.3371 10 10.8909 10 10V4H7C6.44772 4 6 4.44772 6 5L6.00009 16.1707C6.26006 16.0788 6.53647 16.0217 6.82373 16.0051L7 16H18V4H16V10C16 10.8909 14.9229 11.3371 14.2929 10.7071L13 9.41421L11.7071 10.7071ZM11 1C10.4477 1 10 1.44772 10 2H7C5.34315 2 4 3.34315 4 5V19C4 20.6569 5.34315 22 7 22H18C19.1046 22 20 21.1046 20 20V4C20 2.89543 19.1046 2 18 2H16C16 1.44772 15.5523 1 15 1H11ZM18 18H7C6.48716 18 6.06449 18.386 6.00673 18.8834L6 19C6 19.5523 6.44772 20 7 20H18V18ZM12 7.58579V3H14V7.58579L13.7071 7.29289C13.3166 6.90237 12.6834 6.90237 12.2929 7.29289L12 7.58579Z" fill="black"/>
</svg>
