<svg width="24" height="24" viewBox="0 0 24 24" fill="none" xmlns="http://www.w3.org/2000/svg">
<path fill-rule="evenodd" clip-rule="evenodd" d="M17 2C17.55 2 18 2.45 18 3V4C19.654 4 21 5.346 21 7V19C21 20.654 19.654 22 18 22H6C4.346 22 3 20.654 3 19V7C3 5.346 4.346 4 6 4V3C6 2.45 6.45 2 7 2C7.55 2 8 2.45 8 3V4H16V3C16 2.45 16.45 2 17 2ZM18 20C18.552 20 19 19.552 19 19V10H5V19C5 19.552 5.448 20 6 20H18ZM19 8H5V7C5 6.449 5.448 6 6 6H18C18.552 6 19 6.449 19 7V8ZM15.2526 11.3356L10.6667 16.4948L8.74741 14.3356C8.38049 13.9229 7.74842 13.8857 7.33564 14.2526C6.92285 14.6195 6.88567 15.2516 7.25259 15.6644L9.91926 18.6644C10.317 19.1119 11.0163 19.1119 11.4141 18.6644L16.7474 12.6644C17.1143 12.2516 17.0771 11.6195 16.6644 11.2526C16.2516 10.8857 15.6195 10.9229 15.2526 11.3356Z" fill="black"/>
</svg>
