<svg width="24" height="24" viewBox="0 0 24 24" fill="none" xmlns="http://www.w3.org/2000/svg">
<path fill-rule="evenodd" clip-rule="evenodd" d="M18 4V3C18 2.45 17.55 2 17 2C16.45 2 16 2.45 16 3V4H8V3C8 2.45 7.55 2 7 2C6.45 2 6 2.45 6 3V4C4.346 4 3 5.346 3 7V19C3 20.654 4.346 22 6 22H18C19.654 22 21 20.654 21 19V7C21 5.346 19.654 4 18 4ZM19 19C19 19.552 18.552 20 18 20H6C5.448 20 5 19.552 5 19V10H19V19ZM5 8H19V7C19 6.449 18.552 6 18 6H6C5.448 6 5 6.449 5 7V8ZM8 14C8.553 14 9 13.553 9 13C9 12.448 8.553 12 8 12C7.447 12 7 12.448 7 13C7 13.553 7.447 14 8 14ZM13 13C13 13.553 12.553 14 12 14C11.447 14 11 13.553 11 13C11 12.448 11.447 12 12 12C12.553 12 13 12.448 13 13ZM16 14C16.553 14 17 13.553 17 13C17 12.448 16.553 12 16 12C15.447 12 15 12.448 15 13C15 13.553 15.447 14 16 14ZM9 17C9 17.553 8.553 18 8 18C7.447 18 7 17.553 7 17C7 16.447 7.447 16 8 16C8.553 16 9 16.447 9 17ZM12 18C12.553 18 13 17.553 13 17C13 16.447 12.553 16 12 16C11.447 16 11 16.447 11 17C11 17.553 11.447 18 12 18ZM17 17C17 17.553 16.553 18 16 18C15.447 18 15 17.553 15 17C15 16.447 15.447 16 16 16C16.553 16 17 16.447 17 17Z" fill="black"/>
</svg>
