<svg width="24" height="24" viewBox="0 0 24 24" fill="none" xmlns="http://www.w3.org/2000/svg">
<path fill-rule="evenodd" clip-rule="evenodd" d="M16 8H8H5C4.44772 8 4 8.44772 4 9V17C4 17.5523 4.44772 18 5 18H19C19.5523 18 20 17.5523 20 17V9C20 8.44772 19.5523 8 19 8H16ZM13 4C14.3062 4 15.4175 4.83481 15.8293 6H19C20.6569 6 22 7.34315 22 9V17C22 18.6569 20.6569 20 19 20H5C3.34315 20 2 18.6569 2 17V9C2 7.68867 2.84136 6.57385 4.0137 6.1659C4.00469 6.11194 4 6.05652 4 6C4 5.44772 4.44772 5 5 5C5.55228 5 6 5.44772 6 6H8.17071C8.58254 4.83481 9.69378 4 11 4H13ZM8 13C8 15.2091 9.79086 17 12 17C14.2091 17 16 15.2091 16 13C16 10.7909 14.2091 9 12 9C9.79086 9 8 10.7909 8 13ZM12 15C13.1046 15 14 14.1046 14 13C14 11.8954 13.1046 11 12 11C10.8954 11 10 11.8954 10 13C10 14.1046 10.8954 15 12 15ZM17 16C17 15.4477 17.4477 15 18 15C18.5523 15 19 15.4477 19 16C19 16.5523 18.5523 17 18 17C17.4477 17 17 16.5523 17 16Z" fill="black"/>
</svg>
