<svg width="24" height="24" viewBox="0 0 24 24" fill="none" xmlns="http://www.w3.org/2000/svg">
<path fill-rule="evenodd" clip-rule="evenodd" d="M17.7066 6.29243L14.7071 3.29289C14.3166 2.90237 13.6834 2.90237 13.2929 3.29289C12.9024 3.68342 12.9024 4.31658 13.2929 4.70711L14.5858 6H6C3.79086 6 2 7.79086 2 10V15C2 15.5523 2.44772 16 3 16C3.55228 16 4 15.5523 4 15V10C4 8.89543 4.89543 8 6 8H14.5858L13.2929 9.29289C12.9024 9.68342 12.9024 10.3166 13.2929 10.7071C13.6834 11.0976 14.3166 11.0976 14.7071 10.7071L17.7065 7.7077C17.7089 7.70533 17.7113 7.70295 17.7136 7.70055C17.8063 7.6062 17.8764 7.49805 17.9241 7.38278C17.9727 7.26575 17.9996 7.1375 18 7.003C18 7.002 18 7.001 18 7C18 6.999 18 6.998 18 6.997C17.9992 6.74301 17.9023 6.48924 17.7092 6.29502" fill="black"/>
<path fill-rule="evenodd" clip-rule="evenodd" d="M6.29336 17.7076L9.29289 20.7071C9.68342 21.0976 10.3166 21.0976 10.7071 20.7071C11.0976 20.3166 11.0976 19.6834 10.7071 19.2929L9.41421 18L18 18C20.2091 18 22 16.2091 22 14L22 9C22 8.44771 21.5523 8 21 8C20.4477 8 20 8.44771 20 9L20 14C20 15.1046 19.1046 16 18 16L9.41421 16L10.7071 14.7071C11.0976 14.3166 11.0976 13.6834 10.7071 13.2929C10.3166 12.9024 9.68342 12.9024 9.29289 13.2929L6.29349 16.2923C6.29111 16.2947 6.28875 16.2971 6.28639 16.2995C6.19374 16.3938 6.12357 16.502 6.07588 16.6172C6.02735 16.7343 6.0004 16.8625 6 16.997C6 16.998 6 16.999 6 17C6 17.001 6 17.002 6 17.003C6.00076 17.257 6.09768 17.5108 6.29078 17.705" fill="black"/>
</svg>
