<svg width="24" height="24" viewBox="0 0 24 24" fill="none" xmlns="http://www.w3.org/2000/svg">
<path fill-rule="evenodd" clip-rule="evenodd" d="M4 5C4 4.44772 3.55228 4 3 4C2.44772 4 2 4.44772 2 5V19C2 19.5523 2.44772 20 3 20H21C21.5523 20 22 19.5523 22 19C22 18.4477 21.5523 18 21 18H4V5ZM8 15C8 15.5523 7.55228 16 7 16C6.44772 16 6 15.5523 6 15V13C6 12.4477 6.44772 12 7 12C7.55228 12 8 12.4477 8 13V15ZM11 16C11.5523 16 12 15.5523 12 15V11C12 10.4477 11.5523 10 11 10C10.4477 10 10 10.4477 10 11V15C10 15.5523 10.4477 16 11 16ZM16 15C16 15.5523 15.5523 16 15 16C14.4477 16 14 15.5523 14 15V9C14 8.44772 14.4477 8 15 8C15.5523 8 16 8.44772 16 9V15ZM19 16C19.5523 16 20 15.5523 20 15V7C20 6.44772 19.5523 6 19 6C18.4477 6 18 6.44772 18 7V15C18 15.5523 18.4477 16 19 16Z" fill="black"/>
</svg>
