<svg width="24" height="24" viewBox="0 0 24 24" fill="none" xmlns="http://www.w3.org/2000/svg">
<path fill-rule="evenodd" clip-rule="evenodd" d="M21 18H4V5C4 4.44772 3.55228 4 3 4C2.44772 4 2 4.44772 2 5V19C2 19.5523 2.44772 20 3 20H21C21.5523 20 22 19.5523 22 19C22 18.4477 21.5523 18 21 18ZM15 9.58579L18.2929 6.29289C18.9229 5.66293 20 6.1091 20 7V15C20 15.5523 19.5523 16 19 16H7C6.1091 16 5.66293 14.9229 6.29289 14.2929L12.2929 8.29289C12.6834 7.90237 13.3166 7.90237 13.7071 8.29289L15 9.58579ZM9.41421 14H18V9.41421L15.7071 11.7071C15.3166 12.0976 14.6834 12.0976 14.2929 11.7071L13 10.4142L9.41421 14Z" fill="black"/>
</svg>
