<svg width="24" height="24" viewBox="0 0 24 24" fill="none" xmlns="http://www.w3.org/2000/svg">
<path fill-rule="evenodd" clip-rule="evenodd" d="M17.2303 8.05106C17.6568 7.95013 17.9543 7.59 17.9954 7.17705C19.1649 7.60815 20 8.77813 20 10.1462C20 11.4551 19.2319 12.6074 18.0971 13.0756C17.5866 13.2862 17.3435 13.8708 17.5541 14.3814C17.7647 14.8919 18.3494 15.135 18.8599 14.9244C20.7448 14.1468 22 12.2636 22 10.1462C22 7.52265 20.0806 5.31765 17.5523 5.03112C17.4327 5.01757 17.3124 5.00842 17.1916 5.00372C16.0305 3.18319 13.9208 2 11.5659 2C8.36208 2 5.67607 4.17528 5.10987 7.07091C3.26685 7.69952 2 9.43375 2 11.4124C2 13.9468 4.05969 16 6.59887 16C6.77036 16 6.94088 15.9906 7.10988 15.9719C7.65882 15.9112 8.05463 15.417 7.99394 14.8681C7.93326 14.3191 7.43906 13.9233 6.89012 13.984C6.79406 13.9946 6.6969 14 6.59887 14C5.16285 14 4 12.8408 4 11.4124C4 10.5483 4.42949 9.76597 5.10721 9.29248C5.25072 9.76388 5.72419 10.0683 6.22405 9.98704C6.76918 9.89843 7.13926 9.38469 7.05065 8.83956C7.01702 8.63266 7 8.42243 7 8.20983C7 5.90012 9.02997 4 11.5659 4C13.733 4 15.5755 5.40108 16.0269 7.30826C16.1541 7.8457 16.6929 8.17826 17.2303 8.05106ZM16.9997 11.633C16.9997 11.633 16.3281 11.7431 15.5603 12.1011C15.3157 12.2151 15.0614 12.3543 14.8159 12.5231C14.4023 12.8076 14.0137 13.1761 13.7392 13.6501C13.6694 12.9377 13.5922 12.389 13.5076 12.0039C13.4884 11.9168 13.4689 11.838 13.449 11.7676C13.3925 11.568 13.3254 11.3797 13.2477 11.2026C13.0346 10.7172 12.7417 10.3163 12.3688 10C12.0085 10.4553 11.7579 10.9034 11.6172 11.3444C11.5565 11.5345 11.5162 11.7232 11.4963 11.9107C11.4876 11.9929 11.4804 12.0742 11.4746 12.1541C11.4287 12.785 11.4675 13.3358 11.493 13.6982L11.501 13.8141C11.0623 13.4018 10.6636 13.0912 10.3049 12.8822C10.1183 12.7736 9.94263 12.6924 9.77774 12.6387C9.6693 12.6034 9.56198 12.5707 9.45576 12.5407C8.94481 12.3964 8.45956 12.3136 8 12.2923C8.29088 13.3081 8.56419 13.9887 8.81993 14.334C8.85396 14.3799 8.88884 14.4249 8.92454 14.4689C9.79415 15.5415 11.1484 16.0484 12.3616 15.9964L12.3717 16.0403C12.7248 17.5809 12.6289 19.0942 12.0843 20.6021L12.0646 20.6562L12.0611 20.6655C11.871 21.18 12.1372 21.7501 12.6557 21.9388C13.1711 22.1263 13.7418 21.8665 13.9354 21.3581L13.9389 21.3488L13.9575 21.2979C14.6407 19.4211 14.7615 17.5117 14.3201 15.5923L14.3209 15.592C15.3098 15.2001 15.9341 14.5826 16.3279 13.9509C17.0362 12.815 16.9997 11.633 16.9997 11.633Z" fill="black"/>
</svg>
