<svg width="24" height="24" viewBox="0 0 24 24" fill="none" xmlns="http://www.w3.org/2000/svg">
<path fill-rule="evenodd" clip-rule="evenodd" d="M3 7C3 6.44772 3.44772 6 4 6H20C20.5523 6 21 6.44772 21 7V17C21 17.5523 20.5523 18 20 18H4C3.44772 18 3 17.5523 3 17V7ZM20 4H4C2.34315 4 1 5.34315 1 7V17C1 18.6569 2.34315 20 4 20H20C21.6569 20 23 18.6569 23 17V7C23 5.34315 21.6569 4 20 4ZM5.5 9C5.22386 9 5 9.22386 5 9.5V11.5C5 11.7761 5.22386 12 5.5 12H8.5C8.77614 12 9 11.7761 9 11.5V9.5C9 9.22386 8.77614 9 8.5 9H5.5ZM5 14.5C5 14.2239 5.22386 14 5.5 14H14.5C14.7761 14 15 14.2239 15 14.5V15.5C15 15.7761 14.7761 16 14.5 16H5.5C5.22386 16 5 15.7761 5 15.5V14.5ZM16.5 14C16.2239 14 16 14.2239 16 14.5V15.5C16 15.7761 16.2239 16 16.5 16H18.5C18.7761 16 19 15.7761 19 15.5V14.5C19 14.2239 18.7761 14 18.5 14H16.5Z" fill="black"/>
</svg>
