<svg width="24" height="24" viewBox="0 0 24 24" fill="none" xmlns="http://www.w3.org/2000/svg">
<path fill-rule="evenodd" clip-rule="evenodd" d="M18 2H15V4H18C18.5523 4 19 4.44772 19 5V9H21V5C21 3.34315 19.6569 2 18 2ZM6 6H7V5C7 3.34315 8.34315 2 10 2H13V4H10C9.44772 4 9 4.44772 9 5V6H14C15.6569 6 17 7.34315 17 9V16H18C18.5523 16 19 15.5523 19 15V11H21V15C21 16.6569 19.6569 18 18 18H17V19C17 20.6569 15.6569 22 14 22H6C4.34315 22 3 20.6569 3 19V9C3 7.34315 4.34315 6 6 6ZM6 8C5.44772 8 5 8.44772 5 9V19C5 19.5523 5.44772 20 6 20H14C14.5523 20 15 19.5523 15 19V9C15 8.44772 14.5523 8 14 8H6Z" fill="black"/>
</svg>
