<svg width="24" height="24" viewBox="0 0 24 24" fill="none" xmlns="http://www.w3.org/2000/svg">
<path fill-rule="evenodd" clip-rule="evenodd" d="M20 5.66667V5.67V18.3367C20 19.8094 16.4183 21.0033 12 21.0033C7.58172 21.0033 4 19.8094 4 18.3367V5.67H4.00001L4 5.66667C4 4.19391 7.58172 3 12 3C16.4183 3 20 4.19391 20 5.66667ZM12 5C8.68629 5 6 5.89543 6 7V9C6 10.1046 8.68629 11 12 11C15.3137 11 18 10.1046 18 9V7C18 5.89543 15.3137 5 12 5ZM18 11V13C18 14.1046 15.3137 15 12 15C8.68629 15 6 14.1046 6 13V11C6 12.1046 8.68629 13 12 13C15.3137 13 18 12.1046 18 11ZM18 17V15C18 16.1046 15.3137 17 12 17C8.68629 17 6 16.1046 6 15V17C6 18.1046 8.68629 19 12 19C15.3137 19 18 18.1046 18 17Z" fill="black"/>
</svg>
