<svg width="24" height="24" viewBox="0 0 24 24" fill="none" xmlns="http://www.w3.org/2000/svg">
<path fill-rule="evenodd" clip-rule="evenodd" d="M15.82 5H20C20.5523 5 21 5.44772 21 6C21 6.55228 20.5523 7 20 7H19V18C19 19.6569 17.6569 21 16 21H8C6.34315 21 5 19.6569 5 18V7H4C3.44772 7 3 6.55228 3 6C3 5.44772 3.44772 5 4 5H8.18C8.60275 3.80427 9.73175 3.00356 11 3H13C14.2683 3.00356 15.3973 3.80427 15.82 5ZM16 19C16.5523 19 17 18.5523 17 18V7H7V18C7 18.5523 7.44772 19 8 19H16ZM14 9C13.4477 9 13 9.44772 13 10V16C13 16.5523 13.4477 17 14 17C14.5523 17 15 16.5523 15 16V10C15 9.44772 14.5523 9 14 9ZM9 10C9 9.44772 9.44772 9 10 9C10.5523 9 11 9.44772 11 10V16C11 16.5523 10.5523 17 10 17C9.44772 17 9 16.5523 9 16V10Z" fill="black"/>
</svg>
