<svg width="24" height="24" viewBox="0 0 24 24" fill="none" xmlns="http://www.w3.org/2000/svg">
<path fill-rule="evenodd" clip-rule="evenodd" d="M9 3H15C16.6569 3 18 4.34315 18 6V18C18 19.6569 16.6569 21 15 21H9C7.34315 21 6 19.6569 6 18V6C6 4.34315 7.34315 3 9 3ZM9 5C8.44772 5 8 5.44772 8 6V18C8 18.5523 8.44772 19 9 19H15C15.5523 19 16 18.5523 16 18V6C16 5.44772 15.5523 5 15 5H9ZM12 17C12.5523 17 13 16.5523 13 16C13 15.4477 12.5523 15 12 15C11.4477 15 11 15.4477 11 16C11 16.5523 11.4477 17 12 17Z" fill="black"/>
</svg>
