<svg width="24" height="24" viewBox="0 0 24 24" fill="none" xmlns="http://www.w3.org/2000/svg">
<path fill-rule="evenodd" clip-rule="evenodd" d="M6 4H18C19.6569 4 21 5.34315 21 7V13C21 14.6569 19.6569 16 18 16H6C4.34315 16 3 14.6569 3 13V7C3 5.34315 4.34315 4 6 4ZM6 6C5.44772 6 5 6.44772 5 7V13C5 13.5523 5.44772 14 6 14H18C18.5523 14 19 13.5523 19 13V7C19 6.44772 18.5523 6 18 6H6ZM20 18H4C3.44772 18 3 18.4477 3 19C3 19.5523 3.44772 20 4 20H20C20.5523 20 21 19.5523 21 19C21 18.4477 20.5523 18 20 18Z" fill="black"/>
</svg>
