<svg width="24" height="24" viewBox="0 0 24 24" fill="none" xmlns="http://www.w3.org/2000/svg">
<path fill-rule="evenodd" clip-rule="evenodd" d="M14.06 0C14.1298 0.0114739 14.198 0.0303009 14.2637 0.0561059L14.36 0.1H14.46C14.5318 0.132654 14.5994 0.173635 14.6614 0.222009L14.75 0.3L19.75 5.3C19.8055 5.35605 19.8541 5.41837 19.8949 5.48561L19.95 5.59V5.68C19.9687 5.73604 19.9825 5.79359 19.991 5.85194L20 5.94V12H21C22.5977 12 23.9037 13.2489 23.9949 14.8237L24 15V21C24 22.5977 22.7511 23.9037 21.1763 23.9949L21 24H3C1.40232 24 0.0963391 22.7511 0.00509269 21.1763L0 21V15C0 13.4023 1.24892 12.0963 2.82373 12.0051L3 12H4V3C4 1.40232 5.24892 0.0963391 6.82373 0.00509269L7 0H14.06ZM21 14H3C2.48716 14 2.06449 14.386 2.00673 14.8834L2 15V21C2 21.5128 2.38604 21.9355 2.88338 21.9933L3 22H21C21.5128 22 21.9355 21.614 21.9933 21.1166L22 21V15C22 14.4872 21.614 14.0645 21.1166 14.0067L21 14ZM8.00741 15C8.16361 15 8.30448 15.06 8.43 15.1799C8.55552 15.2999 8.61828 15.4407 8.61828 15.6025C8.61828 15.7071 8.59004 15.8054 8.53356 15.8975L8.46766 15.9874L6.81075 17.9707L8.51787 20.0126L8.58743 20.1056C8.64705 20.1998 8.67686 20.2971 8.67686 20.3975C8.67686 20.5593 8.6141 20.7001 8.48858 20.8201C8.36305 20.94 8.2194 21 8.05762 21C7.92372 21 7.8059 20.9554 7.70414 20.8661L7.63084 20.7908L6.05762 18.8661L4.46766 20.7908L4.39167 20.8661C4.28724 20.9554 4.17031 21 4.04088 21C3.88467 21 3.74381 20.94 3.61828 20.8201C3.49276 20.7001 3.43 20.5593 3.43 20.3975C3.43 20.2929 3.45824 20.1946 3.51473 20.1025L3.58063 20.0126L5.29611 17.9707L3.6392 15.9874L3.56964 15.8944C3.51002 15.8002 3.48021 15.7029 3.48021 15.6025C3.48021 15.4407 3.54297 15.2999 3.66849 15.1799C3.79402 15.06 3.93488 15 4.09109 15C4.22498 15 4.34459 15.0464 4.44992 15.1392L4.52623 15.2176L6.05762 17.0669L7.57226 15.2176L7.64858 15.1392C7.75391 15.0464 7.87351 15 8.00741 15ZM14.702 15.0084C14.8861 15.0084 15.0353 15.0683 15.1497 15.1883C15.2412 15.2842 15.2961 15.4025 15.3144 15.5431L15.3212 15.6527V20.4059L15.3149 20.5116C15.2979 20.6464 15.247 20.7562 15.1622 20.841C15.0562 20.947 14.9168 21 14.7438 21C14.5764 21 14.4398 20.947 14.3338 20.841C14.249 20.7562 14.1981 20.6464 14.1811 20.5116L14.1748 20.4059V17.4519L12.9865 19.6862L12.9266 19.7877C12.8654 19.8818 12.8003 19.954 12.7313 20.0042C12.6392 20.0711 12.529 20.1046 12.4007 20.1046C12.278 20.1046 12.1692 20.0711 12.0744 20.0042C12.0032 19.954 11.9368 19.8818 11.8751 19.7877L11.8149 19.6862L10.6267 17.4937V20.4059L10.6203 20.5088C10.6033 20.6404 10.5525 20.7498 10.4677 20.8368C10.3617 20.9456 10.2222 21 10.0492 21C9.88188 21 9.7452 20.947 9.6392 20.841C9.55441 20.7562 9.50353 20.6464 9.48657 20.5116L9.48021 20.4059V15.6527L9.48707 15.5431C9.50537 15.4025 9.56027 15.2842 9.65176 15.1883C9.76612 15.0683 9.91536 15.0084 10.0995 15.0084C10.3338 15.0084 10.519 15.1173 10.655 15.3351L10.7103 15.4351L12.4091 18.6569L14.0995 15.4351L14.1671 15.3219C14.3085 15.1129 14.4868 15.0084 14.702 15.0084ZM17.1622 15.0084C17.3631 15.0084 17.5221 15.0669 17.6392 15.1841C17.7329 15.2778 17.7892 15.3965 17.8079 15.5403L17.8149 15.6527V19.887H19.9572L20.0733 19.8924C20.4031 19.9245 20.5681 20.1013 20.5681 20.4226C20.5681 20.7389 20.4031 20.9129 20.0733 20.9445L19.9572 20.9498H17.1204L17.0086 20.9434C16.8667 20.9265 16.7533 20.8756 16.6685 20.7908C16.5837 20.706 16.5328 20.5926 16.5159 20.4507L16.5095 20.3389V15.6527L16.5165 15.5403C16.5353 15.3965 16.5915 15.2778 16.6852 15.1841C16.8024 15.0669 16.9614 15.0084 17.1622 15.0084ZM13 2H7C6.48716 2 6.06449 2.38604 6.00673 2.88338L6 3V12H18V7H14C13.4872 7 13.0645 6.61396 13.0067 6.11662L13 6V2ZM15 3.41V5H16.59L15 3.41Z" fill="black"/>
</svg>
