<svg width="24" height="24" viewBox="0 0 24 24" fill="none" xmlns="http://www.w3.org/2000/svg">
<path fill-rule="evenodd" clip-rule="evenodd" d="M16.7071 2.29289L20.7071 6.29289C20.9283 6.51411 21.0168 6.79047 21 7.05596V14C21 15.6569 19.6569 17 18 17H15V19C15 20.6569 13.6569 22 12 22H6C4.34315 22 3 20.6569 3 19V10C3 8.34314 4.34315 7 6 7H9V5C9 3.34314 10.3431 2 12 2H15.944C16.2095 1.98316 16.4859 2.07168 16.7071 2.29289ZM16 8H19V14C19 14.5523 18.5523 15 18 15H15V12.0559C15.0168 11.7912 14.9288 11.5156 14.7089 11.2947L14.7064 11.2922L11 7.58578V5C11 4.44771 11.4477 4 12 4H15V7C15 7.55228 15.4477 8 16 8ZM6 9H9V12C9 12.5523 9.44772 13 10 13H13V17V19C13 19.5523 12.5523 20 12 20H6C5.44772 20 5 19.5523 5 19V10C5 9.44771 5.44772 9 6 9ZM12 11L11 10V11H12ZM18 6L17 5V6H18Z" fill="black"/>
</svg>
