<svg width="24" height="24" viewBox="0 0 24 24" fill="none" xmlns="http://www.w3.org/2000/svg">
<path fill-rule="evenodd" clip-rule="evenodd" d="M19.95 7.68C19.9781 7.76407 19.9949 7.8515 20 7.94V8V19C20 20.6569 18.6569 22 17 22H7C5.34315 22 4 20.6569 4 19V5C4 3.34315 5.34315 2 7 2H14.06C14.1647 2.01721 14.2659 2.05097 14.36 2.1H14.46C14.5677 2.14898 14.6659 2.2167 14.75 2.3L19.75 7.3C19.8333 7.38407 19.901 7.48226 19.95 7.59V7.68ZM7 20H17C17.5523 20 18 19.5523 18 19V9H14C13.4477 9 13 8.55228 13 8V4H7C6.44772 4 6 4.44772 6 5V19C6 19.5523 6.44772 20 7 20ZM16.59 7H15V5.41L16.59 7ZM9 11C8.44772 11 8 11.4477 8 12C8 12.5523 8.44772 13 9 13H15C15.5523 13 16 12.5523 16 12C16 11.4477 15.5523 11 15 11H9ZM8 16C8 15.4477 8.44772 15 9 15H12C12.5523 15 13 15.4477 13 16C13 16.5523 12.5523 17 12 17H9C8.44772 17 8 16.5523 8 16ZM15 15C14.4477 15 14 15.4477 14 16C14 16.5523 14.4477 17 15 17C15.5523 17 16 16.5523 16 16C16 15.4477 15.5523 15 15 15Z" fill="black"/>
</svg>
