<svg width="24" height="24" viewBox="0 0 24 24" fill="none" xmlns="http://www.w3.org/2000/svg">
<path fill-rule="evenodd" clip-rule="evenodd" d="M20 7.94C19.9949 7.8515 19.9781 7.76407 19.95 7.68V7.59C19.901 7.48226 19.8333 7.38407 19.75 7.3L14.75 2.3C14.6659 2.2167 14.5677 2.14898 14.46 2.1H14.36C14.2659 2.05097 14.1647 2.01721 14.06 2H7C5.34315 2 4 3.34315 4 5V19C4 20.6569 5.34315 22 7 22H17C18.6569 22 20 20.6569 20 19V8C20 8 20 8 20 7.94ZM16.59 7H15V5.41L16.59 7ZM17 20H7C6.44772 20 6 19.5523 6 19V5C6 4.44772 6.44772 4 7 4H13V8C13 8.55228 13.4477 9 14 9H18V19C18 19.5523 17.5523 20 17 20Z" fill="black"/>
</svg>
