<svg width="24" height="24" viewBox="0 0 24 24" fill="none" xmlns="http://www.w3.org/2000/svg">
<path fill-rule="evenodd" clip-rule="evenodd" d="M19.95 7.68V7.59C19.901 7.48226 19.8333 7.38407 19.75 7.3L14.75 2.3C14.6659 2.2167 14.5677 2.14898 14.46 2.1H14.36C14.2659 2.05097 14.1647 2.01721 14.06 2H7C5.34315 2 4 3.34315 4 5V19C4 20.6569 5.34315 22 7 22C7.55228 22 8 21.5523 8 21C8 20.4477 7.55228 20 7 20C6.44772 20 6 19.5523 6 19V5C6 4.44772 6.44772 4 7 4H13V8C13 8.55228 13.4477 9 14 9H18V19C18 19.5523 17.5523 20 17 20C16.4477 20 16 20.4477 16 21C16 21.5523 16.4477 22 17 22C18.6569 22 20 20.6569 20 19V8C19.9949 7.8515 19.9781 7.76407 19.95 7.68ZM15 7H16.59L15 5.41V7ZM14.2929 17.2929L13 18.5858V12C13 11.4477 12.5523 11 12 11C11.4477 11 11 11.4477 11 12V18.5858L9.70711 17.2929C9.31658 16.9024 8.68342 16.9024 8.29289 17.2929C7.90237 17.6834 7.90237 18.3166 8.29289 18.7071L11.2929 21.7071C11.6834 22.0976 12.3166 22.0976 12.7071 21.7071L15.7071 18.7071C16.0976 18.3166 16.0976 17.6834 15.7071 17.2929C15.3166 16.9024 14.6834 16.9024 14.2929 17.2929Z" fill="black"/>
</svg>
