<svg width="24" height="24" viewBox="0 0 24 24" fill="none" xmlns="http://www.w3.org/2000/svg">
<path fill-rule="evenodd" clip-rule="evenodd" d="M14.2929 11.2929C14.6834 10.9024 15.3166 10.9024 15.7071 11.2929C16.0976 11.6834 16.0976 12.3166 15.7071 12.7071L12.7071 15.7071C12.3166 16.0976 11.6834 16.0976 11.2929 15.7071L8.29289 12.7071C7.90237 12.3166 7.90237 11.6834 8.29289 11.2929C8.68342 10.9024 9.31658 10.9024 9.70711 11.2929L11 12.5858V5C11 4.44772 11.4477 4 12 4C12.5523 4 13 4.44772 13 5V12.5858L14.2929 11.2929ZM18 14C18 13.4477 18.4477 13 19 13C19.5523 13 20 13.4477 20 14V16C20 18.2091 18.2091 20 16 20H8C5.79086 20 4 18.2091 4 16V14C4 13.4477 4.44772 13 5 13C5.55228 13 6 13.4477 6 14V16C6 17.1046 6.89543 18 8 18H16C17.1046 18 18 17.1046 18 16V14Z" fill="black"/>
</svg>
