<svg width="24" height="24" viewBox="0 0 24 24" fill="none" xmlns="http://www.w3.org/2000/svg">
<path fill-rule="evenodd" clip-rule="evenodd" d="M20.7043 6.79L17.2054 3.29C16.8155 2.90228 16.1858 2.90228 15.7959 3.29L3.28991 15.79C3.10278 15.9787 2.99847 16.2342 3 16.5V20C3 20.5523 3.44757 21 3.99968 21H7.49855C7.76427 21.0015 8.01966 20.8972 8.20832 20.71L20.7043 8.21C20.8935 8.02223 21 7.76664 21 7.5C21 7.23336 20.8935 6.97777 20.7043 6.79ZM7.08868 19H4.99936V16.91L13.7465 8.16L15.8359 10.25L7.08868 19ZM17.2454 8.84L15.1561 6.75L16.4956 5.41L18.585 7.5L17.2454 8.84Z" fill="black"/>
</svg>
