<svg width="24" height="24" viewBox="0 0 24 24" fill="none" xmlns="http://www.w3.org/2000/svg">
<path fill-rule="evenodd" clip-rule="evenodd" d="M21.8192 19.4265L15 9.68478V5C15.5523 5 16 4.55228 16 4C16 3.44772 15.5523 3 15 3H14H10H9C8.44772 3 8 3.44772 8 4C8 4.55228 8.44772 5 9 5V9.68781L2.18085 19.4264C1.71677 20.0892 2.19091 21 3 21H21C21.809 21 22.2832 20.0893 21.8192 19.4265ZM11 5H13V10C13 10.2052 13.0631 10.4054 13.1808 10.5735L14.8793 13H9.12231L10.8191 10.5767C10.9369 10.4086 11 10.2083 11 10.0031V5ZM4.921 19L7.74487 14.9672C7.82631 14.9886 7.91183 15 8 15H16C16.0885 15 16.1744 14.9885 16.2562 14.9669L19.0793 19H4.921Z" fill="black"/>
</svg>
