<svg width="24" height="24" viewBox="0 0 24 24" fill="none" xmlns="http://www.w3.org/2000/svg">
<path fill-rule="evenodd" clip-rule="evenodd" d="M12 23C5.935 23 1 18.065 1 12C1 5.935 5.935 1 12 1C18.065 1 23 5.935 23 12C23 18.065 18.065 23 12 23ZM12 3C7.037 3 3 7.038 3 12C3 16.963 7.037 21 12 21C16.963 21 21 16.963 21 12C21 7.038 16.963 3 12 3ZM11 18C11 18.553 11.447 19 12 19C12.553 19 13 18.553 13 18C13 17.447 12.553 17 12 17C11.447 17 11 17.447 11 18ZM12 6C11.4477 6 11 6.44772 11 7V15C11 15.5523 11.4477 16 12 16C12.5523 16 13 15.5523 13 15V7C13 6.44772 12.5523 6 12 6Z" fill="black"/>
</svg>
