<svg width="24" height="24" viewBox="0 0 24 24" fill="none" xmlns="http://www.w3.org/2000/svg">
<path fill-rule="evenodd" clip-rule="evenodd" d="M6 6C5.44772 6 5 6.44772 5 7V17C5 17.5523 5.44772 18 6 18H12C12.5523 18 13 17.5523 13 17C13 16.4477 13.4477 16 14 16C14.5523 16 15 16.4477 15 17C15 18.6569 13.6569 20 12 20H6C4.34315 20 3 18.6569 3 17V7C3 5.34315 4.34315 4 6 4H12C13.6569 4 15 5.34315 15 7C15 7.55228 14.5523 8 14 8C13.4477 8 13 7.55228 13 7C13 6.44772 12.5523 6 12 6H6ZM12 11C11.4477 11 11 11.4477 11 12C11 12.5523 11.4477 13 12 13H17.5858L16.2929 14.2929C15.9024 14.6834 15.9024 15.3166 16.2929 15.7071C16.6834 16.0976 17.3166 16.0976 17.7071 15.7071L20.7071 12.7071C20.8032 12.6111 20.8756 12.5003 20.9244 12.3821C20.972 12.2671 20.9988 12.1412 21 12.0092C21 12.0062 21 12.0031 21 12C21 11.9969 21 11.9938 21 11.9908C20.9988 11.8585 20.9719 11.7324 20.9241 11.6172C20.8753 11.4993 20.803 11.3888 20.7071 11.2929L17.7071 8.29289C17.3166 7.90237 16.6834 7.90237 16.2929 8.29289C15.9024 8.68342 15.9024 9.31658 16.2929 9.70711L17.5858 11H12Z" fill="black"/>
</svg>
