<svg width="24" height="24" viewBox="0 0 24 24" fill="none" xmlns="http://www.w3.org/2000/svg">
<path fill-rule="evenodd" clip-rule="evenodd" d="M19 12C18.4477 12 18 12.4477 18 13V17C18 17.5523 17.5523 18 17 18H7C6.44772 18 6 17.5523 6 17V7C6 6.44772 6.44772 6 7 6H11C11.5523 6 12 5.55228 12 5C12 4.44772 11.5523 4 11 4H7C5.34315 4 4 5.34315 4 7V17C4 18.6569 5.34315 20 7 20H17C18.6569 20 20 18.6569 20 17V13C20 12.4477 19.5523 12 19 12ZM13.7071 11.7071L18 7.41421V9C18 9.55228 18.4477 10 19 10C19.5523 10 20 9.55228 20 9V5.00069V5L20 4.997C19.9992 4.72313 19.8883 4.47515 19.7092 4.29502L19.705 4.29078C19.6096 4.19595 19.4999 4.12432 19.3828 4.07588C19.2649 4.02699 19.1356 4 19 4H15C14.4477 4 14 4.44772 14 5C14 5.55228 14.4477 6 15 6H16.5858L12.2929 10.2929C11.9024 10.6834 11.9024 11.3166 12.2929 11.7071C12.6834 12.0976 13.3166 12.0976 13.7071 11.7071Z" fill="black"/>
</svg>
