<svg width="24" height="24" viewBox="0 0 24 24" fill="none" xmlns="http://www.w3.org/2000/svg">
<path fill-rule="evenodd" clip-rule="evenodd" d="M20.9792 20.9074L2.80761 2.89038C2.41709 2.50317 1.78392 2.50317 1.3934 2.89038C1.00287 3.27758 1.00287 3.90536 1.3934 4.29256L3.80796 6.68658C1.46484 8.91601 0.183568 11.3934 0.0751567 11.608C-0.0250522 11.9054 -0.0250522 12.2029 0.0751567 12.5003C0.0869305 12.5178 0.112538 12.5623 0.151836 12.6306C0.781487 13.725 4.92586 20.928 12 20.928C13.8447 20.928 15.4902 20.4382 16.9261 19.6932L19.565 22.3096C19.9555 22.6968 20.5887 22.6968 20.9792 22.3096C21.3697 21.9224 21.3697 21.2946 20.9792 20.9074ZM2.07933 12.0046C2.51738 11.2341 3.59371 9.57471 5.20498 8.07173L8.13028 10.9721C8.03991 11.3016 7.99165 11.6478 7.99165 12.0046C7.99165 14.1859 9.79541 15.9706 12 15.9706C12.3577 15.9706 12.7048 15.9236 13.0354 15.8355L15.4258 18.2057C14.3896 18.6615 13.2452 18.945 12 18.945C6.58873 18.945 3.08142 13.591 2.07933 12.0046ZM20.192 17.3226L18.7762 15.9188C20.3651 14.4207 21.436 12.7719 21.9207 12.0046C20.9186 10.4182 17.4113 5.06412 12 5.06412C10.7582 5.06412 9.61134 5.34609 8.57041 5.79979L7.07388 4.31599C8.50978 3.57095 10.1553 3.08113 12 3.08113C19.5157 3.08113 23.7244 11.2114 23.9248 11.608C24.0251 11.8063 24.0251 12.2029 23.9248 12.4012C23.8164 12.6157 22.5352 15.0931 20.192 17.3226ZM10.9646 8.17361L15.8697 13.037C15.9601 12.7075 16.0084 12.3614 16.0084 12.0046C16.0084 9.82329 14.2046 8.0386 12 8.0386C11.6423 8.0386 11.2952 8.08558 10.9646 8.17361Z" fill="black"/>
</svg>
