<svg width="24" height="24" viewBox="0 0 24 24" fill="none" xmlns="http://www.w3.org/2000/svg">
<path fill-rule="evenodd" clip-rule="evenodd" d="M23.9248 11.6C23.7244 11.2 19.5157 3 12 3C4.48434 3 0.275574 11.2 0.0751566 11.6C-0.0250522 11.9 -0.0250522 12.2 0.0751566 12.5C0.275574 12.8 4.48434 21 12 21C19.5157 21 23.7244 12.8 23.9248 12.4C24.0251 12.2 24.0251 11.8 23.9248 11.6ZM12 19C6.58873 19 3.08142 13.6 2.07933 12C2.98121 10.4 6.58873 5 12 5C17.4113 5 20.9186 10.4 21.9207 12C20.9186 13.6 17.4113 19 12 19ZM12 8C9.79541 8 7.99165 9.8 7.99165 12C7.99165 14.2 9.79541 16 12 16C14.2046 16 16.0084 14.2 16.0084 12C16.0084 9.8 14.2046 8 12 8ZM12 14C10.8977 14 9.99582 13.1 9.99582 12C9.99582 10.9 10.8977 10 12 10C13.1023 10 14.0042 10.9 14.0042 12C14.0042 13.1 13.1023 14 12 14Z" fill="black"/>
</svg>
