<svg width="24" height="24" viewBox="0 0 24 24" fill="none" xmlns="http://www.w3.org/2000/svg">
<path fill-rule="evenodd" clip-rule="evenodd" d="M19 7H5C4.44772 7 4 7.44772 4 8C4 8.55228 4.44772 9 5 9H19C19.5523 9 20 8.55228 20 8C20 7.44772 19.5523 7 19 7ZM16 11H8C7.44772 11 7 11.4477 7 12C7 12.5523 7.44772 13 8 13H16C16.5523 13 17 12.5523 17 12C17 11.4477 16.5523 11 16 11ZM11 15H13C13.5523 15 14 15.4477 14 16C14 16.5523 13.5523 17 13 17H11C10.4477 17 10 16.5523 10 16C10 15.4477 10.4477 15 11 15Z" fill="black"/>
</svg>
