<svg width="24" height="24" viewBox="0 0 24 24" fill="none" xmlns="http://www.w3.org/2000/svg">
<path fill-rule="evenodd" clip-rule="evenodd" d="M1 12C1 5.935 5.935 1 12 1C18.065 1 23 5.935 23 12C23 18.065 18.065 23 12 23C5.935 23 1 18.065 1 12ZM3 12C3 16.963 7.037 21 12 21C16.963 21 21 16.963 21 12C21 7.038 16.963 3 12 3C7.037 3 3 7.038 3 12ZM8 6.72727C8 6.32561 8.32561 6 8.72727 6H11V5C11 4.44772 11.4477 4 12 4C12.5523 4 13 4.44772 13 5V6.03544C14.6961 6.27806 16 7.73676 16 9.5C16 10.2566 15.7599 10.9571 15.3519 11.5295C16.3416 12.1478 17 13.247 17 14.5C17 16.433 15.433 18 13.5 18H13V19C13 19.5523 12.5523 20 12 20C11.4477 20 11 19.5523 11 19V18H8.81818C8.36631 18 8 17.6337 8 17.1818V13V11V6.72727ZM10 9C10 8.44772 10.4477 8 11 8H12.5C13.3284 8 14 8.67157 14 9.5C14 10.3284 13.3284 11 12.5 11H11C10.4477 11 10 10.5523 10 10V9ZM11 13C10.4477 13 10 13.4477 10 14V15C10 15.5523 10.4477 16 11 16H13.5C14.3284 16 15 15.3284 15 14.5C15 13.6716 14.3284 13 13.5 13H11Z" fill="black"/>
</svg>
