<svg width="24" height="24" viewBox="0 0 24 24" fill="none" xmlns="http://www.w3.org/2000/svg">
<path fill-rule="evenodd" clip-rule="evenodd" d="M1 12C1 5.935 5.935 1 12 1C18.065 1 23 5.935 23 12C23 18.065 18.065 23 12 23C5.935 23 1 18.065 1 12ZM3 12C3 16.963 7.037 21 12 21C16.963 21 21 16.963 21 12C21 7.038 16.963 3 12 3C7.037 3 3 7.038 3 12ZM11 5C11 4.44772 11.4477 4 12 4C12.5523 4 13 4.44772 13 5V6H15C15.5523 6 16 6.44772 16 7C16 7.55228 15.5523 8 15 8H12H11.5C10.6716 8 10 8.67157 10 9.5C10 10.3284 10.6716 11 11.5 11H12H13.5C15.433 11 17 12.567 17 14.5C17 16.433 15.433 18 13.5 18H13V19C13 19.5523 12.5523 20 12 20C11.4477 20 11 19.5523 11 19V18H9C8.44772 18 8 17.5523 8 17C8 16.4477 8.44772 16 9 16H12H13.5C14.3284 16 15 15.3284 15 14.5C15 13.6716 14.3284 13 13.5 13H12H11.5C9.567 13 8 11.433 8 9.5C8 7.73676 9.30385 6.27806 11 6.03544V5Z" fill="black"/>
</svg>
