<svg width="24" height="24" viewBox="0 0 24 24" fill="none" xmlns="http://www.w3.org/2000/svg">
<path fill-rule="evenodd" clip-rule="evenodd" d="M4.44722 7.89443L12 4.11803L19.5528 7.89443C20.0468 8.14142 20.6474 7.94119 20.8944 7.44721C21.1414 6.95324 20.9412 6.35256 20.4472 6.10557L12.4472 2.10557C12.1657 1.96481 11.8343 1.96481 11.5528 2.10557L3.55279 6.10557C3.05881 6.35256 2.85859 6.95324 3.10557 7.44721C3.35256 7.94119 3.95324 8.14142 4.44722 7.89443ZM11 7C11 6.44772 11.4477 6 12 6C12.5523 6 13 6.44772 13 7V8H15C15.5523 8 16 8.44772 16 9C16 9.55228 15.5523 10 15 10H12H11.5C10.6716 10 10 10.6716 10 11.5C10 12.3284 10.6716 13 11.5 13H12H13.5C15.433 13 17 14.567 17 16.5C17 18.433 15.433 20 13.5 20H13V21C13 21.5523 12.5523 22 12 22C11.4477 22 11 21.5523 11 21V20H9C8.44772 20 8 19.5523 8 19C8 18.4477 8.44772 18 9 18H12H13.5C14.3284 18 15 17.3284 15 16.5C15 15.6716 14.3284 15 13.5 15H12H11.5C9.56701 15 8 13.433 8 11.5C8 9.73676 9.30385 8.27806 11 8.03544V7Z" fill="black"/>
</svg>
