<svg width="24" height="24" viewBox="0 0 24 24" fill="none" xmlns="http://www.w3.org/2000/svg">
<path fill-rule="evenodd" clip-rule="evenodd" d="M12.757 6.66342L7.42783 11.995L12.757 17.3366C13.0993 17.7365 13.0762 18.3325 12.7041 18.7048C12.332 19.0771 11.7362 19.1001 11.3365 18.7577L5.29215 12.7105C4.90156 12.3174 4.90156 11.6826 5.29215 11.2895L11.3365 5.24235C11.7362 4.8999 12.332 4.92293 12.7041 5.2952C13.0762 5.66747 13.0993 6.26354 12.757 6.66342ZM18.757 6.66342L13.4278 11.995L18.757 17.3366C19.0993 17.7365 19.0762 18.3325 18.7041 18.7048C18.332 19.0771 17.7362 19.1001 17.3365 18.7577L11.2922 12.7105C10.9016 12.3174 10.9016 11.6826 11.2922 11.2895L17.3365 5.24235C17.7362 4.8999 18.332 4.92293 18.7041 5.2952C19.0762 5.66747 19.0993 6.26354 18.757 6.66342Z" fill="black"/>
</svg>
