<svg width="24" height="24" viewBox="0 0 24 24" fill="none" xmlns="http://www.w3.org/2000/svg">
<path fill-rule="evenodd" clip-rule="evenodd" d="M11.8998 5.45457H18.746H18.3584C19.86 5.45457 21.013 6.60756 21.013 8.10915V17.1095C21.013 18.611 19.86 19.764 18.3584 19.764H5.65457C4.15299 19.764 3 18.611 3 17.1095V5.65457C3 4.15299 4.15299 3 5.65457 3H9.74573C10.0263 3 10.3117 3.1554 10.5679 3.41762L11.8998 5.45457ZM9.22886 5.03597H5.65519C5.27473 5.03597 5.0372 5.2735 5.0372 5.65396V17.3706C5.0372 17.7511 5.27473 17.9886 5.65519 17.9886H18.3626C18.743 17.9886 18.9806 17.7511 18.9806 17.3706L18.9812 8.10853C18.9812 7.72808 18.7437 7.49055 18.3632 7.49055H11.3829C11.1023 7.49055 10.817 7.33514 10.5608 7.07293L9.22886 5.03597Z" fill="black"/>
</svg>
