<svg width="24" height="24" viewBox="0 0 24 24" fill="none" xmlns="http://www.w3.org/2000/svg">
<path fill-rule="evenodd" clip-rule="evenodd" d="M19 0C20.6569 0 22 1.34315 22 3V4C22.5523 4 23 4.44772 23 5V7C23 7.55228 22.5523 8 22 8V10C22.5523 10 23 10.4477 23 11V13C23 13.5523 22.5523 14 22 14V16C22.5523 16 23 16.4477 23 17V19C23 19.5523 22.5523 20 22 20V21C22 22.6569 20.6569 24 19 24H5C3.34315 24 2 22.6569 2 21V3C2 1.34315 3.34315 0 5 0H19ZM10.5714 5C10.3643 5 10.1915 5.12854 10.1516 5.29942L10.1429 5.375V9.9375L10.1356 10.0005C10.1023 10.1429 9.9583 10.25 9.78571 10.25C9.61313 10.25 9.46913 10.1429 9.43583 10.0005L9.42857 9.9375V5.375L9.41986 5.29942C9.3799 5.12854 9.20711 5 9 5C8.79289 5 8.6201 5.12854 8.58014 5.29942L8.57143 5.375V9.9375L8.56417 10.0005C8.53087 10.1429 8.38687 10.25 8.21429 10.25C8.0417 10.25 7.8977 10.1429 7.8644 10.0005L7.85714 9.9375V5.375L7.84844 5.29942C7.80847 5.12854 7.63568 5 7.42857 5C7.22146 5 7.04867 5.12854 7.00871 5.29942L7 5.375V11.1L7.02401 11.2569C7.09125 11.5572 7.26859 11.7793 7.46278 11.964L7.56085 12.0535L7.846 12.2959L7.9294 12.3718L8.00266 12.4473L8 19C8 19.5523 8.44772 20 9 20C9.51284 20 9.93551 19.614 9.99327 19.1166L10 19L9.99818 12.4463L10.0715 12.371L10.1548 12.2951L10.4394 12.053C10.6687 11.851 10.8958 11.6077 10.9726 11.2583L10.9959 11.1019L11 5.375L10.9913 5.29942C10.9513 5.12854 10.7785 5 10.5714 5ZM15.4839 4.07539C15.5988 3.9775 15.7887 3.97455 15.9081 4.0688C15.9521 4.10359 15.9818 4.14828 15.9939 4.19666L16 4.24604V19L15.9933 19.1166C15.9355 19.614 15.5128 20 15 20C14.4477 20 14 19.5523 14 19L14.0004 13.0543L13.88 13.0396C13.4037 12.967 13 12.729 13 12.3253C13 8.03967 13.828 5.48585 15.4839 4.07539Z" fill="black"/>
</svg>
