<svg width="24" height="24" viewBox="0 0 24 24" fill="none" xmlns="http://www.w3.org/2000/svg">
<path fill-rule="evenodd" clip-rule="evenodd" d="M17 21C17.5523 21 18 20.5523 18 20L18.0001 3.99014L17.9852 3.8277L17.9588 3.71592C17.9436 3.66449 17.9242 3.61423 17.8984 3.56024C17.8333 3.42752 17.7396 3.31134 17.6232 3.21781L17.5971 3.1978C17.5465 3.16007 17.4922 3.12702 17.4343 3.09913L17.3557 3.06514L17.258 3.03362L17.1896 3.01789L17.0824 3.00337L16.9901 2.99994L16.8258 3.01514C16.6263 3.05018 16.4472 3.14427 16.3073 3.27846C16.2619 3.32211 16.2201 3.37063 16.1826 3.42383C16.1716 3.4396 16.1608 3.45577 16.1505 3.47236C14.7122 5.78795 14 8.63661 14 12V13L14.0078 13.1249C14.0491 13.4536 14.2516 13.7439 14.5528 13.8944L16 14.6179V20C16 20.5523 16.4477 21 17 21ZM10 4.50002C10 4.22387 9.77614 4.00002 9.5 4.00002C9.22386 4.00002 9 4.22387 9 4.50002V9.50002L8.99194 9.58989C8.94961 9.82314 8.74546 10 8.5 10L8.41012 9.99196C8.17688 9.94963 8 9.74548 8 9.50002V4.50002C8 4.22387 7.77614 4.00002 7.5 4.00002C7.22386 4.00002 7 4.22387 7 4.50002V9.50002L6.99194 9.58989C6.94961 9.82314 6.74546 10 6.5 10C6.22386 10 6 9.77616 6 9.50002V4.50002C6 4.22387 5.77614 4.00002 5.5 4.00002C5.22386 4.00002 5 4.22387 5 4.50002V10.5C5 11.5252 5.61713 12.4063 6.50017 12.7921L6.5 20C6.5 20.5523 6.94772 21 7.5 21C8.05228 21 8.5 20.5523 8.5 20L8.50083 12.7916C9.38334 12.4057 10 11.5249 10 10.5V4.50002Z" fill="black"/>
</svg>
