<svg width="24" height="24" viewBox="0 0 24 24" fill="none" xmlns="http://www.w3.org/2000/svg">
<path fill-rule="evenodd" clip-rule="evenodd" d="M8 2H16C17.1046 2 18 2.89543 18 4V18H19C19.5523 18 20 17.5523 20 17V7.32456C20 7.21707 19.9827 7.11029 19.9487 7.00833L19.0513 4.31623C18.8767 3.79228 19.1598 3.22596 19.6838 3.05132C20.2077 2.87667 20.774 3.15983 20.9487 3.68377L21.8461 6.37587C21.948 6.68177 22 7.00211 22 7.32456V17C22 18.6569 20.6569 20 19 20H18C18 21.1046 17.1046 22 16 22H8C6.89543 22 6 21.1046 6 20V4C6 2.89543 6.89543 2 8 2ZM9 4H15C15.5523 4 16 4.44772 16 5V9C16 9.55228 15.5523 10 15 10H9C8.44772 10 8 9.55228 8 9V5C8 4.44772 8.44772 4 9 4Z" fill="black"/>
</svg>
