<svg width="24" height="24" viewBox="0 0 24 24" fill="none" xmlns="http://www.w3.org/2000/svg">
<path fill-rule="evenodd" clip-rule="evenodd" d="M16.3811 2.77287L16.3311 2.71913L16.2815 2.66947C15.7671 2.22196 15.1866 2 14.5865 2C13.785 2 13.0413 2.38294 12.4303 3.04526C12.2732 3.21544 12.1299 3.39705 12 3.5896C11.87 3.39697 11.7266 3.21526 11.5694 3.04498C10.9587 2.38294 10.215 2 9.41351 2C8.81336 2 8.23292 2.22196 7.77225 2.61954L7.66885 2.71913L7.61892 2.77287C6.8009 3.72066 6.80929 4.96824 7.54091 6H4C2.89543 6 2 6.89543 2 8V12C2 13.1046 2.89543 14 4 14V20C4 21.1046 4.89543 22 6 22H18C19.1046 22 20 21.1046 20 20V14C21.1046 14 22 13.1046 22 12V8C22 6.89543 21.1046 6 20 6H16.459C17.1907 4.96815 17.1991 3.72063 16.3811 2.77287ZM15 14H18V20H15V14ZM11 14H13V20H11V14ZM6 14H9V20H6V14ZM4 12V8H20V12H4ZM9.40074 5.09957C9.75613 5.42735 10.2268 5.66564 10.8123 5.81201C10.666 5.22712 10.4276 4.75665 10.0996 4.4013C9.84162 4.12164 9.60538 4 9.41351 4C9.29983 4 9.18129 4.04533 9.13271 4.0837L9.11473 4.10168C8.90894 4.3614 8.96258 4.69521 9.40074 5.09957ZM13.9002 4.40158C14.1584 4.12164 14.3946 4 14.5865 4C14.6894 4 14.7963 4.03714 14.8915 4.10968C15.0899 4.36824 15.0329 4.69936 14.599 5.09977C14.2438 5.42741 13.7732 5.66565 13.1877 5.81202C13.334 5.22714 13.5723 4.75672 13.9002 4.40158Z" fill="black"/>
</svg>
