<svg width="24" height="24" viewBox="0 0 24 24" fill="none" xmlns="http://www.w3.org/2000/svg">
<path fill-rule="evenodd" clip-rule="evenodd" d="M17.5054 4.41399L17.7186 4.53067L20.4808 6.1545C20.7333 6.30297 20.9593 6.48678 21.1549 6.6987C21.6074 6.78901 22.0537 6.91009 22.4488 7.05138C23.3372 7.25414 24 8.04967 24 9V15C24 16.1046 23.1046 17 22 17L20.8312 17.0007C20.498 17.5852 20.0484 18.0875 19.5278 18.4424C19.3489 19.0879 18.9522 19.6782 18.3596 20.0931C17.4814 20.708 16.3882 20.787 15.4685 20.3983L15.1877 20.5285C13.8097 21.1488 12.3543 21.6181 10.8217 21.9364C9.73984 22.1612 8.6206 21.7805 7.90654 20.9448L4.536 17H3C1.34315 17 0 15.6569 0 14V10C0 8.34315 1.34315 7 3 7H4.079L8.80959 5.19889C9.69581 4.86138 10.6628 4.96438 11.4384 5.42479L14.1206 4.38801C15.1884 3.86586 16.4278 3.86698 17.5054 4.41399ZM5.32513 8.66401L4.44686 9H3C2.48716 9 2.06449 9.38604 2.00673 9.88338L2 10V14C2 14.5128 2.38604 14.9355 2.88338 14.9933L3 15H5.45778L9.42703 19.6456C9.66621 19.9255 10.0464 20.0548 10.415 19.9782C11.6324 19.7254 12.7925 19.3687 13.8832 18.9147L14.3463 18.7141L15.4308 18.2112L16.2469 18.556C16.3545 18.6015 16.4673 18.6276 16.5804 18.6343L16.7145 18.6333L16.8099 18.6211L16.9063 18.5997L16.9414 18.589L17.006 18.566L17.0695 18.5383C17.1186 18.5149 17.1664 18.487 17.2125 18.4548C17.5449 18.2221 17.6924 17.8238 17.6217 17.4494C17.6032 17.353 17.5705 17.2583 17.5229 17.1683L17.4571 17.0608L14.1501 12.3329C13.1066 12.9148 12.2557 13.2606 11.574 13.3703C10.4023 13.5588 9.38514 13.5765 8.52257 13.4234C7.77943 13.2747 7.05711 13.0021 6.37802 12.6029C6.23547 12.5191 6.09973 12.422 6.0001 12.3329C5.51853 11.9206 5.19056 11.3442 5.06139 10.6979C4.93601 10.0705 5.00729 9.43496 5.23323 8.87169L5.32513 8.66401ZM15.1545 6.11729L14.8418 6.25345L7.68215 9.02026L7.57746 9.06359C7.18384 9.24625 6.91924 9.78868 7.02261 10.306C7.05726 10.4793 7.12885 10.6269 7.24115 10.7521L7.33307 10.8419C7.32895 10.8382 7.35813 10.8591 7.3916 10.8788C7.87129 11.1607 8.38269 11.3557 8.87207 11.4542C9.49494 11.5647 10.2918 11.5508 11.2564 11.3957C11.6255 11.3363 12.1949 11.1146 12.9455 10.7123L13.1761 10.5861L14.7529 9.70696L18.3617 14.8607L19.124 15.956L19.6687 15.0014L22 15V9L21.8875 8.97472L21.7753 8.93458C21.552 8.85473 21.2983 8.78088 21.0325 8.71845L20.7635 8.66003L20.126 8.53281L19.6851 8.05508C19.6417 8.00811 19.5949 7.96624 19.5448 7.92961L19.4672 7.87864L16.7586 6.28518L16.588 6.192L16.4449 6.12724C16.0265 5.96075 15.5732 5.95786 15.1545 6.11729Z" fill="black"/>
</svg>
