<svg width="24" height="24" viewBox="0 0 24 24" fill="none" xmlns="http://www.w3.org/2000/svg">
<path fill-rule="evenodd" clip-rule="evenodd" d="M7.58385 5H16.4162C17.4503 5 18.4116 5.53267 18.9599 6.40956L21.1419 9.89945C21.4445 10.208 21.681 10.5816 21.8284 10.9974L21.83 11H21.8293C21.9398 11.3128 22 11.6494 22 12V16C22 17.6569 20.6569 19 19 19H5C3.34315 19 2 17.6569 2 16V12C2 11.6494 2.06015 11.3128 2.17071 11H2.17L2.17163 10.9974C2.31902 10.5816 2.5555 10.208 2.85811 9.89945L5.04013 6.40956C5.5884 5.53267 6.54967 5 7.58385 5ZM5 11H19C19.5523 11 20 11.4477 20 12V16C20 16.5523 19.5523 17 19 17H5C4.44772 17 4 16.5523 4 16V12C4 11.4477 4.44772 11 5 11ZM16.4162 7C16.7609 7 17.0813 7.17756 17.2641 7.46985L18.2208 9H5.77923L6.73594 7.46985C6.9187 7.17756 7.23912 7 7.58385 7H16.4162ZM14 14C14 14.5523 13.5523 15 13 15C12.4477 15 12 14.5523 12 14C12 13.4477 12.4477 13 13 13C13.5523 13 14 13.4477 14 14ZM17 15C17.5523 15 18 14.5523 18 14C18 13.4477 17.5523 13 17 13C16.4477 13 16 13.4477 16 14C16 14.5523 16.4477 15 17 15Z" fill="black"/>
</svg>
