<svg width="24" height="24" viewBox="0 0 24 24" fill="none" xmlns="http://www.w3.org/2000/svg">
<path fill-rule="evenodd" clip-rule="evenodd" d="M1 12C1 5.935 5.935 1 12 1C18.065 1 23 5.935 23 12C23 18.065 18.065 23 12 23C5.935 23 1 18.065 1 12ZM3 12C3 16.963 7.037 21 12 21C16.963 21 21 16.963 21 12C21 7.038 16.963 3 12 3C7.037 3 3 7.038 3 12ZM12 6C9.794 6 8 7.794 8 10C8 10.552 8.447 11 9 11C9.553 11 10 10.552 10 10C10 8.897 10.897 8 12 8C13.103 8 14 8.897 14 10C14 11.103 13.103 12 12 12C11.447 12 11 12.448 11 13V15C11 15.553 11.447 16 12 16C12.553 16 13 15.553 13 15V13.858C14.721 13.411 16 11.858 16 10C16 7.794 14.206 6 12 6ZM11 18C11 17.447 11.447 17 12 17C12.553 17 13 17.447 13 18C13 18.553 12.553 19 12 19C11.447 19 11 18.553 11 18Z" fill="black"/>
</svg>
