<svg width="24" height="24" viewBox="0 0 24 24" fill="none" xmlns="http://www.w3.org/2000/svg">
<path fill-rule="evenodd" clip-rule="evenodd" d="M12.0009 3C16.9706 3 21 7.02944 21 12C21 16.9706 16.9706 21 12 21C9.697 21 7.39391 20.1212 5.63667 18.364C5.24615 17.9734 5.24615 17.3403 5.63667 16.9497C6.0272 16.5592 6.66036 16.5592 7.05089 16.9497C8.34179 18.2406 10.0114 18.922 11.7021 18.9937L12 19C15.866 19 19 15.866 19 12C19 8.13401 15.866 5 12 5C10.2086 4.99975 8.41671 5.68316 7.04962 7.05025C5.56978 8.53009 4.85896 10.5498 5.02118 12.5624L6.29289 11.2929C6.68342 10.9024 7.31658 10.9024 7.70711 11.2929C8.09763 11.6834 8.09763 12.3166 7.70711 12.7071L4.70711 15.7071C4.31658 16.0976 3.68342 16.0976 3.29289 15.7071L0.292893 12.7071C-0.0976311 12.3166 -0.0976311 11.6834 0.292893 11.2929C0.683417 10.9024 1.31658 10.9024 1.70711 11.2929L3.01896 12.6057C2.84702 10.0579 3.76193 7.50952 5.6354 5.63604C7.39315 3.8783 9.69707 2.99962 12.0009 3ZM12.0121 7C12.571 7 13.0241 7.45019 13.0241 8.00554V11.6154L15.7566 14.3404C16.1005 14.7394 16.0774 15.3341 15.7036 15.7055C15.3298 16.0769 14.7312 16.0999 14.3297 15.7582L11.2935 12.7416C11.1041 12.5518 10.9985 12.2949 11 12.0277V8.00554C11 7.45019 11.4531 7 12.0121 7Z" fill="black"/>
</svg>
