<svg width="24" height="24" viewBox="0 0 24 24" fill="none" xmlns="http://www.w3.org/2000/svg">
<path fill-rule="evenodd" clip-rule="evenodd" d="M3.65049 13.9372L3.76484 13.9722C3.84205 13.9908 3.92092 14 3.99969 14L5 14V20C5 20.5523 5.44772 21 6 21H10L10.1166 20.9933C10.614 20.9355 11 20.5128 11 20V15H13V20C13 20.5523 13.4477 21 14 21H18L18.1166 20.9933C18.614 20.9355 19 20.5128 19 20V14L20.0003 14C20.1043 14 20.2085 13.9839 20.3088 13.9514L20.4033 13.9154L20.5264 13.8504L20.6254 13.7803L20.7399 13.6729L20.8217 13.5704L20.8935 13.4496C20.9616 13.3144 21 13.1617 21 13C21 12.9211 20.9909 12.8443 20.9722 12.7648C20.9584 12.7078 20.9396 12.6517 20.9154 12.5967L20.8833 12.5308L20.8302 12.4424C20.8054 12.4055 20.7778 12.3698 20.7474 12.3356L12.7474 3.33565L12.6644 3.2526C12.6329 3.22465 12.6002 3.19904 12.5672 3.17612L12.52 3.14563C12.3602 3.04812 12.18 2.99999 11.9997 3C11.82 2.99999 11.6398 3.04812 11.4793 3.14598L11.4336 3.17576L11.3356 3.2526L11.2526 3.33565L3.25259 12.3356L3.17508 12.4346L3.10468 12.5541L3.05211 12.6808L3.02641 12.7707C3.00914 12.8443 3 12.9211 3 13C3 13.2021 3.05996 13.3902 3.16289 13.5475L3.19484 13.5932L3.28377 13.6979L3.33564 13.7474L3.43457 13.8249L3.53073 13.8833L3.65049 13.9372ZM6.226 12L12 5.505L17.773 12L17 12V19H15V14C15 13.4477 14.5523 13 14 13H10C9.44772 13 9 13.4477 9 14V19H7V12L6.226 12Z" fill="black"/>
</svg>
