<svg width="24" height="24" viewBox="0 0 24 24" fill="none" xmlns="http://www.w3.org/2000/svg">
<path fill-rule="evenodd" clip-rule="evenodd" d="M5 5C4.44772 5 4 4.55228 4 4C4 3.44772 4.44772 3 5 3H19C19.5523 3 20 3.44772 20 4C20 4.55228 19.5523 5 19 5H5ZM5 17C4.44772 17 4 16.5523 4 16C4 15.4477 4.44772 15 5 15H19C19.5523 15 20 15.4477 20 16C20 16.5523 19.5523 17 19 17H5ZM19 19C19.5523 19 20 19.4477 20 20C20 20.5128 19.614 20.9355 19.1166 20.9933L19 21H5C4.44772 21 4 20.5523 4 20C4 19.4872 4.38604 19.0645 4.88338 19.0067L5 19H19ZM19 11C19.5523 11 20 11.4477 20 12C20 12.5128 19.614 12.9355 19.1166 12.9933L19 13H14C13.4477 13 13 12.5523 13 12C13 11.4872 13.386 11.0645 13.8834 11.0067L14 11H19ZM9 7C10.1046 7 11 7.89543 11 9V11C11 12.1046 10.1046 13 9 13H6C4.89543 13 4 12.1046 4 11V9C4 7.89543 4.89543 7 6 7H9ZM14 7H19C19.5523 7 20 7.44772 20 8C20 8.51284 19.614 8.93551 19.1166 8.99327L19 9H14C13.4477 9 13 8.55228 13 8C13 7.48716 13.386 7.06449 13.8834 7.00673L14 7H19H14Z" fill="black"/>
</svg>
