<svg width="24" height="24" viewBox="0 0 24 24" fill="none" xmlns="http://www.w3.org/2000/svg">
<path fill-rule="evenodd" clip-rule="evenodd" d="M5 5C4.44772 5 4 4.55228 4 4C4 3.44772 4.44772 3 5 3H19C19.5523 3 20 3.44772 20 4C20 4.55228 19.5523 5 19 5H5ZM5 17C4.44772 17 4 16.5523 4 16C4 15.4477 4.44772 15 5 15H19C19.5523 15 20 15.4477 20 16C20 16.5523 19.5523 17 19 17H5ZM19 19C19.5523 19 20 19.4477 20 20C20 20.5523 19.5523 21 19 21H5C4.44772 21 4 20.5523 4 20C4 19.4477 4.44772 19 5 19H19ZM17 7C18.1046 7 19 7.89543 19 9V11C19 12.1046 18.1046 13 17 13H7C5.89543 13 5 12.1046 5 11V9C5 7.89543 5.89543 7 7 7H17Z" fill="black"/>
</svg>
