<svg width="24" height="24" viewBox="0 0 24 24" fill="none" xmlns="http://www.w3.org/2000/svg">
<path fill-rule="evenodd" clip-rule="evenodd" d="M5 5C4.44772 5 4 4.55228 4 4C4 3.44772 4.44772 3 5 3H19C19.5523 3 20 3.44772 20 4C20 4.55228 19.5523 5 19 5H5ZM5 17C4.44772 17 4 16.5523 4 16C4 15.4477 4.44772 15 5 15H19C19.5523 15 20 15.4477 20 16C20 16.5523 19.5523 17 19 17H5ZM19 19C19.5523 19 20 19.4477 20 20C20 20.5128 19.614 20.9355 19.1166 20.9933L19 21H5C4.44772 21 4 20.5523 4 20C4 19.4872 4.38604 19.0645 4.88338 19.0067L5 19H19ZM10 11C10.5523 11 11 11.4477 11 12C11 12.5128 10.614 12.9355 10.1166 12.9933L10 13H5C4.44772 13 4 12.5523 4 12C4 11.4872 4.38604 11.0645 4.88338 11.0067L5 11H10ZM18 7C19.1046 7 20 7.89543 20 9V11C20 12.1046 19.1046 13 18 13H15C13.8954 13 13 12.1046 13 11V9C13 7.89543 13.8954 7 15 7H18ZM5 7H10C10.5523 7 11 7.44772 11 8C11 8.51284 10.614 8.93551 10.1166 8.99327L10 9H5C4.44772 9 4 8.55228 4 8C4 7.48716 4.38604 7.06449 4.88338 7.00673L5 7H10H5Z" fill="black"/>
</svg>
