<svg width="24" height="24" viewBox="0 0 24 24" fill="none" xmlns="http://www.w3.org/2000/svg">
<path fill-rule="evenodd" clip-rule="evenodd" d="M1 12C1 5.935 5.935 1 12 1C18.065 1 23 5.935 23 12C23 18.065 18.065 23 12 23C5.935 23 1 18.065 1 12ZM3 12C3 16.963 7.037 21 12 21C16.963 21 21 16.963 21 12C21 7.038 16.963 3 12 3C7.037 3 3 7.038 3 12ZM11 10C11 9.44771 11.4477 9 12 9C12.5523 9 13 9.44771 13 10V17C13 17.5523 12.5523 18 12 18C11.4477 18 11 17.5523 11 17V10ZM11 7C11 6.447 11.447 6 12 6C12.553 6 13 6.447 13 7C13 7.553 12.553 8 12 8C11.447 8 11 7.553 11 7Z" fill="black"/>
</svg>
