<svg width="24" height="24" viewBox="0 0 24 24" fill="none" xmlns="http://www.w3.org/2000/svg">
<path fill-rule="evenodd" clip-rule="evenodd" d="M16.7832 2.00038C16.6055 2.00038 16.5645 2.0082 16.4492 2.05706C16.2871 2.12546 16.1699 2.2056 16.0742 2.31114C15.7715 2.64535 15.709 3.03233 15.8945 3.42518C15.959 3.56395 16.0898 3.70467 17.0176 4.62717C17.2656 4.87344 17.4688 5.08647 17.4688 5.09624C17.4688 5.10797 17.1602 5.42459 16.7852 5.79985L16.1016 6.48391L14.8164 5.20179C14.1113 4.49622 13.4941 3.8923 13.4453 3.86102C12.9922 3.56786 12.4727 3.65581 12.1152 4.08383C11.9375 4.29687 11.8535 4.59981 11.9004 4.84607C11.916 4.91839 11.957 5.04347 11.9922 5.12165C12.0469 5.24283 12.0957 5.30342 12.3125 5.52427C12.4512 5.66695 12.5664 5.79203 12.5664 5.8018C12.5664 5.81158 10.8203 7.56473 8.6875 9.699C6.55469 11.8333 4.75977 13.6392 4.69727 13.7154C4.22852 14.2842 3.99219 14.9389 3.99219 15.6601C3.99219 15.8927 4.00391 16.0041 4.05273 16.2367C4.08008 16.3618 4.14453 16.5963 4.16797 16.6471C4.35547 17.0712 4.47852 17.2725 4.7168 17.5364L4.87695 17.7162L3.53906 19.057C2.80273 19.7957 2.18164 20.427 2.1582 20.4622C2.13477 20.4974 2.08984 20.5893 2.05859 20.6655C2.00781 20.7886 2 20.8297 2 21.0016C2 21.3065 2.09375 21.5215 2.31641 21.7307C2.45703 21.8655 2.61133 21.9359 2.85156 21.9828C3.06445 22.0238 3.29102 21.9769 3.54297 21.8382C3.59961 21.8069 4.09766 21.3261 4.96484 20.4603C5.98242 19.4439 6.30273 19.1351 6.32422 19.1488C6.32789 19.152 6.33577 19.1585 6.34678 19.1676C6.37681 19.1924 6.43007 19.2365 6.48438 19.2837C6.86914 19.6101 7.39844 19.8739 7.83984 19.958C8.19141 20.0244 8.4043 20.0342 8.70703 19.9971C9.22852 19.9345 9.77344 19.7254 10.1465 19.442C10.2539 19.3599 11.6445 17.984 14.2461 15.3787C16.4102 13.2112 18.1895 11.4385 18.1992 11.4385C18.209 11.4385 18.3379 11.5557 18.4824 11.6984C18.707 11.9193 18.7715 11.972 18.9023 12.0365C19.0469 12.1069 19.0742 12.1128 19.25 12.1186C19.3906 12.1245 19.4668 12.1167 19.543 12.0932C19.8184 12.0033 20.0801 11.7883 20.1992 11.5538C20.2871 11.3779 20.3281 11.1531 20.3008 10.9889C20.2773 10.8443 20.2598 10.7876 20.1875 10.6371C20.1445 10.5472 19.9219 10.3166 18.8262 9.21429L17.5176 7.9009L18.2012 7.21683C18.5762 6.83962 18.8926 6.53277 18.9043 6.53277C18.9141 6.53277 19.2656 6.8748 19.6816 7.2911C20.3633 7.97517 20.4531 8.05725 20.5801 8.1237C20.9766 8.32697 21.4102 8.22338 21.7793 7.83835C21.9395 7.67027 22 7.50805 22 7.23638C22 6.99989 21.9531 6.83767 21.832 6.65004C21.7363 6.50346 17.4766 2.24273 17.332 2.15087C17.1523 2.03556 17.0176 1.99842 16.7832 2.00038ZM13.8945 7.3341C13.9004 7.3341 14.5293 7.95953 15.291 8.72177L16.6777 10.1094L12.8203 13.9656C9.45117 17.3351 8.94727 17.8296 8.8457 17.8823C8.67188 17.9703 8.57227 17.9898 8.35547 17.982C8.18555 17.9761 8.14453 17.9683 8.01562 17.9097C7.875 17.8452 7.83594 17.81 7.0332 17.0106C6.2207 16.2015 6.19531 16.1741 6.11523 16.0139C6.03906 15.8614 6.0332 15.838 6.02734 15.6562C6.01758 15.4373 6.03906 15.3376 6.12695 15.1617C6.17773 15.064 6.33203 14.8998 7.04297 14.1845L7.89648 13.3245L8.26367 13.6881C8.46484 13.8894 8.67969 14.0829 8.73828 14.12C8.92188 14.2373 9.07227 14.2803 9.29492 14.2803C9.7168 14.2822 10.0352 14.0907 10.2031 13.735C10.3438 13.4359 10.3457 13.1858 10.2109 12.8887C10.1504 12.7577 10.1094 12.7069 9.73047 12.3258L9.31641 11.9056L10.209 11.0144L11.0996 10.1212L11.5254 10.5414C11.9707 10.9811 12.0566 11.0476 12.2637 11.1003C12.4199 11.1414 12.6738 11.1238 12.8203 11.0652C13.4473 10.8091 13.6895 10.129 13.3516 9.57196C13.3242 9.52896 13.127 9.31593 12.9102 9.09703L12.5176 8.70222L13.2012 8.01816C13.5781 7.64095 13.8887 7.3341 13.8945 7.3341Z" fill="black"/>
</svg>
