<svg width="24" height="24" viewBox="0 0 24 24" fill="none" xmlns="http://www.w3.org/2000/svg">
<path fill-rule="evenodd" clip-rule="evenodd" d="M5.24145 17.3366L10.5706 12.005L5.24145 6.66342C4.89916 6.26354 4.92217 5.66747 5.29427 5.2952C5.66637 4.92293 6.26218 4.8999 6.66188 5.24235L12.7063 11.2895C13.0969 11.6826 13.0969 12.3174 12.7063 12.7105L6.66188 18.7577C6.26218 19.1001 5.66637 19.0771 5.29427 18.7048C4.92217 18.3325 4.89916 17.7365 5.24145 17.3366ZM11.2414 17.3366L16.5706 12.005L11.2414 6.66342C10.8992 6.26354 10.9222 5.66747 11.2943 5.2952C11.6664 4.92293 12.2622 4.8999 12.6619 5.24235L18.7063 11.2895C19.0969 11.6826 19.0969 12.3174 18.7063 12.7105L12.6619 18.7577C12.2622 19.1001 11.6664 19.0771 11.2943 18.7048C10.9222 18.3325 10.8992 17.7365 11.2414 17.3366Z" fill="black"/>
</svg>
