<svg width="24" height="24" viewBox="0 0 24 24" fill="none" xmlns="http://www.w3.org/2000/svg">
<path fill-rule="evenodd" clip-rule="evenodd" d="M12.4856 4.12584L21.4856 9.12584C22.1715 9.50685 22.1715 10.4932 21.4856 10.8742L12.4856 15.8742C12.1836 16.0419 11.8164 16.0419 11.5144 15.8742L2.51436 10.8742C1.82855 10.4932 1.82855 9.50685 2.51436 9.12584L11.5144 4.12584C11.8164 3.95805 12.1836 3.95805 12.4856 4.12584ZM21.2591 13L21.4856 13.1258C22.1715 13.5068 22.1715 14.4932 21.4856 14.8742L12.4856 19.8742C12.1836 20.0419 11.8164 20.0419 11.5144 19.8742L2.51436 14.8742C1.82855 14.4932 1.82855 13.5068 2.51436 13.1258L2.74087 13L11.5144 17.8742C11.8164 18.0419 12.1836 18.0419 12.4856 17.8742L21.2591 13ZM5.05913 10L12 6.14396L18.9409 10L12 13.856L5.05913 10Z" fill="black"/>
</svg>
