<svg width="24" height="24" viewBox="0 0 24 24" fill="none" xmlns="http://www.w3.org/2000/svg">
<path fill-rule="evenodd" clip-rule="evenodd" d="M17.0408 13.2632C17.9865 12.1277 18.5 10.7233 18.5 9.2492C18.5 5.79785 15.7018 3 12.25 3C8.79823 3 6 5.79785 6 9.2492C6 10.7373 6.52379 12.1591 7.47998 13.2873C7.6685 13.5181 7.8682 13.7319 8.10795 13.9611C8.13978 13.9916 8.19575 14.0437 8.33828 14.1762C8.46879 14.2976 8.53613 14.3607 8.56345 14.3875C8.82701 14.646 8.92274 14.8302 8.98755 15.2848C8.56258 15.4001 8.25 15.7885 8.25 16.25C8.25 16.8023 8.69772 17.25 9.25 17.25C8.69772 17.25 8.25 17.6082 8.25 18.05C8.25 18.4918 8.69772 18.85 9.25 18.85C9.25 19.7337 10.1454 20.45 11.25 20.45H13.25C14.3546 20.45 15.25 19.7337 15.25 18.85C15.8023 18.85 16.25 18.4918 16.25 18.05C16.25 17.6082 15.8023 17.25 15.25 17.25C15.8023 17.25 16.25 16.8023 16.25 16.25C16.25 15.7874 15.9358 15.3981 15.5092 15.2839C15.5703 14.8404 15.6657 14.6506 15.9423 14.379C15.9702 14.3516 16.0398 14.2864 16.1682 14.1668C16.3122 14.0329 16.3692 13.9798 16.3997 13.9507C16.6416 13.7195 16.8415 13.5058 17.0408 13.2632ZM13.5035 15.25C13.504 15.2408 13.5045 15.2316 13.5049 15.2224C13.6225 14.195 13.9101 13.5717 14.541 12.9522C14.5801 12.9138 14.6556 12.8427 14.7729 12.7333C14.9364 12.5813 14.9973 12.5245 15.0179 12.5049C15.2028 12.3282 15.349 12.172 15.4995 11.9888C16.151 11.2065 16.5 10.2545 16.5 9.2492C16.5 6.90233 14.5972 4.9998 12.25 4.9998C9.90278 4.9998 8 6.90233 8 9.2492C8 10.2642 8.3561 11.2279 9.01702 12.0079C9.16248 12.1858 9.30766 12.3413 9.49024 12.5158C9.51228 12.5369 9.57198 12.5925 9.73002 12.7394C9.8508 12.8519 9.92524 12.9219 9.96383 12.9597C10.5868 13.5706 10.8702 14.1849 10.9956 15.25H13.5035Z" fill="black"/>
<mask id="mask0_9_6" style="mask-type:alpha" maskUnits="userSpaceOnUse" x="6" y="3" width="13" height="18">
<path fill-rule="evenodd" clip-rule="evenodd" d="M17.0408 13.2632C17.9865 12.1277 18.5 10.7233 18.5 9.2492C18.5 5.79785 15.7018 3 12.25 3C8.79823 3 6 5.79785 6 9.2492C6 10.7373 6.52379 12.1591 7.47998 13.2873C7.6685 13.5181 7.8682 13.7319 8.10795 13.9611C8.13978 13.9916 8.19575 14.0437 8.33828 14.1762C8.46879 14.2976 8.53613 14.3607 8.56345 14.3875C8.82701 14.646 8.92274 14.8302 8.98755 15.2848C8.56258 15.4001 8.25 15.7885 8.25 16.25C8.25 16.8023 8.69772 17.25 9.25 17.25C8.69772 17.25 8.25 17.6082 8.25 18.05C8.25 18.4918 8.69772 18.85 9.25 18.85C9.25 19.7337 10.1454 20.45 11.25 20.45H13.25C14.3546 20.45 15.25 19.7337 15.25 18.85C15.8023 18.85 16.25 18.4918 16.25 18.05C16.25 17.6082 15.8023 17.25 15.25 17.25C15.8023 17.25 16.25 16.8023 16.25 16.25C16.25 15.7874 15.9358 15.3981 15.5092 15.2839C15.5703 14.8404 15.6657 14.6506 15.9423 14.379C15.9702 14.3516 16.0398 14.2864 16.1682 14.1668C16.3122 14.0329 16.3692 13.9798 16.3997 13.9507C16.6416 13.7195 16.8415 13.5058 17.0408 13.2632ZM13.5035 15.25C13.504 15.2408 13.5045 15.2316 13.5049 15.2224C13.6225 14.195 13.9101 13.5717 14.541 12.9522C14.5801 12.9138 14.6556 12.8427 14.7729 12.7333C14.9364 12.5813 14.9973 12.5245 15.0179 12.5049C15.2028 12.3282 15.349 12.172 15.4995 11.9888C16.151 11.2065 16.5 10.2545 16.5 9.2492C16.5 6.90233 14.5972 4.9998 12.25 4.9998C9.90278 4.9998 8 6.90233 8 9.2492C8 10.2642 8.3561 11.2279 9.01702 12.0079C9.16248 12.1858 9.30766 12.3413 9.49024 12.5158C9.51228 12.5369 9.57198 12.5925 9.73002 12.7394C9.8508 12.8519 9.92524 12.9219 9.96383 12.9597C10.5868 13.5706 10.8702 14.1849 10.9956 15.25H13.5035Z" fill="white"/>
</mask>
<g mask="url(#mask0_9_6)">
</g>
</svg>
