<svg width="24" height="24" viewBox="0 0 24 24" fill="none" xmlns="http://www.w3.org/2000/svg">
<path fill-rule="evenodd" clip-rule="evenodd" d="M16 4C18.7552 4 21 6.18243 21 8.88889C21 13.5445 15.2741 20 12 20C8.72518 20 3 13.5464 3 8.88889C3 6.18243 5.24478 4 8 4C9.63302 4 11.0867 4.76667 12 5.95471C12.9133 4.76667 14.367 4 16 4ZM12 18C14.1125 18 19 12.4898 19 8.88889C19 7.2998 17.6631 6 16 6C14.3369 6 13 7.2998 13 8.88889H12.9999C13 8.89259 13 8.89629 13 8.9C13 9.45228 12.5523 9.9 12 9.9C11.4477 9.9 11 9.45228 11 8.9C11 8.89629 11 8.89259 11.0001 8.88889H11C11 7.2998 9.66306 6 8 6C6.33694 6 5 7.2998 5 8.88889C5 12.4917 9.88664 18 12 18Z" fill="black"/>
</svg>
