<svg width="24" height="24" viewBox="0 0 24 24" fill="none" xmlns="http://www.w3.org/2000/svg">
<path fill-rule="evenodd" clip-rule="evenodd" d="M8.99913 12.0009C8.99913 11.6553 9.04295 11.3199 9.12534 11.0001L10.9991 11.0009L11.1158 11.0076C11.1611 11.0128 11.2055 11.0211 11.2488 11.0323C11.0896 11.3199 10.9991 11.6498 10.9991 12.0009C10.9991 13.1054 11.8946 14.0009 12.9991 14.0009H17.9991C19.1037 14.0009 19.9991 13.1054 19.9991 12.0009C19.9991 10.8963 19.1037 10.0009 17.9991 10.0009L15.5829 10.0003C15.2346 9.20341 14.6845 8.51482 13.9973 7.99912L17.9991 8.00085C20.2083 8.00085 21.9991 9.79172 21.9991 12.0009C21.9991 14.21 20.2083 16.0009 17.9991 16.0009H12.9991C10.79 16.0009 8.99913 14.21 8.99913 12.0009ZM1.99913 11.9991C1.99913 9.78999 3.78999 7.99912 5.99913 7.99912H10.9991C13.2083 7.99912 14.9991 9.78999 14.9991 11.9991C14.9991 12.3447 14.9553 12.68 14.8729 12.9999L12.9991 12.9991L12.8825 12.9924C12.8372 12.9871 12.7928 12.9788 12.7495 12.9677C12.9087 12.6801 12.9991 12.3502 12.9991 11.9991C12.9991 10.8946 12.1037 9.99912 10.9991 9.99912H5.99913C4.89456 9.99912 3.99913 10.8946 3.99913 11.9991C3.99913 13.1037 4.89456 13.9991 5.99913 13.9991L8.41541 13.9997C8.76371 14.7966 9.31374 15.4852 10.0009 16.0009L5.99913 15.9991C3.78999 15.9991 1.99913 14.2083 1.99913 11.9991Z" fill="black"/>
</svg>
