<svg width="24" height="24" viewBox="0 0 24 24" fill="none" xmlns="http://www.w3.org/2000/svg">
<path fill-rule="evenodd" clip-rule="evenodd" d="M3 7.0058C2.99847 6.74 3.10282 6.48452 3.29 6.2958C3.47777 6.10649 3.73337 6 4 6C4.26664 6 4.52224 6.10649 4.71 6.2958C4.89274 6.48743 4.99632 6.74103 5 7.0058C5.00154 7.2716 4.89719 7.52708 4.71 7.7158C4.52224 7.90511 4.26664 8.0116 4 8.0116C3.73337 8.0116 3.47777 7.90511 3.29 7.7158C3.10282 7.52708 2.99847 7.2716 3 7.0058ZM20 8H8C7.44772 8 7 7.55228 7 7C7 6.44772 7.44772 6 8 6H20C20.5523 6 21 6.44772 21 7C21 7.55228 20.5523 8 20 8ZM8 11H20C20.5523 11 21 11.4477 21 12C21 12.5523 20.5523 13 20 13H8C7.44772 13 7 12.5523 7 12C7 11.4477 7.44772 11 8 11ZM20 16H8C7.44772 16 7 16.4477 7 17C7 17.5523 7.44772 18 8 18H20C20.5523 18 21 17.5523 21 17C21 16.4477 20.5523 16 20 16ZM4.71 11.2958C4.52224 11.1065 4.26664 11 4 11C3.73337 11 3.47777 11.1065 3.29 11.2958C3.19896 11.3909 3.1276 11.503 3.08 11.6258C3.02366 11.7444 2.99625 11.8746 3 12.0058C3 12.5581 3.44772 13.0058 4 13.0058C4.55229 13.0058 5 12.5581 5 12.0058C4.99842 11.8751 4.97125 11.746 4.92 11.6258C4.87241 11.503 4.80104 11.3909 4.71 11.2958ZM3 17.0058C2.99847 16.74 3.10282 16.4845 3.29 16.2958C3.47777 16.1065 3.73337 16 4 16C4.26664 16 4.52224 16.1065 4.71 16.2958C4.89274 16.4874 4.99632 16.741 5 17.0058C4.99842 17.1365 4.97125 17.2656 4.92 17.3858C4.86919 17.5069 4.79818 17.6185 4.71 17.7158C4.52224 17.9051 4.26664 18.0116 4 18.0116C3.73337 18.0116 3.47777 17.9051 3.29 17.7158C3.19916 17.6185 3.12485 17.5071 3.07 17.3858C3.02219 17.2649 2.99841 17.1358 3 17.0058Z" fill="black"/>
</svg>
