<svg width="24" height="24" viewBox="0 0 24 24" fill="none" xmlns="http://www.w3.org/2000/svg">
<path fill-rule="evenodd" clip-rule="evenodd" d="M17 6V9C18.654 9 20 10.346 20 12V19C20 20.654 18.654 22 17 22H7C5.346 22 4 20.654 4 19V12C4 10.346 5.346 9 7 9V6C7 3.794 8.794 2 11 2H13C15.206 2 17 3.794 17 6ZM17 20C17.552 20 18 19.552 18 19V12C18 11.449 17.552 11 17 11H7C6.448 11 6 11.449 6 12V19C6 19.552 6.448 20 7 20H17ZM9 6C9 4.897 9.897 4 11 4H13C14.103 4 15 4.897 15 6V9H9V6ZM11 15C11 14.447 11.447 14 12 14C12.553 14 13 14.447 13 15V16C13 16.553 12.553 17 12 17C11.447 17 11 16.553 11 16V15Z" fill="black"/>
</svg>
