<svg width="24" height="24" viewBox="0 0 24 24" fill="none" xmlns="http://www.w3.org/2000/svg">
<path fill-rule="evenodd" clip-rule="evenodd" d="M2 9C2.55228 9 3 8.55229 3 8V4C3 2.89543 3.89543 2 5 2C6.10457 2 7 2.89543 7 4V9C5.346 9 4 10.346 4 12V19C4 20.654 5.346 22 7 22H17C18.654 22 20 20.654 20 19V12C20 10.346 18.654 9 17 9H9V4C9 1.79086 7.20914 0 5 0C2.79086 0 1 1.79086 1 4V8C1 8.55229 1.44772 9 2 9ZM8 11H7C6.448 11 6 11.449 6 12V19C6 19.552 6.448 20 7 20H17C17.552 20 18 19.552 18 19V12C18 11.449 17.552 11 17 11H8ZM12 14C11.447 14 11 14.447 11 15V16C11 16.553 11.447 17 12 17C12.553 17 13 16.553 13 16V15C13 14.447 12.553 14 12 14Z" fill="black"/>
</svg>
