<svg width="24" height="24" viewBox="0 0 24 24" fill="none" xmlns="http://www.w3.org/2000/svg">
<path fill-rule="evenodd" clip-rule="evenodd" d="M4 4H20C21.6569 4 23 5.34315 23 7V17C23 18.6569 21.6569 20 20 20H4C2.34315 20 1 18.6569 1 17V7C1 5.34315 2.34315 4 4 4ZM3.10431 6.55483L11.9972 12.8214L20.8956 6.55467C20.7318 6.22588 20.3923 6 20 6H4C3.60765 6 3.26808 6.22595 3.10431 6.55483ZM21 8.92736L12.688 14.7811C12.2735 15.073 11.7203 15.073 11.3059 14.7809L3 8.92801V17C3 17.5523 3.44772 18 4 18H20C20.5523 18 21 17.5523 21 17V8.92736Z" fill="black"/>
</svg>
