<svg width="24" height="24" viewBox="0 0 24 24" fill="none" xmlns="http://www.w3.org/2000/svg">
<path fill-rule="evenodd" clip-rule="evenodd" d="M14 0C16.7594 0 18.9967 2.23532 19 4.99397L19 5V6C19 6.55228 18.5523 7 18 7C17.4477 7 17 6.55228 17 6V4.994L16.9949 4.82373C16.9037 3.24892 15.5977 2 14 2C13.4477 2 13 1.55228 13 1C13 0.447715 13.4477 0 14 0ZM8 2C8 1.44772 7.55228 1 7 1C6.44772 1 6 1.44772 6 2C6 3.59768 7.24892 4.90366 8.82373 4.99491L9 5H13L13.1166 5.00673C13.614 5.06449 14 5.48716 14 6C14 6.55228 14.4477 7 15 7C15.5523 7 16 6.55228 16 6C16 4.34315 14.6569 3 13 3H9C8.44772 3 8 2.55228 8 2ZM14 14.382V10C14 8.89543 14.8954 8 16 8H18C19.1046 8 20 8.89543 20 10V14.382L22 15.382V22C22 23.1046 21.1046 24 20 24H4C2.89543 24 2 23.1046 2 22V14.618C2 13.5135 2.89543 12.618 4 12.618C4.31049 12.618 4.61672 12.6903 4.89443 12.8292L8.01303 14.3885C8.1269 13.392 8.97306 12.618 10 12.618C10.3105 12.618 10.6167 12.6903 10.8944 12.8292L14 14.382ZM18 15.618V10H16V17.618L10 14.618V17.618L4 14.618V22H20V16.618L18 15.618ZM12 1C12 0.447715 11.5523 0 11 0C10.4477 0 10 0.447715 10 1C10 1.55228 10.4477 2 11 2C11.5523 2 12 1.55228 12 1Z" fill="black"/>
</svg>
