<svg width="24" height="24" viewBox="0 0 24 24" fill="none" xmlns="http://www.w3.org/2000/svg">
<path fill-rule="evenodd" clip-rule="evenodd" d="M9.34361 19.9396C9.23533 19.9795 9.11927 20.001 9 20.0008C8.88073 20.001 8.76467 19.9795 8.65639 19.9396L2.68377 17.9487C2.27543 17.8126 2 17.4304 2 17V5C2 4.31745 2.6687 3.83548 3.31623 4.05132L9 5.94591L14.6564 4.06045C14.7647 4.02055 14.8807 3.99905 15 3.99924C15.1193 3.99905 15.2353 4.02055 15.3436 4.06045L21.3162 6.05132C21.7246 6.18744 22 6.56957 22 7V19C22 19.6826 21.3313 20.1645 20.6838 19.9487L15 18.0541L9.34361 19.9396ZM8 7.72076V17.6126L4 16.2792V6.38743L8 7.72076ZM16 16.2792V6.38743L20 7.72076V17.6126L16 16.2792ZM14 16.2792L10 17.6126V7.72076L14 6.38743V16.2792Z" fill="black"/>
</svg>
