<svg width="24" height="24" viewBox="0 0 24 24" fill="none" xmlns="http://www.w3.org/2000/svg">
<path fill-rule="evenodd" clip-rule="evenodd" d="M13 7C13 6.44772 12.5523 6 12 6H5C4.44772 6 4 6.44772 4 7C4 7.55228 4.44772 8 5 8H12C12.5523 8 13 7.55228 13 7ZM16.5858 11L15.2929 9.70711C14.9024 9.31658 14.9024 8.68342 15.2929 8.29289C15.6834 7.90237 16.3166 7.90237 16.7071 8.29289L19.7071 11.2929C19.8881 11.4739 20 11.7239 20 12C20 12.2761 19.8881 12.5261 19.7071 12.7071L16.7071 15.7071C16.3166 16.0976 15.6834 16.0976 15.2929 15.7071C14.9024 15.3166 14.9024 14.6834 15.2929 14.2929L16.5858 13H5C4.44772 13 4 12.5523 4 12C4 11.4477 4.44772 11 5 11H16.5858ZM12 16C12.5523 16 13 16.4477 13 17C13 17.5523 12.5523 18 12 18H5C4.44772 18 4 17.5523 4 17C4 16.4477 4.44772 16 5 16H12Z" fill="black"/>
</svg>
