<svg width="24" height="24" viewBox="0 0 24 24" fill="none" xmlns="http://www.w3.org/2000/svg">
<path fill-rule="evenodd" clip-rule="evenodd" d="M7.41421 11H19C19.5523 11 20 11.4477 20 12C20 12.5523 19.5523 13 19 13H7.41421L8.70711 14.2929C9.09763 14.6834 9.09763 15.3166 8.70711 15.7071C8.31658 16.0976 7.68342 16.0976 7.29289 15.7071L4.29289 12.7071C4.11193 12.5261 4 12.2761 4 12C4 11.7239 4.11193 11.4739 4.29289 11.2929L7.29289 8.29289C7.68342 7.90237 8.31658 7.90237 8.70711 8.29289C9.09763 8.68342 9.09763 9.31658 8.70711 9.70711L7.41421 11ZM12 16H19C19.5523 16 20 16.4477 20 17C20 17.5523 19.5523 18 19 18H12C11.4477 18 11 17.5523 11 17C11 16.4477 11.4477 16 12 16ZM12 6H19C19.5523 6 20 6.44772 20 7C20 7.55228 19.5523 8 19 8H12C11.4477 8 11 7.55228 11 7C11 6.44772 11.4477 6 12 6Z" fill="black"/>
</svg>
