<svg width="24" height="24" viewBox="0 0 24 24" fill="none" xmlns="http://www.w3.org/2000/svg">
<path fill-rule="evenodd" clip-rule="evenodd" d="M19 3H5C3.34315 3 2 4.34315 2 6V15C2 16.6569 3.34315 18 5 18H6V20C6 20.3788 6.214 20.725 6.55279 20.8944C6.89157 21.0638 7.29698 21.0273 7.6 20.8L11.33 18H19C20.6569 18 22 16.6569 22 15V6C22 4.34315 20.6569 3 19 3ZM20 15C20 15.5523 19.5523 16 19 16H11C10.7836 16 10.5731 16.0702 10.4 16.2L8 18V17C8 16.4477 7.55228 16 7 16H5C4.44772 16 4 15.5523 4 15V6C4 5.44772 4.44772 5 5 5H19C19.5523 5 20 5.44772 20 6V15Z" fill="black"/>
</svg>
