<svg width="24" height="24" viewBox="0 0 24 24" fill="none" xmlns="http://www.w3.org/2000/svg">
<path fill-rule="evenodd" clip-rule="evenodd" d="M12 2C14.2091 2 16 3.79086 16 6V14C16 16.2091 14.2091 18 12 18C9.79086 18 8 16.2091 8 14V6C8 3.79086 9.79086 2 12 2ZM20 14C20 18.4183 16.4183 22 12 22C7.58172 22 4 18.4183 4 14V12C4 11.4477 4.44772 11 5 11C5.55228 11 6 11.4477 6 12V14C6 17.3137 8.68629 20 12 20C15.3137 20 18 17.3137 18 14V12C18 11.4477 18.4477 11 19 11C19.5523 11 20 11.4477 20 12V14ZM10 6C10 4.89543 10.8954 4 12 4C13.1046 4 14 4.89543 14 6V14C14 15.1046 13.1046 16 12 16C10.8954 16 10 15.1046 10 14V6Z" fill="black"/>
</svg>
