<svg width="24" height="24" viewBox="0 0 24 24" fill="none" xmlns="http://www.w3.org/2000/svg">
<path fill-rule="evenodd" clip-rule="evenodd" d="M1 8C1 7.93096 1.0035 7.86275 1.01033 7.79551C1.11275 6.787 1.96447 6 3 6H21C22.1046 6 23 6.89543 23 8V16C23 17.1046 22.1046 18 21 18H3C1.89543 18 1 17.1046 1 16V8ZM19 8C19 9.10457 19.8954 10 21 10V14C19.8954 14 19 14.8954 19 16H5C5 14.8954 4.10457 14 3 14V10C4.10457 10 5 9.10457 5 8H19ZM17 13C17.5523 13 18 12.5523 18 12C18 11.4477 17.5523 11 17 11C16.4477 11 16 11.4477 16 12C16 12.5523 16.4477 13 17 13ZM8 12C8 12.5523 7.55228 13 7 13C6.44772 13 6 12.5523 6 12C6 11.4477 6.44772 11 7 11C7.55228 11 8 11.4477 8 12ZM12 15C13.1046 15 14 13.6569 14 12C14 10.3431 13.1046 9 12 9C10.8954 9 10 10.3431 10 12C10 13.6569 10.8954 15 12 15Z" fill="black"/>
</svg>
