<svg width="24" height="24" viewBox="0 0 24 24" fill="none" xmlns="http://www.w3.org/2000/svg">
<path fill-rule="evenodd" clip-rule="evenodd" d="M4 22H20C22.2091 22 24 20.2091 24 18V3C24 2.44772 23.5523 2 23 2H7C6.44772 2 6 2.44772 6 3V13H0V18C0 20.2091 1.79086 22 4 22ZM7.46487 20H20C21.1046 20 22 19.1046 22 18V4H8V13V18C8 18.7286 7.80521 19.4117 7.46487 20ZM2 15V18C2 19.1046 2.89543 20 4 20C5.10457 20 6 19.1046 6 18V15H2ZM20 15V10H15V15H20ZM18 12H17V13H18V12ZM20 6H10V8H20V6ZM10 10H14V12H10V10ZM14 13H10V15H14V13ZM10 16H14V18H10V16ZM20 16H15V18H20V16Z" fill="black"/>
</svg>
