<svg width="24" height="24" viewBox="0 0 24 24" fill="none" xmlns="http://www.w3.org/2000/svg">
<path fill-rule="evenodd" clip-rule="evenodd" d="M14.9917 5.03349C17.3647 4.72249 19.4177 6.36049 19.8857 8.56449C21.7717 9.47349 22.9997 11.3855 22.9997 13.5005C22.9997 16.5325 20.5317 19.0005 17.4997 19.0005C16.9477 19.0005 16.4997 18.5525 16.4997 18.0005C16.4997 17.4475 16.9477 17.0005 17.4997 17.0005C19.4297 17.0005 20.9997 15.4295 20.9997 13.5005C20.9997 12.0255 20.0547 10.7045 18.6467 10.2125L18.0227 9.99449L17.9787 9.33549C17.8917 8.02549 16.8027 7.00049 15.4997 7.00049C15.2817 7.00049 15.0497 7.04049 14.7697 7.12649L13.9407 7.38049L13.5717 6.59449C12.8317 5.01849 11.2337 4.00049 9.4997 4.00049C7.0187 4.00049 4.9997 6.01849 4.9997 8.50049C4.9997 8.81749 5.0357 9.14549 5.1087 9.47349L5.2597 10.1635L4.6597 10.5365C3.6207 11.1845 2.9997 12.2925 2.9997 13.5005C2.9997 15.4295 4.5707 17.0005 6.4997 17.0005C7.0527 17.0005 7.4997 17.4475 7.4997 18.0005C7.4997 18.5525 7.0527 19.0005 6.4997 19.0005C3.4677 19.0005 0.999702 16.5325 0.999702 13.5005C0.999702 11.8265 1.7527 10.2765 3.0427 9.23649C3.0147 8.98949 2.9997 8.74349 2.9997 8.50049C2.9997 4.91649 5.9157 2.00049 9.4997 2.00049C11.7337 2.00049 13.8107 3.16849 14.9917 5.03349ZM14.293 14.293C14.684 13.902 15.316 13.902 15.707 14.293C16.098 14.684 16.098 15.316 15.707 15.707L13.414 18L15.707 20.293C16.098 20.684 16.098 21.316 15.707 21.707C15.512 21.902 15.256 22 15 22C14.744 22 14.488 21.902 14.293 21.707L12 19.414L9.707 21.707C9.512 21.902 9.256 22 9 22C8.744 22 8.488 21.902 8.293 21.707C7.902 21.316 7.902 20.684 8.293 20.293L10.586 18L8.293 15.707C7.902 15.316 7.902 14.684 8.293 14.293C8.684 13.902 9.316 13.902 9.707 14.293L12 16.586L14.293 14.293Z" fill="black"/>
</svg>
