<svg width="24" height="24" viewBox="0 0 24 24" fill="none" xmlns="http://www.w3.org/2000/svg">
<path fill-rule="evenodd" clip-rule="evenodd" d="M20 17H19V11C19 7.835 16.888 5.158 14 4.295V4C14 2.9 13.1 2 12 2C10.9 2 10 2.9 10 4V4.295C7.112 5.158 5 7.835 5 11V17H4C3.447 17 3 17.447 3 18C3 18.553 3.447 19 4 19H5H19H20C20.553 19 21 18.553 21 18C21 17.447 20.553 17 20 17ZM12 22C13.104 22 14 21.104 14 20H10C10 21.104 10.896 22 12 22ZM7 11V17H17V11C17 8.243 14.757 6 12 6C9.243 6 7 8.243 7 11Z" fill="black"/>
</svg>
