<svg width="24" height="24" viewBox="0 0 24 24" fill="none" xmlns="http://www.w3.org/2000/svg">
<path fill-rule="evenodd" clip-rule="evenodd" d="M21.707 20.293C22.098 20.684 22.098 21.316 21.707 21.707C21.512 21.902 21.256 22 21 22C20.744 22 20.488 21.902 20.293 21.707L14.897 16.312C13.543 17.365 11.846 18 10 18C5.589 18 2 14.411 2 10C2 5.589 5.589 2 10 2C14.411 2 18 5.589 18 10C18 11.846 17.365 13.543 16.312 14.897L21.707 20.293ZM4 10C4 13.309 6.691 16 10 16C13.309 16 16 13.309 16 10C16 6.691 13.309 4 10 4C6.691 4 4 6.691 4 10ZM13 10.6661C13 9.56662 12.0696 8.16977 10.2299 6.42173C10.1011 6.29942 9.89888 6.29942 9.77015 6.42173C7.93042 8.16977 7 9.56662 7 10.6661C7 12.3196 8.34315 13.66 10 13.66C11.6569 13.66 13 12.3196 13 10.6661Z" fill="black"/>
</svg>
