<svg width="24" height="24" viewBox="0 0 24 24" fill="none" xmlns="http://www.w3.org/2000/svg">
<path fill-rule="evenodd" clip-rule="evenodd" d="M21 14.0144C21 10.7143 18.2088 6.52183 12.6896 1.27532C12.3034 0.908225 11.6966 0.908225 11.3104 1.27532C5.79125 6.52183 3 10.7143 3 14.0144C3 18.977 7.02944 23 12 23C16.9706 23 21 18.977 21 14.0144ZM12 3.38573C16.685 7.9611 19 11.5508 19 14.0144C19 17.8742 15.866 21.0032 12 21.0032C8.13401 21.0032 5 17.8742 5 14.0144C5 11.5508 7.315 7.9611 12 3.38573Z" fill="black"/>
</svg>
