<svg width="24" height="24" viewBox="0 0 24 24" fill="none" xmlns="http://www.w3.org/2000/svg">
<path fill-rule="evenodd" clip-rule="evenodd" d="M19 2C19 1.44772 18.5523 1 18 1C17.4477 1 17 1.44772 17 2C17 2.55228 17.4477 3 18 3C18.5523 3 19 2.55228 19 2ZM15 5C15 4.44772 14.5523 4 14 4C13.4477 4 13 4.44772 13 5C13 5.55228 13.4477 6 14 6C14.5523 6 15 5.55228 15 5ZM15 7C15.5523 7 16 7.44772 16 8C16 8.55228 15.5523 9 15 9C14.4477 9 14 8.55228 14 8C14 7.44772 14.4477 7 15 7ZM9 11C10.1046 11 11 11.8954 11 13V17C11 18.1046 10.1046 19 9 19H3C1.89543 19 1 18.1046 1 17V13C1 11.8954 1.89543 11 3 11H9ZM23 20C23.5128 20 23.9355 20.386 23.9933 20.8834L24 21V23C24 23.5523 23.5523 24 23 24H21C20.4477 24 20 23.5523 20 23V22H14V23C14 23.5523 13.5523 24 13 24H11C10.4477 24 10 23.5523 10 23V22H4V23C4 23.5523 3.55228 24 3 24H1C0.447715 24 0 23.5523 0 23V21C0 20.4477 0.447715 20 1 20H23ZM23 13C23 11.8954 22.1046 11 21 11H15C13.8954 11 13 11.8954 13 13V17C13 18.1046 13.8954 19 15 19H21C22.1046 19 23 18.1046 23 17V13ZM5 13H3V17H9V13H7V14C7 14.5523 6.55228 15 6 15C5.44772 15 5 14.5523 5 14V13ZM17 13V14C17 14.5523 17.4477 15 18 15C18.5523 15 19 14.5523 19 14V13H21V17H15V13H17ZM22 8C22 7.44772 21.5523 7 21 7C20.4477 7 20 7.44772 20 8C20 8.55228 20.4477 9 21 9C21.5523 9 22 8.55228 22 8ZM18 7C18.5523 7 19 7.44772 19 8C19 8.55228 18.5523 9 18 9C17.4477 9 17 8.55228 17 8C17 7.44772 17.4477 7 18 7ZM22 4C22.5523 4 23 4.44772 23 5C23 5.55228 22.5523 6 22 6C21.4477 6 21 5.55228 21 5C21 4.44772 21.4477 4 22 4ZM15 1C15.5523 1 16 1.44772 16 2C16 2.55228 15.5523 3 15 3C14.4477 3 14 2.55228 14 2C14 1.44772 14.4477 1 15 1ZM22 2C22 1.44772 21.5523 1 21 1C20.4477 1 20 1.44772 20 2C20 2.55228 20.4477 3 21 3C21.5523 3 22 2.55228 22 2Z" fill="black"/>
</svg>
