<svg width="24" height="24" viewBox="0 0 24 24" fill="none" xmlns="http://www.w3.org/2000/svg">
<path fill-rule="evenodd" clip-rule="evenodd" d="M9 1C10.1046 1 11 1.89543 11 3V7C11 8.10457 10.1046 9 9 9H3C1.89543 9 1 8.10457 1 7V3C1 1.89543 1.89543 1 3 1H9ZM9 11C10.1046 11 11 11.8954 11 13V17C11 18.1046 10.1046 19 9 19H3C1.89543 19 1 18.1046 1 17V13C1 11.8954 1.89543 11 3 11H9ZM23 20C23.5128 20 23.9355 20.386 23.9933 20.8834L24 21V23C24 23.5523 23.5523 24 23 24H21C20.4477 24 20 23.5523 20 23V22H14V23C14 23.5523 13.5523 24 13 24H11C10.4477 24 10 23.5523 10 23V22H4V23C4 23.5523 3.55228 24 3 24H1C0.447715 24 0 23.5523 0 23V21C0 20.4477 0.447715 20 1 20H23ZM23 13C23 11.8954 22.1046 11 21 11H15C13.8954 11 13 11.8954 13 13V17C13 18.1046 13.8954 19 15 19H21C22.1046 19 23 18.1046 23 17V13ZM23 3C23 1.89543 22.1046 1 21 1H15C13.8954 1 13 1.89543 13 3V7C13 8.10457 13.8954 9 15 9H21C22.1046 9 23 8.10457 23 7V3ZM5 13H3V17H9V13H7V14C7 14.5523 6.55228 15 6 15C5.44772 15 5 14.5523 5 14V13ZM15 13H17V14C17 14.5523 17.4477 15 18 15C18.5523 15 19 14.5523 19 14V13H21V17H15V13ZM5 3H3V7H9V3H7V4C7 4.55228 6.55228 5 6 5C5.44772 5 5 4.55228 5 4V3ZM15 3H17V4C17 4.55228 17.4477 5 18 5C18.5523 5 19 4.55228 19 4V3H21V7H15V3Z" fill="black"/>
</svg>
