<svg width="24" height="24" viewBox="0 0 24 24" fill="none" xmlns="http://www.w3.org/2000/svg">
<path fill-rule="evenodd" clip-rule="evenodd" d="M5 4C5 3.44772 5.44772 3 6 3C6.55228 3 7 3.44772 7 4V12.2676C7.5978 12.6134 8 13.2597 8 14C8 15.1046 7.10457 16 6 16C4.89543 16 4 15.1046 4 14C4 13.2597 4.4022 12.6134 5 12.2676V4ZM11 4C11 3.44772 11.4477 3 12 3C12.5523 3 13 3.44772 13 4V7.26756C13.5978 7.61337 14 8.25972 14 9C14 10.1046 13.1046 11 12 11C10.8954 11 10 10.1046 10 9C10 8.25972 10.4022 7.61337 11 7.26756V4ZM18 3C17.4477 3 17 3.44771 17 4V10.2676C16.4022 10.6134 16 11.2597 16 12C16 13.1046 16.8954 14 18 14C19.1046 14 20 13.1046 20 12C20 11.2597 19.5978 10.6134 19 10.2676V4C19 3.44772 18.5523 3 18 3ZM5 18C5 17.4477 5.44772 17 6 17C6.55228 17 7 17.4477 7 18V20C7 20.5523 6.55228 21 6 21C5.44772 21 5 20.5523 5 20V18ZM12 12C11.4477 12 11 12.4477 11 13V20C11 20.5523 11.4477 21 12 21C12.5523 21 13 20.5523 13 20V13C13 12.4477 12.5523 12 12 12ZM17 16C17 15.4477 17.4477 15 18 15C18.5523 15 19 15.4477 19 16V20C19 20.5523 18.5523 21 18 21C17.4477 21 17 20.5523 17 20V16Z" fill="black"/>
</svg>
