<svg width="24" height="24" viewBox="0 0 24 24" fill="none" xmlns="http://www.w3.org/2000/svg">
<path fill-rule="evenodd" clip-rule="evenodd" d="M17 19V18H18C19.6569 18 21 16.6569 21 15V5C21 3.34315 19.6569 2 18 2H10C8.34315 2 7 3.34315 7 5V6H6C4.34315 6 3 7.34315 3 9V13H5V9C5 8.44772 5.44772 8 6 8H9V6V5C9 4.44772 9.44772 4 10 4H18C18.5523 4 19 4.44772 19 5V15C19 15.5523 18.5523 16 18 16H17V14.9967C16.7484 14.9989 16.4916 15 16.2308 15H15V19C15 19.5523 14.5523 20 14 20H11V22H14C15.6569 22 17 20.6569 17 19ZM11 6H14C15.6569 6 17 7.34315 17 9V13.0033C16.7484 13.0011 16.4916 13 16.2308 13H15V9C15 8.44772 14.5523 8 14 8H11V6ZM6 22H9V20H6C5.44772 20 5 19.5523 5 19V15H3V19C3 20.6569 4.34315 22 6 22Z" fill="black"/>
</svg>
