<svg width="24" height="24" viewBox="0 0 24 24" fill="none" xmlns="http://www.w3.org/2000/svg">
<path fill-rule="evenodd" clip-rule="evenodd" d="M6.58713 10.2005L6.73464 10.3157L7.08059 10.6093L7.2916 10.7818L7.55546 10.9838C7.7162 11.1011 7.86288 11.1963 7.99907 11.271L8.13189 11.3391L8.38614 11.4573L9.72329 12.0502L10.297 12.3159L10.6139 12.4733C11.202 12.7765 11.532 13.0205 11.8942 13.389C12.3762 13.8794 12.7037 14.4022 12.8907 14.9375L19.8852 12.3227L19.9588 12.2912C21.2498 11.7917 23.0817 12.3132 23.7828 14.0088C24.4398 15.5921 23.5199 17.28 22.184 17.807L20.6605 18.3705L18.5048 19.1887L16.5422 19.8934L12.8342 21.37L12.2414 21.5953L11.8029 21.7513L11.5971 21.8176L11.3719 21.8806L11.1839 21.9213L11.0583 21.9411L10.8473 21.9641L10.5972 21.9849L10.3674 21.9945L10.0785 21.997C8.47032 21.997 4.36004 20.2616 2.69043 18.684L2.5469 18.5407L1.01047 18.5406C0.493755 18.5406 0.067888 18.1594 0.0096861 17.6683L0.0029075 17.5531L0 17.0182V12.1207C0 11.6891 0.271299 11.3209 0.652642 11.1774C1.61246 10.1913 2.46613 9.62377 3.29125 9.50282C4.38054 9.34316 5.80529 9.64187 6.58713 10.2005ZM3.54203 11.4859C3.24016 11.5301 2.70548 11.8963 2.01529 12.6131L2.015 16.565L3.02559 16.5656C3.33355 16.5656 3.62198 16.7034 3.81169 16.9354L3.96096 17.1445C4.29221 17.5583 5.11618 18.0841 6.06704 18.5727L6.55135 18.8132L7.04664 19.0434L7.57562 19.2728L8.02042 19.4526C8.16643 19.5095 8.30975 19.5633 8.44909 19.6134L8.85385 19.752C9.37414 19.9207 9.80998 20.0219 10.0785 20.0219L10.3014 20.0203L10.4593 20.0143L10.7118 19.9886L10.8443 19.9637L11.1021 19.8928L11.4107 19.7883L12.058 19.546L15.8138 18.0522L17.792 17.3414L20.8909 16.1715L21.3735 15.9951C21.7778 15.8638 22.1264 15.2596 21.9156 14.7517C21.6858 14.1958 21.1006 14.011 20.6951 14.1337L12.9964 17.011L12.9423 17.0278C12.8363 17.3991 12.671 17.764 12.4512 18.1158C11.9953 18.8454 11.0341 18.7669 9.31505 18.1283L9.0865 18.0419L8.47672 17.7988L7.26447 17.2855C6.66391 17.0396 6.15992 16.8868 5.76103 16.8241L5.59653 16.8028L5.48228 16.7845C4.9984 16.6777 4.66663 16.218 4.72611 15.7067C4.79016 15.156 5.28371 14.7539 5.82849 14.8086C6.4547 14.8715 7.18108 15.0764 8.02039 15.4187L8.65156 15.6866C8.85685 15.773 9.05765 15.8548 9.25247 15.9315L9.81744 16.1462C10.0894 16.2455 10.3446 16.3323 10.5779 16.4053L10.8037 16.4735L11.0259 16.5354L11.0596 16.4047C11.1636 15.9209 11.0298 15.4415 10.5968 14.9479L10.4433 14.7849L10.2942 14.6508L10.2283 14.5988L10.0813 14.4949L9.90816 14.388L9.70228 14.2743L9.58497 14.2136L9.31736 14.0824L8.82095 13.8535L7.83449 13.418L7.26197 13.1562C6.90047 12.9851 6.54763 12.7554 6.16154 12.456L6.04615 12.3654L5.80633 12.1696L5.43334 11.8532C5.15573 11.6154 4.17714 11.3928 3.54203 11.4859ZM14 2C16.7568 2 19 4.24318 19 7C19 9.75682 16.7568 12 14 12C11.2432 12 9 9.75682 9 7C9 4.24318 11.2432 2 14 2ZM13.75 3C13.5045 3 13.3004 3.17688 13.2581 3.41012L13.25 3.5L13.2499 4.01774C12.4019 4.13908 11.75 4.86842 11.75 5.75C11.75 6.66817 12.4571 7.42119 13.3565 7.4942L13.5 7.5H14.5C14.9142 7.5 15.25 7.83579 15.25 8.25C15.25 8.6297 14.9678 8.94349 14.6018 8.99315L14.5 9H12.25C11.9739 9 11.75 9.22386 11.75 9.5C11.75 9.74546 11.9269 9.94961 12.1601 9.99194L12.25 10H13.25V10.5C13.25 10.7761 13.4739 11 13.75 11C13.9955 11 14.1996 10.8231 14.2419 10.5899L14.25 10.5V10H14.5C15.4665 10 16.25 9.2165 16.25 8.25C16.25 7.33183 15.5429 6.57881 14.6435 6.5058L14.5 6.5H13.5C13.0858 6.5 12.75 6.16421 12.75 5.75C12.75 5.3703 13.0322 5.05651 13.3982 5.00685L13.5 5H15.25C15.5261 5 15.75 4.77614 15.75 4.5C15.75 4.25454 15.5731 4.05039 15.3399 4.00806L15.25 4H14.25V3.5C14.25 3.22386 14.0261 3 13.75 3Z" fill="black"/>
</svg>
