<svg width="24" height="24" viewBox="0 0 24 24" fill="none" xmlns="http://www.w3.org/2000/svg">
<path fill-rule="evenodd" clip-rule="evenodd" d="M14.06 0C14.1298 0.0114739 14.198 0.0303009 14.2637 0.0561059L14.36 0.1H14.46C14.5318 0.132654 14.5994 0.173635 14.6614 0.222009L14.75 0.3L19.75 5.3C19.8055 5.35605 19.8541 5.41837 19.8949 5.48561L19.95 5.59V5.68C19.9687 5.73604 19.9825 5.79359 19.991 5.85194L20 5.94V12H21C22.5977 12 23.9037 13.2489 23.9949 14.8237L24 15V21C24 22.5977 22.7511 23.9037 21.1763 23.9949L21 24H3C1.40232 24 0.0963391 22.7511 0.00509269 21.1763L0 21V15C0 13.4023 1.24892 12.0963 2.82373 12.0051L3 12H4V3C4 1.40232 5.24892 0.0963391 6.82373 0.00509269L7 0H14.06ZM21 14H3C2.48716 14 2.06449 14.386 2.00673 14.8834L2 15V21C2 21.5128 2.38604 21.9355 2.88338 21.9933L3 22H21C21.5128 22 21.9355 21.614 21.9933 21.1166L22 21V15C22 14.4872 21.614 14.0645 21.1166 14.0067L21 14ZM6.62418 15L6.83452 15.006C7.38127 15.0383 7.81468 15.1994 8.13473 15.4895C8.49478 15.8158 8.67481 16.2714 8.67481 16.8565C8.67481 17.4416 8.49478 17.8973 8.13473 18.2236C7.81468 18.5137 7.38127 18.6748 6.83452 18.707L6.62418 18.7131H5.20646V20.3418L5.19937 20.4582C5.18046 20.6068 5.12376 20.7283 5.02924 20.8228C4.9111 20.9409 4.75076 21 4.54823 21C4.3457 21 4.18536 20.9409 4.06722 20.8228C3.9727 20.7283 3.91599 20.6068 3.89709 20.4582L3.89 20.3418V15.616L3.89641 15.5033C3.91352 15.3602 3.96482 15.2459 4.05034 15.1603C4.13585 15.0748 4.25017 15.0235 4.39329 15.0064L4.50603 15H6.62418ZM19.4849 15L19.6065 15.0051C19.7595 15.0186 19.8765 15.0591 19.9575 15.1266C20.0588 15.211 20.1094 15.3432 20.1094 15.5232C20.1094 15.6976 20.0588 15.827 19.9575 15.9114C19.8765 15.9789 19.7595 16.0194 19.6065 16.0329L19.4849 16.038H17.2655V17.4051H19.3162L19.4377 17.4101C19.5907 17.4236 19.7077 17.4641 19.7887 17.5316C19.89 17.616 19.9406 17.7482 19.9406 17.9283C19.9406 18.1027 19.89 18.2321 19.7887 18.3165C19.7077 18.384 19.5907 18.4245 19.4377 18.438L19.3162 18.443H17.2655V20.3418L17.2586 20.4582C17.2402 20.6068 17.1848 20.7283 17.0925 20.8228C16.9772 20.9409 16.8211 21 16.6242 21C16.4273 21 16.2683 20.9395 16.1474 20.8186C16.0506 20.7218 15.9926 20.6007 15.9732 20.4554L15.9659 20.3418V15.616L15.9724 15.5033C15.9895 15.3602 16.0408 15.2459 16.1263 15.1603C16.2118 15.0748 16.3261 15.0235 16.4692 15.0064L16.582 15H19.4849ZM11.8394 15L12.1111 15.0072C12.6436 15.0362 13.11 15.1519 13.5103 15.3544C13.9772 15.5907 14.3344 15.9311 14.582 16.3755C14.8295 16.82 14.9533 17.3516 14.9533 17.9705C14.9533 18.5893 14.8309 19.1224 14.5862 19.5696C14.3415 20.0169 13.9856 20.3587 13.5187 20.5949C13.1185 20.7975 12.65 20.9132 12.1134 20.9421L11.8394 20.9494H10.1432L10.0304 20.943C9.8873 20.9259 9.77298 20.8745 9.68747 20.789C9.60196 20.7035 9.55065 20.5892 9.53354 20.4461L9.52713 20.3333V15.616L9.53354 15.5033C9.55065 15.3602 9.60196 15.2459 9.68747 15.1603C9.77298 15.0748 9.8873 15.0235 10.0304 15.0064L10.1432 15H11.8394ZM11.7465 16.0633H10.8436V19.8861H11.7465C13.0124 19.8861 13.6453 19.2475 13.6453 17.9705C13.6453 16.7596 13.0712 16.1253 11.9231 16.0676L11.7465 16.0633ZM6.4554 16.0042H5.20646V17.7173H6.4554C7.11363 17.7173 7.44274 17.4332 7.44274 16.865C7.44274 16.3321 7.15897 16.0467 6.59141 16.0086L6.4554 16.0042ZM13 2H7C6.48716 2 6.06449 2.38604 6.00673 2.88338L6 3V12H18V7H14C13.4872 7 13.0645 6.61396 13.0067 6.11662L13 6V2ZM15 3.41V5H16.59L15 3.41Z" fill="black"/>
</svg>
