<svg width="24" height="24" viewBox="0 0 24 24" fill="none" xmlns="http://www.w3.org/2000/svg">
<path fill-rule="evenodd" clip-rule="evenodd" d="M10.6205 7.36948C10.6205 6.93064 10.7961 6.51005 11.0999 6.20981L13.234 4.05397C13.5475 3.74713 13.9709 3.57867 14.3909 3.58609C14.6987 3.58609 14.999 3.6705 15.258 3.83051C15.4534 3.63627 15.5349 3.56092 15.6146 3.48727C15.7048 3.40386 15.7927 3.32262 16.0408 3.07338C17.3823 1.72307 19.6089 1.64773 20.9219 2.84197C22.2946 4.08827 22.4068 6.48134 20.9674 7.95202C20.6011 8.32612 20.5401 8.38035 20.4562 8.45498C20.4047 8.50081 20.3445 8.55433 20.1997 8.69431C20.3878 8.9842 20.4978 9.31991 20.4978 9.66701C20.4978 10.1036 20.3237 10.5222 20.0198 10.8244L17.9006 12.9632C17.5923 13.2767 17.171 13.4532 16.7313 13.4532C16.3068 13.4532 15.8995 13.2887 15.6005 13.0014L8.21701 20.3895C7.09378 21.4637 5.2736 21.1752 4.12248 20.1132C2.92962 19.0128 2.52953 17.0171 3.7068 15.8729L11.0726 8.50118C10.7828 8.19639 10.6205 7.79137 10.6205 7.36948ZM12.9819 7.36401L16.7567 11.0637L18.1389 9.66868L17.1463 8.67605L17.9063 7.91606L17.9423 7.88021L17.9775 7.84546L18.0302 7.79394C18.0654 7.75972 18.1694 7.66074 18.2889 7.54699L18.2892 7.54667C18.4385 7.4045 18.612 7.23936 18.7057 7.14876C18.8139 7.0442 18.8722 6.98909 18.9156 6.94805L18.9157 6.94799C19.019 6.85032 19.0379 6.83241 19.4447 6.41689C20.0194 5.82969 19.9281 4.80815 19.4447 4.36928C18.9881 3.95392 18.0706 3.98496 17.5334 4.52567C16.5984 5.46484 16.0281 6.09555 16.1412 5.9819L16.0504 6.07339L15.2904 6.84173L14.3901 5.9414L12.9819 7.36401ZM14.0952 11.4668L12.6067 10.007L5.21626 17.4032C5.06551 17.5498 5.19068 18.1741 5.58002 18.5333C5.98586 18.9077 6.56098 18.9988 6.71391 18.853L14.0952 11.4668Z" fill="black"/>
</svg>
