<svg width="24" height="24" viewBox="0 0 24 24" fill="none" xmlns="http://www.w3.org/2000/svg">
<path fill-rule="evenodd" clip-rule="evenodd" d="M4 1H20C21.6569 1 23 2.34315 23 4V15.999C23 15.9997 23 16.0003 23 16.001V20C23 21.6569 21.6569 23 20 23H4C2.34315 23 1 21.6569 1 20V18V4C1 2.34315 2.34315 1 4 1ZM21 13.5858V4C21 3.44772 20.5523 3 20 3H4C3.44772 3 3 3.44772 3 4V15.5858L6.29289 12.2929C6.68342 11.9024 7.31658 11.9024 7.70711 12.2929L10 14.5858L15.2929 9.29289C15.6834 8.90237 16.3166 8.90237 16.7071 9.29289L21 13.5858ZM11.4142 16L16 11.4142L21 16.4142V20C21 20.5523 20.5523 21 20 21H4C3.44772 21 3 20.5523 3 20V18.4142L7 14.4142L9.29289 16.7071L12.2929 19.7071C12.6834 20.0976 13.3166 20.0976 13.7071 19.7071C14.0976 19.3166 14.0976 18.6834 13.7071 18.2929L11.4142 16ZM8 10C9.10457 10 10 9.10457 10 8C10 6.89543 9.10457 6 8 6C6.89543 6 6 6.89543 6 8C6 9.10457 6.89543 10 8 10Z" fill="black"/>
</svg>
