<svg width="24" height="24" viewBox="0 0 24 24" fill="none" xmlns="http://www.w3.org/2000/svg">
<path fill-rule="evenodd" clip-rule="evenodd" d="M3 9.98564C3 13.2857 5.79125 17.4782 11.3104 22.7247C11.6966 23.0918 12.3034 23.0918 12.6896 22.7247C18.2088 17.4782 21 13.2857 21 9.98564C21 5.02301 16.9706 1 12 1C7.02944 1 3 5.02301 3 9.98564ZM12 2.99681C15.866 2.99681 19 6.12582 19 9.98564C19 12.4492 16.685 16.0389 12 20.6143C7.315 16.0389 5 12.4492 5 9.98564C5 6.12582 8.13401 2.99681 12 2.99681ZM12 14C9.79086 14 8 12.2091 8 10C8 7.79086 9.79086 6 12 6C14.2091 6 16 7.79086 16 10C16 12.2091 14.2091 14 12 14ZM14 10C14 11.1046 13.1046 12 12 12C10.8954 12 10 11.1046 10 10C10 8.89543 10.8954 8 12 8C13.1046 8 14 8.89543 14 10Z" fill="black"/>
</svg>
