<svg width="24" height="24" viewBox="0 0 24 24" fill="none" xmlns="http://www.w3.org/2000/svg">
<path fill-rule="evenodd" clip-rule="evenodd" d="M12.52 13.4109L15.5197 16.3509C16.0746 16.8945 16.8126 17.1939 17.5973 17.1939H17.9586L14.1485 20.9278C12.9619 22.0906 11.0381 22.0906 9.85153 20.9278L6.05241 17.2047H6.64343C7.42815 17.2047 8.16611 16.9051 8.72093 16.3616L11.7317 13.4106C11.9485 13.1981 12.3026 13.1972 12.52 13.4109ZM5.20147 7.62911C5.24991 7.647 5.30137 7.65972 5.35621 7.65972H6.64343C7.1847 7.65972 7.7144 7.87479 8.09688 8.2498L11.1076 11.2003C11.6518 11.7332 12.6004 11.7335 13.144 11.2001L16.1438 8.26059C16.5262 7.88548 17.056 7.67041 17.5973 7.67041H18.6441C18.7021 7.67041 18.7569 7.65806 18.8077 7.63815L21.1101 9.89441C22.2966 11.0574 22.2966 12.9427 21.1101 14.1054L18.8076 16.3619C18.7569 16.342 18.702 16.3295 18.6441 16.3295H17.5973C17.056 16.3295 16.5262 16.1144 16.1438 15.7394L13.144 12.7996C12.8634 12.5245 12.4946 12.3868 12.126 12.3868C11.7572 12.3868 11.3886 12.5245 11.1079 12.7993L8.09688 15.7501C7.7144 16.1251 7.1847 16.3402 6.64343 16.3402H5.35621C5.30137 16.3402 5.25 16.3529 5.20156 16.3708L2.88993 14.1054C1.70336 12.9427 1.70336 11.0574 2.88993 9.89441L5.20147 7.62911ZM14.1484 3.07207L17.9587 6.8061H17.5973C16.8125 6.8061 16.0746 7.10552 15.5198 7.64905L12.5199 10.5888C12.3094 10.7958 11.9423 10.7951 11.7317 10.5888L8.721 7.63827C8.1661 7.09482 7.42813 6.7954 6.64342 6.7954H6.05229L9.85151 3.07207C11.0381 1.90932 12.9619 1.90932 14.1484 3.07207Z" fill="black"/>
</svg>
