<svg width="24" height="24" viewBox="0 0 24 24" fill="none" xmlns="http://www.w3.org/2000/svg">
<path fill-rule="evenodd" clip-rule="evenodd" d="M12 22C17.5228 22 22 17.5228 22 12C22 6.47715 17.5228 2 12 2C6.47715 2 2 6.47715 2 12C2 17.5228 6.47715 22 12 22ZM13 11H17C17.553 11 18 11.448 18 12C18 12.552 17.553 13 17 13H13V17C13 17.553 12.552 18 12 18C11.448 18 11 17.553 11 17V13H7C6.448 13 6 12.552 6 12C6 11.448 6.448 11 7 11H11V7C11 6.448 11.448 6 12 6C12.552 6 13 6.448 13 7V11Z" fill="black"/>
</svg>
