<svg width="24" height="24" viewBox="0 0 24 24" fill="none" xmlns="http://www.w3.org/2000/svg">
<path fill-rule="evenodd" clip-rule="evenodd" d="M19 17V18C19 20.2091 17.2091 22 15 22H9C6.79086 22 5 20.2091 5 18V17H3C1.89543 17 1 16.1046 1 15V10C1 7.79086 2.79086 6 5 6C5 3.79086 6.79086 2 9 2H15C17.2091 2 19 3.79086 19 6C21.2091 6 23 7.79086 23 10V15C23 16.1046 22.1046 17 21 17H19ZM19 15H21V10C21 8.89543 20.1046 8 19 8H5C3.89543 8 3 8.89543 3 10V15H5V14C5 12.8954 5.89543 12 7 12H17C18.1046 12 19 12.8954 19 14V15ZM7 18V14H17V18C17 19.1046 16.1046 20 15 20H9C7.89543 20 7 19.1046 7 18ZM15 4H9C7.89543 4 7 4.89543 7 6H17C17 4.89543 16.1046 4 15 4ZM17 10C17 10.5523 17.4477 11 18 11C18.5523 11 19 10.5523 19 10C19 9.44772 18.5523 9 18 9C17.4477 9 17 9.44772 17 10Z" fill="black"/>
</svg>
