<svg width="24" height="24" viewBox="0 0 24 24" fill="none" xmlns="http://www.w3.org/2000/svg">
<path fill-rule="evenodd" clip-rule="evenodd" d="M8.75745 3.02985C8.22165 3.1638 7.89589 3.70673 8.02984 4.24253L9.02984 8.24253C9.16379 8.77832 9.70673 9.10408 10.2425 8.97013L14.2425 7.97013C14.7783 7.83619 15.1041 7.29325 14.9701 6.75746L13.9701 2.75746C13.8362 2.22166 13.2932 1.8959 12.7574 2.02985L8.75745 3.02985ZM10.7574 10.0299C10.2217 10.1638 9.89589 10.7067 10.0298 11.2425L11.0298 15.2425C11.1638 15.7783 11.7067 16.1041 12.2425 15.9701L16.2425 14.9701C16.7783 14.8362 17.1041 14.2933 16.9701 13.7575L15.9701 9.75746C15.8362 9.22166 15.2932 8.8959 14.7574 9.02985L10.7574 10.0299ZM6.97013 6.75746L9.28408 16.0133C10.2102 16.1003 11.0138 16.6082 11.5018 17.3438L20.7574 15.0299C21.2932 14.8959 21.8362 15.2217 21.9701 15.7575C22.1041 16.2933 21.7783 16.8362 21.2425 16.9701L11.9867 19.2841C11.8436 20.8077 10.561 22 8.99998 22C7.34313 22 5.99998 20.6568 5.99998 19C5.99998 17.9554 6.53392 17.0354 7.34376 16.4982L5.12361 7.61759L2.44528 5.83204C1.98576 5.52569 1.86158 4.90482 2.16793 4.44529C2.47429 3.98576 3.09516 3.86159 3.55468 4.16794L6.55468 6.16794C6.76167 6.30593 6.90979 6.51612 6.97013 6.75746ZM7.99998 19C7.99998 19.5523 8.4477 20 8.99998 20C9.55227 20 9.99998 19.5523 9.99998 19C9.99998 18.4477 9.55227 18 8.99998 18C8.4477 18 7.99998 18.4477 7.99998 19ZM12.7276 13.7873L14.7873 13.2724L14.2724 11.2127L12.2127 11.7276L12.7276 13.7873ZM12.7873 6.27239L10.7276 6.78731L10.2127 4.7276L12.2724 4.21267L12.7873 6.27239Z" fill="black"/>
</svg>
