<svg width="24" height="24" viewBox="0 0 24 24" fill="none" xmlns="http://www.w3.org/2000/svg">
<path fill-rule="evenodd" clip-rule="evenodd" d="M18.9787 12.5644C19.1415 10.5512 18.4307 8.5306 16.9504 7.05025C14.2167 4.31658 9.78456 4.31658 7.05089 7.05025C6.66036 7.44078 6.0272 7.44078 5.63667 7.05025C5.24615 6.65973 5.24615 6.02656 5.63667 5.63604C9.15139 2.12132 14.8499 2.12132 18.3646 5.63604C20.2378 7.50926 21.1527 10.0572 20.9811 12.6047L22.2929 11.2929C22.6834 10.9024 23.3166 10.9024 23.7071 11.2929C24.0976 11.6834 24.0976 12.3166 23.7071 12.7071L20.7071 15.7071C20.3166 16.0976 19.6834 16.0976 19.2929 15.7071L16.2929 12.7071C15.9024 12.3166 15.9024 11.6834 16.2929 11.2929C16.6834 10.9024 17.3166 10.9024 17.7071 11.2929L18.9787 12.5644ZM1.70711 12.7071C1.31658 13.0976 0.683417 13.0976 0.292893 12.7071C-0.0976311 12.3166 -0.0976311 11.6834 0.292893 11.2929L3.29289 8.29289C3.68342 7.90237 4.31658 7.90237 4.70711 8.29289L7.70711 11.2929C8.09763 11.6834 8.09763 12.3166 7.70711 12.7071C7.31658 13.0976 6.68342 13.0976 6.29289 12.7071L5.02135 11.4356C4.85847 13.4488 5.56927 15.4694 7.04962 16.9497C9.78329 19.6834 14.2154 19.6834 16.9491 16.9497C17.3396 16.5592 17.9728 16.5592 18.3633 16.9497C18.7539 17.3403 18.7539 17.9734 18.3633 18.364C14.8486 21.8787 9.15012 21.8787 5.6354 18.364C3.76219 16.4907 2.84727 13.9428 3.01889 11.3953L1.70711 12.7071Z" fill="black"/>
</svg>
