<svg width="24" height="24" viewBox="0 0 24 24" fill="none" xmlns="http://www.w3.org/2000/svg">
<path fill-rule="evenodd" clip-rule="evenodd" d="M4.44721 19.8944C3.78231 20.2269 3 19.7434 3 19V4C3 3.44772 3.44772 3 4 3H20C20.5523 3 21 3.44772 21 4V19C21 19.7434 20.2177 20.2269 19.5528 19.8944L18.0718 19.154L15.5547 20.8321C15.2188 21.056 14.7812 21.056 14.4453 20.8321L12 19.2019L9.5547 20.8321C9.2188 21.056 8.7812 21.056 8.4453 20.8321L5.92816 19.154L4.44721 19.8944ZM19 5H5V17.382L5.55279 17.1056C5.87376 16.9451 6.25611 16.9689 6.5547 17.1679L9 18.7981L11.4453 17.1679C11.7812 16.944 12.2188 16.944 12.5547 17.1679L15 18.7981L17.4453 17.1679C17.7439 16.9689 18.1262 16.9451 18.4472 17.1056L19 17.382V5ZM8 8C7.44772 8 7 8.44772 7 9C7 9.55228 7.44772 10 8 10H16C16.5523 10 17 9.55228 17 9C17 8.44772 16.5523 8 16 8H8ZM7 13C7 12.4477 7.44772 12 8 12H12C12.5523 12 13 12.4477 13 13C13 13.5523 12.5523 14 12 14H8C7.44772 14 7 13.5523 7 13ZM16 12C15.4477 12 15 12.4477 15 13C15 13.5523 15.4477 14 16 14C16.5523 14 17 13.5523 17 13C17 12.4477 16.5523 12 16 12Z" fill="black"/>
</svg>
