<svg width="24" height="24" viewBox="0 0 24 24" fill="none" xmlns="http://www.w3.org/2000/svg">
<path fill-rule="evenodd" clip-rule="evenodd" d="M3 16C3.55228 16 4 16.4477 4 17V20H7C7.55228 20 8 20.4477 8 21C8 21.5523 7.55228 22 7 22H3C2.44772 22 2 21.5523 2 21V17C2 16.4477 2.44772 16 3 16ZM21 16C21.5523 16 22 16.4477 22 17V21C22 21.5128 21.614 21.9355 21.1166 21.9933L21 22H17C16.4477 22 16 21.5523 16 21C16 20.4477 16.4477 20 17 20H20V17C20 16.4477 20.4477 16 21 16ZM7 2C7.55228 2 8 2.44772 8 3C8 3.55228 7.55228 4 7 4H4V7C4 7.55228 3.55228 8 3 8C2.44772 8 2 7.55228 2 7V3C2 2.44772 2.44772 2 3 2H7ZM21 2C21.5523 2 22 2.44772 22 3V7C22 7.55228 21.5523 8 21 8C20.4477 8 20 7.55228 20 7V4H17C16.4477 4 16 3.55228 16 3C16 2.44772 16.4477 2 17 2H21Z" fill="black"/>
</svg>
