<svg width="24" height="24" viewBox="0 0 24 24" fill="none" xmlns="http://www.w3.org/2000/svg">
<path fill-rule="evenodd" clip-rule="evenodd" d="M21 16C21.5523 16 22 16.4477 22 17C22 17.5523 21.5523 18 21 18H18V21C18 21.5523 17.5523 22 17 22C16.4477 22 16 21.5523 16 21V17C16 16.4477 16.4477 16 17 16H21ZM7 16C7.55228 16 8 16.4477 8 17V21C8 21.5523 7.55228 22 7 22C6.44772 22 6 21.5523 6 21V18H3C2.44772 18 2 17.5523 2 17C2 16.4477 2.44772 16 3 16H7ZM17 2C17.5523 2 18 2.44772 18 3V6H21C21.5523 6 22 6.44772 22 7C22 7.55228 21.5523 8 21 8H17C16.4477 8 16 7.55228 16 7V3C16 2.44772 16.4477 2 17 2ZM7 2C7.55228 2 8 2.44772 8 3V7C8 7.51284 7.61396 7.93551 7.11662 7.99327L7 8H3C2.44772 8 2 7.55228 2 7C2 6.44772 2.44772 6 3 6H6V3C6 2.44772 6.44772 2 7 2Z" fill="black"/>
</svg>
