<svg width="24" height="24" viewBox="0 0 24 24" fill="none" xmlns="http://www.w3.org/2000/svg">
<path fill-rule="evenodd" clip-rule="evenodd" d="M16.312 14.897L21.707 20.293C22.098 20.684 22.098 21.316 21.707 21.707C21.512 21.902 21.256 22 21 22C20.744 22 20.488 21.902 20.293 21.707L14.897 16.312C13.543 17.365 11.846 18 10 18C5.589 18 2 14.411 2 10C2 5.589 5.589 2 10 2C14.411 2 18 5.589 18 10C18 11.846 17.365 13.543 16.312 14.897ZM10 4C6.691 4 4 6.691 4 10C4 13.309 6.691 16 10 16C13.309 16 16 13.309 16 10C16 6.691 13.309 4 10 4Z" fill="black"/>
</svg>
