<svg width="24" height="24" viewBox="0 0 24 24" fill="none" xmlns="http://www.w3.org/2000/svg">
<path fill-rule="evenodd" clip-rule="evenodd" d="M14 1C15.6569 1 17 2.34315 17 4V8C17 9.44791 16.3846 10.7521 15.401 11.6652C18.6081 12.9747 20.8904 16.0818 20.9962 19.7346L21 20V22C21 22.5523 20.5523 23 20 23C19.4477 23 19 22.5523 19 22V20C19 17.9007 18.0759 16.0173 16.6123 14.7343L10.6005 22.2494C10.2209 22.7238 9.64632 23 9.03875 23H8C7.46912 23 7.03875 22.5696 7.03875 22.0387C7.03875 21.8205 7.11304 21.6087 7.24939 21.4383L13.811 13.2365C13.2333 13.0822 12.6263 13 12 13C8.21455 13 5.1309 16.0048 5.00406 19.7593L5 20V22C5 22.5523 4.55228 23 4 23C3.44772 23 3 22.5523 3 22V20C3 16.2328 5.31452 13.0063 8.59911 11.6647C7.67692 10.8091 7.07837 9.6094 7.00715 8.26974L7 8V7H6C5.44772 7 5 6.55228 5 6C5 5.44772 5.44772 5 6 5H7V4C7 2.34315 8.34315 1 10 1H14ZM15 7H9V8C9 9.53851 10.1581 10.8065 11.6501 10.9798L11.8237 10.9949L12 11C13.5977 11 14.9037 9.75108 14.9949 8.17627L15 8V7ZM10 3H14L14.1166 3.00673C14.614 3.06449 15 3.48716 15 4V5H9V4L9.00673 3.88338C9.06449 3.38604 9.48716 3 10 3Z" fill="black"/>
</svg>
