<svg width="24" height="24" viewBox="0 0 24 24" fill="none" xmlns="http://www.w3.org/2000/svg">
<path fill-rule="evenodd" clip-rule="evenodd" d="M19 5H5C3.34315 5 2 6.34315 2 8V10C2 10.7684 2.28885 11.4692 2.76389 12C2.28885 12.5308 2 13.2316 2 14V16C2 17.6569 3.34315 19 5 19H19C20.6569 19 22 17.6569 22 16V14C22 13.2316 21.7111 12.5308 21.2361 12C21.7111 11.4692 22 10.7684 22 10V8C22 6.34315 20.6569 5 19 5ZM20 10C20 10.5523 19.5523 11 19 11H5C4.44772 11 4 10.5523 4 10V8C4 7.44772 4.44772 7 5 7H19C19.5523 7 20 7.44772 20 8V10ZM15 9C15 9.55228 14.5523 10 14 10C13.4477 10 13 9.55228 13 9C13 8.44772 13.4477 8 14 8C14.5523 8 15 8.44772 15 9ZM17 10C17.5523 10 18 9.55228 18 9C18 8.44772 17.5523 8 17 8C16.4477 8 16 8.44772 16 9C16 9.55228 16.4477 10 17 10ZM4 14C4 13.4477 4.44772 13 5 13H19C19.5523 13 20 13.4477 20 14V16C20 16.5523 19.5523 17 19 17H5C4.44772 17 4 16.5523 4 16V14ZM15 15C15 15.5523 14.5523 16 14 16C13.4477 16 13 15.5523 13 15C13 14.4477 13.4477 14 14 14C14.5523 14 15 14.4477 15 15ZM17 16C17.5523 16 18 15.5523 18 15C18 14.4477 17.5523 14 17 14C16.4477 14 16 14.4477 16 15C16 15.5523 16.4477 16 17 16Z" fill="black"/>
</svg>
