<svg width="24" height="24" viewBox="0 0 24 24" fill="none" xmlns="http://www.w3.org/2000/svg">
<path fill-rule="evenodd" clip-rule="evenodd" d="M15.3215 3.60777C15.1346 2.67292 14.3137 2 13.3604 2H10.6396C9.68624 2 8.86541 2.67292 8.67844 3.60777L8.43143 4.83805C8.13777 4.98466 7.85439 5.14879 7.58267 5.32908L6.39288 4.92733C5.4898 4.62183 4.49662 4.99623 4.01994 5.82187L2.65954 8.17813C2.18286 9.00377 2.35521 10.0511 3.07133 10.6804L4.01472 11.5105C4.00495 11.6724 3.99999 11.8356 3.99999 12C3.99999 12.1647 4.00497 12.3282 4.01478 12.4905L3.07133 13.3196C2.35521 13.9489 2.18286 14.9962 2.65954 15.8219L4.01994 18.1781C4.49662 19.0038 5.4898 19.3782 6.39288 19.0727L7.58267 18.6709C7.85439 18.8512 8.13777 19.0153 8.43143 19.1619L8.67844 20.3922C8.86541 21.3271 9.68624 22 10.6396 22H13.3604C14.3137 22 15.1346 21.3271 15.3215 20.3922L15.5686 19.1619C15.8622 19.0153 16.1456 18.8512 16.4173 18.6709L17.6071 19.0727C18.5102 19.3782 19.5034 19.0038 19.9801 18.1781L21.3404 15.8219C21.8171 14.9962 21.6448 13.9489 20.9287 13.3196L19.9852 12.4905C19.995 12.3282 20 12.1647 20 12C20 11.8356 19.995 11.6724 19.9853 11.5105L20.9287 10.6804C21.6448 10.0511 21.8171 9.00377 21.3404 8.17813L19.9801 5.82187C19.5034 4.99623 18.5102 4.62183 17.6071 4.92733L16.4173 5.32908C16.1456 5.14879 15.8622 4.98466 15.5686 4.83805L15.3215 3.60777ZM10.6393 4.00146L13.36 4L13.6077 5.23175L13.6475 5.39441C13.8021 5.92843 14.1733 6.37688 14.6752 6.62745C14.8946 6.73698 15.1071 6.85995 15.3116 6.99561C15.8268 7.3375 16.4713 7.4218 17.0572 7.22397L18.2469 6.82222L19.6084 9.17813L18.6641 10.009L18.5431 10.1248C18.158 10.5256 17.9551 11.0711 17.9889 11.631C17.9963 11.7534 18 11.8764 18 12C18 12.1238 17.9963 12.2471 17.9889 12.3697C17.9516 12.9861 18.2011 13.5852 18.665 13.9928L19.6084 14.8219L18.248 17.1781L17.0572 16.776L16.8798 16.7251C16.3437 16.5976 15.7753 16.6967 15.3116 17.0044C15.1071 17.14 14.8946 17.263 14.6752 17.3725C14.1231 17.6482 13.7292 18.1632 13.6077 18.7683L13.3604 20H10.6396L10.3923 18.7683L10.3525 18.6056C10.1979 18.0716 9.82668 17.6231 9.32476 17.3725C9.10538 17.263 8.89287 17.14 8.68842 17.0044C8.17315 16.6625 7.5287 16.5782 6.94283 16.776L5.75304 17.1778L4.3916 14.8219L5.33501 13.9928L5.45615 13.877C5.84187 13.4761 6.04503 12.9301 6.01114 12.3697C6.00372 12.2471 5.99999 12.1238 5.99999 12C5.99999 11.8764 6.00371 11.7534 6.01109 11.631C6.04826 11.0151 5.7991 10.4166 5.33589 10.009L4.3925 9.17893L5.75199 6.82187L6.94283 7.22397L7.12016 7.27488C7.6563 7.40237 8.22467 7.30331 8.68842 6.99561C8.89287 6.85995 9.10538 6.73698 9.32476 6.62745C9.87687 6.35182 10.2708 5.83676 10.3923 5.23175L10.6393 4.00146ZM12 9C13.6568 9 15 10.3431 15 12C15 13.6569 13.6568 15 12 15C10.3431 15 8.99999 13.6569 8.99999 12C8.99999 10.3431 10.3431 9 12 9ZM11 12C11 11.4477 11.4477 11 12 11C12.5523 11 13 11.4477 13 12C13 12.5523 12.5523 13 12 13C11.4477 13 11 12.5523 11 12Z" fill="black"/>
</svg>
