<svg width="24" height="24" viewBox="0 0 24 24" fill="none" xmlns="http://www.w3.org/2000/svg">
<path fill-rule="evenodd" clip-rule="evenodd" d="M18.002 13.9781C16.8514 13.9846 15.7595 14.4889 15.0058 15.3619L9.92235 12.8149C10.0434 12.2634 10.0434 11.6919 9.92235 11.1404L15.0058 8.58339C16.324 10.065 18.5329 10.3333 20.165 9.21023C21.7971 8.08713 22.3447 5.92187 21.4441 4.15302C20.5434 2.38416 18.4745 1.56192 16.6121 2.23256C14.7496 2.9032 13.6727 4.85812 14.097 6.79853L9.01351 9.34547C7.92117 8.08025 6.16096 7.62943 4.59846 8.21472C3.03597 8.80001 2 10.2982 2 11.9726C2 13.647 3.03597 15.1453 4.59846 15.7306C6.16096 16.3158 7.92117 15.865 9.01351 14.5998L14.097 17.1568C13.7458 18.8189 14.4759 20.5229 15.9193 21.41C17.3627 22.2971 19.2062 22.1747 20.5208 21.1047C21.8353 20.0346 22.3357 18.249 21.7698 16.6477C21.2038 15.0464 19.6943 13.9769 18.002 13.9781ZM18.002 3.95076C18.9876 3.94283 19.8316 4.65795 19.9896 5.63479C20.1476 6.61163 19.5722 7.55812 18.6347 7.86366C17.6972 8.1692 16.6778 7.74244 16.2342 6.85869C16.0882 6.58014 16.0095 6.27098 16.0045 5.95623C16.0045 4.84864 16.8988 3.95076 18.002 3.95076ZM6.01736 13.9781C5.03173 13.986 4.18768 13.2709 4.02973 12.2941C3.87178 11.3172 4.44715 10.3707 5.38466 10.0652C6.32217 9.75967 7.34151 10.1864 7.78509 11.0702C8.06102 11.6188 8.06102 12.2663 7.78509 12.8149C7.46515 13.5095 6.77938 13.9608 6.01736 13.9781ZM18.002 19.9945C16.8988 19.9945 16.0045 19.0966 16.0045 17.989C16.0063 17.6902 16.0745 17.3956 16.2043 17.1267C16.63 16.2293 17.6461 15.7804 18.5927 16.0715C19.5393 16.3627 20.1306 17.306 19.9826 18.2888C19.8346 19.2716 18.992 19.9973 18.002 19.9945Z" fill="black"/>
</svg>
