<svg width="24" height="24" viewBox="0 0 24 24" fill="none" xmlns="http://www.w3.org/2000/svg">
<path fill-rule="evenodd" clip-rule="evenodd" d="M7.83871 20.0447C8.14548 19.5854 8.02188 18.9644 7.56263 18.6577C5.35313 17.1817 4 14.7064 4 12C4 9.2935 5.35313 6.8182 7.56263 5.34227C8.02188 5.03549 8.14548 4.41451 7.83871 3.95526C7.53194 3.49601 6.91095 3.37241 6.45171 3.67919C3.69241 5.52238 2 8.61832 2 12C2 15.3816 3.69241 18.4776 6.45171 20.3208C6.91095 20.6275 7.53194 20.5039 7.83871 20.0447ZM16.4374 5.34227C15.9781 5.03549 15.8545 4.41451 16.1613 3.95526C16.4681 3.49601 17.089 3.37241 17.5483 3.67919C20.3076 5.52238 22 8.61832 22 12C22 15.3816 20.3076 18.4776 17.5483 20.3208C17.089 20.6275 16.4681 20.5039 16.1613 20.0447C15.8545 19.5854 15.9781 18.9644 16.4374 18.6577C18.6469 17.1817 20 14.7064 20 12C20 9.2935 18.6469 6.8182 16.4374 5.34227ZM13 12C13 12.5523 12.5523 13 12 13C11.4477 13 11 12.5523 11 12C11 11.4477 11.4477 11 12 11C12.5523 11 13 11.4477 13 12ZM9.78167 15.3291C10.2409 15.6359 10.3645 16.2569 10.0577 16.7161C9.75097 17.1754 9.12999 17.299 8.67074 16.9922C7.01562 15.8866 6 14.0287 6 12C6 9.97123 7.01562 8.11335 8.67074 7.00774C9.12999 6.70096 9.75097 6.82457 10.0577 7.28381C10.3645 7.74306 10.2409 8.36404 9.78167 8.67082C8.67634 9.40917 8 10.6464 8 12C8 13.3535 8.67634 14.5908 9.78167 15.3291ZM13.9423 7.28381C13.6355 7.74306 13.7591 8.36404 14.2183 8.67082C15.4528 9.49545 16 10.4357 16 12C16 13.5642 15.4528 14.5045 14.2183 15.3291C13.7591 15.6359 13.6355 16.2569 13.9423 16.7161C14.249 17.1754 14.87 17.299 15.3293 16.9922C17.0984 15.8104 18 14.2611 18 12C18 9.73881 17.0984 8.18951 15.3293 7.00774C14.87 6.70096 14.249 6.82457 13.9423 7.28381Z" fill="black"/>
</svg>
