<svg width="24" height="24" viewBox="0 0 24 24" fill="none" xmlns="http://www.w3.org/2000/svg">
<path fill-rule="evenodd" clip-rule="evenodd" d="M19 3C20.5977 3 21.9037 4.24892 21.9949 5.82373L22 6V15C22 16.5977 20.7511 17.9037 19.1763 17.9949L19 18H11.33L7.6 20.8C7.29698 21.0273 6.89157 21.0638 6.55279 20.8944C6.25165 20.7439 6.0491 20.4535 6.0078 20.1249L6 20V18H5C3.40232 18 2.09634 16.7511 2.00509 15.1763L2 15V6C2 4.40232 3.24892 3.09634 4.82373 3.00509L5 3H19ZM19 5H5C4.48716 5 4.06449 5.38604 4.00673 5.88338L4 6V15C4 15.5128 4.38604 15.9355 4.88338 15.9933L5 16H7C7.51284 16 7.93551 16.386 7.99327 16.8834L8 17V18L10.4 16.2C10.5385 16.0961 10.7009 16.0305 10.8711 16.0083L11 16H19C19.5128 16 19.9355 15.614 19.9933 15.1166L20 15V6C20 5.48716 19.614 5.06449 19.1166 5.00673L19 5ZM12 10C12.5523 10 13 10.4477 13 11C13 11.5523 12.5523 12 12 12C11.4477 12 11 11.5523 11 11C11 10.4477 11.4477 10 12 10ZM16 10C16.5523 10 17 10.4477 17 11C17 11.5523 16.5523 12 16 12C15.4477 12 15 11.5523 15 11C15 10.4477 15.4477 10 16 10ZM8 10C8.55228 10 9 10.4477 9 11C9 11.5523 8.55228 12 8 12C7.44772 12 7 11.5523 7 11C7 10.4477 7.44772 10 8 10Z" fill="black"/>
</svg>
