<svg width="24" height="24" viewBox="0 0 24 24" fill="none" xmlns="http://www.w3.org/2000/svg">
<path fill-rule="evenodd" clip-rule="evenodd" d="M15.3226 4C16.6774 4 17.871 4.45161 18.7097 5.32258C19.4925 6.10538 19.9381 7.16918 19.994 8.40907L20 8.67742V15.3226C20 16.7097 19.5484 17.9032 18.6774 18.7419C17.8946 19.4946 16.8308 19.9382 15.5647 19.994L15.2903 20H8.70968C7.3871 20 6.22581 19.5806 5.35484 18.7419C4.51183 17.929 4.06222 16.8351 4.00602 15.5651L4 15.2903V8.67742C4 5.94892 5.76847 4.10466 8.44573 4.00431L8.67742 4H15.3226ZM15.298 5.5H8.70197C7.74138 5.5 6.90887 5.7896 6.36453 6.33663C5.83621 6.86757 5.55003 7.58779 5.506 8.4477L5.5 8.68564V15.2822C5.5 16.2797 5.78818 17.0842 6.36453 17.6634C6.89286 18.1648 7.60952 18.4499 8.4652 18.494L8.70197 18.5H15.234C16.1946 18.5 16.9951 18.2104 17.5714 17.6634C18.1034 17.1584 18.4445 16.4341 18.4938 15.5411L18.5 15.3144V8.68564C18.5 7.75248 18.1798 6.94802 17.6355 6.36881C17.1071 5.83787 16.3905 5.55028 15.5348 5.50603L15.298 5.5ZM16 12C16 9.8125 14.1875 8 12 8C9.8125 8 8 9.78125 8 12C8 14.2188 9.78125 16 12 16C14.2188 16 16 14.1875 16 12ZM12 9.5C10.628 9.5 9.5 10.628 9.5 12C9.5 13.372 10.628 14.5 12 14.5C13.372 14.5 14.5 13.372 14.5 12C14.5 10.628 13.372 9.5 12 9.5ZM17.5 8C17.5 7.44772 17.0523 7 16.5 7C15.9477 7 15.5 7.44772 15.5 8C15.5 8.55228 15.9477 9 16.5 9C17.0523 9 17.5 8.55228 17.5 8Z" fill="black"/>
</svg>
