<svg width="24" height="24" viewBox="0 0 24 24" fill="none" xmlns="http://www.w3.org/2000/svg">
<path fill-rule="evenodd" clip-rule="evenodd" d="M18.2857 4H5.71429C4.76786 4 4 4.76786 4 5.71429V18.2857C4 19.2321 4.76786 20 5.71429 20H18.2857C19.2321 20 20 19.2321 20 18.2857V5.71429C20 4.76786 19.2321 4 18.2857 4ZM9.85714 15.5714C7.88214 15.5714 6.28571 13.975 6.28571 12C6.28571 10.025 7.88214 8.42857 9.85714 8.42857C10.8214 8.42857 11.625 8.77857 12.25 9.36429L11.2821 10.2964C11.0179 10.0429 10.5571 9.74643 9.86071 9.74643C8.64286 9.74643 7.65 10.7536 7.65 12.0036C7.65 13.25 8.64286 14.2607 9.86071 14.2607C11.275 14.2607 11.8036 13.2429 11.8893 12.7214H9.85714V11.4929H13.2286C13.2643 11.6714 13.2857 11.8536 13.2857 12.0857C13.2857 14.125 11.9179 15.5714 9.85714 15.5714ZM17.7143 12.65H16.6786V13.6857H15.6357V12.65H14.6V11.6071H15.6357V10.5714H16.6786V11.6071H17.7143V12.65Z" fill="black"/>
</svg>
