<svg width="24" height="24" viewBox="0 0 24 24" fill="none" xmlns="http://www.w3.org/2000/svg">
<path fill-rule="evenodd" clip-rule="evenodd" d="M12 3C14.3869 3 16.6761 3.94821 18.364 5.63604C20.0518 7.32387 21 9.61305 21 12C21 16.9706 16.9706 21 12 21C10.227 21 8.58 20.487 7.185 19.605L3 21L4.395 16.815C3.513 15.42 3 13.773 3 12C3 7.02944 7.02944 3 12 3ZM12 4.8C8.02355 4.8 4.8 8.02355 4.8 12C4.8 13.548 5.286 14.979 6.114 16.149L5.25 18.75L7.851 17.886C9.021 18.714 10.452 19.2 12 19.2C15.9764 19.2 19.2 15.9764 19.2 12C19.2 8.02355 15.9764 4.8 12 4.8ZM9.246 7.5L9.77925 7.49873C9.89738 7.50506 10.0357 7.56075 10.164 7.905L10.785 9.588C10.839 9.705 10.875 9.84 10.794 9.984L10.551 10.353L10.2 10.731L10.1198 10.8152C10.0447 10.9043 9.9975 11.0122 10.092 11.181L10.1655 11.3231C10.3427 11.6419 10.7469 12.2575 11.28 12.783C12.0444 13.5222 12.7226 13.7988 12.9852 13.9276L13.035 13.953C13.251 14.079 13.386 14.061 13.521 13.917L14.25 13.071C14.421 12.846 14.565 12.9 14.772 12.972L16.275 13.764L16.4723 13.866C16.585 13.926 16.659 13.974 16.689 14.034C16.743 14.133 16.725 14.583 16.5 15.096C16.32 15.6 15.384 16.086 14.97 16.104C14.556 16.122 14.547 16.428 12.306 15.447C10.065 14.466 8.715 12.072 8.607 11.919L8.4972 11.7556C8.25684 11.3811 7.74935 10.4816 7.779 9.57C7.821 8.5452 8.32556 8.02216 8.5829 7.78136L8.634 7.734C8.85 7.5 9.093 7.473 9.246 7.5Z" fill="black"/>
</svg>
