<svg width="24" height="24" viewBox="0 0 24 24" fill="none" xmlns="http://www.w3.org/2000/svg">
<path fill-rule="evenodd" clip-rule="evenodd" d="M20 4.88214V19.1143C20 19.6036 19.6036 19.9964 19.1179 19.9964H15.0393V13.8036H17.1179L17.4286 11.3893H15.0357V9.84643C15.0357 9.14643 15.2286 8.67143 16.2321 8.67143H17.5107V6.51071C17.2893 6.48214 16.5321 6.41429 15.6464 6.41429C13.8036 6.41429 12.5393 7.53929 12.5393 9.60714V11.3893H10.4536V13.8036H12.5393V20H4.88214C4.39643 20 4 19.6036 4 19.1179V4.88214C4 4.39643 4.39643 4 4.88214 4H19.1143C19.6036 4 20 4.39643 20 4.88214Z" fill="black"/>
</svg>
