<svg width="24" height="24" viewBox="0 0 24 24" fill="none" xmlns="http://www.w3.org/2000/svg">
<path fill-rule="evenodd" clip-rule="evenodd" d="M19.1662 13.5632C19.2697 13.0633 19.334 12.5312 19.334 11.9991C19.334 7.94599 16.0522 4.66778 12.0027 4.66778C11.4706 4.66778 10.9421 4.72849 10.4386 4.83562C9.76008 4.31068 8.91731 4 7.99956 4C5.79266 4 4 5.79266 4 7.99956C4 8.91731 4.31068 9.76008 4.83205 10.435C4.72849 10.9349 4.66421 11.467 4.66421 11.9991C4.66421 16.0522 7.94599 19.3304 11.9955 19.3304C12.5276 19.3304 13.0561 19.2697 13.5597 19.1626C14.2382 19.684 15.0809 19.9947 15.9951 19.9947C18.202 19.9947 19.9947 18.202 19.9947 15.9951C19.9982 15.0809 19.6875 14.2382 19.1662 13.5632ZM12.2169 16.8307C9.87435 16.8307 7.91385 15.788 7.91385 14.5096C7.91385 13.9382 8.23525 13.4168 8.96731 13.4168C10.0815 13.4168 10.185 15.0202 12.1134 15.0202C13.0311 15.0202 13.6239 14.6131 13.6239 14.081C13.6239 13.4132 13.0526 13.3097 12.1241 13.0811C9.89221 12.5312 7.91742 12.2955 7.91742 9.9672C7.91742 7.85314 10.01 7.07109 11.8134 7.07109C13.7811 7.07109 15.7701 7.85314 15.7701 9.04944C15.7701 9.65295 15.363 10.185 14.6881 10.185C13.6775 10.185 13.6454 8.98873 12.0098 8.98873C11.0921 8.98873 10.51 9.23871 10.51 9.79222C10.51 10.4993 11.2528 10.5707 12.9776 10.9707C14.456 11.3028 16.2165 11.9277 16.2165 13.7418C16.2165 15.8523 14.1774 16.8307 12.2169 16.8307Z" fill="black"/>
</svg>
