<svg width="24" height="24" viewBox="0 0 24 24" fill="none" xmlns="http://www.w3.org/2000/svg">
<path fill-rule="evenodd" clip-rule="evenodd" d="M9.57147 13.5535C9.45917 14.1695 9.01321 17.041 8.88167 17.8527C8.87204 17.9104 8.84958 17.9329 8.78542 17.9329H6.39198C6.14815 17.9329 5.97169 17.7212 6.00377 17.4869L7.88387 5.55505C7.93199 5.24705 8.20791 5.01284 8.52554 5.01284C13.4119 5.01284 13.8225 4.89413 15.0706 5.37859C16.9988 6.12614 17.1753 7.92924 16.4823 9.87992C15.7925 11.8884 14.1562 12.7514 11.9874 12.7771C10.5949 12.7995 9.75755 12.5525 9.57147 13.5535ZM17.4544 8.93667C17.3967 8.89496 17.3742 8.87891 17.3582 8.97837C17.294 9.34413 17.1945 9.70025 17.0758 10.0564C15.7957 13.7075 12.2472 13.3899 10.5147 13.3899C10.319 13.3899 10.1907 13.4957 10.165 13.6915C9.43992 18.196 9.29555 19.136 9.29555 19.136C9.26346 19.3638 9.40784 19.5499 9.63563 19.5499H11.6729C11.9489 19.5499 12.1767 19.3478 12.2312 19.0719C12.2537 18.8986 12.1959 19.2676 12.6932 16.1426C12.8408 15.4368 13.152 15.5106 13.6332 15.5106C15.9112 15.5106 17.6886 14.5866 18.218 11.9076C18.4265 10.7911 18.3656 9.61684 17.4544 8.93667Z" fill="black"/>
</svg>
