<svg width="24" height="24" viewBox="0 0 24 24" fill="none" xmlns="http://www.w3.org/2000/svg">
<path fill-rule="evenodd" clip-rule="evenodd" d="M18.8571 4H5.13929C4.51071 4 4 4.51786 4 5.15357V18.8464C4 19.4821 4.51071 20 5.13929 20H18.8571C19.4857 20 20 19.4821 20 18.8464V5.15357C20 4.51786 19.4857 4 18.8571 4ZM8.83571 17.7143H6.46429V10.0786H8.83929V17.7143H8.83571ZM7.65 9.03571C6.88929 9.03571 6.275 8.41786 6.275 7.66071C6.275 6.90357 6.88929 6.28571 7.65 6.28571C8.40714 6.28571 9.025 6.90357 9.025 7.66071C9.025 8.42143 8.41071 9.03571 7.65 9.03571ZM17.725 17.7143H15.3536V14C15.3536 13.1143 15.3357 11.975 14.1214 11.975C12.8857 11.975 12.6964 12.9393 12.6964 13.9357V17.7143H10.325V10.0786H12.6V11.1214H12.6321C12.95 10.5214 13.725 9.88929 14.8786 9.88929C17.2786 9.88929 17.725 11.4714 17.725 13.5286V17.7143Z" fill="black"/>
</svg>
