<svg width="24" height="24" viewBox="0 0 24 24" fill="none" xmlns="http://www.w3.org/2000/svg">
<path fill-rule="evenodd" clip-rule="evenodd" d="M11.9383 5.71869C11.9383 5.0093 13.1279 4.81285 13.4444 5.18392C13.7609 5.55498 13.739 6.13341 13.4553 6.34077C13.1715 6.5263 12.0365 6.42808 11.9383 5.71869ZM14.4921 9.41843L14.4877 9.478C14.4788 9.59488 14.4733 9.66756 14.4921 9.72401C14.5903 9.97503 14.8195 10.6517 15.005 11.6994C15.0196 11.7807 15.0944 11.9301 15.1974 12.1357C15.4815 12.7028 15.98 13.6979 16.02 14.8753C16.02 14.9626 16.0964 14.9626 16.1291 14.8753C16.6748 13.4456 16.904 11.5793 16.7294 9.97503C16.4784 7.69407 15.0923 6.29711 14.2083 6.29711C14.0992 6.29711 14.001 6.31894 13.9137 6.3626C13.7063 6.46082 13.5863 6.6027 13.5317 6.77732C13.4035 7.22595 13.8085 7.90459 14.1737 8.51648L14.1974 8.55625C14.4157 8.89457 14.503 9.2329 14.4921 9.41843ZM7.46367 11.6994C6.81893 12.862 7.0238 14.2397 7.05719 14.4642L7.05987 14.4824C7.08169 14.6024 7.10352 14.6897 7.12535 14.7771C7.14718 14.8534 7.20175 14.8316 7.20175 14.7661C7.21266 14.406 7.33271 14.024 7.76926 13.5875C8.07944 13.2773 9.21323 12.5858 9.63432 12.329C9.71698 12.2786 9.77217 12.2449 9.78829 12.2342L9.952 12.1359C10.0284 12.0923 10.0502 12.0268 10.0611 11.9941C10.072 11.9613 10.1703 11.4265 10.1594 11.0664C10.1484 10.7062 9.97382 10.3788 9.64641 10.2151C9.52636 10.1496 9.3954 10.1278 9.26443 10.1278C8.68601 10.1387 8.00936 10.7281 7.46367 11.6994ZM9.75555 12.4852C9.83194 12.4415 9.8756 12.4743 9.8756 12.507C9.75555 13.4565 10.1484 14.5151 11.1634 15.3773C11.6 15.7484 12.102 16.043 12.6259 16.2504C12.6913 16.2722 12.6586 16.305 12.6368 16.3159C12.4185 16.5014 12.1784 16.6542 11.9274 16.7743C9.3954 17.9311 6.21951 15.7375 8.03119 13.6748C8.44591 13.1946 9.71189 12.507 9.75555 12.4852ZM12.9533 16.3705C13.6627 16.5996 14.372 16.676 14.9832 16.5669C15.0596 16.556 15.1578 16.5669 15.0596 16.6869C15.0447 16.7093 15.0247 16.7266 15.0065 16.7423L15.0065 16.7423C14.9981 16.7495 14.9901 16.7564 14.9832 16.7633C14.9723 16.7688 14.9641 16.777 14.9559 16.7852L14.9559 16.7852C14.9477 16.7934 14.9396 16.8015 14.9286 16.807L14.8959 16.8397L14.885 16.8507L14.8195 16.9161C14.7831 16.9525 14.7467 16.9792 14.7104 17.0059C14.6922 17.0192 14.674 17.0325 14.6558 17.0471C14.5903 17.0908 14.5357 17.1344 14.4812 17.1781C14.4703 17.1781 14.4594 17.189 14.4484 17.1999L14.4484 17.1999L14.4266 17.2108C14.4048 17.2272 14.3857 17.2408 14.3666 17.2545C14.3475 17.2681 14.3284 17.2817 14.3066 17.2981C14.2956 17.3036 14.2875 17.309 14.2793 17.3145L14.2793 17.3145C14.2711 17.3199 14.2629 17.3254 14.252 17.3309L14.2411 17.3418C14.2247 17.3527 14.2056 17.3636 14.1865 17.3745C14.1674 17.3854 14.1483 17.3963 14.1319 17.4073C14.1156 17.4182 14.0992 17.4264 14.0828 17.4345C14.0665 17.4427 14.0501 17.4509 14.0337 17.4618C14.0173 17.4727 13.9982 17.4837 13.9791 17.4946C13.96 17.5055 13.9409 17.5164 13.9246 17.5273L13.9028 17.5382C13.8973 17.5437 13.8891 17.5464 13.8809 17.5491C13.8727 17.5519 13.8646 17.5546 13.8591 17.56C13.8318 17.571 13.8073 17.5846 13.7827 17.5982L13.7827 17.5982C13.7581 17.6119 13.7336 17.6255 13.7063 17.6364L13.6627 17.6583C13.6517 17.6637 13.6381 17.6692 13.6245 17.6746L13.6245 17.6746L13.6244 17.6746C13.6108 17.6801 13.5972 17.6856 13.5863 17.691L13.5426 17.7128C13.4771 17.7456 13.4225 17.7674 13.3571 17.7892L13.3243 17.8001C13.3025 17.8001 13.2807 17.8111 13.2588 17.822L13.1934 17.8438C13.1661 17.8547 13.1388 17.8629 13.1115 17.8711C13.0842 17.8793 13.0569 17.8875 13.0297 17.8984L12.9969 17.9093C12.986 17.9147 12.9724 17.9175 12.9587 17.9202C12.9451 17.9229 12.9314 17.9257 12.9205 17.9311C12.9096 17.9366 12.896 17.9393 12.8823 17.942C12.8687 17.9448 12.855 17.9475 12.8441 17.9529C12.8278 17.9584 12.8086 17.9639 12.7895 17.9693C12.7705 17.9748 12.7514 17.9802 12.735 17.9857C12.7241 17.9911 12.7104 17.9939 12.6968 17.9966C12.6831 17.9993 12.6695 18.002 12.6586 18.0075C12.6368 18.013 12.6177 18.0157 12.5986 18.0184C12.5795 18.0211 12.5604 18.0239 12.5385 18.0293C12.5276 18.0293 12.514 18.0321 12.5003 18.0348C12.4867 18.0375 12.4731 18.0402 12.4621 18.0402C12.4458 18.0457 12.4267 18.0484 12.4076 18.0512C12.3885 18.0539 12.3694 18.0566 12.353 18.0621L12.1238 18.0948C12.1129 18.1057 12.0911 18.1057 12.0693 18.1057H12.0365C12.0038 18.1166 11.9601 18.1166 11.9274 18.1166H11.8619C11.72 18.1276 11.5781 18.1276 11.3926 18.1166H11.3817H11.3271C11.3108 18.1166 11.2971 18.1139 11.2835 18.1112C11.2698 18.1085 11.2562 18.1057 11.2398 18.1057L11.1634 18.0948C11.1416 18.0839 11.1198 18.0839 11.0979 18.0839H11.0761H11.0652C11.0397 18.0803 11.0155 18.0766 10.9912 18.073L10.9912 18.073C10.9427 18.0657 10.8942 18.0584 10.836 18.0512L10.7923 18.0402C10.7198 18.0312 10.6548 18.0146 10.5848 17.9967L10.5848 17.9967L10.5413 17.9857L10.5086 17.9748C10.4322 17.9639 10.3667 17.942 10.3013 17.9202L10.3013 17.9202L10.3012 17.9202L10.3012 17.9202H10.2794C10.2248 17.8984 10.1594 17.8765 10.0939 17.8547C10.083 17.8493 10.0748 17.8465 10.0666 17.8438C10.0584 17.8411 10.0502 17.8383 10.0393 17.8329H10.0284C10.0066 17.8274 9.98747 17.8192 9.96838 17.8111L9.96837 17.8111C9.94927 17.8029 9.93017 17.7947 9.90834 17.7892L9.88651 17.7783C9.86469 17.7783 9.84286 17.7674 9.82103 17.7565C9.76647 17.7238 9.7119 17.7019 9.65734 17.6801L9.65733 17.6801H9.64641C9.64096 17.6746 9.6355 17.6719 9.63004 17.6692C9.62459 17.6665 9.61913 17.6637 9.61367 17.6583C9.58639 17.6474 9.56183 17.6337 9.53728 17.6201C9.51272 17.6064 9.48816 17.5928 9.46088 17.5819L9.37357 17.5382C9.32992 17.5273 9.29717 17.5055 9.26443 17.4836C9.25352 17.4782 9.24533 17.4727 9.23715 17.4673C9.22896 17.4618 9.22078 17.4564 9.20986 17.4509C9.18804 17.4345 9.16621 17.4209 9.14438 17.4073C9.12256 17.3936 9.10073 17.38 9.0789 17.3636L9.02433 17.3309C8.96977 17.2981 8.92612 17.2654 8.88247 17.2326L8.88245 17.2326C8.86063 17.2326 8.84971 17.2217 8.8388 17.2108C8.82243 17.1944 8.80334 17.1808 8.78424 17.1672L8.78423 17.1672L8.78422 17.1671C8.76512 17.1535 8.74603 17.1399 8.72966 17.1235L8.70783 17.1017L8.68601 17.0798L8.63144 17.0362C8.61507 17.0198 8.59871 17.0062 8.58234 16.9925L8.58233 16.9925C8.56596 16.9789 8.54959 16.9652 8.53322 16.9489L8.38042 16.807C8.34768 16.7852 8.36951 16.7633 8.41317 16.7852C9.28626 17.2763 10.1048 17.3199 10.3558 17.3199H10.454H10.6396H10.6723H10.716C10.7323 17.3199 10.7487 17.3172 10.7651 17.3145C10.7814 17.3118 10.7978 17.309 10.8142 17.309C10.8251 17.2981 10.8469 17.2981 10.8578 17.2981L10.9015 17.2872C10.9195 17.2872 10.9375 17.2839 10.9537 17.2809C10.967 17.2785 10.979 17.2763 10.9888 17.2763C10.9997 17.2763 11.0079 17.2736 11.0161 17.2708C11.0243 17.2681 11.0325 17.2654 11.0434 17.2654L11.087 17.2545C11.0979 17.2545 11.1116 17.2517 11.1252 17.249C11.1389 17.2463 11.1525 17.2435 11.1634 17.2435C11.1743 17.2435 11.1852 17.2408 11.1962 17.2381C11.2071 17.2354 11.218 17.2326 11.2289 17.2326L11.2616 17.2217C11.2944 17.2217 11.3162 17.2217 11.338 17.2108C11.3489 17.2053 11.3599 17.2026 11.3708 17.1999C11.3817 17.1972 11.3926 17.1944 11.4035 17.189L11.4363 17.1781C11.4472 17.1726 11.4581 17.1699 11.469 17.1672C11.4799 17.1644 11.4908 17.1617 11.5017 17.1562C11.5127 17.1508 11.5263 17.1481 11.5399 17.1453C11.5536 17.1426 11.5672 17.1399 11.5781 17.1344L11.6 17.1235C11.6143 17.1187 11.6266 17.116 11.6376 17.1136L11.6377 17.1136C11.6518 17.1105 11.6641 17.1078 11.6764 17.1017C11.6982 17.0908 11.7309 17.0798 11.7637 17.0689L11.8292 17.0362C11.8455 17.0307 11.8592 17.0253 11.8728 17.0198C11.8864 17.0144 11.9001 17.0089 11.9165 17.0034L11.9819 16.9707C11.9983 16.9652 12.012 16.9571 12.0256 16.9489C12.0392 16.9407 12.0529 16.9325 12.0693 16.927L12.1347 16.8943C12.1511 16.8889 12.1647 16.8807 12.1784 16.8725L12.1784 16.8725C12.192 16.8643 12.2057 16.8561 12.222 16.8507L12.2875 16.8179C12.3039 16.807 12.3175 16.7988 12.3312 16.7906C12.3448 16.7824 12.3585 16.7743 12.3748 16.7633C12.3857 16.7524 12.4076 16.7415 12.4294 16.7306C12.4458 16.7197 12.4594 16.7115 12.473 16.7033L12.4731 16.7033C12.4867 16.6951 12.5003 16.6869 12.5167 16.676C12.5222 16.6706 12.5304 16.6651 12.5385 16.6597L12.5385 16.6597C12.5467 16.6542 12.5549 16.6487 12.5604 16.6433L12.5713 16.6324C12.5877 16.6215 12.6013 16.6106 12.6149 16.5996C12.6286 16.5887 12.6422 16.5778 12.6586 16.5669C12.6804 16.5451 12.6913 16.5342 12.7132 16.5232C12.7241 16.5123 12.7377 16.5014 12.7514 16.4905C12.765 16.4796 12.7786 16.4687 12.7896 16.4578L12.8223 16.425L12.8332 16.4141C12.855 16.3923 12.8987 16.3486 12.9533 16.3705ZM15.5835 13.8821C15.4765 13.3401 15.239 12.7236 15.069 12.2821C14.9789 12.048 14.9077 11.8632 14.885 11.7649C14.8616 11.6668 14.8443 11.5808 14.8278 11.4991L14.8278 11.499C14.8058 11.3897 14.7852 11.288 14.754 11.1755C14.7104 11.0009 14.6667 10.8372 14.6231 10.6844C14.6231 10.679 14.6203 10.6708 14.6176 10.6626C14.6149 10.6544 14.6121 10.6462 14.6121 10.6408C14.5467 10.4443 14.4812 10.2588 14.4157 10.0733L14.4157 10.0733C14.3939 10.0078 14.2847 9.94229 14.2302 10.0078C14.2083 10.0296 14.1865 10.0623 14.1647 10.106C14.0774 10.226 13.9573 10.3461 13.87 10.4334L13.87 10.4334L13.87 10.4334C13.8154 10.488 13.7609 10.5425 13.7063 10.608L13.6408 10.6844C13.2807 11.0555 13.4553 11.492 13.6845 12.0486L13.7063 12.0923C13.7172 12.1196 13.7281 12.1441 13.739 12.1686L13.739 12.1687L13.7391 12.1687C13.75 12.1933 13.7609 12.2178 13.7718 12.2451C13.9246 12.6052 14.121 13.0854 14.1429 13.7184C14.1756 14.5588 13.8045 15.4428 13.117 16.1631C13.0951 16.1849 13.0951 16.2395 13.1715 16.2504C15.1578 16.6433 15.9873 15.9776 15.5835 13.8821ZM10.2358 12.2887C10.2467 12.2014 10.3012 12.1578 10.334 12.1359C11.3599 11.5139 12.2548 10.9136 12.2657 10.3024C12.2766 9.89863 12.233 9.54939 12.1893 9.26564L12.1883 9.25827C12.1234 8.77135 12.0815 8.45704 12.3421 8.26158C12.4076 8.21792 12.5058 8.18518 12.6259 8.18518C13.0078 8.18518 13.6408 8.51259 14.1429 9.41843C14.2302 9.60396 14.252 9.66945 14.1756 9.77858C14.1429 9.83315 13.5208 10.5316 13.5208 10.5316C13.0733 10.99 13.2807 11.5029 13.5208 12.0923C13.6736 12.4634 13.8482 12.8999 13.8809 13.391C13.8918 13.5111 13.8918 13.6202 13.8918 13.7184C13.8918 14.6133 13.5426 15.4537 12.9096 16.0867C12.8987 16.1085 12.855 16.1304 12.8223 16.1085C12.4403 15.9448 12.0583 15.7156 11.7091 15.421C10.6505 14.5479 10.1157 13.3255 10.2358 12.2887ZM12.7677 7.13747C12.7568 6.90828 12.5495 6.71183 12.3203 6.70092C12.0911 6.67909 11.9601 6.8428 11.971 7.07199C11.9819 7.30117 12.1784 7.49762 12.4185 7.51945C12.6477 7.53036 12.7786 7.36666 12.7677 7.13747ZM10.8033 9.40752C10.8142 9.73493 10.5632 10.0514 10.2358 10.106C9.91925 10.1715 9.65733 9.99686 9.64641 9.66945C9.62458 9.33112 9.88651 9.02554 10.2139 8.97097C10.5413 8.9164 10.7923 9.08011 10.8033 9.40752Z" fill="black"/>
</svg>
