<svg width="24" height="24" viewBox="0 0 24 24" fill="none" xmlns="http://www.w3.org/2000/svg">
<path fill-rule="evenodd" clip-rule="evenodd" d="M12 20C7.58172 20 4 16.4183 4 12C4 7.58172 7.58172 4 12 4C16.4183 4 20 7.58172 20 12C20 16.4183 16.4183 20 12 20ZM10.536 16.22C14.084 16.22 16.024 13.28 16.024 10.732C16.024 10.648 16.024 10.564 16.02 10.484C16.396 10.212 16.724 9.872 16.984 9.484C16.64 9.636 16.268 9.74 15.876 9.788C16.276 9.548 16.58 9.172 16.724 8.72C16.352 8.94 15.94 9.1 15.5 9.188C15.148 8.812 14.648 8.58 14.092 8.58C13.028 8.58 12.164 9.444 12.164 10.508C12.164 10.66 12.18 10.808 12.216 10.948C10.612 10.868 9.192 10.1 8.24 8.932C8.076 9.216 7.98 9.548 7.98 9.9C7.98 10.568 8.32 11.16 8.84 11.504C8.524 11.496 8.228 11.408 7.968 11.264C7.968 11.272 7.968 11.28 7.968 11.288C7.968 12.224 8.632 13 9.516 13.18C9.356 13.224 9.184 13.248 9.008 13.248C8.884 13.248 8.764 13.236 8.644 13.212C8.888 13.98 9.6 14.536 10.444 14.552C9.784 15.068 8.952 15.376 8.048 15.376C7.892 15.376 7.74 15.368 7.588 15.348C8.432 15.9 9.448 16.22 10.536 16.22Z" fill="black"/>
</svg>
