<svg width="24" height="24" viewBox="0 0 24 24" fill="none" xmlns="http://www.w3.org/2000/svg">
<path fill-rule="evenodd" clip-rule="evenodd" d="M12 4C7.58387 4 4 7.58387 4 12C4 16.4161 7.58387 20 12 20C16.4161 20 20 16.4161 20 12C20 7.58387 16.4161 4 12 4ZM15.2484 15.771C15.1129 15.771 15.029 15.729 14.9032 15.6548C12.8903 14.4419 10.5484 14.3903 8.23548 14.8645C8.10968 14.8968 7.94516 14.9484 7.85161 14.9484C7.53871 14.9484 7.34194 14.7 7.34194 14.4387C7.34194 14.1065 7.53871 13.9484 7.78065 13.8968C10.4226 13.3129 13.1226 13.3645 15.4258 14.7419C15.6226 14.8677 15.7387 14.9806 15.7387 15.2742C15.7387 15.5677 15.5097 15.771 15.2484 15.771ZM16.1161 13.6548C15.9484 13.6548 15.8355 13.5806 15.7194 13.5194C13.7032 12.3258 10.6968 11.8452 8.02258 12.571C7.86774 12.6129 7.78387 12.6548 7.63871 12.6548C7.29355 12.6548 7.0129 12.3742 7.0129 12.029C7.0129 11.6839 7.18065 11.4548 7.5129 11.3613C8.40968 11.1097 9.32581 10.9226 10.6677 10.9226C12.7613 10.9226 14.7839 11.4419 16.3774 12.3903C16.6387 12.5452 16.7419 12.7452 16.7419 13.0258C16.7387 13.3742 16.4677 13.6548 16.1161 13.6548ZM17.1161 11.1968C16.9484 11.1968 16.8452 11.1548 16.7 11.071C14.4032 9.7 10.2968 9.37097 7.63871 10.1129C7.52258 10.1452 7.37742 10.1968 7.22258 10.1968C6.79677 10.1968 6.47097 9.86452 6.47097 9.43548C6.47097 8.99677 6.74194 8.74839 7.03226 8.66452C8.16774 8.33226 9.43871 8.17419 10.8226 8.17419C13.1774 8.17419 15.6452 8.66452 17.4484 9.71613C17.7 9.86129 17.8645 10.0613 17.8645 10.4452C17.8645 10.8839 17.5097 11.1968 17.1161 11.1968Z" fill="black"/>
</svg>
