<svg width="24" height="24" viewBox="0 0 24 24" fill="none" xmlns="http://www.w3.org/2000/svg">
<path fill-rule="evenodd" clip-rule="evenodd" d="M19.5856 7.75125C19.4026 7.06192 18.8632 6.51902 18.1783 6.33478C16.9369 6 11.9591 6 11.9591 6C11.9591 6 6.98138 6 5.73997 6.33478C5.0551 6.51905 4.5157 7.06192 4.33263 7.75125C4 9.0007 4 11.6076 4 11.6076C4 11.6076 4 14.2144 4.33263 15.4639C4.5157 16.1532 5.0551 16.6735 5.73997 16.8577C6.98138 17.1925 11.9591 17.1925 11.9591 17.1925C11.9591 17.1925 16.9369 17.1925 18.1783 16.8577C18.8632 16.6735 19.4026 16.1532 19.5856 15.4639C19.9183 14.2144 19.9183 11.6076 19.9183 11.6076C19.9183 11.6076 19.9183 9.0007 19.5856 7.75125ZM10.3311 13.9744V9.24073L14.4916 11.6076L10.3311 13.9744Z" fill="black"/>
</svg>
