<svg width="24" height="24" viewBox="0 0 24 24" fill="none" xmlns="http://www.w3.org/2000/svg">
<path fill-rule="evenodd" clip-rule="evenodd" d="M11.9993 4C7.58218 4 4 7.58169 4 12.0002C4 15.5348 6.29203 18.533 9.47101 19.5909C9.87127 19.6646 10.0171 19.4175 10.0171 19.2054C10.0171 19.0158 10.0103 18.5124 10.0063 17.845C7.78109 18.3282 7.31158 16.7724 7.31158 16.7724C6.94767 15.8481 6.42316 15.6021 6.42316 15.6021C5.6968 15.106 6.47816 15.1159 6.47816 15.1159C7.28113 15.1724 7.70349 15.9405 7.70349 15.9405C8.41708 17.1628 9.57611 16.8097 10.0319 16.6049C10.1045 16.0883 10.3113 15.7357 10.5397 15.5358C8.76331 15.3339 6.89561 14.6473 6.89561 11.5818C6.89561 10.7086 7.20746 9.99405 7.71921 9.43516C7.6367 9.23282 7.36217 8.41904 7.79778 7.31797C7.79778 7.31797 8.46914 7.10286 9.99748 8.13813C10.6354 7.96034 11.3201 7.87194 12.0002 7.8685C12.6799 7.87194 13.3641 7.96034 14.003 8.13813C15.5304 7.10286 16.2007 7.31797 16.2007 7.31797C16.6373 8.41904 16.3628 9.23282 16.2808 9.43516C16.7935 9.99405 17.1029 10.7086 17.1029 11.5818C17.1029 14.6552 15.2323 15.3315 13.4505 15.5294C13.7373 15.7764 13.9932 16.2646 13.9932 17.0111C13.9932 18.0802 13.9834 18.9431 13.9834 19.2054C13.9834 19.4195 14.1278 19.6685 14.5334 19.5904C17.7099 18.5301 20 15.5338 20 12.0002C20 7.58169 16.4178 4 11.9993 4Z" fill="black"/>
</svg>
