<svg width="24" height="24" viewBox="0 0 24 24" fill="none" xmlns="http://www.w3.org/2000/svg">
<path fill-rule="evenodd" clip-rule="evenodd" d="M21 8H15.618L12.8944 2.55279C12.5259 1.81574 11.4741 1.81574 11.1056 2.55279L8.38197 8H3.00001C2.1091 8 1.66293 9.07714 2.2929 9.70711L6.85588 14.2701L5.05132 19.6838C4.76959 20.529 5.65037 21.2929 6.44722 20.8944L12 18.118L17.5528 20.8944C18.3496 21.2929 19.2304 20.529 18.9487 19.6838L17.1441 14.2701L21.7071 9.70711C22.3371 9.07714 21.8909 8 21 8ZM12.4472 16.1056C12.3058 16.0349 12.1519 15.9997 11.998 16V5.24008L12 5.23607L14.1056 9.44721C14.275 9.786 14.6212 10 15 10H18.5858L15.2929 13.2929C15.0251 13.5607 14.9315 13.9569 15.0513 14.3162L16.2879 18.0259L12.4472 16.1056Z" fill="black"/>
</svg>
