<svg width="24" height="24" viewBox="0 0 24 24" fill="none" xmlns="http://www.w3.org/2000/svg">
<path fill-rule="evenodd" clip-rule="evenodd" d="M15 10C14.6212 10 14.275 9.786 14.1056 9.44721L12 5.23607L9.89443 9.44721C9.72504 9.786 9.37877 10 9 10H5.41421L8.70711 13.2929C8.97494 13.5607 9.06846 13.9569 8.94868 14.3162L7.71212 18.0259L11.5528 16.1056C11.8343 15.9648 12.1657 15.9648 12.4472 16.1056L16.2879 18.0259L15.0513 14.3162C14.9315 13.9569 15.0251 13.5607 15.2929 13.2929L18.5858 10H15ZM15.618 8H21C21.8909 8 22.3371 9.07714 21.7071 9.70711L17.1441 14.2701L18.9487 19.6838C19.2304 20.529 18.3496 21.2929 17.5528 20.8944L12 18.118L6.44721 20.8944C5.65036 21.2929 4.76959 20.529 5.05132 19.6838L6.85588 14.2701L2.29289 9.70711C1.66293 9.07714 2.1091 8 3 8H8.38197L11.1056 2.55279C11.4741 1.81574 12.5259 1.81574 12.8944 2.55279L15.618 8Z" fill="black"/>
</svg>
