<svg width="24" height="24" viewBox="0 0 24 24" fill="none" xmlns="http://www.w3.org/2000/svg">
<path fill-rule="evenodd" clip-rule="evenodd" d="M22 12C22 6.47715 17.5228 2 12 2C6.47715 2 2 6.47715 2 12C2 17.5228 6.47715 22 12 22C17.5228 22 22 17.5228 22 12ZM13 18.71L13.0012 16.8997C14.884 16.5171 16.3825 15.0763 16.8488 13.2252L16.899 13.003L18.71 13.0039L18.8266 13.0106C19.324 13.0684 19.71 13.491 19.71 14.0039C19.71 14.0795 19.7016 14.1531 19.6857 14.2239L19.6696 14.2827C18.9053 16.8544 16.8829 18.8845 14.3152 19.6593C14.2161 19.6922 14.1101 19.71 14 19.71C13.4477 19.71 13 19.2623 13 18.71ZM7.1 13.003L5.29 13.0039C4.73772 13.0039 4.29 13.4516 4.29 14.0039C4.29 14.0929 4.30164 14.1793 4.32349 14.2615C5.06484 16.7808 7.01337 18.7843 9.5001 19.6017L9.67612 19.6563C9.77774 19.6911 9.88674 19.71 10.0002 19.71C10.513 19.71 10.9357 19.324 10.9934 18.8266L10.9991 18.725L10.9998 16.8999C9.1165 16.5176 7.61761 15.0767 7.15123 13.2253L7.1 13.003ZM4.3412 9.68125C5.3352 6.39368 8.38806 4 12 4C15.6119 4 18.6648 6.39368 19.6584 9.68081L19.6857 9.78397C19.7016 9.85478 19.71 9.92843 19.71 10.004C19.71 10.5339 19.2979 10.9675 18.7768 11.0018L17.001 11.001L14.5858 8.58579C14.2107 8.21071 13.702 8 13.1716 8H10.8284C10.298 8 9.78929 8.21071 9.41421 8.58579L6.999 11.001L5.22321 11.0018C4.70206 10.9675 4.29 10.5339 4.29 10.004C4.29 9.89062 4.30888 9.78162 4.34367 9.68L4.3412 9.68125Z" fill="black"/>
</svg>
