<svg width="24" height="24" viewBox="0 0 24 24" fill="none" xmlns="http://www.w3.org/2000/svg">
<path fill-rule="evenodd" clip-rule="evenodd" d="M3 16C3 16.4168 3.25857 16.79 3.64887 16.9363L11.6489 19.9363C11.8753 20.0212 12.1247 20.0212 12.3511 19.9363L20.3511 16.9363C20.7414 16.79 21 16.4168 21 16V9.02304C21.0004 9.00762 21.0004 8.99216 21 8.97666V8.00244C21 7.58569 20.7415 7.21264 20.3514 7.06621L12.3514 4.06376C12.1248 3.97875 11.8752 3.97875 11.6486 4.06376L3.64862 7.06621C3.25845 7.21264 3 7.58569 3 8.00244V8.97666C2.99963 8.99215 2.99964 9.00762 3 9.02305V16ZM12 6.06811L18.4825 8.50104L12 10.932L5.51745 8.50104L12 6.06811ZM11 12.693L5 10.443V15.307L11 17.557V12.693ZM13 12.693V17.557L19 15.307V10.443L13 12.693Z" fill="black"/>
</svg>
