<svg width="24" height="24" viewBox="0 0 24 24" fill="none" xmlns="http://www.w3.org/2000/svg">
<path fill-rule="evenodd" clip-rule="evenodd" d="M3.16212 7.38225L14.5724 4.12217C14.8446 4.0444 15.137 4.08565 15.3771 4.2357L21.0932 7.80823C21.5615 8.10094 21.7039 8.71789 21.4112 9.18622C21.3109 9.34657 21.168 9.47418 21 9.55577V15C21 15.5523 20.5523 16 20 16C19.4477 16 19 15.5523 19 15V10.1429L16 11V13C16 13.5523 15.5523 14 15 14C14.4477 14 14 13.5523 14 13V11.5714L10 12.7143V18C10 18.5523 9.55229 19 9 19C8.44772 19 8 18.5523 8 18V12.375L5 10.5V15C5 15.5523 4.55229 16 4 16C3.44772 16 3 15.5523 3 15V9.25L2.90684 9.19178C2.4385 8.89907 2.29613 8.28212 2.58884 7.81378C2.71997 7.60397 2.92422 7.45022 3.16212 7.38225ZM5.87368 8.68755L9.30577 10.8326L18.1263 8.31245L14.6942 6.16739L5.87368 8.68755Z" fill="black"/>
</svg>
