<svg width="24" height="24" viewBox="0 0 24 24" fill="none" xmlns="http://www.w3.org/2000/svg">
<path fill-rule="evenodd" clip-rule="evenodd" d="M22.0231 22.2093C22.6483 21.6369 23.0028 20.8277 22.9994 19.9805L22.9994 16.9828C23.0162 15.8015 21.6142 15.0671 19.1848 14.2887C16.9236 13.5641 15.308 13.2946 14.6198 13.9738L13.891 14.7011C12.0329 13.52 10.4563 11.9469 9.27246 10.0929L9.99508 9.37175C10.6794 8.68114 10.4146 7.07423 9.69586 4.81603C8.92354 2.38947 8.19364 0.988506 7.01626 1.00007L4.0093 1.00002C3.16354 1.00082 2.35781 1.35601 1.78793 1.97907C1.21764 2.60257 0.936082 3.43688 1.01225 4.27805C1.36051 7.55225 2.47145 10.6834 4.25656 13.4336C5.8746 15.9749 8.03971 18.1357 10.5933 19.7552C13.3282 21.5253 16.4498 22.6335 19.6994 22.9859C20.5613 23.0638 21.3984 22.7813 22.0231 22.2093ZM18.5745 16.1933C19.3629 16.4459 20.0797 16.7312 20.5802 16.9942C20.7577 17.0874 20.8999 17.1738 20.9994 17.246V19.9846C21.0005 20.2718 20.882 20.5425 20.6725 20.7342C20.4627 20.9264 20.1811 21.0214 19.897 20.9958C16.9759 20.6789 14.1526 19.6765 11.6722 18.0712C9.35873 16.604 7.40394 14.653 5.93888 12.352C4.32029 9.85838 3.31599 7.02775 3.00256 4.08207C2.97865 3.81659 3.07278 3.53766 3.26371 3.32891C3.45504 3.11972 3.72597 3.00029 4.01024 3.00002L6.74585 3.00002C6.81777 3.10031 6.90368 3.24306 6.99627 3.42077C7.25722 3.92163 7.54008 4.63716 7.79007 5.4226C8.03256 6.18448 8.22523 6.95357 8.32332 7.54882C8.36371 7.79396 8.38611 7.99887 8.39058 8.14745L7.30516 9.23071C6.98605 9.54919 6.91951 10.0418 7.14269 10.4335C8.66334 13.1025 10.8775 15.3123 13.5516 16.8298C13.9425 17.0517 14.4334 16.9854 14.7515 16.6679L15.8368 15.5848C15.9865 15.5895 16.193 15.6125 16.4401 15.6537C17.0384 15.7535 17.8107 15.9485 18.5745 16.1933Z" fill="black"/>
</svg>
