<svg width="24" height="24" viewBox="0 0 24 24" fill="none" xmlns="http://www.w3.org/2000/svg">
<path fill-rule="evenodd" clip-rule="evenodd" d="M8.576 14.96C9.35467 15.7386 10.496 16.128 12 16.128C13.4933 16.128 14.632 15.736 15.416 14.952C16.2 14.168 16.592 13.024 16.592 11.52V4.71997H14.96V11.632C14.96 12.6666 14.7093 13.4506 14.208 13.984C13.7067 14.5173 12.9707 14.784 12 14.784C11.0187 14.784 10.28 14.5173 9.784 13.984C9.288 13.4506 9.04 12.6666 9.04 11.632V4.71997H7.408V11.52C7.408 13.0346 7.79733 14.1813 8.576 14.96ZM17 19C17 19.5523 16.5523 20 16 20H8C7.44772 20 7 19.5523 7 19C7 18.4477 7.44772 18 8 18H16C16.5523 18 17 18.4477 17 19Z" fill="black"/>
</svg>
