<svg width="24" height="24" viewBox="0 0 24 24" fill="none" xmlns="http://www.w3.org/2000/svg">
<path fill-rule="evenodd" clip-rule="evenodd" d="M15.032 11.144C15.6933 11.3466 16.2 11.6853 16.552 12.16C16.904 12.6346 17.08 13.2186 17.08 13.912C17.08 14.5306 16.9173 15.072 16.592 15.536C16.2667 16 15.8027 16.36 15.2 16.616C14.5973 16.872 13.8907 17 13.08 17H7.464V5.71997H12.92C14.104 5.71997 15.0453 5.98397 15.744 6.51197C16.4427 7.03997 16.792 7.75197 16.792 8.64797C16.792 9.22397 16.6373 9.7333 16.328 10.176C16.0187 10.6186 15.5867 10.9413 15.032 11.144ZM10.328 10.152H12.424C12.9787 10.152 13.384 10.0666 13.64 9.89597C13.896 9.7253 14.024 9.45331 14.024 9.07997C14.024 8.6853 13.896 8.39731 13.64 8.21597C13.384 8.03464 12.9787 7.94397 12.424 7.94397H10.328V10.152ZM12.712 14.776C13.2987 14.776 13.7173 14.6826 13.968 14.496C14.2187 14.3093 14.344 14.0026 14.344 13.576C14.344 13.1493 14.2187 12.8426 13.968 12.656C13.7173 12.4693 13.2987 12.376 12.712 12.376H10.328V14.776H12.712Z" fill="black"/>
</svg>
