<svg width="24" height="24" viewBox="0 0 24 24" fill="none" xmlns="http://www.w3.org/2000/svg">
<path fill-rule="evenodd" clip-rule="evenodd" d="M11.9998 0.000427246C5.3728 0.000427246 -0.0002 5.37243 -0.0002 11.9984C-0.0002 18.6254 5.3728 23.9964 11.9998 23.9964C18.6288 23.9964 23.9998 18.6254 23.9998 11.9984C23.9998 5.37243 18.6288 0.000427246 11.9998 0.000427246ZM20.0898 16.4414C19.7798 16.5484 17.9648 16.2004 15.8608 15.7044C15.8848 13.3044 15.7378 10.6964 15.4188 10.2424C14.9628 9.85243 11.2238 8.79643 8.1148 8.06343C8.1358 5.99943 8.2828 4.08943 8.5578 3.83743C9.3198 3.57043 19.3248 6.10043 20.0898 6.75343C20.6838 7.60043 20.6818 15.8964 20.0898 16.4414ZM8.1148 8.06343C6.0098 7.56643 4.1948 7.21843 3.8858 7.32543C3.2928 7.87143 3.2928 16.1694 3.8848 17.0124C4.6488 17.6664 14.6548 20.1974 15.4188 19.9294C15.6928 19.6774 15.8398 17.7674 15.8608 15.7044C12.7518 14.9704 9.0098 13.9144 8.5568 13.5244C8.2378 13.0704 8.0918 10.4624 8.1148 8.06343Z" fill="black"/>
</svg>
