<svg width="24" height="24" viewBox="0 0 24 24" fill="none" xmlns="http://www.w3.org/2000/svg">
<path fill-rule="evenodd" clip-rule="evenodd" d="M14.9997 10.7771L18.3978 12.4907C18.4875 12.5237 18.576 12.5601 18.6631 12.5996C20.6517 13.5024 21.5369 15.8533 20.6644 17.8586L18.923 22.1573C18.4304 23.291 17.3623 24 16.1748 24H12.9997C11.7069 24 10.5159 23.38 9.77036 22.3606L4.75404 16.5676C4.74002 16.5523 4.72377 16.5344 4.70382 16.5125C3.76503 15.4285 3.76503 13.774 4.70382 12.69C5.11441 12.2159 5.66767 11.8971 6.28058 11.7897C6.40912 11.7644 6.57308 11.75 6.73694 11.75C7.51753 11.75 8.27792 11.8764 8.99973 12.1159V6C8.99973 4.34315 10.3429 3 11.9997 3C13.6566 3 14.9997 4.34315 14.9997 6V10.7771ZM7.99973 6V10.4722C6.77223 9.37357 5.99973 7.777 5.99973 6C5.99973 2.68629 8.68602 0 11.9997 0C15.3134 0 17.9997 2.68629 17.9997 6C17.9997 7.777 17.2272 9.37357 15.9997 10.4722V6C15.9997 3.79086 14.2089 2 11.9997 2C9.79059 2 7.99973 3.79086 7.99973 6ZM12.9997 22H16.1748C16.5617 22 16.9123 21.7673 17.0694 21.4061L18.8305 17.0607C19.2697 16.0513 18.8246 14.8694 17.8364 14.4208C17.765 14.3883 17.6917 14.3603 17.617 14.3368L12.9997 12.0085V6C12.9997 5.44772 12.552 5 11.9997 5C11.4474 5 10.9997 5.44772 10.9997 6V15.8537C9.92598 14.5574 8.41312 13.75 6.73694 13.75C6.69577 13.75 6.65874 13.7533 6.6257 13.7597C6.47562 13.786 6.33122 13.8659 6.21565 13.9993C5.92775 14.3317 5.92775 14.8707 6.21565 15.2031C6.22145 15.2098 6.22755 15.2159 6.23395 15.2214L11.3453 21.1241C11.7052 21.6528 12.3119 22 12.9997 22Z" fill="black"/>
</svg>
