<svg width="24" height="24" viewBox="0 0 24 24" fill="none" xmlns="http://www.w3.org/2000/svg">
<path fill-rule="evenodd" clip-rule="evenodd" d="M14.0118 1.0038C13.2278 1.00103 10.2257 0.996868 9.98782 1.0038C9.28869 1.02418 9.02719 1.8668 9.03121 2.19691C9.03484 2.49378 9.0329 3.04318 9.03061 3.68929C9.02916 4.10036 9.02757 4.55057 9.02719 4.9998C9.02719 4.9998 6.27919 5.00912 6.1852 5.02197C5.97066 5.04929 5.6639 5.15129 5.45241 5.26045C4.77707 5.59995 4.27236 6.15101 4.07764 6.86662L4 7.23194C4 7.23194 4.00098 18.1408 4.01096 18.8256C4.02178 19.5676 4.03805 19.7209 4.12632 19.9903C4.35839 20.7035 5.01123 21.3709 5.72054 21.6164C5.77642 21.6353 5.86043 21.6513 5.93185 21.6649L5.93185 21.6649C5.97459 21.673 6.01281 21.6803 6.0378 21.6868C6.0378 22.4561 6.7833 22.9937 7.58518 22.9937C8.37747 22.9937 9.00772 22.4115 9.00772 21.7644H15.0188C15.0188 22.3966 15.6587 22.9909 16.5419 22.9909C17.4251 22.9909 18.0225 22.4753 18.0225 21.6868C18.3025 21.6164 18.5465 21.5348 18.7528 21.4125C19.2755 21.1038 19.7303 20.5498 19.9152 19.9881C20.0374 19.6079 20.0382 19.5857 20.0408 17.1932C20.0424 16.372 20.033 7.14093 19.9722 6.90522C19.8166 6.30334 19.4214 5.79495 18.9376 5.46668C18.597 5.23317 18.1974 5.06441 17.8613 5.02197C17.7616 5.00836 15.0188 4.99632 15.0188 4.99632L15.0182 4.53272L15.0182 4.53077C15.0157 2.55685 15.0155 2.4365 15.0129 2.3162L15.0124 2.29227L15.0124 2.29216L15.0124 2.29209C15.0118 2.26839 15.0112 2.24057 15.0104 2.19691L15.0102 2.18275C15.006 1.92166 14.9914 1.00894 14.0118 1.0038ZM13.0565 5.01386H11.005L11.005 3.0147L13.0424 3.01274L13.0443 3.3004C13.0474 3.74606 13.0532 4.59543 13.0565 5.01386ZM7.24497 19.9918H8.04471C8.04471 19.9918 8.03876 7.39283 8.03567 7.03623H7.24497C6.2577 7.03623 6.02223 7.33675 6.02223 8.3577L6.02223 18.6846C6.02223 19.7516 6.25828 19.9918 7.24497 19.9918ZM13.9972 19.9869C13.9755 19.9872 10.0021 19.9937 10.0021 19.9937C10.0021 19.9937 10.0011 7.39658 10.0016 7.04001C10.2062 7.03916 12.5361 7.035 14.0076 7.03418L14.0062 8.85101L14.0062 8.87155C14.0035 12.4105 13.9979 19.8363 13.9972 19.9869ZM18.0358 13.5184V8.21564C18.0358 7.31431 17.8098 7.03724 16.795 7.03724H16C16.0004 7.14973 16.0158 19.9906 16.0158 19.9906H16.795C17.8057 19.9906 18.0295 19.7335 18.0295 18.828C18.0295 18.588 18.0301 18.3069 18.031 17.9243C18.0329 17.1096 18.0358 15.8351 18.0358 13.5184Z" fill="black"/>
</svg>
