<svg width="24" height="24" viewBox="0 0 24 24" fill="none" xmlns="http://www.w3.org/2000/svg">
<path fill-rule="evenodd" clip-rule="evenodd" d="M3 4C2.44772 4 2 4.44772 2 5V16C2 16.5523 2.44772 17 3 17H4C4 18.6569 5.34315 20 7 20C8.65685 20 10 18.6569 10 17H14C14 18.6569 15.3431 20 17 20C18.6569 20 20 18.6569 20 17H21C21.5523 17 22 16.5523 22 16V11.4C22 11.1303 21.8911 10.8721 21.698 10.6839L19.2356 8.28388C19.0488 8.10186 18.7984 8 18.5376 8H16V5C16 4.44772 15.5523 4 15 4H3ZM19.2361 15H20V11.8218L18.1309 10H16V14.1707C16.3128 14.0602 16.6494 14 17 14C17.8885 14 18.6868 14.3863 19.2361 15ZM7 14C7.8885 14 8.68679 14.3863 9.23611 15H14V6H4V15H4.76389C5.31321 14.3863 6.1115 14 7 14ZM7 18C6.44772 18 6 17.5523 6 17C6 16.4477 6.44772 16 7 16C7.55228 16 8 16.4477 8 17C8 17.5523 7.55228 18 7 18ZM16 17C16 17.5523 16.4477 18 17 18C17.5523 18 18 17.5523 18 17C18 16.4477 17.5523 16 17 16C16.4477 16 16 16.4477 16 17Z" fill="black"/>
</svg>
