<svg width="24" height="24" viewBox="0 0 24 24" fill="none" xmlns="http://www.w3.org/2000/svg">
<path fill-rule="evenodd" clip-rule="evenodd" d="M14.9917 6.03349C17.3647 5.72249 19.4177 7.36049 19.8857 9.56449C21.7717 10.4735 22.9997 12.3855 22.9997 14.5005C22.9997 17.5325 20.5317 20.0005 17.4997 20.0005C16.9477 20.0005 16.4997 19.5525 16.4997 19.0005C16.4997 18.4475 16.9477 18.0005 17.4997 18.0005C19.4297 18.0005 20.9997 16.4295 20.9997 14.5005C20.9997 13.0255 20.0547 11.7045 18.6467 11.2125L18.0227 10.9945L17.9787 10.3355C17.8917 9.02549 16.8027 8.00049 15.4997 8.00049C15.2817 8.00049 15.0497 8.04049 14.7697 8.12649L13.9407 8.38049L13.5717 7.59449C12.8317 6.01849 11.2337 5.00049 9.4997 5.00049C7.0187 5.00049 4.9997 7.01849 4.9997 9.50049C4.9997 9.81749 5.0357 10.1455 5.1087 10.4735L5.2597 11.1635L4.6597 11.5365C3.6207 12.1845 2.9997 13.2925 2.9997 14.5005C2.9997 16.4295 4.5707 18.0005 6.4997 18.0005C7.0527 18.0005 7.4997 18.4475 7.4997 19.0005C7.4997 19.5525 7.0527 20.0005 6.4997 20.0005C3.4677 20.0005 0.999702 17.5325 0.999702 14.5005C0.999702 12.8265 1.7527 11.2765 3.0427 10.2365C3.0147 9.98949 2.9997 9.74349 2.9997 9.50049C2.9997 5.91649 5.9157 3.00049 9.4997 3.00049C11.7337 3.00049 13.8107 4.16849 14.9917 6.03349ZM9.70711 15.7071L11 14.4142V21C11 21.5523 11.4477 22 12 22C12.5523 22 13 21.5523 13 21V14.4142L14.2929 15.7071C14.6834 16.0976 15.3166 16.0976 15.7071 15.7071C16.0976 15.3166 16.0976 14.6834 15.7071 14.2929L12.7071 11.2929C12.3166 10.9024 11.6834 10.9024 11.2929 11.2929L8.2929 14.2929C7.90237 14.6834 7.90237 15.3166 8.2929 15.7071C8.68342 16.0976 9.31658 16.0976 9.70711 15.7071Z" fill="black"/>
</svg>
