<svg width="24" height="24" viewBox="0 0 24 24" fill="none" xmlns="http://www.w3.org/2000/svg">
<path fill-rule="evenodd" clip-rule="evenodd" d="M20 7.94C19.9949 7.8515 19.9781 7.76407 19.95 7.68V7.59C19.901 7.48226 19.8333 7.38407 19.75 7.3L14.75 2.3C14.6659 2.2167 14.5677 2.14898 14.46 2.1H14.36C14.2659 2.05097 14.1647 2.01721 14.06 2H7C5.34315 2 4 3.34315 4 5V19C4 20.6569 5.34315 22 7 22H8C8.55228 22 9 21.5523 9 21C9 20.4477 8.55228 20 8 20H7C6.44772 20 6 19.5523 6 19V5C6 4.44772 6.44772 4 7 4H13V8C13 8.55228 13.4477 9 14 9H18V19C18 19.5523 17.5523 20 17 20H16C15.4477 20 15 20.4477 15 21C15 21.5523 15.4477 22 16 22H17C18.6569 22 20 20.6569 20 19V8V7.94ZM15 7H16.59L15 5.41V7ZM9.70711 17.7071L11 16.4142V23C11 23.5523 11.4477 24 12 24C12.5523 24 13 23.5523 13 23V16.4142L14.2929 17.7071C14.6834 18.0976 15.3166 18.0976 15.7071 17.7071C16.0976 17.3166 16.0976 16.6834 15.7071 16.2929L12.7071 13.2929C12.3166 12.9024 11.6834 12.9024 11.2929 13.2929L8.29289 16.2929C7.90237 16.6834 7.90237 17.3166 8.29289 17.7071C8.68342 18.0976 9.31658 18.0976 9.70711 17.7071Z" fill="black"/>
</svg>
