<svg width="24" height="24" viewBox="0 0 24 24" fill="none" xmlns="http://www.w3.org/2000/svg">
<path fill-rule="evenodd" clip-rule="evenodd" d="M15.38 11.6751C16.902 10.2849 17.4126 8.10428 16.6658 6.18453C15.9189 4.26477 14.0678 3 12.005 3C9.94219 3 8.09111 4.26477 7.34424 6.18453C6.59736 8.10428 7.10802 10.2849 8.63 11.6751C5.22938 13.0461 3.00214 16.3401 3 20.0016C3 20.553 3.44772 21 4 21C4.55228 21 5 20.553 5 20.0016C5 16.1419 8.13401 13.0129 12 13.0129C15.866 13.0129 19 16.1419 19 20.0016C19 20.553 19.4477 21 20 21C20.5523 21 21 20.553 21 20.0016C20.9995 16.3426 18.7767 13.0492 15.38 11.6751ZM9 8.02097C9 6.36679 10.3431 5.02581 12 5.02581C13.6569 5.02581 15 6.36679 15 8.02097C15 9.67516 13.6569 11.0161 12 11.0161C10.3431 11.0161 9 9.67516 9 8.02097Z" fill="black"/>
</svg>
