<svg width="24" height="24" viewBox="0 0 24 24" fill="none" xmlns="http://www.w3.org/2000/svg">
<path fill-rule="evenodd" clip-rule="evenodd" d="M17.4569 17.2426L16.0426 15.8284C15.6523 15.4381 15.0188 15.4381 14.6284 15.8284C14.2381 16.2188 14.2381 16.8523 14.6284 17.2426L16.0426 18.6569L14.6284 20.0711C14.2381 20.4614 14.2381 21.095 14.6284 21.4853C15.0188 21.8756 15.6523 21.8756 16.0426 21.4853L17.4569 20.0711L18.8711 21.4853C19.2621 21.8763 19.895 21.8756 20.2853 21.4853C20.6756 21.095 20.6763 20.4621 20.2853 20.0711L18.8711 18.6569L20.2853 17.2426C20.6763 16.8516 20.6756 16.2188 20.2853 15.8284C19.895 15.4381 19.2621 15.4374 18.8711 15.8284L17.4569 17.2426ZM15.38 11.6751C16.902 10.2849 17.4126 8.10428 16.6658 6.18453C15.9189 4.26477 14.0678 3 12.005 3C9.94219 3 8.09111 4.26477 7.34424 6.18453C6.59736 8.10428 7.10802 10.2849 8.63 11.6751C5.22938 13.0461 3.00214 16.3401 3 20.0016C3 20.553 3.44772 21 4 21C4.55228 21 5 20.553 5 20.0016C5 16.1419 8.13401 13.0129 12 13.0129C14.0137 13.0129 15.8287 13.8618 17.1058 15.2207C17.1598 15.2781 17.2732 15.3732 17.3253 15.4325C17.6564 15.1328 18.2089 14.5085 18.877 14.2076C18.7942 14.106 18.8125 14.1294 18.7252 14.0313C17.8247 13.02 16.6896 12.2049 15.38 11.6751ZM9 8.02097C9 6.36679 10.3431 5.02581 12 5.02581C13.6569 5.02581 15 6.36679 15 8.02097C15 9.67516 13.6569 11.0161 12 11.0161C10.3431 11.0161 9 9.67516 9 8.02097Z" fill="black"/>
</svg>
