<svg width="24" height="24" viewBox="0 0 24 24" fill="none" xmlns="http://www.w3.org/2000/svg">
<path fill-rule="evenodd" clip-rule="evenodd" d="M6 11V9C6 8.448 5.552 8 5 8C4.448 8 4 8.448 4 9V11H2C1.448 11 1 11.448 1 12C1 12.552 1.448 13 2 13H4V15C4 15.553 4.448 16 5 16C5.552 16 6 15.553 6 15V13H8C8.553 13 9 12.552 9 12C9 11.448 8.553 11 8 11H6ZM13.0174 12.6654C12.3847 11.9579 12 11.0239 12 10C12 7.79086 13.7909 6 16 6C18.2091 6 20 7.79086 20 10C20 11.0239 19.6153 11.9579 18.9826 12.6654C21.3569 13.7853 23 16.2008 23 19C23 19.5523 22.5523 20 22 20C21.4477 20 21 19.5523 21 19C21 16.2386 18.7614 14 16 14C13.2386 14 11 16.2386 11 19C11 19.5523 10.5523 20 10 20C9.44771 20 9 19.5523 9 19C9 16.2008 10.6431 13.7853 13.0174 12.6654ZM16 12C17.1046 12 18 11.1046 18 10C18 8.89543 17.1046 8 16 8C14.8954 8 14 8.89543 14 10C14 11.1046 14.8954 12 16 12Z" fill="black"/>
</svg>
