<svg width="24" height="24" viewBox="0 0 24 24" fill="none" xmlns="http://www.w3.org/2000/svg">
<path fill-rule="evenodd" clip-rule="evenodd" d="M4.01739 10.6654C3.38468 9.95788 3 9.02386 3 8C3 5.79086 4.79086 4 7 4C9.20914 4 11 5.79086 11 8C11 9.02395 10.6153 9.95803 9.98245 10.6656C10.0587 10.7015 10.1343 10.7389 10.2092 10.7776C10.6999 11.0311 10.8922 11.6344 10.6387 12.125C10.3851 12.6157 9.78188 12.808 9.29121 12.5545C8.58924 12.1918 7.80947 12 7 12C4.23858 12 2 14.2386 2 17C2 17.5523 1.55228 18 1 18C0.447715 18 0 17.5523 0 17C0 14.2008 1.64307 11.7853 4.01739 10.6654ZM17 6C14.7909 6 13 7.79086 13 10C13 11.0239 13.3847 11.9579 14.0174 12.6654C11.6431 13.7853 10 16.2008 10 19C10 19.5523 10.4477 20 11 20C11.5523 20 12 19.5523 12 19C12 16.2386 14.2386 14 17 14C19.7614 14 22 16.2386 22 19C22 19.5523 22.4477 20 23 20C23.5523 20 24 19.5523 24 19C24 16.2008 22.3569 13.7853 19.9826 12.6654C20.6153 11.9579 21 11.0239 21 10C21 7.79086 19.2091 6 17 6ZM19 10C19 11.1046 18.1046 12 17 12C15.8954 12 15 11.1046 15 10C15 8.89543 15.8954 8 17 8C18.1046 8 19 8.89543 19 10ZM9 8C9 9.10457 8.10457 10 7 10C5.89543 10 5 9.10457 5 8C5 6.89543 5.89543 6 7 6C8.10457 6 9 6.89543 9 8Z" fill="black"/>
</svg>
