<svg width="24" height="24" viewBox="0 0 24 24" fill="none" xmlns="http://www.w3.org/2000/svg">
<path fill-rule="evenodd" clip-rule="evenodd" d="M17.9949 7.82373C17.9037 6.24892 16.5977 5 15 5H5L4.82373 5.00509C3.24892 5.09634 2 6.40232 2 8V16L2.00509 16.1763C2.09634 17.7511 3.40232 19 5 19H15L15.1763 18.9949C16.7511 18.9037 18 17.5977 18 16V13.667L20.3598 15.6332C20.5395 15.7829 20.7661 15.865 21 15.865C21.5523 15.865 22 15.4172 22 14.865V9.13504C22 8.90111 21.918 8.67457 21.7682 8.49486C21.4147 8.07058 20.7841 8.01326 20.3598 8.36682L18 10.332V8L17.9949 7.82373ZM5 7H15L15.1166 7.00673C15.614 7.06449 16 7.48716 16 8V16L15.9933 16.1166C15.9355 16.614 15.5128 17 15 17H5L4.88338 16.9933C4.38604 16.9355 4 16.5128 4 16V8L4.00673 7.88338C4.06449 7.38604 4.48716 7 5 7Z" fill="black"/>
</svg>
