<svg width="24" height="24" viewBox="0 0 24 24" fill="none" xmlns="http://www.w3.org/2000/svg">
<path fill-rule="evenodd" clip-rule="evenodd" d="M12 23C5.92487 23 1 18.0751 1 12C1 5.92487 5.92487 1 12 1C18.0751 1 23 5.92487 23 12C23 18.0751 18.0751 23 12 23ZM12 21C16.9706 21 21 16.9706 21 12C21 7.02944 16.9706 3 12 3C7.02944 3 3 7.02944 3 12C3 16.9706 7.02944 21 12 21ZM14.7753 11.6365L9.58813 9.0429C9.5317 9.01469 9.46948 9 9.40639 9C9.18195 9 9 9.18195 9 9.40639V14.5935C9 14.6566 9.01469 14.7188 9.0429 14.7753C9.14328 14.976 9.38739 15.0574 9.58813 14.957L14.7753 12.3634C14.8539 12.3241 14.9177 12.2603 14.957 12.1817C15.0574 11.981 14.976 11.7368 14.7753 11.6365Z" fill="black"/>
</svg>
