<svg width="24" height="25" viewBox="0 0 24 25" fill="none" xmlns="http://www.w3.org/2000/svg">
<path fill-rule="evenodd" clip-rule="evenodd" d="M17 8C17 5.23858 14.7614 3 12 3C9.23858 3 7 5.23858 7 8C7 9.44791 7.61544 10.7521 8.59911 11.6647C5.31452 13.0063 3 16.2328 3 20V22C3 22.5523 3.44772 23 4 23C4.55228 23 5 22.5523 5 22V20L5.00406 19.7593C5.11222 16.5576 7.37053 13.9012 10.3803 13.189C10.4041 13.3128 10.4515 13.4331 10.5225 13.5429L11.1602 14.5293C11.237 14.6482 11.3382 14.7494 11.4571 14.8262C11.9209 15.1261 12.54 14.9931 12.8398 14.5293L13.4775 13.5429C13.5485 13.4331 13.5959 13.3128 13.6194 13.1883C16.7046 13.9189 19 16.6914 19 20V22C19 22.5523 19.4477 23 20 23C20.5523 23 21 22.5523 21 22V20L20.9962 19.7346C20.8904 16.0818 18.6081 12.9747 15.401 11.6652C16.3846 10.7521 17 9.44791 17 8ZM12.9142 16.1839C12.8526 15.7853 12.5399 15.4726 12.1413 15.411C11.6364 15.3329 11.1638 15.679 11.0858 16.1839L10.2297 21.722C10.1923 21.9643 10.2451 22.2118 10.3782 22.4177L11.1602 23.6274C11.237 23.7463 11.3382 23.8475 11.4571 23.9243C11.9209 24.2242 12.54 24.0912 12.8398 23.6274L13.6218 22.4177C13.7549 22.2118 13.8077 21.9643 13.7703 21.722L12.9142 16.1839ZM17.5 18C17.7761 18 18 18.2239 18 18.5C18 18.7761 17.7761 19 17.5 19H15.5C15.2239 19 15 18.7761 15 18.5C15 18.2239 15.2239 18 15.5 18H17.5ZM9 8C9 6.34315 10.3431 5 12 5C13.6569 5 15 6.34315 15 8C15 9.65685 13.6569 11 12 11C10.3431 11 9 9.65685 9 8Z" fill="black"/>
</svg>
