<svg width="24" height="24" viewBox="0 0 24 24" fill="none" xmlns="http://www.w3.org/2000/svg">
<path fill-rule="evenodd" clip-rule="evenodd" d="M16 4H5C3.34315 4 2 5.34315 2 7V17C2 18.6569 3.34315 20 5 20H16C18.2091 20 20 18.2091 20 16V15.8293C21.1652 15.4175 22 14.3062 22 13V11C22 9.69378 21.1652 8.58254 20 8.17071V8C20 5.79086 18.2091 4 16 4ZM18 8C18 6.89543 17.1046 6 16 6H5C4.44772 6 4 6.44772 4 7V17C4 17.5523 4.44772 18 5 18H16C17.1046 18 18 17.1046 18 16H15C12.7909 16 11 14.2091 11 12C11 9.79086 12.7909 8 15 8H18ZM19 10C19.5523 10 20 10.4477 20 11V13C20 13.5523 19.5523 14 19 14H15C13.8954 14 13 13.1046 13 12C13 10.8954 13.8954 10 15 10H19ZM15 13C15.5523 13 16 12.5523 16 12C16 11.4477 15.5523 11 15 11C14.4477 11 14 11.4477 14 12C14 12.5523 14.4477 13 15 13Z" fill="black"/>
</svg>
