<svg width="24" height="24" viewBox="0 0 24 24" fill="none" xmlns="http://www.w3.org/2000/svg">
<path fill-rule="evenodd" clip-rule="evenodd" d="M11.5939 2.08619L2.59386 6.08619L2.51527 6.12513L2.42308 6.18296L2.33817 6.24999L2.2668 6.31961L2.17433 6.43571L2.11689 6.53069L2.08139 6.60481L2.03641 6.73169L2.01682 6.81683L2.00218 6.93351L2 7V22L2.00673 22.1166C2.06449 22.614 2.48716 23 3 23C3.55228 23 4 22.5523 4 22L3.9998 7.649L12 4.09432L19.9998 7.649L20 22L20.0067 22.1166C20.0645 22.614 20.4872 23 21 23C21.5523 23 22 22.5523 22 22L22 6.97883L21.9972 6.92243L21.9866 6.83587L21.9627 6.72935L21.9367 6.6499L21.8831 6.53072L21.8257 6.43568L21.7593 6.34893L21.6633 6.25163L21.547 6.16276L21.4494 6.10648L12.4061 2.08619L12.2933 2.04397C12.064 1.97362 11.8155 1.98769 11.5939 2.08619ZM11 17C11 16.4477 10.5523 16 10 16H6C5.44772 16 5 16.4477 5 17V21C5 21.5523 5.44772 22 6 22H10C10.5523 22 11 21.5523 11 21V17ZM19 17C19 16.4477 18.5523 16 18 16H14C13.4477 16 13 16.4477 13 17V21C13 21.5523 13.4477 22 14 22H18C18.5523 22 19 21.5523 19 21V17ZM10 8C10.5523 8 11 8.44772 11 9V13C11 13.5523 10.5523 14 10 14H6C5.44772 14 5 13.5523 5 13V9C5 8.44772 5.44772 8 6 8H10ZM19 9C19 8.44772 18.5523 8 18 8H14C13.4477 8 13 8.44772 13 9V13C13 13.5523 13.4477 14 14 14H18C18.5523 14 19 13.5523 19 13V9ZM9 18H7V20H9V18ZM15 18H17V20H15V18ZM9 10H7V12H9V10ZM15 10H17V12H15V10Z" fill="black"/>
</svg>
