<svg width="24" height="24" viewBox="0 0 24 24" fill="none" xmlns="http://www.w3.org/2000/svg">
<path fill-rule="evenodd" clip-rule="evenodd" d="M9.17071 8C9.06015 7.68722 9 7.35064 9 7C9 5.34315 10.3431 4 12 4C13.6569 4 15 5.34315 15 7C15 7.35064 14.9398 7.68722 14.8293 8H15.7977C17.1865 8 18.3937 8.95322 18.7159 10.3041L20.9726 18.768C21.1007 19.3053 20.769 19.8446 20.2318 19.9727C20.1558 19.9908 20.078 20 19.9999 20H3.99992C3.44764 20 2.99992 19.5523 2.99992 19C2.99992 18.9219 3.00907 18.844 3.02719 18.768L5.28391 10.3041C5.60605 8.95322 6.8133 8 8.2021 8H9.17071ZM5.26641 18H18.7334L16.7704 10.768C16.663 10.3177 16.2606 10 15.7977 10H8.2021C7.73916 10 7.33675 10.3177 7.22937 10.768L5.26641 18ZM13 7C13 7.55228 12.5523 8 12 8C11.4477 8 11 7.55228 11 7C11 6.44772 11.4477 6 12 6C12.5523 6 13 6.44772 13 7Z" fill="black"/>
</svg>
