<svg width="24" height="24" viewBox="0 0 24 24" fill="none" xmlns="http://www.w3.org/2000/svg">
<path fill-rule="evenodd" clip-rule="evenodd" d="M17.8398 14C17.9348 13.346 17.9998 12.681 17.9998 12C17.9998 11.319 17.9348 10.655 17.8398 10H20.7698C20.9158 10.644 20.9998 11.312 20.9998 12C20.9998 12.688 20.9158 13.355 20.7698 14H17.8398ZM15.1318 20.429C16.1298 19.11 16.9168 17.623 17.4028 16H20.0538C19.0398 18.036 17.2818 19.629 15.1318 20.429ZM8.6938 16H15.3068C14.6268 17.915 13.4838 19.61 11.9998 20.939C10.5168 19.61 9.3728 17.915 8.6938 16ZM3.9468 16H6.5958C7.0828 17.623 7.8698 19.11 8.8678 20.429C6.7178 19.629 4.9598 18.036 3.9468 16ZM2.9998 12C2.9998 11.312 3.0848 10.644 3.2308 10H6.1598C6.0658 10.655 5.9998 11.319 5.9998 12C5.9998 12.681 6.0658 13.346 6.1598 14H3.2308C3.0848 13.355 2.9998 12.688 2.9998 12ZM8.8678 3.571C7.8698 4.89 7.0828 6.377 6.5958 8H3.9468C4.9598 5.964 6.7178 4.371 8.8678 3.571ZM15.3068 8H8.6938C9.3728 6.085 10.5168 4.39 11.9998 3.061C13.4838 4.39 14.6268 6.085 15.3068 8ZM15.9998 12C15.9998 12.684 15.9258 13.348 15.8168 14H8.1838C8.0738 13.348 7.9998 12.684 7.9998 12C7.9998 11.316 8.0738 10.652 8.1838 10H15.8168C15.9258 10.652 15.9998 11.316 15.9998 12ZM20.0538 8H17.4028C16.9168 6.377 16.1298 4.89 15.1318 3.571C17.2818 4.371 19.0398 5.964 20.0538 8ZM11.9998 1C5.9248 1 0.999802 5.925 0.999802 12C0.999802 18.075 5.9248 23 11.9998 23C18.0748 23 22.9998 18.075 22.9998 12C22.9998 5.925 18.0748 1 11.9998 1Z" fill="black"/>
</svg>
