<svg width="24" height="24" viewBox="0 0 24 24" fill="none" xmlns="http://www.w3.org/2000/svg">
<path fill-rule="evenodd" clip-rule="evenodd" d="M14.06 0C14.1298 0.0114739 14.198 0.0303009 14.2637 0.0561059L14.36 0.1H14.46C14.5318 0.132654 14.5994 0.173635 14.6614 0.222009L14.75 0.3L19.75 5.3C19.8055 5.35605 19.8541 5.41837 19.8949 5.48561L19.95 5.59V5.68C19.9687 5.73604 19.9825 5.79359 19.991 5.85194L20 5.94V12H21C22.5977 12 23.9037 13.2489 23.9949 14.8237L24 15V21C24 22.5977 22.7511 23.9037 21.1763 23.9949L21 24H3C1.40232 24 0.0963391 22.7511 0.00509269 21.1763L0 21V15C0 13.4023 1.24892 12.0963 2.82373 12.0051L3 12H4V3C4 1.40232 5.24892 0.0963391 6.82373 0.00509269L7 0H14.06ZM21 14H3C2.48716 14 2.06449 14.386 2.00673 14.8834L2 15V21C2 21.5128 2.38604 21.9355 2.88338 21.9933L3 22H21C21.5128 22 21.9355 21.614 21.9933 21.1166L22 21V15C22 14.4872 21.614 14.0645 21.1166 14.0067L21 14ZM8.43 15.1799C8.30448 15.06 8.16361 15 8.00741 15C7.87351 15 7.75391 15.0464 7.64858 15.1392L7.57226 15.2176L6.05762 17.0669L4.52623 15.2176L4.44992 15.1392C4.34459 15.0464 4.22498 15 4.09109 15C3.93488 15 3.79402 15.06 3.66849 15.1799C3.54297 15.2999 3.48021 15.4407 3.48021 15.6025C3.48021 15.7029 3.51002 15.8002 3.56964 15.8944L3.6392 15.9874L5.29611 17.9707L3.58063 20.0126L3.51473 20.1025C3.45824 20.1946 3.43 20.2929 3.43 20.3975C3.43 20.5593 3.49276 20.7001 3.61828 20.8201C3.74381 20.94 3.88467 21 4.04088 21C4.17031 21 4.28724 20.9554 4.39167 20.8661L4.46766 20.7908L6.05762 18.8661L7.63084 20.7908L7.70414 20.8661C7.8059 20.9554 7.92372 21 8.05762 21C8.2194 21 8.36305 20.94 8.48858 20.8201C8.6141 20.7001 8.67686 20.5593 8.67686 20.3975C8.67686 20.2971 8.64705 20.1998 8.58743 20.1056L8.51787 20.0126L6.81075 17.9707L8.46766 15.9874L8.53356 15.8975C8.59004 15.8054 8.61828 15.7071 8.61828 15.6025C8.61828 15.4407 8.55552 15.2999 8.43 15.1799ZM10.6527 15.0084C10.8536 15.0084 11.0126 15.0669 11.1297 15.1841C11.2234 15.2778 11.2797 15.3965 11.2984 15.5403L11.3054 15.6527V19.887H13.4477L13.5638 19.8924C13.8936 19.9245 14.0586 20.1013 14.0586 20.4226C14.0586 20.7389 13.8936 20.9129 13.5638 20.9445L13.4477 20.9498H10.6109L10.4991 20.9434C10.3572 20.9265 10.2438 20.8756 10.159 20.7908C10.0742 20.706 10.0233 20.5926 10.0064 20.4507L10 20.3389V15.6527L10.007 15.5403C10.0258 15.3965 10.082 15.2778 10.1757 15.1841C10.2929 15.0669 10.4519 15.0084 10.6527 15.0084ZM16.2356 20.9249C16.614 21.025 17.0231 21.0751 17.4627 21.0751C17.9358 21.0751 18.3504 21 18.7066 20.8497C19.0683 20.6995 19.3466 20.488 19.5413 20.2153C19.7417 19.9426 19.8419 19.6282 19.8419 19.272C19.8419 18.8157 19.6749 18.4567 19.341 18.1951C19.0126 17.9336 18.47 17.7193 17.7132 17.5523C17.3904 17.48 17.14 17.4104 16.9619 17.3437C16.7893 17.2769 16.6641 17.2017 16.5862 17.1183C16.5139 17.0292 16.4777 16.9179 16.4777 16.7843C16.4777 16.5562 16.5751 16.3781 16.7699 16.2501C16.9646 16.1165 17.2318 16.0497 17.5713 16.0497C17.8662 16.0497 18.1083 16.0859 18.2975 16.1583C18.4923 16.2306 18.7038 16.3391 18.932 16.4838C19.0266 16.5395 19.0989 16.5756 19.149 16.5923C19.2046 16.609 19.2631 16.6174 19.3243 16.6174C19.4356 16.6174 19.533 16.5645 19.6165 16.4588C19.7055 16.353 19.75 16.2306 19.75 16.0915C19.75 15.9913 19.7306 15.9078 19.6916 15.841C19.6582 15.7687 19.5998 15.6991 19.5163 15.6323C19.0043 15.2372 18.3532 15.0396 17.5629 15.0396C17.1121 15.0396 16.7059 15.1203 16.3441 15.2817C15.988 15.4376 15.7069 15.6574 15.501 15.9412C15.3006 16.2195 15.2005 16.5339 15.2005 16.8845C15.2005 17.2017 15.27 17.4716 15.4092 17.6943C15.5539 17.9169 15.7793 18.1033 16.0853 18.2536C16.397 18.4038 16.8116 18.5318 17.3292 18.6376C17.7911 18.7322 18.1111 18.8323 18.2892 18.9381C18.4728 19.0438 18.5646 19.183 18.5646 19.3555C18.5646 19.5837 18.4673 19.759 18.2725 19.8814C18.0777 20.0038 17.7966 20.065 17.4293 20.065C17.1344 20.065 16.8645 20.0317 16.6196 19.9649C16.3747 19.8925 16.1326 19.7812 15.8933 19.631C15.8099 19.5809 15.7375 19.5475 15.6763 19.5308C15.6206 19.5085 15.5622 19.4974 15.501 19.4974C15.3897 19.4974 15.2895 19.5503 15.2005 19.656C15.117 19.7617 15.0753 19.8842 15.0753 20.0233C15.0753 20.129 15.092 20.2181 15.1253 20.2904C15.1643 20.3572 15.2255 20.4212 15.309 20.4824C15.5483 20.6716 15.8572 20.8191 16.2356 20.9249ZM13 2H7C6.48716 2 6.06449 2.38604 6.00673 2.88338L6 3V12H18V7H14C13.4872 7 13.0645 6.61396 13.0067 6.11662L13 6V2ZM15 5V3.41L16.59 5H15Z" fill="black"/>
</svg>
