<svg width="24" height="24" viewBox="0 0 24 24" fill="none" xmlns="http://www.w3.org/2000/svg">
<path fill-rule="evenodd" clip-rule="evenodd" d="M20.3305 19.2101C20.7214 19.601 20.7214 20.2331 20.3305 20.6241C20.1405 20.814 19.8867 20.917 19.6235 20.917C19.3602 20.917 19.1064 20.814 18.9165 20.6241L14.9985 16.7134C13.7365 17.6711 12.2065 18.1998 10.5999 18.1998C6.57483 18.1998 3.3 14.925 3.3 10.8999C3.3 6.87481 6.57483 3.59998 10.5999 3.59998C14.625 3.59998 17.8998 6.87481 17.8998 10.8999C17.8998 12.5065 17.3711 14.0365 16.4134 15.2985L20.3305 19.2101ZM5.29998 10.8999C5.29998 13.8227 7.67708 16.1998 10.5999 16.1998C13.5227 16.1998 15.8998 13.8227 15.8998 10.8999C15.8998 7.97705 13.5227 5.59995 10.5999 5.59995C7.67708 5.59995 5.29998 7.97705 5.29998 10.8999ZM11.6886 7.89998V9.87029H13.6916C14.2446 9.87029 14.6916 10.3183 14.6916 10.8703C14.6916 11.4223 14.2446 11.8703 13.6916 11.8703H11.6886V13.8777C11.6886 14.4307 11.2406 14.8777 10.6886 14.8777C10.1366 14.8777 9.68857 14.4307 9.68857 13.8777V11.8703H7.7C7.148 11.8703 6.7 11.4223 6.7 10.8703C6.7 10.3183 7.148 9.87029 7.7 9.87029H9.68857V7.89998C9.68857 7.34798 10.1366 6.89998 10.6886 6.89998C11.2406 6.89998 11.6886 7.34798 11.6886 7.89998Z" fill="black"/>
</svg>
